# Obsidian West — joint-local part geometry, +Y up, +Z forward
mtllib materials.mtl
o L_Leg_Thigh
v 0.404368 -0.000000 0.326936
v 0.143534 0.253649 0.456046
v 0.039835 -0.630000 0.793479
v 0.143534 0.253649 0.456046
v -0.262185 -0.450189 0.982301
v 0.039835 -0.630000 0.793479
v 0.143534 0.253649 0.456046
v -0.184460 0.388612 0.371768
v -0.262185 -0.450189 0.982301
v -0.184460 0.388612 0.371768
v -0.619331 -0.354513 0.931412
v -0.262185 -0.450189 0.982301
v -0.184460 0.388612 0.371768
v -0.426144 0.341740 0.113535
v -0.619331 -0.354513 0.931412
v -0.426144 0.341740 0.113535
v -0.864492 -0.387740 0.664623
v -0.619331 -0.354513 0.931412
v -0.426144 0.341740 0.113535
v -0.468430 0.134964 -0.197822
v -0.864492 -0.387740 0.664623
v -0.468430 0.134964 -0.197822
v -0.882953 -0.534324 0.306768
v -0.864492 -0.387740 0.664623
v -0.468430 0.134964 -0.197822
v -0.291533 -0.134964 -0.416616
v -0.882953 -0.534324 0.306768
v -0.291533 -0.134964 -0.416616
v -0.666078 -0.725676 0.025290
v -0.882953 -0.534324 0.306768
v -0.291533 -0.134964 -0.416616
v 0.021776 -0.341740 -0.440471
v -0.666078 -0.725676 0.025290
v 0.021776 -0.341740 -0.440471
v -0.315343 -0.872259 -0.048102
v -0.666078 -0.725676 0.025290
v 0.021776 -0.341740 -0.440471
v 0.324896 -0.388612 -0.258225
v -0.315343 -0.872259 -0.048102
v 0.324896 -0.388612 -0.258225
v 0.005138 -0.905487 0.120931
v -0.315343 -0.872259 -0.048102
v 0.324896 -0.388612 -0.258225
v 0.475993 -0.253649 0.044848
v 0.005138 -0.905487 0.120931
v 0.475993 -0.253649 0.044848
v 0.145409 -0.809812 0.453297
v 0.005138 -0.905487 0.120931
v 0.475993 -0.253649 0.044848
v 0.404368 -0.000000 0.326936
v 0.145409 -0.809812 0.453297
v 0.404368 -0.000000 0.326936
v 0.039835 -0.630000 0.793479
v 0.145409 -0.809812 0.453297
v 0.039835 -0.630000 0.793479
v -0.262185 -0.450189 0.982301
v -0.200823 -1.430000 0.783042
v -0.262185 -0.450189 0.982301
v -0.372696 -1.388105 0.911955
v -0.200823 -1.430000 0.783042
v -0.262185 -0.450189 0.982301
v -0.619331 -0.354513 0.931412
v -0.372696 -1.388105 0.911955
v -0.619331 -0.354513 0.931412
v -0.590099 -1.365812 0.899579
v -0.372696 -1.388105 0.911955
v -0.619331 -0.354513 0.931412
v -0.864492 -0.387740 0.664623
v -0.590099 -1.365812 0.899579
v -0.864492 -0.387740 0.664623
v -0.751306 -1.373554 0.751706
v -0.590099 -1.365812 0.899579
v -0.864492 -0.387740 0.664623
v -0.882953 -0.534324 0.306768
v -0.751306 -1.373554 0.751706
v -0.882953 -0.534324 0.306768
v -0.780887 -1.407708 0.537527
v -0.751306 -1.373554 0.751706
v -0.882953 -0.534324 0.306768
v -0.666078 -0.725676 0.025290
v -0.780887 -1.407708 0.537527
v -0.666078 -0.725676 0.025290
v -0.665000 -1.452292 0.357259
v -0.780887 -1.407708 0.537527
v -0.666078 -0.725676 0.025290
v -0.315343 -0.872259 -0.048102
v -0.665000 -1.452292 0.357259
v -0.315343 -0.872259 -0.048102
v -0.457871 -1.486446 0.295251
v -0.665000 -1.452292 0.357259
v -0.315343 -0.872259 -0.048102
v 0.005138 -0.905487 0.120931
v -0.457871 -1.486446 0.295251
v 0.005138 -0.905487 0.120931
v -0.256417 -1.494187 0.380518
v -0.457871 -1.486446 0.295251
v 0.005138 -0.905487 0.120931
v 0.145409 -0.809812 0.453297
v -0.256417 -1.494187 0.380518
v 0.145409 -0.809812 0.453297
v -0.154900 -1.471895 0.573161
v -0.256417 -1.494187 0.380518
v 0.145409 -0.809812 0.453297
v 0.039835 -0.630000 0.793479
v -0.154900 -1.471895 0.573161
v 0.039835 -0.630000 0.793479
v -0.200823 -1.430000 0.783042
v -0.154900 -1.471895 0.573161
v 0.404368 -0.000000 0.326936
v -0.184460 0.388612 0.371768
v 0.143534 0.253649 0.456046
v -0.200823 -1.430000 0.783042
v -0.372696 -1.388105 0.911955
v -0.590099 -1.365812 0.899579
v 0.404368 -0.000000 0.326936
v -0.426144 0.341740 0.113535
v -0.184460 0.388612 0.371768
v -0.200823 -1.430000 0.783042
v -0.590099 -1.365812 0.899579
v -0.751306 -1.373554 0.751706
v 0.404368 -0.000000 0.326936
v -0.468430 0.134964 -0.197822
v -0.426144 0.341740 0.113535
v -0.200823 -1.430000 0.783042
v -0.751306 -1.373554 0.751706
v -0.780887 -1.407708 0.537527
v 0.404368 -0.000000 0.326936
v -0.291533 -0.134964 -0.416616
v -0.468430 0.134964 -0.197822
v -0.200823 -1.430000 0.783042
v -0.780887 -1.407708 0.537527
v -0.665000 -1.452292 0.357259
v 0.404368 -0.000000 0.326936
v 0.021776 -0.341740 -0.440471
v -0.291533 -0.134964 -0.416616
v -0.200823 -1.430000 0.783042
v -0.665000 -1.452292 0.357259
v -0.457871 -1.486446 0.295251
v 0.404368 -0.000000 0.326936
v 0.324896 -0.388612 -0.258225
v 0.021776 -0.341740 -0.440471
v -0.200823 -1.430000 0.783042
v -0.457871 -1.486446 0.295251
v -0.256417 -1.494187 0.380518
v 0.404368 -0.000000 0.326936
v 0.475993 -0.253649 0.044848
v 0.324896 -0.388612 -0.258225
v -0.200823 -1.430000 0.783042
v -0.256417 -1.494187 0.380518
v -0.154900 -1.471895 0.573161
v -0.353715 0.113249 0.410000
v -0.569477 0.074648 0.410000
v -0.521229 0.067849 0.566181
v -0.353715 0.113249 0.410000
v -0.521229 0.067849 0.566181
v -0.399061 0.050633 0.649284
v -0.353715 0.113249 0.410000
v -0.399061 0.050633 0.649284
v -0.260137 0.031055 0.620422
v -0.353715 0.113249 0.410000
v -0.260137 0.031055 0.620422
v -0.169461 0.018277 0.493102
v -0.353715 0.113249 0.410000
v -0.169461 0.018277 0.493102
v -0.169461 0.018277 0.326898
v -0.353715 0.113249 0.410000
v -0.169461 0.018277 0.326898
v -0.260137 0.031055 0.199578
v -0.353715 0.113249 0.410000
v -0.260137 0.031055 0.199578
v -0.399061 0.050633 0.170716
v -0.353715 0.113249 0.410000
v -0.399061 0.050633 0.170716
v -0.521229 0.067849 0.253819
v -0.353715 0.113249 0.410000
v -0.521229 0.067849 0.253819
v -0.569477 0.074648 0.410000
v -0.521229 0.067849 0.566181
v -0.569477 0.074648 0.410000
v -0.674635 -0.103885 0.691429
v -0.569477 0.074648 0.410000
v -0.761575 -0.091634 0.410000
v -0.674635 -0.103885 0.691429
v -0.399061 0.050633 0.649284
v -0.521229 0.067849 0.566181
v -0.454496 -0.134908 0.841174
v -0.521229 0.067849 0.566181
v -0.674635 -0.103885 0.691429
v -0.454496 -0.134908 0.841174
v -0.260137 0.031055 0.620422
v -0.399061 0.050633 0.649284
v -0.204164 -0.170185 0.789168
v -0.399061 0.050633 0.649284
v -0.454496 -0.134908 0.841174
v -0.204164 -0.170185 0.789168
v -0.169461 0.018277 0.493102
v -0.260137 0.031055 0.620422
v -0.040771 -0.193211 0.559745
v -0.260137 0.031055 0.620422
v -0.204164 -0.170185 0.789168
v -0.040771 -0.193211 0.559745
v -0.169461 0.018277 0.326898
v -0.169461 0.018277 0.493102
v -0.040771 -0.193211 0.260255
v -0.169461 0.018277 0.493102
v -0.040771 -0.193211 0.559745
v -0.040771 -0.193211 0.260255
v -0.260137 0.031055 0.199578
v -0.169461 0.018277 0.326898
v -0.204164 -0.170185 0.030832
v -0.169461 0.018277 0.326898
v -0.040771 -0.193211 0.260255
v -0.204164 -0.170185 0.030832
v -0.399061 0.050633 0.170716
v -0.260137 0.031055 0.199578
v -0.454496 -0.134908 -0.021174
v -0.260137 0.031055 0.199578
v -0.204164 -0.170185 0.030832
v -0.454496 -0.134908 -0.021174
v -0.521229 0.067849 0.253819
v -0.399061 0.050633 0.170716
v -0.674635 -0.103885 0.128571
v -0.399061 0.050633 0.170716
v -0.454496 -0.134908 -0.021174
v -0.674635 -0.103885 0.128571
v -0.569477 0.074648 0.410000
v -0.521229 0.067849 0.253819
v -0.761575 -0.091634 0.410000
v -0.521229 0.067849 0.253819
v -0.674635 -0.103885 0.128571
v -0.761575 -0.091634 0.410000
v -0.674635 -0.103885 0.691429
v -0.761575 -0.091634 0.410000
v -0.783549 -0.367939 0.760936
v -0.761575 -0.091634 0.410000
v -0.891961 -0.352661 0.410000
v -0.783549 -0.367939 0.760936
v -0.454496 -0.134908 0.841174
v -0.674635 -0.103885 0.691429
v -0.509041 -0.406623 0.947665
v -0.674635 -0.103885 0.691429
v -0.783549 -0.367939 0.760936
v -0.509041 -0.406623 0.947665
v -0.204164 -0.170185 0.789168
v -0.454496 -0.134908 0.841174
v -0.196881 -0.450613 0.882815
v -0.454496 -0.134908 0.841174
v -0.509041 -0.406623 0.947665
v -0.196881 -0.450613 0.882815
v -0.040771 -0.193211 0.559745
v -0.204164 -0.170185 0.789168
v 0.006867 -0.479326 0.596729
v -0.204164 -0.170185 0.789168
v -0.196881 -0.450613 0.882815
v 0.006867 -0.479326 0.596729
v -0.040771 -0.193211 0.260255
v -0.040771 -0.193211 0.559745
v 0.006867 -0.479326 0.223271
v -0.040771 -0.193211 0.559745
v 0.006867 -0.479326 0.596729
v 0.006867 -0.479326 0.223271
v -0.204164 -0.170185 0.030832
v -0.040771 -0.193211 0.260255
v -0.196881 -0.450613 -0.062815
v -0.040771 -0.193211 0.260255
v 0.006867 -0.479326 0.223271
v -0.196881 -0.450613 -0.062815
v -0.454496 -0.134908 -0.021174
v -0.204164 -0.170185 0.030832
v -0.509041 -0.406623 -0.127665
v -0.204164 -0.170185 0.030832
v -0.196881 -0.450613 -0.062815
v -0.509041 -0.406623 -0.127665
v -0.674635 -0.103885 0.128571
v -0.454496 -0.134908 -0.021174
v -0.783549 -0.367939 0.059064
v -0.454496 -0.134908 -0.021174
v -0.509041 -0.406623 -0.127665
v -0.783549 -0.367939 0.059064
v -0.761575 -0.091634 0.410000
v -0.674635 -0.103885 0.128571
v -0.891961 -0.352661 0.410000
v -0.674635 -0.103885 0.128571
v -0.783549 -0.367939 0.059064
v -0.891961 -0.352661 0.410000
v -0.783549 -0.367939 0.760936
v -0.891961 -0.352661 0.410000
v -0.826400 -0.672013 0.760936
v -0.891961 -0.352661 0.410000
v -0.934812 -0.656736 0.410000
v -0.826400 -0.672013 0.760936
v -0.509041 -0.406623 0.947665
v -0.783549 -0.367939 0.760936
v -0.551892 -0.710698 0.947665
v -0.783549 -0.367939 0.760936
v -0.826400 -0.672013 0.760936
v -0.551892 -0.710698 0.947665
v -0.196881 -0.450613 0.882815
v -0.509041 -0.406623 0.947665
v -0.239732 -0.754688 0.882815
v -0.509041 -0.406623 0.947665
v -0.551892 -0.710698 0.947665
v -0.239732 -0.754688 0.882815
v 0.006867 -0.479326 0.596729
v -0.196881 -0.450613 0.882815
v -0.035984 -0.783400 0.596729
v -0.196881 -0.450613 0.882815
v -0.239732 -0.754688 0.882815
v -0.035984 -0.783400 0.596729
v 0.006867 -0.479326 0.223271
v 0.006867 -0.479326 0.596729
v -0.035984 -0.783400 0.223271
v 0.006867 -0.479326 0.596729
v -0.035984 -0.783400 0.596729
v -0.035984 -0.783400 0.223271
v -0.196881 -0.450613 -0.062815
v 0.006867 -0.479326 0.223271
v -0.239732 -0.754688 -0.062815
v 0.006867 -0.479326 0.223271
v -0.035984 -0.783400 0.223271
v -0.239732 -0.754688 -0.062815
v -0.509041 -0.406623 -0.127665
v -0.196881 -0.450613 -0.062815
v -0.551892 -0.710698 -0.127665
v -0.196881 -0.450613 -0.062815
v -0.239732 -0.754688 -0.062815
v -0.551892 -0.710698 -0.127665
v -0.783549 -0.367939 0.059064
v -0.509041 -0.406623 -0.127665
v -0.826400 -0.672013 0.059064
v -0.509041 -0.406623 -0.127665
v -0.551892 -0.710698 -0.127665
v -0.826400 -0.672013 0.059064
v -0.891961 -0.352661 0.410000
v -0.783549 -0.367939 0.059064
v -0.934812 -0.656736 0.410000
v -0.783549 -0.367939 0.059064
v -0.826400 -0.672013 0.059064
v -0.934812 -0.656736 0.410000
v -0.826400 -0.672013 0.760936
v -0.934812 -0.656736 0.410000
v -0.794700 -0.955883 0.691429
v -0.934812 -0.656736 0.410000
v -0.881640 -0.943631 0.410000
v -0.794700 -0.955883 0.691429
v -0.551892 -0.710698 0.947665
v -0.826400 -0.672013 0.760936
v -0.574562 -0.986905 0.841174
v -0.826400 -0.672013 0.760936
v -0.794700 -0.955883 0.691429
v -0.574562 -0.986905 0.841174
v -0.239732 -0.754688 0.882815
v -0.551892 -0.710698 0.947665
v -0.324229 -1.022183 0.789168
v -0.551892 -0.710698 0.947665
v -0.574562 -0.986905 0.841174
v -0.324229 -1.022183 0.789168
v -0.035984 -0.783400 0.596729
v -0.239732 -0.754688 0.882815
v -0.160836 -1.045208 0.559745
v -0.239732 -0.754688 0.882815
v -0.324229 -1.022183 0.789168
v -0.160836 -1.045208 0.559745
v -0.035984 -0.783400 0.223271
v -0.035984 -0.783400 0.596729
v -0.160836 -1.045208 0.260255
v -0.035984 -0.783400 0.596729
v -0.160836 -1.045208 0.559745
v -0.160836 -1.045208 0.260255
v -0.239732 -0.754688 -0.062815
v -0.035984 -0.783400 0.223271
v -0.324229 -1.022183 0.030832
v -0.035984 -0.783400 0.223271
v -0.160836 -1.045208 0.260255
v -0.324229 -1.022183 0.030832
v -0.551892 -0.710698 -0.127665
v -0.239732 -0.754688 -0.062815
v -0.574562 -0.986905 -0.021174
v -0.239732 -0.754688 -0.062815
v -0.324229 -1.022183 0.030832
v -0.574562 -0.986905 -0.021174
v -0.826400 -0.672013 0.059064
v -0.551892 -0.710698 -0.127665
v -0.794700 -0.955883 0.128571
v -0.551892 -0.710698 -0.127665
v -0.574562 -0.986905 -0.021174
v -0.794700 -0.955883 0.128571
v -0.934812 -0.656736 0.410000
v -0.826400 -0.672013 0.059064
v -0.881640 -0.943631 0.410000
v -0.826400 -0.672013 0.059064
v -0.794700 -0.955883 0.128571
v -0.881640 -0.943631 0.410000
v -0.794700 -0.955883 0.691429
v -0.881640 -0.943631 0.410000
v -0.694728 -1.163324 0.566181
v -0.881640 -0.943631 0.410000
v -0.742976 -1.156524 0.410000
v -0.694728 -1.163324 0.566181
v -0.574562 -0.986905 0.841174
v -0.794700 -0.955883 0.691429
v -0.572560 -1.180539 0.649284
v -0.794700 -0.955883 0.691429
v -0.694728 -1.163324 0.566181
v -0.572560 -1.180539 0.649284
v -0.324229 -1.022183 0.789168
v -0.574562 -0.986905 0.841174
v -0.433636 -1.200117 0.620422
v -0.574562 -0.986905 0.841174
v -0.572560 -1.180539 0.649284
v -0.433636 -1.200117 0.620422
v -0.160836 -1.045208 0.559745
v -0.324229 -1.022183 0.789168
v -0.342960 -1.212895 0.493102
v -0.324229 -1.022183 0.789168
v -0.433636 -1.200117 0.620422
v -0.342960 -1.212895 0.493102
v -0.160836 -1.045208 0.260255
v -0.160836 -1.045208 0.559745
v -0.342960 -1.212895 0.326898
v -0.160836 -1.045208 0.559745
v -0.342960 -1.212895 0.493102
v -0.342960 -1.212895 0.326898
v -0.324229 -1.022183 0.030832
v -0.160836 -1.045208 0.260255
v -0.433636 -1.200117 0.199578
v -0.160836 -1.045208 0.260255
v -0.342960 -1.212895 0.326898
v -0.433636 -1.200117 0.199578
v -0.574562 -0.986905 -0.021174
v -0.324229 -1.022183 0.030832
v -0.572560 -1.180539 0.170716
v -0.324229 -1.022183 0.030832
v -0.433636 -1.200117 0.199578
v -0.572560 -1.180539 0.170716
v -0.794700 -0.955883 0.128571
v -0.574562 -0.986905 -0.021174
v -0.694728 -1.163324 0.253819
v -0.574562 -0.986905 -0.021174
v -0.572560 -1.180539 0.170716
v -0.694728 -1.163324 0.253819
v -0.881640 -0.943631 0.410000
v -0.794700 -0.955883 0.128571
v -0.742976 -1.156524 0.410000
v -0.794700 -0.955883 0.128571
v -0.694728 -1.163324 0.253819
v -0.742976 -1.156524 0.410000
v -0.694728 -1.163324 0.566181
v -0.742976 -1.156524 0.410000
v -0.546285 -1.253249 0.410000
v -0.572560 -1.180539 0.649284
v -0.694728 -1.163324 0.566181
v -0.546285 -1.253249 0.410000
v -0.433636 -1.200117 0.620422
v -0.572560 -1.180539 0.649284
v -0.546285 -1.253249 0.410000
v -0.342960 -1.212895 0.493102
v -0.433636 -1.200117 0.620422
v -0.546285 -1.253249 0.410000
v -0.342960 -1.212895 0.326898
v -0.342960 -1.212895 0.493102
v -0.546285 -1.253249 0.410000
v -0.433636 -1.200117 0.199578
v -0.342960 -1.212895 0.326898
v -0.546285 -1.253249 0.410000
v -0.572560 -1.180539 0.170716
v -0.433636 -1.200117 0.199578
v -0.546285 -1.253249 0.410000
v -0.694728 -1.163324 0.253819
v -0.572560 -1.180539 0.170716
v -0.546285 -1.253249 0.410000
v -0.742976 -1.156524 0.410000
v -0.694728 -1.163324 0.253819
v -0.546285 -1.253249 0.410000
v -0.620000 -0.850000 0.730000
v -0.702438 -0.887632 0.730000
v -0.678292 -0.887632 0.846585
v -0.620000 -0.850000 0.730000
v -0.678292 -0.887632 0.846585
v -0.620000 -0.887632 0.894876
v -0.620000 -0.850000 0.730000
v -0.620000 -0.887632 0.894876
v -0.561708 -0.887632 0.846585
v -0.620000 -0.850000 0.730000
v -0.561708 -0.887632 0.846585
v -0.537562 -0.887632 0.730000
v -0.620000 -0.850000 0.730000
v -0.537562 -0.887632 0.730000
v -0.561708 -0.887632 0.613415
v -0.620000 -0.850000 0.730000
v -0.561708 -0.887632 0.613415
v -0.620000 -0.887632 0.565124
v -0.620000 -0.850000 0.730000
v -0.620000 -0.887632 0.565124
v -0.678292 -0.887632 0.613415
v -0.620000 -0.850000 0.730000
v -0.678292 -0.887632 0.613415
v -0.702438 -0.887632 0.730000
v -0.678292 -0.887632 0.846585
v -0.702438 -0.887632 0.730000
v -0.725039 -0.993074 0.940079
v -0.702438 -0.887632 0.730000
v -0.768548 -0.993074 0.730000
v -0.725039 -0.993074 0.940079
v -0.620000 -0.887632 0.894876
v -0.678292 -0.887632 0.846585
v -0.620000 -0.993074 1.027096
v -0.678292 -0.887632 0.846585
v -0.725039 -0.993074 0.940079
v -0.620000 -0.993074 1.027096
v -0.561708 -0.887632 0.846585
v -0.620000 -0.887632 0.894876
v -0.514961 -0.993074 0.940079
v -0.620000 -0.887632 0.894876
v -0.620000 -0.993074 1.027096
v -0.514961 -0.993074 0.940079
v -0.537562 -0.887632 0.730000
v -0.561708 -0.887632 0.846585
v -0.471452 -0.993074 0.730000
v -0.561708 -0.887632 0.846585
v -0.514961 -0.993074 0.940079
v -0.471452 -0.993074 0.730000
v -0.561708 -0.887632 0.613415
v -0.537562 -0.887632 0.730000
v -0.514961 -0.993074 0.519921
v -0.537562 -0.887632 0.730000
v -0.471452 -0.993074 0.730000
v -0.514961 -0.993074 0.519921
v -0.620000 -0.887632 0.565124
v -0.561708 -0.887632 0.613415
v -0.620000 -0.993074 0.432904
v -0.561708 -0.887632 0.613415
v -0.514961 -0.993074 0.519921
v -0.620000 -0.993074 0.432904
v -0.678292 -0.887632 0.613415
v -0.620000 -0.887632 0.565124
v -0.725039 -0.993074 0.519921
v -0.620000 -0.887632 0.565124
v -0.620000 -0.993074 0.432904
v -0.725039 -0.993074 0.519921
v -0.702438 -0.887632 0.730000
v -0.678292 -0.887632 0.613415
v -0.768548 -0.993074 0.730000
v -0.678292 -0.887632 0.613415
v -0.725039 -0.993074 0.519921
v -0.768548 -0.993074 0.730000
v -0.725039 -0.993074 0.940079
v -0.768548 -0.993074 0.730000
v -0.750982 -1.145442 0.991964
v -0.768548 -0.993074 0.730000
v -0.805236 -1.145442 0.730000
v -0.750982 -1.145442 0.991964
v -0.620000 -0.993074 1.027096
v -0.725039 -0.993074 0.940079
v -0.620000 -1.145442 1.100473
v -0.725039 -0.993074 0.940079
v -0.750982 -1.145442 0.991964
v -0.620000 -1.145442 1.100473
v -0.514961 -0.993074 0.940079
v -0.620000 -0.993074 1.027096
v -0.489018 -1.145442 0.991964
v -0.620000 -0.993074 1.027096
v -0.620000 -1.145442 1.100473
v -0.489018 -1.145442 0.991964
v -0.471452 -0.993074 0.730000
v -0.514961 -0.993074 0.940079
v -0.434764 -1.145442 0.730000
v -0.514961 -0.993074 0.940079
v -0.489018 -1.145442 0.991964
v -0.434764 -1.145442 0.730000
v -0.514961 -0.993074 0.519921
v -0.471452 -0.993074 0.730000
v -0.489018 -1.145442 0.468036
v -0.471452 -0.993074 0.730000
v -0.434764 -1.145442 0.730000
v -0.489018 -1.145442 0.468036
v -0.620000 -0.993074 0.432904
v -0.514961 -0.993074 0.519921
v -0.620000 -1.145442 0.359527
v -0.514961 -0.993074 0.519921
v -0.489018 -1.145442 0.468036
v -0.620000 -1.145442 0.359527
v -0.725039 -0.993074 0.519921
v -0.620000 -0.993074 0.432904
v -0.750982 -1.145442 0.468036
v -0.620000 -0.993074 0.432904
v -0.620000 -1.145442 0.359527
v -0.750982 -1.145442 0.468036
v -0.768548 -0.993074 0.730000
v -0.725039 -0.993074 0.519921
v -0.805236 -1.145442 0.730000
v -0.725039 -0.993074 0.519921
v -0.750982 -1.145442 0.468036
v -0.805236 -1.145442 0.730000
v -0.750982 -1.145442 0.991964
v -0.805236 -1.145442 0.730000
v -0.750982 -1.314558 0.991964
v -0.805236 -1.145442 0.730000
v -0.805236 -1.314558 0.730000
v -0.750982 -1.314558 0.991964
v -0.620000 -1.145442 1.100473
v -0.750982 -1.145442 0.991964
v -0.620000 -1.314558 1.100473
v -0.750982 -1.145442 0.991964
v -0.750982 -1.314558 0.991964
v -0.620000 -1.314558 1.100473
v -0.489018 -1.145442 0.991964
v -0.620000 -1.145442 1.100473
v -0.489018 -1.314558 0.991964
v -0.620000 -1.145442 1.100473
v -0.620000 -1.314558 1.100473
v -0.489018 -1.314558 0.991964
v -0.434764 -1.145442 0.730000
v -0.489018 -1.145442 0.991964
v -0.434764 -1.314558 0.730000
v -0.489018 -1.145442 0.991964
v -0.489018 -1.314558 0.991964
v -0.434764 -1.314558 0.730000
v -0.489018 -1.145442 0.468036
v -0.434764 -1.145442 0.730000
v -0.489018 -1.314558 0.468036
v -0.434764 -1.145442 0.730000
v -0.434764 -1.314558 0.730000
v -0.489018 -1.314558 0.468036
v -0.620000 -1.145442 0.359527
v -0.489018 -1.145442 0.468036
v -0.620000 -1.314558 0.359527
v -0.489018 -1.145442 0.468036
v -0.489018 -1.314558 0.468036
v -0.620000 -1.314558 0.359527
v -0.750982 -1.145442 0.468036
v -0.620000 -1.145442 0.359527
v -0.750982 -1.314558 0.468036
v -0.620000 -1.145442 0.359527
v -0.620000 -1.314558 0.359527
v -0.750982 -1.314558 0.468036
v -0.805236 -1.145442 0.730000
v -0.750982 -1.145442 0.468036
v -0.805236 -1.314558 0.730000
v -0.750982 -1.145442 0.468036
v -0.750982 -1.314558 0.468036
v -0.805236 -1.314558 0.730000
v -0.750982 -1.314558 0.991964
v -0.805236 -1.314558 0.730000
v -0.725039 -1.466926 0.940079
v -0.805236 -1.314558 0.730000
v -0.768548 -1.466926 0.730000
v -0.725039 -1.466926 0.940079
v -0.620000 -1.314558 1.100473
v -0.750982 -1.314558 0.991964
v -0.620000 -1.466926 1.027096
v -0.750982 -1.314558 0.991964
v -0.725039 -1.466926 0.940079
v -0.620000 -1.466926 1.027096
v -0.489018 -1.314558 0.991964
v -0.620000 -1.314558 1.100473
v -0.514961 -1.466926 0.940079
v -0.620000 -1.314558 1.100473
v -0.620000 -1.466926 1.027096
v -0.514961 -1.466926 0.940079
v -0.434764 -1.314558 0.730000
v -0.489018 -1.314558 0.991964
v -0.471452 -1.466926 0.730000
v -0.489018 -1.314558 0.991964
v -0.514961 -1.466926 0.940079
v -0.471452 -1.466926 0.730000
v -0.489018 -1.314558 0.468036
v -0.434764 -1.314558 0.730000
v -0.514961 -1.466926 0.519921
v -0.434764 -1.314558 0.730000
v -0.471452 -1.466926 0.730000
v -0.514961 -1.466926 0.519921
v -0.620000 -1.314558 0.359527
v -0.489018 -1.314558 0.468036
v -0.620000 -1.466926 0.432904
v -0.489018 -1.314558 0.468036
v -0.514961 -1.466926 0.519921
v -0.620000 -1.466926 0.432904
v -0.750982 -1.314558 0.468036
v -0.620000 -1.314558 0.359527
v -0.725039 -1.466926 0.519921
v -0.620000 -1.314558 0.359527
v -0.620000 -1.466926 0.432904
v -0.725039 -1.466926 0.519921
v -0.805236 -1.314558 0.730000
v -0.750982 -1.314558 0.468036
v -0.768548 -1.466926 0.730000
v -0.750982 -1.314558 0.468036
v -0.725039 -1.466926 0.519921
v -0.768548 -1.466926 0.730000
v -0.725039 -1.466926 0.940079
v -0.768548 -1.466926 0.730000
v -0.678292 -1.572368 0.846585
v -0.768548 -1.466926 0.730000
v -0.702438 -1.572368 0.730000
v -0.678292 -1.572368 0.846585
v -0.620000 -1.466926 1.027096
v -0.725039 -1.466926 0.940079
v -0.620000 -1.572368 0.894876
v -0.725039 -1.466926 0.940079
v -0.678292 -1.572368 0.846585
v -0.620000 -1.572368 0.894876
v -0.514961 -1.466926 0.940079
v -0.620000 -1.466926 1.027096
v -0.561708 -1.572368 0.846585
v -0.620000 -1.466926 1.027096
v -0.620000 -1.572368 0.894876
v -0.561708 -1.572368 0.846585
v -0.471452 -1.466926 0.730000
v -0.514961 -1.466926 0.940079
v -0.537562 -1.572368 0.730000
v -0.514961 -1.466926 0.940079
v -0.561708 -1.572368 0.846585
v -0.537562 -1.572368 0.730000
v -0.514961 -1.466926 0.519921
v -0.471452 -1.466926 0.730000
v -0.561708 -1.572368 0.613415
v -0.471452 -1.466926 0.730000
v -0.537562 -1.572368 0.730000
v -0.561708 -1.572368 0.613415
v -0.620000 -1.466926 0.432904
v -0.514961 -1.466926 0.519921
v -0.620000 -1.572368 0.565124
v -0.514961 -1.466926 0.519921
v -0.561708 -1.572368 0.613415
v -0.620000 -1.572368 0.565124
v -0.725039 -1.466926 0.519921
v -0.620000 -1.466926 0.432904
v -0.678292 -1.572368 0.613415
v -0.620000 -1.466926 0.432904
v -0.620000 -1.572368 0.565124
v -0.678292 -1.572368 0.613415
v -0.768548 -1.466926 0.730000
v -0.725039 -1.466926 0.519921
v -0.702438 -1.572368 0.730000
v -0.725039 -1.466926 0.519921
v -0.678292 -1.572368 0.613415
v -0.702438 -1.572368 0.730000
v -0.678292 -1.572368 0.846585
v -0.702438 -1.572368 0.730000
v -0.620000 -1.610000 0.730000
v -0.620000 -1.572368 0.894876
v -0.678292 -1.572368 0.846585
v -0.620000 -1.610000 0.730000
v -0.561708 -1.572368 0.846585
v -0.620000 -1.572368 0.894876
v -0.620000 -1.610000 0.730000
v -0.537562 -1.572368 0.730000
v -0.561708 -1.572368 0.846585
v -0.620000 -1.610000 0.730000
v -0.561708 -1.572368 0.613415
v -0.537562 -1.572368 0.730000
v -0.620000 -1.610000 0.730000
v -0.620000 -1.572368 0.565124
v -0.561708 -1.572368 0.613415
v -0.620000 -1.610000 0.730000
v -0.678292 -1.572368 0.613415
v -0.620000 -1.572368 0.565124
v -0.620000 -1.610000 0.730000
v -0.702438 -1.572368 0.730000
v -0.678292 -1.572368 0.613415
v -0.620000 -1.610000 0.730000
v -0.846472 -0.560000 0.388974
v -0.680479 -0.435109 0.429273
v -0.918807 -0.268500 0.072408
v -0.680479 -0.435109 0.429273
v -0.839130 -0.208552 0.091751
v -0.918807 -0.268500 0.072408
v -0.680479 -0.435109 0.429273
v -0.527643 -0.482813 0.290921
v -0.839130 -0.208552 0.091751
v -0.527643 -0.482813 0.290921
v -0.765769 -0.231450 0.025342
v -0.839130 -0.208552 0.091751
v -0.527643 -0.482813 0.290921
v -0.599179 -0.637187 0.165116
v -0.765769 -0.231450 0.025342
v -0.599179 -0.637187 0.165116
v -0.800106 -0.305550 -0.035044
v -0.765769 -0.231450 0.025342
v -0.599179 -0.637187 0.165116
v -0.796226 -0.684892 0.225716
v -0.800106 -0.305550 -0.035044
v -0.796226 -0.684892 0.225716
v -0.894689 -0.328448 -0.005956
v -0.800106 -0.305550 -0.035044
v -0.796226 -0.684892 0.225716
v -0.846472 -0.560000 0.388974
v -0.894689 -0.328448 -0.005956
v -0.846472 -0.560000 0.388974
v -0.918807 -0.268500 0.072408
v -0.894689 -0.328448 -0.005956
v -0.918807 -0.268500 0.072408
v -0.839130 -0.208552 0.091751
v -0.987824 -0.010000 -0.205551
v -0.839130 -0.208552 0.091751
v -0.979524 -0.003755 -0.203536
v -0.987824 -0.010000 -0.205551
v -0.839130 -0.208552 0.091751
v -0.765769 -0.231450 0.025342
v -0.979524 -0.003755 -0.203536
v -0.765769 -0.231450 0.025342
v -0.971882 -0.006141 -0.210454
v -0.979524 -0.003755 -0.203536
v -0.765769 -0.231450 0.025342
v -0.800106 -0.305550 -0.035044
v -0.971882 -0.006141 -0.210454
v -0.800106 -0.305550 -0.035044
v -0.975459 -0.013859 -0.216744
v -0.971882 -0.006141 -0.210454
v -0.800106 -0.305550 -0.035044
v -0.894689 -0.328448 -0.005956
v -0.975459 -0.013859 -0.216744
v -0.894689 -0.328448 -0.005956
v -0.985311 -0.016245 -0.213714
v -0.975459 -0.013859 -0.216744
v -0.894689 -0.328448 -0.005956
v -0.918807 -0.268500 0.072408
v -0.985311 -0.016245 -0.213714
v -0.918807 -0.268500 0.072408
v -0.987824 -0.010000 -0.205551
v -0.985311 -0.016245 -0.213714
v -0.846472 -0.560000 0.388974
v -0.527643 -0.482813 0.290921
v -0.680479 -0.435109 0.429273
v -0.987824 -0.010000 -0.205551
v -0.979524 -0.003755 -0.203536
v -0.971882 -0.006141 -0.210454
v -0.846472 -0.560000 0.388974
v -0.599179 -0.637187 0.165116
v -0.527643 -0.482813 0.290921
v -0.987824 -0.010000 -0.205551
v -0.971882 -0.006141 -0.210454
v -0.975459 -0.013859 -0.216744
v -0.846472 -0.560000 0.388974
v -0.796226 -0.684892 0.225716
v -0.599179 -0.637187 0.165116
v -0.987824 -0.010000 -0.205551
v -0.975459 -0.013859 -0.216744
v -0.985311 -0.016245 -0.213714
vt 0.120000 0.880000
vt 0.213333 0.880000
vt 0.166667 0.786667
vt 0.120000 0.880000
vt 0.213333 0.880000
vt 0.166667 0.786667
vt 0.120000 0.880000
vt 0.213333 0.880000
vt 0.166667 0.786667
vt 0.120000 0.880000
vt 0.213333 0.880000
vt 0.166667 0.786667
vt 0.120000 0.880000
vt 0.213333 0.880000
vt 0.166667 0.786667
vt 0.120000 0.880000
vt 0.213333 0.880000
vt 0.166667 0.786667
vt 0.120000 0.880000
vt 0.213333 0.880000
vt 0.166667 0.786667
vt 0.120000 0.880000
vt 0.213333 0.880000
vt 0.166667 0.786667
vt 0.120000 0.880000
vt 0.213333 0.880000
vt 0.166667 0.786667
vt 0.120000 0.880000
vt 0.213333 0.880000
vt 0.166667 0.786667
vt 0.120000 0.880000
vt 0.213333 0.880000
vt 0.166667 0.786667
vt 0.120000 0.880000
vt 0.213333 0.880000
vt 0.166667 0.786667
vt 0.120000 0.880000
vt 0.213333 0.880000
vt 0.166667 0.786667
vt 0.120000 0.880000
vt 0.213333 0.880000
vt 0.166667 0.786667
vt 0.120000 0.880000
vt 0.213333 0.880000
vt 0.166667 0.786667
vt 0.120000 0.880000
vt 0.213333 0.880000
vt 0.166667 0.786667
vt 0.120000 0.880000
vt 0.213333 0.880000
vt 0.166667 0.786667
vt 0.120000 0.880000
vt 0.213333 0.880000
vt 0.166667 0.786667
vt 0.120000 0.880000
vt 0.213333 0.880000
vt 0.166667 0.786667
vt 0.120000 0.880000
vt 0.213333 0.880000
vt 0.166667 0.786667
vt 0.120000 0.880000
vt 0.213333 0.880000
vt 0.166667 0.786667
vt 0.120000 0.880000
vt 0.213333 0.880000
vt 0.166667 0.786667
vt 0.120000 0.880000
vt 0.213333 0.880000
vt 0.166667 0.786667
vt 0.120000 0.880000
vt 0.213333 0.880000
vt 0.166667 0.786667
vt 0.120000 0.880000
vt 0.213333 0.880000
vt 0.166667 0.786667
vt 0.120000 0.880000
vt 0.213333 0.880000
vt 0.166667 0.786667
vt 0.120000 0.880000
vt 0.213333 0.880000
vt 0.166667 0.786667
vt 0.120000 0.880000
vt 0.213333 0.880000
vt 0.166667 0.786667
vt 0.120000 0.880000
vt 0.213333 0.880000
vt 0.166667 0.786667
vt 0.120000 0.880000
vt 0.213333 0.880000
vt 0.166667 0.786667
vt 0.120000 0.880000
vt 0.213333 0.880000
vt 0.166667 0.786667
vt 0.120000 0.880000
vt 0.213333 0.880000
vt 0.166667 0.786667
vt 0.120000 0.880000
vt 0.213333 0.880000
vt 0.166667 0.786667
vt 0.120000 0.880000
vt 0.213333 0.880000
vt 0.166667 0.786667
vt 0.120000 0.880000
vt 0.213333 0.880000
vt 0.166667 0.786667
vt 0.120000 0.880000
vt 0.213333 0.880000
vt 0.166667 0.786667
vt 0.120000 0.880000
vt 0.213333 0.880000
vt 0.166667 0.786667
vt 0.120000 0.880000
vt 0.213333 0.880000
vt 0.166667 0.786667
vt 0.120000 0.880000
vt 0.213333 0.880000
vt 0.166667 0.786667
vt 0.120000 0.880000
vt 0.213333 0.880000
vt 0.166667 0.786667
vt 0.120000 0.880000
vt 0.213333 0.880000
vt 0.166667 0.786667
vt 0.120000 0.880000
vt 0.213333 0.880000
vt 0.166667 0.786667
vt 0.120000 0.880000
vt 0.213333 0.880000
vt 0.166667 0.786667
vt 0.120000 0.880000
vt 0.213333 0.880000
vt 0.166667 0.786667
vt 0.120000 0.880000
vt 0.213333 0.880000
vt 0.166667 0.786667
vt 0.120000 0.880000
vt 0.213333 0.880000
vt 0.166667 0.786667
vt 0.120000 0.880000
vt 0.213333 0.880000
vt 0.166667 0.786667
vt 0.120000 0.880000
vt 0.213333 0.880000
vt 0.166667 0.786667
vt 0.120000 0.880000
vt 0.213333 0.880000
vt 0.166667 0.786667
vt 0.120000 0.880000
vt 0.213333 0.880000
vt 0.166667 0.786667
vt 0.453333 0.880000
vt 0.546667 0.880000
vt 0.500000 0.786667
vt 0.453333 0.880000
vt 0.546667 0.880000
vt 0.500000 0.786667
vt 0.453333 0.880000
vt 0.546667 0.880000
vt 0.500000 0.786667
vt 0.453333 0.880000
vt 0.546667 0.880000
vt 0.500000 0.786667
vt 0.453333 0.880000
vt 0.546667 0.880000
vt 0.500000 0.786667
vt 0.453333 0.880000
vt 0.546667 0.880000
vt 0.500000 0.786667
vt 0.453333 0.880000
vt 0.546667 0.880000
vt 0.500000 0.786667
vt 0.453333 0.880000
vt 0.546667 0.880000
vt 0.500000 0.786667
vt 0.453333 0.880000
vt 0.546667 0.880000
vt 0.500000 0.786667
vt 0.453333 0.880000
vt 0.546667 0.880000
vt 0.500000 0.786667
vt 0.453333 0.880000
vt 0.546667 0.880000
vt 0.500000 0.786667
vt 0.453333 0.880000
vt 0.546667 0.880000
vt 0.500000 0.786667
vt 0.453333 0.880000
vt 0.546667 0.880000
vt 0.500000 0.786667
vt 0.453333 0.880000
vt 0.546667 0.880000
vt 0.500000 0.786667
vt 0.453333 0.880000
vt 0.546667 0.880000
vt 0.500000 0.786667
vt 0.453333 0.880000
vt 0.546667 0.880000
vt 0.500000 0.786667
vt 0.453333 0.880000
vt 0.546667 0.880000
vt 0.500000 0.786667
vt 0.453333 0.880000
vt 0.546667 0.880000
vt 0.500000 0.786667
vt 0.453333 0.880000
vt 0.546667 0.880000
vt 0.500000 0.786667
vt 0.453333 0.880000
vt 0.546667 0.880000
vt 0.500000 0.786667
vt 0.453333 0.880000
vt 0.546667 0.880000
vt 0.500000 0.786667
vt 0.453333 0.880000
vt 0.546667 0.880000
vt 0.500000 0.786667
vt 0.453333 0.880000
vt 0.546667 0.880000
vt 0.500000 0.786667
vt 0.453333 0.880000
vt 0.546667 0.880000
vt 0.500000 0.786667
vt 0.453333 0.880000
vt 0.546667 0.880000
vt 0.500000 0.786667
vt 0.453333 0.880000
vt 0.546667 0.880000
vt 0.500000 0.786667
vt 0.453333 0.880000
vt 0.546667 0.880000
vt 0.500000 0.786667
vt 0.453333 0.880000
vt 0.546667 0.880000
vt 0.500000 0.786667
vt 0.453333 0.880000
vt 0.546667 0.880000
vt 0.500000 0.786667
vt 0.453333 0.880000
vt 0.546667 0.880000
vt 0.500000 0.786667
vt 0.453333 0.880000
vt 0.546667 0.880000
vt 0.500000 0.786667
vt 0.453333 0.880000
vt 0.546667 0.880000
vt 0.500000 0.786667
vt 0.453333 0.880000
vt 0.546667 0.880000
vt 0.500000 0.786667
vt 0.453333 0.880000
vt 0.546667 0.880000
vt 0.500000 0.786667
vt 0.453333 0.880000
vt 0.546667 0.880000
vt 0.500000 0.786667
vt 0.453333 0.880000
vt 0.546667 0.880000
vt 0.500000 0.786667
vt 0.453333 0.880000
vt 0.546667 0.880000
vt 0.500000 0.786667
vt 0.453333 0.880000
vt 0.546667 0.880000
vt 0.500000 0.786667
vt 0.453333 0.880000
vt 0.546667 0.880000
vt 0.500000 0.786667
vt 0.453333 0.880000
vt 0.546667 0.880000
vt 0.500000 0.786667
vt 0.453333 0.880000
vt 0.546667 0.880000
vt 0.500000 0.786667
vt 0.453333 0.880000
vt 0.546667 0.880000
vt 0.500000 0.786667
vt 0.453333 0.880000
vt 0.546667 0.880000
vt 0.500000 0.786667
vt 0.453333 0.880000
vt 0.546667 0.880000
vt 0.500000 0.786667
vt 0.453333 0.880000
vt 0.546667 0.880000
vt 0.500000 0.786667
vt 0.453333 0.880000
vt 0.546667 0.880000
vt 0.500000 0.786667
vt 0.453333 0.880000
vt 0.546667 0.880000
vt 0.500000 0.786667
vt 0.453333 0.880000
vt 0.546667 0.880000
vt 0.500000 0.786667
vt 0.453333 0.880000
vt 0.546667 0.880000
vt 0.500000 0.786667
vt 0.453333 0.880000
vt 0.546667 0.880000
vt 0.500000 0.786667
vt 0.453333 0.880000
vt 0.546667 0.880000
vt 0.500000 0.786667
vt 0.453333 0.880000
vt 0.546667 0.880000
vt 0.500000 0.786667
vt 0.453333 0.880000
vt 0.546667 0.880000
vt 0.500000 0.786667
vt 0.453333 0.880000
vt 0.546667 0.880000
vt 0.500000 0.786667
vt 0.453333 0.880000
vt 0.546667 0.880000
vt 0.500000 0.786667
vt 0.453333 0.880000
vt 0.546667 0.880000
vt 0.500000 0.786667
vt 0.453333 0.880000
vt 0.546667 0.880000
vt 0.500000 0.786667
vt 0.453333 0.880000
vt 0.546667 0.880000
vt 0.500000 0.786667
vt 0.453333 0.880000
vt 0.546667 0.880000
vt 0.500000 0.786667
vt 0.453333 0.880000
vt 0.546667 0.880000
vt 0.500000 0.786667
vt 0.453333 0.880000
vt 0.546667 0.880000
vt 0.500000 0.786667
vt 0.453333 0.880000
vt 0.546667 0.880000
vt 0.500000 0.786667
vt 0.453333 0.880000
vt 0.546667 0.880000
vt 0.500000 0.786667
vt 0.453333 0.880000
vt 0.546667 0.880000
vt 0.500000 0.786667
vt 0.453333 0.880000
vt 0.546667 0.880000
vt 0.500000 0.786667
vt 0.453333 0.880000
vt 0.546667 0.880000
vt 0.500000 0.786667
vt 0.453333 0.880000
vt 0.546667 0.880000
vt 0.500000 0.786667
vt 0.453333 0.880000
vt 0.546667 0.880000
vt 0.500000 0.786667
vt 0.453333 0.880000
vt 0.546667 0.880000
vt 0.500000 0.786667
vt 0.453333 0.880000
vt 0.546667 0.880000
vt 0.500000 0.786667
vt 0.453333 0.880000
vt 0.546667 0.880000
vt 0.500000 0.786667
vt 0.453333 0.880000
vt 0.546667 0.880000
vt 0.500000 0.786667
vt 0.453333 0.880000
vt 0.546667 0.880000
vt 0.500000 0.786667
vt 0.453333 0.880000
vt 0.546667 0.880000
vt 0.500000 0.786667
vt 0.453333 0.880000
vt 0.546667 0.880000
vt 0.500000 0.786667
vt 0.453333 0.880000
vt 0.546667 0.880000
vt 0.500000 0.786667
vt 0.453333 0.880000
vt 0.546667 0.880000
vt 0.500000 0.786667
vt 0.453333 0.880000
vt 0.546667 0.880000
vt 0.500000 0.786667
vt 0.453333 0.880000
vt 0.546667 0.880000
vt 0.500000 0.786667
vt 0.453333 0.880000
vt 0.546667 0.880000
vt 0.500000 0.786667
vt 0.453333 0.880000
vt 0.546667 0.880000
vt 0.500000 0.786667
vt 0.453333 0.880000
vt 0.546667 0.880000
vt 0.500000 0.786667
vt 0.453333 0.880000
vt 0.546667 0.880000
vt 0.500000 0.786667
vt 0.453333 0.880000
vt 0.546667 0.880000
vt 0.500000 0.786667
vt 0.453333 0.880000
vt 0.546667 0.880000
vt 0.500000 0.786667
vt 0.453333 0.880000
vt 0.546667 0.880000
vt 0.500000 0.786667
vt 0.453333 0.880000
vt 0.546667 0.880000
vt 0.500000 0.786667
vt 0.453333 0.880000
vt 0.546667 0.880000
vt 0.500000 0.786667
vt 0.453333 0.880000
vt 0.546667 0.880000
vt 0.500000 0.786667
vt 0.453333 0.880000
vt 0.546667 0.880000
vt 0.500000 0.786667
vt 0.453333 0.880000
vt 0.546667 0.880000
vt 0.500000 0.786667
vt 0.453333 0.880000
vt 0.546667 0.880000
vt 0.500000 0.786667
vt 0.453333 0.880000
vt 0.546667 0.880000
vt 0.500000 0.786667
vt 0.453333 0.880000
vt 0.546667 0.880000
vt 0.500000 0.786667
vt 0.453333 0.880000
vt 0.546667 0.880000
vt 0.500000 0.786667
vt 0.453333 0.880000
vt 0.546667 0.880000
vt 0.500000 0.786667
vt 0.453333 0.880000
vt 0.546667 0.880000
vt 0.500000 0.786667
vt 0.453333 0.880000
vt 0.546667 0.880000
vt 0.500000 0.786667
vt 0.453333 0.880000
vt 0.546667 0.880000
vt 0.500000 0.786667
vt 0.453333 0.880000
vt 0.546667 0.880000
vt 0.500000 0.786667
vt 0.453333 0.880000
vt 0.546667 0.880000
vt 0.500000 0.786667
vt 0.453333 0.880000
vt 0.546667 0.880000
vt 0.500000 0.786667
vt 0.453333 0.880000
vt 0.546667 0.880000
vt 0.500000 0.786667
vt 0.453333 0.880000
vt 0.546667 0.880000
vt 0.500000 0.786667
vt 0.453333 0.880000
vt 0.546667 0.880000
vt 0.500000 0.786667
vt 0.453333 0.880000
vt 0.546667 0.880000
vt 0.500000 0.786667
vt 0.453333 0.880000
vt 0.546667 0.880000
vt 0.500000 0.786667
vt 0.453333 0.880000
vt 0.546667 0.880000
vt 0.500000 0.786667
vt 0.786667 0.880000
vt 0.880000 0.880000
vt 0.833333 0.786667
vt 0.786667 0.880000
vt 0.880000 0.880000
vt 0.833333 0.786667
vt 0.786667 0.880000
vt 0.880000 0.880000
vt 0.833333 0.786667
vt 0.786667 0.880000
vt 0.880000 0.880000
vt 0.833333 0.786667
vt 0.786667 0.880000
vt 0.880000 0.880000
vt 0.833333 0.786667
vt 0.786667 0.880000
vt 0.880000 0.880000
vt 0.833333 0.786667
vt 0.786667 0.880000
vt 0.880000 0.880000
vt 0.833333 0.786667
vt 0.786667 0.880000
vt 0.880000 0.880000
vt 0.833333 0.786667
vt 0.786667 0.880000
vt 0.880000 0.880000
vt 0.833333 0.786667
vt 0.786667 0.880000
vt 0.880000 0.880000
vt 0.833333 0.786667
vt 0.786667 0.880000
vt 0.880000 0.880000
vt 0.833333 0.786667
vt 0.786667 0.880000
vt 0.880000 0.880000
vt 0.833333 0.786667
vt 0.786667 0.880000
vt 0.880000 0.880000
vt 0.833333 0.786667
vt 0.786667 0.880000
vt 0.880000 0.880000
vt 0.833333 0.786667
vt 0.786667 0.880000
vt 0.880000 0.880000
vt 0.833333 0.786667
vt 0.786667 0.880000
vt 0.880000 0.880000
vt 0.833333 0.786667
vt 0.786667 0.880000
vt 0.880000 0.880000
vt 0.833333 0.786667
vt 0.786667 0.880000
vt 0.880000 0.880000
vt 0.833333 0.786667
vt 0.786667 0.880000
vt 0.880000 0.880000
vt 0.833333 0.786667
vt 0.786667 0.880000
vt 0.880000 0.880000
vt 0.833333 0.786667
vt 0.786667 0.880000
vt 0.880000 0.880000
vt 0.833333 0.786667
vt 0.786667 0.880000
vt 0.880000 0.880000
vt 0.833333 0.786667
vt 0.786667 0.880000
vt 0.880000 0.880000
vt 0.833333 0.786667
vt 0.786667 0.880000
vt 0.880000 0.880000
vt 0.833333 0.786667
vt 0.786667 0.880000
vt 0.880000 0.880000
vt 0.833333 0.786667
vt 0.786667 0.880000
vt 0.880000 0.880000
vt 0.833333 0.786667
vt 0.786667 0.880000
vt 0.880000 0.880000
vt 0.833333 0.786667
vt 0.786667 0.880000
vt 0.880000 0.880000
vt 0.833333 0.786667
vt 0.786667 0.880000
vt 0.880000 0.880000
vt 0.833333 0.786667
vt 0.786667 0.880000
vt 0.880000 0.880000
vt 0.833333 0.786667
vt 0.786667 0.880000
vt 0.880000 0.880000
vt 0.833333 0.786667
vt 0.786667 0.880000
vt 0.880000 0.880000
vt 0.833333 0.786667
vt 0.786667 0.880000
vt 0.880000 0.880000
vt 0.833333 0.786667
vt 0.786667 0.880000
vt 0.880000 0.880000
vt 0.833333 0.786667
vt 0.786667 0.880000
vt 0.880000 0.880000
vt 0.833333 0.786667
vt 0.786667 0.880000
vt 0.880000 0.880000
vt 0.833333 0.786667
vt 0.786667 0.880000
vt 0.880000 0.880000
vt 0.833333 0.786667
vt 0.786667 0.880000
vt 0.880000 0.880000
vt 0.833333 0.786667
vt 0.786667 0.880000
vt 0.880000 0.880000
vt 0.833333 0.786667
vt 0.786667 0.880000
vt 0.880000 0.880000
vt 0.833333 0.786667
vt 0.786667 0.880000
vt 0.880000 0.880000
vt 0.833333 0.786667
vt 0.786667 0.880000
vt 0.880000 0.880000
vt 0.833333 0.786667
vt 0.786667 0.880000
vt 0.880000 0.880000
vt 0.833333 0.786667
vt 0.786667 0.880000
vt 0.880000 0.880000
vt 0.833333 0.786667
vt 0.786667 0.880000
vt 0.880000 0.880000
vt 0.833333 0.786667
vt 0.786667 0.880000
vt 0.880000 0.880000
vt 0.833333 0.786667
vt 0.786667 0.880000
vt 0.880000 0.880000
vt 0.833333 0.786667
vt 0.786667 0.880000
vt 0.880000 0.880000
vt 0.833333 0.786667
vt 0.786667 0.880000
vt 0.880000 0.880000
vt 0.833333 0.786667
vt 0.786667 0.880000
vt 0.880000 0.880000
vt 0.833333 0.786667
vt 0.786667 0.880000
vt 0.880000 0.880000
vt 0.833333 0.786667
vt 0.786667 0.880000
vt 0.880000 0.880000
vt 0.833333 0.786667
vt 0.786667 0.880000
vt 0.880000 0.880000
vt 0.833333 0.786667
vt 0.786667 0.880000
vt 0.880000 0.880000
vt 0.833333 0.786667
vt 0.786667 0.880000
vt 0.880000 0.880000
vt 0.833333 0.786667
vt 0.786667 0.880000
vt 0.880000 0.880000
vt 0.833333 0.786667
vt 0.786667 0.880000
vt 0.880000 0.880000
vt 0.833333 0.786667
vt 0.786667 0.880000
vt 0.880000 0.880000
vt 0.833333 0.786667
vt 0.786667 0.880000
vt 0.880000 0.880000
vt 0.833333 0.786667
vt 0.786667 0.880000
vt 0.880000 0.880000
vt 0.833333 0.786667
vt 0.786667 0.880000
vt 0.880000 0.880000
vt 0.833333 0.786667
vt 0.786667 0.880000
vt 0.880000 0.880000
vt 0.833333 0.786667
vt 0.786667 0.880000
vt 0.880000 0.880000
vt 0.833333 0.786667
vt 0.786667 0.880000
vt 0.880000 0.880000
vt 0.833333 0.786667
vt 0.786667 0.880000
vt 0.880000 0.880000
vt 0.833333 0.786667
vt 0.786667 0.880000
vt 0.880000 0.880000
vt 0.833333 0.786667
vt 0.786667 0.880000
vt 0.880000 0.880000
vt 0.833333 0.786667
vt 0.786667 0.880000
vt 0.880000 0.880000
vt 0.833333 0.786667
vt 0.786667 0.880000
vt 0.880000 0.880000
vt 0.833333 0.786667
vt 0.786667 0.880000
vt 0.880000 0.880000
vt 0.833333 0.786667
vt 0.786667 0.880000
vt 0.880000 0.880000
vt 0.833333 0.786667
vt 0.786667 0.880000
vt 0.880000 0.880000
vt 0.833333 0.786667
vt 0.786667 0.880000
vt 0.880000 0.880000
vt 0.833333 0.786667
vt 0.786667 0.880000
vt 0.880000 0.880000
vt 0.833333 0.786667
vt 0.786667 0.880000
vt 0.880000 0.880000
vt 0.833333 0.786667
vt 0.786667 0.880000
vt 0.880000 0.880000
vt 0.833333 0.786667
vt 0.786667 0.880000
vt 0.880000 0.880000
vt 0.833333 0.786667
vt 0.786667 0.880000
vt 0.880000 0.880000
vt 0.833333 0.786667
vt 0.786667 0.880000
vt 0.880000 0.880000
vt 0.833333 0.786667
vt 0.786667 0.880000
vt 0.880000 0.880000
vt 0.833333 0.786667
vt 0.786667 0.880000
vt 0.880000 0.880000
vt 0.833333 0.786667
vt 0.786667 0.880000
vt 0.880000 0.880000
vt 0.833333 0.786667
vt 0.786667 0.880000
vt 0.880000 0.880000
vt 0.833333 0.786667
vt 0.786667 0.880000
vt 0.880000 0.880000
vt 0.833333 0.786667
vt 0.786667 0.880000
vt 0.880000 0.880000
vt 0.833333 0.786667
vt 0.786667 0.880000
vt 0.880000 0.880000
vt 0.833333 0.786667
vt 0.786667 0.880000
vt 0.880000 0.880000
vt 0.833333 0.786667
vt 0.786667 0.880000
vt 0.880000 0.880000
vt 0.833333 0.786667
vt 0.786667 0.880000
vt 0.880000 0.880000
vt 0.833333 0.786667
vt 0.786667 0.880000
vt 0.880000 0.880000
vt 0.833333 0.786667
vt 0.786667 0.880000
vt 0.880000 0.880000
vt 0.833333 0.786667
vt 0.786667 0.880000
vt 0.880000 0.880000
vt 0.833333 0.786667
vt 0.786667 0.880000
vt 0.880000 0.880000
vt 0.833333 0.786667
vt 0.786667 0.880000
vt 0.880000 0.880000
vt 0.833333 0.786667
vt 0.786667 0.880000
vt 0.880000 0.880000
vt 0.833333 0.786667
vt 0.786667 0.880000
vt 0.880000 0.880000
vt 0.833333 0.786667
vt 0.786667 0.880000
vt 0.880000 0.880000
vt 0.833333 0.786667
vt 0.786667 0.880000
vt 0.880000 0.880000
vt 0.833333 0.786667
vt 0.786667 0.880000
vt 0.880000 0.880000
vt 0.833333 0.786667
vt 0.786667 0.880000
vt 0.880000 0.880000
vt 0.833333 0.786667
vt 0.786667 0.880000
vt 0.880000 0.880000
vt 0.833333 0.786667
vt 0.786667 0.880000
vt 0.880000 0.880000
vt 0.833333 0.786667
vt 0.786667 0.880000
vt 0.880000 0.880000
vt 0.833333 0.786667
vt 0.786667 0.880000
vt 0.880000 0.880000
vt 0.833333 0.786667
vt 0.786667 0.880000
vt 0.880000 0.880000
vt 0.833333 0.786667
vt 0.786667 0.880000
vt 0.880000 0.880000
vt 0.833333 0.786667
vt 0.786667 0.880000
vt 0.880000 0.880000
vt 0.833333 0.786667
vt 0.786667 0.880000
vt 0.880000 0.880000
vt 0.833333 0.786667
vt 0.786667 0.880000
vt 0.880000 0.880000
vt 0.833333 0.786667
vt 0.786667 0.880000
vt 0.880000 0.880000
vt 0.833333 0.786667
vt 0.786667 0.880000
vt 0.880000 0.880000
vt 0.833333 0.786667
vt 0.786667 0.880000
vt 0.880000 0.880000
vt 0.833333 0.786667
vt 0.786667 0.880000
vt 0.880000 0.880000
vt 0.833333 0.786667
vt 0.786667 0.880000
vt 0.880000 0.880000
vt 0.833333 0.786667
vt 0.786667 0.880000
vt 0.880000 0.880000
vt 0.833333 0.786667
vt 0.786667 0.880000
vt 0.880000 0.880000
vt 0.833333 0.786667
vt 0.786667 0.880000
vt 0.880000 0.880000
vt 0.833333 0.786667
vt 0.786667 0.880000
vt 0.880000 0.880000
vt 0.833333 0.786667
vt 0.786667 0.880000
vt 0.880000 0.880000
vt 0.833333 0.786667
vt 0.786667 0.880000
vt 0.880000 0.880000
vt 0.833333 0.786667
vt 0.786667 0.880000
vt 0.880000 0.880000
vt 0.833333 0.786667
vt 0.786667 0.880000
vt 0.880000 0.880000
vt 0.833333 0.786667
vn 0.770969 0.601127 -0.210364
vn 0.473062 0.423919 0.772338
vn 0.750470 -0.062237 0.657968
vn 0.473062 0.423919 0.772338
vn 0.261584 0.233092 0.936612
vn 0.750470 -0.062237 0.657968
vn 0.473062 0.423919 0.772338
vn -0.049840 0.839518 0.541041
vn 0.261584 0.233092 0.936612
vn -0.049840 0.839518 0.541041
vn -0.426143 0.385024 0.818632
vn 0.261584 0.233092 0.936612
vn -0.049840 0.839518 0.541041
vn -0.438471 0.897989 -0.036865
vn -0.426143 0.385024 0.818632
vn -0.438471 0.897989 -0.036865
vn -0.917287 0.285108 0.278024
vn -0.426143 0.385024 0.818632
vn -0.438471 0.897989 -0.036865
vn -0.479537 0.663987 -0.573730
vn -0.917287 0.285108 0.278024
vn -0.479537 0.663987 -0.573730
vn -0.945367 0.020034 -0.325392
vn -0.917287 0.285108 0.278024
vn -0.479537 0.663987 -0.573730
vn -0.262372 0.343114 -0.901906
vn -0.945367 0.020034 -0.325392
vn -0.262372 0.343114 -0.901906
vn -0.607933 -0.286474 -0.740507
vn -0.945367 0.020034 -0.325392
vn -0.262372 0.343114 -0.901906
vn 0.126380 -0.010416 -0.991927
vn -0.607933 -0.286474 -0.740507
vn 0.126380 -0.010416 -0.991927
vn -0.001967 -0.553352 -0.832945
vn -0.607933 -0.286474 -0.740507
vn 0.126380 -0.010416 -0.991927
vn 0.623100 -0.354026 -0.697432
vn -0.001967 -0.553352 -0.832945
vn 0.623100 -0.354026 -0.697432
vn 0.638539 -0.610118 -0.469066
vn -0.001967 -0.553352 -0.832945
vn 0.623100 -0.354026 -0.697432
vn 0.915580 -0.402075 -0.007054
vn 0.638539 -0.610118 -0.469066
vn 0.915580 -0.402075 -0.007054
vn 0.910478 -0.388429 0.141962
vn 0.638539 -0.610118 -0.469066
vn 0.915580 -0.402075 -0.007054
vn 0.770969 0.601127 -0.210364
vn 0.910478 -0.388429 0.141962
vn 0.770969 0.601127 -0.210364
vn 0.750470 -0.062237 0.657968
vn 0.910478 -0.388429 0.141962
vn 0.750470 -0.062237 0.657968
vn 0.261584 0.233092 0.936612
vn 0.370558 -0.708178 0.600975
vn 0.261584 0.233092 0.936612
vn 0.063183 -0.112220 0.991673
vn 0.370558 -0.708178 0.600975
vn 0.261584 0.233092 0.936612
vn -0.426143 0.385024 0.818632
vn 0.063183 -0.112220 0.991673
vn -0.426143 0.385024 0.818632
vn -0.555110 -0.166490 0.814944
vn 0.063183 -0.112220 0.991673
vn -0.426143 0.385024 0.818632
vn -0.917287 0.285108 0.278024
vn -0.555110 -0.166490 0.814944
vn -0.917287 0.285108 0.278024
vn -0.897024 -0.307699 0.317284
vn -0.555110 -0.166490 0.814944
vn -0.917287 0.285108 0.278024
vn -0.945367 0.020034 -0.325392
vn -0.897024 -0.307699 0.317284
vn -0.945367 0.020034 -0.325392
vn -0.841423 -0.488457 -0.231122
vn -0.897024 -0.307699 0.317284
vn -0.945367 0.020034 -0.325392
vn -0.607933 -0.286474 -0.740507
vn -0.841423 -0.488457 -0.231122
vn -0.607933 -0.286474 -0.740507
vn -0.457396 -0.656442 -0.599894
vn -0.841423 -0.488457 -0.231122
vn -0.607933 -0.286474 -0.740507
vn -0.001967 -0.553352 -0.832945
vn -0.457396 -0.656442 -0.599894
vn -0.001967 -0.553352 -0.832945
vn 0.109546 -0.736810 -0.667166
vn -0.457396 -0.656442 -0.599894
vn -0.001967 -0.553352 -0.832945
vn 0.638539 -0.610118 -0.469066
vn 0.109546 -0.736810 -0.667166
vn 0.638539 -0.610118 -0.469066
vn 0.665177 -0.643759 -0.378304
vn 0.109546 -0.736810 -0.667166
vn 0.638539 -0.610118 -0.469066
vn 0.910478 -0.388429 0.141962
vn 0.665177 -0.643759 -0.378304
vn 0.910478 -0.388429 0.141962
vn 0.896801 -0.398893 0.191397
vn 0.665177 -0.643759 -0.378304
vn 0.910478 -0.388429 0.141962
vn 0.750470 -0.062237 0.657968
vn 0.896801 -0.398893 0.191397
vn 0.750470 -0.062237 0.657968
vn 0.370558 -0.708178 0.600975
vn 0.896801 -0.398893 0.191397
vn 0.770969 0.601127 -0.210364
vn -0.049840 0.839518 0.541041
vn 0.473062 0.423919 0.772338
vn 0.370558 -0.708178 0.600975
vn 0.063183 -0.112220 0.991673
vn -0.555110 -0.166490 0.814944
vn 0.770969 0.601127 -0.210364
vn -0.438471 0.897989 -0.036865
vn -0.049840 0.839518 0.541041
vn 0.370558 -0.708178 0.600975
vn -0.555110 -0.166490 0.814944
vn -0.897024 -0.307699 0.317284
vn 0.770969 0.601127 -0.210364
vn -0.479537 0.663987 -0.573730
vn -0.438471 0.897989 -0.036865
vn 0.370558 -0.708178 0.600975
vn -0.897024 -0.307699 0.317284
vn -0.841423 -0.488457 -0.231122
vn 0.770969 0.601127 -0.210364
vn -0.262372 0.343114 -0.901906
vn -0.479537 0.663987 -0.573730
vn 0.370558 -0.708178 0.600975
vn -0.841423 -0.488457 -0.231122
vn -0.457396 -0.656442 -0.599894
vn 0.770969 0.601127 -0.210364
vn 0.126380 -0.010416 -0.991927
vn -0.262372 0.343114 -0.901906
vn 0.370558 -0.708178 0.600975
vn -0.457396 -0.656442 -0.599894
vn 0.109546 -0.736810 -0.667166
vn 0.770969 0.601127 -0.210364
vn 0.623100 -0.354026 -0.697432
vn 0.126380 -0.010416 -0.991927
vn 0.370558 -0.708178 0.600975
vn 0.109546 -0.736810 -0.667166
vn 0.665177 -0.643759 -0.378304
vn 0.770969 0.601127 -0.210364
vn 0.915580 -0.402075 -0.007054
vn 0.623100 -0.354026 -0.697432
vn 0.370558 -0.708178 0.600975
vn 0.665177 -0.643759 -0.378304
vn 0.896801 -0.398893 0.191397
vn 0.139543 0.990216 0.000000
vn -0.448883 0.893591 0.000000
vn -0.322805 0.890972 0.319320
vn 0.139543 0.990216 0.000000
vn -0.322805 0.890972 0.319320
vn 0.017613 0.864785 0.501833
vn 0.139543 0.990216 0.000000
vn 0.017613 0.864785 0.501833
vn 0.409976 0.800689 0.436825
vn 0.139543 0.990216 0.000000
vn 0.409976 0.800689 0.436825
vn 0.647624 0.743275 0.167708
vn 0.139543 0.990216 0.000000
vn 0.647624 0.743275 0.167708
vn 0.647624 0.743275 -0.167708
vn 0.139543 0.990216 0.000000
vn 0.647624 0.743275 -0.167708
vn 0.409976 0.800689 -0.436825
vn 0.139543 0.990216 0.000000
vn 0.409976 0.800689 -0.436825
vn 0.017613 0.864785 -0.501833
vn 0.139543 0.990216 0.000000
vn 0.017613 0.864785 -0.501833
vn -0.322805 0.890972 -0.319320
vn 0.139543 0.990216 0.000000
vn -0.322805 0.890972 -0.319320
vn -0.448883 0.893591 -0.000000
vn -0.322805 0.890972 0.319320
vn -0.448883 0.893591 0.000000
vn -0.622270 0.599519 0.503345
vn -0.448883 0.893591 0.000000
vn -0.798201 0.602391 0.000000
vn -0.622270 0.599519 0.503345
vn 0.017613 0.864785 0.501833
vn -0.322805 0.890972 0.319320
vn -0.092237 0.559623 0.823598
vn -0.322805 0.890972 0.319320
vn -0.622270 0.599519 0.503345
vn -0.092237 0.559623 0.823598
vn 0.409976 0.800689 0.436825
vn 0.017613 0.864785 0.501833
vn 0.543711 0.455432 0.704953
vn 0.017613 0.864785 0.501833
vn -0.092237 0.559623 0.823598
vn 0.543711 0.455432 0.704953
vn 0.647624 0.743275 0.167708
vn 0.409976 0.800689 0.436825
vn 0.892018 0.370121 0.259451
vn 0.409976 0.800689 0.436825
vn 0.543711 0.455432 0.704953
vn 0.892018 0.370121 0.259451
vn 0.647624 0.743275 -0.167708
vn 0.647624 0.743275 0.167708
vn 0.892018 0.370121 -0.259451
vn 0.647624 0.743275 0.167708
vn 0.892018 0.370121 0.259451
vn 0.892018 0.370121 -0.259451
vn 0.409976 0.800689 -0.436825
vn 0.647624 0.743275 -0.167708
vn 0.543711 0.455432 -0.704953
vn 0.647624 0.743275 -0.167708
vn 0.892018 0.370121 -0.259451
vn 0.543711 0.455432 -0.704953
vn 0.017613 0.864785 -0.501833
vn 0.409976 0.800689 -0.436825
vn -0.092237 0.559623 -0.823598
vn 0.409976 0.800689 -0.436825
vn 0.543711 0.455432 -0.704953
vn -0.092237 0.559623 -0.823598
vn -0.322805 0.890972 -0.319320
vn 0.017613 0.864785 -0.501833
vn -0.622270 0.599519 -0.503345
vn 0.017613 0.864785 -0.501833
vn -0.092237 0.559623 -0.823598
vn -0.622270 0.599519 -0.503345
vn -0.448883 0.893591 -0.000000
vn -0.322805 0.890972 -0.319320
vn -0.798201 0.602391 -0.000000
vn -0.322805 0.890972 -0.319320
vn -0.622270 0.599519 -0.503345
vn -0.798201 0.602391 -0.000000
vn -0.622270 0.599519 0.503345
vn -0.798201 0.602391 0.000000
vn -0.769589 0.276027 0.575797
vn -0.798201 0.602391 0.000000
vn -0.956083 0.293096 0.000000
vn -0.769589 0.276027 0.575797
vn -0.092237 0.559623 0.823598
vn -0.622270 0.599519 0.503345
vn -0.170938 0.207070 0.963277
vn -0.622270 0.599519 0.503345
vn -0.769589 0.276027 0.575797
vn -0.170938 0.207070 0.963277
vn 0.543711 0.455432 0.704953
vn -0.092237 0.559623 0.823598
vn 0.569065 0.096211 0.816645
vn -0.092237 0.559623 0.823598
vn -0.170938 0.207070 0.963277
vn 0.569065 0.096211 0.816645
vn 0.892018 0.370121 0.259451
vn 0.543711 0.455432 0.704953
vn 0.955442 0.026173 0.294018
vn 0.543711 0.455432 0.704953
vn 0.569065 0.096211 0.816645
vn 0.955442 0.026173 0.294018
vn 0.892018 0.370121 -0.259451
vn 0.892018 0.370121 0.259451
vn 0.955442 0.026173 -0.294018
vn 0.892018 0.370121 0.259451
vn 0.955442 0.026173 0.294018
vn 0.955442 0.026173 -0.294018
vn 0.543711 0.455432 -0.704953
vn 0.892018 0.370121 -0.259451
vn 0.569065 0.096211 -0.816645
vn 0.892018 0.370121 -0.259451
vn 0.955442 0.026173 -0.294018
vn 0.569065 0.096211 -0.816645
vn -0.092237 0.559623 -0.823598
vn 0.543711 0.455432 -0.704953
vn -0.170938 0.207070 -0.963277
vn 0.543711 0.455432 -0.704953
vn 0.569065 0.096211 -0.816645
vn -0.170938 0.207070 -0.963277
vn -0.622270 0.599519 -0.503345
vn -0.092237 0.559623 -0.823598
vn -0.769589 0.276027 -0.575797
vn -0.092237 0.559623 -0.823598
vn -0.170938 0.207070 -0.963277
vn -0.769589 0.276027 -0.575797
vn -0.798201 0.602391 -0.000000
vn -0.622270 0.599519 -0.503345
vn -0.956083 0.293096 -0.000000
vn -0.622270 0.599519 -0.503345
vn -0.769589 0.276027 -0.575797
vn -0.956083 0.293096 -0.000000
vn -0.769589 0.276027 0.575797
vn -0.956083 0.293096 0.000000
vn -0.815899 -0.052597 0.575797
vn -0.956083 0.293096 0.000000
vn -0.999848 -0.017463 0.000000
vn -0.815899 -0.052597 0.575797
vn -0.170938 0.207070 0.963277
vn -0.769589 0.276027 0.575797
vn -0.221505 -0.151766 0.963277
vn -0.769589 0.276027 0.575797
vn -0.815899 -0.052597 0.575797
vn -0.221505 -0.151766 0.963277
vn 0.569065 0.096211 0.816645
vn -0.170938 0.207070 0.963277
vn 0.520315 -0.249728 0.816645
vn -0.170938 0.207070 0.963277
vn -0.221505 -0.151766 0.963277
vn 0.520315 -0.249728 0.816645
vn 0.955442 0.026173 0.294018
vn 0.569065 0.096211 0.816645
vn 0.910999 -0.289196 0.294018
vn 0.569065 0.096211 0.816645
vn 0.520315 -0.249728 0.816645
vn 0.910999 -0.289196 0.294018
vn 0.955442 0.026173 -0.294018
vn 0.955442 0.026173 0.294018
vn 0.910999 -0.289196 -0.294018
vn 0.955442 0.026173 0.294018
vn 0.910999 -0.289196 0.294018
vn 0.910999 -0.289196 -0.294018
vn 0.569065 0.096211 -0.816645
vn 0.955442 0.026173 -0.294018
vn 0.520315 -0.249728 -0.816645
vn 0.955442 0.026173 -0.294018
vn 0.910999 -0.289196 -0.294018
vn 0.520315 -0.249728 -0.816645
vn -0.170938 0.207070 -0.963277
vn 0.569065 0.096211 -0.816645
vn -0.221505 -0.151766 -0.963277
vn 0.569065 0.096211 -0.816645
vn 0.520315 -0.249728 -0.816645
vn -0.221505 -0.151766 -0.963277
vn -0.769589 0.276027 -0.575797
vn -0.170938 0.207070 -0.963277
vn -0.815899 -0.052597 -0.575797
vn -0.170938 0.207070 -0.963277
vn -0.221505 -0.151766 -0.963277
vn -0.815899 -0.052597 -0.575797
vn -0.956083 0.293096 -0.000000
vn -0.769589 0.276027 -0.575797
vn -0.999848 -0.017463 -0.000000
vn -0.769589 0.276027 -0.575797
vn -0.815899 -0.052597 -0.575797
vn -0.999848 -0.017463 -0.000000
vn -0.815899 -0.052597 0.575797
vn -0.999848 -0.017463 0.000000
vn -0.763717 -0.404203 0.503345
vn -0.999848 -0.017463 0.000000
vn -0.933590 -0.358344 0.000000
vn -0.763717 -0.404203 0.503345
vn -0.221505 -0.151766 0.963277
vn -0.815899 -0.052597 0.575797
vn -0.243300 -0.512338 0.823598
vn -0.815899 -0.052597 0.575797
vn -0.763717 -0.404203 0.503345
vn -0.243300 -0.512338 0.823598
vn 0.520315 -0.249728 0.816645
vn -0.221505 -0.151766 0.963277
vn 0.396675 -0.587953 0.704953
vn -0.221505 -0.151766 0.963277
vn -0.243300 -0.512338 0.823598
vn 0.396675 -0.587953 0.704953
vn 0.910999 -0.289196 0.294018
vn 0.520315 -0.249728 0.816645
vn 0.754993 -0.602221 0.259451
vn 0.520315 -0.249728 0.816645
vn 0.396675 -0.587953 0.704953
vn 0.754993 -0.602221 0.259451
vn 0.910999 -0.289196 -0.294018
vn 0.910999 -0.289196 0.294018
vn 0.754993 -0.602221 -0.259451
vn 0.910999 -0.289196 0.294018
vn 0.754993 -0.602221 0.259451
vn 0.754993 -0.602221 -0.259451
vn 0.520315 -0.249728 -0.816645
vn 0.910999 -0.289196 -0.294018
vn 0.396675 -0.587953 -0.704953
vn 0.910999 -0.289196 -0.294018
vn 0.754993 -0.602221 -0.259451
vn 0.396675 -0.587953 -0.704953
vn -0.221505 -0.151766 -0.963277
vn 0.520315 -0.249728 -0.816645
vn -0.243300 -0.512338 -0.823598
vn 0.520315 -0.249728 -0.816645
vn 0.396675 -0.587953 -0.704953
vn -0.243300 -0.512338 -0.823598
vn -0.815899 -0.052597 -0.575797
vn -0.221505 -0.151766 -0.963277
vn -0.763717 -0.404203 -0.503345
vn -0.221505 -0.151766 -0.963277
vn -0.243300 -0.512338 -0.823598
vn -0.763717 -0.404203 -0.503345
vn -0.999848 -0.017463 -0.000000
vn -0.815899 -0.052597 -0.575797
vn -0.933590 -0.358344 -0.000000
vn -0.815899 -0.052597 -0.575797
vn -0.763717 -0.404203 -0.503345
vn -0.933590 -0.358344 -0.000000
vn -0.763717 -0.404203 0.503345
vn -0.933590 -0.358344 0.000000
vn -0.556459 -0.767065 0.319320
vn -0.933590 -0.358344 0.000000
vn -0.678350 -0.734739 0.000000
vn -0.556459 -0.767065 0.319320
vn -0.243300 -0.512338 0.823598
vn -0.763717 -0.404203 0.503345
vn -0.222061 -0.835974 0.501833
vn -0.763717 -0.404203 0.503345
vn -0.556459 -0.767065 0.319320
vn -0.222061 -0.835974 0.501833
vn 0.396675 -0.587953 0.704953
vn -0.243300 -0.512338 0.823598
vn 0.172735 -0.882806 0.436825
vn -0.243300 -0.512338 0.823598
vn -0.222061 -0.835974 0.501833
vn 0.172735 -0.882806 0.436825
vn 0.754993 -0.602221 0.259451
vn 0.396675 -0.587953 0.704953
vn 0.416994 -0.893303 0.167708
vn 0.396675 -0.587953 0.704953
vn 0.172735 -0.882806 0.436825
vn 0.416994 -0.893303 0.167708
vn 0.754993 -0.602221 -0.259451
vn 0.754993 -0.602221 0.259451
vn 0.416994 -0.893303 -0.167708
vn 0.754993 -0.602221 0.259451
vn 0.416994 -0.893303 0.167708
vn 0.416994 -0.893303 -0.167708
vn 0.396675 -0.587953 -0.704953
vn 0.754993 -0.602221 -0.259451
vn 0.172735 -0.882806 -0.436825
vn 0.754993 -0.602221 -0.259451
vn 0.416994 -0.893303 -0.167708
vn 0.172735 -0.882806 -0.436825
vn -0.243300 -0.512338 -0.823598
vn 0.396675 -0.587953 -0.704953
vn -0.222061 -0.835974 -0.501833
vn 0.396675 -0.587953 -0.704953
vn 0.172735 -0.882806 -0.436825
vn -0.222061 -0.835974 -0.501833
vn -0.763717 -0.404203 -0.503345
vn -0.243300 -0.512338 -0.823598
vn -0.556459 -0.767065 -0.319320
vn -0.243300 -0.512338 -0.823598
vn -0.222061 -0.835974 -0.501833
vn -0.556459 -0.767065 -0.319320
vn -0.933590 -0.358344 -0.000000
vn -0.763717 -0.404203 -0.503345
vn -0.678350 -0.734739 -0.000000
vn -0.763717 -0.404203 -0.503345
vn -0.556459 -0.767065 -0.319320
vn -0.678350 -0.734739 -0.000000
vn -0.556459 -0.767065 0.319320
vn -0.678350 -0.734739 0.000000
vn -0.139543 -0.990216 0.000000
vn -0.222061 -0.835974 0.501833
vn -0.556459 -0.767065 0.319320
vn -0.139543 -0.990216 0.000000
vn 0.172735 -0.882806 0.436825
vn -0.222061 -0.835974 0.501833
vn -0.139543 -0.990216 0.000000
vn 0.416994 -0.893303 0.167708
vn 0.172735 -0.882806 0.436825
vn -0.139543 -0.990216 0.000000
vn 0.416994 -0.893303 -0.167708
vn 0.416994 -0.893303 0.167708
vn -0.139543 -0.990216 -0.000000
vn 0.172735 -0.882806 -0.436825
vn 0.416994 -0.893303 -0.167708
vn -0.139543 -0.990216 -0.000000
vn -0.222061 -0.835974 -0.501833
vn 0.172735 -0.882806 -0.436825
vn -0.139543 -0.990216 -0.000000
vn -0.556459 -0.767065 -0.319320
vn -0.222061 -0.835974 -0.501833
vn -0.139543 -0.990216 -0.000000
vn -0.678350 -0.734739 -0.000000
vn -0.556459 -0.767065 -0.319320
vn -0.139543 -0.990216 -0.000000
vn 0.000000 1.000000 0.000000
vn -0.693711 0.720253 0.000000
vn -0.541851 0.795611 0.270925
vn 0.000000 1.000000 0.000000
vn -0.541851 0.795611 0.270925
vn -0.000000 0.900969 0.433884
vn 0.000000 1.000000 0.000000
vn -0.000000 0.900969 0.433884
vn 0.541851 0.795611 0.270925
vn 0.000000 1.000000 0.000000
vn 0.541851 0.795611 0.270925
vn 0.693711 0.720253 0.000000
vn 0.000000 1.000000 0.000000
vn 0.693711 0.720253 0.000000
vn 0.541851 0.795611 -0.270925
vn 0.000000 1.000000 0.000000
vn 0.541851 0.795611 -0.270925
vn 0.000000 0.900969 -0.433884
vn 0.000000 1.000000 0.000000
vn 0.000000 0.900969 -0.433884
vn -0.541851 0.795611 -0.270925
vn 0.000000 1.000000 0.000000
vn -0.541851 0.795611 -0.270925
vn -0.693711 0.720253 -0.000000
vn -0.541851 0.795611 0.270925
vn -0.693711 0.720253 0.000000
vn -0.798600 0.450330 0.399300
vn -0.693711 0.720253 0.000000
vn -0.928881 0.370379 0.000000
vn -0.798600 0.450330 0.399300
vn -0.000000 0.900969 0.433884
vn -0.541851 0.795611 0.270925
vn -0.000000 0.623490 0.781832
vn -0.541851 0.795611 0.270925
vn -0.798600 0.450330 0.399300
vn -0.000000 0.623490 0.781832
vn 0.541851 0.795611 0.270925
vn -0.000000 0.900969 0.433884
vn 0.798600 0.450330 0.399300
vn -0.000000 0.900969 0.433884
vn -0.000000 0.623490 0.781832
vn 0.798600 0.450330 0.399300
vn 0.693711 0.720253 0.000000
vn 0.541851 0.795611 0.270925
vn 0.928881 0.370379 0.000000
vn 0.541851 0.795611 0.270925
vn 0.798600 0.450330 0.399300
vn 0.928881 0.370379 0.000000
vn 0.541851 0.795611 -0.270925
vn 0.693711 0.720253 0.000000
vn 0.798600 0.450330 -0.399300
vn 0.693711 0.720253 0.000000
vn 0.928881 0.370379 0.000000
vn 0.798600 0.450330 -0.399300
vn 0.000000 0.900969 -0.433884
vn 0.541851 0.795611 -0.270925
vn 0.000000 0.623490 -0.781832
vn 0.541851 0.795611 -0.270925
vn 0.798600 0.450330 -0.399300
vn 0.000000 0.623490 -0.781832
vn -0.541851 0.795611 -0.270925
vn 0.000000 0.900969 -0.433884
vn -0.798600 0.450330 -0.399300
vn 0.000000 0.900969 -0.433884
vn 0.000000 0.623490 -0.781832
vn -0.798600 0.450330 -0.399300
vn -0.693711 0.720253 -0.000000
vn -0.541851 0.795611 -0.270925
vn -0.928881 0.370379 -0.000000
vn -0.541851 0.795611 -0.270925
vn -0.798600 0.450330 -0.399300
vn -0.928881 0.370379 -0.000000
vn -0.798600 0.450330 0.399300
vn -0.928881 0.370379 0.000000
vn -0.885251 0.142873 0.442626
vn -0.928881 0.370379 0.000000
vn -0.993551 0.113386 0.000000
vn -0.885251 0.142873 0.442626
vn -0.000000 0.623490 0.781832
vn -0.798600 0.450330 0.399300
vn -0.000000 0.222521 0.974928
vn -0.798600 0.450330 0.399300
vn -0.885251 0.142873 0.442626
vn -0.000000 0.222521 0.974928
vn 0.798600 0.450330 0.399300
vn -0.000000 0.623490 0.781832
vn 0.885251 0.142873 0.442626
vn -0.000000 0.623490 0.781832
vn -0.000000 0.222521 0.974928
vn 0.885251 0.142873 0.442626
vn 0.928881 0.370379 0.000000
vn 0.798600 0.450330 0.399300
vn 0.993551 0.113386 0.000000
vn 0.798600 0.450330 0.399300
vn 0.885251 0.142873 0.442626
vn 0.993551 0.113386 0.000000
vn 0.798600 0.450330 -0.399300
vn 0.928881 0.370379 0.000000
vn 0.885251 0.142873 -0.442626
vn 0.928881 0.370379 0.000000
vn 0.993551 0.113386 0.000000
vn 0.885251 0.142873 -0.442626
vn 0.000000 0.623490 -0.781832
vn 0.798600 0.450330 -0.399300
vn 0.000000 0.222521 -0.974928
vn 0.798600 0.450330 -0.399300
vn 0.885251 0.142873 -0.442626
vn 0.000000 0.222521 -0.974928
vn -0.798600 0.450330 -0.399300
vn 0.000000 0.623490 -0.781832
vn -0.885251 0.142873 -0.442626
vn 0.000000 0.623490 -0.781832
vn 0.000000 0.222521 -0.974928
vn -0.885251 0.142873 -0.442626
vn -0.928881 0.370379 -0.000000
vn -0.798600 0.450330 -0.399300
vn -0.993551 0.113386 -0.000000
vn -0.798600 0.450330 -0.399300
vn -0.885251 0.142873 -0.442626
vn -0.993551 0.113386 -0.000000
vn -0.885251 0.142873 0.442626
vn -0.993551 0.113386 0.000000
vn -0.885251 -0.142873 0.442626
vn -0.993551 0.113386 0.000000
vn -0.993551 -0.113386 0.000000
vn -0.885251 -0.142873 0.442626
vn -0.000000 0.222521 0.974928
vn -0.885251 0.142873 0.442626
vn -0.000000 -0.222521 0.974928
vn -0.885251 0.142873 0.442626
vn -0.885251 -0.142873 0.442626
vn -0.000000 -0.222521 0.974928
vn 0.885251 0.142873 0.442626
vn -0.000000 0.222521 0.974928
vn 0.885251 -0.142873 0.442626
vn -0.000000 0.222521 0.974928
vn -0.000000 -0.222521 0.974928
vn 0.885251 -0.142873 0.442626
vn 0.993551 0.113386 0.000000
vn 0.885251 0.142873 0.442626
vn 0.993551 -0.113386 0.000000
vn 0.885251 0.142873 0.442626
vn 0.885251 -0.142873 0.442626
vn 0.993551 -0.113386 0.000000
vn 0.885251 0.142873 -0.442626
vn 0.993551 0.113386 0.000000
vn 0.885251 -0.142873 -0.442626
vn 0.993551 0.113386 0.000000
vn 0.993551 -0.113386 0.000000
vn 0.885251 -0.142873 -0.442626
vn 0.000000 0.222521 -0.974928
vn 0.885251 0.142873 -0.442626
vn 0.000000 -0.222521 -0.974928
vn 0.885251 0.142873 -0.442626
vn 0.885251 -0.142873 -0.442626
vn 0.000000 -0.222521 -0.974928
vn -0.885251 0.142873 -0.442626
vn 0.000000 0.222521 -0.974928
vn -0.885251 -0.142873 -0.442626
vn 0.000000 0.222521 -0.974928
vn 0.000000 -0.222521 -0.974928
vn -0.885251 -0.142873 -0.442626
vn -0.993551 0.113386 -0.000000
vn -0.885251 0.142873 -0.442626
vn -0.993551 -0.113386 -0.000000
vn -0.885251 0.142873 -0.442626
vn -0.885251 -0.142873 -0.442626
vn -0.993551 -0.113386 -0.000000
vn -0.885251 -0.142873 0.442626
vn -0.993551 -0.113386 0.000000
vn -0.798600 -0.450330 0.399300
vn -0.993551 -0.113386 0.000000
vn -0.928881 -0.370379 0.000000
vn -0.798600 -0.450330 0.399300
vn -0.000000 -0.222521 0.974928
vn -0.885251 -0.142873 0.442626
vn -0.000000 -0.623490 0.781832
vn -0.885251 -0.142873 0.442626
vn -0.798600 -0.450330 0.399300
vn -0.000000 -0.623490 0.781832
vn 0.885251 -0.142873 0.442626
vn -0.000000 -0.222521 0.974928
vn 0.798600 -0.450330 0.399300
vn -0.000000 -0.222521 0.974928
vn -0.000000 -0.623490 0.781832
vn 0.798600 -0.450330 0.399300
vn 0.993551 -0.113386 0.000000
vn 0.885251 -0.142873 0.442626
vn 0.928881 -0.370379 0.000000
vn 0.885251 -0.142873 0.442626
vn 0.798600 -0.450330 0.399300
vn 0.928881 -0.370379 0.000000
vn 0.885251 -0.142873 -0.442626
vn 0.993551 -0.113386 0.000000
vn 0.798600 -0.450330 -0.399300
vn 0.993551 -0.113386 0.000000
vn 0.928881 -0.370379 0.000000
vn 0.798600 -0.450330 -0.399300
vn 0.000000 -0.222521 -0.974928
vn 0.885251 -0.142873 -0.442626
vn 0.000000 -0.623490 -0.781832
vn 0.885251 -0.142873 -0.442626
vn 0.798600 -0.450330 -0.399300
vn 0.000000 -0.623490 -0.781832
vn -0.885251 -0.142873 -0.442626
vn 0.000000 -0.222521 -0.974928
vn -0.798600 -0.450330 -0.399300
vn 0.000000 -0.222521 -0.974928
vn 0.000000 -0.623490 -0.781832
vn -0.798600 -0.450330 -0.399300
vn -0.993551 -0.113386 -0.000000
vn -0.885251 -0.142873 -0.442626
vn -0.928881 -0.370379 -0.000000
vn -0.885251 -0.142873 -0.442626
vn -0.798600 -0.450330 -0.399300
vn -0.928881 -0.370379 -0.000000
vn -0.798600 -0.450330 0.399300
vn -0.928881 -0.370379 0.000000
vn -0.541851 -0.795611 0.270925
vn -0.928881 -0.370379 0.000000
vn -0.693711 -0.720253 0.000000
vn -0.541851 -0.795611 0.270925
vn -0.000000 -0.623490 0.781832
vn -0.798600 -0.450330 0.399300
vn -0.000000 -0.900969 0.433884
vn -0.798600 -0.450330 0.399300
vn -0.541851 -0.795611 0.270925
vn -0.000000 -0.900969 0.433884
vn 0.798600 -0.450330 0.399300
vn -0.000000 -0.623490 0.781832
vn 0.541851 -0.795611 0.270925
vn -0.000000 -0.623490 0.781832
vn -0.000000 -0.900969 0.433884
vn 0.541851 -0.795611 0.270925
vn 0.928881 -0.370379 0.000000
vn 0.798600 -0.450330 0.399300
vn 0.693711 -0.720253 0.000000
vn 0.798600 -0.450330 0.399300
vn 0.541851 -0.795611 0.270925
vn 0.693711 -0.720253 0.000000
vn 0.798600 -0.450330 -0.399300
vn 0.928881 -0.370379 0.000000
vn 0.541851 -0.795611 -0.270925
vn 0.928881 -0.370379 0.000000
vn 0.693711 -0.720253 0.000000
vn 0.541851 -0.795611 -0.270925
vn 0.000000 -0.623490 -0.781832
vn 0.798600 -0.450330 -0.399300
vn 0.000000 -0.900969 -0.433884
vn 0.798600 -0.450330 -0.399300
vn 0.541851 -0.795611 -0.270925
vn 0.000000 -0.900969 -0.433884
vn -0.798600 -0.450330 -0.399300
vn 0.000000 -0.623490 -0.781832
vn -0.541851 -0.795611 -0.270925
vn 0.000000 -0.623490 -0.781832
vn 0.000000 -0.900969 -0.433884
vn -0.541851 -0.795611 -0.270925
vn -0.928881 -0.370379 -0.000000
vn -0.798600 -0.450330 -0.399300
vn -0.693711 -0.720253 -0.000000
vn -0.798600 -0.450330 -0.399300
vn -0.541851 -0.795611 -0.270925
vn -0.693711 -0.720253 -0.000000
vn -0.541851 -0.795611 0.270925
vn -0.693711 -0.720253 0.000000
vn -0.000000 -1.000000 0.000000
vn -0.000000 -0.900969 0.433884
vn -0.541851 -0.795611 0.270925
vn -0.000000 -1.000000 0.000000
vn 0.541851 -0.795611 0.270925
vn -0.000000 -0.900969 0.433884
vn 0.000000 -1.000000 0.000000
vn 0.693711 -0.720253 0.000000
vn 0.541851 -0.795611 0.270925
vn 0.000000 -1.000000 0.000000
vn 0.541851 -0.795611 -0.270925
vn 0.693711 -0.720253 0.000000
vn 0.000000 -1.000000 -0.000000
vn 0.000000 -0.900969 -0.433884
vn 0.541851 -0.795611 -0.270925
vn 0.000000 -1.000000 -0.000000
vn -0.541851 -0.795611 -0.270925
vn 0.000000 -0.900969 -0.433884
vn -0.000000 -1.000000 -0.000000
vn -0.693711 -0.720253 -0.000000
vn -0.541851 -0.795611 -0.270925
vn -0.000000 -1.000000 -0.000000
vn -0.578376 -0.448893 0.681159
vn -0.071666 0.644957 0.760851
vn -0.822385 0.308557 0.477991
vn -0.071666 0.644957 0.760851
vn 0.191939 0.851930 0.487210
vn -0.822385 0.308557 0.477991
vn -0.071666 0.644957 0.760851
vn 0.932423 0.221798 0.285296
vn 0.191939 0.851930 0.487210
vn 0.932423 0.221798 0.285296
vn 0.839115 0.411214 -0.356074
vn 0.191939 0.851930 0.487210
vn 0.932423 0.221798 0.285296
vn 0.698556 -0.568726 -0.434247
vn 0.839115 0.411214 -0.356074
vn 0.698556 -0.568726 -0.434247
vn 0.224768 -0.404537 -0.886470
vn 0.839115 0.411214 -0.356074
vn 0.698556 -0.568726 -0.434247
vn -0.478145 -0.729039 -0.489775
vn 0.224768 -0.404537 -0.886470
vn -0.478145 -0.729039 -0.489775
vn -0.802097 -0.467983 -0.370989
vn 0.224768 -0.404537 -0.886470
vn -0.478145 -0.729039 -0.489775
vn -0.578376 -0.448893 0.681159
vn -0.802097 -0.467983 -0.370989
vn -0.578376 -0.448893 0.681159
vn -0.822385 0.308557 0.477991
vn -0.802097 -0.467983 -0.370989
vn -0.822385 0.308557 0.477991
vn 0.191939 0.851930 0.487210
vn -0.626691 0.493668 0.602952
vn 0.191939 0.851930 0.487210
vn 0.453892 0.819619 0.349580
vn -0.626691 0.493668 0.602952
vn 0.191939 0.851930 0.487210
vn 0.839115 0.411214 -0.356074
vn 0.453892 0.819619 0.349580
vn 0.839115 0.411214 -0.356074
vn 0.816392 0.184716 -0.547160
vn 0.453892 0.819619 0.349580
vn 0.839115 0.411214 -0.356074
vn 0.224768 -0.404537 -0.886470
vn 0.816392 0.184716 -0.547160
vn 0.224768 -0.404537 -0.886470
vn -0.036799 -0.538425 -0.841869
vn 0.816392 0.184716 -0.547160
vn 0.224768 -0.404537 -0.886470
vn -0.802097 -0.467983 -0.370989
vn -0.036799 -0.538425 -0.841869
vn -0.802097 -0.467983 -0.370989
vn -0.927547 -0.351249 -0.127596
vn -0.036799 -0.538425 -0.841869
vn -0.802097 -0.467983 -0.370989
vn -0.822385 0.308557 0.477991
vn -0.927547 -0.351249 -0.127596
vn -0.822385 0.308557 0.477991
vn -0.626691 0.493668 0.602952
vn -0.927547 -0.351249 -0.127596
vn -0.578376 -0.448893 0.681159
vn 0.932423 0.221798 0.285296
vn -0.071666 0.644957 0.760851
vn -0.626691 0.493668 0.602952
vn 0.453892 0.819619 0.349580
vn 0.816392 0.184716 -0.547160
vn -0.578376 -0.448893 0.681159
vn 0.698556 -0.568726 -0.434247
vn 0.932423 0.221798 0.285296
vn -0.626691 0.493668 0.602952
vn 0.816392 0.184716 -0.547160
vn -0.036799 -0.538425 -0.841869
vn -0.578376 -0.448893 0.681159
vn -0.478145 -0.729039 -0.489775
vn 0.698556 -0.568726 -0.434247
vn -0.626691 0.493668 0.602952
vn -0.036799 -0.538425 -0.841869
vn -0.927547 -0.351249 -0.127596
usemtl Dragon_color_atlas
f 1/1/1 2/2/2 3/3/3
f 4/4/4 5/5/5 6/6/6
f 7/7/7 8/8/8 9/9/9
f 10/10/10 11/11/11 12/12/12
f 13/13/13 14/14/14 15/15/15
f 16/16/16 17/17/17 18/18/18
f 19/19/19 20/20/20 21/21/21
f 22/22/22 23/23/23 24/24/24
f 25/25/25 26/26/26 27/27/27
f 28/28/28 29/29/29 30/30/30
f 31/31/31 32/32/32 33/33/33
f 34/34/34 35/35/35 36/36/36
f 37/37/37 38/38/38 39/39/39
f 40/40/40 41/41/41 42/42/42
f 43/43/43 44/44/44 45/45/45
f 46/46/46 47/47/47 48/48/48
f 49/49/49 50/50/50 51/51/51
f 52/52/52 53/53/53 54/54/54
f 55/55/55 56/56/56 57/57/57
f 58/58/58 59/59/59 60/60/60
f 61/61/61 62/62/62 63/63/63
f 64/64/64 65/65/65 66/66/66
f 67/67/67 68/68/68 69/69/69
f 70/70/70 71/71/71 72/72/72
f 73/73/73 74/74/74 75/75/75
f 76/76/76 77/77/77 78/78/78
f 79/79/79 80/80/80 81/81/81
f 82/82/82 83/83/83 84/84/84
f 85/85/85 86/86/86 87/87/87
f 88/88/88 89/89/89 90/90/90
f 91/91/91 92/92/92 93/93/93
f 94/94/94 95/95/95 96/96/96
f 97/97/97 98/98/98 99/99/99
f 100/100/100 101/101/101 102/102/102
f 103/103/103 104/104/104 105/105/105
f 106/106/106 107/107/107 108/108/108
f 109/109/109 110/110/110 111/111/111
f 112/112/112 113/113/113 114/114/114
f 115/115/115 116/116/116 117/117/117
f 118/118/118 119/119/119 120/120/120
f 121/121/121 122/122/122 123/123/123
f 124/124/124 125/125/125 126/126/126
f 127/127/127 128/128/128 129/129/129
f 130/130/130 131/131/131 132/132/132
f 133/133/133 134/134/134 135/135/135
f 136/136/136 137/137/137 138/138/138
f 139/139/139 140/140/140 141/141/141
f 142/142/142 143/143/143 144/144/144
f 145/145/145 146/146/146 147/147/147
f 148/148/148 149/149/149 150/150/150
f 151/151/151 152/152/152 153/153/153
f 154/154/154 155/155/155 156/156/156
f 157/157/157 158/158/158 159/159/159
f 160/160/160 161/161/161 162/162/162
f 163/163/163 164/164/164 165/165/165
f 166/166/166 167/167/167 168/168/168
f 169/169/169 170/170/170 171/171/171
f 172/172/172 173/173/173 174/174/174
f 175/175/175 176/176/176 177/177/177
f 178/178/178 179/179/179 180/180/180
f 181/181/181 182/182/182 183/183/183
f 184/184/184 185/185/185 186/186/186
f 187/187/187 188/188/188 189/189/189
f 190/190/190 191/191/191 192/192/192
f 193/193/193 194/194/194 195/195/195
f 196/196/196 197/197/197 198/198/198
f 199/199/199 200/200/200 201/201/201
f 202/202/202 203/203/203 204/204/204
f 205/205/205 206/206/206 207/207/207
f 208/208/208 209/209/209 210/210/210
f 211/211/211 212/212/212 213/213/213
f 214/214/214 215/215/215 216/216/216
f 217/217/217 218/218/218 219/219/219
f 220/220/220 221/221/221 222/222/222
f 223/223/223 224/224/224 225/225/225
f 226/226/226 227/227/227 228/228/228
f 229/229/229 230/230/230 231/231/231
f 232/232/232 233/233/233 234/234/234
f 235/235/235 236/236/236 237/237/237
f 238/238/238 239/239/239 240/240/240
f 241/241/241 242/242/242 243/243/243
f 244/244/244 245/245/245 246/246/246
f 247/247/247 248/248/248 249/249/249
f 250/250/250 251/251/251 252/252/252
f 253/253/253 254/254/254 255/255/255
f 256/256/256 257/257/257 258/258/258
f 259/259/259 260/260/260 261/261/261
f 262/262/262 263/263/263 264/264/264
f 265/265/265 266/266/266 267/267/267
f 268/268/268 269/269/269 270/270/270
f 271/271/271 272/272/272 273/273/273
f 274/274/274 275/275/275 276/276/276
f 277/277/277 278/278/278 279/279/279
f 280/280/280 281/281/281 282/282/282
f 283/283/283 284/284/284 285/285/285
f 286/286/286 287/287/287 288/288/288
f 289/289/289 290/290/290 291/291/291
f 292/292/292 293/293/293 294/294/294
f 295/295/295 296/296/296 297/297/297
f 298/298/298 299/299/299 300/300/300
f 301/301/301 302/302/302 303/303/303
f 304/304/304 305/305/305 306/306/306
f 307/307/307 308/308/308 309/309/309
f 310/310/310 311/311/311 312/312/312
f 313/313/313 314/314/314 315/315/315
f 316/316/316 317/317/317 318/318/318
f 319/319/319 320/320/320 321/321/321
f 322/322/322 323/323/323 324/324/324
f 325/325/325 326/326/326 327/327/327
f 328/328/328 329/329/329 330/330/330
f 331/331/331 332/332/332 333/333/333
f 334/334/334 335/335/335 336/336/336
f 337/337/337 338/338/338 339/339/339
f 340/340/340 341/341/341 342/342/342
f 343/343/343 344/344/344 345/345/345
f 346/346/346 347/347/347 348/348/348
f 349/349/349 350/350/350 351/351/351
f 352/352/352 353/353/353 354/354/354
f 355/355/355 356/356/356 357/357/357
f 358/358/358 359/359/359 360/360/360
f 361/361/361 362/362/362 363/363/363
f 364/364/364 365/365/365 366/366/366
f 367/367/367 368/368/368 369/369/369
f 370/370/370 371/371/371 372/372/372
f 373/373/373 374/374/374 375/375/375
f 376/376/376 377/377/377 378/378/378
f 379/379/379 380/380/380 381/381/381
f 382/382/382 383/383/383 384/384/384
f 385/385/385 386/386/386 387/387/387
f 388/388/388 389/389/389 390/390/390
f 391/391/391 392/392/392 393/393/393
f 394/394/394 395/395/395 396/396/396
f 397/397/397 398/398/398 399/399/399
f 400/400/400 401/401/401 402/402/402
f 403/403/403 404/404/404 405/405/405
f 406/406/406 407/407/407 408/408/408
f 409/409/409 410/410/410 411/411/411
f 412/412/412 413/413/413 414/414/414
f 415/415/415 416/416/416 417/417/417
f 418/418/418 419/419/419 420/420/420
f 421/421/421 422/422/422 423/423/423
f 424/424/424 425/425/425 426/426/426
f 427/427/427 428/428/428 429/429/429
f 430/430/430 431/431/431 432/432/432
f 433/433/433 434/434/434 435/435/435
f 436/436/436 437/437/437 438/438/438
f 439/439/439 440/440/440 441/441/441
f 442/442/442 443/443/443 444/444/444
f 445/445/445 446/446/446 447/447/447
f 448/448/448 449/449/449 450/450/450
f 451/451/451 452/452/452 453/453/453
f 454/454/454 455/455/455 456/456/456
f 457/457/457 458/458/458 459/459/459
f 460/460/460 461/461/461 462/462/462
f 463/463/463 464/464/464 465/465/465
f 466/466/466 467/467/467 468/468/468
f 469/469/469 470/470/470 471/471/471
f 472/472/472 473/473/473 474/474/474
f 475/475/475 476/476/476 477/477/477
f 478/478/478 479/479/479 480/480/480
f 481/481/481 482/482/482 483/483/483
f 484/484/484 485/485/485 486/486/486
f 487/487/487 488/488/488 489/489/489
f 490/490/490 491/491/491 492/492/492
f 493/493/493 494/494/494 495/495/495
f 496/496/496 497/497/497 498/498/498
f 499/499/499 500/500/500 501/501/501
f 502/502/502 503/503/503 504/504/504
f 505/505/505 506/506/506 507/507/507
f 508/508/508 509/509/509 510/510/510
f 511/511/511 512/512/512 513/513/513
f 514/514/514 515/515/515 516/516/516
f 517/517/517 518/518/518 519/519/519
f 520/520/520 521/521/521 522/522/522
f 523/523/523 524/524/524 525/525/525
f 526/526/526 527/527/527 528/528/528
f 529/529/529 530/530/530 531/531/531
f 532/532/532 533/533/533 534/534/534
f 535/535/535 536/536/536 537/537/537
f 538/538/538 539/539/539 540/540/540
f 541/541/541 542/542/542 543/543/543
f 544/544/544 545/545/545 546/546/546
f 547/547/547 548/548/548 549/549/549
f 550/550/550 551/551/551 552/552/552
f 553/553/553 554/554/554 555/555/555
f 556/556/556 557/557/557 558/558/558
f 559/559/559 560/560/560 561/561/561
f 562/562/562 563/563/563 564/564/564
f 565/565/565 566/566/566 567/567/567
f 568/568/568 569/569/569 570/570/570
f 571/571/571 572/572/572 573/573/573
f 574/574/574 575/575/575 576/576/576
f 577/577/577 578/578/578 579/579/579
f 580/580/580 581/581/581 582/582/582
f 583/583/583 584/584/584 585/585/585
f 586/586/586 587/587/587 588/588/588
f 589/589/589 590/590/590 591/591/591
f 592/592/592 593/593/593 594/594/594
f 595/595/595 596/596/596 597/597/597
f 598/598/598 599/599/599 600/600/600
f 601/601/601 602/602/602 603/603/603
f 604/604/604 605/605/605 606/606/606
f 607/607/607 608/608/608 609/609/609
f 610/610/610 611/611/611 612/612/612
f 613/613/613 614/614/614 615/615/615
f 616/616/616 617/617/617 618/618/618
f 619/619/619 620/620/620 621/621/621
f 622/622/622 623/623/623 624/624/624
f 625/625/625 626/626/626 627/627/627
f 628/628/628 629/629/629 630/630/630
f 631/631/631 632/632/632 633/633/633
f 634/634/634 635/635/635 636/636/636
f 637/637/637 638/638/638 639/639/639
f 640/640/640 641/641/641 642/642/642
f 643/643/643 644/644/644 645/645/645
f 646/646/646 647/647/647 648/648/648
f 649/649/649 650/650/650 651/651/651
f 652/652/652 653/653/653 654/654/654
f 655/655/655 656/656/656 657/657/657
f 658/658/658 659/659/659 660/660/660
f 661/661/661 662/662/662 663/663/663
f 664/664/664 665/665/665 666/666/666
f 667/667/667 668/668/668 669/669/669
f 670/670/670 671/671/671 672/672/672
f 673/673/673 674/674/674 675/675/675
f 676/676/676 677/677/677 678/678/678
f 679/679/679 680/680/680 681/681/681
f 682/682/682 683/683/683 684/684/684
f 685/685/685 686/686/686 687/687/687
f 688/688/688 689/689/689 690/690/690
f 691/691/691 692/692/692 693/693/693
f 694/694/694 695/695/695 696/696/696
f 697/697/697 698/698/698 699/699/699
f 700/700/700 701/701/701 702/702/702
f 703/703/703 704/704/704 705/705/705
f 706/706/706 707/707/707 708/708/708
f 709/709/709 710/710/710 711/711/711
f 712/712/712 713/713/713 714/714/714
f 715/715/715 716/716/716 717/717/717
f 718/718/718 719/719/719 720/720/720
f 721/721/721 722/722/722 723/723/723
f 724/724/724 725/725/725 726/726/726
f 727/727/727 728/728/728 729/729/729
f 730/730/730 731/731/731 732/732/732
f 733/733/733 734/734/734 735/735/735
f 736/736/736 737/737/737 738/738/738
f 739/739/739 740/740/740 741/741/741
f 742/742/742 743/743/743 744/744/744
f 745/745/745 746/746/746 747/747/747
f 748/748/748 749/749/749 750/750/750
f 751/751/751 752/752/752 753/753/753
f 754/754/754 755/755/755 756/756/756
f 757/757/757 758/758/758 759/759/759
f 760/760/760 761/761/761 762/762/762
f 763/763/763 764/764/764 765/765/765
f 766/766/766 767/767/767 768/768/768
f 769/769/769 770/770/770 771/771/771
f 772/772/772 773/773/773 774/774/774
f 775/775/775 776/776/776 777/777/777
f 778/778/778 779/779/779 780/780/780
f 781/781/781 782/782/782 783/783/783
f 784/784/784 785/785/785 786/786/786
f 787/787/787 788/788/788 789/789/789
f 790/790/790 791/791/791 792/792/792
f 793/793/793 794/794/794 795/795/795
f 796/796/796 797/797/797 798/798/798
f 799/799/799 800/800/800 801/801/801
f 802/802/802 803/803/803 804/804/804
f 805/805/805 806/806/806 807/807/807
f 808/808/808 809/809/809 810/810/810
f 811/811/811 812/812/812 813/813/813
f 814/814/814 815/815/815 816/816/816
f 817/817/817 818/818/818 819/819/819
f 820/820/820 821/821/821 822/822/822
f 823/823/823 824/824/824 825/825/825
f 826/826/826 827/827/827 828/828/828
f 829/829/829 830/830/830 831/831/831
f 832/832/832 833/833/833 834/834/834
f 835/835/835 836/836/836 837/837/837
f 838/838/838 839/839/839 840/840/840
