# Obsidian West — joint-local part geometry, +Y up, +Z forward
mtllib materials.mtl
o L_Wing_Membrane_2
v -0.080812 -0.000000 0.074629
v -0.049161 0.094385 0.027834
v -2.293141 -0.450000 -2.374882
v -0.049161 0.094385 0.027834
v -2.275912 -0.389823 -2.414353
v -2.293141 -0.450000 -2.374882
v -0.049161 0.094385 0.027834
v 0.031651 0.094385 -0.046795
v -2.275912 -0.389823 -2.414353
v 0.031651 0.094385 -0.046795
v -2.215771 -0.389823 -2.457471
v -2.275912 -0.389823 -2.414353
v 0.031651 0.094385 -0.046795
v 0.080812 -0.000000 -0.074629
v -2.215771 -0.389823 -2.457471
v 0.080812 -0.000000 -0.074629
v -2.172859 -0.450000 -2.461118
v -2.215771 -0.389823 -2.457471
v 0.080812 -0.000000 -0.074629
v 0.049161 -0.094385 -0.027834
v -2.172859 -0.450000 -2.461118
v 0.049161 -0.094385 -0.027834
v -2.190088 -0.510177 -2.421647
v -2.172859 -0.450000 -2.461118
v 0.049161 -0.094385 -0.027834
v -0.031651 -0.094385 0.046795
v -2.190088 -0.510177 -2.421647
v -0.031651 -0.094385 0.046795
v -2.250229 -0.510177 -2.378529
v -2.190088 -0.510177 -2.421647
v -0.031651 -0.094385 0.046795
v -0.080812 -0.000000 0.074629
v -2.250229 -0.510177 -2.378529
v -0.080812 -0.000000 0.074629
v -2.293141 -0.450000 -2.374882
v -2.250229 -0.510177 -2.378529
v -2.293141 -0.450000 -2.374882
v -2.275912 -0.389823 -2.414353
v -3.864033 -2.420000 -5.362313
v -2.275912 -0.389823 -2.414353
v -3.860379 -2.408041 -5.372295
v -3.864033 -2.420000 -5.362313
v -2.275912 -0.389823 -2.414353
v -2.215771 -0.389823 -2.457471
v -3.860379 -2.408041 -5.372295
v -2.215771 -0.389823 -2.457471
v -3.846346 -2.408041 -5.379982
v -3.860379 -2.408041 -5.372295
v -2.215771 -0.389823 -2.457471
v -2.172859 -0.450000 -2.461118
v -3.846346 -2.408041 -5.379982
v -2.172859 -0.450000 -2.461118
v -3.835967 -2.420000 -5.377687
v -3.846346 -2.408041 -5.379982
v -2.172859 -0.450000 -2.461118
v -2.190088 -0.510177 -2.421647
v -3.835967 -2.420000 -5.377687
v -2.190088 -0.510177 -2.421647
v -3.839621 -2.431959 -5.367704
v -3.835967 -2.420000 -5.377687
v -2.190088 -0.510177 -2.421647
v -2.250229 -0.510177 -2.378529
v -3.839621 -2.431959 -5.367704
v -2.250229 -0.510177 -2.378529
v -3.853654 -2.431959 -5.360018
v -3.839621 -2.431959 -5.367704
v -2.250229 -0.510177 -2.378529
v -2.293141 -0.450000 -2.374882
v -3.853654 -2.431959 -5.360018
v -2.293141 -0.450000 -2.374882
v -3.864033 -2.420000 -5.362313
v -3.853654 -2.431959 -5.360018
v -0.080812 -0.000000 0.074629
v 0.031651 0.094385 -0.046795
v -0.049161 0.094385 0.027834
v -3.864033 -2.420000 -5.362313
v -3.860379 -2.408041 -5.372295
v -3.846346 -2.408041 -5.379982
v -0.080812 -0.000000 0.074629
v 0.080812 -0.000000 -0.074629
v 0.031651 0.094385 -0.046795
v -3.864033 -2.420000 -5.362313
v -3.846346 -2.408041 -5.379982
v -3.835967 -2.420000 -5.377687
v -0.080812 -0.000000 0.074629
v 0.049161 -0.094385 -0.027834
v 0.080812 -0.000000 -0.074629
v -3.864033 -2.420000 -5.362313
v -3.835967 -2.420000 -5.377687
v -3.839621 -2.431959 -5.367704
v -0.080812 -0.000000 0.074629
v -0.031651 -0.094385 0.046795
v 0.049161 -0.094385 -0.027834
v -3.864033 -2.420000 -5.362313
v -3.839621 -2.431959 -5.367704
v -3.853654 -2.431959 -5.360018
v -2.215699 -2.048260 -4.052929
v 0.000000 -0.000000 0.000000
v -2.233000 -0.450000 -2.418000
v -2.215699 -2.048260 -4.052929
v -2.233000 -0.450000 -2.418000
v -3.850000 -2.420000 -5.370000
v -2.215699 -2.048260 -4.052929
v -3.850000 -2.420000 -5.370000
v -3.152770 -2.340620 -4.965122
v -2.215699 -2.048260 -4.052929
v -3.152770 -2.340620 -4.965122
v -2.621804 -2.152024 -4.454112
v -2.215699 -2.048260 -4.052929
v -2.621804 -2.152024 -4.454112
v -2.782448 -2.416288 -4.936444
v -2.215699 -2.048260 -4.052929
v -2.782448 -2.416288 -4.936444
v -2.181808 -2.025248 -4.077324
v -2.215699 -2.048260 -4.052929
v -2.181808 -2.025248 -4.077324
v -2.517488 -2.482528 -4.935064
v -2.215699 -2.048260 -4.052929
v -2.517488 -2.482528 -4.935064
v -2.096700 -2.418600 -4.665375
v -2.215699 -2.048260 -4.052929
v -2.096700 -2.418600 -4.665375
v -2.102968 -2.653808 -5.039904
v -2.215699 -2.048260 -4.052929
v -2.102968 -2.653808 -5.039904
v -1.930000 -2.900000 -5.360000
v -2.215699 -2.048260 -4.052929
v -1.930000 -2.900000 -5.360000
v -1.119400 -0.880000 -2.413800
v -2.215699 -2.048260 -4.052929
v -1.119400 -0.880000 -2.413800
v 0.000000 -0.000000 0.000000
vt 0.453333 0.880000
vt 0.546667 0.880000
vt 0.500000 0.786667
vt 0.453333 0.880000
vt 0.546667 0.880000
vt 0.500000 0.786667
vt 0.453333 0.880000
vt 0.546667 0.880000
vt 0.500000 0.786667
vt 0.453333 0.880000
vt 0.546667 0.880000
vt 0.500000 0.786667
vt 0.453333 0.880000
vt 0.546667 0.880000
vt 0.500000 0.786667
vt 0.453333 0.880000
vt 0.546667 0.880000
vt 0.500000 0.786667
vt 0.453333 0.880000
vt 0.546667 0.880000
vt 0.500000 0.786667
vt 0.453333 0.880000
vt 0.546667 0.880000
vt 0.500000 0.786667
vt 0.453333 0.880000
vt 0.546667 0.880000
vt 0.500000 0.786667
vt 0.453333 0.880000
vt 0.546667 0.880000
vt 0.500000 0.786667
vt 0.453333 0.880000
vt 0.546667 0.880000
vt 0.500000 0.786667
vt 0.453333 0.880000
vt 0.546667 0.880000
vt 0.500000 0.786667
vt 0.453333 0.880000
vt 0.546667 0.880000
vt 0.500000 0.786667
vt 0.453333 0.880000
vt 0.546667 0.880000
vt 0.500000 0.786667
vt 0.453333 0.880000
vt 0.546667 0.880000
vt 0.500000 0.786667
vt 0.453333 0.880000
vt 0.546667 0.880000
vt 0.500000 0.786667
vt 0.453333 0.880000
vt 0.546667 0.880000
vt 0.500000 0.786667
vt 0.453333 0.880000
vt 0.546667 0.880000
vt 0.500000 0.786667
vt 0.453333 0.880000
vt 0.546667 0.880000
vt 0.500000 0.786667
vt 0.453333 0.880000
vt 0.546667 0.880000
vt 0.500000 0.786667
vt 0.453333 0.880000
vt 0.546667 0.880000
vt 0.500000 0.786667
vt 0.453333 0.880000
vt 0.546667 0.880000
vt 0.500000 0.786667
vt 0.453333 0.880000
vt 0.546667 0.880000
vt 0.500000 0.786667
vt 0.453333 0.880000
vt 0.546667 0.880000
vt 0.500000 0.786667
vt 0.453333 0.880000
vt 0.546667 0.880000
vt 0.500000 0.786667
vt 0.453333 0.880000
vt 0.546667 0.880000
vt 0.500000 0.786667
vt 0.453333 0.880000
vt 0.546667 0.880000
vt 0.500000 0.786667
vt 0.453333 0.880000
vt 0.546667 0.880000
vt 0.500000 0.786667
vt 0.453333 0.880000
vt 0.546667 0.880000
vt 0.500000 0.786667
vt 0.453333 0.880000
vt 0.546667 0.880000
vt 0.500000 0.786667
vt 0.453333 0.880000
vt 0.546667 0.880000
vt 0.500000 0.786667
vt 0.453333 0.880000
vt 0.546667 0.880000
vt 0.500000 0.786667
vt 0.120000 0.546667
vt 0.213333 0.546667
vt 0.166667 0.453333
vt 0.120000 0.546667
vt 0.213333 0.546667
vt 0.166667 0.453333
vt 0.120000 0.546667
vt 0.213333 0.546667
vt 0.166667 0.453333
vt 0.120000 0.546667
vt 0.213333 0.546667
vt 0.166667 0.453333
vt 0.120000 0.546667
vt 0.213333 0.546667
vt 0.166667 0.453333
vt 0.120000 0.546667
vt 0.213333 0.546667
vt 0.166667 0.453333
vt 0.120000 0.546667
vt 0.213333 0.546667
vt 0.166667 0.453333
vt 0.120000 0.546667
vt 0.213333 0.546667
vt 0.166667 0.453333
vt 0.120000 0.546667
vt 0.213333 0.546667
vt 0.166667 0.453333
vt 0.120000 0.546667
vt 0.213333 0.546667
vt 0.166667 0.453333
vt 0.120000 0.546667
vt 0.213333 0.546667
vt 0.166667 0.453333
vt 0.120000 0.546667
vt 0.213333 0.546667
vt 0.166667 0.453333
vn -0.672127 -0.122667 0.730204
vn -0.519944 0.785547 0.335521
vn -0.803497 0.116626 0.583773
vn -0.519944 0.785547 0.335521
vn -0.485631 0.874141 0.006386
vn -0.803497 0.116626 0.583773
vn -0.519944 0.785547 0.335521
vn 0.207661 0.921623 -0.327852
vn -0.485631 0.874141 0.006386
vn 0.207661 0.921623 -0.327852
vn 0.311268 0.748599 -0.585416
vn -0.485631 0.874141 0.006386
vn 0.207661 0.921623 -0.327852
vn 0.741332 0.136834 -0.657041
vn 0.311268 0.748599 -0.585416
vn 0.741332 0.136834 -0.657041
vn 0.788324 -0.123391 -0.602760
vn 0.311268 0.748599 -0.585416
vn 0.741332 0.136834 -0.657041
vn 0.537848 -0.781606 -0.315929
vn 0.788324 -0.123391 -0.602760
vn 0.537848 -0.781606 -0.315929
vn 0.471025 -0.881756 -0.025317
vn 0.788324 -0.123391 -0.602760
vn 0.537848 -0.781606 -0.315929
vn -0.189527 -0.918211 0.347804
vn 0.471025 -0.881756 -0.025317
vn -0.189527 -0.918211 0.347804
vn -0.326717 -0.756159 0.566992
vn 0.471025 -0.881756 -0.025317
vn -0.189527 -0.918211 0.347804
vn -0.672127 -0.122667 0.730204
vn -0.326717 -0.756159 0.566992
vn -0.672127 -0.122667 0.730204
vn -0.803497 0.116626 0.583773
vn -0.326717 -0.756159 0.566992
vn -0.803497 0.116626 0.583773
vn -0.485631 0.874141 0.006386
vn -0.913803 0.289299 0.285079
vn -0.485631 0.874141 0.006386
vn -0.407535 0.840781 -0.356374
vn -0.913803 0.289299 0.285079
vn -0.485631 0.874141 0.006386
vn 0.311268 0.748599 -0.585416
vn -0.407535 0.840781 -0.356374
vn 0.311268 0.748599 -0.585416
vn 0.502973 0.552455 -0.664688
vn -0.407535 0.840781 -0.356374
vn 0.311268 0.748599 -0.585416
vn 0.788324 -0.123391 -0.602760
vn 0.502973 0.552455 -0.664688
vn 0.788324 -0.123391 -0.602760
vn 0.900354 -0.304135 -0.311230
vn 0.502973 0.552455 -0.664688
vn 0.788324 -0.123391 -0.602760
vn 0.471025 -0.881756 -0.025317
vn 0.900354 -0.304135 -0.311230
vn 0.471025 -0.881756 -0.025317
vn 0.393607 -0.855900 0.335422
vn 0.900354 -0.304135 -0.311230
vn 0.471025 -0.881756 -0.025317
vn -0.326717 -0.756159 0.566992
vn 0.393607 -0.855900 0.335422
vn -0.326717 -0.756159 0.566992
vn -0.518770 -0.564594 0.641959
vn 0.393607 -0.855900 0.335422
vn -0.326717 -0.756159 0.566992
vn -0.803497 0.116626 0.583773
vn -0.518770 -0.564594 0.641959
vn -0.803497 0.116626 0.583773
vn -0.913803 0.289299 0.285079
vn -0.518770 -0.564594 0.641959
vn -0.672127 -0.122667 0.730204
vn 0.207661 0.921623 -0.327852
vn -0.519944 0.785547 0.335521
vn -0.913803 0.289299 0.285079
vn -0.407535 0.840781 -0.356374
vn 0.502973 0.552455 -0.664688
vn -0.672127 -0.122667 0.730204
vn 0.741332 0.136834 -0.657041
vn 0.207661 0.921623 -0.327852
vn -0.913803 0.289299 0.285079
vn 0.502973 0.552455 -0.664688
vn 0.900354 -0.304135 -0.311230
vn -0.672127 -0.122667 0.730204
vn 0.537848 -0.781606 -0.315929
vn 0.741332 0.136834 -0.657041
vn -0.913803 0.289299 0.285079
vn 0.900354 -0.304135 -0.311230
vn 0.393607 -0.855900 0.335422
vn -0.672127 -0.122667 0.730204
vn -0.189527 -0.918211 0.347804
vn 0.537848 -0.781606 -0.315929
vn -0.913803 0.289299 0.285079
vn 0.393607 -0.855900 0.335422
vn -0.518770 -0.564594 0.641959
vn -0.257926 -0.768689 0.585313
vn -0.301197 -0.774599 0.556127
vn -0.461277 -0.636894 0.617729
vn -0.257926 -0.768689 0.585313
vn -0.461277 -0.636894 0.617729
vn -0.357410 -0.683538 0.636423
vn -0.257926 -0.768689 0.585313
vn -0.357410 -0.683538 0.636423
vn -0.082001 -0.921515 0.379586
vn -0.257926 -0.768689 0.585313
vn -0.082001 -0.921515 0.379586
vn -0.212345 -0.872251 0.440553
vn -0.257926 -0.768689 0.585313
vn -0.212345 -0.872251 0.440553
vn -0.134109 -0.881298 0.453132
vn -0.257926 -0.768689 0.585313
vn -0.134109 -0.881298 0.453132
vn -0.148056 -0.608464 -0.779648
vn -0.257926 -0.768689 0.585313
vn -0.148056 -0.608464 -0.779648
vn -0.295072 -0.813368 0.501363
vn -0.257926 -0.768689 0.585313
vn -0.295072 -0.813368 0.501363
vn -0.233079 -0.851541 0.469631
vn -0.257926 -0.768689 0.585313
vn -0.233079 -0.851541 0.469631
vn -0.485853 -0.768641 0.416098
vn -0.257926 -0.768689 0.585313
vn -0.485853 -0.768641 0.416098
vn 0.033482 -0.833982 0.550775
vn -0.257926 -0.768689 0.585313
vn 0.033482 -0.833982 0.550775
vn 0.465759 -0.837601 0.285471
vn -0.257926 -0.768689 0.585313
vn 0.465759 -0.837601 0.285471
vn -0.301197 -0.774599 0.556127
usemtl Dragon_color_atlas
f 1/1/1 2/2/2 3/3/3
f 4/4/4 5/5/5 6/6/6
f 7/7/7 8/8/8 9/9/9
f 10/10/10 11/11/11 12/12/12
f 13/13/13 14/14/14 15/15/15
f 16/16/16 17/17/17 18/18/18
f 19/19/19 20/20/20 21/21/21
f 22/22/22 23/23/23 24/24/24
f 25/25/25 26/26/26 27/27/27
f 28/28/28 29/29/29 30/30/30
f 31/31/31 32/32/32 33/33/33
f 34/34/34 35/35/35 36/36/36
f 37/37/37 38/38/38 39/39/39
f 40/40/40 41/41/41 42/42/42
f 43/43/43 44/44/44 45/45/45
f 46/46/46 47/47/47 48/48/48
f 49/49/49 50/50/50 51/51/51
f 52/52/52 53/53/53 54/54/54
f 55/55/55 56/56/56 57/57/57
f 58/58/58 59/59/59 60/60/60
f 61/61/61 62/62/62 63/63/63
f 64/64/64 65/65/65 66/66/66
f 67/67/67 68/68/68 69/69/69
f 70/70/70 71/71/71 72/72/72
f 73/73/73 74/74/74 75/75/75
f 76/76/76 77/77/77 78/78/78
f 79/79/79 80/80/80 81/81/81
f 82/82/82 83/83/83 84/84/84
f 85/85/85 86/86/86 87/87/87
f 88/88/88 89/89/89 90/90/90
f 91/91/91 92/92/92 93/93/93
f 94/94/94 95/95/95 96/96/96
f 97/97/97 98/98/98 99/99/99
f 100/100/100 101/101/101 102/102/102
f 103/103/103 104/104/104 105/105/105
f 106/106/106 107/107/107 108/108/108
f 109/109/109 110/110/110 111/111/111
f 112/112/112 113/113/113 114/114/114
f 115/115/115 116/116/116 117/117/117
f 118/118/118 119/119/119 120/120/120
f 121/121/121 122/122/122 123/123/123
f 124/124/124 125/125/125 126/126/126
f 127/127/127 128/128/128 129/129/129
f 130/130/130 131/131/131 132/132/132
