# Obsidian West — joint-local part geometry, +Y up, +Z forward
mtllib materials.mtl
o L_Wing_Hand
v -0.010000 0.490000 0.030000
v -0.187892 0.445436 0.030000
v -0.135789 0.445436 0.177265
v -0.010000 0.490000 0.030000
v -0.135789 0.445436 0.177265
v -0.010000 0.445436 0.238264
v -0.010000 0.490000 0.030000
v -0.010000 0.445436 0.238264
v 0.115789 0.445436 0.177265
v -0.010000 0.490000 0.030000
v 0.115789 0.445436 0.177265
v 0.167892 0.445436 0.030000
v -0.010000 0.490000 0.030000
v 0.167892 0.445436 0.030000
v 0.115789 0.445436 -0.117265
v -0.010000 0.490000 0.030000
v 0.115789 0.445436 -0.117265
v -0.010000 0.445436 -0.178264
v -0.010000 0.490000 0.030000
v -0.010000 0.445436 -0.178264
v -0.135789 0.445436 -0.117265
v -0.010000 0.490000 0.030000
v -0.135789 0.445436 -0.117265
v -0.187892 0.445436 0.030000
v -0.135789 0.445436 0.177265
v -0.187892 0.445436 0.030000
v -0.236664 0.320570 0.295362
v -0.187892 0.445436 0.030000
v -0.330551 0.320570 0.030000
v -0.236664 0.320570 0.295362
v -0.010000 0.445436 0.238264
v -0.135789 0.445436 0.177265
v -0.010000 0.320570 0.405279
v -0.135789 0.445436 0.177265
v -0.236664 0.320570 0.295362
v -0.010000 0.320570 0.405279
v 0.115789 0.445436 0.177265
v -0.010000 0.445436 0.238264
v 0.216664 0.320570 0.295362
v -0.010000 0.445436 0.238264
v -0.010000 0.320570 0.405279
v 0.216664 0.320570 0.295362
v 0.167892 0.445436 0.030000
v 0.115789 0.445436 0.177265
v 0.310551 0.320570 0.030000
v 0.115789 0.445436 0.177265
v 0.216664 0.320570 0.295362
v 0.310551 0.320570 0.030000
v 0.115789 0.445436 -0.117265
v 0.167892 0.445436 0.030000
v 0.216664 0.320570 -0.235362
v 0.167892 0.445436 0.030000
v 0.310551 0.320570 0.030000
v 0.216664 0.320570 -0.235362
v -0.010000 0.445436 -0.178264
v 0.115789 0.445436 -0.117265
v -0.010000 0.320570 -0.345279
v 0.115789 0.445436 -0.117265
v 0.216664 0.320570 -0.235362
v -0.010000 0.320570 -0.345279
v -0.135789 0.445436 -0.117265
v -0.010000 0.445436 -0.178264
v -0.236664 0.320570 -0.235362
v -0.010000 0.445436 -0.178264
v -0.010000 0.320570 -0.345279
v -0.236664 0.320570 -0.235362
v -0.187892 0.445436 0.030000
v -0.135789 0.445436 -0.117265
v -0.330551 0.320570 0.030000
v -0.135789 0.445436 -0.117265
v -0.236664 0.320570 -0.235362
v -0.330551 0.320570 0.030000
v -0.236664 0.320570 0.295362
v -0.330551 0.320570 0.030000
v -0.292645 0.140134 0.360902
v -0.330551 0.320570 0.030000
v -0.409720 0.140134 0.030000
v -0.292645 0.140134 0.360902
v -0.010000 0.320570 0.405279
v -0.236664 0.320570 0.295362
v -0.010000 0.140134 0.497965
v -0.236664 0.320570 0.295362
v -0.292645 0.140134 0.360902
v -0.010000 0.140134 0.497965
v 0.216664 0.320570 0.295362
v -0.010000 0.320570 0.405279
v 0.272645 0.140134 0.360902
v -0.010000 0.320570 0.405279
v -0.010000 0.140134 0.497965
v 0.272645 0.140134 0.360902
v 0.310551 0.320570 0.030000
v 0.216664 0.320570 0.295362
v 0.389720 0.140134 0.030000
v 0.216664 0.320570 0.295362
v 0.272645 0.140134 0.360902
v 0.389720 0.140134 0.030000
v 0.216664 0.320570 -0.235362
v 0.310551 0.320570 0.030000
v 0.272645 0.140134 -0.300902
v 0.310551 0.320570 0.030000
v 0.389720 0.140134 0.030000
v 0.272645 0.140134 -0.300902
v -0.010000 0.320570 -0.345279
v 0.216664 0.320570 -0.235362
v -0.010000 0.140134 -0.437965
v 0.216664 0.320570 -0.235362
v 0.272645 0.140134 -0.300902
v -0.010000 0.140134 -0.437965
v -0.236664 0.320570 -0.235362
v -0.010000 0.320570 -0.345279
v -0.292645 0.140134 -0.300902
v -0.010000 0.320570 -0.345279
v -0.010000 0.140134 -0.437965
v -0.292645 0.140134 -0.300902
v -0.330551 0.320570 0.030000
v -0.236664 0.320570 -0.235362
v -0.409720 0.140134 0.030000
v -0.236664 0.320570 -0.235362
v -0.292645 0.140134 -0.300902
v -0.409720 0.140134 0.030000
v -0.292645 0.140134 0.360902
v -0.409720 0.140134 0.030000
v -0.292645 -0.060135 0.360902
v -0.409720 0.140134 0.030000
v -0.409720 -0.060135 0.030000
v -0.292645 -0.060135 0.360902
v -0.010000 0.140134 0.497965
v -0.292645 0.140134 0.360902
v -0.010000 -0.060135 0.497965
v -0.292645 0.140134 0.360902
v -0.292645 -0.060135 0.360902
v -0.010000 -0.060135 0.497965
v 0.272645 0.140134 0.360902
v -0.010000 0.140134 0.497965
v 0.272645 -0.060135 0.360902
v -0.010000 0.140134 0.497965
v -0.010000 -0.060135 0.497965
v 0.272645 -0.060135 0.360902
v 0.389720 0.140134 0.030000
v 0.272645 0.140134 0.360902
v 0.389720 -0.060135 0.030000
v 0.272645 0.140134 0.360902
v 0.272645 -0.060135 0.360902
v 0.389720 -0.060135 0.030000
v 0.272645 0.140134 -0.300902
v 0.389720 0.140134 0.030000
v 0.272645 -0.060135 -0.300902
v 0.389720 0.140134 0.030000
v 0.389720 -0.060135 0.030000
v 0.272645 -0.060135 -0.300902
v -0.010000 0.140134 -0.437965
v 0.272645 0.140134 -0.300902
v -0.010000 -0.060135 -0.437965
v 0.272645 0.140134 -0.300902
v 0.272645 -0.060135 -0.300902
v -0.010000 -0.060135 -0.437965
v -0.292645 0.140134 -0.300902
v -0.010000 0.140134 -0.437965
v -0.292645 -0.060135 -0.300902
v -0.010000 0.140134 -0.437965
v -0.010000 -0.060135 -0.437965
v -0.292645 -0.060135 -0.300902
v -0.409720 0.140134 0.030000
v -0.292645 0.140134 -0.300902
v -0.409720 -0.060135 0.030000
v -0.292645 0.140134 -0.300902
v -0.292645 -0.060135 -0.300902
v -0.409720 -0.060135 0.030000
v -0.292645 -0.060135 0.360902
v -0.409720 -0.060135 0.030000
v -0.236664 -0.240570 0.295362
v -0.409720 -0.060135 0.030000
v -0.330551 -0.240570 0.030000
v -0.236664 -0.240570 0.295362
v -0.010000 -0.060135 0.497965
v -0.292645 -0.060135 0.360902
v -0.010000 -0.240570 0.405279
v -0.292645 -0.060135 0.360902
v -0.236664 -0.240570 0.295362
v -0.010000 -0.240570 0.405279
v 0.272645 -0.060135 0.360902
v -0.010000 -0.060135 0.497965
v 0.216664 -0.240570 0.295362
v -0.010000 -0.060135 0.497965
v -0.010000 -0.240570 0.405279
v 0.216664 -0.240570 0.295362
v 0.389720 -0.060135 0.030000
v 0.272645 -0.060135 0.360902
v 0.310551 -0.240570 0.030000
v 0.272645 -0.060135 0.360902
v 0.216664 -0.240570 0.295362
v 0.310551 -0.240570 0.030000
v 0.272645 -0.060135 -0.300902
v 0.389720 -0.060135 0.030000
v 0.216664 -0.240570 -0.235362
v 0.389720 -0.060135 0.030000
v 0.310551 -0.240570 0.030000
v 0.216664 -0.240570 -0.235362
v -0.010000 -0.060135 -0.437965
v 0.272645 -0.060135 -0.300902
v -0.010000 -0.240570 -0.345279
v 0.272645 -0.060135 -0.300902
v 0.216664 -0.240570 -0.235362
v -0.010000 -0.240570 -0.345279
v -0.292645 -0.060135 -0.300902
v -0.010000 -0.060135 -0.437965
v -0.236664 -0.240570 -0.235362
v -0.010000 -0.060135 -0.437965
v -0.010000 -0.240570 -0.345279
v -0.236664 -0.240570 -0.235362
v -0.409720 -0.060135 0.030000
v -0.292645 -0.060135 -0.300902
v -0.330551 -0.240570 0.030000
v -0.292645 -0.060135 -0.300902
v -0.236664 -0.240570 -0.235362
v -0.330551 -0.240570 0.030000
v -0.236664 -0.240570 0.295362
v -0.330551 -0.240570 0.030000
v -0.135789 -0.365436 0.177265
v -0.330551 -0.240570 0.030000
v -0.187892 -0.365436 0.030000
v -0.135789 -0.365436 0.177265
v -0.010000 -0.240570 0.405279
v -0.236664 -0.240570 0.295362
v -0.010000 -0.365436 0.238264
v -0.236664 -0.240570 0.295362
v -0.135789 -0.365436 0.177265
v -0.010000 -0.365436 0.238264
v 0.216664 -0.240570 0.295362
v -0.010000 -0.240570 0.405279
v 0.115789 -0.365436 0.177265
v -0.010000 -0.240570 0.405279
v -0.010000 -0.365436 0.238264
v 0.115789 -0.365436 0.177265
v 0.310551 -0.240570 0.030000
v 0.216664 -0.240570 0.295362
v 0.167892 -0.365436 0.030000
v 0.216664 -0.240570 0.295362
v 0.115789 -0.365436 0.177265
v 0.167892 -0.365436 0.030000
v 0.216664 -0.240570 -0.235362
v 0.310551 -0.240570 0.030000
v 0.115789 -0.365436 -0.117265
v 0.310551 -0.240570 0.030000
v 0.167892 -0.365436 0.030000
v 0.115789 -0.365436 -0.117265
v -0.010000 -0.240570 -0.345279
v 0.216664 -0.240570 -0.235362
v -0.010000 -0.365436 -0.178264
v 0.216664 -0.240570 -0.235362
v 0.115789 -0.365436 -0.117265
v -0.010000 -0.365436 -0.178264
v -0.236664 -0.240570 -0.235362
v -0.010000 -0.240570 -0.345279
v -0.135789 -0.365436 -0.117265
v -0.010000 -0.240570 -0.345279
v -0.010000 -0.365436 -0.178264
v -0.135789 -0.365436 -0.117265
v -0.330551 -0.240570 0.030000
v -0.236664 -0.240570 -0.235362
v -0.187892 -0.365436 0.030000
v -0.236664 -0.240570 -0.235362
v -0.135789 -0.365436 -0.117265
v -0.187892 -0.365436 0.030000
v -0.135789 -0.365436 0.177265
v -0.187892 -0.365436 0.030000
v -0.010000 -0.410000 0.030000
v -0.010000 -0.365436 0.238264
v -0.135789 -0.365436 0.177265
v -0.010000 -0.410000 0.030000
v 0.115789 -0.365436 0.177265
v -0.010000 -0.365436 0.238264
v -0.010000 -0.410000 0.030000
v 0.167892 -0.365436 0.030000
v 0.115789 -0.365436 0.177265
v -0.010000 -0.410000 0.030000
v 0.115789 -0.365436 -0.117265
v 0.167892 -0.365436 0.030000
v -0.010000 -0.410000 0.030000
v -0.010000 -0.365436 -0.178264
v 0.115789 -0.365436 -0.117265
v -0.010000 -0.410000 0.030000
v -0.135789 -0.365436 -0.117265
v -0.010000 -0.365436 -0.178264
v -0.010000 -0.410000 0.030000
v -0.187892 -0.365436 0.030000
v -0.135789 -0.365436 -0.117265
v -0.010000 -0.410000 0.030000
v 0.422483 0.140000 0.219995
v 0.399426 0.169384 0.077281
v 0.358407 0.740000 0.321062
v 0.399426 0.169384 0.077281
v 0.321113 0.787740 0.215756
v 0.358407 0.740000 0.321062
v 0.399426 0.169384 0.077281
v 0.271379 0.176642 0.004386
v 0.321113 0.787740 0.215756
v 0.271379 0.176642 0.004386
v 0.207680 0.799530 0.173888
v 0.321113 0.787740 0.215756
v 0.271379 0.176642 0.004386
v 0.134764 0.156307 0.056202
v 0.207680 0.799530 0.173888
v 0.134764 0.156307 0.056202
v 0.103523 0.766494 0.226984
v 0.207680 0.799530 0.173888
v 0.134764 0.156307 0.056202
v 0.092453 0.123693 0.193710
v 0.103523 0.766494 0.226984
v 0.092453 0.123693 0.193710
v 0.087076 0.713507 0.335063
v 0.103523 0.766494 0.226984
v 0.092453 0.123693 0.193710
v 0.176309 0.103359 0.313364
v 0.087076 0.713507 0.335063
v 0.176309 0.103359 0.313364
v 0.170724 0.680469 0.416739
v 0.087076 0.713507 0.335063
v 0.176309 0.103359 0.313364
v 0.323186 0.110616 0.325062
v 0.170724 0.680469 0.416739
v 0.323186 0.110616 0.325062
v 0.291477 0.692260 0.410508
v 0.170724 0.680469 0.416739
v 0.323186 0.110616 0.325062
v 0.422483 0.140000 0.219995
v 0.291477 0.692260 0.410508
v 0.422483 0.140000 0.219995
v 0.358407 0.740000 0.321062
v 0.291477 0.692260 0.410508
v 0.358407 0.740000 0.321062
v 0.321113 0.787740 0.215756
v 0.289589 1.100000 0.639054
v 0.321113 0.787740 0.215756
v 0.257301 1.152948 0.578356
v 0.289589 1.100000 0.639054
v 0.321113 0.787740 0.215756
v 0.207680 0.799530 0.173888
v 0.257301 1.152948 0.578356
v 0.207680 0.799530 0.173888
v 0.174334 1.166026 0.556548
v 0.257301 1.152948 0.578356
v 0.207680 0.799530 0.173888
v 0.103523 0.766494 0.226984
v 0.174334 1.166026 0.556548
v 0.103523 0.766494 0.226984
v 0.103163 1.129384 0.590050
v 0.174334 1.166026 0.556548
v 0.103523 0.766494 0.226984
v 0.087076 0.713507 0.335063
v 0.103163 1.129384 0.590050
v 0.087076 0.713507 0.335063
v 0.097383 1.070616 0.653636
v 0.103163 1.129384 0.590050
v 0.087076 0.713507 0.335063
v 0.170724 0.680469 0.416739
v 0.097383 1.070616 0.653636
v 0.170724 0.680469 0.416739
v 0.161345 1.033975 0.699423
v 0.097383 1.070616 0.653636
v 0.170724 0.680469 0.416739
v 0.291477 0.692260 0.410508
v 0.161345 1.033975 0.699423
v 0.291477 0.692260 0.410508
v 0.246885 1.047052 0.692933
v 0.161345 1.033975 0.699423
v 0.291477 0.692260 0.410508
v 0.358407 0.740000 0.321062
v 0.246885 1.047052 0.692933
v 0.358407 0.740000 0.321062
v 0.289589 1.100000 0.639054
v 0.246885 1.047052 0.692933
v 0.422483 0.140000 0.219995
v 0.271379 0.176642 0.004386
v 0.399426 0.169384 0.077281
v 0.289589 1.100000 0.639054
v 0.257301 1.152948 0.578356
v 0.174334 1.166026 0.556548
v 0.422483 0.140000 0.219995
v 0.134764 0.156307 0.056202
v 0.271379 0.176642 0.004386
v 0.289589 1.100000 0.639054
v 0.174334 1.166026 0.556548
v 0.103163 1.129384 0.590050
v 0.422483 0.140000 0.219995
v 0.092453 0.123693 0.193710
v 0.134764 0.156307 0.056202
v 0.289589 1.100000 0.639054
v 0.103163 1.129384 0.590050
v 0.097383 1.070616 0.653636
v 0.422483 0.140000 0.219995
v 0.176309 0.103359 0.313364
v 0.092453 0.123693 0.193710
v 0.289589 1.100000 0.639054
v 0.097383 1.070616 0.653636
v 0.161345 1.033975 0.699423
v 0.422483 0.140000 0.219995
v 0.323186 0.110616 0.325062
v 0.176309 0.103359 0.313364
v 0.289589 1.100000 0.639054
v 0.161345 1.033975 0.699423
v 0.246885 1.047052 0.692933
v 0.301942 1.100000 0.633611
v 0.225138 1.205160 0.614172
v 0.233705 1.150000 0.942441
v 0.225138 1.205160 0.614172
v 0.195126 1.189588 0.973078
v 0.233705 1.150000 0.942441
v 0.225138 1.205160 0.614172
v 0.099775 1.164993 0.616607
v 0.195126 1.189588 0.973078
v 0.099775 1.164993 0.616607
v 0.135644 1.174466 0.958002
v 0.195126 1.189588 0.973078
v 0.099775 1.164993 0.616607
v 0.099099 1.035007 0.637550
v 0.135644 1.174466 0.958002
v 0.099099 1.035007 0.637550
v 0.137460 1.125533 0.918048
v 0.135644 1.174466 0.958002
v 0.099099 1.035007 0.637550
v 0.224045 0.994840 0.648060
v 0.137460 1.125533 0.918048
v 0.224045 0.994840 0.648060
v 0.198065 1.110412 0.908431
v 0.137460 1.125533 0.918048
v 0.224045 0.994840 0.648060
v 0.301942 1.100000 0.633611
v 0.198065 1.110412 0.908431
v 0.301942 1.100000 0.633611
v 0.233705 1.150000 0.942441
v 0.198065 1.110412 0.908431
v 0.233705 1.150000 0.942441
v 0.195126 1.189588 0.973078
v 0.178973 0.740000 1.070690
v 0.195126 1.189588 0.973078
v 0.172147 0.742594 1.078346
v 0.178973 0.740000 1.070690
v 0.195126 1.189588 0.973078
v 0.135644 1.174466 0.958002
v 0.172147 0.742594 1.078346
v 0.135644 1.174466 0.958002
v 0.162354 0.741603 1.074468
v 0.172147 0.742594 1.078346
v 0.135644 1.174466 0.958002
v 0.137460 1.125533 0.918048
v 0.162354 0.741603 1.074468
v 0.137460 1.125533 0.918048
v 0.163127 0.738397 1.064415
v 0.162354 0.741603 1.074468
v 0.137460 1.125533 0.918048
v 0.198065 1.110412 0.908431
v 0.163127 0.738397 1.064415
v 0.198065 1.110412 0.908431
v 0.173399 0.737406 1.062080
v 0.163127 0.738397 1.064415
v 0.198065 1.110412 0.908431
v 0.233705 1.150000 0.942441
v 0.173399 0.737406 1.062080
v 0.233705 1.150000 0.942441
v 0.178973 0.740000 1.070690
v 0.173399 0.737406 1.062080
v 0.301942 1.100000 0.633611
v 0.099775 1.164993 0.616607
v 0.225138 1.205160 0.614172
v 0.178973 0.740000 1.070690
v 0.172147 0.742594 1.078346
v 0.162354 0.741603 1.074468
v 0.301942 1.100000 0.633611
v 0.099099 1.035007 0.637550
v 0.099775 1.164993 0.616607
v 0.178973 0.740000 1.070690
v 0.162354 0.741603 1.074468
v 0.163127 0.738397 1.064415
v 0.301942 1.100000 0.633611
v 0.224045 0.994840 0.648060
v 0.099099 1.035007 0.637550
v 0.178973 0.740000 1.070690
v 0.163127 0.738397 1.064415
v 0.173399 0.737406 1.062080
v 0.162483 0.140000 0.219995
v 0.139676 0.165351 0.076469
v 0.098407 0.840000 0.321062
v 0.139676 0.165351 0.076469
v 0.061277 0.885428 0.214681
v 0.098407 0.840000 0.321062
v 0.139676 0.165351 0.076469
v 0.011690 0.171613 0.003375
v 0.061277 0.885428 0.214681
v 0.011690 0.171613 0.003375
v -0.052117 0.896647 0.172547
v 0.061277 0.885428 0.214681
v 0.011690 0.171613 0.003375
v -0.125098 0.154069 0.055752
v -0.052117 0.896647 0.172547
v -0.125098 0.154069 0.055752
v -0.156386 0.865210 0.226388
v -0.052117 0.896647 0.172547
v -0.125098 0.154069 0.055752
v -0.167685 0.125931 0.194161
v -0.156386 0.865210 0.226388
v -0.167685 0.125931 0.194161
v -0.173014 0.814790 0.335660
v -0.156386 0.865210 0.226388
v -0.167685 0.125931 0.194161
v -0.084002 0.108387 0.314376
v -0.173014 0.814790 0.335660
v -0.084002 0.108387 0.314376
v -0.089480 0.783353 0.418080
v -0.173014 0.814790 0.335660
v -0.084002 0.108387 0.314376
v 0.062936 0.114649 0.325873
v -0.089480 0.783353 0.418080
v 0.062936 0.114649 0.325873
v 0.031313 0.794572 0.411583
v -0.089480 0.783353 0.418080
v 0.062936 0.114649 0.325873
v 0.162483 0.140000 0.219995
v 0.031313 0.794572 0.411583
v 0.162483 0.140000 0.219995
v 0.098407 0.840000 0.321062
v 0.031313 0.794572 0.411583
v 0.098407 0.840000 0.321062
v 0.061277 0.885428 0.214681
v 0.029589 1.160000 0.639054
v 0.061277 0.885428 0.214681
v -0.002990 1.216239 0.581556
v 0.029589 1.160000 0.639054
v 0.061277 0.885428 0.214681
v -0.052117 0.896647 0.172547
v -0.002990 1.216239 0.581556
v -0.052117 0.896647 0.172547
v -0.086029 1.230130 0.560538
v -0.002990 1.216239 0.581556
v -0.052117 0.896647 0.172547
v -0.156386 0.865210 0.226388
v -0.086029 1.230130 0.560538
v -0.156386 0.865210 0.226388
v -0.156998 1.191211 0.591826
v -0.086029 1.230130 0.560538
v -0.156386 0.865210 0.226388
v -0.173014 0.814790 0.335660
v -0.156998 1.191211 0.591826
v -0.173014 0.814790 0.335660
v -0.162456 1.128789 0.651860
v -0.156998 1.191211 0.591826
v -0.173014 0.814790 0.335660
v -0.089480 0.783353 0.418080
v -0.162456 1.128789 0.651860
v -0.089480 0.783353 0.418080
v -0.098292 1.089870 0.695432
v -0.162456 1.128789 0.651860
v -0.089480 0.783353 0.418080
v 0.031313 0.794572 0.411583
v -0.098292 1.089870 0.695432
v 0.031313 0.794572 0.411583
v -0.012824 1.103761 0.689733
v -0.098292 1.089870 0.695432
v 0.031313 0.794572 0.411583
v 0.098407 0.840000 0.321062
v -0.012824 1.103761 0.689733
v 0.098407 0.840000 0.321062
v 0.029589 1.160000 0.639054
v -0.012824 1.103761 0.689733
v 0.162483 0.140000 0.219995
v 0.011690 0.171613 0.003375
v 0.139676 0.165351 0.076469
v 0.029589 1.160000 0.639054
v -0.002990 1.216239 0.581556
v -0.086029 1.230130 0.560538
v 0.162483 0.140000 0.219995
v -0.125098 0.154069 0.055752
v 0.011690 0.171613 0.003375
v 0.029589 1.160000 0.639054
v -0.086029 1.230130 0.560538
v -0.156998 1.191211 0.591826
v 0.162483 0.140000 0.219995
v -0.167685 0.125931 0.194161
v -0.125098 0.154069 0.055752
v 0.029589 1.160000 0.639054
v -0.156998 1.191211 0.591826
v -0.162456 1.128789 0.651860
v 0.162483 0.140000 0.219995
v -0.084002 0.108387 0.314376
v -0.167685 0.125931 0.194161
v 0.029589 1.160000 0.639054
v -0.162456 1.128789 0.651860
v -0.098292 1.089870 0.695432
v 0.162483 0.140000 0.219995
v 0.062936 0.114649 0.325873
v -0.084002 0.108387 0.314376
v 0.029589 1.160000 0.639054
v -0.098292 1.089870 0.695432
v -0.012824 1.103761 0.689733
v 0.041942 1.160000 0.633611
v -0.035078 1.266024 0.620866
v -0.026295 1.190000 0.942441
v -0.035078 1.266024 0.620866
v -0.064921 1.228712 0.974119
v -0.026295 1.190000 0.942441
v -0.035078 1.266024 0.620866
v -0.160358 1.225526 0.620744
v -0.064921 1.228712 0.974119
v -0.160358 1.225526 0.620744
v -0.124385 1.213926 0.958645
v -0.064921 1.228712 0.974119
v -0.160358 1.225526 0.620744
v -0.160767 1.094474 0.633413
v -0.124385 1.213926 0.958645
v -0.160767 1.094474 0.633413
v -0.122511 1.166074 0.917405
v -0.124385 1.213926 0.958645
v -0.160767 1.094474 0.633413
v -0.035739 1.053976 0.641366
v -0.122511 1.166074 0.917405
v -0.035739 1.053976 0.641366
v -0.061888 1.151287 0.907390
v -0.122511 1.166074 0.917405
v -0.035739 1.053976 0.641366
v 0.041942 1.160000 0.633611
v -0.061888 1.151287 0.907390
v 0.041942 1.160000 0.633611
v -0.026295 1.190000 0.942441
v -0.061888 1.151287 0.907390
v -0.026295 1.190000 0.942441
v -0.064921 1.228712 0.974119
v -0.081027 0.780000 1.070690
v -0.064921 1.228712 0.974119
v -0.087853 0.782594 1.078346
v -0.081027 0.780000 1.070690
v -0.064921 1.228712 0.974119
v -0.124385 1.213926 0.958645
v -0.087853 0.782594 1.078346
v -0.124385 1.213926 0.958645
v -0.097646 0.781603 1.074468
v -0.087853 0.782594 1.078346
v -0.124385 1.213926 0.958645
v -0.122511 1.166074 0.917405
v -0.097646 0.781603 1.074468
v -0.122511 1.166074 0.917405
v -0.096873 0.778397 1.064415
v -0.097646 0.781603 1.074468
v -0.122511 1.166074 0.917405
v -0.061888 1.151287 0.907390
v -0.096873 0.778397 1.064415
v -0.061888 1.151287 0.907390
v -0.086601 0.777406 1.062080
v -0.096873 0.778397 1.064415
v -0.061888 1.151287 0.907390
v -0.026295 1.190000 0.942441
v -0.086601 0.777406 1.062080
v -0.026295 1.190000 0.942441
v -0.081027 0.780000 1.070690
v -0.086601 0.777406 1.062080
v 0.041942 1.160000 0.633611
v -0.160358 1.225526 0.620744
v -0.035078 1.266024 0.620866
v -0.081027 0.780000 1.070690
v -0.087853 0.782594 1.078346
v -0.097646 0.781603 1.074468
v 0.041942 1.160000 0.633611
v -0.160767 1.094474 0.633413
v -0.160358 1.225526 0.620744
v -0.081027 0.780000 1.070690
v -0.097646 0.781603 1.074468
v -0.096873 0.778397 1.064415
v 0.041942 1.160000 0.633611
v -0.035739 1.053976 0.641366
v -0.160767 1.094474 0.633413
v -0.081027 0.780000 1.070690
v -0.096873 0.778397 1.064415
v -0.086601 0.777406 1.062080
v -0.097518 0.140000 0.219995
v -0.120160 0.162278 0.075934
v -0.161593 0.940000 0.321062
v -0.120160 0.162278 0.075934
v -0.198582 0.983309 0.213752
v -0.161593 0.940000 0.321062
v -0.120160 0.162278 0.075934
v -0.248104 0.167780 0.002708
v -0.198582 0.983309 0.213752
v -0.248104 0.167780 0.002708
v -0.311940 0.994005 0.171389
v -0.198582 0.983309 0.213752
v -0.248104 0.167780 0.002708
v -0.385007 0.152363 0.055455
v -0.311940 0.994005 0.171389
v -0.385007 0.152363 0.055455
v -0.416307 0.964034 0.225872
v -0.311940 0.994005 0.171389
v -0.385007 0.152363 0.055455
v -0.427777 0.127637 0.194458
v -0.416307 0.964034 0.225872
v -0.427777 0.127637 0.194458
v -0.433093 0.915965 0.336176
v -0.416307 0.964034 0.225872
v -0.427777 0.127637 0.194458
v -0.344207 0.112220 0.315043
v -0.433093 0.915965 0.336176
v -0.344207 0.112220 0.315043
v -0.349657 0.885995 0.419238
v -0.433093 0.915965 0.336176
v -0.344207 0.112220 0.315043
v -0.197228 0.117722 0.326408
v -0.349657 0.885995 0.419238
v -0.197228 0.117722 0.326408
v -0.228828 0.896691 0.412512
v -0.349657 0.885995 0.419238
v -0.197228 0.117722 0.326408
v -0.097518 0.140000 0.219995
v -0.228828 0.896691 0.412512
v -0.097518 0.140000 0.219995
v -0.161593 0.940000 0.321062
v -0.228828 0.896691 0.412512
v -0.161593 0.940000 0.321062
v -0.198582 0.983309 0.213752
v -0.230411 1.220000 0.639054
v -0.198582 0.983309 0.213752
v -0.263339 1.279718 0.585390
v -0.230411 1.220000 0.639054
v -0.198582 0.983309 0.213752
v -0.311940 0.994005 0.171389
v -0.263339 1.279718 0.585390
v -0.311940 0.994005 0.171389
v -0.346464 1.294467 0.565319
v -0.263339 1.279718 0.585390
v -0.311940 0.994005 0.171389
v -0.416307 0.964034 0.225872
v -0.346464 1.294467 0.565319
v -0.416307 0.964034 0.225872
v -0.417191 1.253141 0.593954
v -0.346464 1.294467 0.565319
v -0.416307 0.964034 0.225872
v -0.433093 0.915965 0.336176
v -0.417191 1.253141 0.593954
v -0.433093 0.915965 0.336176
v -0.422262 1.186859 0.649732
v -0.417191 1.253141 0.593954
v -0.433093 0.915965 0.336176
v -0.349657 0.885995 0.419238
v -0.422262 1.186859 0.649732
v -0.349657 0.885995 0.419238
v -0.357858 1.145533 0.690652
v -0.422262 1.186859 0.649732
v -0.349657 0.885995 0.419238
v -0.228828 0.896691 0.412512
v -0.357858 1.145533 0.690652
v -0.228828 0.896691 0.412512
v -0.272476 1.160282 0.685899
v -0.357858 1.145533 0.690652
v -0.228828 0.896691 0.412512
v -0.161593 0.940000 0.321062
v -0.272476 1.160282 0.685899
v -0.161593 0.940000 0.321062
v -0.230411 1.220000 0.639054
v -0.272476 1.160282 0.685899
v -0.097518 0.140000 0.219995
v -0.248104 0.167780 0.002708
v -0.120160 0.162278 0.075934
v -0.230411 1.220000 0.639054
v -0.263339 1.279718 0.585390
v -0.346464 1.294467 0.565319
v -0.097518 0.140000 0.219995
v -0.385007 0.152363 0.055455
v -0.248104 0.167780 0.002708
v -0.230411 1.220000 0.639054
v -0.346464 1.294467 0.565319
v -0.417191 1.253141 0.593954
v -0.097518 0.140000 0.219995
v -0.427777 0.127637 0.194458
v -0.385007 0.152363 0.055455
v -0.230411 1.220000 0.639054
v -0.417191 1.253141 0.593954
v -0.422262 1.186859 0.649732
v -0.097518 0.140000 0.219995
v -0.344207 0.112220 0.315043
v -0.427777 0.127637 0.194458
v -0.230411 1.220000 0.639054
v -0.422262 1.186859 0.649732
v -0.357858 1.145533 0.690652
v -0.097518 0.140000 0.219995
v -0.197228 0.117722 0.326408
v -0.344207 0.112220 0.315043
v -0.230411 1.220000 0.639054
v -0.357858 1.145533 0.690652
v -0.272476 1.160282 0.685899
v -0.218058 1.220000 0.633611
v -0.295297 1.326463 0.627685
v -0.286295 1.230000 0.942441
v -0.295297 1.326463 0.627685
v -0.324965 1.267850 0.975092
v -0.286295 1.230000 0.942441
v -0.295297 1.326463 0.627685
v -0.420494 1.285798 0.624958
v -0.324965 1.267850 0.975092
v -0.420494 1.285798 0.624958
v -0.384412 1.253393 0.959247
v -0.324965 1.267850 0.975092
v -0.420494 1.285798 0.624958
v -0.420631 1.154202 0.629199
v -0.384412 1.253393 0.959247
v -0.420631 1.154202 0.629199
v -0.382483 1.206608 0.916803
v -0.384412 1.253393 0.959247
v -0.420631 1.154202 0.629199
v -0.295519 1.113537 0.634547
v -0.382483 1.206608 0.916803
v -0.295519 1.113537 0.634547
v -0.321844 1.192150 0.906416
v -0.382483 1.206608 0.916803
v -0.295519 1.113537 0.634547
v -0.218058 1.220000 0.633611
v -0.321844 1.192150 0.906416
v -0.218058 1.220000 0.633611
v -0.286295 1.230000 0.942441
v -0.321844 1.192150 0.906416
v -0.286295 1.230000 0.942441
v -0.324965 1.267850 0.975092
v -0.341026 0.820000 1.070690
v -0.324965 1.267850 0.975092
v -0.347853 0.822594 1.078346
v -0.341026 0.820000 1.070690
v -0.324965 1.267850 0.975092
v -0.384412 1.253393 0.959247
v -0.347853 0.822594 1.078346
v -0.384412 1.253393 0.959247
v -0.357646 0.821603 1.074468
v -0.347853 0.822594 1.078346
v -0.384412 1.253393 0.959247
v -0.382483 1.206608 0.916803
v -0.357646 0.821603 1.074468
v -0.382483 1.206608 0.916803
v -0.356873 0.818397 1.064415
v -0.357646 0.821603 1.074468
v -0.382483 1.206608 0.916803
v -0.321844 1.192150 0.906416
v -0.356873 0.818397 1.064415
v -0.321844 1.192150 0.906416
v -0.346601 0.817406 1.062080
v -0.356873 0.818397 1.064415
v -0.321844 1.192150 0.906416
v -0.286295 1.230000 0.942441
v -0.346601 0.817406 1.062080
v -0.286295 1.230000 0.942441
v -0.341026 0.820000 1.070690
v -0.346601 0.817406 1.062080
v -0.218058 1.220000 0.633611
v -0.420494 1.285798 0.624958
v -0.295297 1.326463 0.627685
v -0.341026 0.820000 1.070690
v -0.347853 0.822594 1.078346
v -0.357646 0.821603 1.074468
v -0.218058 1.220000 0.633611
v -0.420631 1.154202 0.629199
v -0.420494 1.285798 0.624958
v -0.341026 0.820000 1.070690
v -0.357646 0.821603 1.074468
v -0.356873 0.818397 1.064415
v -0.218058 1.220000 0.633611
v -0.295519 1.113537 0.634547
v -0.420631 1.154202 0.629199
v -0.341026 0.820000 1.070690
v -0.356873 0.818397 1.064415
v -0.346601 0.817406 1.062080
vt 0.120000 0.880000
vt 0.213333 0.880000
vt 0.166667 0.786667
vt 0.120000 0.880000
vt 0.213333 0.880000
vt 0.166667 0.786667
vt 0.120000 0.880000
vt 0.213333 0.880000
vt 0.166667 0.786667
vt 0.120000 0.880000
vt 0.213333 0.880000
vt 0.166667 0.786667
vt 0.120000 0.880000
vt 0.213333 0.880000
vt 0.166667 0.786667
vt 0.120000 0.880000
vt 0.213333 0.880000
vt 0.166667 0.786667
vt 0.120000 0.880000
vt 0.213333 0.880000
vt 0.166667 0.786667
vt 0.120000 0.880000
vt 0.213333 0.880000
vt 0.166667 0.786667
vt 0.120000 0.880000
vt 0.213333 0.880000
vt 0.166667 0.786667
vt 0.120000 0.880000
vt 0.213333 0.880000
vt 0.166667 0.786667
vt 0.120000 0.880000
vt 0.213333 0.880000
vt 0.166667 0.786667
vt 0.120000 0.880000
vt 0.213333 0.880000
vt 0.166667 0.786667
vt 0.120000 0.880000
vt 0.213333 0.880000
vt 0.166667 0.786667
vt 0.120000 0.880000
vt 0.213333 0.880000
vt 0.166667 0.786667
vt 0.120000 0.880000
vt 0.213333 0.880000
vt 0.166667 0.786667
vt 0.120000 0.880000
vt 0.213333 0.880000
vt 0.166667 0.786667
vt 0.120000 0.880000
vt 0.213333 0.880000
vt 0.166667 0.786667
vt 0.120000 0.880000
vt 0.213333 0.880000
vt 0.166667 0.786667
vt 0.120000 0.880000
vt 0.213333 0.880000
vt 0.166667 0.786667
vt 0.120000 0.880000
vt 0.213333 0.880000
vt 0.166667 0.786667
vt 0.120000 0.880000
vt 0.213333 0.880000
vt 0.166667 0.786667
vt 0.120000 0.880000
vt 0.213333 0.880000
vt 0.166667 0.786667
vt 0.120000 0.880000
vt 0.213333 0.880000
vt 0.166667 0.786667
vt 0.120000 0.880000
vt 0.213333 0.880000
vt 0.166667 0.786667
vt 0.120000 0.880000
vt 0.213333 0.880000
vt 0.166667 0.786667
vt 0.120000 0.880000
vt 0.213333 0.880000
vt 0.166667 0.786667
vt 0.120000 0.880000
vt 0.213333 0.880000
vt 0.166667 0.786667
vt 0.120000 0.880000
vt 0.213333 0.880000
vt 0.166667 0.786667
vt 0.120000 0.880000
vt 0.213333 0.880000
vt 0.166667 0.786667
vt 0.120000 0.880000
vt 0.213333 0.880000
vt 0.166667 0.786667
vt 0.120000 0.880000
vt 0.213333 0.880000
vt 0.166667 0.786667
vt 0.120000 0.880000
vt 0.213333 0.880000
vt 0.166667 0.786667
vt 0.120000 0.880000
vt 0.213333 0.880000
vt 0.166667 0.786667
vt 0.120000 0.880000
vt 0.213333 0.880000
vt 0.166667 0.786667
vt 0.120000 0.880000
vt 0.213333 0.880000
vt 0.166667 0.786667
vt 0.120000 0.880000
vt 0.213333 0.880000
vt 0.166667 0.786667
vt 0.120000 0.880000
vt 0.213333 0.880000
vt 0.166667 0.786667
vt 0.120000 0.880000
vt 0.213333 0.880000
vt 0.166667 0.786667
vt 0.120000 0.880000
vt 0.213333 0.880000
vt 0.166667 0.786667
vt 0.120000 0.880000
vt 0.213333 0.880000
vt 0.166667 0.786667
vt 0.120000 0.880000
vt 0.213333 0.880000
vt 0.166667 0.786667
vt 0.120000 0.880000
vt 0.213333 0.880000
vt 0.166667 0.786667
vt 0.120000 0.880000
vt 0.213333 0.880000
vt 0.166667 0.786667
vt 0.120000 0.880000
vt 0.213333 0.880000
vt 0.166667 0.786667
vt 0.120000 0.880000
vt 0.213333 0.880000
vt 0.166667 0.786667
vt 0.120000 0.880000
vt 0.213333 0.880000
vt 0.166667 0.786667
vt 0.120000 0.880000
vt 0.213333 0.880000
vt 0.166667 0.786667
vt 0.120000 0.880000
vt 0.213333 0.880000
vt 0.166667 0.786667
vt 0.120000 0.880000
vt 0.213333 0.880000
vt 0.166667 0.786667
vt 0.120000 0.880000
vt 0.213333 0.880000
vt 0.166667 0.786667
vt 0.120000 0.880000
vt 0.213333 0.880000
vt 0.166667 0.786667
vt 0.120000 0.880000
vt 0.213333 0.880000
vt 0.166667 0.786667
vt 0.120000 0.880000
vt 0.213333 0.880000
vt 0.166667 0.786667
vt 0.120000 0.880000
vt 0.213333 0.880000
vt 0.166667 0.786667
vt 0.120000 0.880000
vt 0.213333 0.880000
vt 0.166667 0.786667
vt 0.120000 0.880000
vt 0.213333 0.880000
vt 0.166667 0.786667
vt 0.120000 0.880000
vt 0.213333 0.880000
vt 0.166667 0.786667
vt 0.120000 0.880000
vt 0.213333 0.880000
vt 0.166667 0.786667
vt 0.120000 0.880000
vt 0.213333 0.880000
vt 0.166667 0.786667
vt 0.120000 0.880000
vt 0.213333 0.880000
vt 0.166667 0.786667
vt 0.120000 0.880000
vt 0.213333 0.880000
vt 0.166667 0.786667
vt 0.120000 0.880000
vt 0.213333 0.880000
vt 0.166667 0.786667
vt 0.120000 0.880000
vt 0.213333 0.880000
vt 0.166667 0.786667
vt 0.120000 0.880000
vt 0.213333 0.880000
vt 0.166667 0.786667
vt 0.120000 0.880000
vt 0.213333 0.880000
vt 0.166667 0.786667
vt 0.120000 0.880000
vt 0.213333 0.880000
vt 0.166667 0.786667
vt 0.120000 0.880000
vt 0.213333 0.880000
vt 0.166667 0.786667
vt 0.120000 0.880000
vt 0.213333 0.880000
vt 0.166667 0.786667
vt 0.120000 0.880000
vt 0.213333 0.880000
vt 0.166667 0.786667
vt 0.120000 0.880000
vt 0.213333 0.880000
vt 0.166667 0.786667
vt 0.120000 0.880000
vt 0.213333 0.880000
vt 0.166667 0.786667
vt 0.120000 0.880000
vt 0.213333 0.880000
vt 0.166667 0.786667
vt 0.120000 0.880000
vt 0.213333 0.880000
vt 0.166667 0.786667
vt 0.120000 0.880000
vt 0.213333 0.880000
vt 0.166667 0.786667
vt 0.120000 0.880000
vt 0.213333 0.880000
vt 0.166667 0.786667
vt 0.120000 0.880000
vt 0.213333 0.880000
vt 0.166667 0.786667
vt 0.120000 0.880000
vt 0.213333 0.880000
vt 0.166667 0.786667
vt 0.120000 0.880000
vt 0.213333 0.880000
vt 0.166667 0.786667
vt 0.120000 0.880000
vt 0.213333 0.880000
vt 0.166667 0.786667
vt 0.120000 0.880000
vt 0.213333 0.880000
vt 0.166667 0.786667
vt 0.120000 0.880000
vt 0.213333 0.880000
vt 0.166667 0.786667
vt 0.120000 0.880000
vt 0.213333 0.880000
vt 0.166667 0.786667
vt 0.120000 0.880000
vt 0.213333 0.880000
vt 0.166667 0.786667
vt 0.120000 0.880000
vt 0.213333 0.880000
vt 0.166667 0.786667
vt 0.120000 0.880000
vt 0.213333 0.880000
vt 0.166667 0.786667
vt 0.120000 0.880000
vt 0.213333 0.880000
vt 0.166667 0.786667
vt 0.120000 0.880000
vt 0.213333 0.880000
vt 0.166667 0.786667
vt 0.120000 0.880000
vt 0.213333 0.880000
vt 0.166667 0.786667
vt 0.120000 0.880000
vt 0.213333 0.880000
vt 0.166667 0.786667
vt 0.120000 0.880000
vt 0.213333 0.880000
vt 0.166667 0.786667
vt 0.120000 0.880000
vt 0.213333 0.880000
vt 0.166667 0.786667
vt 0.120000 0.880000
vt 0.213333 0.880000
vt 0.166667 0.786667
vt 0.120000 0.880000
vt 0.213333 0.880000
vt 0.166667 0.786667
vt 0.120000 0.880000
vt 0.213333 0.880000
vt 0.166667 0.786667
vt 0.120000 0.880000
vt 0.213333 0.880000
vt 0.166667 0.786667
vt 0.120000 0.880000
vt 0.213333 0.880000
vt 0.166667 0.786667
vt 0.786667 0.880000
vt 0.880000 0.880000
vt 0.833333 0.786667
vt 0.786667 0.880000
vt 0.880000 0.880000
vt 0.833333 0.786667
vt 0.786667 0.880000
vt 0.880000 0.880000
vt 0.833333 0.786667
vt 0.786667 0.880000
vt 0.880000 0.880000
vt 0.833333 0.786667
vt 0.786667 0.880000
vt 0.880000 0.880000
vt 0.833333 0.786667
vt 0.786667 0.880000
vt 0.880000 0.880000
vt 0.833333 0.786667
vt 0.786667 0.880000
vt 0.880000 0.880000
vt 0.833333 0.786667
vt 0.786667 0.880000
vt 0.880000 0.880000
vt 0.833333 0.786667
vt 0.786667 0.880000
vt 0.880000 0.880000
vt 0.833333 0.786667
vt 0.786667 0.880000
vt 0.880000 0.880000
vt 0.833333 0.786667
vt 0.786667 0.880000
vt 0.880000 0.880000
vt 0.833333 0.786667
vt 0.786667 0.880000
vt 0.880000 0.880000
vt 0.833333 0.786667
vt 0.786667 0.880000
vt 0.880000 0.880000
vt 0.833333 0.786667
vt 0.786667 0.880000
vt 0.880000 0.880000
vt 0.833333 0.786667
vt 0.786667 0.880000
vt 0.880000 0.880000
vt 0.833333 0.786667
vt 0.786667 0.880000
vt 0.880000 0.880000
vt 0.833333 0.786667
vt 0.786667 0.880000
vt 0.880000 0.880000
vt 0.833333 0.786667
vt 0.786667 0.880000
vt 0.880000 0.880000
vt 0.833333 0.786667
vt 0.786667 0.880000
vt 0.880000 0.880000
vt 0.833333 0.786667
vt 0.786667 0.880000
vt 0.880000 0.880000
vt 0.833333 0.786667
vt 0.786667 0.880000
vt 0.880000 0.880000
vt 0.833333 0.786667
vt 0.786667 0.880000
vt 0.880000 0.880000
vt 0.833333 0.786667
vt 0.786667 0.880000
vt 0.880000 0.880000
vt 0.833333 0.786667
vt 0.786667 0.880000
vt 0.880000 0.880000
vt 0.833333 0.786667
vt 0.786667 0.880000
vt 0.880000 0.880000
vt 0.833333 0.786667
vt 0.786667 0.880000
vt 0.880000 0.880000
vt 0.833333 0.786667
vt 0.786667 0.880000
vt 0.880000 0.880000
vt 0.833333 0.786667
vt 0.786667 0.880000
vt 0.880000 0.880000
vt 0.833333 0.786667
vt 0.786667 0.880000
vt 0.880000 0.880000
vt 0.833333 0.786667
vt 0.786667 0.880000
vt 0.880000 0.880000
vt 0.833333 0.786667
vt 0.786667 0.880000
vt 0.880000 0.880000
vt 0.833333 0.786667
vt 0.786667 0.880000
vt 0.880000 0.880000
vt 0.833333 0.786667
vt 0.786667 0.880000
vt 0.880000 0.880000
vt 0.833333 0.786667
vt 0.786667 0.880000
vt 0.880000 0.880000
vt 0.833333 0.786667
vt 0.786667 0.880000
vt 0.880000 0.880000
vt 0.833333 0.786667
vt 0.786667 0.880000
vt 0.880000 0.880000
vt 0.833333 0.786667
vt 0.786667 0.880000
vt 0.880000 0.880000
vt 0.833333 0.786667
vt 0.786667 0.880000
vt 0.880000 0.880000
vt 0.833333 0.786667
vt 0.786667 0.880000
vt 0.880000 0.880000
vt 0.833333 0.786667
vt 0.786667 0.880000
vt 0.880000 0.880000
vt 0.833333 0.786667
vt 0.786667 0.880000
vt 0.880000 0.880000
vt 0.833333 0.786667
vt 0.786667 0.880000
vt 0.880000 0.880000
vt 0.833333 0.786667
vt 0.786667 0.880000
vt 0.880000 0.880000
vt 0.833333 0.786667
vt 0.786667 0.880000
vt 0.880000 0.880000
vt 0.833333 0.786667
vt 0.786667 0.880000
vt 0.880000 0.880000
vt 0.833333 0.786667
vt 0.786667 0.880000
vt 0.880000 0.880000
vt 0.833333 0.786667
vt 0.786667 0.880000
vt 0.880000 0.880000
vt 0.833333 0.786667
vt 0.786667 0.880000
vt 0.880000 0.880000
vt 0.833333 0.786667
vt 0.786667 0.880000
vt 0.880000 0.880000
vt 0.833333 0.786667
vt 0.786667 0.880000
vt 0.880000 0.880000
vt 0.833333 0.786667
vt 0.786667 0.880000
vt 0.880000 0.880000
vt 0.833333 0.786667
vt 0.786667 0.880000
vt 0.880000 0.880000
vt 0.833333 0.786667
vt 0.786667 0.880000
vt 0.880000 0.880000
vt 0.833333 0.786667
vt 0.786667 0.880000
vt 0.880000 0.880000
vt 0.833333 0.786667
vt 0.786667 0.880000
vt 0.880000 0.880000
vt 0.833333 0.786667
vt 0.786667 0.880000
vt 0.880000 0.880000
vt 0.833333 0.786667
vt 0.786667 0.880000
vt 0.880000 0.880000
vt 0.833333 0.786667
vt 0.786667 0.880000
vt 0.880000 0.880000
vt 0.833333 0.786667
vt 0.786667 0.880000
vt 0.880000 0.880000
vt 0.833333 0.786667
vt 0.786667 0.880000
vt 0.880000 0.880000
vt 0.833333 0.786667
vt 0.786667 0.880000
vt 0.880000 0.880000
vt 0.833333 0.786667
vt 0.786667 0.880000
vt 0.880000 0.880000
vt 0.833333 0.786667
vt 0.786667 0.880000
vt 0.880000 0.880000
vt 0.833333 0.786667
vt 0.786667 0.880000
vt 0.880000 0.880000
vt 0.833333 0.786667
vt 0.786667 0.880000
vt 0.880000 0.880000
vt 0.833333 0.786667
vt 0.786667 0.880000
vt 0.880000 0.880000
vt 0.833333 0.786667
vt 0.786667 0.880000
vt 0.880000 0.880000
vt 0.833333 0.786667
vt 0.786667 0.880000
vt 0.880000 0.880000
vt 0.833333 0.786667
vt 0.786667 0.880000
vt 0.880000 0.880000
vt 0.833333 0.786667
vt 0.786667 0.880000
vt 0.880000 0.880000
vt 0.833333 0.786667
vt 0.786667 0.880000
vt 0.880000 0.880000
vt 0.833333 0.786667
vt 0.786667 0.880000
vt 0.880000 0.880000
vt 0.833333 0.786667
vt 0.786667 0.880000
vt 0.880000 0.880000
vt 0.833333 0.786667
vt 0.786667 0.880000
vt 0.880000 0.880000
vt 0.833333 0.786667
vt 0.786667 0.880000
vt 0.880000 0.880000
vt 0.833333 0.786667
vt 0.786667 0.880000
vt 0.880000 0.880000
vt 0.833333 0.786667
vt 0.786667 0.880000
vt 0.880000 0.880000
vt 0.833333 0.786667
vt 0.786667 0.880000
vt 0.880000 0.880000
vt 0.833333 0.786667
vt 0.786667 0.880000
vt 0.880000 0.880000
vt 0.833333 0.786667
vt 0.786667 0.880000
vt 0.880000 0.880000
vt 0.833333 0.786667
vt 0.786667 0.880000
vt 0.880000 0.880000
vt 0.833333 0.786667
vt 0.786667 0.880000
vt 0.880000 0.880000
vt 0.833333 0.786667
vt 0.786667 0.880000
vt 0.880000 0.880000
vt 0.833333 0.786667
vt 0.786667 0.880000
vt 0.880000 0.880000
vt 0.833333 0.786667
vt 0.786667 0.880000
vt 0.880000 0.880000
vt 0.833333 0.786667
vt 0.786667 0.880000
vt 0.880000 0.880000
vt 0.833333 0.786667
vt 0.786667 0.880000
vt 0.880000 0.880000
vt 0.833333 0.786667
vt 0.786667 0.880000
vt 0.880000 0.880000
vt 0.833333 0.786667
vt 0.786667 0.880000
vt 0.880000 0.880000
vt 0.833333 0.786667
vt 0.786667 0.880000
vt 0.880000 0.880000
vt 0.833333 0.786667
vt 0.786667 0.880000
vt 0.880000 0.880000
vt 0.833333 0.786667
vt 0.786667 0.880000
vt 0.880000 0.880000
vt 0.833333 0.786667
vt 0.786667 0.880000
vt 0.880000 0.880000
vt 0.833333 0.786667
vt 0.786667 0.880000
vt 0.880000 0.880000
vt 0.833333 0.786667
vt 0.786667 0.880000
vt 0.880000 0.880000
vt 0.833333 0.786667
vt 0.786667 0.880000
vt 0.880000 0.880000
vt 0.833333 0.786667
vt 0.786667 0.880000
vt 0.880000 0.880000
vt 0.833333 0.786667
vt 0.786667 0.880000
vt 0.880000 0.880000
vt 0.833333 0.786667
vt 0.786667 0.880000
vt 0.880000 0.880000
vt 0.833333 0.786667
vt 0.786667 0.880000
vt 0.880000 0.880000
vt 0.833333 0.786667
vt 0.786667 0.880000
vt 0.880000 0.880000
vt 0.833333 0.786667
vt 0.786667 0.880000
vt 0.880000 0.880000
vt 0.833333 0.786667
vt 0.786667 0.880000
vt 0.880000 0.880000
vt 0.833333 0.786667
vt 0.786667 0.880000
vt 0.880000 0.880000
vt 0.833333 0.786667
vt 0.786667 0.880000
vt 0.880000 0.880000
vt 0.833333 0.786667
vt 0.786667 0.880000
vt 0.880000 0.880000
vt 0.833333 0.786667
vt 0.786667 0.880000
vt 0.880000 0.880000
vt 0.833333 0.786667
vt 0.786667 0.880000
vt 0.880000 0.880000
vt 0.833333 0.786667
vt 0.786667 0.880000
vt 0.880000 0.880000
vt 0.833333 0.786667
vt 0.786667 0.880000
vt 0.880000 0.880000
vt 0.833333 0.786667
vt 0.786667 0.880000
vt 0.880000 0.880000
vt 0.833333 0.786667
vt 0.786667 0.880000
vt 0.880000 0.880000
vt 0.833333 0.786667
vt 0.786667 0.880000
vt 0.880000 0.880000
vt 0.833333 0.786667
vt 0.786667 0.880000
vt 0.880000 0.880000
vt 0.833333 0.786667
vt 0.786667 0.880000
vt 0.880000 0.880000
vt 0.833333 0.786667
vt 0.786667 0.880000
vt 0.880000 0.880000
vt 0.833333 0.786667
vt 0.786667 0.880000
vt 0.880000 0.880000
vt 0.833333 0.786667
vt 0.786667 0.880000
vt 0.880000 0.880000
vt 0.833333 0.786667
vt 0.786667 0.880000
vt 0.880000 0.880000
vt 0.833333 0.786667
vt 0.786667 0.880000
vt 0.880000 0.880000
vt 0.833333 0.786667
vt 0.786667 0.880000
vt 0.880000 0.880000
vt 0.833333 0.786667
vt 0.786667 0.880000
vt 0.880000 0.880000
vt 0.833333 0.786667
vt 0.786667 0.880000
vt 0.880000 0.880000
vt 0.833333 0.786667
vt 0.786667 0.880000
vt 0.880000 0.880000
vt 0.833333 0.786667
vt 0.786667 0.880000
vt 0.880000 0.880000
vt 0.833333 0.786667
vt 0.786667 0.880000
vt 0.880000 0.880000
vt 0.833333 0.786667
vt 0.786667 0.880000
vt 0.880000 0.880000
vt 0.833333 0.786667
vt 0.786667 0.880000
vt 0.880000 0.880000
vt 0.833333 0.786667
vt 0.786667 0.880000
vt 0.880000 0.880000
vt 0.833333 0.786667
vt 0.786667 0.880000
vt 0.880000 0.880000
vt 0.833333 0.786667
vt 0.786667 0.880000
vt 0.880000 0.880000
vt 0.833333 0.786667
vt 0.786667 0.880000
vt 0.880000 0.880000
vt 0.833333 0.786667
vt 0.786667 0.880000
vt 0.880000 0.880000
vt 0.833333 0.786667
vt 0.786667 0.880000
vt 0.880000 0.880000
vt 0.833333 0.786667
vt 0.786667 0.880000
vt 0.880000 0.880000
vt 0.833333 0.786667
vt 0.786667 0.880000
vt 0.880000 0.880000
vt 0.833333 0.786667
vt 0.786667 0.880000
vt 0.880000 0.880000
vt 0.833333 0.786667
vt 0.786667 0.880000
vt 0.880000 0.880000
vt 0.833333 0.786667
vt 0.786667 0.880000
vt 0.880000 0.880000
vt 0.833333 0.786667
vt 0.786667 0.880000
vt 0.880000 0.880000
vt 0.833333 0.786667
vt 0.786667 0.880000
vt 0.880000 0.880000
vt 0.833333 0.786667
vt 0.786667 0.880000
vt 0.880000 0.880000
vt 0.833333 0.786667
vt 0.786667 0.880000
vt 0.880000 0.880000
vt 0.833333 0.786667
vt 0.786667 0.880000
vt 0.880000 0.880000
vt 0.833333 0.786667
vt 0.786667 0.880000
vt 0.880000 0.880000
vt 0.833333 0.786667
vt 0.786667 0.880000
vt 0.880000 0.880000
vt 0.833333 0.786667
vt 0.786667 0.880000
vt 0.880000 0.880000
vt 0.833333 0.786667
vt 0.786667 0.880000
vt 0.880000 0.880000
vt 0.833333 0.786667
vt 0.786667 0.880000
vt 0.880000 0.880000
vt 0.833333 0.786667
vt 0.786667 0.880000
vt 0.880000 0.880000
vt 0.833333 0.786667
vt 0.786667 0.880000
vt 0.880000 0.880000
vt 0.833333 0.786667
vt 0.786667 0.880000
vt 0.880000 0.880000
vt 0.833333 0.786667
vt 0.786667 0.880000
vt 0.880000 0.880000
vt 0.833333 0.786667
vt 0.786667 0.880000
vt 0.880000 0.880000
vt 0.833333 0.786667
vt 0.786667 0.880000
vt 0.880000 0.880000
vt 0.833333 0.786667
vt 0.786667 0.880000
vt 0.880000 0.880000
vt 0.833333 0.786667
vt 0.786667 0.880000
vt 0.880000 0.880000
vt 0.833333 0.786667
vt 0.786667 0.880000
vt 0.880000 0.880000
vt 0.833333 0.786667
vt 0.786667 0.880000
vt 0.880000 0.880000
vt 0.833333 0.786667
vt 0.786667 0.880000
vt 0.880000 0.880000
vt 0.833333 0.786667
vt 0.786667 0.880000
vt 0.880000 0.880000
vt 0.833333 0.786667
vt 0.786667 0.880000
vt 0.880000 0.880000
vt 0.833333 0.786667
vt 0.786667 0.880000
vt 0.880000 0.880000
vt 0.833333 0.786667
vt 0.786667 0.880000
vt 0.880000 0.880000
vt 0.833333 0.786667
vt 0.786667 0.880000
vt 0.880000 0.880000
vt 0.833333 0.786667
vt 0.786667 0.880000
vt 0.880000 0.880000
vt 0.833333 0.786667
vt 0.786667 0.880000
vt 0.880000 0.880000
vt 0.833333 0.786667
vt 0.786667 0.880000
vt 0.880000 0.880000
vt 0.833333 0.786667
vt 0.786667 0.880000
vt 0.880000 0.880000
vt 0.833333 0.786667
vt 0.786667 0.880000
vt 0.880000 0.880000
vt 0.833333 0.786667
vt 0.786667 0.880000
vt 0.880000 0.880000
vt 0.833333 0.786667
vt 0.786667 0.880000
vt 0.880000 0.880000
vt 0.833333 0.786667
vt 0.786667 0.880000
vt 0.880000 0.880000
vt 0.833333 0.786667
vt 0.786667 0.880000
vt 0.880000 0.880000
vt 0.833333 0.786667
vt 0.786667 0.880000
vt 0.880000 0.880000
vt 0.833333 0.786667
vt 0.786667 0.880000
vt 0.880000 0.880000
vt 0.833333 0.786667
vt 0.786667 0.880000
vt 0.880000 0.880000
vt 0.833333 0.786667
vt 0.786667 0.880000
vt 0.880000 0.880000
vt 0.833333 0.786667
vt 0.786667 0.880000
vt 0.880000 0.880000
vt 0.833333 0.786667
vt 0.786667 0.880000
vt 0.880000 0.880000
vt 0.833333 0.786667
vt 0.786667 0.880000
vt 0.880000 0.880000
vt 0.833333 0.786667
vt 0.786667 0.880000
vt 0.880000 0.880000
vt 0.833333 0.786667
vt 0.786667 0.880000
vt 0.880000 0.880000
vt 0.833333 0.786667
vt 0.786667 0.880000
vt 0.880000 0.880000
vt 0.833333 0.786667
vt 0.786667 0.880000
vt 0.880000 0.880000
vt 0.833333 0.786667
vt 0.786667 0.880000
vt 0.880000 0.880000
vt 0.833333 0.786667
vt 0.786667 0.880000
vt 0.880000 0.880000
vt 0.833333 0.786667
vt 0.786667 0.880000
vt 0.880000 0.880000
vt 0.833333 0.786667
vt 0.786667 0.880000
vt 0.880000 0.880000
vt 0.833333 0.786667
vt 0.786667 0.880000
vt 0.880000 0.880000
vt 0.833333 0.786667
vt 0.786667 0.880000
vt 0.880000 0.880000
vt 0.833333 0.786667
vt 0.786667 0.880000
vt 0.880000 0.880000
vt 0.833333 0.786667
vn 0.000000 1.000000 0.000000
vn -0.467298 0.884100 0.000000
vn -0.335418 0.897447 0.286503
vn 0.000000 1.000000 0.000000
vn -0.335418 0.897447 0.286503
vn -0.000000 0.911417 0.411483
vn 0.000000 1.000000 0.000000
vn -0.000000 0.911417 0.411483
vn 0.335418 0.897447 0.286503
vn 0.000000 1.000000 0.000000
vn 0.335418 0.897447 0.286503
vn 0.467298 0.884100 0.000000
vn 0.000000 1.000000 0.000000
vn 0.467298 0.884100 0.000000
vn 0.335418 0.897447 -0.286503
vn 0.000000 1.000000 0.000000
vn 0.335418 0.897447 -0.286503
vn 0.000000 0.911417 -0.411483
vn 0.000000 1.000000 0.000000
vn 0.000000 0.911417 -0.411483
vn -0.335418 0.897447 -0.286503
vn 0.000000 1.000000 0.000000
vn -0.335418 0.897447 -0.286503
vn -0.467298 0.884100 -0.000000
vn -0.335418 0.897447 0.286503
vn -0.467298 0.884100 0.000000
vn -0.599172 0.615679 0.511793
vn -0.467298 0.884100 0.000000
vn -0.809000 0.587809 0.000000
vn -0.599172 0.615679 0.511793
vn -0.000000 0.911417 0.411483
vn -0.335418 0.897447 0.286503
vn -0.000000 0.647931 0.761699
vn -0.335418 0.897447 0.286503
vn -0.599172 0.615679 0.511793
vn -0.000000 0.647931 0.761699
vn 0.335418 0.897447 0.286503
vn -0.000000 0.911417 0.411483
vn 0.599172 0.615679 0.511793
vn -0.000000 0.911417 0.411483
vn -0.000000 0.647931 0.761699
vn 0.599172 0.615679 0.511793
vn 0.467298 0.884100 0.000000
vn 0.335418 0.897447 0.286503
vn 0.809000 0.587809 0.000000
vn 0.335418 0.897447 0.286503
vn 0.599172 0.615679 0.511793
vn 0.809000 0.587809 0.000000
vn 0.335418 0.897447 -0.286503
vn 0.467298 0.884100 0.000000
vn 0.599172 0.615679 -0.511793
vn 0.467298 0.884100 0.000000
vn 0.809000 0.587809 0.000000
vn 0.599172 0.615679 -0.511793
vn 0.000000 0.911417 -0.411483
vn 0.335418 0.897447 -0.286503
vn 0.000000 0.647931 -0.761699
vn 0.335418 0.897447 -0.286503
vn 0.599172 0.615679 -0.511793
vn 0.000000 0.647931 -0.761699
vn -0.335418 0.897447 -0.286503
vn 0.000000 0.911417 -0.411483
vn -0.599172 0.615679 -0.511793
vn 0.000000 0.911417 -0.411483
vn 0.000000 0.647931 -0.761699
vn -0.599172 0.615679 -0.511793
vn -0.467298 0.884100 -0.000000
vn -0.335418 0.897447 -0.286503
vn -0.809000 0.587809 -0.000000
vn -0.335418 0.897447 -0.286503
vn -0.599172 0.615679 -0.511793
vn -0.809000 0.587809 -0.000000
vn -0.599172 0.615679 0.511793
vn -0.809000 0.587809 0.000000
vn -0.742047 0.218231 0.633831
vn -0.809000 0.587809 0.000000
vn -0.979054 0.203599 0.000000
vn -0.742047 0.218231 0.633831
vn -0.000000 0.647931 0.761699
vn -0.599172 0.615679 0.511793
vn -0.000000 0.236550 0.971619
vn -0.599172 0.615679 0.511793
vn -0.742047 0.218231 0.633831
vn -0.000000 0.236550 0.971619
vn 0.599172 0.615679 0.511793
vn -0.000000 0.647931 0.761699
vn 0.742047 0.218231 0.633831
vn -0.000000 0.647931 0.761699
vn -0.000000 0.236550 0.971619
vn 0.742047 0.218231 0.633831
vn 0.809000 0.587809 0.000000
vn 0.599172 0.615679 0.511793
vn 0.979054 0.203599 0.000000
vn 0.599172 0.615679 0.511793
vn 0.742047 0.218231 0.633831
vn 0.979054 0.203599 0.000000
vn 0.599172 0.615679 -0.511793
vn 0.809000 0.587809 0.000000
vn 0.742047 0.218231 -0.633831
vn 0.809000 0.587809 0.000000
vn 0.979054 0.203599 0.000000
vn 0.742047 0.218231 -0.633831
vn 0.000000 0.647931 -0.761699
vn 0.599172 0.615679 -0.511793
vn 0.000000 0.236550 -0.971619
vn 0.599172 0.615679 -0.511793
vn 0.742047 0.218231 -0.633831
vn 0.000000 0.236550 -0.971619
vn -0.599172 0.615679 -0.511793
vn 0.000000 0.647931 -0.761699
vn -0.742047 0.218231 -0.633831
vn 0.000000 0.647931 -0.761699
vn 0.000000 0.236550 -0.971619
vn -0.742047 0.218231 -0.633831
vn -0.809000 0.587809 -0.000000
vn -0.599172 0.615679 -0.511793
vn -0.979054 0.203599 -0.000000
vn -0.599172 0.615679 -0.511793
vn -0.742047 0.218231 -0.633831
vn -0.979054 0.203599 -0.000000
vn -0.742047 0.218231 0.633831
vn -0.979054 0.203599 0.000000
vn -0.742047 -0.218231 0.633831
vn -0.979054 0.203599 0.000000
vn -0.979054 -0.203599 0.000000
vn -0.742047 -0.218231 0.633831
vn -0.000000 0.236550 0.971619
vn -0.742047 0.218231 0.633831
vn -0.000000 -0.236550 0.971619
vn -0.742047 0.218231 0.633831
vn -0.742047 -0.218231 0.633831
vn -0.000000 -0.236550 0.971619
vn 0.742047 0.218231 0.633831
vn -0.000000 0.236550 0.971619
vn 0.742047 -0.218231 0.633831
vn -0.000000 0.236550 0.971619
vn -0.000000 -0.236550 0.971619
vn 0.742047 -0.218231 0.633831
vn 0.979054 0.203599 0.000000
vn 0.742047 0.218231 0.633831
vn 0.979054 -0.203599 0.000000
vn 0.742047 0.218231 0.633831
vn 0.742047 -0.218231 0.633831
vn 0.979054 -0.203599 0.000000
vn 0.742047 0.218231 -0.633831
vn 0.979054 0.203599 0.000000
vn 0.742047 -0.218231 -0.633831
vn 0.979054 0.203599 0.000000
vn 0.979054 -0.203599 0.000000
vn 0.742047 -0.218231 -0.633831
vn 0.000000 0.236550 -0.971619
vn 0.742047 0.218231 -0.633831
vn 0.000000 -0.236550 -0.971619
vn 0.742047 0.218231 -0.633831
vn 0.742047 -0.218231 -0.633831
vn 0.000000 -0.236550 -0.971619
vn -0.742047 0.218231 -0.633831
vn 0.000000 0.236550 -0.971619
vn -0.742047 -0.218231 -0.633831
vn 0.000000 0.236550 -0.971619
vn 0.000000 -0.236550 -0.971619
vn -0.742047 -0.218231 -0.633831
vn -0.979054 0.203599 -0.000000
vn -0.742047 0.218231 -0.633831
vn -0.979054 -0.203599 -0.000000
vn -0.742047 0.218231 -0.633831
vn -0.742047 -0.218231 -0.633831
vn -0.979054 -0.203599 -0.000000
vn -0.742047 -0.218231 0.633831
vn -0.979054 -0.203599 0.000000
vn -0.599172 -0.615679 0.511793
vn -0.979054 -0.203599 0.000000
vn -0.809000 -0.587809 0.000000
vn -0.599172 -0.615679 0.511793
vn -0.000000 -0.236550 0.971619
vn -0.742047 -0.218231 0.633831
vn -0.000000 -0.647931 0.761699
vn -0.742047 -0.218231 0.633831
vn -0.599172 -0.615679 0.511793
vn -0.000000 -0.647931 0.761699
vn 0.742047 -0.218231 0.633831
vn -0.000000 -0.236550 0.971619
vn 0.599172 -0.615679 0.511793
vn -0.000000 -0.236550 0.971619
vn -0.000000 -0.647931 0.761699
vn 0.599172 -0.615679 0.511793
vn 0.979054 -0.203599 0.000000
vn 0.742047 -0.218231 0.633831
vn 0.809000 -0.587809 0.000000
vn 0.742047 -0.218231 0.633831
vn 0.599172 -0.615679 0.511793
vn 0.809000 -0.587809 0.000000
vn 0.742047 -0.218231 -0.633831
vn 0.979054 -0.203599 0.000000
vn 0.599172 -0.615679 -0.511793
vn 0.979054 -0.203599 0.000000
vn 0.809000 -0.587809 0.000000
vn 0.599172 -0.615679 -0.511793
vn 0.000000 -0.236550 -0.971619
vn 0.742047 -0.218231 -0.633831
vn 0.000000 -0.647931 -0.761699
vn 0.742047 -0.218231 -0.633831
vn 0.599172 -0.615679 -0.511793
vn 0.000000 -0.647931 -0.761699
vn -0.742047 -0.218231 -0.633831
vn 0.000000 -0.236550 -0.971619
vn -0.599172 -0.615679 -0.511793
vn 0.000000 -0.236550 -0.971619
vn 0.000000 -0.647931 -0.761699
vn -0.599172 -0.615679 -0.511793
vn -0.979054 -0.203599 -0.000000
vn -0.742047 -0.218231 -0.633831
vn -0.809000 -0.587809 -0.000000
vn -0.742047 -0.218231 -0.633831
vn -0.599172 -0.615679 -0.511793
vn -0.809000 -0.587809 -0.000000
vn -0.599172 -0.615679 0.511793
vn -0.809000 -0.587809 0.000000
vn -0.335418 -0.897447 0.286503
vn -0.809000 -0.587809 0.000000
vn -0.467298 -0.884100 0.000000
vn -0.335418 -0.897447 0.286503
vn -0.000000 -0.647931 0.761699
vn -0.599172 -0.615679 0.511793
vn -0.000000 -0.911417 0.411483
vn -0.599172 -0.615679 0.511793
vn -0.335418 -0.897447 0.286503
vn -0.000000 -0.911417 0.411483
vn 0.599172 -0.615679 0.511793
vn -0.000000 -0.647931 0.761699
vn 0.335418 -0.897447 0.286503
vn -0.000000 -0.647931 0.761699
vn -0.000000 -0.911417 0.411483
vn 0.335418 -0.897447 0.286503
vn 0.809000 -0.587809 0.000000
vn 0.599172 -0.615679 0.511793
vn 0.467298 -0.884100 0.000000
vn 0.599172 -0.615679 0.511793
vn 0.335418 -0.897447 0.286503
vn 0.467298 -0.884100 0.000000
vn 0.599172 -0.615679 -0.511793
vn 0.809000 -0.587809 0.000000
vn 0.335418 -0.897447 -0.286503
vn 0.809000 -0.587809 0.000000
vn 0.467298 -0.884100 0.000000
vn 0.335418 -0.897447 -0.286503
vn 0.000000 -0.647931 -0.761699
vn 0.599172 -0.615679 -0.511793
vn 0.000000 -0.911417 -0.411483
vn 0.599172 -0.615679 -0.511793
vn 0.335418 -0.897447 -0.286503
vn 0.000000 -0.911417 -0.411483
vn -0.599172 -0.615679 -0.511793
vn 0.000000 -0.647931 -0.761699
vn -0.335418 -0.897447 -0.286503
vn 0.000000 -0.647931 -0.761699
vn 0.000000 -0.911417 -0.411483
vn -0.335418 -0.897447 -0.286503
vn -0.809000 -0.587809 -0.000000
vn -0.599172 -0.615679 -0.511793
vn -0.467298 -0.884100 -0.000000
vn -0.599172 -0.615679 -0.511793
vn -0.335418 -0.897447 -0.286503
vn -0.467298 -0.884100 -0.000000
vn -0.335418 -0.897447 0.286503
vn -0.467298 -0.884100 0.000000
vn -0.000000 -1.000000 0.000000
vn -0.000000 -0.911417 0.411483
vn -0.335418 -0.897447 0.286503
vn -0.000000 -1.000000 0.000000
vn 0.335418 -0.897447 0.286503
vn -0.000000 -0.911417 0.411483
vn 0.000000 -1.000000 0.000000
vn 0.467298 -0.884100 0.000000
vn 0.335418 -0.897447 0.286503
vn 0.000000 -1.000000 0.000000
vn 0.335418 -0.897447 -0.286503
vn 0.467298 -0.884100 0.000000
vn 0.000000 -1.000000 -0.000000
vn 0.000000 -0.911417 -0.411483
vn 0.335418 -0.897447 -0.286503
vn 0.000000 -1.000000 -0.000000
vn -0.335418 -0.897447 -0.286503
vn 0.000000 -0.911417 -0.411483
vn -0.000000 -1.000000 -0.000000
vn -0.467298 -0.884100 -0.000000
vn -0.335418 -0.897447 -0.286503
vn -0.000000 -1.000000 -0.000000
vn 0.811167 -0.546765 0.207500
vn 0.869587 0.132976 -0.475537
vn 0.990095 0.050919 0.130839
vn 0.869587 0.132976 -0.475537
vn 0.699790 0.369498 -0.611364
vn 0.990095 0.050919 0.130839
vn 0.869587 0.132976 -0.475537
vn 0.167844 0.045175 -0.984778
vn 0.699790 0.369498 -0.611364
vn 0.167844 0.045175 -0.984778
vn -0.120376 0.458470 -0.880520
vn 0.699790 0.369498 -0.611364
vn 0.167844 0.045175 -0.984778
vn -0.617086 -0.175605 -0.767051
vn -0.120376 0.458470 -0.880520
vn -0.617086 -0.175605 -0.767051
vn -0.850245 0.244854 -0.465973
vn -0.120376 0.458470 -0.880520
vn -0.617086 -0.175605 -0.767051
vn -0.927994 -0.371896 -0.022831
vn -0.850245 0.244854 -0.465973
vn -0.927994 -0.371896 -0.022831
vn -0.944601 -0.105044 0.310959
vn -0.850245 0.244854 -0.465973
vn -0.927994 -0.371896 -0.022831
vn -0.547508 -0.392966 0.738791
vn -0.944601 -0.105044 0.310959
vn -0.547508 -0.392966 0.738791
vn -0.332545 -0.333269 0.882239
vn -0.944601 -0.105044 0.310959
vn -0.547508 -0.392966 0.738791
vn 0.281817 -0.209563 0.936303
vn -0.332545 -0.333269 0.882239
vn 0.281817 -0.209563 0.936303
vn 0.539532 -0.262175 0.800106
vn -0.332545 -0.333269 0.882239
vn 0.281817 -0.209563 0.936303
vn 0.811167 -0.546765 0.207500
vn 0.539532 -0.262175 0.800106
vn 0.811167 -0.546765 0.207500
vn 0.990095 0.050919 0.130839
vn 0.539532 -0.262175 0.800106
vn 0.990095 0.050919 0.130839
vn 0.699790 0.369498 -0.611364
vn 0.861497 0.440320 0.252866
vn 0.699790 0.369498 -0.611364
vn 0.516307 0.675075 -0.526973
vn 0.861497 0.440320 0.252866
vn 0.699790 0.369498 -0.611364
vn -0.120376 0.458470 -0.880520
vn 0.516307 0.675075 -0.526973
vn -0.120376 0.458470 -0.880520
vn -0.315263 0.761341 -0.566541
vn 0.516307 0.675075 -0.526973
vn -0.120376 0.458470 -0.880520
vn -0.850245 0.244854 -0.465973
vn -0.315263 0.761341 -0.566541
vn -0.850245 0.244854 -0.465973
vn -0.910738 0.401956 -0.094807
vn -0.315263 0.761341 -0.566541
vn -0.850245 0.244854 -0.465973
vn -0.944601 -0.105044 0.310959
vn -0.910738 0.401956 -0.094807
vn -0.944601 -0.105044 0.310959
vn -0.829160 -0.151077 0.538210
vn -0.910738 0.401956 -0.094807
vn -0.944601 -0.105044 0.310959
vn -0.332545 -0.333269 0.882239
vn -0.829160 -0.151077 0.538210
vn -0.332545 -0.333269 0.882239
vn -0.127903 -0.493068 0.860537
vn -0.829160 -0.151077 0.538210
vn -0.332545 -0.333269 0.882239
vn 0.539532 -0.262175 0.800106
vn -0.127903 -0.493068 0.860537
vn 0.539532 -0.262175 0.800106
vn 0.690296 -0.351333 0.632501
vn -0.127903 -0.493068 0.860537
vn 0.539532 -0.262175 0.800106
vn 0.990095 0.050919 0.130839
vn 0.690296 -0.351333 0.632501
vn 0.990095 0.050919 0.130839
vn 0.861497 0.440320 0.252866
vn 0.690296 -0.351333 0.632501
vn 0.811167 -0.546765 0.207500
vn 0.167844 0.045175 -0.984778
vn 0.869587 0.132976 -0.475537
vn 0.861497 0.440320 0.252866
vn 0.516307 0.675075 -0.526973
vn -0.315263 0.761341 -0.566541
vn 0.811167 -0.546765 0.207500
vn -0.617086 -0.175605 -0.767051
vn 0.167844 0.045175 -0.984778
vn 0.861497 0.440320 0.252866
vn -0.315263 0.761341 -0.566541
vn -0.910738 0.401956 -0.094807
vn 0.811167 -0.546765 0.207500
vn -0.927994 -0.371896 -0.022831
vn -0.617086 -0.175605 -0.767051
vn 0.861497 0.440320 0.252866
vn -0.910738 0.401956 -0.094807
vn -0.829160 -0.151077 0.538210
vn 0.811167 -0.546765 0.207500
vn -0.547508 -0.392966 0.738791
vn -0.927994 -0.371896 -0.022831
vn 0.861497 0.440320 0.252866
vn -0.829160 -0.151077 0.538210
vn -0.127903 -0.493068 0.860537
vn 0.811167 -0.546765 0.207500
vn 0.281817 -0.209563 0.936303
vn -0.547508 -0.392966 0.738791
vn 0.861497 0.440320 0.252866
vn -0.127903 -0.493068 0.860537
vn 0.690296 -0.351333 0.632501
vn 0.866814 -0.204567 -0.454737
vn 0.389996 0.913188 -0.118284
vn 0.971195 0.200410 0.128904
vn 0.389996 0.913188 -0.118284
vn 0.081670 0.867270 0.491093
vn 0.971195 0.200410 0.128904
vn 0.389996 0.913188 -0.118284
vn -0.668810 0.628212 -0.397546
vn 0.081670 0.867270 0.491093
vn -0.668810 0.628212 -0.397546
vn -0.898766 0.242770 0.365077
vn 0.081670 0.867270 0.491093
vn -0.668810 0.628212 -0.397546
vn -0.804321 -0.522569 -0.282823
vn -0.898766 0.242770 0.365077
vn -0.804321 -0.522569 -0.282823
vn -0.680125 -0.732948 -0.014731
vn -0.898766 0.242770 0.365077
vn -0.804321 -0.522569 -0.282823
vn 0.192136 -0.961310 0.197402
vn -0.680125 -0.732948 -0.014731
vn 0.192136 -0.961310 0.197402
vn 0.582637 -0.788498 -0.196988
vn -0.680125 -0.732948 -0.014731
vn 0.192136 -0.961310 0.197402
vn 0.866814 -0.204567 -0.454737
vn 0.582637 -0.788498 -0.196988
vn 0.866814 -0.204567 -0.454737
vn 0.971195 0.200410 0.128904
vn 0.582637 -0.788498 -0.196988
vn 0.971195 0.200410 0.128904
vn 0.081670 0.867270 0.491093
vn 0.795271 0.071366 0.602039
vn 0.081670 0.867270 0.491093
vn -0.182724 0.229723 0.955949
vn 0.795271 0.071366 0.602039
vn 0.081670 0.867270 0.491093
vn -0.898766 0.242770 0.365077
vn -0.182724 0.229723 0.955949
vn -0.898766 0.242770 0.365077
vn -0.987062 -0.029740 0.157555
vn -0.182724 0.229723 0.955949
vn -0.898766 0.242770 0.365077
vn -0.680125 -0.732948 -0.014731
vn -0.987062 -0.029740 0.157555
vn -0.680125 -0.732948 -0.014731
vn -0.360394 -0.358732 -0.861062
vn -0.987062 -0.029740 0.157555
vn -0.680125 -0.732948 -0.014731
vn 0.582637 -0.788498 -0.196988
vn -0.360394 -0.358732 -0.861062
vn 0.582637 -0.788498 -0.196988
vn 0.726527 -0.306782 -0.614852
vn -0.360394 -0.358732 -0.861062
vn 0.582637 -0.788498 -0.196988
vn 0.971195 0.200410 0.128904
vn 0.726527 -0.306782 -0.614852
vn 0.971195 0.200410 0.128904
vn 0.795271 0.071366 0.602039
vn 0.726527 -0.306782 -0.614852
vn 0.866814 -0.204567 -0.454737
vn -0.668810 0.628212 -0.397546
vn 0.389996 0.913188 -0.118284
vn 0.795271 0.071366 0.602039
vn -0.182724 0.229723 0.955949
vn -0.987062 -0.029740 0.157555
vn 0.866814 -0.204567 -0.454737
vn -0.804321 -0.522569 -0.282823
vn -0.668810 0.628212 -0.397546
vn 0.795271 0.071366 0.602039
vn -0.987062 -0.029740 0.157555
vn -0.360394 -0.358732 -0.861062
vn 0.866814 -0.204567 -0.454737
vn 0.192136 -0.961310 0.197402
vn -0.804321 -0.522569 -0.282823
vn 0.795271 0.071366 0.602039
vn -0.360394 -0.358732 -0.861062
vn 0.726527 -0.306782 -0.614852
vn 0.834507 -0.492531 0.247006
vn 0.870299 0.114745 -0.478972
vn 0.992150 0.048557 0.115238
vn 0.870299 0.114745 -0.478972
vn 0.694834 0.348267 -0.629218
vn 0.992150 0.048557 0.115238
vn 0.870299 0.114745 -0.478972
vn 0.167140 0.037731 -0.985211
vn 0.694834 0.348267 -0.629218
vn 0.167140 0.037731 -0.985211
vn -0.129568 0.433940 -0.891576
vn 0.694834 0.348267 -0.629218
vn 0.167140 0.037731 -0.985211
vn -0.627862 -0.156050 -0.762520
vn -0.129568 0.433940 -0.891576
vn -0.627862 -0.156050 -0.762520
vn -0.856011 0.231460 -0.462246
vn -0.129568 0.433940 -0.891576
vn -0.627862 -0.156050 -0.762520
vn -0.944995 -0.327066 -0.003543
vn -0.856011 0.231460 -0.462246
vn -0.944995 -0.327066 -0.003543
vn -0.941090 -0.098071 0.323624
vn -0.856011 0.231460 -0.462246
vn -0.944995 -0.327066 -0.003543
vn -0.554468 -0.340953 0.759155
vn -0.941090 -0.098071 0.323624
vn -0.554468 -0.340953 0.759155
vn -0.321786 -0.311315 0.894168
vn -0.941090 -0.098071 0.323624
vn -0.554468 -0.340953 0.759155
vn 0.280030 -0.180627 0.942845
vn -0.321786 -0.311315 0.894168
vn 0.280030 -0.180627 0.942845
vn 0.551338 -0.243841 0.797852
vn -0.321786 -0.311315 0.894168
vn 0.280030 -0.180627 0.942845
vn 0.834507 -0.492531 0.247006
vn 0.551338 -0.243841 0.797852
vn 0.834507 -0.492531 0.247006
vn 0.992150 0.048557 0.115238
vn 0.551338 -0.243841 0.797852
vn 0.992150 0.048557 0.115238
vn 0.694834 0.348267 -0.629218
vn 0.845836 0.447542 0.290289
vn 0.694834 0.348267 -0.629218
vn 0.509195 0.708238 -0.488998
vn 0.845836 0.447542 0.290289
vn 0.694834 0.348267 -0.629218
vn -0.129568 0.433940 -0.891576
vn 0.509195 0.708238 -0.488998
vn -0.129568 0.433940 -0.891576
vn -0.311648 0.794934 -0.520534
vn 0.509195 0.708238 -0.488998
vn -0.129568 0.433940 -0.891576
vn -0.856011 0.231460 -0.462246
vn -0.311648 0.794934 -0.520534
vn -0.856011 0.231460 -0.462246
vn -0.906075 0.418288 -0.063748
vn -0.311648 0.794934 -0.520534
vn -0.856011 0.231460 -0.462246
vn -0.941090 -0.098071 0.323624
vn -0.906075 0.418288 -0.063748
vn -0.941090 -0.098071 0.323624
vn -0.823259 -0.169698 0.541707
vn -0.906075 0.418288 -0.063748
vn -0.941090 -0.098071 0.323624
vn -0.321786 -0.311315 0.894168
vn -0.823259 -0.169698 0.541707
vn -0.321786 -0.311315 0.894168
vn -0.126287 -0.532726 0.836812
vn -0.823259 -0.169698 0.541707
vn -0.321786 -0.311315 0.894168
vn 0.551338 -0.243841 0.797852
vn -0.126287 -0.532726 0.836812
vn 0.551338 -0.243841 0.797852
vn 0.689674 -0.380319 0.616204
vn -0.126287 -0.532726 0.836812
vn 0.551338 -0.243841 0.797852
vn 0.992150 0.048557 0.115238
vn 0.689674 -0.380319 0.616204
vn 0.992150 0.048557 0.115238
vn 0.845836 0.447542 0.290289
vn 0.689674 -0.380319 0.616204
vn 0.834507 -0.492531 0.247006
vn 0.167140 0.037731 -0.985211
vn 0.870299 0.114745 -0.478972
vn 0.845836 0.447542 0.290289
vn 0.509195 0.708238 -0.488998
vn -0.311648 0.794934 -0.520534
vn 0.834507 -0.492531 0.247006
vn -0.627862 -0.156050 -0.762520
vn 0.167140 0.037731 -0.985211
vn 0.845836 0.447542 0.290289
vn -0.311648 0.794934 -0.520534
vn -0.906075 0.418288 -0.063748
vn 0.834507 -0.492531 0.247006
vn -0.944995 -0.327066 -0.003543
vn -0.627862 -0.156050 -0.762520
vn 0.845836 0.447542 0.290289
vn -0.906075 0.418288 -0.063748
vn -0.823259 -0.169698 0.541707
vn 0.834507 -0.492531 0.247006
vn -0.554468 -0.340953 0.759155
vn -0.944995 -0.327066 -0.003543
vn 0.845836 0.447542 0.290289
vn -0.823259 -0.169698 0.541707
vn -0.126287 -0.532726 0.836812
vn 0.834507 -0.492531 0.247006
vn 0.280030 -0.180627 0.942845
vn -0.554468 -0.340953 0.759155
vn 0.845836 0.447542 0.290289
vn -0.126287 -0.532726 0.836812
vn 0.689674 -0.380319 0.616204
vn 0.867003 -0.172850 -0.467364
vn 0.392231 0.917768 -0.062104
vn 0.971115 0.191045 0.142958
vn 0.392231 0.917768 -0.062104
vn 0.083265 0.843825 0.530120
vn 0.971115 0.191045 0.142958
vn 0.392231 0.917768 -0.062104
vn -0.670102 0.648538 -0.361056
vn 0.083265 0.843825 0.530120
vn -0.670102 0.648538 -0.361056
vn -0.898176 0.233134 0.372731
vn 0.083265 0.843825 0.530120
vn -0.670102 0.648538 -0.361056
vn -0.804585 -0.502417 -0.316575
vn -0.898176 0.233134 0.372731
vn -0.804585 -0.502417 -0.316575
vn -0.679377 -0.731657 -0.055901
vn -0.898176 0.233134 0.372731
vn -0.804585 -0.502417 -0.316575
vn 0.192293 -0.972386 0.132241
vn -0.679377 -0.731657 -0.055901
vn 0.192293 -0.972386 0.132241
vn 0.574714 -0.784646 -0.232455
vn -0.679377 -0.731657 -0.055901
vn 0.192293 -0.972386 0.132241
vn 0.867003 -0.172850 -0.467364
vn 0.574714 -0.784646 -0.232455
vn 0.867003 -0.172850 -0.467364
vn 0.971115 0.191045 0.142958
vn 0.574714 -0.784646 -0.232455
vn 0.971115 0.191045 0.142958
vn 0.083265 0.843825 0.530120
vn 0.799392 0.069068 0.596826
vn 0.083265 0.843825 0.530120
vn -0.186427 0.228124 0.955617
vn 0.799392 0.069068 0.596826
vn 0.083265 0.843825 0.530120
vn -0.898176 0.233134 0.372731
vn -0.186427 0.228124 0.955617
vn -0.898176 0.233134 0.372731
vn -0.987635 -0.030970 0.153680
vn -0.186427 0.228124 0.955617
vn -0.898176 0.233134 0.372731
vn -0.679377 -0.731657 -0.055901
vn -0.987635 -0.030970 0.153680
vn -0.679377 -0.731657 -0.055901
vn -0.363162 -0.359346 -0.859641
vn -0.987635 -0.030970 0.153680
vn -0.679377 -0.731657 -0.055901
vn 0.574714 -0.784646 -0.232455
vn -0.363162 -0.359346 -0.859641
vn 0.574714 -0.784646 -0.232455
vn 0.730444 -0.306165 -0.610503
vn -0.363162 -0.359346 -0.859641
vn 0.574714 -0.784646 -0.232455
vn 0.971115 0.191045 0.142958
vn 0.730444 -0.306165 -0.610503
vn 0.971115 0.191045 0.142958
vn 0.799392 0.069068 0.596826
vn 0.730444 -0.306165 -0.610503
vn 0.867003 -0.172850 -0.467364
vn -0.670102 0.648538 -0.361056
vn 0.392231 0.917768 -0.062104
vn 0.799392 0.069068 0.596826
vn -0.186427 0.228124 0.955617
vn -0.987635 -0.030970 0.153680
vn 0.867003 -0.172850 -0.467364
vn -0.804585 -0.502417 -0.316575
vn -0.670102 0.648538 -0.361056
vn 0.799392 0.069068 0.596826
vn -0.987635 -0.030970 0.153680
vn -0.363162 -0.359346 -0.859641
vn 0.867003 -0.172850 -0.467364
vn 0.192293 -0.972386 0.132241
vn -0.804585 -0.502417 -0.316575
vn 0.799392 0.069068 0.596826
vn -0.363162 -0.359346 -0.859641
vn 0.730444 -0.306165 -0.610503
vn 0.851770 -0.445856 0.275136
vn 0.870825 0.100800 -0.481148
vn 0.993737 0.046348 0.101679
vn 0.870825 0.100800 -0.481148
vn 0.690409 0.329361 -0.644094
vn 0.993737 0.046348 0.101679
vn 0.870825 0.100800 -0.481148
vn 0.166718 0.032168 -0.985480
vn 0.690409 0.329361 -0.644094
vn 0.166718 0.032168 -0.985480
vn -0.137753 0.412422 -0.900518
vn 0.690409 0.329361 -0.644094
vn 0.166718 0.032168 -0.985480
vn -0.635339 -0.140128 -0.759413
vn -0.137753 0.412422 -0.900518
vn -0.635339 -0.140128 -0.759413
vn -0.861161 0.219546 -0.458477
vn -0.137753 0.412422 -0.900518
vn -0.635339 -0.140128 -0.759413
vn -0.956649 -0.291083 0.009632
vn -0.861161 0.219546 -0.458477
vn -0.956649 -0.291083 0.009632
vn -0.937854 -0.091907 0.334638
vn -0.861161 0.219546 -0.458477
vn -0.956649 -0.291083 0.009632
vn -0.559144 -0.300613 0.772651
vn -0.937854 -0.091907 0.334638
vn -0.559144 -0.300613 0.772651
vn -0.312198 -0.291105 0.904318
vn -0.937854 -0.091907 0.334638
vn -0.559144 -0.300613 0.772651
vn 0.278894 -0.158697 0.947119
vn -0.312198 -0.291105 0.904318
vn 0.278894 -0.158697 0.947119
vn 0.561768 -0.226957 0.795555
vn -0.312198 -0.291105 0.904318
vn 0.278894 -0.158697 0.947119
vn 0.851770 -0.445856 0.275136
vn 0.561768 -0.226957 0.795555
vn 0.851770 -0.445856 0.275136
vn 0.993737 0.046348 0.101679
vn 0.561768 -0.226957 0.795555
vn 0.993737 0.046348 0.101679
vn 0.690409 0.329361 -0.644094
vn 0.828278 0.451026 0.332462
vn 0.690409 0.329361 -0.644094
vn 0.500984 0.741802 -0.445808
vn 0.828278 0.451026 0.332462
vn 0.690409 0.329361 -0.644094
vn -0.137753 0.412422 -0.900518
vn 0.500984 0.741802 -0.445808
vn -0.137753 0.412422 -0.900518
vn -0.307019 0.828345 -0.468598
vn 0.500984 0.741802 -0.445808
vn -0.137753 0.412422 -0.900518
vn -0.861161 0.219546 -0.458477
vn -0.307019 0.828345 -0.468598
vn -0.861161 0.219546 -0.458477
vn -0.900611 0.433738 -0.027778
vn -0.307019 0.828345 -0.468598
vn -0.861161 0.219546 -0.458477
vn -0.937854 -0.091907 0.334638
vn -0.900611 0.433738 -0.027778
vn -0.937854 -0.091907 0.334638
vn -0.815833 -0.193085 0.545101
vn -0.900611 0.433738 -0.027778
vn -0.937854 -0.091907 0.334638
vn -0.312198 -0.291105 0.904318
vn -0.815833 -0.193085 0.545101
vn -0.312198 -0.291105 0.904318
vn -0.124675 -0.578388 0.806179
vn -0.815833 -0.193085 0.545101
vn -0.312198 -0.291105 0.904318
vn 0.561768 -0.226957 0.795555
vn -0.124675 -0.578388 0.806179
vn 0.561768 -0.226957 0.795555
vn 0.688226 -0.414060 0.595734
vn -0.124675 -0.578388 0.806179
vn 0.561768 -0.226957 0.795555
vn 0.993737 0.046348 0.101679
vn 0.688226 -0.414060 0.595734
vn 0.993737 0.046348 0.101679
vn 0.828278 0.451026 0.332462
vn 0.688226 -0.414060 0.595734
vn 0.851770 -0.445856 0.275136
vn 0.166718 0.032168 -0.985480
vn 0.870825 0.100800 -0.481148
vn 0.828278 0.451026 0.332462
vn 0.500984 0.741802 -0.445808
vn -0.307019 0.828345 -0.468598
vn 0.851770 -0.445856 0.275136
vn -0.635339 -0.140128 -0.759413
vn 0.166718 0.032168 -0.985480
vn 0.828278 0.451026 0.332462
vn -0.307019 0.828345 -0.468598
vn -0.900611 0.433738 -0.027778
vn 0.851770 -0.445856 0.275136
vn -0.956649 -0.291083 0.009632
vn -0.635339 -0.140128 -0.759413
vn 0.828278 0.451026 0.332462
vn -0.900611 0.433738 -0.027778
vn -0.815833 -0.193085 0.545101
vn 0.851770 -0.445856 0.275136
vn -0.559144 -0.300613 0.772651
vn -0.956649 -0.291083 0.009632
vn 0.828278 0.451026 0.332462
vn -0.815833 -0.193085 0.545101
vn -0.124675 -0.578388 0.806179
vn 0.851770 -0.445856 0.275136
vn 0.278894 -0.158697 0.947119
vn -0.559144 -0.300613 0.772651
vn 0.828278 0.451026 0.332462
vn -0.124675 -0.578388 0.806179
vn 0.688226 -0.414060 0.595734
vn 0.868056 -0.140068 -0.476298
vn 0.394491 0.918885 -0.005255
vn 0.970912 0.181495 0.156173
vn 0.394491 0.918885 -0.005255
vn 0.084316 0.819670 0.566597
vn 0.970912 0.181495 0.156173
vn 0.394491 0.918885 -0.005255
vn -0.671632 0.667173 -0.322165
vn 0.084316 0.819670 0.566597
vn -0.671632 0.667173 -0.322165
vn -0.897975 0.223270 0.379199
vn 0.084316 0.819670 0.566597
vn -0.671632 0.667173 -0.322165
vn -0.805304 -0.480035 -0.347926
vn -0.897975 0.223270 0.379199
vn -0.805304 -0.480035 -0.347926
vn -0.678015 -0.728734 -0.096133
vn -0.897975 0.223270 0.379199
vn -0.805304 -0.480035 -0.347926
vn 0.192465 -0.979119 0.065444
vn -0.678015 -0.728734 -0.096133
vn 0.192465 -0.979119 0.065444
vn 0.567436 -0.779108 -0.266471
vn -0.678015 -0.728734 -0.096133
vn 0.192465 -0.979119 0.065444
vn 0.868056 -0.140068 -0.476298
vn 0.567436 -0.779108 -0.266471
vn 0.868056 -0.140068 -0.476298
vn 0.970912 0.181495 0.156173
vn 0.567436 -0.779108 -0.266471
vn 0.970912 0.181495 0.156173
vn 0.084316 0.819670 0.566597
vn 0.803132 0.066959 0.592027
vn 0.084316 0.819670 0.566597
vn -0.189850 0.226641 0.955296
vn 0.803132 0.066959 0.592027
vn 0.084316 0.819670 0.566597
vn -0.897975 0.223270 0.379199
vn -0.189850 0.226641 0.955296
vn -0.897975 0.223270 0.379199
vn -0.988147 -0.032101 0.150118
vn -0.189850 0.226641 0.955296
vn -0.897975 0.223270 0.379199
vn -0.678015 -0.728734 -0.096133
vn -0.988147 -0.032101 0.150118
vn -0.678015 -0.728734 -0.096133
vn -0.365656 -0.359895 -0.858354
vn -0.988147 -0.032101 0.150118
vn -0.678015 -0.728734 -0.096133
vn 0.567436 -0.779108 -0.266471
vn -0.365656 -0.359895 -0.858354
vn 0.567436 -0.779108 -0.266471
vn 0.733889 -0.305610 -0.606638
vn -0.365656 -0.359895 -0.858354
vn 0.567436 -0.779108 -0.266471
vn 0.970912 0.181495 0.156173
vn 0.733889 -0.305610 -0.606638
vn 0.970912 0.181495 0.156173
vn 0.803132 0.066959 0.592027
vn 0.733889 -0.305610 -0.606638
vn 0.868056 -0.140068 -0.476298
vn -0.671632 0.667173 -0.322165
vn 0.394491 0.918885 -0.005255
vn 0.803132 0.066959 0.592027
vn -0.189850 0.226641 0.955296
vn -0.988147 -0.032101 0.150118
vn 0.868056 -0.140068 -0.476298
vn -0.805304 -0.480035 -0.347926
vn -0.671632 0.667173 -0.322165
vn 0.803132 0.066959 0.592027
vn -0.988147 -0.032101 0.150118
vn -0.365656 -0.359895 -0.858354
vn 0.868056 -0.140068 -0.476298
vn 0.192465 -0.979119 0.065444
vn -0.805304 -0.480035 -0.347926
vn 0.803132 0.066959 0.592027
vn -0.365656 -0.359895 -0.858354
vn 0.733889 -0.305610 -0.606638
usemtl Dragon_color_atlas
f 1/1/1 2/2/2 3/3/3
f 4/4/4 5/5/5 6/6/6
f 7/7/7 8/8/8 9/9/9
f 10/10/10 11/11/11 12/12/12
f 13/13/13 14/14/14 15/15/15
f 16/16/16 17/17/17 18/18/18
f 19/19/19 20/20/20 21/21/21
f 22/22/22 23/23/23 24/24/24
f 25/25/25 26/26/26 27/27/27
f 28/28/28 29/29/29 30/30/30
f 31/31/31 32/32/32 33/33/33
f 34/34/34 35/35/35 36/36/36
f 37/37/37 38/38/38 39/39/39
f 40/40/40 41/41/41 42/42/42
f 43/43/43 44/44/44 45/45/45
f 46/46/46 47/47/47 48/48/48
f 49/49/49 50/50/50 51/51/51
f 52/52/52 53/53/53 54/54/54
f 55/55/55 56/56/56 57/57/57
f 58/58/58 59/59/59 60/60/60
f 61/61/61 62/62/62 63/63/63
f 64/64/64 65/65/65 66/66/66
f 67/67/67 68/68/68 69/69/69
f 70/70/70 71/71/71 72/72/72
f 73/73/73 74/74/74 75/75/75
f 76/76/76 77/77/77 78/78/78
f 79/79/79 80/80/80 81/81/81
f 82/82/82 83/83/83 84/84/84
f 85/85/85 86/86/86 87/87/87
f 88/88/88 89/89/89 90/90/90
f 91/91/91 92/92/92 93/93/93
f 94/94/94 95/95/95 96/96/96
f 97/97/97 98/98/98 99/99/99
f 100/100/100 101/101/101 102/102/102
f 103/103/103 104/104/104 105/105/105
f 106/106/106 107/107/107 108/108/108
f 109/109/109 110/110/110 111/111/111
f 112/112/112 113/113/113 114/114/114
f 115/115/115 116/116/116 117/117/117
f 118/118/118 119/119/119 120/120/120
f 121/121/121 122/122/122 123/123/123
f 124/124/124 125/125/125 126/126/126
f 127/127/127 128/128/128 129/129/129
f 130/130/130 131/131/131 132/132/132
f 133/133/133 134/134/134 135/135/135
f 136/136/136 137/137/137 138/138/138
f 139/139/139 140/140/140 141/141/141
f 142/142/142 143/143/143 144/144/144
f 145/145/145 146/146/146 147/147/147
f 148/148/148 149/149/149 150/150/150
f 151/151/151 152/152/152 153/153/153
f 154/154/154 155/155/155 156/156/156
f 157/157/157 158/158/158 159/159/159
f 160/160/160 161/161/161 162/162/162
f 163/163/163 164/164/164 165/165/165
f 166/166/166 167/167/167 168/168/168
f 169/169/169 170/170/170 171/171/171
f 172/172/172 173/173/173 174/174/174
f 175/175/175 176/176/176 177/177/177
f 178/178/178 179/179/179 180/180/180
f 181/181/181 182/182/182 183/183/183
f 184/184/184 185/185/185 186/186/186
f 187/187/187 188/188/188 189/189/189
f 190/190/190 191/191/191 192/192/192
f 193/193/193 194/194/194 195/195/195
f 196/196/196 197/197/197 198/198/198
f 199/199/199 200/200/200 201/201/201
f 202/202/202 203/203/203 204/204/204
f 205/205/205 206/206/206 207/207/207
f 208/208/208 209/209/209 210/210/210
f 211/211/211 212/212/212 213/213/213
f 214/214/214 215/215/215 216/216/216
f 217/217/217 218/218/218 219/219/219
f 220/220/220 221/221/221 222/222/222
f 223/223/223 224/224/224 225/225/225
f 226/226/226 227/227/227 228/228/228
f 229/229/229 230/230/230 231/231/231
f 232/232/232 233/233/233 234/234/234
f 235/235/235 236/236/236 237/237/237
f 238/238/238 239/239/239 240/240/240
f 241/241/241 242/242/242 243/243/243
f 244/244/244 245/245/245 246/246/246
f 247/247/247 248/248/248 249/249/249
f 250/250/250 251/251/251 252/252/252
f 253/253/253 254/254/254 255/255/255
f 256/256/256 257/257/257 258/258/258
f 259/259/259 260/260/260 261/261/261
f 262/262/262 263/263/263 264/264/264
f 265/265/265 266/266/266 267/267/267
f 268/268/268 269/269/269 270/270/270
f 271/271/271 272/272/272 273/273/273
f 274/274/274 275/275/275 276/276/276
f 277/277/277 278/278/278 279/279/279
f 280/280/280 281/281/281 282/282/282
f 283/283/283 284/284/284 285/285/285
f 286/286/286 287/287/287 288/288/288
f 289/289/289 290/290/290 291/291/291
f 292/292/292 293/293/293 294/294/294
f 295/295/295 296/296/296 297/297/297
f 298/298/298 299/299/299 300/300/300
f 301/301/301 302/302/302 303/303/303
f 304/304/304 305/305/305 306/306/306
f 307/307/307 308/308/308 309/309/309
f 310/310/310 311/311/311 312/312/312
f 313/313/313 314/314/314 315/315/315
f 316/316/316 317/317/317 318/318/318
f 319/319/319 320/320/320 321/321/321
f 322/322/322 323/323/323 324/324/324
f 325/325/325 326/326/326 327/327/327
f 328/328/328 329/329/329 330/330/330
f 331/331/331 332/332/332 333/333/333
f 334/334/334 335/335/335 336/336/336
f 337/337/337 338/338/338 339/339/339
f 340/340/340 341/341/341 342/342/342
f 343/343/343 344/344/344 345/345/345
f 346/346/346 347/347/347 348/348/348
f 349/349/349 350/350/350 351/351/351
f 352/352/352 353/353/353 354/354/354
f 355/355/355 356/356/356 357/357/357
f 358/358/358 359/359/359 360/360/360
f 361/361/361 362/362/362 363/363/363
f 364/364/364 365/365/365 366/366/366
f 367/367/367 368/368/368 369/369/369
f 370/370/370 371/371/371 372/372/372
f 373/373/373 374/374/374 375/375/375
f 376/376/376 377/377/377 378/378/378
f 379/379/379 380/380/380 381/381/381
f 382/382/382 383/383/383 384/384/384
f 385/385/385 386/386/386 387/387/387
f 388/388/388 389/389/389 390/390/390
f 391/391/391 392/392/392 393/393/393
f 394/394/394 395/395/395 396/396/396
f 397/397/397 398/398/398 399/399/399
f 400/400/400 401/401/401 402/402/402
f 403/403/403 404/404/404 405/405/405
f 406/406/406 407/407/407 408/408/408
f 409/409/409 410/410/410 411/411/411
f 412/412/412 413/413/413 414/414/414
f 415/415/415 416/416/416 417/417/417
f 418/418/418 419/419/419 420/420/420
f 421/421/421 422/422/422 423/423/423
f 424/424/424 425/425/425 426/426/426
f 427/427/427 428/428/428 429/429/429
f 430/430/430 431/431/431 432/432/432
f 433/433/433 434/434/434 435/435/435
f 436/436/436 437/437/437 438/438/438
f 439/439/439 440/440/440 441/441/441
f 442/442/442 443/443/443 444/444/444
f 445/445/445 446/446/446 447/447/447
f 448/448/448 449/449/449 450/450/450
f 451/451/451 452/452/452 453/453/453
f 454/454/454 455/455/455 456/456/456
f 457/457/457 458/458/458 459/459/459
f 460/460/460 461/461/461 462/462/462
f 463/463/463 464/464/464 465/465/465
f 466/466/466 467/467/467 468/468/468
f 469/469/469 470/470/470 471/471/471
f 472/472/472 473/473/473 474/474/474
f 475/475/475 476/476/476 477/477/477
f 478/478/478 479/479/479 480/480/480
f 481/481/481 482/482/482 483/483/483
f 484/484/484 485/485/485 486/486/486
f 487/487/487 488/488/488 489/489/489
f 490/490/490 491/491/491 492/492/492
f 493/493/493 494/494/494 495/495/495
f 496/496/496 497/497/497 498/498/498
f 499/499/499 500/500/500 501/501/501
f 502/502/502 503/503/503 504/504/504
f 505/505/505 506/506/506 507/507/507
f 508/508/508 509/509/509 510/510/510
f 511/511/511 512/512/512 513/513/513
f 514/514/514 515/515/515 516/516/516
f 517/517/517 518/518/518 519/519/519
f 520/520/520 521/521/521 522/522/522
f 523/523/523 524/524/524 525/525/525
f 526/526/526 527/527/527 528/528/528
f 529/529/529 530/530/530 531/531/531
f 532/532/532 533/533/533 534/534/534
f 535/535/535 536/536/536 537/537/537
f 538/538/538 539/539/539 540/540/540
f 541/541/541 542/542/542 543/543/543
f 544/544/544 545/545/545 546/546/546
f 547/547/547 548/548/548 549/549/549
f 550/550/550 551/551/551 552/552/552
f 553/553/553 554/554/554 555/555/555
f 556/556/556 557/557/557 558/558/558
f 559/559/559 560/560/560 561/561/561
f 562/562/562 563/563/563 564/564/564
f 565/565/565 566/566/566 567/567/567
f 568/568/568 569/569/569 570/570/570
f 571/571/571 572/572/572 573/573/573
f 574/574/574 575/575/575 576/576/576
f 577/577/577 578/578/578 579/579/579
f 580/580/580 581/581/581 582/582/582
f 583/583/583 584/584/584 585/585/585
f 586/586/586 587/587/587 588/588/588
f 589/589/589 590/590/590 591/591/591
f 592/592/592 593/593/593 594/594/594
f 595/595/595 596/596/596 597/597/597
f 598/598/598 599/599/599 600/600/600
f 601/601/601 602/602/602 603/603/603
f 604/604/604 605/605/605 606/606/606
f 607/607/607 608/608/608 609/609/609
f 610/610/610 611/611/611 612/612/612
f 613/613/613 614/614/614 615/615/615
f 616/616/616 617/617/617 618/618/618
f 619/619/619 620/620/620 621/621/621
f 622/622/622 623/623/623 624/624/624
f 625/625/625 626/626/626 627/627/627
f 628/628/628 629/629/629 630/630/630
f 631/631/631 632/632/632 633/633/633
f 634/634/634 635/635/635 636/636/636
f 637/637/637 638/638/638 639/639/639
f 640/640/640 641/641/641 642/642/642
f 643/643/643 644/644/644 645/645/645
f 646/646/646 647/647/647 648/648/648
f 649/649/649 650/650/650 651/651/651
f 652/652/652 653/653/653 654/654/654
f 655/655/655 656/656/656 657/657/657
f 658/658/658 659/659/659 660/660/660
f 661/661/661 662/662/662 663/663/663
f 664/664/664 665/665/665 666/666/666
f 667/667/667 668/668/668 669/669/669
f 670/670/670 671/671/671 672/672/672
f 673/673/673 674/674/674 675/675/675
f 676/676/676 677/677/677 678/678/678
f 679/679/679 680/680/680 681/681/681
f 682/682/682 683/683/683 684/684/684
f 685/685/685 686/686/686 687/687/687
f 688/688/688 689/689/689 690/690/690
f 691/691/691 692/692/692 693/693/693
f 694/694/694 695/695/695 696/696/696
f 697/697/697 698/698/698 699/699/699
f 700/700/700 701/701/701 702/702/702
f 703/703/703 704/704/704 705/705/705
f 706/706/706 707/707/707 708/708/708
f 709/709/709 710/710/710 711/711/711
f 712/712/712 713/713/713 714/714/714
f 715/715/715 716/716/716 717/717/717
f 718/718/718 719/719/719 720/720/720
f 721/721/721 722/722/722 723/723/723
f 724/724/724 725/725/725 726/726/726
f 727/727/727 728/728/728 729/729/729
f 730/730/730 731/731/731 732/732/732
f 733/733/733 734/734/734 735/735/735
f 736/736/736 737/737/737 738/738/738
f 739/739/739 740/740/740 741/741/741
f 742/742/742 743/743/743 744/744/744
f 745/745/745 746/746/746 747/747/747
f 748/748/748 749/749/749 750/750/750
f 751/751/751 752/752/752 753/753/753
f 754/754/754 755/755/755 756/756/756
f 757/757/757 758/758/758 759/759/759
f 760/760/760 761/761/761 762/762/762
f 763/763/763 764/764/764 765/765/765
f 766/766/766 767/767/767 768/768/768
f 769/769/769 770/770/770 771/771/771
f 772/772/772 773/773/773 774/774/774
f 775/775/775 776/776/776 777/777/777
f 778/778/778 779/779/779 780/780/780
f 781/781/781 782/782/782 783/783/783
f 784/784/784 785/785/785 786/786/786
f 787/787/787 788/788/788 789/789/789
f 790/790/790 791/791/791 792/792/792
f 793/793/793 794/794/794 795/795/795
f 796/796/796 797/797/797 798/798/798
f 799/799/799 800/800/800 801/801/801
f 802/802/802 803/803/803 804/804/804
f 805/805/805 806/806/806 807/807/807
f 808/808/808 809/809/809 810/810/810
f 811/811/811 812/812/812 813/813/813
f 814/814/814 815/815/815 816/816/816
f 817/817/817 818/818/818 819/819/819
f 820/820/820 821/821/821 822/822/822
f 823/823/823 824/824/824 825/825/825
f 826/826/826 827/827/827 828/828/828
f 829/829/829 830/830/830 831/831/831
f 832/832/832 833/833/833 834/834/834
f 835/835/835 836/836/836 837/837/837
f 838/838/838 839/839/839 840/840/840
f 841/841/841 842/842/842 843/843/843
f 844/844/844 845/845/845 846/846/846
f 847/847/847 848/848/848 849/849/849
f 850/850/850 851/851/851 852/852/852
f 853/853/853 854/854/854 855/855/855
f 856/856/856 857/857/857 858/858/858
f 859/859/859 860/860/860 861/861/861
f 862/862/862 863/863/863 864/864/864
