# Obsidian West — joint-local part geometry, +Y up, +Z forward
mtllib materials.mtl
o L_Wing_Membrane_4
v -0.109871 -0.000000 0.005327
v -0.057331 0.081412 -0.046747
v -0.178347 -1.310000 -2.150592
v -0.057331 0.081412 -0.046747
v -0.142642 -1.255323 -2.185400
v -0.178347 -1.310000 -2.150592
v -0.057331 0.081412 -0.046747
v 0.052540 0.081412 -0.052073
v -0.142642 -1.255323 -2.185400
v 0.052540 0.081412 -0.052073
v -0.068695 -1.255323 -2.188208
v -0.142642 -1.255323 -2.185400
v 0.052540 0.081412 -0.052073
v 0.109871 -0.000000 -0.005327
v -0.068695 -1.255323 -2.188208
v 0.109871 -0.000000 -0.005327
v -0.030453 -1.310000 -2.156208
v -0.068695 -1.255323 -2.188208
v 0.109871 -0.000000 -0.005327
v 0.057331 -0.081412 0.046747
v -0.030453 -1.310000 -2.156208
v 0.057331 -0.081412 0.046747
v -0.066158 -1.364677 -2.121400
v -0.030453 -1.310000 -2.156208
v 0.057331 -0.081412 0.046747
v -0.052540 -0.081412 0.052073
v -0.066158 -1.364677 -2.121400
v -0.052540 -0.081412 0.052073
v -0.140105 -1.364677 -2.118592
v -0.066158 -1.364677 -2.121400
v -0.052540 -0.081412 0.052073
v -0.109871 -0.000000 0.005327
v -0.140105 -1.364677 -2.118592
v -0.109871 -0.000000 0.005327
v -0.178347 -1.310000 -2.150592
v -0.140105 -1.364677 -2.118592
v -0.178347 -1.310000 -2.150592
v -0.142642 -1.255323 -2.185400
v -0.195993 -2.900000 -4.739532
v -0.142642 -1.255323 -2.185400
v -0.188209 -2.888194 -4.747017
v -0.195993 -2.900000 -4.739532
v -0.142642 -1.255323 -2.185400
v -0.068695 -1.255323 -2.188208
v -0.188209 -2.888194 -4.747017
v -0.068695 -1.255323 -2.188208
v -0.172215 -2.888194 -4.747485
v -0.188209 -2.888194 -4.747017
v -0.068695 -1.255323 -2.188208
v -0.030453 -1.310000 -2.156208
v -0.172215 -2.888194 -4.747485
v -0.030453 -1.310000 -2.156208
v -0.164007 -2.900000 -4.740468
v -0.172215 -2.888194 -4.747485
v -0.030453 -1.310000 -2.156208
v -0.066158 -1.364677 -2.121400
v -0.164007 -2.900000 -4.740468
v -0.066158 -1.364677 -2.121400
v -0.171792 -2.911806 -4.732983
v -0.164007 -2.900000 -4.740468
v -0.066158 -1.364677 -2.121400
v -0.140105 -1.364677 -2.118592
v -0.171792 -2.911806 -4.732983
v -0.140105 -1.364677 -2.118592
v -0.187785 -2.911806 -4.732515
v -0.171792 -2.911806 -4.732983
v -0.140105 -1.364677 -2.118592
v -0.178347 -1.310000 -2.150592
v -0.187785 -2.911806 -4.732515
v -0.178347 -1.310000 -2.150592
v -0.195993 -2.900000 -4.739532
v -0.187785 -2.911806 -4.732515
v -0.109871 -0.000000 0.005327
v 0.052540 0.081412 -0.052073
v -0.057331 0.081412 -0.046747
v -0.195993 -2.900000 -4.739532
v -0.188209 -2.888194 -4.747017
v -0.172215 -2.888194 -4.747485
v -0.109871 -0.000000 0.005327
v 0.109871 -0.000000 -0.005327
v 0.052540 0.081412 -0.052073
v -0.195993 -2.900000 -4.739532
v -0.172215 -2.888194 -4.747485
v -0.164007 -2.900000 -4.740468
v -0.109871 -0.000000 0.005327
v 0.057331 -0.081412 0.046747
v 0.109871 -0.000000 -0.005327
v -0.195993 -2.900000 -4.739532
v -0.164007 -2.900000 -4.740468
v -0.171792 -2.911806 -4.732983
v -0.109871 -0.000000 0.005327
v -0.052540 -0.081412 0.052073
v 0.057331 -0.081412 0.046747
v -0.195993 -2.900000 -4.739532
v -0.171792 -2.911806 -4.732983
v -0.187785 -2.911806 -4.732515
v 0.696828 -2.265525 -2.868781
v 0.000000 -0.000000 0.000000
v -0.104400 -1.310000 -2.153400
v 0.696828 -2.265525 -2.868781
v -0.104400 -1.310000 -2.153400
v -0.180000 -2.900000 -4.740000
v 0.696828 -2.265525 -2.868781
v -0.180000 -2.900000 -4.740000
v 0.273892 -2.633568 -3.995167
v 0.696828 -2.265525 -2.868781
v 0.273892 -2.633568 -3.995167
v 0.469116 -2.338276 -3.387396
v 0.696828 -2.265525 -2.868781
v 0.469116 -2.338276 -3.387396
v 0.653292 -2.577012 -3.636852
v 0.696828 -2.265525 -2.868781
v 0.653292 -2.577012 -3.636852
v 0.665532 -2.114852 -2.893092
v 0.696828 -2.265525 -2.868781
v 0.665532 -2.114852 -2.893092
v 0.938952 -2.545272 -3.384312
v 0.696828 -2.265525 -2.868781
v 0.938952 -2.545272 -3.384312
v 1.194075 -2.372925 -2.929725
v 0.696828 -2.265525 -2.868781
v 1.194075 -2.372925 -2.929725
v 1.465272 -2.544392 -3.010632
v 0.696828 -2.265525 -2.868781
v 1.465272 -2.544392 -3.010632
v 1.890000 -2.670000 -2.910000
v 0.696828 -2.265525 -2.868781
v 1.890000 -2.670000 -2.910000
v 1.096200 -1.740000 -1.384800
v 0.696828 -2.265525 -2.868781
v 1.096200 -1.740000 -1.384800
v 0.000000 -0.000000 0.000000
vt 0.453333 0.880000
vt 0.546667 0.880000
vt 0.500000 0.786667
vt 0.453333 0.880000
vt 0.546667 0.880000
vt 0.500000 0.786667
vt 0.453333 0.880000
vt 0.546667 0.880000
vt 0.500000 0.786667
vt 0.453333 0.880000
vt 0.546667 0.880000
vt 0.500000 0.786667
vt 0.453333 0.880000
vt 0.546667 0.880000
vt 0.500000 0.786667
vt 0.453333 0.880000
vt 0.546667 0.880000
vt 0.500000 0.786667
vt 0.453333 0.880000
vt 0.546667 0.880000
vt 0.500000 0.786667
vt 0.453333 0.880000
vt 0.546667 0.880000
vt 0.500000 0.786667
vt 0.453333 0.880000
vt 0.546667 0.880000
vt 0.500000 0.786667
vt 0.453333 0.880000
vt 0.546667 0.880000
vt 0.500000 0.786667
vt 0.453333 0.880000
vt 0.546667 0.880000
vt 0.500000 0.786667
vt 0.453333 0.880000
vt 0.546667 0.880000
vt 0.500000 0.786667
vt 0.453333 0.880000
vt 0.546667 0.880000
vt 0.500000 0.786667
vt 0.453333 0.880000
vt 0.546667 0.880000
vt 0.500000 0.786667
vt 0.453333 0.880000
vt 0.546667 0.880000
vt 0.500000 0.786667
vt 0.453333 0.880000
vt 0.546667 0.880000
vt 0.500000 0.786667
vt 0.453333 0.880000
vt 0.546667 0.880000
vt 0.500000 0.786667
vt 0.453333 0.880000
vt 0.546667 0.880000
vt 0.500000 0.786667
vt 0.453333 0.880000
vt 0.546667 0.880000
vt 0.500000 0.786667
vt 0.453333 0.880000
vt 0.546667 0.880000
vt 0.500000 0.786667
vt 0.453333 0.880000
vt 0.546667 0.880000
vt 0.500000 0.786667
vt 0.453333 0.880000
vt 0.546667 0.880000
vt 0.500000 0.786667
vt 0.453333 0.880000
vt 0.546667 0.880000
vt 0.500000 0.786667
vt 0.453333 0.880000
vt 0.546667 0.880000
vt 0.500000 0.786667
vt 0.453333 0.880000
vt 0.546667 0.880000
vt 0.500000 0.786667
vt 0.453333 0.880000
vt 0.546667 0.880000
vt 0.500000 0.786667
vt 0.453333 0.880000
vt 0.546667 0.880000
vt 0.500000 0.786667
vt 0.453333 0.880000
vt 0.546667 0.880000
vt 0.500000 0.786667
vt 0.453333 0.880000
vt 0.546667 0.880000
vt 0.500000 0.786667
vt 0.453333 0.880000
vt 0.546667 0.880000
vt 0.500000 0.786667
vt 0.453333 0.880000
vt 0.546667 0.880000
vt 0.500000 0.786667
vt 0.453333 0.880000
vt 0.546667 0.880000
vt 0.500000 0.786667
vt 0.120000 0.546667
vt 0.213333 0.546667
vt 0.166667 0.453333
vt 0.120000 0.546667
vt 0.213333 0.546667
vt 0.166667 0.453333
vt 0.120000 0.546667
vt 0.213333 0.546667
vt 0.166667 0.453333
vt 0.120000 0.546667
vt 0.213333 0.546667
vt 0.166667 0.453333
vt 0.120000 0.546667
vt 0.213333 0.546667
vt 0.166667 0.453333
vt 0.120000 0.546667
vt 0.213333 0.546667
vt 0.166667 0.453333
vt 0.120000 0.546667
vt 0.213333 0.546667
vt 0.166667 0.453333
vt 0.120000 0.546667
vt 0.213333 0.546667
vt 0.166667 0.453333
vt 0.120000 0.546667
vt 0.213333 0.546667
vt 0.166667 0.453333
vt 0.120000 0.546667
vt 0.213333 0.546667
vt 0.166667 0.453333
vt 0.120000 0.546667
vt 0.213333 0.546667
vt 0.166667 0.453333
vt 0.120000 0.546667
vt 0.213333 0.546667
vt 0.166667 0.453333
vn -0.978311 -0.078434 0.191718
vn -0.637156 0.672800 -0.375994
vn -0.995464 0.089169 -0.033163
vn -0.637156 0.672800 -0.375994
vn -0.417232 0.773988 -0.476299
vn -0.995464 0.089169 -0.033163
vn -0.637156 0.672800 -0.375994
vn 0.349046 0.810751 -0.469946
vn -0.417232 0.773988 -0.476299
vn 0.349046 0.810751 -0.469946
vn 0.577644 0.676363 -0.457013
vn -0.417232 0.773988 -0.476299
vn 0.349046 0.810751 -0.469946
vn 0.985908 0.147682 -0.078588
vn 0.577644 0.676363 -0.457013
vn 0.985908 0.147682 -0.078588
vn 0.994340 -0.106111 0.005425
vn 0.577644 0.676363 -0.457013
vn 0.985908 0.147682 -0.078588
vn 0.638284 -0.653523 0.406817
vn 0.994340 -0.106111 0.005425
vn 0.638284 -0.653523 0.406817
vn 0.416093 -0.790972 0.448587
vn 0.994340 -0.106111 0.005425
vn 0.638284 -0.653523 0.406817
vn -0.347754 -0.792332 0.501275
vn 0.416093 -0.790972 0.448587
vn -0.347754 -0.792332 0.501275
vn -0.578820 -0.693314 0.429283
vn 0.416093 -0.790972 0.448587
vn -0.347754 -0.792332 0.501275
vn -0.978311 -0.078434 0.191718
vn -0.578820 -0.693314 0.429283
vn -0.978311 -0.078434 0.191718
vn -0.995464 0.089169 -0.033163
vn -0.578820 -0.693314 0.429283
vn -0.995464 0.089169 -0.033163
vn -0.417232 0.773988 -0.476299
vn -0.934361 0.304153 -0.185636
vn -0.417232 0.773988 -0.476299
vn -0.158962 0.833403 -0.529311
vn -0.934361 0.304153 -0.185636
vn -0.417232 0.773988 -0.476299
vn 0.577644 0.676363 -0.457013
vn -0.158962 0.833403 -0.529311
vn 0.577644 0.676363 -0.457013
vn 0.774913 0.516890 -0.363777
vn -0.158962 0.833403 -0.529311
vn 0.577644 0.676363 -0.457013
vn 0.994340 -0.106111 0.005425
vn 0.774913 0.516890 -0.363777
vn 0.994340 -0.106111 0.005425
vn 0.933307 -0.326603 0.149228
vn 0.774913 0.516890 -0.363777
vn 0.994340 -0.106111 0.005425
vn 0.416093 -0.790972 0.448587
vn 0.933307 -0.326603 0.149228
vn 0.416093 -0.790972 0.448587
vn 0.157800 -0.853490 0.496642
vn 0.933307 -0.326603 0.149228
vn 0.416093 -0.790972 0.448587
vn -0.578820 -0.693314 0.429283
vn 0.157800 -0.853490 0.496642
vn -0.578820 -0.693314 0.429283
vn -0.775991 -0.536885 0.331049
vn 0.157800 -0.853490 0.496642
vn -0.578820 -0.693314 0.429283
vn -0.995464 0.089169 -0.033163
vn -0.775991 -0.536885 0.331049
vn -0.995464 0.089169 -0.033163
vn -0.934361 0.304153 -0.185636
vn -0.775991 -0.536885 0.331049
vn -0.978311 -0.078434 0.191718
vn 0.349046 0.810751 -0.469946
vn -0.637156 0.672800 -0.375994
vn -0.934361 0.304153 -0.185636
vn -0.158962 0.833403 -0.529311
vn 0.774913 0.516890 -0.363777
vn -0.978311 -0.078434 0.191718
vn 0.985908 0.147682 -0.078588
vn 0.349046 0.810751 -0.469946
vn -0.934361 0.304153 -0.185636
vn 0.774913 0.516890 -0.363777
vn 0.933307 -0.326603 0.149228
vn -0.978311 -0.078434 0.191718
vn 0.638284 -0.653523 0.406817
vn 0.985908 0.147682 -0.078588
vn -0.934361 0.304153 -0.185636
vn 0.933307 -0.326603 0.149228
vn 0.157800 -0.853490 0.496642
vn -0.978311 -0.078434 0.191718
vn -0.347754 -0.792332 0.501275
vn 0.638284 -0.653523 0.406817
vn -0.934361 0.304153 -0.185636
vn 0.157800 -0.853490 0.496642
vn -0.775991 -0.536885 0.331049
vn -0.449617 -0.784529 0.427035
vn -0.538247 -0.720081 0.437920
vn -0.466623 -0.746456 0.474412
vn -0.449617 -0.784529 0.427035
vn -0.466623 -0.746456 0.474412
vn -0.434403 -0.771349 0.465097
vn -0.449617 -0.784529 0.427035
vn -0.434403 -0.771349 0.465097
vn 0.646728 -0.762694 0.006374
vn -0.449617 -0.784529 0.427035
vn 0.646728 -0.762694 0.006374
vn 0.028089 -0.991536 0.126759
vn -0.449617 -0.784529 0.427035
vn 0.028089 -0.991536 0.126759
vn 0.125690 -0.921806 0.366709
vn -0.449617 -0.784529 0.427035
vn 0.125690 -0.921806 0.366709
vn 0.661232 0.016332 -0.750004
vn -0.449617 -0.784529 0.427035
vn 0.661232 0.016332 -0.750004
vn -0.405161 -0.869770 0.281683
vn -0.449617 -0.784529 0.427035
vn -0.405161 -0.869770 0.281683
vn -0.175212 -0.952516 0.249026
vn -0.449617 -0.784529 0.427035
vn -0.175212 -0.952516 0.249026
vn -0.371924 -0.889002 -0.267110
vn -0.449617 -0.784529 0.427035
vn -0.371924 -0.889002 -0.267110
vn -0.286481 -0.882989 0.371833
vn -0.449617 -0.784529 0.427035
vn -0.286481 -0.882989 0.371833
vn -0.478086 -0.779513 0.404714
vn -0.449617 -0.784529 0.427035
vn -0.478086 -0.779513 0.404714
vn -0.538247 -0.720081 0.437920
usemtl Dragon_color_atlas
f 1/1/1 2/2/2 3/3/3
f 4/4/4 5/5/5 6/6/6
f 7/7/7 8/8/8 9/9/9
f 10/10/10 11/11/11 12/12/12
f 13/13/13 14/14/14 15/15/15
f 16/16/16 17/17/17 18/18/18
f 19/19/19 20/20/20 21/21/21
f 22/22/22 23/23/23 24/24/24
f 25/25/25 26/26/26 27/27/27
f 28/28/28 29/29/29 30/30/30
f 31/31/31 32/32/32 33/33/33
f 34/34/34 35/35/35 36/36/36
f 37/37/37 38/38/38 39/39/39
f 40/40/40 41/41/41 42/42/42
f 43/43/43 44/44/44 45/45/45
f 46/46/46 47/47/47 48/48/48
f 49/49/49 50/50/50 51/51/51
f 52/52/52 53/53/53 54/54/54
f 55/55/55 56/56/56 57/57/57
f 58/58/58 59/59/59 60/60/60
f 61/61/61 62/62/62 63/63/63
f 64/64/64 65/65/65 66/66/66
f 67/67/67 68/68/68 69/69/69
f 70/70/70 71/71/71 72/72/72
f 73/73/73 74/74/74 75/75/75
f 76/76/76 77/77/77 78/78/78
f 79/79/79 80/80/80 81/81/81
f 82/82/82 83/83/83 84/84/84
f 85/85/85 86/86/86 87/87/87
f 88/88/88 89/89/89 90/90/90
f 91/91/91 92/92/92 93/93/93
f 94/94/94 95/95/95 96/96/96
f 97/97/97 98/98/98 99/99/99
f 100/100/100 101/101/101 102/102/102
f 103/103/103 104/104/104 105/105/105
f 106/106/106 107/107/107 108/108/108
f 109/109/109 110/110/110 111/111/111
f 112/112/112 113/113/113 114/114/114
f 115/115/115 116/116/116 117/117/117
f 118/118/118 119/119/119 120/120/120
f 121/121/121 122/122/122 123/123/123
f 124/124/124 125/125/125 126/126/126
f 127/127/127 128/128/128 129/129/129
f 130/130/130 131/131/131 132/132/132
