# Obsidian West — joint-local part geometry, +Y up, +Z forward
mtllib materials.mtl
o L_Wing_UpperArm
v 0.030097 -0.000000 0.489075
v 0.193442 0.264692 0.364168
v -0.639234 0.420000 0.459862
v 0.193442 0.264692 0.364168
v -0.503224 0.651693 0.358081
v -0.639234 0.420000 0.459862
v 0.193442 0.264692 0.364168
v 0.266274 0.405532 0.068863
v -0.503224 0.651693 0.358081
v 0.266274 0.405532 0.068863
v -0.435893 0.774974 0.107466
v -0.503224 0.651693 0.358081
v 0.266274 0.405532 0.068863
v 0.214513 0.356619 -0.258664
v -0.435893 0.774974 0.107466
v 0.214513 0.356619 -0.258664
v -0.468744 0.732158 -0.174717
v -0.435893 0.774974 0.107466
v 0.214513 0.356619 -0.258664
v 0.062379 0.140840 -0.465159
v -0.468744 0.732158 -0.174717
v 0.062379 0.140840 -0.465159
v -0.586407 0.543281 -0.356431
v -0.468744 0.732158 -0.174717
v 0.062379 0.140840 -0.465159
v -0.118943 -0.140840 -0.454001
v -0.586407 0.543281 -0.356431
v -0.118943 -0.140840 -0.454001
v -0.733826 0.296719 -0.352651
v -0.586407 0.543281 -0.356431
v -0.118943 -0.140840 -0.454001
v -0.244610 -0.356619 -0.230411
v -0.733826 0.296719 -0.352651
v -0.244610 -0.356619 -0.230411
v -0.842022 0.107841 -0.165145
v -0.733826 0.296719 -0.352651
v -0.244610 -0.356619 -0.230411
v -0.255821 -0.405532 0.100991
v -0.842022 0.107841 -0.165145
v -0.255821 -0.405532 0.100991
v -0.860368 0.065026 0.118350
v -0.842022 0.107841 -0.165145
v -0.255821 -0.405532 0.100991
v -0.147331 -0.264692 0.385138
v -0.860368 0.065026 0.118350
v -0.147331 -0.264692 0.385138
v -0.780281 0.188308 0.365185
v -0.860368 0.065026 0.118350
v -0.147331 -0.264692 0.385138
v 0.030097 -0.000000 0.489075
v -0.780281 0.188308 0.365185
v 0.030097 -0.000000 0.489075
v -0.639234 0.420000 0.459862
v -0.780281 0.188308 0.365185
v -0.639234 0.420000 0.459862
v -0.503224 0.651693 0.358081
v -1.175960 0.700000 0.339943
v -0.503224 0.651693 0.358081
v -1.080126 0.875454 0.269246
v -1.175960 0.700000 0.339943
v -0.503224 0.651693 0.358081
v -0.435893 0.774974 0.107466
v -1.080126 0.875454 0.269246
v -0.435893 0.774974 0.107466
v -1.026344 0.968810 0.086603
v -1.080126 0.875454 0.269246
v -0.435893 0.774974 0.107466
v -0.468744 0.732158 -0.174717
v -1.026344 0.968810 0.086603
v -0.468744 0.732158 -0.174717
v -1.039781 0.936388 -0.122524
v -1.026344 0.968810 0.086603
v -0.468744 0.732158 -0.174717
v -0.586407 0.543281 -0.356431
v -1.039781 0.936388 -0.122524
v -0.586407 0.543281 -0.356431
v -1.114148 0.793357 -0.260285
v -1.039781 0.936388 -0.122524
v -0.586407 0.543281 -0.356431
v -0.733826 0.296719 -0.352651
v -1.114148 0.793357 -0.260285
v -0.733826 0.296719 -0.352651
v -1.214650 0.606643 -0.262217
v -1.114148 0.793357 -0.260285
v -0.733826 0.296719 -0.352651
v -0.842022 0.107841 -0.165145
v -1.214650 0.606643 -0.262217
v -0.842022 0.107841 -0.165145
v -1.294258 0.463612 -0.127418
v -1.214650 0.606643 -0.262217
v -0.842022 0.107841 -0.165145
v -0.860368 0.065026 0.118350
v -1.294258 0.463612 -0.127418
v -0.860368 0.065026 0.118350
v -1.315726 0.431189 0.081038
v -1.294258 0.463612 -0.127418
v -0.860368 0.065026 0.118350
v -0.780281 0.188308 0.365185
v -1.315726 0.431189 0.081038
v -0.780281 0.188308 0.365185
v -1.269006 0.524546 0.265614
v -1.315726 0.431189 0.081038
v -0.780281 0.188308 0.365185
v -0.639234 0.420000 0.459862
v -1.269006 0.524546 0.265614
v -0.639234 0.420000 0.459862
v -1.175960 0.700000 0.339943
v -1.269006 0.524546 0.265614
v 0.030097 -0.000000 0.489075
v 0.266274 0.405532 0.068863
v 0.193442 0.264692 0.364168
v -1.175960 0.700000 0.339943
v -1.080126 0.875454 0.269246
v -1.026344 0.968810 0.086603
v 0.030097 -0.000000 0.489075
v 0.214513 0.356619 -0.258664
v 0.266274 0.405532 0.068863
v -1.175960 0.700000 0.339943
v -1.026344 0.968810 0.086603
v -1.039781 0.936388 -0.122524
v 0.030097 -0.000000 0.489075
v 0.062379 0.140840 -0.465159
v 0.214513 0.356619 -0.258664
v -1.175960 0.700000 0.339943
v -1.039781 0.936388 -0.122524
v -1.114148 0.793357 -0.260285
v 0.030097 -0.000000 0.489075
v -0.118943 -0.140840 -0.454001
v 0.062379 0.140840 -0.465159
v -1.175960 0.700000 0.339943
v -1.114148 0.793357 -0.260285
v -1.214650 0.606643 -0.262217
v 0.030097 -0.000000 0.489075
v -0.244610 -0.356619 -0.230411
v -0.118943 -0.140840 -0.454001
v -1.175960 0.700000 0.339943
v -1.214650 0.606643 -0.262217
v -1.294258 0.463612 -0.127418
v 0.030097 -0.000000 0.489075
v -0.255821 -0.405532 0.100991
v -0.244610 -0.356619 -0.230411
v -1.175960 0.700000 0.339943
v -1.294258 0.463612 -0.127418
v -1.315726 0.431189 0.081038
v 0.030097 -0.000000 0.489075
v -0.147331 -0.264692 0.385138
v -0.255821 -0.405532 0.100991
v -1.175960 0.700000 0.339943
v -1.315726 0.431189 0.081038
v -1.269006 0.524546 0.265614
v -0.530000 0.960000 0.070000
v -0.755620 0.905533 0.070000
v -0.702835 0.905533 0.234548
v -0.530000 0.960000 0.070000
v -0.702835 0.905533 0.234548
v -0.569178 0.905533 0.322102
v -0.530000 0.960000 0.070000
v -0.569178 0.905533 0.322102
v -0.417190 0.905533 0.291695
v -0.530000 0.960000 0.070000
v -0.417190 0.905533 0.291695
v -0.317987 0.905533 0.157554
v -0.530000 0.960000 0.070000
v -0.317987 0.905533 0.157554
v -0.317987 0.905533 -0.017554
v -0.530000 0.960000 0.070000
v -0.317987 0.905533 -0.017554
v -0.417190 0.905533 -0.151695
v -0.530000 0.960000 0.070000
v -0.417190 0.905533 -0.151695
v -0.569178 0.905533 -0.182102
v -0.530000 0.960000 0.070000
v -0.569178 0.905533 -0.182102
v -0.702835 0.905533 -0.094548
v -0.530000 0.960000 0.070000
v -0.702835 0.905533 -0.094548
v -0.755620 0.905533 0.070000
v -0.702835 0.905533 0.234548
v -0.755620 0.905533 0.070000
v -0.841437 0.752919 0.366505
v -0.755620 0.905533 0.070000
v -0.936552 0.752919 0.070000
v -0.841437 0.752919 0.366505
v -0.569178 0.905533 0.322102
v -0.702835 0.905533 0.234548
v -0.600597 0.752919 0.524273
v -0.702835 0.905533 0.234548
v -0.841437 0.752919 0.366505
v -0.600597 0.752919 0.524273
v -0.417190 0.905533 0.291695
v -0.569178 0.905533 0.322102
v -0.326724 0.752919 0.469481
v -0.569178 0.905533 0.322102
v -0.600597 0.752919 0.524273
v -0.326724 0.752919 0.469481
v -0.317987 0.905533 0.157554
v -0.417190 0.905533 0.291695
v -0.147966 0.752919 0.227767
v -0.417190 0.905533 0.291695
v -0.326724 0.752919 0.469481
v -0.147966 0.752919 0.227767
v -0.317987 0.905533 -0.017554
v -0.317987 0.905533 0.157554
v -0.147966 0.752919 -0.087767
v -0.317987 0.905533 0.157554
v -0.147966 0.752919 0.227767
v -0.147966 0.752919 -0.087767
v -0.417190 0.905533 -0.151695
v -0.317987 0.905533 -0.017554
v -0.326724 0.752919 -0.329481
v -0.317987 0.905533 -0.017554
v -0.147966 0.752919 -0.087767
v -0.326724 0.752919 -0.329481
v -0.569178 0.905533 -0.182102
v -0.417190 0.905533 -0.151695
v -0.600597 0.752919 -0.384273
v -0.417190 0.905533 -0.151695
v -0.326724 0.752919 -0.329481
v -0.600597 0.752919 -0.384273
v -0.702835 0.905533 -0.094548
v -0.569178 0.905533 -0.182102
v -0.841437 0.752919 -0.226505
v -0.569178 0.905533 -0.182102
v -0.600597 0.752919 -0.384273
v -0.841437 0.752919 -0.226505
v -0.755620 0.905533 0.070000
v -0.702835 0.905533 -0.094548
v -0.936552 0.752919 0.070000
v -0.702835 0.905533 -0.094548
v -0.841437 0.752919 -0.226505
v -0.936552 0.752919 0.070000
v -0.841437 0.752919 0.366505
v -0.936552 0.752919 0.070000
v -0.918356 0.532387 0.439736
v -0.936552 0.752919 0.070000
v -1.036963 0.532387 0.070000
v -0.918356 0.532387 0.439736
v -0.600597 0.752919 0.524273
v -0.841437 0.752919 0.366505
v -0.618033 0.532387 0.636469
v -0.841437 0.752919 0.366505
v -0.918356 0.532387 0.439736
v -0.618033 0.532387 0.636469
v -0.326724 0.752919 0.469481
v -0.600597 0.752919 0.524273
v -0.276519 0.532387 0.568144
v -0.600597 0.752919 0.524273
v -0.618033 0.532387 0.636469
v -0.276519 0.532387 0.568144
v -0.147966 0.752919 0.227767
v -0.326724 0.752919 0.469481
v -0.053611 0.532387 0.266733
v -0.326724 0.752919 0.469481
v -0.276519 0.532387 0.568144
v -0.053611 0.532387 0.266733
v -0.147966 0.752919 -0.087767
v -0.147966 0.752919 0.227767
v -0.053611 0.532387 -0.126733
v -0.147966 0.752919 0.227767
v -0.053611 0.532387 0.266733
v -0.053611 0.532387 -0.126733
v -0.326724 0.752919 -0.329481
v -0.147966 0.752919 -0.087767
v -0.276519 0.532387 -0.428144
v -0.147966 0.752919 -0.087767
v -0.053611 0.532387 -0.126733
v -0.276519 0.532387 -0.428144
v -0.600597 0.752919 -0.384273
v -0.326724 0.752919 -0.329481
v -0.618033 0.532387 -0.496469
v -0.326724 0.752919 -0.329481
v -0.276519 0.532387 -0.428144
v -0.618033 0.532387 -0.496469
v -0.841437 0.752919 -0.226505
v -0.600597 0.752919 -0.384273
v -0.918356 0.532387 -0.299736
v -0.600597 0.752919 -0.384273
v -0.618033 0.532387 -0.496469
v -0.918356 0.532387 -0.299736
v -0.936552 0.752919 0.070000
v -0.841437 0.752919 -0.226505
v -1.036963 0.532387 0.070000
v -0.841437 0.752919 -0.226505
v -0.918356 0.532387 -0.299736
v -1.036963 0.532387 0.070000
v -0.918356 0.532387 0.439736
v -1.036963 0.532387 0.070000
v -0.918356 0.287614 0.439736
v -1.036963 0.532387 0.070000
v -1.036963 0.287614 0.070000
v -0.918356 0.287614 0.439736
v -0.618033 0.532387 0.636469
v -0.918356 0.532387 0.439736
v -0.618033 0.287614 0.636469
v -0.918356 0.532387 0.439736
v -0.918356 0.287614 0.439736
v -0.618033 0.287614 0.636469
v -0.276519 0.532387 0.568144
v -0.618033 0.532387 0.636469
v -0.276519 0.287614 0.568144
v -0.618033 0.532387 0.636469
v -0.618033 0.287614 0.636469
v -0.276519 0.287614 0.568144
v -0.053611 0.532387 0.266733
v -0.276519 0.532387 0.568144
v -0.053611 0.287614 0.266733
v -0.276519 0.532387 0.568144
v -0.276519 0.287614 0.568144
v -0.053611 0.287614 0.266733
v -0.053611 0.532387 -0.126733
v -0.053611 0.532387 0.266733
v -0.053611 0.287614 -0.126733
v -0.053611 0.532387 0.266733
v -0.053611 0.287614 0.266733
v -0.053611 0.287614 -0.126733
v -0.276519 0.532387 -0.428144
v -0.053611 0.532387 -0.126733
v -0.276519 0.287614 -0.428144
v -0.053611 0.532387 -0.126733
v -0.053611 0.287614 -0.126733
v -0.276519 0.287614 -0.428144
v -0.618033 0.532387 -0.496469
v -0.276519 0.532387 -0.428144
v -0.618033 0.287614 -0.496469
v -0.276519 0.532387 -0.428144
v -0.276519 0.287614 -0.428144
v -0.618033 0.287614 -0.496469
v -0.918356 0.532387 -0.299736
v -0.618033 0.532387 -0.496469
v -0.918356 0.287614 -0.299736
v -0.618033 0.532387 -0.496469
v -0.618033 0.287614 -0.496469
v -0.918356 0.287614 -0.299736
v -1.036963 0.532387 0.070000
v -0.918356 0.532387 -0.299736
v -1.036963 0.287614 0.070000
v -0.918356 0.532387 -0.299736
v -0.918356 0.287614 -0.299736
v -1.036963 0.287614 0.070000
v -0.918356 0.287614 0.439736
v -1.036963 0.287614 0.070000
v -0.841437 0.067081 0.366505
v -1.036963 0.287614 0.070000
v -0.936552 0.067081 0.070000
v -0.841437 0.067081 0.366505
v -0.618033 0.287614 0.636469
v -0.918356 0.287614 0.439736
v -0.600597 0.067081 0.524273
v -0.918356 0.287614 0.439736
v -0.841437 0.067081 0.366505
v -0.600597 0.067081 0.524273
v -0.276519 0.287614 0.568144
v -0.618033 0.287614 0.636469
v -0.326724 0.067081 0.469481
v -0.618033 0.287614 0.636469
v -0.600597 0.067081 0.524273
v -0.326724 0.067081 0.469481
v -0.053611 0.287614 0.266733
v -0.276519 0.287614 0.568144
v -0.147966 0.067081 0.227767
v -0.276519 0.287614 0.568144
v -0.326724 0.067081 0.469481
v -0.147966 0.067081 0.227767
v -0.053611 0.287614 -0.126733
v -0.053611 0.287614 0.266733
v -0.147966 0.067081 -0.087767
v -0.053611 0.287614 0.266733
v -0.147966 0.067081 0.227767
v -0.147966 0.067081 -0.087767
v -0.276519 0.287614 -0.428144
v -0.053611 0.287614 -0.126733
v -0.326724 0.067081 -0.329481
v -0.053611 0.287614 -0.126733
v -0.147966 0.067081 -0.087767
v -0.326724 0.067081 -0.329481
v -0.618033 0.287614 -0.496469
v -0.276519 0.287614 -0.428144
v -0.600597 0.067081 -0.384273
v -0.276519 0.287614 -0.428144
v -0.326724 0.067081 -0.329481
v -0.600597 0.067081 -0.384273
v -0.918356 0.287614 -0.299736
v -0.618033 0.287614 -0.496469
v -0.841437 0.067081 -0.226505
v -0.618033 0.287614 -0.496469
v -0.600597 0.067081 -0.384273
v -0.841437 0.067081 -0.226505
v -1.036963 0.287614 0.070000
v -0.918356 0.287614 -0.299736
v -0.936552 0.067081 0.070000
v -0.918356 0.287614 -0.299736
v -0.841437 0.067081 -0.226505
v -0.936552 0.067081 0.070000
v -0.841437 0.067081 0.366505
v -0.936552 0.067081 0.070000
v -0.702835 -0.085533 0.234548
v -0.936552 0.067081 0.070000
v -0.755620 -0.085533 0.070000
v -0.702835 -0.085533 0.234548
v -0.600597 0.067081 0.524273
v -0.841437 0.067081 0.366505
v -0.569178 -0.085533 0.322102
v -0.841437 0.067081 0.366505
v -0.702835 -0.085533 0.234548
v -0.569178 -0.085533 0.322102
v -0.326724 0.067081 0.469481
v -0.600597 0.067081 0.524273
v -0.417190 -0.085533 0.291695
v -0.600597 0.067081 0.524273
v -0.569178 -0.085533 0.322102
v -0.417190 -0.085533 0.291695
v -0.147966 0.067081 0.227767
v -0.326724 0.067081 0.469481
v -0.317987 -0.085533 0.157554
v -0.326724 0.067081 0.469481
v -0.417190 -0.085533 0.291695
v -0.317987 -0.085533 0.157554
v -0.147966 0.067081 -0.087767
v -0.147966 0.067081 0.227767
v -0.317987 -0.085533 -0.017554
v -0.147966 0.067081 0.227767
v -0.317987 -0.085533 0.157554
v -0.317987 -0.085533 -0.017554
v -0.326724 0.067081 -0.329481
v -0.147966 0.067081 -0.087767
v -0.417190 -0.085533 -0.151695
v -0.147966 0.067081 -0.087767
v -0.317987 -0.085533 -0.017554
v -0.417190 -0.085533 -0.151695
v -0.600597 0.067081 -0.384273
v -0.326724 0.067081 -0.329481
v -0.569178 -0.085533 -0.182102
v -0.326724 0.067081 -0.329481
v -0.417190 -0.085533 -0.151695
v -0.569178 -0.085533 -0.182102
v -0.841437 0.067081 -0.226505
v -0.600597 0.067081 -0.384273
v -0.702835 -0.085533 -0.094548
v -0.600597 0.067081 -0.384273
v -0.569178 -0.085533 -0.182102
v -0.702835 -0.085533 -0.094548
v -0.936552 0.067081 0.070000
v -0.841437 0.067081 -0.226505
v -0.755620 -0.085533 0.070000
v -0.841437 0.067081 -0.226505
v -0.702835 -0.085533 -0.094548
v -0.755620 -0.085533 0.070000
v -0.702835 -0.085533 0.234548
v -0.755620 -0.085533 0.070000
v -0.530000 -0.140000 0.070000
v -0.569178 -0.085533 0.322102
v -0.702835 -0.085533 0.234548
v -0.530000 -0.140000 0.070000
v -0.417190 -0.085533 0.291695
v -0.569178 -0.085533 0.322102
v -0.530000 -0.140000 0.070000
v -0.317987 -0.085533 0.157554
v -0.417190 -0.085533 0.291695
v -0.530000 -0.140000 0.070000
v -0.317987 -0.085533 -0.017554
v -0.317987 -0.085533 0.157554
v -0.530000 -0.140000 0.070000
v -0.417190 -0.085533 -0.151695
v -0.317987 -0.085533 -0.017554
v -0.530000 -0.140000 0.070000
v -0.569178 -0.085533 -0.182102
v -0.417190 -0.085533 -0.151695
v -0.530000 -0.140000 0.070000
v -0.702835 -0.085533 -0.094548
v -0.569178 -0.085533 -0.182102
v -0.530000 -0.140000 0.070000
v -0.755620 -0.085533 0.070000
v -0.702835 -0.085533 -0.094548
v -0.530000 -0.140000 0.070000
v -0.708540 0.730000 -0.185872
v -0.569402 0.871343 -0.002110
v -0.557899 1.063900 -0.453319
v -0.569402 0.871343 -0.002110
v -0.491113 1.131745 -0.365113
v -0.557899 1.063900 -0.453319
v -0.569402 0.871343 -0.002110
v -0.306713 0.817355 -0.036546
v -0.491113 1.131745 -0.365113
v -0.306713 0.817355 -0.036546
v -0.365022 1.105830 -0.381642
v -0.491113 1.131745 -0.365113
v -0.306713 0.817355 -0.036546
v -0.283501 0.642645 -0.241592
v -0.365022 1.105830 -0.381642
v -0.283501 0.642645 -0.241592
v -0.353880 1.021970 -0.480064
v -0.365022 1.105830 -0.381642
v -0.283501 0.642645 -0.241592
v -0.531843 0.588657 -0.333881
v -0.353880 1.021970 -0.480064
v -0.531843 0.588657 -0.333881
v -0.473085 0.996055 -0.524363
v -0.353880 1.021970 -0.480064
v -0.531843 0.588657 -0.333881
v -0.708540 0.730000 -0.185872
v -0.473085 0.996055 -0.524363
v -0.708540 0.730000 -0.185872
v -0.557899 1.063900 -0.453319
v -0.473085 0.996055 -0.524363
v -0.557899 1.063900 -0.453319
v -0.491113 1.131745 -0.365113
v -0.428943 1.360000 -0.691012
v -0.491113 1.131745 -0.365113
v -0.423498 1.365531 -0.683822
v -0.428943 1.360000 -0.691012
v -0.491113 1.131745 -0.365113
v -0.365022 1.105830 -0.381642
v -0.423498 1.365531 -0.683822
v -0.365022 1.105830 -0.381642
v -0.413219 1.363418 -0.685169
v -0.423498 1.365531 -0.683822
v -0.365022 1.105830 -0.381642
v -0.353880 1.021970 -0.480064
v -0.413219 1.363418 -0.685169
v -0.353880 1.021970 -0.480064
v -0.412311 1.356582 -0.693193
v -0.413219 1.363418 -0.685169
v -0.353880 1.021970 -0.480064
v -0.473085 0.996055 -0.524363
v -0.412311 1.356582 -0.693193
v -0.473085 0.996055 -0.524363
v -0.422029 1.354469 -0.696804
v -0.412311 1.356582 -0.693193
v -0.473085 0.996055 -0.524363
v -0.557899 1.063900 -0.453319
v -0.422029 1.354469 -0.696804
v -0.557899 1.063900 -0.453319
v -0.428943 1.360000 -0.691012
v -0.422029 1.354469 -0.696804
v -0.708540 0.730000 -0.185872
v -0.306713 0.817355 -0.036546
v -0.569402 0.871343 -0.002110
v -0.428943 1.360000 -0.691012
v -0.423498 1.365531 -0.683822
v -0.413219 1.363418 -0.685169
v -0.708540 0.730000 -0.185872
v -0.283501 0.642645 -0.241592
v -0.306713 0.817355 -0.036546
v -0.428943 1.360000 -0.691012
v -0.413219 1.363418 -0.685169
v -0.412311 1.356582 -0.693193
v -0.708540 0.730000 -0.185872
v -0.531843 0.588657 -0.333881
v -0.283501 0.642645 -0.241592
v -0.428943 1.360000 -0.691012
v -0.412311 1.356582 -0.693193
v -0.422029 1.354469 -0.696804
v -0.299751 0.860000 0.430498
v -0.347403 0.942671 0.384796
v -0.622004 0.770000 0.588182
v -0.347403 0.942671 0.384796
v -0.686013 0.837497 0.537775
v -0.622004 0.770000 0.588182
v -0.347403 0.942671 0.384796
v -0.384825 0.911093 0.291007
v -0.686013 0.837497 0.537775
v -0.384825 0.911093 0.291007
v -0.686434 0.811715 0.435164
v -0.686013 0.837497 0.537775
v -0.384825 0.911093 0.291007
v -0.360300 0.808907 0.278744
v -0.686434 0.811715 0.435164
v -0.360300 0.808907 0.278744
v -0.622685 0.728285 0.422154
v -0.686434 0.811715 0.435164
v -0.360300 0.808907 0.278744
v -0.307721 0.777329 0.364955
v -0.622685 0.728285 0.422154
v -0.307721 0.777329 0.364955
v -0.582865 0.702503 0.516725
v -0.622685 0.728285 0.422154
v -0.307721 0.777329 0.364955
v -0.299751 0.860000 0.430498
v -0.582865 0.702503 0.516725
v -0.299751 0.860000 0.430498
v -0.622004 0.770000 0.588182
v -0.582865 0.702503 0.516725
v -0.622004 0.770000 0.588182
v -0.686013 0.837497 0.537775
v -0.877859 0.470000 0.526220
v -0.686013 0.837497 0.537775
v -0.886717 0.539825 0.447227
v -0.877859 0.470000 0.526220
v -0.686013 0.837497 0.537775
v -0.686434 0.811715 0.435164
v -0.886717 0.539825 0.447227
v -0.686434 0.811715 0.435164
v -0.817194 0.513154 0.372066
v -0.886717 0.539825 0.447227
v -0.686434 0.811715 0.435164
v -0.622685 0.728285 0.422154
v -0.817194 0.513154 0.372066
v -0.622685 0.728285 0.422154
v -0.765369 0.426846 0.404607
v -0.817194 0.513154 0.372066
v -0.622685 0.728285 0.422154
v -0.582865 0.702503 0.516725
v -0.765369 0.426846 0.404607
v -0.582865 0.702503 0.516725
v -0.802862 0.400175 0.499880
v -0.765369 0.426846 0.404607
v -0.582865 0.702503 0.516725
v -0.622004 0.770000 0.588182
v -0.802862 0.400175 0.499880
v -0.622004 0.770000 0.588182
v -0.877859 0.470000 0.526220
v -0.802862 0.400175 0.499880
v -0.877859 0.470000 0.526220
v -0.886717 0.539825 0.447227
v -1.130815 0.410000 0.296344
v -0.886717 0.539825 0.447227
v -1.100228 0.494178 0.240019
v -1.130815 0.410000 0.296344
v -0.886717 0.539825 0.447227
v -0.817194 0.513154 0.372066
v -1.100228 0.494178 0.240019
v -0.817194 0.513154 0.372066
v -1.027867 0.462025 0.169848
v -1.100228 0.494178 0.240019
v -0.817194 0.513154 0.372066
v -0.765369 0.426846 0.404607
v -1.027867 0.462025 0.169848
v -0.765369 0.426846 0.404607
v -1.013732 0.357975 0.182805
v -1.027867 0.462025 0.169848
v -0.765369 0.426846 0.404607
v -0.802862 0.400175 0.499880
v -1.013732 0.357975 0.182805
v -0.802862 0.400175 0.499880
v -1.077357 0.325823 0.260984
v -1.013732 0.357975 0.182805
v -0.802862 0.400175 0.499880
v -0.877859 0.470000 0.526220
v -1.077357 0.325823 0.260984
v -0.877859 0.470000 0.526220
v -1.130815 0.410000 0.296344
v -1.077357 0.325823 0.260984
v -0.299751 0.860000 0.430498
v -0.384825 0.911093 0.291007
v -0.347403 0.942671 0.384796
v -1.130815 0.410000 0.296344
v -1.100228 0.494178 0.240019
v -1.027867 0.462025 0.169848
v -0.299751 0.860000 0.430498
v -0.360300 0.808907 0.278744
v -0.384825 0.911093 0.291007
v -1.130815 0.410000 0.296344
v -1.027867 0.462025 0.169848
v -1.013732 0.357975 0.182805
v -0.299751 0.860000 0.430498
v -0.307721 0.777329 0.364955
v -0.360300 0.808907 0.278744
v -1.130815 0.410000 0.296344
v -1.013732 0.357975 0.182805
v -1.077357 0.325823 0.260984
v -0.644734 0.770000 0.556803
v -0.668613 0.816867 0.515291
v -0.861975 0.630000 0.534075
v -0.668613 0.816867 0.515291
v -0.921517 0.651799 0.512406
v -0.861975 0.630000 0.534075
v -0.668613 0.816867 0.515291
v -0.652950 0.798965 0.452647
v -0.921517 0.651799 0.512406
v -0.652950 0.798965 0.452647
v -0.923684 0.643473 0.445953
v -0.921517 0.651799 0.512406
v -0.652950 0.798965 0.452647
v -0.619391 0.741035 0.455444
v -0.923684 0.643473 0.445953
v -0.619391 0.741035 0.455444
v -0.865481 0.616527 0.426552
v -0.923684 0.643473 0.445953
v -0.619391 0.741035 0.455444
v -0.614312 0.723133 0.519816
v -0.865481 0.616527 0.426552
v -0.614312 0.723133 0.519816
v -0.827343 0.608200 0.481014
v -0.865481 0.616527 0.426552
v -0.614312 0.723133 0.519816
v -0.644734 0.770000 0.556803
v -0.827343 0.608200 0.481014
v -0.644734 0.770000 0.556803
v -0.861975 0.630000 0.534075
v -0.827343 0.608200 0.481014
v -0.861975 0.630000 0.534075
v -0.921517 0.651799 0.512406
v -0.755005 0.410000 0.505007
v -0.921517 0.651799 0.512406
v -0.741194 0.434944 0.565646
v -0.755005 0.410000 0.505007
v -0.921517 0.651799 0.512406
v -0.923684 0.643473 0.445953
v -0.741194 0.434944 0.565646
v -0.923684 0.643473 0.445953
v -0.794831 0.425416 0.604663
v -0.741194 0.434944 0.565646
v -0.923684 0.643473 0.445953
v -0.865481 0.616527 0.426552
v -0.794831 0.425416 0.604663
v -0.865481 0.616527 0.426552
v -0.841792 0.394584 0.568138
v -0.794831 0.425416 0.604663
v -0.865481 0.616527 0.426552
v -0.827343 0.608200 0.481014
v -0.841792 0.394584 0.568138
v -0.827343 0.608200 0.481014
v -0.817178 0.385056 0.506547
v -0.841792 0.394584 0.568138
v -0.827343 0.608200 0.481014
v -0.861975 0.630000 0.534075
v -0.817178 0.385056 0.506547
v -0.861975 0.630000 0.534075
v -0.755005 0.410000 0.505007
v -0.817178 0.385056 0.506547
v -0.644734 0.770000 0.556803
v -0.652950 0.798965 0.452647
v -0.668613 0.816867 0.515291
v -0.755005 0.410000 0.505007
v -0.741194 0.434944 0.565646
v -0.794831 0.425416 0.604663
v -0.644734 0.770000 0.556803
v -0.619391 0.741035 0.455444
v -0.652950 0.798965 0.452647
v -0.755005 0.410000 0.505007
v -0.794831 0.425416 0.604663
v -0.841792 0.394584 0.568138
v -0.644734 0.770000 0.556803
v -0.614312 0.723133 0.519816
v -0.619391 0.741035 0.455444
v -0.755005 0.410000 0.505007
v -0.841792 0.394584 0.568138
v -0.817178 0.385056 0.506547
v -0.325510 0.870000 0.392979
v -0.347510 0.901293 0.367755
v -0.633521 0.780000 0.545746
v -0.347510 0.901293 0.367755
v -0.659522 0.805549 0.517984
v -0.633521 0.780000 0.545746
v -0.347510 0.901293 0.367755
v -0.354490 0.870000 0.335021
v -0.659522 0.805549 0.517984
v -0.354490 0.870000 0.335021
v -0.646479 0.780000 0.482254
v -0.659522 0.805549 0.517984
v -0.354490 0.870000 0.335021
v -0.332490 0.838707 0.360245
v -0.646479 0.780000 0.482254
v -0.332490 0.838707 0.360245
v -0.620478 0.754451 0.510016
v -0.646479 0.780000 0.482254
v -0.332490 0.838707 0.360245
v -0.325510 0.870000 0.392979
v -0.620478 0.754451 0.510016
v -0.325510 0.870000 0.392979
v -0.633521 0.780000 0.545746
v -0.620478 0.754451 0.510016
v -0.633521 0.780000 0.545746
v -0.659522 0.805549 0.517984
v -0.847229 0.480000 0.491439
v -0.659522 0.805549 0.517984
v -0.845871 0.506430 0.454035
v -0.847229 0.480000 0.491439
v -0.659522 0.805549 0.517984
v -0.646479 0.780000 0.482254
v -0.845871 0.506430 0.454035
v -0.646479 0.780000 0.482254
v -0.812771 0.480000 0.436561
v -0.845871 0.506430 0.454035
v -0.646479 0.780000 0.482254
v -0.620478 0.754451 0.510016
v -0.812771 0.480000 0.436561
v -0.620478 0.754451 0.510016
v -0.814129 0.453569 0.473965
v -0.812771 0.480000 0.436561
v -0.620478 0.754451 0.510016
v -0.633521 0.780000 0.545746
v -0.814129 0.453569 0.473965
v -0.633521 0.780000 0.545746
v -0.847229 0.480000 0.491439
v -0.814129 0.453569 0.473965
v -0.847229 0.480000 0.491439
v -0.845871 0.506430 0.454035
v -1.091893 0.420000 0.267884
v -0.845871 0.506430 0.454035
v -1.074329 0.451864 0.240032
v -1.091893 0.420000 0.267884
v -0.845871 0.506430 0.454035
v -0.812771 0.480000 0.436561
v -1.074329 0.451864 0.240032
v -0.812771 0.480000 0.436561
v -1.048107 0.420000 0.220116
v -1.074329 0.451864 0.240032
v -0.812771 0.480000 0.436561
v -0.814129 0.453569 0.473965
v -1.048107 0.420000 0.220116
v -0.814129 0.453569 0.473965
v -1.065671 0.388137 0.247968
v -1.048107 0.420000 0.220116
v -0.814129 0.453569 0.473965
v -0.847229 0.480000 0.491439
v -1.065671 0.388137 0.247968
v -0.847229 0.480000 0.491439
v -1.091893 0.420000 0.267884
v -1.065671 0.388137 0.247968
v -0.325510 0.870000 0.392979
v -0.354490 0.870000 0.335021
v -0.347510 0.901293 0.367755
v -1.091893 0.420000 0.267884
v -1.074329 0.451864 0.240032
v -1.048107 0.420000 0.220116
v -0.325510 0.870000 0.392979
v -0.332490 0.838707 0.360245
v -0.354490 0.870000 0.335021
v -1.091893 0.420000 0.267884
v -1.048107 0.420000 0.220116
v -1.065671 0.388137 0.247968
v -0.641704 0.780000 0.534449
v -0.650277 0.797740 0.513144
v -0.873511 0.640000 0.513467
v -0.650277 0.797740 0.513144
v -0.897824 0.648252 0.499941
v -0.873511 0.640000 0.513467
v -0.650277 0.797740 0.513144
v -0.638296 0.780000 0.493551
v -0.897824 0.648252 0.499941
v -0.638296 0.780000 0.493551
v -0.886489 0.640000 0.474533
v -0.897824 0.648252 0.499941
v -0.638296 0.780000 0.493551
v -0.629723 0.762260 0.514856
v -0.886489 0.640000 0.474533
v -0.629723 0.762260 0.514856
v -0.862176 0.631748 0.488059
v -0.886489 0.640000 0.474533
v -0.629723 0.762260 0.514856
v -0.641704 0.780000 0.534449
v -0.862176 0.631748 0.488059
v -0.641704 0.780000 0.534449
v -0.873511 0.640000 0.513467
v -0.862176 0.631748 0.488059
v -0.873511 0.640000 0.513467
v -0.897824 0.648252 0.499941
v -0.777402 0.420000 0.547802
v -0.897824 0.648252 0.499941
v -0.775619 0.429442 0.575185
v -0.777402 0.420000 0.547802
v -0.897824 0.648252 0.499941
v -0.886489 0.640000 0.474533
v -0.775619 0.429442 0.575185
v -0.886489 0.640000 0.474533
v -0.802598 0.420000 0.580197
v -0.775619 0.429442 0.575185
v -0.886489 0.640000 0.474533
v -0.862176 0.631748 0.488059
v -0.802598 0.420000 0.580197
v -0.862176 0.631748 0.488059
v -0.804381 0.410558 0.552815
v -0.802598 0.420000 0.580197
v -0.862176 0.631748 0.488059
v -0.873511 0.640000 0.513467
v -0.804381 0.410558 0.552815
v -0.873511 0.640000 0.513467
v -0.777402 0.420000 0.547802
v -0.804381 0.410558 0.552815
v -0.641704 0.780000 0.534449
v -0.638296 0.780000 0.493551
v -0.650277 0.797740 0.513144
v -0.777402 0.420000 0.547802
v -0.775619 0.429442 0.575185
v -0.802598 0.420000 0.580197
v -0.641704 0.780000 0.534449
v -0.629723 0.762260 0.514856
v -0.638296 0.780000 0.493551
v -0.777402 0.420000 0.547802
v -0.802598 0.420000 0.580197
v -0.804381 0.410558 0.552815
vt 0.120000 0.880000
vt 0.213333 0.880000
vt 0.166667 0.786667
vt 0.120000 0.880000
vt 0.213333 0.880000
vt 0.166667 0.786667
vt 0.120000 0.880000
vt 0.213333 0.880000
vt 0.166667 0.786667
vt 0.120000 0.880000
vt 0.213333 0.880000
vt 0.166667 0.786667
vt 0.120000 0.880000
vt 0.213333 0.880000
vt 0.166667 0.786667
vt 0.120000 0.880000
vt 0.213333 0.880000
vt 0.166667 0.786667
vt 0.120000 0.880000
vt 0.213333 0.880000
vt 0.166667 0.786667
vt 0.120000 0.880000
vt 0.213333 0.880000
vt 0.166667 0.786667
vt 0.120000 0.880000
vt 0.213333 0.880000
vt 0.166667 0.786667
vt 0.120000 0.880000
vt 0.213333 0.880000
vt 0.166667 0.786667
vt 0.120000 0.880000
vt 0.213333 0.880000
vt 0.166667 0.786667
vt 0.120000 0.880000
vt 0.213333 0.880000
vt 0.166667 0.786667
vt 0.120000 0.880000
vt 0.213333 0.880000
vt 0.166667 0.786667
vt 0.120000 0.880000
vt 0.213333 0.880000
vt 0.166667 0.786667
vt 0.120000 0.880000
vt 0.213333 0.880000
vt 0.166667 0.786667
vt 0.120000 0.880000
vt 0.213333 0.880000
vt 0.166667 0.786667
vt 0.120000 0.880000
vt 0.213333 0.880000
vt 0.166667 0.786667
vt 0.120000 0.880000
vt 0.213333 0.880000
vt 0.166667 0.786667
vt 0.120000 0.880000
vt 0.213333 0.880000
vt 0.166667 0.786667
vt 0.120000 0.880000
vt 0.213333 0.880000
vt 0.166667 0.786667
vt 0.120000 0.880000
vt 0.213333 0.880000
vt 0.166667 0.786667
vt 0.120000 0.880000
vt 0.213333 0.880000
vt 0.166667 0.786667
vt 0.120000 0.880000
vt 0.213333 0.880000
vt 0.166667 0.786667
vt 0.120000 0.880000
vt 0.213333 0.880000
vt 0.166667 0.786667
vt 0.120000 0.880000
vt 0.213333 0.880000
vt 0.166667 0.786667
vt 0.120000 0.880000
vt 0.213333 0.880000
vt 0.166667 0.786667
vt 0.120000 0.880000
vt 0.213333 0.880000
vt 0.166667 0.786667
vt 0.120000 0.880000
vt 0.213333 0.880000
vt 0.166667 0.786667
vt 0.120000 0.880000
vt 0.213333 0.880000
vt 0.166667 0.786667
vt 0.120000 0.880000
vt 0.213333 0.880000
vt 0.166667 0.786667
vt 0.120000 0.880000
vt 0.213333 0.880000
vt 0.166667 0.786667
vt 0.120000 0.880000
vt 0.213333 0.880000
vt 0.166667 0.786667
vt 0.120000 0.880000
vt 0.213333 0.880000
vt 0.166667 0.786667
vt 0.120000 0.880000
vt 0.213333 0.880000
vt 0.166667 0.786667
vt 0.120000 0.880000
vt 0.213333 0.880000
vt 0.166667 0.786667
vt 0.120000 0.880000
vt 0.213333 0.880000
vt 0.166667 0.786667
vt 0.120000 0.880000
vt 0.213333 0.880000
vt 0.166667 0.786667
vt 0.120000 0.880000
vt 0.213333 0.880000
vt 0.166667 0.786667
vt 0.120000 0.880000
vt 0.213333 0.880000
vt 0.166667 0.786667
vt 0.120000 0.880000
vt 0.213333 0.880000
vt 0.166667 0.786667
vt 0.120000 0.880000
vt 0.213333 0.880000
vt 0.166667 0.786667
vt 0.120000 0.880000
vt 0.213333 0.880000
vt 0.166667 0.786667
vt 0.120000 0.880000
vt 0.213333 0.880000
vt 0.166667 0.786667
vt 0.120000 0.880000
vt 0.213333 0.880000
vt 0.166667 0.786667
vt 0.120000 0.880000
vt 0.213333 0.880000
vt 0.166667 0.786667
vt 0.120000 0.880000
vt 0.213333 0.880000
vt 0.166667 0.786667
vt 0.120000 0.880000
vt 0.213333 0.880000
vt 0.166667 0.786667
vt 0.120000 0.880000
vt 0.213333 0.880000
vt 0.166667 0.786667
vt 0.120000 0.880000
vt 0.213333 0.880000
vt 0.166667 0.786667
vt 0.120000 0.880000
vt 0.213333 0.880000
vt 0.166667 0.786667
vt 0.786667 0.880000
vt 0.880000 0.880000
vt 0.833333 0.786667
vt 0.786667 0.880000
vt 0.880000 0.880000
vt 0.833333 0.786667
vt 0.786667 0.880000
vt 0.880000 0.880000
vt 0.833333 0.786667
vt 0.786667 0.880000
vt 0.880000 0.880000
vt 0.833333 0.786667
vt 0.786667 0.880000
vt 0.880000 0.880000
vt 0.833333 0.786667
vt 0.786667 0.880000
vt 0.880000 0.880000
vt 0.833333 0.786667
vt 0.786667 0.880000
vt 0.880000 0.880000
vt 0.833333 0.786667
vt 0.786667 0.880000
vt 0.880000 0.880000
vt 0.833333 0.786667
vt 0.786667 0.880000
vt 0.880000 0.880000
vt 0.833333 0.786667
vt 0.786667 0.880000
vt 0.880000 0.880000
vt 0.833333 0.786667
vt 0.786667 0.880000
vt 0.880000 0.880000
vt 0.833333 0.786667
vt 0.786667 0.880000
vt 0.880000 0.880000
vt 0.833333 0.786667
vt 0.786667 0.880000
vt 0.880000 0.880000
vt 0.833333 0.786667
vt 0.786667 0.880000
vt 0.880000 0.880000
vt 0.833333 0.786667
vt 0.786667 0.880000
vt 0.880000 0.880000
vt 0.833333 0.786667
vt 0.786667 0.880000
vt 0.880000 0.880000
vt 0.833333 0.786667
vt 0.786667 0.880000
vt 0.880000 0.880000
vt 0.833333 0.786667
vt 0.786667 0.880000
vt 0.880000 0.880000
vt 0.833333 0.786667
vt 0.786667 0.880000
vt 0.880000 0.880000
vt 0.833333 0.786667
vt 0.786667 0.880000
vt 0.880000 0.880000
vt 0.833333 0.786667
vt 0.786667 0.880000
vt 0.880000 0.880000
vt 0.833333 0.786667
vt 0.786667 0.880000
vt 0.880000 0.880000
vt 0.833333 0.786667
vt 0.786667 0.880000
vt 0.880000 0.880000
vt 0.833333 0.786667
vt 0.786667 0.880000
vt 0.880000 0.880000
vt 0.833333 0.786667
vt 0.786667 0.880000
vt 0.880000 0.880000
vt 0.833333 0.786667
vt 0.786667 0.880000
vt 0.880000 0.880000
vt 0.833333 0.786667
vt 0.786667 0.880000
vt 0.880000 0.880000
vt 0.833333 0.786667
vt 0.786667 0.880000
vt 0.880000 0.880000
vt 0.833333 0.786667
vt 0.786667 0.880000
vt 0.880000 0.880000
vt 0.833333 0.786667
vt 0.786667 0.880000
vt 0.880000 0.880000
vt 0.833333 0.786667
vt 0.786667 0.880000
vt 0.880000 0.880000
vt 0.833333 0.786667
vt 0.786667 0.880000
vt 0.880000 0.880000
vt 0.833333 0.786667
vt 0.786667 0.880000
vt 0.880000 0.880000
vt 0.833333 0.786667
vt 0.786667 0.880000
vt 0.880000 0.880000
vt 0.833333 0.786667
vt 0.786667 0.880000
vt 0.880000 0.880000
vt 0.833333 0.786667
vt 0.786667 0.880000
vt 0.880000 0.880000
vt 0.833333 0.786667
vt 0.786667 0.880000
vt 0.880000 0.880000
vt 0.833333 0.786667
vt 0.786667 0.880000
vt 0.880000 0.880000
vt 0.833333 0.786667
vt 0.786667 0.880000
vt 0.880000 0.880000
vt 0.833333 0.786667
vt 0.786667 0.880000
vt 0.880000 0.880000
vt 0.833333 0.786667
vt 0.786667 0.880000
vt 0.880000 0.880000
vt 0.833333 0.786667
vt 0.786667 0.880000
vt 0.880000 0.880000
vt 0.833333 0.786667
vt 0.786667 0.880000
vt 0.880000 0.880000
vt 0.833333 0.786667
vt 0.786667 0.880000
vt 0.880000 0.880000
vt 0.833333 0.786667
vt 0.786667 0.880000
vt 0.880000 0.880000
vt 0.833333 0.786667
vt 0.786667 0.880000
vt 0.880000 0.880000
vt 0.833333 0.786667
vt 0.786667 0.880000
vt 0.880000 0.880000
vt 0.833333 0.786667
vt 0.786667 0.880000
vt 0.880000 0.880000
vt 0.833333 0.786667
vt 0.786667 0.880000
vt 0.880000 0.880000
vt 0.833333 0.786667
vt 0.786667 0.880000
vt 0.880000 0.880000
vt 0.833333 0.786667
vt 0.786667 0.880000
vt 0.880000 0.880000
vt 0.833333 0.786667
vt 0.786667 0.880000
vt 0.880000 0.880000
vt 0.833333 0.786667
vt 0.786667 0.880000
vt 0.880000 0.880000
vt 0.833333 0.786667
vt 0.786667 0.880000
vt 0.880000 0.880000
vt 0.833333 0.786667
vt 0.786667 0.880000
vt 0.880000 0.880000
vt 0.833333 0.786667
vt 0.786667 0.880000
vt 0.880000 0.880000
vt 0.833333 0.786667
vt 0.786667 0.880000
vt 0.880000 0.880000
vt 0.833333 0.786667
vt 0.786667 0.880000
vt 0.880000 0.880000
vt 0.833333 0.786667
vt 0.786667 0.880000
vt 0.880000 0.880000
vt 0.833333 0.786667
vt 0.786667 0.880000
vt 0.880000 0.880000
vt 0.833333 0.786667
vt 0.786667 0.880000
vt 0.880000 0.880000
vt 0.833333 0.786667
vt 0.786667 0.880000
vt 0.880000 0.880000
vt 0.833333 0.786667
vt 0.786667 0.880000
vt 0.880000 0.880000
vt 0.833333 0.786667
vt 0.786667 0.880000
vt 0.880000 0.880000
vt 0.833333 0.786667
vt 0.786667 0.880000
vt 0.880000 0.880000
vt 0.833333 0.786667
vt 0.786667 0.880000
vt 0.880000 0.880000
vt 0.833333 0.786667
vt 0.786667 0.880000
vt 0.880000 0.880000
vt 0.833333 0.786667
vt 0.786667 0.880000
vt 0.880000 0.880000
vt 0.833333 0.786667
vt 0.786667 0.880000
vt 0.880000 0.880000
vt 0.833333 0.786667
vt 0.786667 0.880000
vt 0.880000 0.880000
vt 0.833333 0.786667
vt 0.786667 0.880000
vt 0.880000 0.880000
vt 0.833333 0.786667
vt 0.786667 0.880000
vt 0.880000 0.880000
vt 0.833333 0.786667
vt 0.786667 0.880000
vt 0.880000 0.880000
vt 0.833333 0.786667
vt 0.786667 0.880000
vt 0.880000 0.880000
vt 0.833333 0.786667
vt 0.786667 0.880000
vt 0.880000 0.880000
vt 0.833333 0.786667
vt 0.786667 0.880000
vt 0.880000 0.880000
vt 0.833333 0.786667
vt 0.786667 0.880000
vt 0.880000 0.880000
vt 0.833333 0.786667
vt 0.786667 0.880000
vt 0.880000 0.880000
vt 0.833333 0.786667
vt 0.786667 0.880000
vt 0.880000 0.880000
vt 0.833333 0.786667
vt 0.786667 0.880000
vt 0.880000 0.880000
vt 0.833333 0.786667
vt 0.786667 0.880000
vt 0.880000 0.880000
vt 0.833333 0.786667
vt 0.786667 0.880000
vt 0.880000 0.880000
vt 0.833333 0.786667
vt 0.786667 0.880000
vt 0.880000 0.880000
vt 0.833333 0.786667
vt 0.786667 0.880000
vt 0.880000 0.880000
vt 0.833333 0.786667
vt 0.786667 0.880000
vt 0.880000 0.880000
vt 0.833333 0.786667
vt 0.786667 0.880000
vt 0.880000 0.880000
vt 0.833333 0.786667
vt 0.786667 0.880000
vt 0.880000 0.880000
vt 0.833333 0.786667
vt 0.786667 0.880000
vt 0.880000 0.880000
vt 0.833333 0.786667
vt 0.786667 0.880000
vt 0.880000 0.880000
vt 0.833333 0.786667
vt 0.786667 0.880000
vt 0.880000 0.880000
vt 0.833333 0.786667
vt 0.786667 0.880000
vt 0.880000 0.880000
vt 0.833333 0.786667
vt 0.786667 0.880000
vt 0.880000 0.880000
vt 0.833333 0.786667
vt 0.786667 0.880000
vt 0.880000 0.880000
vt 0.833333 0.786667
vt 0.786667 0.880000
vt 0.880000 0.880000
vt 0.833333 0.786667
vt 0.786667 0.880000
vt 0.880000 0.880000
vt 0.833333 0.786667
vt 0.786667 0.880000
vt 0.880000 0.880000
vt 0.833333 0.786667
vt 0.786667 0.880000
vt 0.880000 0.880000
vt 0.833333 0.786667
vt 0.786667 0.880000
vt 0.880000 0.880000
vt 0.833333 0.786667
vt 0.786667 0.880000
vt 0.880000 0.880000
vt 0.833333 0.786667
vt 0.786667 0.880000
vt 0.880000 0.880000
vt 0.833333 0.786667
vt 0.786667 0.880000
vt 0.880000 0.880000
vt 0.833333 0.786667
vt 0.786667 0.880000
vt 0.880000 0.880000
vt 0.833333 0.786667
vt 0.786667 0.880000
vt 0.880000 0.880000
vt 0.833333 0.786667
vt 0.786667 0.880000
vt 0.880000 0.880000
vt 0.833333 0.786667
vt 0.786667 0.880000
vt 0.880000 0.880000
vt 0.833333 0.786667
vt 0.786667 0.880000
vt 0.880000 0.880000
vt 0.833333 0.786667
vt 0.786667 0.880000
vt 0.880000 0.880000
vt 0.833333 0.786667
vt 0.786667 0.880000
vt 0.880000 0.880000
vt 0.833333 0.786667
vt 0.786667 0.880000
vt 0.880000 0.880000
vt 0.833333 0.786667
vt 0.786667 0.880000
vt 0.880000 0.880000
vt 0.833333 0.786667
vt 0.786667 0.880000
vt 0.880000 0.880000
vt 0.833333 0.786667
vt 0.786667 0.880000
vt 0.880000 0.880000
vt 0.833333 0.786667
vt 0.786667 0.880000
vt 0.880000 0.880000
vt 0.833333 0.786667
vt 0.786667 0.880000
vt 0.880000 0.880000
vt 0.833333 0.786667
vt 0.786667 0.880000
vt 0.880000 0.880000
vt 0.833333 0.786667
vt 0.786667 0.880000
vt 0.880000 0.880000
vt 0.833333 0.786667
vt 0.786667 0.880000
vt 0.880000 0.880000
vt 0.833333 0.786667
vt 0.786667 0.880000
vt 0.880000 0.880000
vt 0.833333 0.786667
vt 0.786667 0.880000
vt 0.880000 0.880000
vt 0.833333 0.786667
vt 0.786667 0.880000
vt 0.880000 0.880000
vt 0.833333 0.786667
vt 0.786667 0.880000
vt 0.880000 0.880000
vt 0.833333 0.786667
vt 0.786667 0.880000
vt 0.880000 0.880000
vt 0.833333 0.786667
vt 0.786667 0.880000
vt 0.880000 0.880000
vt 0.833333 0.786667
vt 0.786667 0.880000
vt 0.880000 0.880000
vt 0.833333 0.786667
vt 0.786667 0.880000
vt 0.880000 0.880000
vt 0.833333 0.786667
vt 0.786667 0.880000
vt 0.880000 0.880000
vt 0.833333 0.786667
vt 0.786667 0.880000
vt 0.880000 0.880000
vt 0.833333 0.786667
vt 0.786667 0.880000
vt 0.880000 0.880000
vt 0.833333 0.786667
vt 0.786667 0.880000
vt 0.880000 0.880000
vt 0.833333 0.786667
vt 0.786667 0.880000
vt 0.880000 0.880000
vt 0.833333 0.786667
vt 0.786667 0.880000
vt 0.880000 0.880000
vt 0.833333 0.786667
vt 0.786667 0.880000
vt 0.880000 0.880000
vt 0.833333 0.786667
vt 0.786667 0.880000
vt 0.880000 0.880000
vt 0.833333 0.786667
vt 0.786667 0.880000
vt 0.880000 0.880000
vt 0.833333 0.786667
vt 0.786667 0.546667
vt 0.880000 0.546667
vt 0.833333 0.453333
vt 0.786667 0.546667
vt 0.880000 0.546667
vt 0.833333 0.453333
vt 0.786667 0.546667
vt 0.880000 0.546667
vt 0.833333 0.453333
vt 0.786667 0.546667
vt 0.880000 0.546667
vt 0.833333 0.453333
vt 0.786667 0.546667
vt 0.880000 0.546667
vt 0.833333 0.453333
vt 0.786667 0.546667
vt 0.880000 0.546667
vt 0.833333 0.453333
vt 0.786667 0.546667
vt 0.880000 0.546667
vt 0.833333 0.453333
vt 0.786667 0.546667
vt 0.880000 0.546667
vt 0.833333 0.453333
vt 0.786667 0.546667
vt 0.880000 0.546667
vt 0.833333 0.453333
vt 0.786667 0.546667
vt 0.880000 0.546667
vt 0.833333 0.453333
vt 0.786667 0.546667
vt 0.880000 0.546667
vt 0.833333 0.453333
vt 0.786667 0.546667
vt 0.880000 0.546667
vt 0.833333 0.453333
vt 0.786667 0.546667
vt 0.880000 0.546667
vt 0.833333 0.453333
vt 0.786667 0.546667
vt 0.880000 0.546667
vt 0.833333 0.453333
vt 0.786667 0.546667
vt 0.880000 0.546667
vt 0.833333 0.453333
vt 0.786667 0.546667
vt 0.880000 0.546667
vt 0.833333 0.453333
vt 0.786667 0.546667
vt 0.880000 0.546667
vt 0.833333 0.453333
vt 0.786667 0.546667
vt 0.880000 0.546667
vt 0.833333 0.453333
vt 0.786667 0.546667
vt 0.880000 0.546667
vt 0.833333 0.453333
vt 0.786667 0.546667
vt 0.880000 0.546667
vt 0.833333 0.453333
vt 0.786667 0.546667
vt 0.880000 0.546667
vt 0.833333 0.453333
vt 0.786667 0.546667
vt 0.880000 0.546667
vt 0.833333 0.453333
vt 0.786667 0.546667
vt 0.880000 0.546667
vt 0.833333 0.453333
vt 0.786667 0.546667
vt 0.880000 0.546667
vt 0.833333 0.453333
vt 0.786667 0.546667
vt 0.880000 0.546667
vt 0.833333 0.453333
vt 0.786667 0.546667
vt 0.880000 0.546667
vt 0.833333 0.453333
vt 0.786667 0.546667
vt 0.880000 0.546667
vt 0.833333 0.453333
vt 0.786667 0.546667
vt 0.880000 0.546667
vt 0.833333 0.453333
vt 0.786667 0.546667
vt 0.880000 0.546667
vt 0.833333 0.453333
vt 0.786667 0.546667
vt 0.880000 0.546667
vt 0.833333 0.453333
vt 0.786667 0.546667
vt 0.880000 0.546667
vt 0.833333 0.453333
vt 0.786667 0.546667
vt 0.880000 0.546667
vt 0.833333 0.453333
vt 0.786667 0.546667
vt 0.880000 0.546667
vt 0.833333 0.453333
vt 0.786667 0.546667
vt 0.880000 0.546667
vt 0.833333 0.453333
vt 0.786667 0.546667
vt 0.880000 0.546667
vt 0.833333 0.453333
vt 0.786667 0.546667
vt 0.880000 0.546667
vt 0.833333 0.453333
vt 0.786667 0.546667
vt 0.880000 0.546667
vt 0.833333 0.453333
vt 0.786667 0.546667
vt 0.880000 0.546667
vt 0.833333 0.453333
vt 0.786667 0.546667
vt 0.880000 0.546667
vt 0.833333 0.453333
vt 0.786667 0.546667
vt 0.880000 0.546667
vt 0.833333 0.453333
vt 0.786667 0.546667
vt 0.880000 0.546667
vt 0.833333 0.453333
vt 0.786667 0.546667
vt 0.880000 0.546667
vt 0.833333 0.453333
vt 0.786667 0.546667
vt 0.880000 0.546667
vt 0.833333 0.453333
vt 0.786667 0.546667
vt 0.880000 0.546667
vt 0.833333 0.453333
vt 0.786667 0.546667
vt 0.880000 0.546667
vt 0.833333 0.453333
vt 0.786667 0.546667
vt 0.880000 0.546667
vt 0.833333 0.453333
vt 0.786667 0.546667
vt 0.880000 0.546667
vt 0.833333 0.453333
vt 0.786667 0.546667
vt 0.880000 0.546667
vt 0.833333 0.453333
vt 0.786667 0.546667
vt 0.880000 0.546667
vt 0.833333 0.453333
vt 0.786667 0.546667
vt 0.880000 0.546667
vt 0.833333 0.453333
vt 0.786667 0.546667
vt 0.880000 0.546667
vt 0.833333 0.453333
vt 0.786667 0.546667
vt 0.880000 0.546667
vt 0.833333 0.453333
vt 0.786667 0.546667
vt 0.880000 0.546667
vt 0.833333 0.453333
vt 0.786667 0.546667
vt 0.880000 0.546667
vt 0.833333 0.453333
vt 0.786667 0.546667
vt 0.880000 0.546667
vt 0.833333 0.453333
vt 0.786667 0.546667
vt 0.880000 0.546667
vt 0.833333 0.453333
vt 0.786667 0.546667
vt 0.880000 0.546667
vt 0.833333 0.453333
vt 0.786667 0.546667
vt 0.880000 0.546667
vt 0.833333 0.453333
vt 0.786667 0.546667
vt 0.880000 0.546667
vt 0.833333 0.453333
vt 0.786667 0.546667
vt 0.880000 0.546667
vt 0.833333 0.453333
vt 0.786667 0.546667
vt 0.880000 0.546667
vt 0.833333 0.453333
vt 0.786667 0.546667
vt 0.880000 0.546667
vt 0.833333 0.453333
vt 0.786667 0.213333
vt 0.880000 0.213333
vt 0.833333 0.120000
vt 0.786667 0.213333
vt 0.880000 0.213333
vt 0.833333 0.120000
vt 0.786667 0.213333
vt 0.880000 0.213333
vt 0.833333 0.120000
vt 0.786667 0.213333
vt 0.880000 0.213333
vt 0.833333 0.120000
vt 0.786667 0.213333
vt 0.880000 0.213333
vt 0.833333 0.120000
vt 0.786667 0.213333
vt 0.880000 0.213333
vt 0.833333 0.120000
vt 0.786667 0.213333
vt 0.880000 0.213333
vt 0.833333 0.120000
vt 0.786667 0.213333
vt 0.880000 0.213333
vt 0.833333 0.120000
vt 0.786667 0.213333
vt 0.880000 0.213333
vt 0.833333 0.120000
vt 0.786667 0.213333
vt 0.880000 0.213333
vt 0.833333 0.120000
vt 0.786667 0.213333
vt 0.880000 0.213333
vt 0.833333 0.120000
vt 0.786667 0.213333
vt 0.880000 0.213333
vt 0.833333 0.120000
vt 0.786667 0.213333
vt 0.880000 0.213333
vt 0.833333 0.120000
vt 0.786667 0.213333
vt 0.880000 0.213333
vt 0.833333 0.120000
vt 0.786667 0.213333
vt 0.880000 0.213333
vt 0.833333 0.120000
vt 0.786667 0.213333
vt 0.880000 0.213333
vt 0.833333 0.120000
vt 0.786667 0.213333
vt 0.880000 0.213333
vt 0.833333 0.120000
vt 0.786667 0.213333
vt 0.880000 0.213333
vt 0.833333 0.120000
vt 0.786667 0.213333
vt 0.880000 0.213333
vt 0.833333 0.120000
vt 0.786667 0.213333
vt 0.880000 0.213333
vt 0.833333 0.120000
vt 0.786667 0.213333
vt 0.880000 0.213333
vt 0.833333 0.120000
vt 0.786667 0.213333
vt 0.880000 0.213333
vt 0.833333 0.120000
vt 0.786667 0.213333
vt 0.880000 0.213333
vt 0.833333 0.120000
vt 0.786667 0.213333
vt 0.880000 0.213333
vt 0.833333 0.120000
vt 0.786667 0.213333
vt 0.880000 0.213333
vt 0.833333 0.120000
vt 0.786667 0.213333
vt 0.880000 0.213333
vt 0.833333 0.120000
vt 0.786667 0.213333
vt 0.880000 0.213333
vt 0.833333 0.120000
vt 0.786667 0.213333
vt 0.880000 0.213333
vt 0.833333 0.120000
vt 0.786667 0.213333
vt 0.880000 0.213333
vt 0.833333 0.120000
vt 0.786667 0.213333
vt 0.880000 0.213333
vt 0.833333 0.120000
vt 0.786667 0.213333
vt 0.880000 0.213333
vt 0.833333 0.120000
vt 0.786667 0.213333
vt 0.880000 0.213333
vt 0.833333 0.120000
vt 0.786667 0.213333
vt 0.880000 0.213333
vt 0.833333 0.120000
vt 0.786667 0.213333
vt 0.880000 0.213333
vt 0.833333 0.120000
vt 0.786667 0.213333
vt 0.880000 0.213333
vt 0.833333 0.120000
vt 0.786667 0.213333
vt 0.880000 0.213333
vt 0.833333 0.120000
vt 0.786667 0.213333
vt 0.880000 0.213333
vt 0.833333 0.120000
vt 0.786667 0.213333
vt 0.880000 0.213333
vt 0.833333 0.120000
vt 0.786667 0.213333
vt 0.880000 0.213333
vt 0.833333 0.120000
vt 0.786667 0.213333
vt 0.880000 0.213333
vt 0.833333 0.120000
vt 0.786667 0.213333
vt 0.880000 0.213333
vt 0.833333 0.120000
vt 0.786667 0.213333
vt 0.880000 0.213333
vt 0.833333 0.120000
vt 0.786667 0.213333
vt 0.880000 0.213333
vt 0.833333 0.120000
vt 0.786667 0.213333
vt 0.880000 0.213333
vt 0.833333 0.120000
vt 0.786667 0.213333
vt 0.880000 0.213333
vt 0.833333 0.120000
vt 0.786667 0.213333
vt 0.880000 0.213333
vt 0.833333 0.120000
vt 0.786667 0.213333
vt 0.880000 0.213333
vt 0.833333 0.120000
vt 0.786667 0.213333
vt 0.880000 0.213333
vt 0.833333 0.120000
vn 0.739507 -0.523182 0.423569
vn 0.358721 0.457150 0.813839
vn -0.053237 0.098562 0.993706
vn 0.358721 0.457150 0.813839
vn 0.260004 0.636798 0.725870
vn -0.053237 0.098562 0.993706
vn 0.358721 0.457150 0.813839
vn 0.733957 0.638733 0.230928
vn 0.260004 0.636798 0.725870
vn 0.733957 0.638733 0.230928
vn 0.400835 0.908158 0.120750
vn 0.260004 0.636798 0.725870
vn 0.733957 0.638733 0.230928
vn 0.822706 0.406206 -0.397683
vn 0.400835 0.908158 0.120750
vn 0.822706 0.406206 -0.397683
vn 0.303413 0.785804 -0.538936
vn 0.400835 0.908158 0.120750
vn 0.822706 0.406206 -0.397683
vn 0.658610 -0.031250 -0.751835
vn 0.303413 0.785804 -0.538936
vn 0.658610 -0.031250 -0.751835
vn 0.012909 0.326723 -0.945032
vn 0.303413 0.785804 -0.538936
vn 0.658610 -0.031250 -0.751835
vn 0.368051 -0.486718 -0.792240
vn 0.012909 0.326723 -0.945032
vn 0.368051 -0.486718 -0.792240
vn -0.335226 -0.254978 -0.906978
vn 0.012909 0.326723 -0.945032
vn 0.368051 -0.486718 -0.792240
vn 0.015316 -0.856082 -0.516612
vn -0.335226 -0.254978 -0.906978
vn 0.015316 -0.856082 -0.516612
vn -0.577555 -0.686642 -0.441535
vn -0.335226 -0.254978 -0.906978
vn 0.015316 -0.856082 -0.516612
vn -0.292308 -0.953316 0.075797
vn -0.577555 -0.686642 -0.441535
vn -0.292308 -0.953316 0.075797
vn -0.600029 -0.765391 0.232683
vn -0.577555 -0.686642 -0.441535
vn -0.292308 -0.953316 0.075797
vn -0.340550 -0.616564 0.709841
vn -0.600029 -0.765391 0.232683
vn -0.340550 -0.616564 0.709841
vn -0.392738 -0.455035 0.799187
vn -0.600029 -0.765391 0.232683
vn -0.340550 -0.616564 0.709841
vn 0.739507 -0.523182 0.423569
vn -0.392738 -0.455035 0.799187
vn 0.739507 -0.523182 0.423569
vn -0.053237 0.098562 0.993706
vn -0.392738 -0.455035 0.799187
vn -0.053237 0.098562 0.993706
vn 0.260004 0.636798 0.725870
vn -0.706136 0.472733 0.527159
vn 0.260004 0.636798 0.725870
vn 0.125134 0.756225 0.642235
vn -0.706136 0.472733 0.527159
vn 0.260004 0.636798 0.725870
vn 0.400835 0.908158 0.120750
vn 0.125134 0.756225 0.642235
vn 0.400835 0.908158 0.120750
vn 0.090239 0.995619 0.024502
vn 0.125134 0.756225 0.642235
vn 0.400835 0.908158 0.120750
vn 0.303413 0.785804 -0.538936
vn 0.090239 0.995619 0.024502
vn 0.303413 0.785804 -0.538936
vn -0.155894 0.835940 -0.526214
vn 0.090239 0.995619 0.024502
vn 0.303413 0.785804 -0.538936
vn 0.012909 0.326723 -0.945032
vn -0.155894 0.835940 -0.526214
vn 0.012909 0.326723 -0.945032
vn -0.463341 0.432162 -0.773661
vn -0.155894 0.835940 -0.526214
vn 0.012909 0.326723 -0.945032
vn -0.335226 -0.254978 -0.906978
vn -0.463341 0.432162 -0.773661
vn -0.335226 -0.254978 -0.906978
vn -0.720286 -0.029793 -0.693037
vn -0.463341 0.432162 -0.773661
vn -0.335226 -0.254978 -0.906978
vn -0.577555 -0.686642 -0.441535
vn -0.720286 -0.029793 -0.693037
vn -0.577555 -0.686642 -0.441535
vn -0.852663 -0.418338 -0.312986
vn -0.720286 -0.029793 -0.693037
vn -0.577555 -0.686642 -0.441535
vn -0.600029 -0.765391 0.232683
vn -0.852663 -0.418338 -0.312986
vn -0.600029 -0.765391 0.232683
vn -0.773518 -0.565649 0.285853
vn -0.852663 -0.418338 -0.312986
vn -0.600029 -0.765391 0.232683
vn -0.392738 -0.455035 0.799187
vn -0.773518 -0.565649 0.285853
vn -0.392738 -0.455035 0.799187
vn -0.466870 -0.320357 0.824259
vn -0.773518 -0.565649 0.285853
vn -0.392738 -0.455035 0.799187
vn -0.053237 0.098562 0.993706
vn -0.466870 -0.320357 0.824259
vn -0.053237 0.098562 0.993706
vn -0.706136 0.472733 0.527159
vn -0.466870 -0.320357 0.824259
vn 0.739507 -0.523182 0.423569
vn 0.733957 0.638733 0.230928
vn 0.358721 0.457150 0.813839
vn -0.706136 0.472733 0.527159
vn 0.125134 0.756225 0.642235
vn 0.090239 0.995619 0.024502
vn 0.739507 -0.523182 0.423569
vn 0.822706 0.406206 -0.397683
vn 0.733957 0.638733 0.230928
vn -0.706136 0.472733 0.527159
vn 0.090239 0.995619 0.024502
vn -0.155894 0.835940 -0.526214
vn 0.739507 -0.523182 0.423569
vn 0.658610 -0.031250 -0.751835
vn 0.822706 0.406206 -0.397683
vn -0.706136 0.472733 0.527159
vn -0.155894 0.835940 -0.526214
vn -0.463341 0.432162 -0.773661
vn 0.739507 -0.523182 0.423569
vn 0.368051 -0.486718 -0.792240
vn 0.658610 -0.031250 -0.751835
vn -0.706136 0.472733 0.527159
vn -0.463341 0.432162 -0.773661
vn -0.720286 -0.029793 -0.693037
vn 0.739507 -0.523182 0.423569
vn 0.015316 -0.856082 -0.516612
vn 0.368051 -0.486718 -0.792240
vn -0.706136 0.472733 0.527159
vn -0.720286 -0.029793 -0.693037
vn -0.852663 -0.418338 -0.312986
vn 0.739507 -0.523182 0.423569
vn -0.292308 -0.953316 0.075797
vn 0.015316 -0.856082 -0.516612
vn -0.706136 0.472733 0.527159
vn -0.852663 -0.418338 -0.312986
vn -0.773518 -0.565649 0.285853
vn 0.739507 -0.523182 0.423569
vn -0.340550 -0.616564 0.709841
vn -0.292308 -0.953316 0.075797
vn -0.706136 0.472733 0.527159
vn -0.773518 -0.565649 0.285853
vn -0.466870 -0.320357 0.824259
vn 0.000000 1.000000 0.000000
vn -0.453872 0.891067 0.000000
vn -0.351037 0.899654 0.259608
vn 0.000000 1.000000 0.000000
vn -0.351037 0.899654 0.259608
vn -0.080632 0.911626 0.403035
vn 0.000000 1.000000 0.000000
vn -0.080632 0.911626 0.403035
vn 0.230953 0.906841 0.352562
vn 0.000000 1.000000 0.000000
vn 0.230953 0.906841 0.352562
vn 0.427652 0.893473 0.137185
vn 0.000000 1.000000 0.000000
vn 0.427652 0.893473 0.137185
vn 0.427652 0.893473 -0.137185
vn 0.000000 1.000000 0.000000
vn 0.427652 0.893473 -0.137185
vn 0.230953 0.906841 -0.352562
vn 0.000000 1.000000 0.000000
vn 0.230953 0.906841 -0.352562
vn -0.080632 0.911626 -0.403035
vn 0.000000 1.000000 0.000000
vn -0.080632 0.911626 -0.403035
vn -0.351037 0.899654 -0.259608
vn 0.000000 1.000000 0.000000
vn -0.351037 0.899654 -0.259608
vn -0.453872 0.891067 -0.000000
vn -0.351037 0.899654 0.259608
vn -0.453872 0.891067 0.000000
vn -0.630483 0.620550 0.466271
vn -0.453872 0.891067 0.000000
vn -0.798474 0.602029 0.000000
vn -0.630483 0.620550 0.466271
vn -0.080632 0.911626 0.403035
vn -0.351037 0.899654 0.259608
vn -0.149342 0.648439 0.746474
vn -0.351037 0.899654 0.259608
vn -0.630483 0.620550 0.466271
vn -0.149342 0.648439 0.746474
vn 0.230953 0.906841 0.352562
vn -0.080632 0.911626 0.403035
vn 0.422416 0.636982 0.644840
vn -0.080632 0.911626 0.403035
vn -0.149342 0.648439 0.746474
vn 0.422416 0.636982 0.644840
vn 0.427652 0.893473 0.137185
vn 0.230953 0.906841 0.352562
vn 0.756645 0.607104 0.242722
vn 0.230953 0.906841 0.352562
vn 0.422416 0.636982 0.644840
vn 0.756645 0.607104 0.242722
vn 0.427652 0.893473 -0.137185
vn 0.427652 0.893473 0.137185
vn 0.756645 0.607104 -0.242722
vn 0.427652 0.893473 0.137185
vn 0.756645 0.607104 0.242722
vn 0.756645 0.607104 -0.242722
vn 0.230953 0.906841 -0.352562
vn 0.427652 0.893473 -0.137185
vn 0.422416 0.636982 -0.644840
vn 0.427652 0.893473 -0.137185
vn 0.756645 0.607104 -0.242722
vn 0.422416 0.636982 -0.644840
vn -0.080632 0.911626 -0.403035
vn 0.230953 0.906841 -0.352562
vn -0.149342 0.648439 -0.746474
vn 0.230953 0.906841 -0.352562
vn 0.422416 0.636982 -0.644840
vn -0.149342 0.648439 -0.746474
vn -0.351037 0.899654 -0.259608
vn -0.080632 0.911626 -0.403035
vn -0.630483 0.620550 -0.466271
vn -0.080632 0.911626 -0.403035
vn -0.149342 0.648439 -0.746474
vn -0.630483 0.620550 -0.466271
vn -0.453872 0.891067 -0.000000
vn -0.351037 0.899654 -0.259608
vn -0.798474 0.602029 -0.000000
vn -0.351037 0.899654 -0.259608
vn -0.630483 0.620550 -0.466271
vn -0.798474 0.602029 -0.000000
vn -0.630483 0.620550 0.466271
vn -0.798474 0.602029 0.000000
vn -0.784155 0.220896 0.579919
vn -0.798474 0.602029 0.000000
vn -0.977499 0.210938 0.000000
vn -0.784155 0.220896 0.579919
vn -0.149342 0.648439 0.746474
vn -0.630483 0.620550 0.466271
vn -0.190594 0.236852 0.952667
vn -0.630483 0.620550 0.466271
vn -0.784155 0.220896 0.579919
vn -0.190594 0.236852 0.952667
vn 0.422416 0.636982 0.644840
vn -0.149342 0.648439 0.746474
vn 0.533257 0.230147 0.814045
vn -0.149342 0.648439 0.746474
vn -0.190594 0.236852 0.952667
vn 0.533257 0.230147 0.814045
vn 0.756645 0.607104 0.242722
vn 0.422416 0.636982 0.644840
vn 0.930226 0.213620 0.298405
vn 0.422416 0.636982 0.644840
vn 0.533257 0.230147 0.814045
vn 0.930226 0.213620 0.298405
vn 0.756645 0.607104 -0.242722
vn 0.756645 0.607104 0.242722
vn 0.930226 0.213620 -0.298405
vn 0.756645 0.607104 0.242722
vn 0.930226 0.213620 0.298405
vn 0.930226 0.213620 -0.298405
vn 0.422416 0.636982 -0.644840
vn 0.756645 0.607104 -0.242722
vn 0.533257 0.230147 -0.814045
vn 0.756645 0.607104 -0.242722
vn 0.930226 0.213620 -0.298405
vn 0.533257 0.230147 -0.814045
vn -0.149342 0.648439 -0.746474
vn 0.422416 0.636982 -0.644840
vn -0.190594 0.236852 -0.952667
vn 0.422416 0.636982 -0.644840
vn 0.533257 0.230147 -0.814045
vn -0.190594 0.236852 -0.952667
vn -0.630483 0.620550 -0.466271
vn -0.149342 0.648439 -0.746474
vn -0.784155 0.220896 -0.579919
vn -0.149342 0.648439 -0.746474
vn -0.190594 0.236852 -0.952667
vn -0.784155 0.220896 -0.579919
vn -0.798474 0.602029 -0.000000
vn -0.630483 0.620550 -0.466271
vn -0.977499 0.210938 -0.000000
vn -0.630483 0.620550 -0.466271
vn -0.784155 0.220896 -0.579919
vn -0.977499 0.210938 -0.000000
vn -0.784155 0.220896 0.579919
vn -0.977499 0.210938 0.000000
vn -0.784155 -0.220896 0.579919
vn -0.977499 0.210938 0.000000
vn -0.977499 -0.210938 0.000000
vn -0.784155 -0.220896 0.579919
vn -0.190594 0.236852 0.952667
vn -0.784155 0.220896 0.579919
vn -0.190594 -0.236852 0.952667
vn -0.784155 0.220896 0.579919
vn -0.784155 -0.220896 0.579919
vn -0.190594 -0.236852 0.952667
vn 0.533257 0.230147 0.814045
vn -0.190594 0.236852 0.952667
vn 0.533257 -0.230147 0.814045
vn -0.190594 0.236852 0.952667
vn -0.190594 -0.236852 0.952667
vn 0.533257 -0.230147 0.814045
vn 0.930226 0.213620 0.298405
vn 0.533257 0.230147 0.814045
vn 0.930226 -0.213620 0.298405
vn 0.533257 0.230147 0.814045
vn 0.533257 -0.230147 0.814045
vn 0.930226 -0.213620 0.298405
vn 0.930226 0.213620 -0.298405
vn 0.930226 0.213620 0.298405
vn 0.930226 -0.213620 -0.298405
vn 0.930226 0.213620 0.298405
vn 0.930226 -0.213620 0.298405
vn 0.930226 -0.213620 -0.298405
vn 0.533257 0.230147 -0.814045
vn 0.930226 0.213620 -0.298405
vn 0.533257 -0.230147 -0.814045
vn 0.930226 0.213620 -0.298405
vn 0.930226 -0.213620 -0.298405
vn 0.533257 -0.230147 -0.814045
vn -0.190594 0.236852 -0.952667
vn 0.533257 0.230147 -0.814045
vn -0.190594 -0.236852 -0.952667
vn 0.533257 0.230147 -0.814045
vn 0.533257 -0.230147 -0.814045
vn -0.190594 -0.236852 -0.952667
vn -0.784155 0.220896 -0.579919
vn -0.190594 0.236852 -0.952667
vn -0.784155 -0.220896 -0.579919
vn -0.190594 0.236852 -0.952667
vn -0.190594 -0.236852 -0.952667
vn -0.784155 -0.220896 -0.579919
vn -0.977499 0.210938 -0.000000
vn -0.784155 0.220896 -0.579919
vn -0.977499 -0.210938 -0.000000
vn -0.784155 0.220896 -0.579919
vn -0.784155 -0.220896 -0.579919
vn -0.977499 -0.210938 -0.000000
vn -0.784155 -0.220896 0.579919
vn -0.977499 -0.210938 0.000000
vn -0.630483 -0.620550 0.466271
vn -0.977499 -0.210938 0.000000
vn -0.798474 -0.602029 0.000000
vn -0.630483 -0.620550 0.466271
vn -0.190594 -0.236852 0.952667
vn -0.784155 -0.220896 0.579919
vn -0.149342 -0.648439 0.746474
vn -0.784155 -0.220896 0.579919
vn -0.630483 -0.620550 0.466271
vn -0.149342 -0.648439 0.746474
vn 0.533257 -0.230147 0.814045
vn -0.190594 -0.236852 0.952667
vn 0.422416 -0.636982 0.644840
vn -0.190594 -0.236852 0.952667
vn -0.149342 -0.648439 0.746474
vn 0.422416 -0.636982 0.644840
vn 0.930226 -0.213620 0.298405
vn 0.533257 -0.230147 0.814045
vn 0.756645 -0.607104 0.242722
vn 0.533257 -0.230147 0.814045
vn 0.422416 -0.636982 0.644840
vn 0.756645 -0.607104 0.242722
vn 0.930226 -0.213620 -0.298405
vn 0.930226 -0.213620 0.298405
vn 0.756645 -0.607104 -0.242722
vn 0.930226 -0.213620 0.298405
vn 0.756645 -0.607104 0.242722
vn 0.756645 -0.607104 -0.242722
vn 0.533257 -0.230147 -0.814045
vn 0.930226 -0.213620 -0.298405
vn 0.422416 -0.636982 -0.644840
vn 0.930226 -0.213620 -0.298405
vn 0.756645 -0.607104 -0.242722
vn 0.422416 -0.636982 -0.644840
vn -0.190594 -0.236852 -0.952667
vn 0.533257 -0.230147 -0.814045
vn -0.149342 -0.648439 -0.746474
vn 0.533257 -0.230147 -0.814045
vn 0.422416 -0.636982 -0.644840
vn -0.149342 -0.648439 -0.746474
vn -0.784155 -0.220896 -0.579919
vn -0.190594 -0.236852 -0.952667
vn -0.630483 -0.620550 -0.466271
vn -0.190594 -0.236852 -0.952667
vn -0.149342 -0.648439 -0.746474
vn -0.630483 -0.620550 -0.466271
vn -0.977499 -0.210938 -0.000000
vn -0.784155 -0.220896 -0.579919
vn -0.798474 -0.602029 -0.000000
vn -0.784155 -0.220896 -0.579919
vn -0.630483 -0.620550 -0.466271
vn -0.798474 -0.602029 -0.000000
vn -0.630483 -0.620550 0.466271
vn -0.798474 -0.602029 0.000000
vn -0.351037 -0.899654 0.259608
vn -0.798474 -0.602029 0.000000
vn -0.453872 -0.891067 0.000000
vn -0.351037 -0.899654 0.259608
vn -0.149342 -0.648439 0.746474
vn -0.630483 -0.620550 0.466271
vn -0.080632 -0.911626 0.403035
vn -0.630483 -0.620550 0.466271
vn -0.351037 -0.899654 0.259608
vn -0.080632 -0.911626 0.403035
vn 0.422416 -0.636982 0.644840
vn -0.149342 -0.648439 0.746474
vn 0.230953 -0.906841 0.352562
vn -0.149342 -0.648439 0.746474
vn -0.080632 -0.911626 0.403035
vn 0.230953 -0.906841 0.352562
vn 0.756645 -0.607104 0.242722
vn 0.422416 -0.636982 0.644840
vn 0.427652 -0.893473 0.137185
vn 0.422416 -0.636982 0.644840
vn 0.230953 -0.906841 0.352562
vn 0.427652 -0.893473 0.137185
vn 0.756645 -0.607104 -0.242722
vn 0.756645 -0.607104 0.242722
vn 0.427652 -0.893473 -0.137185
vn 0.756645 -0.607104 0.242722
vn 0.427652 -0.893473 0.137185
vn 0.427652 -0.893473 -0.137185
vn 0.422416 -0.636982 -0.644840
vn 0.756645 -0.607104 -0.242722
vn 0.230953 -0.906841 -0.352562
vn 0.756645 -0.607104 -0.242722
vn 0.427652 -0.893473 -0.137185
vn 0.230953 -0.906841 -0.352562
vn -0.149342 -0.648439 -0.746474
vn 0.422416 -0.636982 -0.644840
vn -0.080632 -0.911626 -0.403035
vn 0.422416 -0.636982 -0.644840
vn 0.230953 -0.906841 -0.352562
vn -0.080632 -0.911626 -0.403035
vn -0.630483 -0.620550 -0.466271
vn -0.149342 -0.648439 -0.746474
vn -0.351037 -0.899654 -0.259608
vn -0.149342 -0.648439 -0.746474
vn -0.080632 -0.911626 -0.403035
vn -0.351037 -0.899654 -0.259608
vn -0.798474 -0.602029 -0.000000
vn -0.630483 -0.620550 -0.466271
vn -0.453872 -0.891067 -0.000000
vn -0.630483 -0.620550 -0.466271
vn -0.351037 -0.899654 -0.259608
vn -0.453872 -0.891067 -0.000000
vn -0.351037 -0.899654 0.259608
vn -0.453872 -0.891067 0.000000
vn -0.000000 -1.000000 0.000000
vn -0.080632 -0.911626 0.403035
vn -0.351037 -0.899654 0.259608
vn -0.000000 -1.000000 0.000000
vn 0.230953 -0.906841 0.352562
vn -0.080632 -0.911626 0.403035
vn 0.000000 -1.000000 0.000000
vn 0.427652 -0.893473 0.137185
vn 0.230953 -0.906841 0.352562
vn 0.000000 -1.000000 0.000000
vn 0.427652 -0.893473 -0.137185
vn 0.427652 -0.893473 0.137185
vn 0.000000 -1.000000 -0.000000
vn 0.230953 -0.906841 -0.352562
vn 0.427652 -0.893473 -0.137185
vn 0.000000 -1.000000 -0.000000
vn -0.080632 -0.911626 -0.403035
vn 0.230953 -0.906841 -0.352562
vn -0.000000 -1.000000 -0.000000
vn -0.351037 -0.899654 -0.259608
vn -0.080632 -0.911626 -0.403035
vn -0.000000 -1.000000 -0.000000
vn -0.453872 -0.891067 -0.000000
vn -0.351037 -0.899654 -0.259608
vn -0.000000 -1.000000 -0.000000
vn -0.811520 -0.539959 0.223338
vn -0.514132 0.565838 0.644589
vn -0.934799 0.342857 -0.092737
vn -0.514132 0.565838 0.644589
vn -0.134103 0.816741 0.561204
vn -0.934799 0.342857 -0.092737
vn -0.514132 0.565838 0.644589
vn 0.556618 0.068155 0.827968
vn -0.134103 0.816741 0.561204
vn 0.556618 0.068155 0.827968
vn 0.877360 0.429041 0.214857
vn -0.134103 0.816741 0.561204
vn 0.556618 0.068155 0.827968
vn 0.792547 -0.607644 0.051368
vn 0.877360 0.429041 0.214857
vn 0.792547 -0.607644 0.051368
vn 0.701780 -0.284456 -0.653138
vn 0.877360 0.429041 0.214857
vn 0.792547 -0.607644 0.051368
vn -0.089313 -0.651028 -0.753781
vn 0.701780 -0.284456 -0.653138
vn -0.089313 -0.651028 -0.753781
vn -0.418195 -0.337721 -0.843242
vn 0.701780 -0.284456 -0.653138
vn -0.089313 -0.651028 -0.753781
vn -0.811520 -0.539959 0.223338
vn -0.418195 -0.337721 -0.843242
vn -0.811520 -0.539959 0.223338
vn -0.934799 0.342857 -0.092737
vn -0.418195 -0.337721 -0.843242
vn -0.934799 0.342857 -0.092737
vn -0.134103 0.816741 0.561204
vn -0.849694 0.503787 0.155621
vn -0.134103 0.816741 0.561204
vn 0.169034 0.778399 0.604585
vn -0.849694 0.503787 0.155621
vn -0.134103 0.816741 0.561204
vn 0.877360 0.429041 0.214857
vn 0.169034 0.778399 0.604585
vn 0.877360 0.429041 0.214857
vn 0.976920 0.212743 0.019200
vn 0.169034 0.778399 0.604585
vn 0.877360 0.429041 0.214857
vn 0.701780 -0.284456 -0.653138
vn 0.976920 0.212743 0.019200
vn 0.701780 -0.284456 -0.653138
vn 0.456831 -0.415556 -0.786523
vn 0.976920 0.212743 0.019200
vn 0.701780 -0.284456 -0.653138
vn -0.418195 -0.337721 -0.843242
vn 0.456831 -0.415556 -0.786523
vn -0.418195 -0.337721 -0.843242
vn -0.673041 -0.238881 -0.699965
vn 0.456831 -0.415556 -0.786523
vn -0.418195 -0.337721 -0.843242
vn -0.934799 0.342857 -0.092737
vn -0.673041 -0.238881 -0.699965
vn -0.934799 0.342857 -0.092737
vn -0.849694 0.503787 0.155621
vn -0.673041 -0.238881 -0.699965
vn -0.811520 -0.539959 0.223338
vn 0.556618 0.068155 0.827968
vn -0.514132 0.565838 0.644589
vn -0.849694 0.503787 0.155621
vn 0.169034 0.778399 0.604585
vn 0.976920 0.212743 0.019200
vn -0.811520 -0.539959 0.223338
vn 0.792547 -0.607644 0.051368
vn 0.556618 0.068155 0.827968
vn -0.849694 0.503787 0.155621
vn 0.976920 0.212743 0.019200
vn 0.456831 -0.415556 -0.786523
vn -0.811520 -0.539959 0.223338
vn -0.089313 -0.651028 -0.753781
vn 0.792547 -0.607644 0.051368
vn -0.849694 0.503787 0.155621
vn 0.456831 -0.415556 -0.786523
vn -0.673041 -0.238881 -0.699965
vn 0.778589 -0.039328 0.626300
vn 0.082567 0.873131 0.480443
vn 0.185162 0.069443 0.980251
vn 0.082567 0.873131 0.480443
vn -0.549439 0.761494 0.343865
vn 0.185162 0.069443 0.980251
vn 0.082567 0.873131 0.480443
vn -0.207402 0.768390 -0.605443
vn -0.549439 0.761494 0.343865
vn -0.207402 0.768390 -0.605443
vn -0.533750 0.389044 -0.750837
vn -0.549439 0.761494 0.343865
vn -0.207402 0.768390 -0.605443
vn -0.027514 -0.318311 -0.947587
vn -0.533750 0.389044 -0.750837
vn -0.027514 -0.318311 -0.947587
vn 0.227978 -0.524466 -0.820342
vn -0.533750 0.389044 -0.750837
vn -0.027514 -0.318311 -0.947587
vn 0.378313 -0.923781 -0.059226
vn 0.227978 -0.524466 -0.820342
vn 0.378313 -0.923781 -0.059226
vn 0.665428 -0.680073 0.307746
vn 0.227978 -0.524466 -0.820342
vn 0.378313 -0.923781 -0.059226
vn 0.778589 -0.039328 0.626300
vn 0.665428 -0.680073 0.307746
vn 0.778589 -0.039328 0.626300
vn 0.185162 0.069443 0.980251
vn 0.665428 -0.680073 0.307746
vn 0.185162 0.069443 0.980251
vn -0.549439 0.761494 0.343865
vn -0.519484 -0.083690 0.850372
vn -0.549439 0.761494 0.343865
vn -0.707632 0.702055 0.079849
vn -0.519484 -0.083690 0.850372
vn -0.549439 0.761494 0.343865
vn -0.533750 0.389044 -0.750837
vn -0.707632 0.702055 0.079849
vn -0.533750 0.389044 -0.750837
vn 0.109446 0.542694 -0.832769
vn -0.707632 0.702055 0.079849
vn -0.533750 0.389044 -0.750837
vn 0.227978 -0.524466 -0.820342
vn 0.109446 0.542694 -0.832769
vn 0.227978 -0.524466 -0.820342
vn 0.745606 -0.396681 -0.535458
vn 0.109446 0.542694 -0.832769
vn 0.227978 -0.524466 -0.820342
vn 0.665428 -0.680073 0.307746
vn 0.745606 -0.396681 -0.535458
vn 0.665428 -0.680073 0.307746
vn 0.357486 -0.792816 0.493605
vn 0.745606 -0.396681 -0.535458
vn 0.665428 -0.680073 0.307746
vn 0.185162 0.069443 0.980251
vn 0.357486 -0.792816 0.493605
vn 0.185162 0.069443 0.980251
vn -0.519484 -0.083690 0.850372
vn 0.357486 -0.792816 0.493605
vn -0.519484 -0.083690 0.850372
vn -0.707632 0.702055 0.079849
vn -0.927536 0.087357 0.363381
vn -0.707632 0.702055 0.079849
vn -0.283239 0.951174 -0.122657
vn -0.927536 0.087357 0.363381
vn -0.707632 0.702055 0.079849
vn 0.109446 0.542694 -0.832769
vn -0.283239 0.951174 -0.122657
vn 0.109446 0.542694 -0.832769
vn 0.301542 0.326203 -0.895915
vn -0.283239 0.951174 -0.122657
vn 0.109446 0.542694 -0.832769
vn 0.745606 -0.396681 -0.535458
vn 0.301542 0.326203 -0.895915
vn 0.745606 -0.396681 -0.535458
vn 0.310257 -0.769711 -0.557930
vn 0.301542 0.326203 -0.895915
vn 0.745606 -0.396681 -0.535458
vn 0.357486 -0.792816 0.493605
vn 0.310257 -0.769711 -0.557930
vn 0.357486 -0.792816 0.493605
vn -0.270632 -0.878518 0.393656
vn 0.310257 -0.769711 -0.557930
vn 0.357486 -0.792816 0.493605
vn -0.519484 -0.083690 0.850372
vn -0.270632 -0.878518 0.393656
vn -0.519484 -0.083690 0.850372
vn -0.927536 0.087357 0.363381
vn -0.270632 -0.878518 0.393656
vn 0.778589 -0.039328 0.626300
vn -0.207402 0.768390 -0.605443
vn 0.082567 0.873131 0.480443
vn -0.927536 0.087357 0.363381
vn -0.283239 0.951174 -0.122657
vn 0.301542 0.326203 -0.895915
vn 0.778589 -0.039328 0.626300
vn -0.027514 -0.318311 -0.947587
vn -0.207402 0.768390 -0.605443
vn -0.927536 0.087357 0.363381
vn 0.301542 0.326203 -0.895915
vn 0.310257 -0.769711 -0.557930
vn 0.778589 -0.039328 0.626300
vn 0.378313 -0.923781 -0.059226
vn -0.027514 -0.318311 -0.947587
vn -0.927536 0.087357 0.363381
vn 0.310257 -0.769711 -0.557930
vn -0.270632 -0.878518 0.393656
vn 0.383516 -0.124616 0.915088
vn -0.404535 0.751558 0.521068
vn 0.058054 0.012047 0.998241
vn -0.404535 0.751558 0.521068
vn -0.646349 0.721221 0.249144
vn 0.058054 0.012047 0.998241
vn -0.404535 0.751558 0.521068
vn -0.203539 0.784059 -0.586364
vn -0.646349 0.721221 0.249144
vn -0.203539 0.784059 -0.586364
vn -0.628640 0.316768 -0.710260
vn -0.646349 0.721221 0.249144
vn -0.203539 0.784059 -0.586364
vn 0.404417 -0.096798 -0.909438
vn -0.628640 0.316768 -0.710260
vn 0.404417 -0.096798 -0.909438
vn 0.078924 -0.681570 -0.727484
vn -0.628640 0.316768 -0.710260
vn 0.404417 -0.096798 -0.909438
vn 0.542913 -0.837168 0.066299
vn 0.078924 -0.681570 -0.727484
vn 0.542913 -0.837168 0.066299
vn 0.563608 -0.790465 0.239813
vn 0.078924 -0.681570 -0.727484
vn 0.542913 -0.837168 0.066299
vn 0.383516 -0.124616 0.915088
vn 0.563608 -0.790465 0.239813
vn 0.383516 -0.124616 0.915088
vn 0.058054 0.012047 0.998241
vn 0.563608 -0.790465 0.239813
vn 0.058054 0.012047 0.998241
vn -0.646349 0.721221 0.249144
vn 0.791188 -0.344021 -0.505640
vn -0.646349 0.721221 0.249144
vn 0.569062 0.562779 0.599540
vn 0.791188 -0.344021 -0.505640
vn -0.646349 0.721221 0.249144
vn -0.628640 0.316768 -0.710260
vn 0.569062 0.562779 0.599540
vn -0.628640 0.316768 -0.710260
vn -0.479359 -0.113007 0.870313
vn 0.569062 0.562779 0.599540
vn -0.628640 0.316768 -0.710260
vn 0.078924 -0.681570 -0.727484
vn -0.479359 -0.113007 0.870313
vn 0.078924 -0.681570 -0.727484
vn -0.769744 -0.636873 0.043442
vn -0.479359 -0.113007 0.870313
vn 0.078924 -0.681570 -0.727484
vn 0.563608 -0.790465 0.239813
vn -0.769744 -0.636873 0.043442
vn 0.563608 -0.790465 0.239813
vn -0.083408 -0.149702 -0.985207
vn -0.769744 -0.636873 0.043442
vn 0.563608 -0.790465 0.239813
vn 0.058054 0.012047 0.998241
vn -0.083408 -0.149702 -0.985207
vn 0.058054 0.012047 0.998241
vn 0.791188 -0.344021 -0.505640
vn -0.083408 -0.149702 -0.985207
vn 0.383516 -0.124616 0.915088
vn -0.203539 0.784059 -0.586364
vn -0.404535 0.751558 0.521068
vn 0.791188 -0.344021 -0.505640
vn 0.569062 0.562779 0.599540
vn -0.479359 -0.113007 0.870313
vn 0.383516 -0.124616 0.915088
vn 0.404417 -0.096798 -0.909438
vn -0.203539 0.784059 -0.586364
vn 0.791188 -0.344021 -0.505640
vn -0.479359 -0.113007 0.870313
vn -0.769744 -0.636873 0.043442
vn 0.383516 -0.124616 0.915088
vn 0.542913 -0.837168 0.066299
vn 0.404417 -0.096798 -0.909438
vn 0.791188 -0.344021 -0.505640
vn -0.769744 -0.636873 0.043442
vn -0.083408 -0.149702 -0.985207
vn 0.591438 -0.207605 0.779167
vn -0.062035 0.944902 0.321422
vn 0.208420 0.088936 0.973987
vn -0.062035 0.944902 0.321422
vn -0.660695 0.750170 0.026967
vn 0.208420 0.088936 0.973987
vn -0.062035 0.944902 0.321422
vn -0.385859 0.292714 -0.874890
vn -0.660695 0.750170 0.026967
vn -0.385859 0.292714 -0.874890
vn -0.217580 -0.083124 -0.972496
vn -0.660695 0.750170 0.026967
vn -0.385859 0.292714 -0.874890
vn 0.153474 -0.915713 -0.371370
vn -0.217580 -0.083124 -0.972496
vn 0.153474 -0.915713 -0.371370
vn 0.669567 -0.742752 0.000489
vn -0.217580 -0.083124 -0.972496
vn 0.153474 -0.915713 -0.371370
vn 0.591438 -0.207605 0.779167
vn 0.669567 -0.742752 0.000489
vn 0.591438 -0.207605 0.779167
vn 0.208420 0.088936 0.973987
vn 0.669567 -0.742752 0.000489
vn 0.208420 0.088936 0.973987
vn -0.660695 0.750170 0.026967
vn -0.542602 -0.102324 0.833734
vn -0.660695 0.750170 0.026967
vn -0.591608 0.777521 -0.213217
vn -0.542602 -0.102324 0.833734
vn -0.660695 0.750170 0.026967
vn -0.217580 -0.083124 -0.972496
vn -0.591608 0.777521 -0.213217
vn -0.217580 -0.083124 -0.972496
vn 0.551749 0.092453 -0.828870
vn -0.591608 0.777521 -0.213217
vn -0.217580 -0.083124 -0.972496
vn 0.669567 -0.742752 0.000489
vn 0.551749 0.092453 -0.828870
vn 0.669567 -0.742752 0.000489
vn 0.572456 -0.785758 0.234261
vn 0.551749 0.092453 -0.828870
vn 0.669567 -0.742752 0.000489
vn 0.208420 0.088936 0.973987
vn 0.572456 -0.785758 0.234261
vn 0.208420 0.088936 0.973987
vn -0.542602 -0.102324 0.833734
vn 0.572456 -0.785758 0.234261
vn -0.542602 -0.102324 0.833734
vn -0.591608 0.777521 -0.213217
vn -0.772833 0.245269 0.585297
vn -0.591608 0.777521 -0.213217
vn 0.016275 0.933237 -0.358892
vn -0.772833 0.245269 0.585297
vn -0.591608 0.777521 -0.213217
vn 0.551749 0.092453 -0.828870
vn 0.016275 0.933237 -0.358892
vn 0.551749 0.092453 -0.828870
vn 0.588632 -0.313719 -0.745045
vn 0.016275 0.933237 -0.358892
vn 0.551749 0.092453 -0.828870
vn 0.572456 -0.785758 0.234261
vn 0.588632 -0.313719 -0.745045
vn 0.572456 -0.785758 0.234261
vn -0.091647 -0.955842 0.279225
vn 0.588632 -0.313719 -0.745045
vn 0.572456 -0.785758 0.234261
vn -0.542602 -0.102324 0.833734
vn -0.091647 -0.955842 0.279225
vn -0.542602 -0.102324 0.833734
vn -0.772833 0.245269 0.585297
vn -0.091647 -0.955842 0.279225
vn 0.591438 -0.207605 0.779167
vn -0.385859 0.292714 -0.874890
vn -0.062035 0.944902 0.321422
vn -0.772833 0.245269 0.585297
vn 0.016275 0.933237 -0.358892
vn 0.588632 -0.313719 -0.745045
vn 0.591438 -0.207605 0.779167
vn 0.153474 -0.915713 -0.371370
vn -0.385859 0.292714 -0.874890
vn -0.772833 0.245269 0.585297
vn 0.588632 -0.313719 -0.745045
vn -0.091647 -0.955842 0.279225
vn 0.222792 -0.337632 0.914532
vn -0.467790 0.829388 0.305430
vn 0.040440 0.138210 0.989577
vn -0.467790 0.829388 0.305430
vn -0.607395 0.779738 -0.151921
vn 0.040440 0.138210 0.989577
vn -0.467790 0.829388 0.305430
vn -0.077939 0.426993 -0.900890
vn -0.607395 0.779738 -0.151921
vn -0.077939 0.426993 -0.900890
vn -0.144915 -0.225697 -0.963359
vn -0.607395 0.779738 -0.151921
vn -0.077939 0.426993 -0.900890
vn 0.528186 -0.785705 -0.322005
vn -0.144915 -0.225697 -0.963359
vn 0.528186 -0.785705 -0.322005
vn 0.531836 -0.834903 0.141731
vn -0.144915 -0.225697 -0.963359
vn 0.528186 -0.785705 -0.322005
vn 0.222792 -0.337632 0.914532
vn 0.531836 -0.834903 0.141731
vn 0.222792 -0.337632 0.914532
vn 0.040440 0.138210 0.989577
vn 0.531836 -0.834903 0.141731
vn 0.040440 0.138210 0.989577
vn -0.607395 0.779738 -0.151921
vn 0.752928 -0.030658 -0.657388
vn -0.607395 0.779738 -0.151921
vn 0.210473 0.401256 0.891457
vn 0.752928 -0.030658 -0.657388
vn -0.607395 0.779738 -0.151921
vn -0.144915 -0.225697 -0.963359
vn 0.210473 0.401256 0.891457
vn -0.144915 -0.225697 -0.963359
vn -0.724182 -0.211854 0.656261
vn 0.210473 0.401256 0.891457
vn -0.144915 -0.225697 -0.963359
vn 0.531836 -0.834903 0.141731
vn -0.724182 -0.211854 0.656261
vn 0.531836 -0.834903 0.141731
vn -0.245076 -0.352893 -0.902997
vn -0.724182 -0.211854 0.656261
vn 0.531836 -0.834903 0.141731
vn 0.040440 0.138210 0.989577
vn -0.245076 -0.352893 -0.902997
vn 0.040440 0.138210 0.989577
vn 0.752928 -0.030658 -0.657388
vn -0.245076 -0.352893 -0.902997
vn 0.222792 -0.337632 0.914532
vn -0.077939 0.426993 -0.900890
vn -0.467790 0.829388 0.305430
vn 0.752928 -0.030658 -0.657388
vn 0.210473 0.401256 0.891457
vn -0.724182 -0.211854 0.656261
vn 0.222792 -0.337632 0.914532
vn 0.528186 -0.785705 -0.322005
vn -0.077939 0.426993 -0.900890
vn 0.752928 -0.030658 -0.657388
vn -0.724182 -0.211854 0.656261
vn -0.245076 -0.352893 -0.902997
usemtl Dragon_color_atlas
f 1/1/1 2/2/2 3/3/3
f 4/4/4 5/5/5 6/6/6
f 7/7/7 8/8/8 9/9/9
f 10/10/10 11/11/11 12/12/12
f 13/13/13 14/14/14 15/15/15
f 16/16/16 17/17/17 18/18/18
f 19/19/19 20/20/20 21/21/21
f 22/22/22 23/23/23 24/24/24
f 25/25/25 26/26/26 27/27/27
f 28/28/28 29/29/29 30/30/30
f 31/31/31 32/32/32 33/33/33
f 34/34/34 35/35/35 36/36/36
f 37/37/37 38/38/38 39/39/39
f 40/40/40 41/41/41 42/42/42
f 43/43/43 44/44/44 45/45/45
f 46/46/46 47/47/47 48/48/48
f 49/49/49 50/50/50 51/51/51
f 52/52/52 53/53/53 54/54/54
f 55/55/55 56/56/56 57/57/57
f 58/58/58 59/59/59 60/60/60
f 61/61/61 62/62/62 63/63/63
f 64/64/64 65/65/65 66/66/66
f 67/67/67 68/68/68 69/69/69
f 70/70/70 71/71/71 72/72/72
f 73/73/73 74/74/74 75/75/75
f 76/76/76 77/77/77 78/78/78
f 79/79/79 80/80/80 81/81/81
f 82/82/82 83/83/83 84/84/84
f 85/85/85 86/86/86 87/87/87
f 88/88/88 89/89/89 90/90/90
f 91/91/91 92/92/92 93/93/93
f 94/94/94 95/95/95 96/96/96
f 97/97/97 98/98/98 99/99/99
f 100/100/100 101/101/101 102/102/102
f 103/103/103 104/104/104 105/105/105
f 106/106/106 107/107/107 108/108/108
f 109/109/109 110/110/110 111/111/111
f 112/112/112 113/113/113 114/114/114
f 115/115/115 116/116/116 117/117/117
f 118/118/118 119/119/119 120/120/120
f 121/121/121 122/122/122 123/123/123
f 124/124/124 125/125/125 126/126/126
f 127/127/127 128/128/128 129/129/129
f 130/130/130 131/131/131 132/132/132
f 133/133/133 134/134/134 135/135/135
f 136/136/136 137/137/137 138/138/138
f 139/139/139 140/140/140 141/141/141
f 142/142/142 143/143/143 144/144/144
f 145/145/145 146/146/146 147/147/147
f 148/148/148 149/149/149 150/150/150
f 151/151/151 152/152/152 153/153/153
f 154/154/154 155/155/155 156/156/156
f 157/157/157 158/158/158 159/159/159
f 160/160/160 161/161/161 162/162/162
f 163/163/163 164/164/164 165/165/165
f 166/166/166 167/167/167 168/168/168
f 169/169/169 170/170/170 171/171/171
f 172/172/172 173/173/173 174/174/174
f 175/175/175 176/176/176 177/177/177
f 178/178/178 179/179/179 180/180/180
f 181/181/181 182/182/182 183/183/183
f 184/184/184 185/185/185 186/186/186
f 187/187/187 188/188/188 189/189/189
f 190/190/190 191/191/191 192/192/192
f 193/193/193 194/194/194 195/195/195
f 196/196/196 197/197/197 198/198/198
f 199/199/199 200/200/200 201/201/201
f 202/202/202 203/203/203 204/204/204
f 205/205/205 206/206/206 207/207/207
f 208/208/208 209/209/209 210/210/210
f 211/211/211 212/212/212 213/213/213
f 214/214/214 215/215/215 216/216/216
f 217/217/217 218/218/218 219/219/219
f 220/220/220 221/221/221 222/222/222
f 223/223/223 224/224/224 225/225/225
f 226/226/226 227/227/227 228/228/228
f 229/229/229 230/230/230 231/231/231
f 232/232/232 233/233/233 234/234/234
f 235/235/235 236/236/236 237/237/237
f 238/238/238 239/239/239 240/240/240
f 241/241/241 242/242/242 243/243/243
f 244/244/244 245/245/245 246/246/246
f 247/247/247 248/248/248 249/249/249
f 250/250/250 251/251/251 252/252/252
f 253/253/253 254/254/254 255/255/255
f 256/256/256 257/257/257 258/258/258
f 259/259/259 260/260/260 261/261/261
f 262/262/262 263/263/263 264/264/264
f 265/265/265 266/266/266 267/267/267
f 268/268/268 269/269/269 270/270/270
f 271/271/271 272/272/272 273/273/273
f 274/274/274 275/275/275 276/276/276
f 277/277/277 278/278/278 279/279/279
f 280/280/280 281/281/281 282/282/282
f 283/283/283 284/284/284 285/285/285
f 286/286/286 287/287/287 288/288/288
f 289/289/289 290/290/290 291/291/291
f 292/292/292 293/293/293 294/294/294
f 295/295/295 296/296/296 297/297/297
f 298/298/298 299/299/299 300/300/300
f 301/301/301 302/302/302 303/303/303
f 304/304/304 305/305/305 306/306/306
f 307/307/307 308/308/308 309/309/309
f 310/310/310 311/311/311 312/312/312
f 313/313/313 314/314/314 315/315/315
f 316/316/316 317/317/317 318/318/318
f 319/319/319 320/320/320 321/321/321
f 322/322/322 323/323/323 324/324/324
f 325/325/325 326/326/326 327/327/327
f 328/328/328 329/329/329 330/330/330
f 331/331/331 332/332/332 333/333/333
f 334/334/334 335/335/335 336/336/336
f 337/337/337 338/338/338 339/339/339
f 340/340/340 341/341/341 342/342/342
f 343/343/343 344/344/344 345/345/345
f 346/346/346 347/347/347 348/348/348
f 349/349/349 350/350/350 351/351/351
f 352/352/352 353/353/353 354/354/354
f 355/355/355 356/356/356 357/357/357
f 358/358/358 359/359/359 360/360/360
f 361/361/361 362/362/362 363/363/363
f 364/364/364 365/365/365 366/366/366
f 367/367/367 368/368/368 369/369/369
f 370/370/370 371/371/371 372/372/372
f 373/373/373 374/374/374 375/375/375
f 376/376/376 377/377/377 378/378/378
f 379/379/379 380/380/380 381/381/381
f 382/382/382 383/383/383 384/384/384
f 385/385/385 386/386/386 387/387/387
f 388/388/388 389/389/389 390/390/390
f 391/391/391 392/392/392 393/393/393
f 394/394/394 395/395/395 396/396/396
f 397/397/397 398/398/398 399/399/399
f 400/400/400 401/401/401 402/402/402
f 403/403/403 404/404/404 405/405/405
f 406/406/406 407/407/407 408/408/408
f 409/409/409 410/410/410 411/411/411
f 412/412/412 413/413/413 414/414/414
f 415/415/415 416/416/416 417/417/417
f 418/418/418 419/419/419 420/420/420
f 421/421/421 422/422/422 423/423/423
f 424/424/424 425/425/425 426/426/426
f 427/427/427 428/428/428 429/429/429
f 430/430/430 431/431/431 432/432/432
f 433/433/433 434/434/434 435/435/435
f 436/436/436 437/437/437 438/438/438
f 439/439/439 440/440/440 441/441/441
f 442/442/442 443/443/443 444/444/444
f 445/445/445 446/446/446 447/447/447
f 448/448/448 449/449/449 450/450/450
f 451/451/451 452/452/452 453/453/453
f 454/454/454 455/455/455 456/456/456
f 457/457/457 458/458/458 459/459/459
f 460/460/460 461/461/461 462/462/462
f 463/463/463 464/464/464 465/465/465
f 466/466/466 467/467/467 468/468/468
f 469/469/469 470/470/470 471/471/471
f 472/472/472 473/473/473 474/474/474
f 475/475/475 476/476/476 477/477/477
f 478/478/478 479/479/479 480/480/480
f 481/481/481 482/482/482 483/483/483
f 484/484/484 485/485/485 486/486/486
f 487/487/487 488/488/488 489/489/489
f 490/490/490 491/491/491 492/492/492
f 493/493/493 494/494/494 495/495/495
f 496/496/496 497/497/497 498/498/498
f 499/499/499 500/500/500 501/501/501
f 502/502/502 503/503/503 504/504/504
f 505/505/505 506/506/506 507/507/507
f 508/508/508 509/509/509 510/510/510
f 511/511/511 512/512/512 513/513/513
f 514/514/514 515/515/515 516/516/516
f 517/517/517 518/518/518 519/519/519
f 520/520/520 521/521/521 522/522/522
f 523/523/523 524/524/524 525/525/525
f 526/526/526 527/527/527 528/528/528
f 529/529/529 530/530/530 531/531/531
f 532/532/532 533/533/533 534/534/534
f 535/535/535 536/536/536 537/537/537
f 538/538/538 539/539/539 540/540/540
f 541/541/541 542/542/542 543/543/543
f 544/544/544 545/545/545 546/546/546
f 547/547/547 548/548/548 549/549/549
f 550/550/550 551/551/551 552/552/552
f 553/553/553 554/554/554 555/555/555
f 556/556/556 557/557/557 558/558/558
f 559/559/559 560/560/560 561/561/561
f 562/562/562 563/563/563 564/564/564
f 565/565/565 566/566/566 567/567/567
f 568/568/568 569/569/569 570/570/570
f 571/571/571 572/572/572 573/573/573
f 574/574/574 575/575/575 576/576/576
f 577/577/577 578/578/578 579/579/579
f 580/580/580 581/581/581 582/582/582
f 583/583/583 584/584/584 585/585/585
f 586/586/586 587/587/587 588/588/588
f 589/589/589 590/590/590 591/591/591
f 592/592/592 593/593/593 594/594/594
f 595/595/595 596/596/596 597/597/597
f 598/598/598 599/599/599 600/600/600
f 601/601/601 602/602/602 603/603/603
f 604/604/604 605/605/605 606/606/606
f 607/607/607 608/608/608 609/609/609
f 610/610/610 611/611/611 612/612/612
f 613/613/613 614/614/614 615/615/615
f 616/616/616 617/617/617 618/618/618
f 619/619/619 620/620/620 621/621/621
f 622/622/622 623/623/623 624/624/624
f 625/625/625 626/626/626 627/627/627
f 628/628/628 629/629/629 630/630/630
f 631/631/631 632/632/632 633/633/633
f 634/634/634 635/635/635 636/636/636
f 637/637/637 638/638/638 639/639/639
f 640/640/640 641/641/641 642/642/642
f 643/643/643 644/644/644 645/645/645
f 646/646/646 647/647/647 648/648/648
f 649/649/649 650/650/650 651/651/651
f 652/652/652 653/653/653 654/654/654
f 655/655/655 656/656/656 657/657/657
f 658/658/658 659/659/659 660/660/660
f 661/661/661 662/662/662 663/663/663
f 664/664/664 665/665/665 666/666/666
f 667/667/667 668/668/668 669/669/669
f 670/670/670 671/671/671 672/672/672
f 673/673/673 674/674/674 675/675/675
f 676/676/676 677/677/677 678/678/678
f 679/679/679 680/680/680 681/681/681
f 682/682/682 683/683/683 684/684/684
f 685/685/685 686/686/686 687/687/687
f 688/688/688 689/689/689 690/690/690
f 691/691/691 692/692/692 693/693/693
f 694/694/694 695/695/695 696/696/696
f 697/697/697 698/698/698 699/699/699
f 700/700/700 701/701/701 702/702/702
f 703/703/703 704/704/704 705/705/705
f 706/706/706 707/707/707 708/708/708
f 709/709/709 710/710/710 711/711/711
f 712/712/712 713/713/713 714/714/714
f 715/715/715 716/716/716 717/717/717
f 718/718/718 719/719/719 720/720/720
f 721/721/721 722/722/722 723/723/723
f 724/724/724 725/725/725 726/726/726
f 727/727/727 728/728/728 729/729/729
f 730/730/730 731/731/731 732/732/732
f 733/733/733 734/734/734 735/735/735
f 736/736/736 737/737/737 738/738/738
f 739/739/739 740/740/740 741/741/741
f 742/742/742 743/743/743 744/744/744
f 745/745/745 746/746/746 747/747/747
f 748/748/748 749/749/749 750/750/750
f 751/751/751 752/752/752 753/753/753
f 754/754/754 755/755/755 756/756/756
f 757/757/757 758/758/758 759/759/759
f 760/760/760 761/761/761 762/762/762
f 763/763/763 764/764/764 765/765/765
f 766/766/766 767/767/767 768/768/768
f 769/769/769 770/770/770 771/771/771
f 772/772/772 773/773/773 774/774/774
f 775/775/775 776/776/776 777/777/777
f 778/778/778 779/779/779 780/780/780
f 781/781/781 782/782/782 783/783/783
f 784/784/784 785/785/785 786/786/786
f 787/787/787 788/788/788 789/789/789
f 790/790/790 791/791/791 792/792/792
f 793/793/793 794/794/794 795/795/795
f 796/796/796 797/797/797 798/798/798
f 799/799/799 800/800/800 801/801/801
f 802/802/802 803/803/803 804/804/804
f 805/805/805 806/806/806 807/807/807
f 808/808/808 809/809/809 810/810/810
f 811/811/811 812/812/812 813/813/813
f 814/814/814 815/815/815 816/816/816
f 817/817/817 818/818/818 819/819/819
f 820/820/820 821/821/821 822/822/822
f 823/823/823 824/824/824 825/825/825
f 826/826/826 827/827/827 828/828/828
f 829/829/829 830/830/830 831/831/831
f 832/832/832 833/833/833 834/834/834
f 835/835/835 836/836/836 837/837/837
f 838/838/838 839/839/839 840/840/840
f 841/841/841 842/842/842 843/843/843
f 844/844/844 845/845/845 846/846/846
f 847/847/847 848/848/848 849/849/849
f 850/850/850 851/851/851 852/852/852
f 853/853/853 854/854/854 855/855/855
f 856/856/856 857/857/857 858/858/858
f 859/859/859 860/860/860 861/861/861
f 862/862/862 863/863/863 864/864/864
f 865/865/865 866/866/866 867/867/867
f 868/868/868 869/869/869 870/870/870
f 871/871/871 872/872/872 873/873/873
f 874/874/874 875/875/875 876/876/876
f 877/877/877 878/878/878 879/879/879
f 880/880/880 881/881/881 882/882/882
