# Obsidian West — joint-local part geometry, +Y up, +Z forward
mtllib materials.mtl
o R_Foot
v 0.220000 0.000000 -0.000000
v 0.155563 0.076002 0.159605
v 0.320000 -0.420000 0.200000
v 0.155563 0.076002 0.159605
v 0.226274 -0.286934 0.293506
v 0.320000 -0.420000 0.200000
v 0.155563 0.076002 0.159605
v 0.000000 0.107483 0.225715
v 0.226274 -0.286934 0.293506
v 0.000000 0.107483 0.225715
v 0.000000 -0.231816 0.332237
v 0.226274 -0.286934 0.293506
v 0.000000 0.107483 0.225715
v -0.155563 0.076002 0.159605
v 0.000000 -0.231816 0.332237
v -0.155563 0.076002 0.159605
v -0.226274 -0.286934 0.293506
v 0.000000 -0.231816 0.332237
v -0.155563 0.076002 0.159605
v -0.220000 0.000000 -0.000000
v -0.226274 -0.286934 0.293506
v -0.220000 0.000000 -0.000000
v -0.320000 -0.420000 0.200000
v -0.226274 -0.286934 0.293506
v -0.220000 0.000000 -0.000000
v -0.155563 -0.076002 -0.159605
v -0.320000 -0.420000 0.200000
v -0.155563 -0.076002 -0.159605
v -0.226274 -0.553066 0.106494
v -0.320000 -0.420000 0.200000
v -0.155563 -0.076002 -0.159605
v 0.000000 -0.107483 -0.225715
v -0.226274 -0.553066 0.106494
v 0.000000 -0.107483 -0.225715
v 0.000000 -0.608184 0.067762
v -0.226274 -0.553066 0.106494
v 0.000000 -0.107483 -0.225715
v 0.155563 -0.076002 -0.159605
v 0.000000 -0.608184 0.067762
v 0.155563 -0.076002 -0.159605
v 0.226274 -0.553066 0.106494
v 0.000000 -0.608184 0.067762
v 0.155563 -0.076002 -0.159605
v 0.220000 0.000000 -0.000000
v 0.226274 -0.553066 0.106494
v 0.220000 0.000000 -0.000000
v 0.320000 -0.420000 0.200000
v 0.226274 -0.553066 0.106494
v 0.320000 -0.420000 0.200000
v 0.226274 -0.286934 0.293506
v 0.370000 -0.520000 0.740000
v 0.226274 -0.286934 0.293506
v 0.261629 -0.394849 0.763176
v 0.370000 -0.520000 0.740000
v 0.226274 -0.286934 0.293506
v 0.000000 -0.231816 0.332237
v 0.261629 -0.394849 0.763176
v 0.000000 -0.231816 0.332237
v 0.000000 -0.343009 0.772776
v 0.261629 -0.394849 0.763176
v 0.000000 -0.231816 0.332237
v -0.226274 -0.286934 0.293506
v 0.000000 -0.343009 0.772776
v -0.226274 -0.286934 0.293506
v -0.261630 -0.394849 0.763176
v 0.000000 -0.343009 0.772776
v -0.226274 -0.286934 0.293506
v -0.320000 -0.420000 0.200000
v -0.261630 -0.394849 0.763176
v -0.320000 -0.420000 0.200000
v -0.370000 -0.520000 0.740000
v -0.261630 -0.394849 0.763176
v -0.320000 -0.420000 0.200000
v -0.226274 -0.553066 0.106494
v -0.370000 -0.520000 0.740000
v -0.226274 -0.553066 0.106494
v -0.261630 -0.645151 0.716824
v -0.370000 -0.520000 0.740000
v -0.226274 -0.553066 0.106494
v 0.000000 -0.608184 0.067762
v -0.261630 -0.645151 0.716824
v 0.000000 -0.608184 0.067762
v 0.000000 -0.696991 0.707224
v -0.261630 -0.645151 0.716824
v 0.000000 -0.608184 0.067762
v 0.226274 -0.553066 0.106494
v 0.000000 -0.696991 0.707224
v 0.226274 -0.553066 0.106494
v 0.261629 -0.645151 0.716824
v 0.000000 -0.696991 0.707224
v 0.226274 -0.553066 0.106494
v 0.320000 -0.420000 0.200000
v 0.261629 -0.645151 0.716824
v 0.320000 -0.420000 0.200000
v 0.370000 -0.520000 0.740000
v 0.261629 -0.645151 0.716824
v 0.220000 0.000000 -0.000000
v 0.000000 0.107483 0.225715
v 0.155563 0.076002 0.159605
v 0.370000 -0.520000 0.740000
v 0.261629 -0.394849 0.763176
v 0.000000 -0.343009 0.772776
v 0.220000 0.000000 -0.000000
v -0.155563 0.076002 0.159605
v 0.000000 0.107483 0.225715
v 0.370000 -0.520000 0.740000
v 0.000000 -0.343009 0.772776
v -0.261630 -0.394849 0.763176
v 0.220000 0.000000 -0.000000
v -0.220000 0.000000 -0.000000
v -0.155563 0.076002 0.159605
v 0.370000 -0.520000 0.740000
v -0.261630 -0.394849 0.763176
v -0.370000 -0.520000 0.740000
v 0.220000 0.000000 -0.000000
v -0.155563 -0.076002 -0.159605
v -0.220000 0.000000 -0.000000
v 0.370000 -0.520000 0.740000
v -0.370000 -0.520000 0.740000
v -0.261630 -0.645151 0.716824
v 0.220000 0.000000 -0.000000
v 0.000000 -0.107483 -0.225715
v -0.155563 -0.076002 -0.159605
v 0.370000 -0.520000 0.740000
v -0.261630 -0.645151 0.716824
v 0.000000 -0.696991 0.707224
v 0.220000 0.000000 -0.000000
v 0.155563 -0.076002 -0.159605
v 0.000000 -0.107483 -0.225715
v 0.370000 -0.520000 0.740000
v 0.000000 -0.696991 0.707224
v 0.261629 -0.645151 0.716824
v 0.000000 -0.580000 0.510000
v -0.099793 -0.586932 0.510000
v -0.049897 -0.586932 0.585151
v 0.000000 -0.580000 0.510000
v -0.049897 -0.586932 0.585151
v 0.049897 -0.586932 0.585151
v 0.000000 -0.580000 0.510000
v 0.049897 -0.586932 0.585151
v 0.099793 -0.586932 0.510000
v 0.000000 -0.580000 0.510000
v 0.099793 -0.586932 0.510000
v 0.049897 -0.586932 0.434849
v 0.000000 -0.580000 0.510000
v 0.049897 -0.586932 0.434849
v -0.049897 -0.586932 0.434849
v 0.000000 -0.580000 0.510000
v -0.049897 -0.586932 0.434849
v -0.099793 -0.586932 0.510000
v -0.049897 -0.586932 0.585151
v -0.099793 -0.586932 0.510000
v -0.089911 -0.606356 0.645417
v -0.099793 -0.586932 0.510000
v -0.179821 -0.606356 0.510000
v -0.089911 -0.606356 0.645417
v 0.049897 -0.586932 0.585151
v -0.049897 -0.586932 0.585151
v 0.089911 -0.606356 0.645417
v -0.049897 -0.586932 0.585151
v -0.089911 -0.606356 0.645417
v 0.089911 -0.606356 0.645417
v 0.099793 -0.586932 0.510000
v 0.049897 -0.586932 0.585151
v 0.179821 -0.606356 0.510000
v 0.049897 -0.586932 0.585151
v 0.089911 -0.606356 0.645417
v 0.179821 -0.606356 0.510000
v 0.049897 -0.586932 0.434849
v 0.099793 -0.586932 0.510000
v 0.089911 -0.606356 0.374583
v 0.099793 -0.586932 0.510000
v 0.179821 -0.606356 0.510000
v 0.089911 -0.606356 0.374583
v -0.049897 -0.586932 0.434849
v 0.049897 -0.586932 0.434849
v -0.089911 -0.606356 0.374583
v 0.049897 -0.586932 0.434849
v 0.089911 -0.606356 0.374583
v -0.089911 -0.606356 0.374583
v -0.099793 -0.586932 0.510000
v -0.049897 -0.586932 0.434849
v -0.179821 -0.606356 0.510000
v -0.049897 -0.586932 0.434849
v -0.089911 -0.606356 0.374583
v -0.179821 -0.606356 0.510000
v -0.089911 -0.606356 0.645417
v -0.179821 -0.606356 0.510000
v -0.112117 -0.634424 0.678862
v -0.179821 -0.606356 0.510000
v -0.224233 -0.634424 0.510000
v -0.112117 -0.634424 0.678862
v 0.089911 -0.606356 0.645417
v -0.089911 -0.606356 0.645417
v 0.112117 -0.634424 0.678862
v -0.089911 -0.606356 0.645417
v -0.112117 -0.634424 0.678862
v 0.112117 -0.634424 0.678862
v 0.179821 -0.606356 0.510000
v 0.089911 -0.606356 0.645417
v 0.224233 -0.634424 0.510000
v 0.089911 -0.606356 0.645417
v 0.112117 -0.634424 0.678862
v 0.224233 -0.634424 0.510000
v 0.089911 -0.606356 0.374583
v 0.179821 -0.606356 0.510000
v 0.112117 -0.634424 0.341138
v 0.179821 -0.606356 0.510000
v 0.224233 -0.634424 0.510000
v 0.112117 -0.634424 0.341138
v -0.089911 -0.606356 0.374583
v 0.089911 -0.606356 0.374583
v -0.112117 -0.634424 0.341138
v 0.089911 -0.606356 0.374583
v 0.112117 -0.634424 0.341138
v -0.112117 -0.634424 0.341138
v -0.179821 -0.606356 0.510000
v -0.089911 -0.606356 0.374583
v -0.224233 -0.634424 0.510000
v -0.089911 -0.606356 0.374583
v -0.112117 -0.634424 0.341138
v -0.224233 -0.634424 0.510000
v -0.112117 -0.634424 0.678862
v -0.224233 -0.634424 0.510000
v -0.112117 -0.665576 0.678862
v -0.224233 -0.634424 0.510000
v -0.224233 -0.665576 0.510000
v -0.112117 -0.665576 0.678862
v 0.112117 -0.634424 0.678862
v -0.112117 -0.634424 0.678862
v 0.112117 -0.665576 0.678862
v -0.112117 -0.634424 0.678862
v -0.112117 -0.665576 0.678862
v 0.112117 -0.665576 0.678862
v 0.224233 -0.634424 0.510000
v 0.112117 -0.634424 0.678862
v 0.224233 -0.665576 0.510000
v 0.112117 -0.634424 0.678862
v 0.112117 -0.665576 0.678862
v 0.224233 -0.665576 0.510000
v 0.112117 -0.634424 0.341138
v 0.224233 -0.634424 0.510000
v 0.112117 -0.665576 0.341138
v 0.224233 -0.634424 0.510000
v 0.224233 -0.665576 0.510000
v 0.112117 -0.665576 0.341138
v -0.112117 -0.634424 0.341138
v 0.112117 -0.634424 0.341138
v -0.112117 -0.665576 0.341138
v 0.112117 -0.634424 0.341138
v 0.112117 -0.665576 0.341138
v -0.112117 -0.665576 0.341138
v -0.224233 -0.634424 0.510000
v -0.112117 -0.634424 0.341138
v -0.224233 -0.665576 0.510000
v -0.112117 -0.634424 0.341138
v -0.112117 -0.665576 0.341138
v -0.224233 -0.665576 0.510000
v -0.112117 -0.665576 0.678862
v -0.224233 -0.665576 0.510000
v -0.089911 -0.693644 0.645417
v -0.224233 -0.665576 0.510000
v -0.179821 -0.693644 0.510000
v -0.089911 -0.693644 0.645417
v 0.112117 -0.665576 0.678862
v -0.112117 -0.665576 0.678862
v 0.089911 -0.693644 0.645417
v -0.112117 -0.665576 0.678862
v -0.089911 -0.693644 0.645417
v 0.089911 -0.693644 0.645417
v 0.224233 -0.665576 0.510000
v 0.112117 -0.665576 0.678862
v 0.179821 -0.693644 0.510000
v 0.112117 -0.665576 0.678862
v 0.089911 -0.693644 0.645417
v 0.179821 -0.693644 0.510000
v 0.112117 -0.665576 0.341138
v 0.224233 -0.665576 0.510000
v 0.089911 -0.693644 0.374583
v 0.224233 -0.665576 0.510000
v 0.179821 -0.693644 0.510000
v 0.089911 -0.693644 0.374583
v -0.112117 -0.665576 0.341138
v 0.112117 -0.665576 0.341138
v -0.089911 -0.693644 0.374583
v 0.112117 -0.665576 0.341138
v 0.089911 -0.693644 0.374583
v -0.089911 -0.693644 0.374583
v -0.224233 -0.665576 0.510000
v -0.112117 -0.665576 0.341138
v -0.179821 -0.693644 0.510000
v -0.112117 -0.665576 0.341138
v -0.089911 -0.693644 0.374583
v -0.179821 -0.693644 0.510000
v -0.089911 -0.693644 0.645417
v -0.179821 -0.693644 0.510000
v -0.049897 -0.713068 0.585151
v -0.179821 -0.693644 0.510000
v -0.099793 -0.713068 0.510000
v -0.049897 -0.713068 0.585151
v 0.089911 -0.693644 0.645417
v -0.089911 -0.693644 0.645417
v 0.049897 -0.713068 0.585151
v -0.089911 -0.693644 0.645417
v -0.049897 -0.713068 0.585151
v 0.049897 -0.713068 0.585151
v 0.179821 -0.693644 0.510000
v 0.089911 -0.693644 0.645417
v 0.099793 -0.713068 0.510000
v 0.089911 -0.693644 0.645417
v 0.049897 -0.713068 0.585151
v 0.099793 -0.713068 0.510000
v 0.089911 -0.693644 0.374583
v 0.179821 -0.693644 0.510000
v 0.049897 -0.713068 0.434849
v 0.179821 -0.693644 0.510000
v 0.099793 -0.713068 0.510000
v 0.049897 -0.713068 0.434849
v -0.089911 -0.693644 0.374583
v 0.089911 -0.693644 0.374583
v -0.049897 -0.713068 0.434849
v 0.089911 -0.693644 0.374583
v 0.049897 -0.713068 0.434849
v -0.049897 -0.713068 0.434849
v -0.179821 -0.693644 0.510000
v -0.089911 -0.693644 0.374583
v -0.099793 -0.713068 0.510000
v -0.089911 -0.693644 0.374583
v -0.049897 -0.713068 0.434849
v -0.099793 -0.713068 0.510000
v -0.049897 -0.713068 0.585151
v -0.099793 -0.713068 0.510000
v 0.000000 -0.720000 0.510000
v 0.049897 -0.713068 0.585151
v -0.049897 -0.713068 0.585151
v 0.000000 -0.720000 0.510000
v 0.099793 -0.713068 0.510000
v 0.049897 -0.713068 0.585151
v 0.000000 -0.720000 0.510000
v 0.049897 -0.713068 0.434849
v 0.099793 -0.713068 0.510000
v 0.000000 -0.720000 0.510000
v -0.049897 -0.713068 0.434849
v 0.049897 -0.713068 0.434849
v 0.000000 -0.720000 0.510000
v -0.099793 -0.713068 0.510000
v -0.049897 -0.713068 0.434849
v 0.000000 -0.720000 0.510000
v -0.161004 -0.500000 0.546125
v -0.226366 -0.387633 0.544977
v -0.230902 -0.530000 1.024683
v -0.226366 -0.387633 0.544977
v -0.291826 -0.426686 1.028494
v -0.230902 -0.530000 1.024683
v -0.226366 -0.387633 0.544977
v -0.355362 -0.387633 0.528853
v -0.291826 -0.426686 1.028494
v -0.355362 -0.387633 0.528853
v -0.410924 -0.426686 1.013811
v -0.291826 -0.426686 1.028494
v -0.355362 -0.387633 0.528853
v -0.418996 -0.500000 0.513875
v -0.410924 -0.426686 1.013811
v -0.418996 -0.500000 0.513875
v -0.469098 -0.530000 0.995317
v -0.410924 -0.426686 1.013811
v -0.418996 -0.500000 0.513875
v -0.353634 -0.612367 0.515023
v -0.469098 -0.530000 0.995317
v -0.353634 -0.612367 0.515023
v -0.408174 -0.633314 0.991506
v -0.469098 -0.530000 0.995317
v -0.353634 -0.612367 0.515023
v -0.224638 -0.612367 0.531147
v -0.408174 -0.633314 0.991506
v -0.224638 -0.612367 0.531147
v -0.289076 -0.633314 1.006189
v -0.408174 -0.633314 0.991506
v -0.224638 -0.612367 0.531147
v -0.161004 -0.500000 0.546125
v -0.289076 -0.633314 1.006189
v -0.161004 -0.500000 0.546125
v -0.230902 -0.530000 1.024683
v -0.289076 -0.633314 1.006189
v -0.230902 -0.530000 1.024683
v -0.291826 -0.426686 1.028494
v -0.290641 -0.580000 1.270723
v -0.291826 -0.426686 1.028494
v -0.337129 -0.503550 1.280434
v -0.290641 -0.580000 1.270723
v -0.291826 -0.426686 1.028494
v -0.410924 -0.426686 1.013811
v -0.337129 -0.503550 1.280434
v -0.410924 -0.426686 1.013811
v -0.426488 -0.503550 1.269711
v -0.337129 -0.503550 1.280434
v -0.410924 -0.426686 1.013811
v -0.469098 -0.530000 0.995317
v -0.426488 -0.503550 1.269711
v -0.469098 -0.530000 0.995317
v -0.469359 -0.580000 1.249277
v -0.426488 -0.503550 1.269711
v -0.469098 -0.530000 0.995317
v -0.408174 -0.633314 0.991506
v -0.469359 -0.580000 1.249277
v -0.408174 -0.633314 0.991506
v -0.422871 -0.656450 1.239566
v -0.469359 -0.580000 1.249277
v -0.408174 -0.633314 0.991506
v -0.289076 -0.633314 1.006189
v -0.422871 -0.656450 1.239566
v -0.289076 -0.633314 1.006189
v -0.333512 -0.656450 1.250289
v -0.422871 -0.656450 1.239566
v -0.289076 -0.633314 1.006189
v -0.230902 -0.530000 1.024683
v -0.333512 -0.656450 1.250289
v -0.230902 -0.530000 1.024683
v -0.290641 -0.580000 1.270723
v -0.333512 -0.656450 1.250289
v -0.161004 -0.500000 0.546125
v -0.355362 -0.387633 0.528853
v -0.226366 -0.387633 0.544977
v -0.290641 -0.580000 1.270723
v -0.337129 -0.503550 1.280434
v -0.426488 -0.503550 1.269711
v -0.161004 -0.500000 0.546125
v -0.418996 -0.500000 0.513875
v -0.355362 -0.387633 0.528853
v -0.290641 -0.580000 1.270723
v -0.426488 -0.503550 1.269711
v -0.469359 -0.580000 1.249277
v -0.161004 -0.500000 0.546125
v -0.353634 -0.612367 0.515023
v -0.418996 -0.500000 0.513875
v -0.290641 -0.580000 1.270723
v -0.469359 -0.580000 1.249277
v -0.422871 -0.656450 1.239566
v -0.161004 -0.500000 0.546125
v -0.224638 -0.612367 0.531147
v -0.353634 -0.612367 0.515023
v -0.290641 -0.580000 1.270723
v -0.422871 -0.656450 1.239566
v -0.333512 -0.656450 1.250289
v 0.130000 -0.500000 0.530000
v 0.065000 -0.387636 0.537023
v 0.120000 -0.530000 1.010000
v 0.065000 -0.387636 0.537023
v 0.060000 -0.426695 1.021321
v 0.120000 -0.530000 1.010000
v 0.065000 -0.387636 0.537023
v -0.065000 -0.387636 0.537023
v 0.060000 -0.426695 1.021321
v -0.065000 -0.387636 0.537023
v -0.060000 -0.426695 1.021321
v 0.060000 -0.426695 1.021321
v -0.065000 -0.387636 0.537023
v -0.130000 -0.500000 0.530000
v -0.060000 -0.426695 1.021321
v -0.130000 -0.500000 0.530000
v -0.120000 -0.530000 1.010000
v -0.060000 -0.426695 1.021321
v -0.130000 -0.500000 0.530000
v -0.065000 -0.612364 0.522977
v -0.120000 -0.530000 1.010000
v -0.065000 -0.612364 0.522977
v -0.060000 -0.633305 0.998679
v -0.120000 -0.530000 1.010000
v -0.065000 -0.612364 0.522977
v 0.065000 -0.612364 0.522977
v -0.060000 -0.633305 0.998679
v 0.065000 -0.612364 0.522977
v 0.060000 -0.633305 0.998679
v -0.060000 -0.633305 0.998679
v 0.065000 -0.612364 0.522977
v 0.130000 -0.500000 0.530000
v 0.060000 -0.633305 0.998679
v 0.130000 -0.500000 0.530000
v 0.120000 -0.530000 1.010000
v 0.060000 -0.633305 0.998679
v 0.120000 -0.530000 1.010000
v 0.060000 -0.426695 1.021321
v 0.090000 -0.580000 1.260000
v 0.060000 -0.426695 1.021321
v 0.045000 -0.503571 1.275286
v 0.090000 -0.580000 1.260000
v 0.060000 -0.426695 1.021321
v -0.060000 -0.426695 1.021321
v 0.045000 -0.503571 1.275286
v -0.060000 -0.426695 1.021321
v -0.045000 -0.503571 1.275286
v 0.045000 -0.503571 1.275286
v -0.060000 -0.426695 1.021321
v -0.120000 -0.530000 1.010000
v -0.045000 -0.503571 1.275286
v -0.120000 -0.530000 1.010000
v -0.090000 -0.580000 1.260000
v -0.045000 -0.503571 1.275286
v -0.120000 -0.530000 1.010000
v -0.060000 -0.633305 0.998679
v -0.090000 -0.580000 1.260000
v -0.060000 -0.633305 0.998679
v -0.045000 -0.656429 1.244714
v -0.090000 -0.580000 1.260000
v -0.060000 -0.633305 0.998679
v 0.060000 -0.633305 0.998679
v -0.045000 -0.656429 1.244714
v 0.060000 -0.633305 0.998679
v 0.045000 -0.656429 1.244714
v -0.045000 -0.656429 1.244714
v 0.060000 -0.633305 0.998679
v 0.120000 -0.530000 1.010000
v 0.045000 -0.656429 1.244714
v 0.120000 -0.530000 1.010000
v 0.090000 -0.580000 1.260000
v 0.045000 -0.656429 1.244714
v 0.130000 -0.500000 0.530000
v -0.065000 -0.387636 0.537023
v 0.065000 -0.387636 0.537023
v 0.090000 -0.580000 1.260000
v 0.045000 -0.503571 1.275286
v -0.045000 -0.503571 1.275286
v 0.130000 -0.500000 0.530000
v -0.130000 -0.500000 0.530000
v -0.065000 -0.387636 0.537023
v 0.090000 -0.580000 1.260000
v -0.045000 -0.503571 1.275286
v -0.090000 -0.580000 1.260000
v 0.130000 -0.500000 0.530000
v -0.065000 -0.612364 0.522977
v -0.130000 -0.500000 0.530000
v 0.090000 -0.580000 1.260000
v -0.090000 -0.580000 1.260000
v -0.045000 -0.656429 1.244714
v 0.130000 -0.500000 0.530000
v 0.065000 -0.612364 0.522977
v -0.065000 -0.612364 0.522977
v 0.090000 -0.580000 1.260000
v -0.045000 -0.656429 1.244714
v 0.045000 -0.656429 1.244714
v 0.418996 -0.500000 0.513875
v 0.355362 -0.387633 0.528853
v 0.469098 -0.530000 0.995317
v 0.355362 -0.387633 0.528853
v 0.410924 -0.426686 1.013811
v 0.469098 -0.530000 0.995317
v 0.355362 -0.387633 0.528853
v 0.226366 -0.387633 0.544977
v 0.410924 -0.426686 1.013811
v 0.226366 -0.387633 0.544977
v 0.291826 -0.426686 1.028494
v 0.410924 -0.426686 1.013811
v 0.226366 -0.387633 0.544977
v 0.161004 -0.500000 0.546125
v 0.291826 -0.426686 1.028494
v 0.161004 -0.500000 0.546125
v 0.230902 -0.530000 1.024683
v 0.291826 -0.426686 1.028494
v 0.161004 -0.500000 0.546125
v 0.224638 -0.612367 0.531147
v 0.230902 -0.530000 1.024683
v 0.224638 -0.612367 0.531147
v 0.289076 -0.633314 1.006189
v 0.230902 -0.530000 1.024683
v 0.224638 -0.612367 0.531147
v 0.353634 -0.612367 0.515023
v 0.289076 -0.633314 1.006189
v 0.353634 -0.612367 0.515023
v 0.408174 -0.633314 0.991506
v 0.289076 -0.633314 1.006189
v 0.353634 -0.612367 0.515023
v 0.418996 -0.500000 0.513875
v 0.408174 -0.633314 0.991506
v 0.418996 -0.500000 0.513875
v 0.469098 -0.530000 0.995317
v 0.408174 -0.633314 0.991506
v 0.469098 -0.530000 0.995317
v 0.410924 -0.426686 1.013811
v 0.469359 -0.580000 1.249277
v 0.410924 -0.426686 1.013811
v 0.426488 -0.503550 1.269711
v 0.469359 -0.580000 1.249277
v 0.410924 -0.426686 1.013811
v 0.291826 -0.426686 1.028494
v 0.426488 -0.503550 1.269711
v 0.291826 -0.426686 1.028494
v 0.337129 -0.503550 1.280434
v 0.426488 -0.503550 1.269711
v 0.291826 -0.426686 1.028494
v 0.230902 -0.530000 1.024683
v 0.337129 -0.503550 1.280434
v 0.230902 -0.530000 1.024683
v 0.290641 -0.580000 1.270723
v 0.337129 -0.503550 1.280434
v 0.230902 -0.530000 1.024683
v 0.289076 -0.633314 1.006189
v 0.290641 -0.580000 1.270723
v 0.289076 -0.633314 1.006189
v 0.333512 -0.656450 1.250289
v 0.290641 -0.580000 1.270723
v 0.289076 -0.633314 1.006189
v 0.408174 -0.633314 0.991506
v 0.333512 -0.656450 1.250289
v 0.408174 -0.633314 0.991506
v 0.422871 -0.656450 1.239566
v 0.333512 -0.656450 1.250289
v 0.408174 -0.633314 0.991506
v 0.469098 -0.530000 0.995317
v 0.422871 -0.656450 1.239566
v 0.469098 -0.530000 0.995317
v 0.469359 -0.580000 1.249277
v 0.422871 -0.656450 1.239566
v 0.418996 -0.500000 0.513875
v 0.226366 -0.387633 0.544977
v 0.355362 -0.387633 0.528853
v 0.469359 -0.580000 1.249277
v 0.426488 -0.503550 1.269711
v 0.337129 -0.503550 1.280434
v 0.418996 -0.500000 0.513875
v 0.161004 -0.500000 0.546125
v 0.226366 -0.387633 0.544977
v 0.469359 -0.580000 1.249277
v 0.337129 -0.503550 1.280434
v 0.290641 -0.580000 1.270723
v 0.418996 -0.500000 0.513875
v 0.224638 -0.612367 0.531147
v 0.161004 -0.500000 0.546125
v 0.469359 -0.580000 1.249277
v 0.290641 -0.580000 1.270723
v 0.333512 -0.656450 1.250289
v 0.418996 -0.500000 0.513875
v 0.353634 -0.612367 0.515023
v 0.224638 -0.612367 0.531147
v 0.469359 -0.580000 1.249277
v 0.333512 -0.656450 1.250289
v 0.422871 -0.656450 1.239566
v -0.260113 -0.570000 1.245212
v -0.344005 -0.458473 1.265810
v -0.332512 -0.620000 1.473593
v -0.344005 -0.458473 1.265810
v -0.373477 -0.568961 1.490970
v -0.332512 -0.620000 1.473593
v -0.344005 -0.458473 1.265810
v -0.477641 -0.501073 1.250739
v -0.373477 -0.568961 1.490970
v -0.477641 -0.501073 1.250739
v -0.437276 -0.588456 1.479367
v -0.373477 -0.568961 1.490970
v -0.477641 -0.501073 1.250739
v -0.476340 -0.638927 1.220827
v -0.437276 -0.588456 1.479367
v -0.476340 -0.638927 1.220827
v -0.435742 -0.651544 1.454819
v -0.437276 -0.588456 1.479367
v -0.476340 -0.638927 1.220827
v -0.341901 -0.681527 1.217412
v -0.435742 -0.651544 1.454819
v -0.341901 -0.681527 1.217412
v -0.370994 -0.671039 1.451251
v -0.435742 -0.651544 1.454819
v -0.341901 -0.681527 1.217412
v -0.260113 -0.570000 1.245212
v -0.370994 -0.671039 1.451251
v -0.260113 -0.570000 1.245212
v -0.332512 -0.620000 1.473593
v -0.370994 -0.671039 1.451251
v -0.332512 -0.620000 1.473593
v -0.373477 -0.568961 1.490970
v -0.391055 -0.695000 1.560994
v -0.373477 -0.568961 1.490970
v -0.397839 -0.688408 1.565734
v -0.391055 -0.695000 1.560994
v -0.373477 -0.568961 1.490970
v -0.437276 -0.588456 1.479367
v -0.397839 -0.688408 1.565734
v -0.437276 -0.588456 1.479367
v -0.407609 -0.690926 1.562550
v -0.397839 -0.688408 1.565734
v -0.437276 -0.588456 1.479367
v -0.435742 -0.651544 1.454819
v -0.407609 -0.690926 1.562550
v -0.435742 -0.651544 1.454819
v -0.406864 -0.699074 1.555842
v -0.407609 -0.690926 1.562550
v -0.435742 -0.651544 1.454819
v -0.370994 -0.671039 1.451251
v -0.406864 -0.699074 1.555842
v -0.370994 -0.671039 1.451251
v -0.396633 -0.701592 1.554881
v -0.406864 -0.699074 1.555842
v -0.370994 -0.671039 1.451251
v -0.332512 -0.620000 1.473593
v -0.396633 -0.701592 1.554881
v -0.332512 -0.620000 1.473593
v -0.391055 -0.695000 1.560994
v -0.396633 -0.701592 1.554881
v -0.260113 -0.570000 1.245212
v -0.477641 -0.501073 1.250739
v -0.344005 -0.458473 1.265810
v -0.391055 -0.695000 1.560994
v -0.397839 -0.688408 1.565734
v -0.407609 -0.690926 1.562550
v -0.260113 -0.570000 1.245212
v -0.476340 -0.638927 1.220827
v -0.477641 -0.501073 1.250739
v -0.391055 -0.695000 1.560994
v -0.407609 -0.690926 1.562550
v -0.406864 -0.699074 1.555842
v -0.260113 -0.570000 1.245212
v -0.341901 -0.681527 1.217412
v -0.476340 -0.638927 1.220827
v -0.391055 -0.695000 1.560994
v -0.406864 -0.699074 1.555842
v -0.396633 -0.701592 1.554881
v 0.120000 -0.570000 1.240000
v 0.037082 -0.458478 1.264244
v 0.057600 -0.620000 1.470000
v 0.037082 -0.458478 1.264244
v 0.017799 -0.567833 1.486720
v 0.057600 -0.620000 1.470000
v 0.037082 -0.458478 1.264244
v -0.097082 -0.501076 1.254984
v 0.017799 -0.567833 1.486720
v -0.097082 -0.501076 1.254984
v -0.046599 -0.587759 1.480334
v 0.017799 -0.567833 1.486720
v -0.097082 -0.501076 1.254984
v -0.097082 -0.638924 1.225016
v -0.046599 -0.587759 1.480334
v -0.097082 -0.638924 1.225016
v -0.046599 -0.652241 1.459666
v -0.046599 -0.587759 1.480334
v -0.097082 -0.638924 1.225016
v 0.037082 -0.681522 1.215756
v -0.046599 -0.652241 1.459666
v 0.037082 -0.681522 1.215756
v 0.017799 -0.672167 1.453280
v -0.046599 -0.652241 1.459666
v 0.037082 -0.681522 1.215756
v 0.120000 -0.570000 1.240000
v 0.017799 -0.672167 1.453280
v 0.120000 -0.570000 1.240000
v 0.057600 -0.620000 1.470000
v 0.017799 -0.672167 1.453280
v 0.057600 -0.620000 1.470000
v 0.017799 -0.567833 1.486720
v 0.009000 -0.695000 1.630000
v 0.017799 -0.567833 1.486720
v 0.002781 -0.687250 1.633633
v 0.009000 -0.695000 1.630000
v 0.017799 -0.567833 1.486720
v -0.046599 -0.587759 1.480334
v 0.002781 -0.687250 1.633633
v -0.046599 -0.587759 1.480334
v -0.007281 -0.690210 1.632245
v 0.002781 -0.687250 1.633633
v -0.046599 -0.587759 1.480334
v -0.046599 -0.652241 1.459666
v -0.007281 -0.690210 1.632245
v -0.046599 -0.652241 1.459666
v -0.007281 -0.699790 1.627755
v -0.007281 -0.690210 1.632245
v -0.046599 -0.652241 1.459666
v 0.017799 -0.672167 1.453280
v -0.007281 -0.699790 1.627755
v 0.017799 -0.672167 1.453280
v 0.002781 -0.702750 1.626367
v -0.007281 -0.699790 1.627755
v 0.017799 -0.672167 1.453280
v 0.057600 -0.620000 1.470000
v 0.002781 -0.702750 1.626367
v 0.057600 -0.620000 1.470000
v 0.009000 -0.695000 1.630000
v 0.002781 -0.702750 1.626367
v 0.120000 -0.570000 1.240000
v -0.097082 -0.501076 1.254984
v 0.037082 -0.458478 1.264244
v 0.009000 -0.695000 1.630000
v 0.002781 -0.687250 1.633633
v -0.007281 -0.690210 1.632245
v 0.120000 -0.570000 1.240000
v -0.097082 -0.638924 1.225016
v -0.097082 -0.501076 1.254984
v 0.009000 -0.695000 1.630000
v -0.007281 -0.690210 1.632245
v -0.007281 -0.699790 1.627755
v 0.120000 -0.570000 1.240000
v 0.037082 -0.681522 1.215756
v -0.097082 -0.638924 1.225016
v 0.009000 -0.695000 1.630000
v -0.007281 -0.699790 1.627755
v 0.002781 -0.702750 1.626367
v 0.499887 -0.570000 1.234788
v 0.418099 -0.458473 1.262589
v 0.447488 -0.620000 1.466407
v 0.418099 -0.458473 1.262589
v 0.409006 -0.568961 1.488749
v 0.447488 -0.620000 1.466407
v 0.418099 -0.458473 1.262589
v 0.283660 -0.501073 1.259173
v 0.409006 -0.568961 1.488749
v 0.283660 -0.501073 1.259173
v 0.344258 -0.588456 1.485181
v 0.409006 -0.568961 1.488749
v 0.283660 -0.501073 1.259173
v 0.282359 -0.638927 1.229261
v 0.344258 -0.588456 1.485181
v 0.282359 -0.638927 1.229261
v 0.342724 -0.651544 1.460633
v 0.344258 -0.588456 1.485181
v 0.282359 -0.638927 1.229261
v 0.415995 -0.681527 1.214190
v 0.342724 -0.651544 1.460633
v 0.415995 -0.681527 1.214190
v 0.406523 -0.671039 1.449030
v 0.342724 -0.651544 1.460633
v 0.415995 -0.681527 1.214190
v 0.499887 -0.570000 1.234788
v 0.406523 -0.671039 1.449030
v 0.499887 -0.570000 1.234788
v 0.447488 -0.620000 1.466407
v 0.406523 -0.671039 1.449030
v 0.447488 -0.620000 1.466407
v 0.409006 -0.568961 1.488749
v 0.408945 -0.695000 1.559006
v 0.409006 -0.568961 1.488749
v 0.403367 -0.688408 1.565119
v 0.408945 -0.695000 1.559006
v 0.409006 -0.568961 1.488749
v 0.344258 -0.588456 1.485181
v 0.403367 -0.688408 1.565119
v 0.344258 -0.588456 1.485181
v 0.393136 -0.690926 1.564158
v 0.403367 -0.688408 1.565119
v 0.344258 -0.588456 1.485181
v 0.342724 -0.651544 1.460633
v 0.393136 -0.690926 1.564158
v 0.342724 -0.651544 1.460633
v 0.392391 -0.699074 1.557450
v 0.393136 -0.690926 1.564158
v 0.342724 -0.651544 1.460633
v 0.406523 -0.671039 1.449030
v 0.392391 -0.699074 1.557450
v 0.406523 -0.671039 1.449030
v 0.402161 -0.701592 1.554266
v 0.392391 -0.699074 1.557450
v 0.406523 -0.671039 1.449030
v 0.447488 -0.620000 1.466407
v 0.402161 -0.701592 1.554266
v 0.447488 -0.620000 1.466407
v 0.408945 -0.695000 1.559006
v 0.402161 -0.701592 1.554266
v 0.499887 -0.570000 1.234788
v 0.283660 -0.501073 1.259173
v 0.418099 -0.458473 1.262589
v 0.408945 -0.695000 1.559006
v 0.403367 -0.688408 1.565119
v 0.393136 -0.690926 1.564158
v 0.499887 -0.570000 1.234788
v 0.282359 -0.638927 1.229261
v 0.283660 -0.501073 1.259173
v 0.408945 -0.695000 1.559006
v 0.393136 -0.690926 1.564158
v 0.392391 -0.699074 1.557450
v 0.499887 -0.570000 1.234788
v 0.415995 -0.681527 1.214190
v 0.282359 -0.638927 1.229261
v 0.408945 -0.695000 1.559006
v 0.392391 -0.699074 1.557450
v 0.402161 -0.701592 1.554266
v -0.119904 -0.370000 -0.005204
v -0.039091 -0.267906 -0.059484
v -0.068154 -0.502500 -0.272698
v -0.039091 -0.267906 -0.059484
v -0.029364 -0.453495 -0.298752
v -0.068154 -0.502500 -0.272698
v -0.039091 -0.267906 -0.059484
v 0.095744 -0.306902 -0.045379
v -0.029364 -0.453495 -0.298752
v 0.095744 -0.306902 -0.045379
v 0.035357 -0.472213 -0.291982
v -0.029364 -0.453495 -0.298752
v 0.095744 -0.306902 -0.045379
v 0.098264 -0.433098 0.017618
v 0.035357 -0.472213 -0.291982
v 0.098264 -0.433098 0.017618
v 0.036567 -0.532787 -0.261743
v 0.035357 -0.472213 -0.291982
v 0.098264 -0.433098 0.017618
v -0.035014 -0.472094 0.042448
v 0.036567 -0.532787 -0.261743
v -0.035014 -0.472094 0.042448
v -0.027407 -0.551505 -0.249825
v 0.036567 -0.532787 -0.261743
v -0.035014 -0.472094 0.042448
v -0.119904 -0.370000 -0.005204
v -0.027407 -0.551505 -0.249825
v -0.119904 -0.370000 -0.005204
v -0.068154 -0.502500 -0.272698
v -0.027407 -0.551505 -0.249825
v -0.068154 -0.502500 -0.272698
v -0.029364 -0.453495 -0.298752
v -0.028993 -0.620000 -0.509640
v -0.029364 -0.453495 -0.298752
v -0.022932 -0.612343 -0.513711
v -0.028993 -0.620000 -0.509640
v -0.029364 -0.453495 -0.298752
v 0.035357 -0.472213 -0.291982
v -0.022932 -0.612343 -0.513711
v 0.035357 -0.472213 -0.291982
v -0.012819 -0.615268 -0.512653
v -0.022932 -0.612343 -0.513711
v 0.035357 -0.472213 -0.291982
v 0.036567 -0.532787 -0.261743
v -0.012819 -0.615268 -0.512653
v 0.036567 -0.532787 -0.261743
v -0.012630 -0.624732 -0.507929
v -0.012819 -0.615268 -0.512653
v 0.036567 -0.532787 -0.261743
v -0.027407 -0.551505 -0.249825
v -0.012630 -0.624732 -0.507929
v -0.027407 -0.551505 -0.249825
v -0.022626 -0.627657 -0.506066
v -0.012630 -0.624732 -0.507929
v -0.027407 -0.551505 -0.249825
v -0.068154 -0.502500 -0.272698
v -0.022626 -0.627657 -0.506066
v -0.068154 -0.502500 -0.272698
v -0.028993 -0.620000 -0.509640
v -0.022626 -0.627657 -0.506066
v -0.119904 -0.370000 -0.005204
v 0.095744 -0.306902 -0.045379
v -0.039091 -0.267906 -0.059484
v -0.028993 -0.620000 -0.509640
v -0.022932 -0.612343 -0.513711
v -0.012819 -0.615268 -0.512653
v -0.119904 -0.370000 -0.005204
v 0.098264 -0.433098 0.017618
v 0.095744 -0.306902 -0.045379
v -0.028993 -0.620000 -0.509640
v -0.012819 -0.615268 -0.512653
v -0.012630 -0.624732 -0.507929
v -0.119904 -0.370000 -0.005204
v -0.035014 -0.472094 0.042448
v 0.098264 -0.433098 0.017618
v -0.028993 -0.620000 -0.509640
v -0.012630 -0.624732 -0.507929
v -0.022626 -0.627657 -0.506066
vt 0.120000 0.880000
vt 0.213333 0.880000
vt 0.166667 0.786667
vt 0.120000 0.880000
vt 0.213333 0.880000
vt 0.166667 0.786667
vt 0.120000 0.880000
vt 0.213333 0.880000
vt 0.166667 0.786667
vt 0.120000 0.880000
vt 0.213333 0.880000
vt 0.166667 0.786667
vt 0.120000 0.880000
vt 0.213333 0.880000
vt 0.166667 0.786667
vt 0.120000 0.880000
vt 0.213333 0.880000
vt 0.166667 0.786667
vt 0.120000 0.880000
vt 0.213333 0.880000
vt 0.166667 0.786667
vt 0.120000 0.880000
vt 0.213333 0.880000
vt 0.166667 0.786667
vt 0.120000 0.880000
vt 0.213333 0.880000
vt 0.166667 0.786667
vt 0.120000 0.880000
vt 0.213333 0.880000
vt 0.166667 0.786667
vt 0.120000 0.880000
vt 0.213333 0.880000
vt 0.166667 0.786667
vt 0.120000 0.880000
vt 0.213333 0.880000
vt 0.166667 0.786667
vt 0.120000 0.880000
vt 0.213333 0.880000
vt 0.166667 0.786667
vt 0.120000 0.880000
vt 0.213333 0.880000
vt 0.166667 0.786667
vt 0.120000 0.880000
vt 0.213333 0.880000
vt 0.166667 0.786667
vt 0.120000 0.880000
vt 0.213333 0.880000
vt 0.166667 0.786667
vt 0.120000 0.880000
vt 0.213333 0.880000
vt 0.166667 0.786667
vt 0.120000 0.880000
vt 0.213333 0.880000
vt 0.166667 0.786667
vt 0.120000 0.880000
vt 0.213333 0.880000
vt 0.166667 0.786667
vt 0.120000 0.880000
vt 0.213333 0.880000
vt 0.166667 0.786667
vt 0.120000 0.880000
vt 0.213333 0.880000
vt 0.166667 0.786667
vt 0.120000 0.880000
vt 0.213333 0.880000
vt 0.166667 0.786667
vt 0.120000 0.880000
vt 0.213333 0.880000
vt 0.166667 0.786667
vt 0.120000 0.880000
vt 0.213333 0.880000
vt 0.166667 0.786667
vt 0.120000 0.880000
vt 0.213333 0.880000
vt 0.166667 0.786667
vt 0.120000 0.880000
vt 0.213333 0.880000
vt 0.166667 0.786667
vt 0.120000 0.880000
vt 0.213333 0.880000
vt 0.166667 0.786667
vt 0.120000 0.880000
vt 0.213333 0.880000
vt 0.166667 0.786667
vt 0.120000 0.880000
vt 0.213333 0.880000
vt 0.166667 0.786667
vt 0.120000 0.880000
vt 0.213333 0.880000
vt 0.166667 0.786667
vt 0.120000 0.880000
vt 0.213333 0.880000
vt 0.166667 0.786667
vt 0.120000 0.880000
vt 0.213333 0.880000
vt 0.166667 0.786667
vt 0.120000 0.880000
vt 0.213333 0.880000
vt 0.166667 0.786667
vt 0.120000 0.880000
vt 0.213333 0.880000
vt 0.166667 0.786667
vt 0.120000 0.880000
vt 0.213333 0.880000
vt 0.166667 0.786667
vt 0.120000 0.880000
vt 0.213333 0.880000
vt 0.166667 0.786667
vt 0.120000 0.880000
vt 0.213333 0.880000
vt 0.166667 0.786667
vt 0.120000 0.880000
vt 0.213333 0.880000
vt 0.166667 0.786667
vt 0.120000 0.880000
vt 0.213333 0.880000
vt 0.166667 0.786667
vt 0.120000 0.880000
vt 0.213333 0.880000
vt 0.166667 0.786667
vt 0.120000 0.880000
vt 0.213333 0.880000
vt 0.166667 0.786667
vt 0.120000 0.880000
vt 0.213333 0.880000
vt 0.166667 0.786667
vt 0.120000 0.880000
vt 0.213333 0.880000
vt 0.166667 0.786667
vt 0.120000 0.880000
vt 0.213333 0.880000
vt 0.166667 0.786667
vt 0.120000 0.880000
vt 0.213333 0.880000
vt 0.166667 0.786667
vt 0.120000 0.880000
vt 0.213333 0.880000
vt 0.166667 0.786667
vt 0.120000 0.880000
vt 0.213333 0.880000
vt 0.166667 0.786667
vt 0.120000 0.880000
vt 0.213333 0.880000
vt 0.166667 0.786667
vt 0.120000 0.880000
vt 0.213333 0.880000
vt 0.166667 0.786667
vt 0.120000 0.880000
vt 0.213333 0.880000
vt 0.166667 0.786667
vt 0.120000 0.880000
vt 0.213333 0.880000
vt 0.166667 0.786667
vt 0.120000 0.880000
vt 0.213333 0.880000
vt 0.166667 0.786667
vt 0.120000 0.880000
vt 0.213333 0.880000
vt 0.166667 0.786667
vt 0.120000 0.880000
vt 0.213333 0.880000
vt 0.166667 0.786667
vt 0.120000 0.880000
vt 0.213333 0.880000
vt 0.166667 0.786667
vt 0.120000 0.880000
vt 0.213333 0.880000
vt 0.166667 0.786667
vt 0.120000 0.880000
vt 0.213333 0.880000
vt 0.166667 0.786667
vt 0.120000 0.880000
vt 0.213333 0.880000
vt 0.166667 0.786667
vt 0.120000 0.880000
vt 0.213333 0.880000
vt 0.166667 0.786667
vt 0.120000 0.880000
vt 0.213333 0.880000
vt 0.166667 0.786667
vt 0.120000 0.880000
vt 0.213333 0.880000
vt 0.166667 0.786667
vt 0.120000 0.880000
vt 0.213333 0.880000
vt 0.166667 0.786667
vt 0.120000 0.880000
vt 0.213333 0.880000
vt 0.166667 0.786667
vt 0.120000 0.880000
vt 0.213333 0.880000
vt 0.166667 0.786667
vt 0.120000 0.880000
vt 0.213333 0.880000
vt 0.166667 0.786667
vt 0.120000 0.880000
vt 0.213333 0.880000
vt 0.166667 0.786667
vt 0.120000 0.880000
vt 0.213333 0.880000
vt 0.166667 0.786667
vt 0.120000 0.880000
vt 0.213333 0.880000
vt 0.166667 0.786667
vt 0.120000 0.880000
vt 0.213333 0.880000
vt 0.166667 0.786667
vt 0.120000 0.880000
vt 0.213333 0.880000
vt 0.166667 0.786667
vt 0.120000 0.880000
vt 0.213333 0.880000
vt 0.166667 0.786667
vt 0.120000 0.880000
vt 0.213333 0.880000
vt 0.166667 0.786667
vt 0.120000 0.880000
vt 0.213333 0.880000
vt 0.166667 0.786667
vt 0.120000 0.880000
vt 0.213333 0.880000
vt 0.166667 0.786667
vt 0.120000 0.880000
vt 0.213333 0.880000
vt 0.166667 0.786667
vt 0.120000 0.880000
vt 0.213333 0.880000
vt 0.166667 0.786667
vt 0.120000 0.880000
vt 0.213333 0.880000
vt 0.166667 0.786667
vt 0.120000 0.880000
vt 0.213333 0.880000
vt 0.166667 0.786667
vt 0.120000 0.880000
vt 0.213333 0.880000
vt 0.166667 0.786667
vt 0.120000 0.880000
vt 0.213333 0.880000
vt 0.166667 0.786667
vt 0.120000 0.880000
vt 0.213333 0.880000
vt 0.166667 0.786667
vt 0.120000 0.880000
vt 0.213333 0.880000
vt 0.166667 0.786667
vt 0.120000 0.880000
vt 0.213333 0.880000
vt 0.166667 0.786667
vt 0.120000 0.880000
vt 0.213333 0.880000
vt 0.166667 0.786667
vt 0.120000 0.880000
vt 0.213333 0.880000
vt 0.166667 0.786667
vt 0.120000 0.880000
vt 0.213333 0.880000
vt 0.166667 0.786667
vt 0.120000 0.880000
vt 0.213333 0.880000
vt 0.166667 0.786667
vt 0.120000 0.880000
vt 0.213333 0.880000
vt 0.166667 0.786667
vt 0.120000 0.880000
vt 0.213333 0.880000
vt 0.166667 0.786667
vt 0.120000 0.880000
vt 0.213333 0.880000
vt 0.166667 0.786667
vt 0.120000 0.880000
vt 0.213333 0.880000
vt 0.166667 0.786667
vt 0.120000 0.880000
vt 0.213333 0.880000
vt 0.166667 0.786667
vt 0.120000 0.880000
vt 0.213333 0.880000
vt 0.166667 0.786667
vt 0.120000 0.880000
vt 0.213333 0.880000
vt 0.166667 0.786667
vt 0.120000 0.880000
vt 0.213333 0.880000
vt 0.166667 0.786667
vt 0.120000 0.880000
vt 0.213333 0.880000
vt 0.166667 0.786667
vt 0.120000 0.880000
vt 0.213333 0.880000
vt 0.166667 0.786667
vt 0.120000 0.880000
vt 0.213333 0.880000
vt 0.166667 0.786667
vt 0.120000 0.880000
vt 0.213333 0.880000
vt 0.166667 0.786667
vt 0.120000 0.880000
vt 0.213333 0.880000
vt 0.166667 0.786667
vt 0.120000 0.880000
vt 0.213333 0.880000
vt 0.166667 0.786667
vt 0.120000 0.880000
vt 0.213333 0.880000
vt 0.166667 0.786667
vt 0.120000 0.880000
vt 0.213333 0.880000
vt 0.166667 0.786667
vt 0.120000 0.880000
vt 0.213333 0.880000
vt 0.166667 0.786667
vt 0.120000 0.880000
vt 0.213333 0.880000
vt 0.166667 0.786667
vt 0.120000 0.880000
vt 0.213333 0.880000
vt 0.166667 0.786667
vt 0.120000 0.880000
vt 0.213333 0.880000
vt 0.166667 0.786667
vt 0.120000 0.880000
vt 0.213333 0.880000
vt 0.166667 0.786667
vt 0.120000 0.880000
vt 0.213333 0.880000
vt 0.166667 0.786667
vt 0.120000 0.880000
vt 0.213333 0.880000
vt 0.166667 0.786667
vt 0.120000 0.880000
vt 0.213333 0.880000
vt 0.166667 0.786667
vt 0.120000 0.880000
vt 0.213333 0.880000
vt 0.166667 0.786667
vt 0.120000 0.880000
vt 0.213333 0.880000
vt 0.166667 0.786667
vt 0.120000 0.880000
vt 0.213333 0.880000
vt 0.166667 0.786667
vt 0.120000 0.880000
vt 0.213333 0.880000
vt 0.166667 0.786667
vt 0.120000 0.880000
vt 0.213333 0.880000
vt 0.166667 0.786667
vt 0.453333 0.880000
vt 0.546667 0.880000
vt 0.500000 0.786667
vt 0.453333 0.880000
vt 0.546667 0.880000
vt 0.500000 0.786667
vt 0.453333 0.880000
vt 0.546667 0.880000
vt 0.500000 0.786667
vt 0.453333 0.880000
vt 0.546667 0.880000
vt 0.500000 0.786667
vt 0.453333 0.880000
vt 0.546667 0.880000
vt 0.500000 0.786667
vt 0.453333 0.880000
vt 0.546667 0.880000
vt 0.500000 0.786667
vt 0.453333 0.880000
vt 0.546667 0.880000
vt 0.500000 0.786667
vt 0.453333 0.880000
vt 0.546667 0.880000
vt 0.500000 0.786667
vt 0.453333 0.880000
vt 0.546667 0.880000
vt 0.500000 0.786667
vt 0.453333 0.880000
vt 0.546667 0.880000
vt 0.500000 0.786667
vt 0.453333 0.880000
vt 0.546667 0.880000
vt 0.500000 0.786667
vt 0.453333 0.880000
vt 0.546667 0.880000
vt 0.500000 0.786667
vt 0.453333 0.880000
vt 0.546667 0.880000
vt 0.500000 0.786667
vt 0.453333 0.880000
vt 0.546667 0.880000
vt 0.500000 0.786667
vt 0.453333 0.880000
vt 0.546667 0.880000
vt 0.500000 0.786667
vt 0.453333 0.880000
vt 0.546667 0.880000
vt 0.500000 0.786667
vt 0.453333 0.880000
vt 0.546667 0.880000
vt 0.500000 0.786667
vt 0.453333 0.880000
vt 0.546667 0.880000
vt 0.500000 0.786667
vt 0.453333 0.880000
vt 0.546667 0.880000
vt 0.500000 0.786667
vt 0.453333 0.880000
vt 0.546667 0.880000
vt 0.500000 0.786667
vt 0.453333 0.880000
vt 0.546667 0.880000
vt 0.500000 0.786667
vt 0.453333 0.880000
vt 0.546667 0.880000
vt 0.500000 0.786667
vt 0.453333 0.880000
vt 0.546667 0.880000
vt 0.500000 0.786667
vt 0.453333 0.880000
vt 0.546667 0.880000
vt 0.500000 0.786667
vt 0.453333 0.880000
vt 0.546667 0.880000
vt 0.500000 0.786667
vt 0.453333 0.880000
vt 0.546667 0.880000
vt 0.500000 0.786667
vt 0.453333 0.880000
vt 0.546667 0.880000
vt 0.500000 0.786667
vt 0.453333 0.880000
vt 0.546667 0.880000
vt 0.500000 0.786667
vt 0.453333 0.880000
vt 0.546667 0.880000
vt 0.500000 0.786667
vt 0.453333 0.880000
vt 0.546667 0.880000
vt 0.500000 0.786667
vt 0.453333 0.880000
vt 0.546667 0.880000
vt 0.500000 0.786667
vt 0.453333 0.880000
vt 0.546667 0.880000
vt 0.500000 0.786667
vt 0.453333 0.880000
vt 0.546667 0.880000
vt 0.500000 0.786667
vt 0.453333 0.880000
vt 0.546667 0.880000
vt 0.500000 0.786667
vt 0.453333 0.880000
vt 0.546667 0.880000
vt 0.500000 0.786667
vt 0.453333 0.880000
vt 0.546667 0.880000
vt 0.500000 0.786667
vt 0.453333 0.880000
vt 0.546667 0.880000
vt 0.500000 0.786667
vt 0.453333 0.880000
vt 0.546667 0.880000
vt 0.500000 0.786667
vt 0.453333 0.880000
vt 0.546667 0.880000
vt 0.500000 0.786667
vt 0.453333 0.880000
vt 0.546667 0.880000
vt 0.500000 0.786667
vt 0.453333 0.880000
vt 0.546667 0.880000
vt 0.500000 0.786667
vt 0.453333 0.880000
vt 0.546667 0.880000
vt 0.500000 0.786667
vt 0.453333 0.880000
vt 0.546667 0.880000
vt 0.500000 0.786667
vt 0.453333 0.880000
vt 0.546667 0.880000
vt 0.500000 0.786667
vt 0.453333 0.880000
vt 0.546667 0.880000
vt 0.500000 0.786667
vt 0.453333 0.880000
vt 0.546667 0.880000
vt 0.500000 0.786667
vt 0.453333 0.880000
vt 0.546667 0.880000
vt 0.500000 0.786667
vt 0.453333 0.880000
vt 0.546667 0.880000
vt 0.500000 0.786667
vt 0.453333 0.880000
vt 0.546667 0.880000
vt 0.500000 0.786667
vt 0.453333 0.880000
vt 0.546667 0.880000
vt 0.500000 0.786667
vt 0.453333 0.880000
vt 0.546667 0.880000
vt 0.500000 0.786667
vt 0.453333 0.880000
vt 0.546667 0.880000
vt 0.500000 0.786667
vt 0.453333 0.880000
vt 0.546667 0.880000
vt 0.500000 0.786667
vt 0.453333 0.880000
vt 0.546667 0.880000
vt 0.500000 0.786667
vt 0.453333 0.880000
vt 0.546667 0.880000
vt 0.500000 0.786667
vt 0.453333 0.880000
vt 0.546667 0.880000
vt 0.500000 0.786667
vt 0.453333 0.880000
vt 0.546667 0.880000
vt 0.500000 0.786667
vt 0.453333 0.880000
vt 0.546667 0.880000
vt 0.500000 0.786667
vt 0.453333 0.880000
vt 0.546667 0.880000
vt 0.500000 0.786667
vt 0.453333 0.880000
vt 0.546667 0.880000
vt 0.500000 0.786667
vt 0.453333 0.880000
vt 0.546667 0.880000
vt 0.500000 0.786667
vt 0.453333 0.880000
vt 0.546667 0.880000
vt 0.500000 0.786667
vt 0.453333 0.880000
vt 0.546667 0.880000
vt 0.500000 0.786667
vt 0.453333 0.880000
vt 0.546667 0.880000
vt 0.500000 0.786667
vt 0.453333 0.880000
vt 0.546667 0.880000
vt 0.500000 0.786667
vt 0.453333 0.880000
vt 0.546667 0.880000
vt 0.500000 0.786667
vt 0.453333 0.880000
vt 0.546667 0.880000
vt 0.500000 0.786667
vt 0.453333 0.880000
vt 0.546667 0.880000
vt 0.500000 0.786667
vt 0.453333 0.880000
vt 0.546667 0.880000
vt 0.500000 0.786667
vt 0.453333 0.880000
vt 0.546667 0.880000
vt 0.500000 0.786667
vt 0.453333 0.880000
vt 0.546667 0.880000
vt 0.500000 0.786667
vt 0.453333 0.880000
vt 0.546667 0.880000
vt 0.500000 0.786667
vt 0.453333 0.880000
vt 0.546667 0.880000
vt 0.500000 0.786667
vt 0.453333 0.880000
vt 0.546667 0.880000
vt 0.500000 0.786667
vt 0.453333 0.880000
vt 0.546667 0.880000
vt 0.500000 0.786667
vt 0.453333 0.880000
vt 0.546667 0.880000
vt 0.500000 0.786667
vt 0.453333 0.880000
vt 0.546667 0.880000
vt 0.500000 0.786667
vt 0.453333 0.880000
vt 0.546667 0.880000
vt 0.500000 0.786667
vt 0.453333 0.880000
vt 0.546667 0.880000
vt 0.500000 0.786667
vt 0.453333 0.880000
vt 0.546667 0.880000
vt 0.500000 0.786667
vt 0.453333 0.880000
vt 0.546667 0.880000
vt 0.500000 0.786667
vt 0.453333 0.880000
vt 0.546667 0.880000
vt 0.500000 0.786667
vt 0.453333 0.880000
vt 0.546667 0.880000
vt 0.500000 0.786667
vt 0.453333 0.880000
vt 0.546667 0.880000
vt 0.500000 0.786667
vt 0.453333 0.880000
vt 0.546667 0.880000
vt 0.500000 0.786667
vt 0.453333 0.880000
vt 0.546667 0.880000
vt 0.500000 0.786667
vt 0.453333 0.880000
vt 0.546667 0.880000
vt 0.500000 0.786667
vt 0.453333 0.880000
vt 0.546667 0.880000
vt 0.500000 0.786667
vt 0.453333 0.880000
vt 0.546667 0.880000
vt 0.500000 0.786667
vt 0.453333 0.880000
vt 0.546667 0.880000
vt 0.500000 0.786667
vt 0.453333 0.880000
vt 0.546667 0.880000
vt 0.500000 0.786667
vt 0.453333 0.880000
vt 0.546667 0.880000
vt 0.500000 0.786667
vt 0.453333 0.880000
vt 0.546667 0.880000
vt 0.500000 0.786667
vt 0.453333 0.880000
vt 0.546667 0.880000
vt 0.500000 0.786667
vt 0.453333 0.880000
vt 0.546667 0.880000
vt 0.500000 0.786667
vt 0.453333 0.880000
vt 0.546667 0.880000
vt 0.500000 0.786667
vt 0.786667 0.880000
vt 0.880000 0.880000
vt 0.833333 0.786667
vt 0.786667 0.880000
vt 0.880000 0.880000
vt 0.833333 0.786667
vt 0.786667 0.880000
vt 0.880000 0.880000
vt 0.833333 0.786667
vt 0.786667 0.880000
vt 0.880000 0.880000
vt 0.833333 0.786667
vt 0.786667 0.880000
vt 0.880000 0.880000
vt 0.833333 0.786667
vt 0.786667 0.880000
vt 0.880000 0.880000
vt 0.833333 0.786667
vt 0.786667 0.880000
vt 0.880000 0.880000
vt 0.833333 0.786667
vt 0.786667 0.880000
vt 0.880000 0.880000
vt 0.833333 0.786667
vt 0.786667 0.880000
vt 0.880000 0.880000
vt 0.833333 0.786667
vt 0.786667 0.880000
vt 0.880000 0.880000
vt 0.833333 0.786667
vt 0.786667 0.880000
vt 0.880000 0.880000
vt 0.833333 0.786667
vt 0.786667 0.880000
vt 0.880000 0.880000
vt 0.833333 0.786667
vt 0.786667 0.880000
vt 0.880000 0.880000
vt 0.833333 0.786667
vt 0.786667 0.880000
vt 0.880000 0.880000
vt 0.833333 0.786667
vt 0.786667 0.880000
vt 0.880000 0.880000
vt 0.833333 0.786667
vt 0.786667 0.880000
vt 0.880000 0.880000
vt 0.833333 0.786667
vt 0.786667 0.880000
vt 0.880000 0.880000
vt 0.833333 0.786667
vt 0.786667 0.880000
vt 0.880000 0.880000
vt 0.833333 0.786667
vt 0.786667 0.880000
vt 0.880000 0.880000
vt 0.833333 0.786667
vt 0.786667 0.880000
vt 0.880000 0.880000
vt 0.833333 0.786667
vt 0.786667 0.880000
vt 0.880000 0.880000
vt 0.833333 0.786667
vt 0.786667 0.880000
vt 0.880000 0.880000
vt 0.833333 0.786667
vt 0.786667 0.880000
vt 0.880000 0.880000
vt 0.833333 0.786667
vt 0.786667 0.880000
vt 0.880000 0.880000
vt 0.833333 0.786667
vt 0.786667 0.880000
vt 0.880000 0.880000
vt 0.833333 0.786667
vt 0.786667 0.880000
vt 0.880000 0.880000
vt 0.833333 0.786667
vt 0.786667 0.880000
vt 0.880000 0.880000
vt 0.833333 0.786667
vt 0.786667 0.880000
vt 0.880000 0.880000
vt 0.833333 0.786667
vt 0.786667 0.880000
vt 0.880000 0.880000
vt 0.833333 0.786667
vt 0.786667 0.880000
vt 0.880000 0.880000
vt 0.833333 0.786667
vt 0.786667 0.880000
vt 0.880000 0.880000
vt 0.833333 0.786667
vt 0.786667 0.880000
vt 0.880000 0.880000
vt 0.833333 0.786667
vt 0.786667 0.880000
vt 0.880000 0.880000
vt 0.833333 0.786667
vt 0.786667 0.880000
vt 0.880000 0.880000
vt 0.833333 0.786667
vt 0.786667 0.880000
vt 0.880000 0.880000
vt 0.833333 0.786667
vt 0.786667 0.880000
vt 0.880000 0.880000
vt 0.833333 0.786667
vt 0.786667 0.880000
vt 0.880000 0.880000
vt 0.833333 0.786667
vt 0.786667 0.880000
vt 0.880000 0.880000
vt 0.833333 0.786667
vt 0.786667 0.880000
vt 0.880000 0.880000
vt 0.833333 0.786667
vt 0.786667 0.880000
vt 0.880000 0.880000
vt 0.833333 0.786667
vt 0.786667 0.880000
vt 0.880000 0.880000
vt 0.833333 0.786667
vt 0.786667 0.880000
vt 0.880000 0.880000
vt 0.833333 0.786667
vt 0.786667 0.880000
vt 0.880000 0.880000
vt 0.833333 0.786667
vt 0.786667 0.880000
vt 0.880000 0.880000
vt 0.833333 0.786667
vt 0.786667 0.880000
vt 0.880000 0.880000
vt 0.833333 0.786667
vt 0.786667 0.880000
vt 0.880000 0.880000
vt 0.833333 0.786667
vt 0.786667 0.880000
vt 0.880000 0.880000
vt 0.833333 0.786667
vt 0.786667 0.880000
vt 0.880000 0.880000
vt 0.833333 0.786667
vt 0.786667 0.880000
vt 0.880000 0.880000
vt 0.833333 0.786667
vt 0.786667 0.880000
vt 0.880000 0.880000
vt 0.833333 0.786667
vt 0.786667 0.880000
vt 0.880000 0.880000
vt 0.833333 0.786667
vt 0.786667 0.880000
vt 0.880000 0.880000
vt 0.833333 0.786667
vt 0.786667 0.880000
vt 0.880000 0.880000
vt 0.833333 0.786667
vt 0.786667 0.880000
vt 0.880000 0.880000
vt 0.833333 0.786667
vt 0.786667 0.880000
vt 0.880000 0.880000
vt 0.833333 0.786667
vt 0.786667 0.880000
vt 0.880000 0.880000
vt 0.833333 0.786667
vt 0.786667 0.880000
vt 0.880000 0.880000
vt 0.833333 0.786667
vt 0.786667 0.880000
vt 0.880000 0.880000
vt 0.833333 0.786667
vt 0.786667 0.880000
vt 0.880000 0.880000
vt 0.833333 0.786667
vt 0.786667 0.880000
vt 0.880000 0.880000
vt 0.833333 0.786667
vt 0.786667 0.880000
vt 0.880000 0.880000
vt 0.833333 0.786667
vt 0.786667 0.880000
vt 0.880000 0.880000
vt 0.833333 0.786667
vt 0.786667 0.880000
vt 0.880000 0.880000
vt 0.833333 0.786667
vt 0.786667 0.880000
vt 0.880000 0.880000
vt 0.833333 0.786667
vt 0.786667 0.880000
vt 0.880000 0.880000
vt 0.833333 0.786667
vt 0.786667 0.880000
vt 0.880000 0.880000
vt 0.833333 0.786667
vt 0.786667 0.880000
vt 0.880000 0.880000
vt 0.833333 0.786667
vt 0.786667 0.880000
vt 0.880000 0.880000
vt 0.833333 0.786667
vt 0.786667 0.880000
vt 0.880000 0.880000
vt 0.833333 0.786667
vt 0.786667 0.880000
vt 0.880000 0.880000
vt 0.833333 0.786667
vt 0.786667 0.880000
vt 0.880000 0.880000
vt 0.833333 0.786667
vt 0.786667 0.880000
vt 0.880000 0.880000
vt 0.833333 0.786667
vt 0.786667 0.880000
vt 0.880000 0.880000
vt 0.833333 0.786667
vt 0.786667 0.880000
vt 0.880000 0.880000
vt 0.833333 0.786667
vt 0.786667 0.880000
vt 0.880000 0.880000
vt 0.833333 0.786667
vt 0.786667 0.880000
vt 0.880000 0.880000
vt 0.833333 0.786667
vt 0.786667 0.880000
vt 0.880000 0.880000
vt 0.833333 0.786667
vt 0.786667 0.880000
vt 0.880000 0.880000
vt 0.833333 0.786667
vt 0.786667 0.880000
vt 0.880000 0.880000
vt 0.833333 0.786667
vt 0.786667 0.880000
vt 0.880000 0.880000
vt 0.833333 0.786667
vt 0.786667 0.880000
vt 0.880000 0.880000
vt 0.833333 0.786667
vt 0.786667 0.880000
vt 0.880000 0.880000
vt 0.833333 0.786667
vt 0.786667 0.880000
vt 0.880000 0.880000
vt 0.833333 0.786667
vt 0.786667 0.880000
vt 0.880000 0.880000
vt 0.833333 0.786667
vt 0.786667 0.880000
vt 0.880000 0.880000
vt 0.833333 0.786667
vt 0.786667 0.880000
vt 0.880000 0.880000
vt 0.833333 0.786667
vt 0.786667 0.880000
vt 0.880000 0.880000
vt 0.833333 0.786667
vt 0.786667 0.880000
vt 0.880000 0.880000
vt 0.833333 0.786667
vt 0.786667 0.880000
vt 0.880000 0.880000
vt 0.833333 0.786667
vt 0.786667 0.880000
vt 0.880000 0.880000
vt 0.833333 0.786667
vt 0.786667 0.880000
vt 0.880000 0.880000
vt 0.833333 0.786667
vt 0.786667 0.880000
vt 0.880000 0.880000
vt 0.833333 0.786667
vt 0.786667 0.880000
vt 0.880000 0.880000
vt 0.833333 0.786667
vt 0.786667 0.880000
vt 0.880000 0.880000
vt 0.833333 0.786667
vt 0.786667 0.880000
vt 0.880000 0.880000
vt 0.833333 0.786667
vt 0.786667 0.880000
vt 0.880000 0.880000
vt 0.833333 0.786667
vt 0.786667 0.880000
vt 0.880000 0.880000
vt 0.833333 0.786667
vt 0.786667 0.880000
vt 0.880000 0.880000
vt 0.833333 0.786667
vt 0.786667 0.880000
vt 0.880000 0.880000
vt 0.833333 0.786667
vt 0.786667 0.880000
vt 0.880000 0.880000
vt 0.833333 0.786667
vt 0.786667 0.880000
vt 0.880000 0.880000
vt 0.833333 0.786667
vt 0.786667 0.880000
vt 0.880000 0.880000
vt 0.833333 0.786667
vt 0.786667 0.880000
vt 0.880000 0.880000
vt 0.833333 0.786667
vt 0.786667 0.880000
vt 0.880000 0.880000
vt 0.833333 0.786667
vn 0.564246 0.679665 -0.468702
vn 0.782245 0.453743 0.426861
vn 0.995858 -0.039212 -0.082035
vn 0.782245 0.453743 0.426861
vn 0.623875 0.651190 0.432124
vn 0.995858 -0.039212 -0.082035
vn 0.782245 0.453743 0.426861
vn 0.105016 0.668211 0.736522
vn 0.623875 0.651190 0.432124
vn 0.105016 0.668211 0.736522
vn -0.005792 0.812325 0.583176
vn 0.623875 0.651190 0.432124
vn 0.105016 0.668211 0.736522
vn -0.480413 0.789011 0.382968
vn -0.005792 0.812325 0.583176
vn -0.480413 0.789011 0.382968
vn -0.581635 0.724552 0.369763
vn -0.005792 0.812325 0.583176
vn -0.480413 0.789011 0.382968
vn -0.734157 0.650331 -0.195149
vn -0.581635 0.724552 0.369763
vn -0.734157 0.650331 -0.195149
vn -0.975938 0.159640 -0.148528
vn -0.581635 0.724552 0.369763
vn -0.734157 0.650331 -0.195149
vn -0.656242 0.220430 -0.721635
vn -0.975938 0.159640 -0.148528
vn -0.656242 0.220430 -0.721635
vn -0.596614 -0.625416 -0.502898
vn -0.975938 0.159640 -0.148528
vn -0.656242 0.220430 -0.721635
vn -0.105923 -0.251050 -0.962161
vn -0.596614 -0.625416 -0.502898
vn -0.105923 -0.251050 -0.962161
vn 0.010266 -0.858556 -0.512618
vn -0.596614 -0.625416 -0.502898
vn -0.105923 -0.251050 -0.962161
vn 0.563887 -0.290126 -0.773213
vn 0.010266 -0.858556 -0.512618
vn 0.563887 -0.290126 -0.773213
vn 0.578126 -0.698529 -0.421696
vn 0.010266 -0.858556 -0.512618
vn 0.563887 -0.290126 -0.773213
vn 0.564246 0.679665 -0.468702
vn 0.578126 -0.698529 -0.421696
vn 0.564246 0.679665 -0.468702
vn 0.995858 -0.039212 -0.082035
vn 0.578126 -0.698529 -0.421696
vn 0.995858 -0.039212 -0.082035
vn 0.623875 0.651190 0.432124
vn 0.504134 -0.044999 0.862452
vn 0.623875 0.651190 0.432124
vn 0.377211 0.882364 0.281328
vn 0.504134 -0.044999 0.862452
vn 0.623875 0.651190 0.432124
vn -0.005792 0.812325 0.583176
vn 0.377211 0.882364 0.281328
vn -0.005792 0.812325 0.583176
vn -0.082145 0.877023 0.473373
vn 0.377211 0.882364 0.281328
vn -0.005792 0.812325 0.583176
vn -0.581635 0.724552 0.369763
vn -0.082145 0.877023 0.473373
vn -0.581635 0.724552 0.369763
vn -0.514675 0.616082 0.596283
vn -0.082145 0.877023 0.473373
vn -0.581635 0.724552 0.369763
vn -0.975938 0.159640 -0.148528
vn -0.514675 0.616082 0.596283
vn -0.975938 0.159640 -0.148528
vn -0.785285 -0.293702 0.545038
vn -0.514675 0.616082 0.596283
vn -0.975938 0.159640 -0.148528
vn -0.596614 -0.625416 -0.502898
vn -0.785285 -0.293702 0.545038
vn -0.596614 -0.625416 -0.502898
vn -0.342714 -0.912449 0.223572
vn -0.785285 -0.293702 0.545038
vn -0.596614 -0.625416 -0.502898
vn 0.010266 -0.858556 -0.512618
vn -0.342714 -0.912449 0.223572
vn 0.010266 -0.858556 -0.512618
vn 0.075861 -0.995980 0.047625
vn -0.342714 -0.912449 0.223572
vn 0.010266 -0.858556 -0.512618
vn 0.578126 -0.698529 -0.421696
vn 0.075861 -0.995980 0.047625
vn 0.578126 -0.698529 -0.421696
vn 0.569934 -0.817109 -0.086654
vn 0.075861 -0.995980 0.047625
vn 0.578126 -0.698529 -0.421696
vn 0.995858 -0.039212 -0.082035
vn 0.569934 -0.817109 -0.086654
vn 0.995858 -0.039212 -0.082035
vn 0.504134 -0.044999 0.862452
vn 0.569934 -0.817109 -0.086654
vn 0.564246 0.679665 -0.468702
vn 0.105016 0.668211 0.736522
vn 0.782245 0.453743 0.426861
vn 0.504134 -0.044999 0.862452
vn 0.377211 0.882364 0.281328
vn -0.082145 0.877023 0.473373
vn 0.564246 0.679665 -0.468702
vn -0.480413 0.789011 0.382968
vn 0.105016 0.668211 0.736522
vn 0.504134 -0.044999 0.862452
vn -0.082145 0.877023 0.473373
vn -0.514675 0.616082 0.596283
vn 0.564246 0.679665 -0.468702
vn -0.734157 0.650331 -0.195149
vn -0.480413 0.789011 0.382968
vn 0.504134 -0.044999 0.862452
vn -0.514675 0.616082 0.596283
vn -0.785285 -0.293702 0.545038
vn 0.564246 0.679665 -0.468702
vn -0.656242 0.220430 -0.721635
vn -0.734157 0.650331 -0.195149
vn 0.504134 -0.044999 0.862452
vn -0.785285 -0.293702 0.545038
vn -0.342714 -0.912449 0.223572
vn 0.564246 0.679665 -0.468702
vn -0.105923 -0.251050 -0.962161
vn -0.656242 0.220430 -0.721635
vn 0.504134 -0.044999 0.862452
vn -0.342714 -0.912449 0.223572
vn 0.075861 -0.995980 0.047625
vn 0.564246 0.679665 -0.468702
vn 0.563887 -0.290126 -0.773213
vn -0.105923 -0.251050 -0.962161
vn 0.504134 -0.044999 0.862452
vn 0.075861 -0.995980 0.047625
vn 0.569934 -0.817109 -0.086654
vn 0.000000 1.000000 0.000000
vn -0.145017 0.989429 0.000000
vn -0.072325 0.986922 0.144061
vn 0.000000 1.000000 0.000000
vn -0.072325 0.986922 0.144061
vn 0.072325 0.986922 0.144061
vn 0.000000 1.000000 0.000000
vn 0.072325 0.986922 0.144061
vn 0.145017 0.989429 0.000000
vn 0.000000 1.000000 0.000000
vn 0.145017 0.989429 0.000000
vn 0.072325 0.986922 -0.144061
vn 0.000000 1.000000 0.000000
vn 0.072325 0.986922 -0.144061
vn -0.072325 0.986922 -0.144061
vn 0.000000 1.000000 0.000000
vn -0.072325 0.986922 -0.144061
vn -0.145017 0.989429 -0.000000
vn -0.072325 0.986922 0.144061
vn -0.145017 0.989429 0.000000
vn -0.175599 0.920232 0.349768
vn -0.145017 0.989429 0.000000
vn -0.356556 0.934274 0.000000
vn -0.175599 0.920232 0.349768
vn 0.072325 0.986922 0.144061
vn -0.072325 0.986922 0.144061
vn 0.175599 0.920232 0.349768
vn -0.072325 0.986922 0.144061
vn -0.175599 0.920232 0.349768
vn 0.175599 0.920232 0.349768
vn 0.145017 0.989429 0.000000
vn 0.072325 0.986922 0.144061
vn 0.356556 0.934274 0.000000
vn 0.072325 0.986922 0.144061
vn 0.175599 0.920232 0.349768
vn 0.356556 0.934274 0.000000
vn 0.072325 0.986922 -0.144061
vn 0.145017 0.989429 0.000000
vn 0.175599 0.920232 -0.349768
vn 0.145017 0.989429 0.000000
vn 0.356556 0.934274 0.000000
vn 0.175599 0.920232 -0.349768
vn -0.072325 0.986922 -0.144061
vn 0.072325 0.986922 -0.144061
vn -0.175599 0.920232 -0.349768
vn 0.072325 0.986922 -0.144061
vn 0.175599 0.920232 -0.349768
vn -0.175599 0.920232 -0.349768
vn -0.145017 0.989429 -0.000000
vn -0.072325 0.986922 -0.144061
vn -0.356556 0.934274 -0.000000
vn -0.072325 0.986922 -0.144061
vn -0.175599 0.920232 -0.349768
vn -0.356556 0.934274 -0.000000
vn -0.175599 0.920232 0.349768
vn -0.356556 0.934274 0.000000
vn -0.372235 0.558310 0.741439
vn -0.356556 0.934274 0.000000
vn -0.800022 0.599971 0.000000
vn -0.372235 0.558310 0.741439
vn 0.175599 0.920232 0.349768
vn -0.175599 0.920232 0.349768
vn 0.372235 0.558310 0.741439
vn -0.175599 0.920232 0.349768
vn -0.372235 0.558310 0.741439
vn 0.372235 0.558310 0.741439
vn 0.356556 0.934274 0.000000
vn 0.175599 0.920232 0.349768
vn 0.800022 0.599971 0.000000
vn 0.175599 0.920232 0.349768
vn 0.372235 0.558310 0.741439
vn 0.800022 0.599971 0.000000
vn 0.175599 0.920232 -0.349768
vn 0.356556 0.934274 0.000000
vn 0.372235 0.558310 -0.741439
vn 0.356556 0.934274 0.000000
vn 0.800022 0.599971 0.000000
vn 0.372235 0.558310 -0.741439
vn -0.175599 0.920232 -0.349768
vn 0.175599 0.920232 -0.349768
vn -0.372235 0.558310 -0.741439
vn 0.175599 0.920232 -0.349768
vn 0.372235 0.558310 -0.741439
vn -0.372235 0.558310 -0.741439
vn -0.356556 0.934274 -0.000000
vn -0.175599 0.920232 -0.349768
vn -0.800022 0.599971 -0.000000
vn -0.175599 0.920232 -0.349768
vn -0.372235 0.558310 -0.741439
vn -0.800022 0.599971 -0.000000
vn -0.372235 0.558310 0.741439
vn -0.800022 0.599971 0.000000
vn -0.372235 -0.558310 0.741439
vn -0.800022 0.599971 0.000000
vn -0.800022 -0.599971 0.000000
vn -0.372235 -0.558310 0.741439
vn 0.372235 0.558310 0.741439
vn -0.372235 0.558310 0.741439
vn 0.372235 -0.558310 0.741439
vn -0.372235 0.558310 0.741439
vn -0.372235 -0.558310 0.741439
vn 0.372235 -0.558310 0.741439
vn 0.800022 0.599971 0.000000
vn 0.372235 0.558310 0.741439
vn 0.800022 -0.599971 0.000000
vn 0.372235 0.558310 0.741439
vn 0.372235 -0.558310 0.741439
vn 0.800022 -0.599971 0.000000
vn 0.372235 0.558310 -0.741439
vn 0.800022 0.599971 0.000000
vn 0.372235 -0.558310 -0.741439
vn 0.800022 0.599971 0.000000
vn 0.800022 -0.599971 0.000000
vn 0.372235 -0.558310 -0.741439
vn -0.372235 0.558310 -0.741439
vn 0.372235 0.558310 -0.741439
vn -0.372235 -0.558310 -0.741439
vn 0.372235 0.558310 -0.741439
vn 0.372235 -0.558310 -0.741439
vn -0.372235 -0.558310 -0.741439
vn -0.800022 0.599971 -0.000000
vn -0.372235 0.558310 -0.741439
vn -0.800022 -0.599971 -0.000000
vn -0.372235 0.558310 -0.741439
vn -0.372235 -0.558310 -0.741439
vn -0.800022 -0.599971 -0.000000
vn -0.372235 -0.558310 0.741439
vn -0.800022 -0.599971 0.000000
vn -0.175599 -0.920232 0.349768
vn -0.800022 -0.599971 0.000000
vn -0.356556 -0.934274 0.000000
vn -0.175599 -0.920232 0.349768
vn 0.372235 -0.558310 0.741439
vn -0.372235 -0.558310 0.741439
vn 0.175599 -0.920232 0.349768
vn -0.372235 -0.558310 0.741439
vn -0.175599 -0.920232 0.349768
vn 0.175599 -0.920232 0.349768
vn 0.800022 -0.599971 0.000000
vn 0.372235 -0.558310 0.741439
vn 0.356556 -0.934274 0.000000
vn 0.372235 -0.558310 0.741439
vn 0.175599 -0.920232 0.349768
vn 0.356556 -0.934274 0.000000
vn 0.372235 -0.558310 -0.741439
vn 0.800022 -0.599971 0.000000
vn 0.175599 -0.920232 -0.349768
vn 0.800022 -0.599971 0.000000
vn 0.356556 -0.934274 0.000000
vn 0.175599 -0.920232 -0.349768
vn -0.372235 -0.558310 -0.741439
vn 0.372235 -0.558310 -0.741439
vn -0.175599 -0.920232 -0.349768
vn 0.372235 -0.558310 -0.741439
vn 0.175599 -0.920232 -0.349768
vn -0.175599 -0.920232 -0.349768
vn -0.800022 -0.599971 -0.000000
vn -0.372235 -0.558310 -0.741439
vn -0.356556 -0.934274 -0.000000
vn -0.372235 -0.558310 -0.741439
vn -0.175599 -0.920232 -0.349768
vn -0.356556 -0.934274 -0.000000
vn -0.175599 -0.920232 0.349768
vn -0.356556 -0.934274 0.000000
vn -0.072325 -0.986922 0.144061
vn -0.356556 -0.934274 0.000000
vn -0.145017 -0.989429 0.000000
vn -0.072325 -0.986922 0.144061
vn 0.175599 -0.920232 0.349768
vn -0.175599 -0.920232 0.349768
vn 0.072325 -0.986922 0.144061
vn -0.175599 -0.920232 0.349768
vn -0.072325 -0.986922 0.144061
vn 0.072325 -0.986922 0.144061
vn 0.356556 -0.934274 0.000000
vn 0.175599 -0.920232 0.349768
vn 0.145017 -0.989429 0.000000
vn 0.175599 -0.920232 0.349768
vn 0.072325 -0.986922 0.144061
vn 0.145017 -0.989429 0.000000
vn 0.175599 -0.920232 -0.349768
vn 0.356556 -0.934274 0.000000
vn 0.072325 -0.986922 -0.144061
vn 0.356556 -0.934274 0.000000
vn 0.145017 -0.989429 0.000000
vn 0.072325 -0.986922 -0.144061
vn -0.175599 -0.920232 -0.349768
vn 0.175599 -0.920232 -0.349768
vn -0.072325 -0.986922 -0.144061
vn 0.175599 -0.920232 -0.349768
vn 0.072325 -0.986922 -0.144061
vn -0.072325 -0.986922 -0.144061
vn -0.356556 -0.934274 -0.000000
vn -0.175599 -0.920232 -0.349768
vn -0.145017 -0.989429 -0.000000
vn -0.175599 -0.920232 -0.349768
vn -0.072325 -0.986922 -0.144061
vn -0.145017 -0.989429 -0.000000
vn -0.072325 -0.986922 0.144061
vn -0.145017 -0.989429 0.000000
vn -0.000000 -1.000000 0.000000
vn 0.072325 -0.986922 0.144061
vn -0.072325 -0.986922 0.144061
vn 0.000000 -1.000000 0.000000
vn 0.145017 -0.989429 0.000000
vn 0.072325 -0.986922 0.144061
vn 0.000000 -1.000000 0.000000
vn 0.072325 -0.986922 -0.144061
vn 0.145017 -0.989429 0.000000
vn 0.000000 -1.000000 -0.000000
vn -0.072325 -0.986922 -0.144061
vn 0.072325 -0.986922 -0.144061
vn -0.000000 -1.000000 -0.000000
vn -0.145017 -0.989429 -0.000000
vn -0.072325 -0.986922 -0.144061
vn -0.000000 -1.000000 -0.000000
vn 0.923606 -0.129132 -0.360938
vn 0.642491 0.764086 0.058117
vn 0.981523 0.084688 0.171582
vn 0.642491 0.764086 0.058117
vn 0.402225 0.895493 0.190545
vn 0.981523 0.084688 0.171582
vn 0.642491 0.764086 0.058117
vn -0.301398 0.927149 -0.222608
vn 0.402225 0.895493 0.190545
vn -0.301398 0.927149 -0.222608
vn -0.583827 0.808828 0.070306
vn 0.402225 0.895493 0.190545
vn -0.301398 0.927149 -0.222608
vn -0.885684 0.190441 -0.423435
vn -0.583827 0.808828 0.070306
vn -0.885684 0.190441 -0.423435
vn -0.993451 -0.090550 -0.069678
vn -0.583827 0.808828 0.070306
vn -0.885684 0.190441 -0.423435
vn -0.587448 -0.722128 -0.365289
vn -0.993451 -0.090550 -0.069678
vn -0.587448 -0.722128 -0.365289
vn -0.414422 -0.905739 -0.088829
vn -0.993451 -0.090550 -0.069678
vn -0.587448 -0.722128 -0.365289
vn 0.348973 -0.933209 -0.085666
vn -0.414422 -0.905739 -0.088829
vn 0.348973 -0.933209 -0.085666
vn 0.575498 -0.817165 0.032310
vn -0.414422 -0.905739 -0.088829
vn 0.348973 -0.933209 -0.085666
vn 0.923606 -0.129132 -0.360938
vn 0.575498 -0.817165 0.032310
vn 0.923606 -0.129132 -0.360938
vn 0.981523 0.084688 0.171582
vn 0.575498 -0.817165 0.032310
vn 0.981523 0.084688 0.171582
vn 0.402225 0.895493 0.190545
vn 0.710356 0.071212 0.700231
vn 0.402225 0.895493 0.190545
vn 0.238158 0.879015 0.413054
vn 0.710356 0.071212 0.700231
vn 0.402225 0.895493 0.190545
vn -0.583827 0.808828 0.070306
vn 0.238158 0.879015 0.413054
vn -0.583827 0.808828 0.070306
vn -0.681270 0.594393 0.427279
vn 0.238158 0.879015 0.413054
vn -0.583827 0.808828 0.070306
vn -0.993451 -0.090550 -0.069678
vn -0.681270 0.594393 0.427279
vn -0.993451 -0.090550 -0.069678
vn -0.906413 -0.280199 0.316077
vn -0.681270 0.594393 0.427279
vn -0.993451 -0.090550 -0.069678
vn -0.414422 -0.905739 -0.088829
vn -0.906413 -0.280199 0.316077
vn -0.414422 -0.905739 -0.088829
vn -0.292442 -0.937806 0.187078
vn -0.906413 -0.280199 0.316077
vn -0.414422 -0.905739 -0.088829
vn 0.575498 -0.817165 0.032310
vn -0.292442 -0.937806 0.187078
vn 0.575498 -0.817165 0.032310
vn 0.657112 -0.738173 0.152658
vn -0.292442 -0.937806 0.187078
vn 0.575498 -0.817165 0.032310
vn 0.981523 0.084688 0.171582
vn 0.657112 -0.738173 0.152658
vn 0.981523 0.084688 0.171582
vn 0.710356 0.071212 0.700231
vn 0.657112 -0.738173 0.152658
vn 0.923606 -0.129132 -0.360938
vn -0.301398 0.927149 -0.222608
vn 0.642491 0.764086 0.058117
vn 0.710356 0.071212 0.700231
vn 0.238158 0.879015 0.413054
vn -0.681270 0.594393 0.427279
vn 0.923606 -0.129132 -0.360938
vn -0.885684 0.190441 -0.423435
vn -0.301398 0.927149 -0.222608
vn 0.710356 0.071212 0.700231
vn -0.681270 0.594393 0.427279
vn -0.906413 -0.280199 0.316077
vn 0.923606 -0.129132 -0.360938
vn -0.587448 -0.722128 -0.365289
vn -0.885684 0.190441 -0.423435
vn 0.710356 0.071212 0.700231
vn -0.906413 -0.280199 0.316077
vn -0.292442 -0.937806 0.187078
vn 0.923606 -0.129132 -0.360938
vn 0.348973 -0.933209 -0.085666
vn -0.587448 -0.722128 -0.365289
vn 0.710356 0.071212 0.700231
vn -0.292442 -0.937806 0.187078
vn 0.657112 -0.738173 0.152658
vn 0.870316 -0.128400 -0.475461
vn 0.644678 0.764133 -0.022158
vn 0.995146 0.084528 0.050401
vn 0.644678 0.764133 -0.022158
vn 0.422650 0.895227 0.141195
vn 0.995146 0.084528 0.050401
vn 0.644678 0.764133 -0.022158
vn -0.326530 0.926941 -0.184820
vn 0.422650 0.895227 0.141195
vn -0.326530 0.926941 -0.184820
vn -0.570706 0.808667 0.142659
vn 0.422650 0.895227 0.141195
vn -0.326530 0.926941 -0.184820
vn -0.930590 0.190573 -0.312546
vn -0.570706 0.808667 0.142659
vn -0.930590 0.190573 -0.312546
vn -0.994481 -0.090592 0.052924
vn -0.570706 0.808667 0.142659
vn -0.930590 0.190573 -0.312546
vn -0.627871 -0.721553 -0.291787
vn -0.994481 -0.090592 0.052924
vn -0.627871 -0.721553 -0.291787
vn -0.422121 -0.905743 -0.037997
vn -0.994481 -0.090592 0.052924
vn -0.627871 -0.721553 -0.291787
vn 0.335712 -0.933050 -0.129288
vn -0.422121 -0.905743 -0.037997
vn 0.335712 -0.933050 -0.129288
vn 0.575163 -0.817106 -0.039054
vn -0.422121 -0.905743 -0.037997
vn 0.335712 -0.933050 -0.129288
vn 0.870316 -0.128400 -0.475461
vn 0.575163 -0.817106 -0.039054
vn 0.870316 -0.128400 -0.475461
vn 0.995146 0.084528 0.050401
vn 0.575163 -0.817106 -0.039054
vn 0.995146 0.084528 0.050401
vn 0.422650 0.895227 0.141195
vn 0.787300 0.069446 0.612647
vn 0.422650 0.895227 0.141195
vn 0.286134 0.877865 0.384032
vn 0.787300 0.069446 0.612647
vn 0.422650 0.895227 0.141195
vn -0.570706 0.808667 0.142659
vn 0.286134 0.877865 0.384032
vn -0.570706 0.808667 0.142659
vn -0.624489 0.592740 0.508599
vn 0.286134 0.877865 0.384032
vn -0.570706 0.808667 0.142659
vn -0.994481 -0.090592 0.052924
vn -0.624489 0.592740 0.508599
vn -0.994481 -0.090592 0.052924
vn -0.860754 -0.280930 0.424477
vn -0.624489 0.592740 0.508599
vn -0.994481 -0.090592 0.052924
vn -0.422121 -0.905743 -0.037997
vn -0.860754 -0.280930 0.424477
vn -0.422121 -0.905743 -0.037997
vn -0.267706 -0.937581 0.221982
vn -0.860754 -0.280930 0.424477
vn -0.422121 -0.905743 -0.037997
vn 0.575163 -0.817106 -0.039054
vn -0.267706 -0.937581 0.221982
vn 0.575163 -0.817106 -0.039054
vn 0.670447 -0.738295 0.073630
vn -0.267706 -0.937581 0.221982
vn 0.575163 -0.817106 -0.039054
vn 0.995146 0.084528 0.050401
vn 0.670447 -0.738295 0.073630
vn 0.995146 0.084528 0.050401
vn 0.787300 0.069446 0.612647
vn 0.670447 -0.738295 0.073630
vn 0.870316 -0.128400 -0.475461
vn -0.326530 0.926941 -0.184820
vn 0.644678 0.764133 -0.022158
vn 0.787300 0.069446 0.612647
vn 0.286134 0.877865 0.384032
vn -0.624489 0.592740 0.508599
vn 0.870316 -0.128400 -0.475461
vn -0.930590 0.190573 -0.312546
vn -0.326530 0.926941 -0.184820
vn 0.787300 0.069446 0.612647
vn -0.624489 0.592740 0.508599
vn -0.860754 -0.280930 0.424477
vn 0.870316 -0.128400 -0.475461
vn -0.627871 -0.721553 -0.291787
vn -0.930590 0.190573 -0.312546
vn 0.787300 0.069446 0.612647
vn -0.860754 -0.280930 0.424477
vn -0.267706 -0.937581 0.221982
vn 0.870316 -0.128400 -0.475461
vn 0.335712 -0.933050 -0.129288
vn -0.627871 -0.721553 -0.291787
vn 0.787300 0.069446 0.612647
vn -0.267706 -0.937581 0.221982
vn 0.670447 -0.738295 0.073630
vn 0.806520 -0.129031 -0.576955
vn 0.636990 0.764124 -0.101771
vn 0.993792 0.084574 -0.072282
vn 0.636990 0.764124 -0.101771
vn 0.436678 0.895338 0.087643
vn 0.993792 0.084574 -0.072282
vn 0.636990 0.764124 -0.101771
vn -0.346910 0.927146 -0.141610
vn 0.436678 0.895338 0.087643
vn -0.346910 0.927146 -0.141610
vn -0.549091 0.808749 0.210772
vn 0.436678 0.895338 0.087643
vn -0.346910 0.927146 -0.141610
vn -0.962632 0.190371 -0.192611
vn -0.549091 0.808749 0.210772
vn -0.962632 0.190371 -0.192611
vn -0.980573 -0.090655 0.173952
vn -0.549091 0.808749 0.210772
vn -0.962632 0.190371 -0.192611
vn -0.659180 -0.722189 -0.209581
vn -0.980573 -0.090655 0.173952
vn -0.659180 -0.722189 -0.209581
vn -0.423442 -0.905816 0.013927
vn -0.980573 -0.090655 0.173952
vn -0.659180 -0.722189 -0.209581
vn 0.317292 -0.933156 -0.168957
vn -0.423442 -0.905816 0.013927
vn 0.317292 -0.933156 -0.168957
vn 0.566140 -0.817032 -0.109292
vn -0.423442 -0.905816 0.013927
vn 0.317292 -0.933156 -0.168957
vn 0.806520 -0.129031 -0.576955
vn 0.566140 -0.817032 -0.109292
vn 0.806520 -0.129031 -0.576955
vn 0.993792 0.084574 -0.072282
vn 0.566140 -0.817032 -0.109292
vn 0.993792 0.084574 -0.072282
vn 0.436678 0.895338 0.087643
vn 0.856552 0.071064 0.511144
vn 0.436678 0.895338 0.087643
vn 0.330167 0.878730 0.344709
vn 0.856552 0.071064 0.511144
vn 0.436678 0.895338 0.087643
vn -0.549091 0.808749 0.210772
vn 0.330167 0.878730 0.344709
vn -0.549091 0.808749 0.210772
vn -0.560047 0.594455 0.577036
vn 0.330167 0.878730 0.344709
vn -0.549091 0.808749 0.210772
vn -0.980573 -0.090655 0.173952
vn -0.560047 0.594455 0.577036
vn -0.980573 -0.090655 0.173952
vn -0.805358 -0.280240 0.522363
vn -0.560047 0.594455 0.577036
vn -0.980573 -0.090655 0.173952
vn -0.423442 -0.905816 0.013927
vn -0.805358 -0.280240 0.522363
vn -0.423442 -0.905816 0.013927
vn -0.239765 -0.937803 0.251074
vn -0.805358 -0.280240 0.522363
vn -0.423442 -0.905816 0.013927
vn 0.566140 -0.817032 -0.109292
vn -0.239765 -0.937803 0.251074
vn 0.566140 -0.817032 -0.109292
vn 0.674518 -0.738221 -0.007421
vn -0.239765 -0.937803 0.251074
vn 0.566140 -0.817032 -0.109292
vn 0.993792 0.084574 -0.072282
vn 0.674518 -0.738221 -0.007421
vn 0.993792 0.084574 -0.072282
vn 0.856552 0.071064 0.511144
vn 0.674518 -0.738221 -0.007421
vn 0.806520 -0.129031 -0.576955
vn -0.346910 0.927146 -0.141610
vn 0.636990 0.764124 -0.101771
vn 0.856552 0.071064 0.511144
vn 0.330167 0.878730 0.344709
vn -0.560047 0.594455 0.577036
vn 0.806520 -0.129031 -0.576955
vn -0.962632 0.190371 -0.192611
vn -0.346910 0.927146 -0.141610
vn 0.856552 0.071064 0.511144
vn -0.560047 0.594455 0.577036
vn -0.805358 -0.280240 0.522363
vn 0.806520 -0.129031 -0.576955
vn -0.659180 -0.722189 -0.209581
vn -0.962632 0.190371 -0.192611
vn 0.856552 0.071064 0.511144
vn -0.805358 -0.280240 0.522363
vn -0.239765 -0.937803 0.251074
vn 0.806520 -0.129031 -0.576955
vn 0.317292 -0.933156 -0.168957
vn -0.659180 -0.722189 -0.209581
vn 0.856552 0.071064 0.511144
vn -0.239765 -0.937803 0.251074
vn 0.674518 -0.738221 -0.007421
vn 0.812617 0.022253 -0.582373
vn 0.427075 0.883321 0.193266
vn 0.912555 0.183055 0.365698
vn 0.427075 0.883321 0.193266
vn 0.009054 0.837235 0.546768
vn 0.912555 0.183055 0.365698
vn 0.427075 0.883321 0.193266
vn -0.640843 0.705343 -0.303004
vn 0.009054 0.837235 0.546768
vn -0.640843 0.705343 -0.303004
vn -0.914171 0.224632 0.337390
vn 0.009054 0.837235 0.546768
vn -0.640843 0.705343 -0.303004
vn -0.772697 -0.323908 -0.545915
vn -0.914171 0.224632 0.337390
vn -0.772697 -0.323908 -0.545915
vn -0.588826 -0.807695 0.030230
vn -0.914171 0.224632 0.337390
vn -0.772697 -0.323908 -0.545915
vn 0.184747 -0.958300 -0.218012
vn -0.588826 -0.807695 0.030230
vn 0.184747 -0.958300 -0.218012
vn 0.545729 -0.836651 0.046853
vn -0.588826 -0.807695 0.030230
vn 0.184747 -0.958300 -0.218012
vn 0.812617 0.022253 -0.582373
vn 0.545729 -0.836651 0.046853
vn 0.812617 0.022253 -0.582373
vn 0.912555 0.183055 0.365698
vn 0.545729 -0.836651 0.046853
vn 0.912555 0.183055 0.365698
vn 0.009054 0.837235 0.546768
vn 0.720654 0.171635 0.671714
vn 0.009054 0.837235 0.546768
vn -0.205415 0.537485 0.817872
vn 0.720654 0.171635 0.671714
vn 0.009054 0.837235 0.546768
vn -0.914171 0.224632 0.337390
vn -0.205415 0.537485 0.817872
vn -0.914171 0.224632 0.337390
vn -0.945598 -0.058382 0.320057
vn -0.205415 0.537485 0.817872
vn -0.914171 0.224632 0.337390
vn -0.588826 -0.807695 0.030230
vn -0.945598 -0.058382 0.320057
vn -0.588826 -0.807695 0.030230
vn -0.389698 -0.880886 -0.268655
vn -0.945598 -0.058382 0.320057
vn -0.588826 -0.807695 0.030230
vn 0.545729 -0.836651 0.046853
vn -0.389698 -0.880886 -0.268655
vn 0.545729 -0.836651 0.046853
vn 0.717436 -0.696312 -0.020883
vn -0.389698 -0.880886 -0.268655
vn 0.545729 -0.836651 0.046853
vn 0.912555 0.183055 0.365698
vn 0.717436 -0.696312 -0.020883
vn 0.912555 0.183055 0.365698
vn 0.720654 0.171635 0.671714
vn 0.717436 -0.696312 -0.020883
vn 0.812617 0.022253 -0.582373
vn -0.640843 0.705343 -0.303004
vn 0.427075 0.883321 0.193266
vn 0.720654 0.171635 0.671714
vn -0.205415 0.537485 0.817872
vn -0.945598 -0.058382 0.320057
vn 0.812617 0.022253 -0.582373
vn -0.772697 -0.323908 -0.545915
vn -0.640843 0.705343 -0.303004
vn 0.720654 0.171635 0.671714
vn -0.945598 -0.058382 0.320057
vn -0.389698 -0.880886 -0.268655
vn 0.812617 0.022253 -0.582373
vn 0.184747 -0.958300 -0.218012
vn -0.772697 -0.323908 -0.545915
vn 0.720654 0.171635 0.671714
vn -0.389698 -0.880886 -0.268655
vn 0.717436 -0.696312 -0.020883
vn 0.787352 0.020826 -0.616152
vn 0.437359 0.882407 0.173420
vn 0.942156 0.167745 0.290177
vn 0.437359 0.882407 0.173420
vn 0.067739 0.864628 0.497825
vn 0.942156 0.167745 0.290177
vn 0.437359 0.882407 0.173420
vn -0.651867 0.705324 -0.278547
vn 0.067739 0.864628 0.497825
vn -0.651867 0.705324 -0.278547
vn -0.893067 0.277575 0.354095
vn 0.067739 0.864628 0.497825
vn -0.651867 0.705324 -0.278547
vn -0.797348 -0.323045 -0.509783
vn -0.893067 0.277575 0.354095
vn -0.797348 -0.323045 -0.509783
vn -0.618894 -0.783320 0.058142
vn -0.893067 0.277575 0.354095
vn -0.797348 -0.323045 -0.509783
vn 0.173743 -0.958272 -0.226997
vn -0.618894 -0.783320 0.058142
vn 0.173743 -0.958272 -0.226997
vn 0.518965 -0.854615 0.017556
vn -0.618894 -0.783320 0.058142
vn 0.173743 -0.958272 -0.226997
vn 0.787352 0.020826 -0.616152
vn 0.518965 -0.854615 0.017556
vn 0.787352 0.020826 -0.616152
vn 0.942156 0.167745 0.290177
vn 0.518965 -0.854615 0.017556
vn 0.942156 0.167745 0.290177
vn 0.067739 0.864628 0.497825
vn 0.835024 0.334355 0.436968
vn 0.067739 0.864628 0.497825
vn -0.175713 0.768154 0.615683
vn 0.835024 0.334355 0.436968
vn 0.067739 0.864628 0.497825
vn -0.893067 0.277575 0.354095
vn -0.175713 0.768154 0.615683
vn -0.893067 0.277575 0.354095
vn -0.957299 0.024491 0.288062
vn -0.175713 0.768154 0.615683
vn -0.893067 0.277575 0.354095
vn -0.618894 -0.783320 0.058142
vn -0.957299 0.024491 0.288062
vn -0.618894 -0.783320 0.058142
vn -0.414474 -0.899605 -0.137559
vn -0.957299 0.024491 0.288062
vn -0.618894 -0.783320 0.058142
vn 0.518965 -0.854615 0.017556
vn -0.414474 -0.899605 -0.137559
vn 0.518965 -0.854615 0.017556
vn 0.720384 -0.691511 -0.053477
vn -0.414474 -0.899605 -0.137559
vn 0.518965 -0.854615 0.017556
vn 0.942156 0.167745 0.290177
vn 0.720384 -0.691511 -0.053477
vn 0.942156 0.167745 0.290177
vn 0.835024 0.334355 0.436968
vn 0.720384 -0.691511 -0.053477
vn 0.787352 0.020826 -0.616152
vn -0.651867 0.705324 -0.278547
vn 0.437359 0.882407 0.173420
vn 0.835024 0.334355 0.436968
vn -0.175713 0.768154 0.615683
vn -0.957299 0.024491 0.288062
vn 0.787352 0.020826 -0.616152
vn -0.797348 -0.323045 -0.509783
vn -0.651867 0.705324 -0.278547
vn 0.835024 0.334355 0.436968
vn -0.957299 0.024491 0.288062
vn -0.414474 -0.899605 -0.137559
vn 0.787352 0.020826 -0.616152
vn 0.173743 -0.958272 -0.226997
vn -0.797348 -0.323045 -0.509783
vn 0.835024 0.334355 0.436968
vn -0.414474 -0.899605 -0.137559
vn 0.720384 -0.691511 -0.053477
vn 0.756869 0.020732 -0.653238
vn 0.444104 0.882411 0.155313
vn 0.946339 0.184395 0.265408
vn 0.444104 0.882411 0.155313
vn 0.068498 0.840921 0.536805
vn 0.946339 0.184395 0.265408
vn 0.444104 0.882411 0.155313
vn -0.664071 0.706694 -0.244118
vn 0.068498 0.840921 0.536805
vn -0.664071 0.706694 -0.244118
vn -0.873144 0.227178 0.431288
vn 0.068498 0.840921 0.536805
vn -0.664071 0.706694 -0.244118
vn -0.819250 -0.322689 -0.474026
vn -0.873144 0.227178 0.431288
vn -0.819250 -0.322689 -0.474026
vn -0.583285 -0.806303 0.098253
vn -0.873144 0.227178 0.431288
vn -0.819250 -0.322689 -0.474026
vn 0.163447 -0.958779 -0.232437
vn -0.583285 -0.806303 0.098253
vn 0.163447 -0.958779 -0.232437
vn 0.545500 -0.838095 -0.005202
vn -0.583285 -0.806303 0.098253
vn 0.163447 -0.958779 -0.232437
vn 0.756869 0.020732 -0.653238
vn 0.545500 -0.838095 -0.005202
vn 0.756869 0.020732 -0.653238
vn 0.946339 0.184395 0.265408
vn 0.545500 -0.838095 -0.005202
vn 0.946339 0.184395 0.265408
vn 0.068498 0.840921 0.536805
vn 0.823143 0.194221 0.533586
vn 0.068498 0.840921 0.536805
vn -0.085281 0.531971 0.842457
vn 0.823143 0.194221 0.533586
vn 0.068498 0.840921 0.536805
vn -0.873144 0.227178 0.431288
vn -0.085281 0.531971 0.842457
vn -0.873144 0.227178 0.431288
vn -0.866220 -0.073792 0.494185
vn -0.085281 0.531971 0.842457
vn -0.873144 0.227178 0.431288
vn -0.583285 -0.806303 0.098253
vn -0.866220 -0.073792 0.494185
vn -0.583285 -0.806303 0.098253
vn -0.420432 -0.888024 -0.186145
vn -0.866220 -0.073792 0.494185
vn -0.583285 -0.806303 0.098253
vn 0.545500 -0.838095 -0.005202
vn -0.420432 -0.888024 -0.186145
vn 0.545500 -0.838095 -0.005202
vn 0.710130 -0.684518 -0.164774
vn -0.420432 -0.888024 -0.186145
vn 0.545500 -0.838095 -0.005202
vn 0.946339 0.184395 0.265408
vn 0.710130 -0.684518 -0.164774
vn 0.946339 0.184395 0.265408
vn 0.823143 0.194221 0.533586
vn 0.710130 -0.684518 -0.164774
vn 0.756869 0.020732 -0.653238
vn -0.664071 0.706694 -0.244118
vn 0.444104 0.882411 0.155313
vn 0.823143 0.194221 0.533586
vn -0.085281 0.531971 0.842457
vn -0.866220 -0.073792 0.494185
vn 0.756869 0.020732 -0.653238
vn -0.819250 -0.322689 -0.474026
vn -0.664071 0.706694 -0.244118
vn 0.823143 0.194221 0.533586
vn -0.866220 -0.073792 0.494185
vn -0.420432 -0.888024 -0.186145
vn 0.756869 0.020732 -0.653238
vn 0.163447 -0.958779 -0.232437
vn -0.819250 -0.322689 -0.474026
vn 0.823143 0.194221 0.533586
vn -0.420432 -0.888024 -0.186145
vn 0.710130 -0.684518 -0.164774
vn -0.828058 0.123019 0.546979
vn -0.453562 0.810585 -0.370451
vn -0.965162 0.114989 -0.235033
vn -0.453562 0.810585 -0.370451
vn -0.105370 0.788368 -0.606114
vn -0.965162 0.114989 -0.235033
vn -0.453562 0.810585 -0.370451
vn 0.673635 0.739061 -0.002441
vn -0.105370 0.788368 -0.606114
vn 0.673635 0.739061 -0.002441
vn 0.890493 0.252920 -0.378224
vn -0.105370 0.788368 -0.606114
vn 0.673635 0.739061 -0.002441
vn 0.846184 -0.235593 0.477984
vn 0.890493 0.252920 -0.378224
vn 0.846184 -0.235593 0.477984
vn 0.646179 -0.751384 0.133700
vn 0.890493 0.252920 -0.378224
vn 0.846184 -0.235593 0.477984
vn -0.155289 -0.874223 0.460022
vn 0.646179 -0.751384 0.133700
vn -0.155289 -0.874223 0.460022
vn -0.500679 -0.836629 0.222197
vn 0.646179 -0.751384 0.133700
vn -0.155289 -0.874223 0.460022
vn -0.828058 0.123019 0.546979
vn -0.500679 -0.836629 0.222197
vn -0.828058 0.123019 0.546979
vn -0.965162 0.114989 -0.235033
vn -0.500679 -0.836629 0.222197
vn -0.965162 0.114989 -0.235033
vn -0.105370 0.788368 -0.606114
vn -0.875273 0.347439 -0.336428
vn -0.105370 0.788368 -0.606114
vn 0.164330 0.792813 -0.586892
vn -0.875273 0.347439 -0.336428
vn -0.105370 0.788368 -0.606114
vn 0.890493 0.252920 -0.378224
vn 0.164330 0.792813 -0.586892
vn 0.890493 0.252920 -0.378224
vn 0.968594 0.031014 -0.246707
vn 0.164330 0.792813 -0.586892
vn 0.890493 0.252920 -0.378224
vn 0.646179 -0.751384 0.133700
vn 0.968594 0.031014 -0.246707
vn 0.646179 -0.751384 0.133700
vn 0.426292 -0.875338 0.228162
vn 0.968594 0.031014 -0.246707
vn 0.646179 -0.751384 0.133700
vn -0.500679 -0.836629 0.222197
vn 0.426292 -0.875338 0.228162
vn -0.500679 -0.836629 0.222197
vn -0.714294 -0.675638 0.182478
vn 0.426292 -0.875338 0.228162
vn -0.500679 -0.836629 0.222197
vn -0.965162 0.114989 -0.235033
vn -0.714294 -0.675638 0.182478
vn -0.965162 0.114989 -0.235033
vn -0.875273 0.347439 -0.336428
vn -0.714294 -0.675638 0.182478
vn -0.828058 0.123019 0.546979
vn 0.673635 0.739061 -0.002441
vn -0.453562 0.810585 -0.370451
vn -0.875273 0.347439 -0.336428
vn 0.164330 0.792813 -0.586892
vn 0.968594 0.031014 -0.246707
vn -0.828058 0.123019 0.546979
vn 0.846184 -0.235593 0.477984
vn 0.673635 0.739061 -0.002441
vn -0.875273 0.347439 -0.336428
vn 0.968594 0.031014 -0.246707
vn 0.426292 -0.875338 0.228162
vn -0.828058 0.123019 0.546979
vn -0.155289 -0.874223 0.460022
vn 0.846184 -0.235593 0.477984
vn -0.875273 0.347439 -0.336428
vn 0.426292 -0.875338 0.228162
vn -0.714294 -0.675638 0.182478
usemtl Dragon_color_atlas
f 1/1/1 2/2/2 3/3/3
f 4/4/4 5/5/5 6/6/6
f 7/7/7 8/8/8 9/9/9
f 10/10/10 11/11/11 12/12/12
f 13/13/13 14/14/14 15/15/15
f 16/16/16 17/17/17 18/18/18
f 19/19/19 20/20/20 21/21/21
f 22/22/22 23/23/23 24/24/24
f 25/25/25 26/26/26 27/27/27
f 28/28/28 29/29/29 30/30/30
f 31/31/31 32/32/32 33/33/33
f 34/34/34 35/35/35 36/36/36
f 37/37/37 38/38/38 39/39/39
f 40/40/40 41/41/41 42/42/42
f 43/43/43 44/44/44 45/45/45
f 46/46/46 47/47/47 48/48/48
f 49/49/49 50/50/50 51/51/51
f 52/52/52 53/53/53 54/54/54
f 55/55/55 56/56/56 57/57/57
f 58/58/58 59/59/59 60/60/60
f 61/61/61 62/62/62 63/63/63
f 64/64/64 65/65/65 66/66/66
f 67/67/67 68/68/68 69/69/69
f 70/70/70 71/71/71 72/72/72
f 73/73/73 74/74/74 75/75/75
f 76/76/76 77/77/77 78/78/78
f 79/79/79 80/80/80 81/81/81
f 82/82/82 83/83/83 84/84/84
f 85/85/85 86/86/86 87/87/87
f 88/88/88 89/89/89 90/90/90
f 91/91/91 92/92/92 93/93/93
f 94/94/94 95/95/95 96/96/96
f 97/97/97 98/98/98 99/99/99
f 100/100/100 101/101/101 102/102/102
f 103/103/103 104/104/104 105/105/105
f 106/106/106 107/107/107 108/108/108
f 109/109/109 110/110/110 111/111/111
f 112/112/112 113/113/113 114/114/114
f 115/115/115 116/116/116 117/117/117
f 118/118/118 119/119/119 120/120/120
f 121/121/121 122/122/122 123/123/123
f 124/124/124 125/125/125 126/126/126
f 127/127/127 128/128/128 129/129/129
f 130/130/130 131/131/131 132/132/132
f 133/133/133 134/134/134 135/135/135
f 136/136/136 137/137/137 138/138/138
f 139/139/139 140/140/140 141/141/141
f 142/142/142 143/143/143 144/144/144
f 145/145/145 146/146/146 147/147/147
f 148/148/148 149/149/149 150/150/150
f 151/151/151 152/152/152 153/153/153
f 154/154/154 155/155/155 156/156/156
f 157/157/157 158/158/158 159/159/159
f 160/160/160 161/161/161 162/162/162
f 163/163/163 164/164/164 165/165/165
f 166/166/166 167/167/167 168/168/168
f 169/169/169 170/170/170 171/171/171
f 172/172/172 173/173/173 174/174/174
f 175/175/175 176/176/176 177/177/177
f 178/178/178 179/179/179 180/180/180
f 181/181/181 182/182/182 183/183/183
f 184/184/184 185/185/185 186/186/186
f 187/187/187 188/188/188 189/189/189
f 190/190/190 191/191/191 192/192/192
f 193/193/193 194/194/194 195/195/195
f 196/196/196 197/197/197 198/198/198
f 199/199/199 200/200/200 201/201/201
f 202/202/202 203/203/203 204/204/204
f 205/205/205 206/206/206 207/207/207
f 208/208/208 209/209/209 210/210/210
f 211/211/211 212/212/212 213/213/213
f 214/214/214 215/215/215 216/216/216
f 217/217/217 218/218/218 219/219/219
f 220/220/220 221/221/221 222/222/222
f 223/223/223 224/224/224 225/225/225
f 226/226/226 227/227/227 228/228/228
f 229/229/229 230/230/230 231/231/231
f 232/232/232 233/233/233 234/234/234
f 235/235/235 236/236/236 237/237/237
f 238/238/238 239/239/239 240/240/240
f 241/241/241 242/242/242 243/243/243
f 244/244/244 245/245/245 246/246/246
f 247/247/247 248/248/248 249/249/249
f 250/250/250 251/251/251 252/252/252
f 253/253/253 254/254/254 255/255/255
f 256/256/256 257/257/257 258/258/258
f 259/259/259 260/260/260 261/261/261
f 262/262/262 263/263/263 264/264/264
f 265/265/265 266/266/266 267/267/267
f 268/268/268 269/269/269 270/270/270
f 271/271/271 272/272/272 273/273/273
f 274/274/274 275/275/275 276/276/276
f 277/277/277 278/278/278 279/279/279
f 280/280/280 281/281/281 282/282/282
f 283/283/283 284/284/284 285/285/285
f 286/286/286 287/287/287 288/288/288
f 289/289/289 290/290/290 291/291/291
f 292/292/292 293/293/293 294/294/294
f 295/295/295 296/296/296 297/297/297
f 298/298/298 299/299/299 300/300/300
f 301/301/301 302/302/302 303/303/303
f 304/304/304 305/305/305 306/306/306
f 307/307/307 308/308/308 309/309/309
f 310/310/310 311/311/311 312/312/312
f 313/313/313 314/314/314 315/315/315
f 316/316/316 317/317/317 318/318/318
f 319/319/319 320/320/320 321/321/321
f 322/322/322 323/323/323 324/324/324
f 325/325/325 326/326/326 327/327/327
f 328/328/328 329/329/329 330/330/330
f 331/331/331 332/332/332 333/333/333
f 334/334/334 335/335/335 336/336/336
f 337/337/337 338/338/338 339/339/339
f 340/340/340 341/341/341 342/342/342
f 343/343/343 344/344/344 345/345/345
f 346/346/346 347/347/347 348/348/348
f 349/349/349 350/350/350 351/351/351
f 352/352/352 353/353/353 354/354/354
f 355/355/355 356/356/356 357/357/357
f 358/358/358 359/359/359 360/360/360
f 361/361/361 362/362/362 363/363/363
f 364/364/364 365/365/365 366/366/366
f 367/367/367 368/368/368 369/369/369
f 370/370/370 371/371/371 372/372/372
f 373/373/373 374/374/374 375/375/375
f 376/376/376 377/377/377 378/378/378
f 379/379/379 380/380/380 381/381/381
f 382/382/382 383/383/383 384/384/384
f 385/385/385 386/386/386 387/387/387
f 388/388/388 389/389/389 390/390/390
f 391/391/391 392/392/392 393/393/393
f 394/394/394 395/395/395 396/396/396
f 397/397/397 398/398/398 399/399/399
f 400/400/400 401/401/401 402/402/402
f 403/403/403 404/404/404 405/405/405
f 406/406/406 407/407/407 408/408/408
f 409/409/409 410/410/410 411/411/411
f 412/412/412 413/413/413 414/414/414
f 415/415/415 416/416/416 417/417/417
f 418/418/418 419/419/419 420/420/420
f 421/421/421 422/422/422 423/423/423
f 424/424/424 425/425/425 426/426/426
f 427/427/427 428/428/428 429/429/429
f 430/430/430 431/431/431 432/432/432
f 433/433/433 434/434/434 435/435/435
f 436/436/436 437/437/437 438/438/438
f 439/439/439 440/440/440 441/441/441
f 442/442/442 443/443/443 444/444/444
f 445/445/445 446/446/446 447/447/447
f 448/448/448 449/449/449 450/450/450
f 451/451/451 452/452/452 453/453/453
f 454/454/454 455/455/455 456/456/456
f 457/457/457 458/458/458 459/459/459
f 460/460/460 461/461/461 462/462/462
f 463/463/463 464/464/464 465/465/465
f 466/466/466 467/467/467 468/468/468
f 469/469/469 470/470/470 471/471/471
f 472/472/472 473/473/473 474/474/474
f 475/475/475 476/476/476 477/477/477
f 478/478/478 479/479/479 480/480/480
f 481/481/481 482/482/482 483/483/483
f 484/484/484 485/485/485 486/486/486
f 487/487/487 488/488/488 489/489/489
f 490/490/490 491/491/491 492/492/492
f 493/493/493 494/494/494 495/495/495
f 496/496/496 497/497/497 498/498/498
f 499/499/499 500/500/500 501/501/501
f 502/502/502 503/503/503 504/504/504
f 505/505/505 506/506/506 507/507/507
f 508/508/508 509/509/509 510/510/510
f 511/511/511 512/512/512 513/513/513
f 514/514/514 515/515/515 516/516/516
f 517/517/517 518/518/518 519/519/519
f 520/520/520 521/521/521 522/522/522
f 523/523/523 524/524/524 525/525/525
f 526/526/526 527/527/527 528/528/528
f 529/529/529 530/530/530 531/531/531
f 532/532/532 533/533/533 534/534/534
f 535/535/535 536/536/536 537/537/537
f 538/538/538 539/539/539 540/540/540
f 541/541/541 542/542/542 543/543/543
f 544/544/544 545/545/545 546/546/546
f 547/547/547 548/548/548 549/549/549
f 550/550/550 551/551/551 552/552/552
f 553/553/553 554/554/554 555/555/555
f 556/556/556 557/557/557 558/558/558
f 559/559/559 560/560/560 561/561/561
f 562/562/562 563/563/563 564/564/564
f 565/565/565 566/566/566 567/567/567
f 568/568/568 569/569/569 570/570/570
f 571/571/571 572/572/572 573/573/573
f 574/574/574 575/575/575 576/576/576
f 577/577/577 578/578/578 579/579/579
f 580/580/580 581/581/581 582/582/582
f 583/583/583 584/584/584 585/585/585
f 586/586/586 587/587/587 588/588/588
f 589/589/589 590/590/590 591/591/591
f 592/592/592 593/593/593 594/594/594
f 595/595/595 596/596/596 597/597/597
f 598/598/598 599/599/599 600/600/600
f 601/601/601 602/602/602 603/603/603
f 604/604/604 605/605/605 606/606/606
f 607/607/607 608/608/608 609/609/609
f 610/610/610 611/611/611 612/612/612
f 613/613/613 614/614/614 615/615/615
f 616/616/616 617/617/617 618/618/618
f 619/619/619 620/620/620 621/621/621
f 622/622/622 623/623/623 624/624/624
f 625/625/625 626/626/626 627/627/627
f 628/628/628 629/629/629 630/630/630
f 631/631/631 632/632/632 633/633/633
f 634/634/634 635/635/635 636/636/636
f 637/637/637 638/638/638 639/639/639
f 640/640/640 641/641/641 642/642/642
f 643/643/643 644/644/644 645/645/645
f 646/646/646 647/647/647 648/648/648
f 649/649/649 650/650/650 651/651/651
f 652/652/652 653/653/653 654/654/654
f 655/655/655 656/656/656 657/657/657
f 658/658/658 659/659/659 660/660/660
f 661/661/661 662/662/662 663/663/663
f 664/664/664 665/665/665 666/666/666
f 667/667/667 668/668/668 669/669/669
f 670/670/670 671/671/671 672/672/672
f 673/673/673 674/674/674 675/675/675
f 676/676/676 677/677/677 678/678/678
f 679/679/679 680/680/680 681/681/681
f 682/682/682 683/683/683 684/684/684
f 685/685/685 686/686/686 687/687/687
f 688/688/688 689/689/689 690/690/690
f 691/691/691 692/692/692 693/693/693
f 694/694/694 695/695/695 696/696/696
f 697/697/697 698/698/698 699/699/699
f 700/700/700 701/701/701 702/702/702
f 703/703/703 704/704/704 705/705/705
f 706/706/706 707/707/707 708/708/708
f 709/709/709 710/710/710 711/711/711
f 712/712/712 713/713/713 714/714/714
f 715/715/715 716/716/716 717/717/717
f 718/718/718 719/719/719 720/720/720
f 721/721/721 722/722/722 723/723/723
f 724/724/724 725/725/725 726/726/726
f 727/727/727 728/728/728 729/729/729
f 730/730/730 731/731/731 732/732/732
f 733/733/733 734/734/734 735/735/735
f 736/736/736 737/737/737 738/738/738
f 739/739/739 740/740/740 741/741/741
f 742/742/742 743/743/743 744/744/744
f 745/745/745 746/746/746 747/747/747
f 748/748/748 749/749/749 750/750/750
f 751/751/751 752/752/752 753/753/753
f 754/754/754 755/755/755 756/756/756
f 757/757/757 758/758/758 759/759/759
f 760/760/760 761/761/761 762/762/762
f 763/763/763 764/764/764 765/765/765
f 766/766/766 767/767/767 768/768/768
f 769/769/769 770/770/770 771/771/771
f 772/772/772 773/773/773 774/774/774
f 775/775/775 776/776/776 777/777/777
f 778/778/778 779/779/779 780/780/780
f 781/781/781 782/782/782 783/783/783
f 784/784/784 785/785/785 786/786/786
f 787/787/787 788/788/788 789/789/789
f 790/790/790 791/791/791 792/792/792
f 793/793/793 794/794/794 795/795/795
f 796/796/796 797/797/797 798/798/798
f 799/799/799 800/800/800 801/801/801
f 802/802/802 803/803/803 804/804/804
f 805/805/805 806/806/806 807/807/807
f 808/808/808 809/809/809 810/810/810
f 811/811/811 812/812/812 813/813/813
f 814/814/814 815/815/815 816/816/816
f 817/817/817 818/818/818 819/819/819
f 820/820/820 821/821/821 822/822/822
f 823/823/823 824/824/824 825/825/825
f 826/826/826 827/827/827 828/828/828
f 829/829/829 830/830/830 831/831/831
f 832/832/832 833/833/833 834/834/834
f 835/835/835 836/836/836 837/837/837
f 838/838/838 839/839/839 840/840/840
f 841/841/841 842/842/842 843/843/843
f 844/844/844 845/845/845 846/846/846
f 847/847/847 848/848/848 849/849/849
f 850/850/850 851/851/851 852/852/852
f 853/853/853 854/854/854 855/855/855
f 856/856/856 857/857/857 858/858/858
f 859/859/859 860/860/860 861/861/861
f 862/862/862 863/863/863 864/864/864
f 865/865/865 866/866/866 867/867/867
f 868/868/868 869/869/869 870/870/870
f 871/871/871 872/872/872 873/873/873
f 874/874/874 875/875/875 876/876/876
f 877/877/877 878/878/878 879/879/879
f 880/880/880 881/881/881 882/882/882
f 883/883/883 884/884/884 885/885/885
f 886/886/886 887/887/887 888/888/888
f 889/889/889 890/890/890 891/891/891
f 892/892/892 893/893/893 894/894/894
f 895/895/895 896/896/896 897/897/897
f 898/898/898 899/899/899 900/900/900
f 901/901/901 902/902/902 903/903/903
f 904/904/904 905/905/905 906/906/906
f 907/907/907 908/908/908 909/909/909
f 910/910/910 911/911/911 912/912/912
f 913/913/913 914/914/914 915/915/915
f 916/916/916 917/917/917 918/918/918
f 919/919/919 920/920/920 921/921/921
f 922/922/922 923/923/923 924/924/924
f 925/925/925 926/926/926 927/927/927
f 928/928/928 929/929/929 930/930/930
f 931/931/931 932/932/932 933/933/933
f 934/934/934 935/935/935 936/936/936
f 937/937/937 938/938/938 939/939/939
f 940/940/940 941/941/941 942/942/942
f 943/943/943 944/944/944 945/945/945
f 946/946/946 947/947/947 948/948/948
