# Obsidian West — joint-local part geometry, +Y up, +Z forward
mtllib materials.mtl
o R_Leg_Shin
v -0.299451 0.000000 -0.018149
v -0.201175 0.120328 -0.187216
v -0.239740 -0.480000 -0.318370
v -0.201175 0.120328 -0.187216
v -0.171137 -0.403257 -0.488673
v -0.239740 -0.480000 -0.318370
v -0.201175 0.120328 -0.187216
v 0.014946 0.170170 -0.246614
v -0.171137 -0.403257 -0.488673
v 0.014946 0.170170 -0.246614
v 0.009432 -0.371469 -0.566028
v -0.171137 -0.403257 -0.488673
v 0.014946 0.170170 -0.246614
v 0.222312 0.120328 -0.161550
v 0.009432 -0.371469 -0.566028
v 0.222312 0.120328 -0.161550
v 0.196191 -0.403257 -0.505121
v 0.009432 -0.371469 -0.566028
v 0.222312 0.120328 -0.161550
v 0.299450 0.000000 0.018149
v 0.196191 -0.403257 -0.505121
v 0.299450 0.000000 0.018149
v 0.279740 -0.480000 -0.341630
v 0.196191 -0.403257 -0.505121
v 0.299450 0.000000 0.018149
v 0.201175 -0.120329 0.187216
v 0.279740 -0.480000 -0.341630
v 0.201175 -0.120329 0.187216
v 0.211137 -0.556743 -0.171327
v 0.279740 -0.480000 -0.341630
v 0.201175 -0.120329 0.187216
v -0.014946 -0.170170 0.246614
v 0.211137 -0.556743 -0.171327
v -0.014946 -0.170170 0.246614
v 0.030568 -0.588531 -0.093972
v 0.211137 -0.556743 -0.171327
v -0.014946 -0.170170 0.246614
v -0.222312 -0.120329 0.161550
v 0.030568 -0.588531 -0.093972
v -0.222312 -0.120329 0.161550
v -0.156191 -0.556743 -0.154879
v 0.030568 -0.588531 -0.093972
v -0.222312 -0.120329 0.161550
v -0.299451 0.000000 -0.018149
v -0.156191 -0.556743 -0.154879
v -0.299451 0.000000 -0.018149
v -0.239740 -0.480000 -0.318370
v -0.156191 -0.556743 -0.154879
v -0.239740 -0.480000 -0.318370
v -0.171137 -0.403257 -0.488673
v -0.217978 -1.460000 -0.642356
v -0.171137 -0.403257 -0.488673
v -0.181367 -1.415542 -0.775885
v -0.217978 -1.460000 -0.642356
v -0.171137 -0.403257 -0.488673
v 0.009432 -0.371469 -0.566028
v -0.181367 -1.415542 -0.775885
v 0.009432 -0.371469 -0.566028
v -0.056086 -1.397126 -0.847388
v -0.181367 -1.415542 -0.775885
v 0.009432 -0.371469 -0.566028
v 0.196191 -0.403257 -0.505121
v -0.056086 -1.397126 -0.847388
v 0.196191 -0.403257 -0.505121
v 0.084475 -1.415542 -0.814979
v -0.056086 -1.397126 -0.847388
v 0.196191 -0.403257 -0.505121
v 0.279740 -0.480000 -0.341630
v 0.084475 -1.415542 -0.814979
v 0.279740 -0.480000 -0.341630
v 0.157978 -1.460000 -0.697644
v 0.084475 -1.415542 -0.814979
v 0.279740 -0.480000 -0.341630
v 0.211137 -0.556743 -0.171327
v 0.157978 -1.460000 -0.697644
v 0.211137 -0.556743 -0.171327
v 0.121367 -1.504458 -0.564115
v 0.157978 -1.460000 -0.697644
v 0.211137 -0.556743 -0.171327
v 0.030568 -0.588531 -0.093972
v 0.121367 -1.504458 -0.564115
v 0.030568 -0.588531 -0.093972
v -0.003914 -1.522874 -0.492612
v 0.121367 -1.504458 -0.564115
v 0.030568 -0.588531 -0.093972
v -0.156191 -0.556743 -0.154879
v -0.003914 -1.522874 -0.492612
v -0.156191 -0.556743 -0.154879
v -0.144475 -1.504458 -0.525021
v -0.003914 -1.522874 -0.492612
v -0.156191 -0.556743 -0.154879
v -0.239740 -0.480000 -0.318370
v -0.144475 -1.504458 -0.525021
v -0.239740 -0.480000 -0.318370
v -0.217978 -1.460000 -0.642356
v -0.144475 -1.504458 -0.525021
v -0.299451 0.000000 -0.018149
v 0.014946 0.170170 -0.246614
v -0.201175 0.120328 -0.187216
v -0.217978 -1.460000 -0.642356
v -0.181367 -1.415542 -0.775885
v -0.056086 -1.397126 -0.847388
v -0.299451 0.000000 -0.018149
v 0.222312 0.120328 -0.161550
v 0.014946 0.170170 -0.246614
v -0.217978 -1.460000 -0.642356
v -0.056086 -1.397126 -0.847388
v 0.084475 -1.415542 -0.814979
v -0.299451 0.000000 -0.018149
v 0.299450 0.000000 0.018149
v 0.222312 0.120328 -0.161550
v -0.217978 -1.460000 -0.642356
v 0.084475 -1.415542 -0.814979
v 0.157978 -1.460000 -0.697644
v -0.299451 0.000000 -0.018149
v 0.201175 -0.120329 0.187216
v 0.299450 0.000000 0.018149
v -0.217978 -1.460000 -0.642356
v 0.157978 -1.460000 -0.697644
v 0.121367 -1.504458 -0.564115
v -0.299451 0.000000 -0.018149
v -0.014946 -0.170170 0.246614
v 0.201175 -0.120329 0.187216
v -0.217978 -1.460000 -0.642356
v 0.121367 -1.504458 -0.564115
v -0.003914 -1.522874 -0.492612
v -0.299451 0.000000 -0.018149
v -0.222312 -0.120329 0.161550
v -0.014946 -0.170170 0.246614
v -0.217978 -1.460000 -0.642356
v -0.003914 -1.522874 -0.492612
v -0.144475 -1.504458 -0.525021
v 0.010000 0.010000 -0.130000
v -0.115826 -0.028622 -0.130000
v -0.078973 -0.028622 -0.059436
v 0.010000 0.010000 -0.130000
v -0.078973 -0.028622 -0.059436
v 0.010000 -0.028622 -0.030207
v 0.010000 0.010000 -0.130000
v 0.010000 -0.028622 -0.030207
v 0.098973 -0.028622 -0.059436
v 0.010000 0.010000 -0.130000
v 0.098973 -0.028622 -0.059436
v 0.135826 -0.028622 -0.130000
v 0.010000 0.010000 -0.130000
v 0.135826 -0.028622 -0.130000
v 0.098973 -0.028622 -0.200565
v 0.010000 0.010000 -0.130000
v 0.098973 -0.028622 -0.200565
v 0.010000 -0.028622 -0.229793
v 0.010000 0.010000 -0.130000
v 0.010000 -0.028622 -0.229793
v -0.078973 -0.028622 -0.200565
v 0.010000 0.010000 -0.130000
v -0.078973 -0.028622 -0.200565
v -0.115826 -0.028622 -0.130000
v -0.078973 -0.028622 -0.059436
v -0.115826 -0.028622 -0.130000
v -0.150323 -0.136839 -0.002847
v -0.115826 -0.028622 -0.130000
v -0.216731 -0.136839 -0.130000
v -0.150323 -0.136839 -0.002847
v 0.010000 -0.028622 -0.030207
v -0.078973 -0.028622 -0.059436
v 0.010000 -0.136839 0.049821
v -0.078973 -0.028622 -0.059436
v -0.150323 -0.136839 -0.002847
v 0.010000 -0.136839 0.049821
v 0.098973 -0.028622 -0.059436
v 0.010000 -0.028622 -0.030207
v 0.170323 -0.136839 -0.002847
v 0.010000 -0.028622 -0.030207
v 0.010000 -0.136839 0.049821
v 0.170323 -0.136839 -0.002847
v 0.135826 -0.028622 -0.130000
v 0.098973 -0.028622 -0.059436
v 0.236731 -0.136839 -0.130000
v 0.098973 -0.028622 -0.059436
v 0.170323 -0.136839 -0.002847
v 0.236731 -0.136839 -0.130000
v 0.098973 -0.028622 -0.200565
v 0.135826 -0.028622 -0.130000
v 0.170323 -0.136839 -0.257153
v 0.135826 -0.028622 -0.130000
v 0.236731 -0.136839 -0.130000
v 0.170323 -0.136839 -0.257153
v 0.010000 -0.028622 -0.229793
v 0.098973 -0.028622 -0.200565
v 0.010000 -0.136839 -0.309821
v 0.098973 -0.028622 -0.200565
v 0.170323 -0.136839 -0.257153
v 0.010000 -0.136839 -0.309821
v -0.078973 -0.028622 -0.200565
v 0.010000 -0.028622 -0.229793
v -0.150323 -0.136839 -0.257153
v 0.010000 -0.028622 -0.229793
v 0.010000 -0.136839 -0.309821
v -0.150323 -0.136839 -0.257153
v -0.115826 -0.028622 -0.130000
v -0.078973 -0.028622 -0.200565
v -0.216731 -0.136839 -0.130000
v -0.078973 -0.028622 -0.200565
v -0.150323 -0.136839 -0.257153
v -0.216731 -0.136839 -0.130000
v -0.150323 -0.136839 -0.002847
v -0.216731 -0.136839 -0.130000
v -0.189920 -0.293217 0.028557
v -0.216731 -0.136839 -0.130000
v -0.272729 -0.293217 -0.130000
v -0.189920 -0.293217 0.028557
v 0.010000 -0.136839 0.049821
v -0.150323 -0.136839 -0.002847
v 0.010000 -0.293217 0.094233
v -0.150323 -0.136839 -0.002847
v -0.189920 -0.293217 0.028557
v 0.010000 -0.293217 0.094233
v 0.170323 -0.136839 -0.002847
v 0.010000 -0.136839 0.049821
v 0.209920 -0.293217 0.028557
v 0.010000 -0.136839 0.049821
v 0.010000 -0.293217 0.094233
v 0.209920 -0.293217 0.028557
v 0.236731 -0.136839 -0.130000
v 0.170323 -0.136839 -0.002847
v 0.292729 -0.293217 -0.130000
v 0.170323 -0.136839 -0.002847
v 0.209920 -0.293217 0.028557
v 0.292729 -0.293217 -0.130000
v 0.170323 -0.136839 -0.257153
v 0.236731 -0.136839 -0.130000
v 0.209920 -0.293217 -0.288557
v 0.236731 -0.136839 -0.130000
v 0.292729 -0.293217 -0.130000
v 0.209920 -0.293217 -0.288557
v 0.010000 -0.136839 -0.309821
v 0.170323 -0.136839 -0.257153
v 0.010000 -0.293217 -0.354233
v 0.170323 -0.136839 -0.257153
v 0.209920 -0.293217 -0.288557
v 0.010000 -0.293217 -0.354233
v -0.150323 -0.136839 -0.257153
v 0.010000 -0.136839 -0.309821
v -0.189920 -0.293217 -0.288557
v 0.010000 -0.136839 -0.309821
v 0.010000 -0.293217 -0.354233
v -0.189920 -0.293217 -0.288557
v -0.216731 -0.136839 -0.130000
v -0.150323 -0.136839 -0.257153
v -0.272729 -0.293217 -0.130000
v -0.150323 -0.136839 -0.257153
v -0.189920 -0.293217 -0.288557
v -0.272729 -0.293217 -0.130000
v -0.189920 -0.293217 0.028557
v -0.272729 -0.293217 -0.130000
v -0.189920 -0.466783 0.028557
v -0.272729 -0.293217 -0.130000
v -0.272729 -0.466783 -0.130000
v -0.189920 -0.466783 0.028557
v 0.010000 -0.293217 0.094233
v -0.189920 -0.293217 0.028557
v 0.010000 -0.466783 0.094233
v -0.189920 -0.293217 0.028557
v -0.189920 -0.466783 0.028557
v 0.010000 -0.466783 0.094233
v 0.209920 -0.293217 0.028557
v 0.010000 -0.293217 0.094233
v 0.209920 -0.466783 0.028557
v 0.010000 -0.293217 0.094233
v 0.010000 -0.466783 0.094233
v 0.209920 -0.466783 0.028557
v 0.292729 -0.293217 -0.130000
v 0.209920 -0.293217 0.028557
v 0.292729 -0.466783 -0.130000
v 0.209920 -0.293217 0.028557
v 0.209920 -0.466783 0.028557
v 0.292729 -0.466783 -0.130000
v 0.209920 -0.293217 -0.288557
v 0.292729 -0.293217 -0.130000
v 0.209920 -0.466783 -0.288557
v 0.292729 -0.293217 -0.130000
v 0.292729 -0.466783 -0.130000
v 0.209920 -0.466783 -0.288557
v 0.010000 -0.293217 -0.354233
v 0.209920 -0.293217 -0.288557
v 0.010000 -0.466783 -0.354233
v 0.209920 -0.293217 -0.288557
v 0.209920 -0.466783 -0.288557
v 0.010000 -0.466783 -0.354233
v -0.189920 -0.293217 -0.288557
v 0.010000 -0.293217 -0.354233
v -0.189920 -0.466783 -0.288557
v 0.010000 -0.293217 -0.354233
v 0.010000 -0.466783 -0.354233
v -0.189920 -0.466783 -0.288557
v -0.272729 -0.293217 -0.130000
v -0.189920 -0.293217 -0.288557
v -0.272729 -0.466783 -0.130000
v -0.189920 -0.293217 -0.288557
v -0.189920 -0.466783 -0.288557
v -0.272729 -0.466783 -0.130000
v -0.189920 -0.466783 0.028557
v -0.272729 -0.466783 -0.130000
v -0.150323 -0.623161 -0.002847
v -0.272729 -0.466783 -0.130000
v -0.216731 -0.623161 -0.130000
v -0.150323 -0.623161 -0.002847
v 0.010000 -0.466783 0.094233
v -0.189920 -0.466783 0.028557
v 0.010000 -0.623161 0.049821
v -0.189920 -0.466783 0.028557
v -0.150323 -0.623161 -0.002847
v 0.010000 -0.623161 0.049821
v 0.209920 -0.466783 0.028557
v 0.010000 -0.466783 0.094233
v 0.170323 -0.623161 -0.002847
v 0.010000 -0.466783 0.094233
v 0.010000 -0.623161 0.049821
v 0.170323 -0.623161 -0.002847
v 0.292729 -0.466783 -0.130000
v 0.209920 -0.466783 0.028557
v 0.236731 -0.623161 -0.130000
v 0.209920 -0.466783 0.028557
v 0.170323 -0.623161 -0.002847
v 0.236731 -0.623161 -0.130000
v 0.209920 -0.466783 -0.288557
v 0.292729 -0.466783 -0.130000
v 0.170323 -0.623161 -0.257153
v 0.292729 -0.466783 -0.130000
v 0.236731 -0.623161 -0.130000
v 0.170323 -0.623161 -0.257153
v 0.010000 -0.466783 -0.354233
v 0.209920 -0.466783 -0.288557
v 0.010000 -0.623161 -0.309821
v 0.209920 -0.466783 -0.288557
v 0.170323 -0.623161 -0.257153
v 0.010000 -0.623161 -0.309821
v -0.189920 -0.466783 -0.288557
v 0.010000 -0.466783 -0.354233
v -0.150323 -0.623161 -0.257153
v 0.010000 -0.466783 -0.354233
v 0.010000 -0.623161 -0.309821
v -0.150323 -0.623161 -0.257153
v -0.272729 -0.466783 -0.130000
v -0.189920 -0.466783 -0.288557
v -0.216731 -0.623161 -0.130000
v -0.189920 -0.466783 -0.288557
v -0.150323 -0.623161 -0.257153
v -0.216731 -0.623161 -0.130000
v -0.150323 -0.623161 -0.002847
v -0.216731 -0.623161 -0.130000
v -0.078973 -0.731378 -0.059436
v -0.216731 -0.623161 -0.130000
v -0.115826 -0.731378 -0.130000
v -0.078973 -0.731378 -0.059436
v 0.010000 -0.623161 0.049821
v -0.150323 -0.623161 -0.002847
v 0.010000 -0.731378 -0.030207
v -0.150323 -0.623161 -0.002847
v -0.078973 -0.731378 -0.059436
v 0.010000 -0.731378 -0.030207
v 0.170323 -0.623161 -0.002847
v 0.010000 -0.623161 0.049821
v 0.098973 -0.731378 -0.059436
v 0.010000 -0.623161 0.049821
v 0.010000 -0.731378 -0.030207
v 0.098973 -0.731378 -0.059436
v 0.236731 -0.623161 -0.130000
v 0.170323 -0.623161 -0.002847
v 0.135826 -0.731378 -0.130000
v 0.170323 -0.623161 -0.002847
v 0.098973 -0.731378 -0.059436
v 0.135826 -0.731378 -0.130000
v 0.170323 -0.623161 -0.257153
v 0.236731 -0.623161 -0.130000
v 0.098973 -0.731378 -0.200565
v 0.236731 -0.623161 -0.130000
v 0.135826 -0.731378 -0.130000
v 0.098973 -0.731378 -0.200565
v 0.010000 -0.623161 -0.309821
v 0.170323 -0.623161 -0.257153
v 0.010000 -0.731378 -0.229793
v 0.170323 -0.623161 -0.257153
v 0.098973 -0.731378 -0.200565
v 0.010000 -0.731378 -0.229793
v -0.150323 -0.623161 -0.257153
v 0.010000 -0.623161 -0.309821
v -0.078973 -0.731378 -0.200565
v 0.010000 -0.623161 -0.309821
v 0.010000 -0.731378 -0.229793
v -0.078973 -0.731378 -0.200565
v -0.216731 -0.623161 -0.130000
v -0.150323 -0.623161 -0.257153
v -0.115826 -0.731378 -0.130000
v -0.150323 -0.623161 -0.257153
v -0.078973 -0.731378 -0.200565
v -0.115826 -0.731378 -0.130000
v -0.078973 -0.731378 -0.059436
v -0.115826 -0.731378 -0.130000
v 0.010000 -0.770000 -0.130000
v 0.010000 -0.731378 -0.030207
v -0.078973 -0.731378 -0.059436
v 0.010000 -0.770000 -0.130000
v 0.098973 -0.731378 -0.059436
v 0.010000 -0.731378 -0.030207
v 0.010000 -0.770000 -0.130000
v 0.135826 -0.731378 -0.130000
v 0.098973 -0.731378 -0.059436
v 0.010000 -0.770000 -0.130000
v 0.098973 -0.731378 -0.200565
v 0.135826 -0.731378 -0.130000
v 0.010000 -0.770000 -0.130000
v 0.010000 -0.731378 -0.229793
v 0.098973 -0.731378 -0.200565
v 0.010000 -0.770000 -0.130000
v -0.078973 -0.731378 -0.200565
v 0.010000 -0.731378 -0.229793
v 0.010000 -0.770000 -0.130000
v -0.115826 -0.731378 -0.130000
v -0.078973 -0.731378 -0.200565
v 0.010000 -0.770000 -0.130000
v -0.109699 -0.700000 -0.588843
v -0.023553 -0.587400 -0.531788
v -0.026355 -0.594000 -0.817445
v -0.023553 -0.587400 -0.531788
v 0.014995 -0.539952 -0.790058
v -0.026355 -0.594000 -0.817445
v -0.023553 -0.587400 -0.531788
v 0.122782 -0.630409 -0.541360
v 0.014995 -0.539952 -0.790058
v 0.122782 -0.630409 -0.541360
v 0.085235 -0.560597 -0.794653
v 0.014995 -0.539952 -0.790058
v 0.122782 -0.630409 -0.541360
v 0.127075 -0.769591 -0.604331
v 0.085235 -0.560597 -0.794653
v 0.127075 -0.769591 -0.604331
v 0.087296 -0.627403 -0.824879
v 0.085235 -0.560597 -0.794653
v 0.127075 -0.769591 -0.604331
v -0.016606 -0.812600 -0.633678
v 0.087296 -0.627403 -0.824879
v -0.016606 -0.812600 -0.633678
v 0.018329 -0.648048 -0.838965
v 0.087296 -0.627403 -0.824879
v -0.016606 -0.812600 -0.633678
v -0.109699 -0.700000 -0.588843
v 0.018329 -0.648048 -0.838965
v -0.109699 -0.700000 -0.588843
v -0.026355 -0.594000 -0.817445
v 0.018329 -0.648048 -0.838965
v -0.026355 -0.594000 -0.817445
v 0.014995 -0.539952 -0.790058
v 0.041021 -0.500000 -1.020612
v 0.014995 -0.539952 -0.790058
v 0.046985 -0.492205 -1.016662
v 0.041021 -0.500000 -1.020612
v 0.014995 -0.539952 -0.790058
v 0.085235 -0.560597 -0.794653
v 0.046985 -0.492205 -1.016662
v 0.085235 -0.560597 -0.794653
v 0.057116 -0.495182 -1.017325
v 0.046985 -0.492205 -1.016662
v 0.085235 -0.560597 -0.794653
v 0.087296 -0.627403 -0.824879
v 0.057116 -0.495182 -1.017325
v 0.087296 -0.627403 -0.824879
v 0.057413 -0.504818 -1.021684
v 0.057116 -0.495182 -1.017325
v 0.087296 -0.627403 -0.824879
v 0.018329 -0.648048 -0.838965
v 0.057413 -0.504818 -1.021684
v 0.018329 -0.648048 -0.838965
v 0.047466 -0.507795 -1.023716
v 0.057413 -0.504818 -1.021684
v 0.018329 -0.648048 -0.838965
v -0.026355 -0.594000 -0.817445
v 0.047466 -0.507795 -1.023716
v -0.026355 -0.594000 -0.817445
v 0.041021 -0.500000 -1.020612
v 0.047466 -0.507795 -1.023716
v -0.109699 -0.700000 -0.588843
v 0.122782 -0.630409 -0.541360
v -0.023553 -0.587400 -0.531788
v 0.041021 -0.500000 -1.020612
v 0.046985 -0.492205 -1.016662
v 0.057116 -0.495182 -1.017325
v -0.109699 -0.700000 -0.588843
v 0.127075 -0.769591 -0.604331
v 0.122782 -0.630409 -0.541360
v 0.041021 -0.500000 -1.020612
v 0.057116 -0.495182 -1.017325
v 0.057413 -0.504818 -1.021684
v -0.109699 -0.700000 -0.588843
v -0.016606 -0.812600 -0.633678
v 0.127075 -0.769591 -0.604331
v 0.041021 -0.500000 -1.020612
v 0.057413 -0.504818 -1.021684
v 0.047466 -0.507795 -1.023716
vt 0.120000 0.880000
vt 0.213333 0.880000
vt 0.166667 0.786667
vt 0.120000 0.880000
vt 0.213333 0.880000
vt 0.166667 0.786667
vt 0.120000 0.880000
vt 0.213333 0.880000
vt 0.166667 0.786667
vt 0.120000 0.880000
vt 0.213333 0.880000
vt 0.166667 0.786667
vt 0.120000 0.880000
vt 0.213333 0.880000
vt 0.166667 0.786667
vt 0.120000 0.880000
vt 0.213333 0.880000
vt 0.166667 0.786667
vt 0.120000 0.880000
vt 0.213333 0.880000
vt 0.166667 0.786667
vt 0.120000 0.880000
vt 0.213333 0.880000
vt 0.166667 0.786667
vt 0.120000 0.880000
vt 0.213333 0.880000
vt 0.166667 0.786667
vt 0.120000 0.880000
vt 0.213333 0.880000
vt 0.166667 0.786667
vt 0.120000 0.880000
vt 0.213333 0.880000
vt 0.166667 0.786667
vt 0.120000 0.880000
vt 0.213333 0.880000
vt 0.166667 0.786667
vt 0.120000 0.880000
vt 0.213333 0.880000
vt 0.166667 0.786667
vt 0.120000 0.880000
vt 0.213333 0.880000
vt 0.166667 0.786667
vt 0.120000 0.880000
vt 0.213333 0.880000
vt 0.166667 0.786667
vt 0.120000 0.880000
vt 0.213333 0.880000
vt 0.166667 0.786667
vt 0.120000 0.880000
vt 0.213333 0.880000
vt 0.166667 0.786667
vt 0.120000 0.880000
vt 0.213333 0.880000
vt 0.166667 0.786667
vt 0.120000 0.880000
vt 0.213333 0.880000
vt 0.166667 0.786667
vt 0.120000 0.880000
vt 0.213333 0.880000
vt 0.166667 0.786667
vt 0.120000 0.880000
vt 0.213333 0.880000
vt 0.166667 0.786667
vt 0.120000 0.880000
vt 0.213333 0.880000
vt 0.166667 0.786667
vt 0.120000 0.880000
vt 0.213333 0.880000
vt 0.166667 0.786667
vt 0.120000 0.880000
vt 0.213333 0.880000
vt 0.166667 0.786667
vt 0.120000 0.880000
vt 0.213333 0.880000
vt 0.166667 0.786667
vt 0.120000 0.880000
vt 0.213333 0.880000
vt 0.166667 0.786667
vt 0.120000 0.880000
vt 0.213333 0.880000
vt 0.166667 0.786667
vt 0.120000 0.880000
vt 0.213333 0.880000
vt 0.166667 0.786667
vt 0.120000 0.880000
vt 0.213333 0.880000
vt 0.166667 0.786667
vt 0.120000 0.880000
vt 0.213333 0.880000
vt 0.166667 0.786667
vt 0.120000 0.880000
vt 0.213333 0.880000
vt 0.166667 0.786667
vt 0.120000 0.880000
vt 0.213333 0.880000
vt 0.166667 0.786667
vt 0.120000 0.880000
vt 0.213333 0.880000
vt 0.166667 0.786667
vt 0.120000 0.880000
vt 0.213333 0.880000
vt 0.166667 0.786667
vt 0.120000 0.880000
vt 0.213333 0.880000
vt 0.166667 0.786667
vt 0.120000 0.880000
vt 0.213333 0.880000
vt 0.166667 0.786667
vt 0.120000 0.880000
vt 0.213333 0.880000
vt 0.166667 0.786667
vt 0.120000 0.880000
vt 0.213333 0.880000
vt 0.166667 0.786667
vt 0.120000 0.880000
vt 0.213333 0.880000
vt 0.166667 0.786667
vt 0.120000 0.880000
vt 0.213333 0.880000
vt 0.166667 0.786667
vt 0.120000 0.880000
vt 0.213333 0.880000
vt 0.166667 0.786667
vt 0.120000 0.880000
vt 0.213333 0.880000
vt 0.166667 0.786667
vt 0.120000 0.880000
vt 0.213333 0.880000
vt 0.166667 0.786667
vt 0.120000 0.880000
vt 0.213333 0.880000
vt 0.166667 0.786667
vt 0.453333 0.880000
vt 0.546667 0.880000
vt 0.500000 0.786667
vt 0.453333 0.880000
vt 0.546667 0.880000
vt 0.500000 0.786667
vt 0.453333 0.880000
vt 0.546667 0.880000
vt 0.500000 0.786667
vt 0.453333 0.880000
vt 0.546667 0.880000
vt 0.500000 0.786667
vt 0.453333 0.880000
vt 0.546667 0.880000
vt 0.500000 0.786667
vt 0.453333 0.880000
vt 0.546667 0.880000
vt 0.500000 0.786667
vt 0.453333 0.880000
vt 0.546667 0.880000
vt 0.500000 0.786667
vt 0.453333 0.880000
vt 0.546667 0.880000
vt 0.500000 0.786667
vt 0.453333 0.880000
vt 0.546667 0.880000
vt 0.500000 0.786667
vt 0.453333 0.880000
vt 0.546667 0.880000
vt 0.500000 0.786667
vt 0.453333 0.880000
vt 0.546667 0.880000
vt 0.500000 0.786667
vt 0.453333 0.880000
vt 0.546667 0.880000
vt 0.500000 0.786667
vt 0.453333 0.880000
vt 0.546667 0.880000
vt 0.500000 0.786667
vt 0.453333 0.880000
vt 0.546667 0.880000
vt 0.500000 0.786667
vt 0.453333 0.880000
vt 0.546667 0.880000
vt 0.500000 0.786667
vt 0.453333 0.880000
vt 0.546667 0.880000
vt 0.500000 0.786667
vt 0.453333 0.880000
vt 0.546667 0.880000
vt 0.500000 0.786667
vt 0.453333 0.880000
vt 0.546667 0.880000
vt 0.500000 0.786667
vt 0.453333 0.880000
vt 0.546667 0.880000
vt 0.500000 0.786667
vt 0.453333 0.880000
vt 0.546667 0.880000
vt 0.500000 0.786667
vt 0.453333 0.880000
vt 0.546667 0.880000
vt 0.500000 0.786667
vt 0.453333 0.880000
vt 0.546667 0.880000
vt 0.500000 0.786667
vt 0.453333 0.880000
vt 0.546667 0.880000
vt 0.500000 0.786667
vt 0.453333 0.880000
vt 0.546667 0.880000
vt 0.500000 0.786667
vt 0.453333 0.880000
vt 0.546667 0.880000
vt 0.500000 0.786667
vt 0.453333 0.880000
vt 0.546667 0.880000
vt 0.500000 0.786667
vt 0.453333 0.880000
vt 0.546667 0.880000
vt 0.500000 0.786667
vt 0.453333 0.880000
vt 0.546667 0.880000
vt 0.500000 0.786667
vt 0.453333 0.880000
vt 0.546667 0.880000
vt 0.500000 0.786667
vt 0.453333 0.880000
vt 0.546667 0.880000
vt 0.500000 0.786667
vt 0.453333 0.880000
vt 0.546667 0.880000
vt 0.500000 0.786667
vt 0.453333 0.880000
vt 0.546667 0.880000
vt 0.500000 0.786667
vt 0.453333 0.880000
vt 0.546667 0.880000
vt 0.500000 0.786667
vt 0.453333 0.880000
vt 0.546667 0.880000
vt 0.500000 0.786667
vt 0.453333 0.880000
vt 0.546667 0.880000
vt 0.500000 0.786667
vt 0.453333 0.880000
vt 0.546667 0.880000
vt 0.500000 0.786667
vt 0.453333 0.880000
vt 0.546667 0.880000
vt 0.500000 0.786667
vt 0.453333 0.880000
vt 0.546667 0.880000
vt 0.500000 0.786667
vt 0.453333 0.880000
vt 0.546667 0.880000
vt 0.500000 0.786667
vt 0.453333 0.880000
vt 0.546667 0.880000
vt 0.500000 0.786667
vt 0.453333 0.880000
vt 0.546667 0.880000
vt 0.500000 0.786667
vt 0.453333 0.880000
vt 0.546667 0.880000
vt 0.500000 0.786667
vt 0.453333 0.880000
vt 0.546667 0.880000
vt 0.500000 0.786667
vt 0.453333 0.880000
vt 0.546667 0.880000
vt 0.500000 0.786667
vt 0.453333 0.880000
vt 0.546667 0.880000
vt 0.500000 0.786667
vt 0.453333 0.880000
vt 0.546667 0.880000
vt 0.500000 0.786667
vt 0.453333 0.880000
vt 0.546667 0.880000
vt 0.500000 0.786667
vt 0.453333 0.880000
vt 0.546667 0.880000
vt 0.500000 0.786667
vt 0.453333 0.880000
vt 0.546667 0.880000
vt 0.500000 0.786667
vt 0.453333 0.880000
vt 0.546667 0.880000
vt 0.500000 0.786667
vt 0.453333 0.880000
vt 0.546667 0.880000
vt 0.500000 0.786667
vt 0.453333 0.880000
vt 0.546667 0.880000
vt 0.500000 0.786667
vt 0.453333 0.880000
vt 0.546667 0.880000
vt 0.500000 0.786667
vt 0.453333 0.880000
vt 0.546667 0.880000
vt 0.500000 0.786667
vt 0.453333 0.880000
vt 0.546667 0.880000
vt 0.500000 0.786667
vt 0.453333 0.880000
vt 0.546667 0.880000
vt 0.500000 0.786667
vt 0.453333 0.880000
vt 0.546667 0.880000
vt 0.500000 0.786667
vt 0.453333 0.880000
vt 0.546667 0.880000
vt 0.500000 0.786667
vt 0.453333 0.880000
vt 0.546667 0.880000
vt 0.500000 0.786667
vt 0.453333 0.880000
vt 0.546667 0.880000
vt 0.500000 0.786667
vt 0.453333 0.880000
vt 0.546667 0.880000
vt 0.500000 0.786667
vt 0.453333 0.880000
vt 0.546667 0.880000
vt 0.500000 0.786667
vt 0.453333 0.880000
vt 0.546667 0.880000
vt 0.500000 0.786667
vt 0.453333 0.880000
vt 0.546667 0.880000
vt 0.500000 0.786667
vt 0.453333 0.880000
vt 0.546667 0.880000
vt 0.500000 0.786667
vt 0.453333 0.880000
vt 0.546667 0.880000
vt 0.500000 0.786667
vt 0.453333 0.880000
vt 0.546667 0.880000
vt 0.500000 0.786667
vt 0.453333 0.880000
vt 0.546667 0.880000
vt 0.500000 0.786667
vt 0.453333 0.880000
vt 0.546667 0.880000
vt 0.500000 0.786667
vt 0.453333 0.880000
vt 0.546667 0.880000
vt 0.500000 0.786667
vt 0.453333 0.880000
vt 0.546667 0.880000
vt 0.500000 0.786667
vt 0.453333 0.880000
vt 0.546667 0.880000
vt 0.500000 0.786667
vt 0.453333 0.880000
vt 0.546667 0.880000
vt 0.500000 0.786667
vt 0.453333 0.880000
vt 0.546667 0.880000
vt 0.500000 0.786667
vt 0.453333 0.880000
vt 0.546667 0.880000
vt 0.500000 0.786667
vt 0.453333 0.880000
vt 0.546667 0.880000
vt 0.500000 0.786667
vt 0.453333 0.880000
vt 0.546667 0.880000
vt 0.500000 0.786667
vt 0.453333 0.880000
vt 0.546667 0.880000
vt 0.500000 0.786667
vt 0.453333 0.880000
vt 0.546667 0.880000
vt 0.500000 0.786667
vt 0.453333 0.880000
vt 0.546667 0.880000
vt 0.500000 0.786667
vt 0.453333 0.880000
vt 0.546667 0.880000
vt 0.500000 0.786667
vt 0.453333 0.880000
vt 0.546667 0.880000
vt 0.500000 0.786667
vt 0.453333 0.880000
vt 0.546667 0.880000
vt 0.500000 0.786667
vt 0.453333 0.880000
vt 0.546667 0.880000
vt 0.500000 0.786667
vt 0.453333 0.880000
vt 0.546667 0.880000
vt 0.500000 0.786667
vt 0.453333 0.880000
vt 0.546667 0.880000
vt 0.500000 0.786667
vt 0.453333 0.880000
vt 0.546667 0.880000
vt 0.500000 0.786667
vt 0.453333 0.880000
vt 0.546667 0.880000
vt 0.500000 0.786667
vt 0.453333 0.880000
vt 0.546667 0.880000
vt 0.500000 0.786667
vt 0.453333 0.880000
vt 0.546667 0.880000
vt 0.500000 0.786667
vt 0.453333 0.880000
vt 0.546667 0.880000
vt 0.500000 0.786667
vt 0.453333 0.880000
vt 0.546667 0.880000
vt 0.500000 0.786667
vt 0.453333 0.880000
vt 0.546667 0.880000
vt 0.500000 0.786667
vt 0.453333 0.880000
vt 0.546667 0.880000
vt 0.500000 0.786667
vt 0.453333 0.880000
vt 0.546667 0.880000
vt 0.500000 0.786667
vt 0.453333 0.880000
vt 0.546667 0.880000
vt 0.500000 0.786667
vt 0.786667 0.880000
vt 0.880000 0.880000
vt 0.833333 0.786667
vt 0.786667 0.880000
vt 0.880000 0.880000
vt 0.833333 0.786667
vt 0.786667 0.880000
vt 0.880000 0.880000
vt 0.833333 0.786667
vt 0.786667 0.880000
vt 0.880000 0.880000
vt 0.833333 0.786667
vt 0.786667 0.880000
vt 0.880000 0.880000
vt 0.833333 0.786667
vt 0.786667 0.880000
vt 0.880000 0.880000
vt 0.833333 0.786667
vt 0.786667 0.880000
vt 0.880000 0.880000
vt 0.833333 0.786667
vt 0.786667 0.880000
vt 0.880000 0.880000
vt 0.833333 0.786667
vt 0.786667 0.880000
vt 0.880000 0.880000
vt 0.833333 0.786667
vt 0.786667 0.880000
vt 0.880000 0.880000
vt 0.833333 0.786667
vt 0.786667 0.880000
vt 0.880000 0.880000
vt 0.833333 0.786667
vt 0.786667 0.880000
vt 0.880000 0.880000
vt 0.833333 0.786667
vt 0.786667 0.880000
vt 0.880000 0.880000
vt 0.833333 0.786667
vt 0.786667 0.880000
vt 0.880000 0.880000
vt 0.833333 0.786667
vt 0.786667 0.880000
vt 0.880000 0.880000
vt 0.833333 0.786667
vt 0.786667 0.880000
vt 0.880000 0.880000
vt 0.833333 0.786667
vt 0.786667 0.880000
vt 0.880000 0.880000
vt 0.833333 0.786667
vt 0.786667 0.880000
vt 0.880000 0.880000
vt 0.833333 0.786667
vt 0.786667 0.880000
vt 0.880000 0.880000
vt 0.833333 0.786667
vt 0.786667 0.880000
vt 0.880000 0.880000
vt 0.833333 0.786667
vt 0.786667 0.880000
vt 0.880000 0.880000
vt 0.833333 0.786667
vt 0.786667 0.880000
vt 0.880000 0.880000
vt 0.833333 0.786667
vt 0.786667 0.880000
vt 0.880000 0.880000
vt 0.833333 0.786667
vt 0.786667 0.880000
vt 0.880000 0.880000
vt 0.833333 0.786667
vt 0.786667 0.880000
vt 0.880000 0.880000
vt 0.833333 0.786667
vt 0.786667 0.880000
vt 0.880000 0.880000
vt 0.833333 0.786667
vn -0.599156 0.624290 0.501272
vn -0.774145 0.360663 -0.520213
vn -0.998434 -0.048462 0.027943
vn -0.774145 0.360663 -0.520213
vn -0.738746 0.254997 -0.623883
vn -0.998434 -0.048462 0.027943
vn -0.774145 0.360663 -0.520213
vn -0.104404 0.751950 -0.650900
vn -0.738746 0.254997 -0.623883
vn -0.104404 0.751950 -0.650900
vn -0.047658 0.373620 -0.926357
vn -0.738746 0.254997 -0.623883
vn -0.104404 0.751950 -0.650900
vn 0.548915 0.776028 -0.310600
vn -0.047658 0.373620 -0.926357
vn 0.548915 0.776028 -0.310600
vn 0.668659 0.237579 -0.704593
vn -0.047658 0.373620 -0.926357
vn 0.548915 0.776028 -0.310600
vn 0.826953 0.508358 0.240251
vn 0.668659 0.237579 -0.704593
vn 0.826953 0.508358 0.240251
vn 0.993192 -0.070862 -0.092460
vn 0.668659 0.237579 -0.704593
vn 0.826953 0.508358 0.240251
vn 0.663521 0.102210 0.741143
vn 0.993192 -0.070862 -0.092460
vn 0.663521 0.102210 0.741143
vn 0.742660 -0.372239 0.556681
vn 0.993192 -0.070862 -0.092460
vn 0.663521 0.102210 0.741143
vn 0.086876 -0.302254 0.949260
vn 0.742660 -0.372239 0.556681
vn 0.086876 -0.302254 0.949260
vn 0.054919 -0.493111 0.868231
vn 0.742660 -0.372239 0.556681
vn 0.086876 -0.302254 0.949260
vn -0.630564 -0.436288 0.641905
vn 0.054919 -0.493111 0.868231
vn -0.630564 -0.436288 0.641905
vn -0.670689 -0.359091 0.649022
vn 0.054919 -0.493111 0.868231
vn -0.630564 -0.436288 0.641905
vn -0.599156 0.624290 0.501272
vn -0.670689 -0.359091 0.649022
vn -0.599156 0.624290 0.501272
vn -0.998434 -0.048462 0.027943
vn -0.670689 -0.359091 0.649022
vn -0.998434 -0.048462 0.027943
vn -0.738746 0.254997 -0.623883
vn -0.912895 -0.359637 -0.193090
vn -0.738746 0.254997 -0.623883
vn -0.655267 0.188193 -0.731579
vn -0.912895 -0.359637 -0.193090
vn -0.738746 0.254997 -0.623883
vn -0.047658 0.373620 -0.926357
vn -0.655267 0.188193 -0.731579
vn -0.047658 0.373620 -0.926357
vn 0.059145 0.163944 -0.984695
vn -0.655267 0.188193 -0.731579
vn -0.047658 0.373620 -0.926357
vn 0.668659 0.237579 -0.704593
vn 0.059145 0.163944 -0.984695
vn 0.668659 0.237579 -0.704593
vn 0.717335 -0.046156 -0.695197
vn 0.059145 0.163944 -0.984695
vn 0.668659 0.237579 -0.704593
vn 0.993192 -0.070862 -0.092460
vn 0.717335 -0.046156 -0.695197
vn 0.993192 -0.070862 -0.092460
vn 0.946910 -0.318269 -0.045461
vn 0.717335 -0.046156 -0.695197
vn 0.993192 -0.070862 -0.092460
vn 0.742660 -0.372239 0.556681
vn 0.946910 -0.318269 -0.045461
vn 0.742660 -0.372239 0.556681
vn 0.626111 -0.498966 0.599181
vn 0.946910 -0.318269 -0.045461
vn 0.742660 -0.372239 0.556681
vn 0.054919 -0.493111 0.868231
vn 0.626111 -0.498966 0.599181
vn 0.054919 -0.493111 0.868231
vn -0.075732 -0.481813 0.872995
vn 0.626111 -0.498966 0.599181
vn 0.054919 -0.493111 0.868231
vn -0.670689 -0.359091 0.649022
vn -0.075732 -0.481813 0.872995
vn -0.670689 -0.359091 0.649022
vn -0.755249 -0.270532 0.597002
vn -0.075732 -0.481813 0.872995
vn -0.670689 -0.359091 0.649022
vn -0.998434 -0.048462 0.027943
vn -0.755249 -0.270532 0.597002
vn -0.998434 -0.048462 0.027943
vn -0.912895 -0.359637 -0.193090
vn -0.755249 -0.270532 0.597002
vn -0.599156 0.624290 0.501272
vn -0.104404 0.751950 -0.650900
vn -0.774145 0.360663 -0.520213
vn -0.912895 -0.359637 -0.193090
vn -0.655267 0.188193 -0.731579
vn 0.059145 0.163944 -0.984695
vn -0.599156 0.624290 0.501272
vn 0.548915 0.776028 -0.310600
vn -0.104404 0.751950 -0.650900
vn -0.912895 -0.359637 -0.193090
vn 0.059145 0.163944 -0.984695
vn 0.717335 -0.046156 -0.695197
vn -0.599156 0.624290 0.501272
vn 0.826953 0.508358 0.240251
vn 0.548915 0.776028 -0.310600
vn -0.912895 -0.359637 -0.193090
vn 0.717335 -0.046156 -0.695197
vn 0.946910 -0.318269 -0.045461
vn -0.599156 0.624290 0.501272
vn 0.663521 0.102210 0.741143
vn 0.826953 0.508358 0.240251
vn -0.912895 -0.359637 -0.193090
vn 0.946910 -0.318269 -0.045461
vn 0.626111 -0.498966 0.599181
vn -0.599156 0.624290 0.501272
vn 0.086876 -0.302254 0.949260
vn 0.663521 0.102210 0.741143
vn -0.912895 -0.359637 -0.193090
vn 0.626111 -0.498966 0.599181
vn -0.075732 -0.481813 0.872995
vn -0.599156 0.624290 0.501272
vn -0.630564 -0.436288 0.641905
vn 0.086876 -0.302254 0.949260
vn -0.912895 -0.359637 -0.193090
vn -0.075732 -0.481813 0.872995
vn -0.755249 -0.270532 0.597002
vn 0.000000 1.000000 0.000000
vn -0.543592 0.839350 0.000000
vn -0.368651 0.805008 0.464821
vn 0.000000 1.000000 0.000000
vn -0.368651 0.805008 0.464821
vn -0.000000 0.774564 0.632496
vn 0.000000 1.000000 0.000000
vn -0.000000 0.774564 0.632496
vn 0.368651 0.805008 0.464821
vn 0.000000 1.000000 0.000000
vn 0.368651 0.805008 0.464821
vn 0.543592 0.839350 0.000000
vn 0.000000 1.000000 0.000000
vn 0.543592 0.839350 0.000000
vn 0.368651 0.805008 -0.464821
vn 0.000000 1.000000 0.000000
vn 0.368651 0.805008 -0.464821
vn 0.000000 0.774564 -0.632496
vn 0.000000 1.000000 0.000000
vn 0.000000 0.774564 -0.632496
vn -0.368651 0.805008 -0.464821
vn 0.000000 1.000000 0.000000
vn -0.368651 0.805008 -0.464821
vn -0.543592 0.839350 -0.000000
vn -0.368651 0.805008 0.464821
vn -0.543592 0.839350 0.000000
vn -0.551060 0.462130 0.694815
vn -0.543592 0.839350 0.000000
vn -0.860140 0.510057 0.000000
vn -0.551060 0.462130 0.694815
vn -0.000000 0.774564 0.632496
vn -0.368651 0.805008 0.464821
vn -0.000000 0.425587 0.904917
vn -0.368651 0.805008 0.464821
vn -0.551060 0.462130 0.694815
vn -0.000000 0.425587 0.904917
vn 0.368651 0.805008 0.464821
vn -0.000000 0.774564 0.632496
vn 0.551060 0.462130 0.694815
vn -0.000000 0.774564 0.632496
vn -0.000000 0.425587 0.904917
vn 0.551060 0.462130 0.694815
vn 0.543592 0.839350 0.000000
vn 0.368651 0.805008 0.464821
vn 0.860140 0.510057 0.000000
vn 0.368651 0.805008 0.464821
vn 0.551060 0.462130 0.694815
vn 0.860140 0.510057 0.000000
vn 0.368651 0.805008 -0.464821
vn 0.543592 0.839350 0.000000
vn 0.551060 0.462130 -0.694815
vn 0.543592 0.839350 0.000000
vn 0.860140 0.510057 0.000000
vn 0.551060 0.462130 -0.694815
vn 0.000000 0.774564 -0.632496
vn 0.368651 0.805008 -0.464821
vn 0.000000 0.425587 -0.904917
vn 0.368651 0.805008 -0.464821
vn 0.551060 0.462130 -0.694815
vn 0.000000 0.425587 -0.904917
vn -0.368651 0.805008 -0.464821
vn 0.000000 0.774564 -0.632496
vn -0.551060 0.462130 -0.694815
vn 0.000000 0.774564 -0.632496
vn 0.000000 0.425587 -0.904917
vn -0.551060 0.462130 -0.694815
vn -0.543592 0.839350 -0.000000
vn -0.368651 0.805008 -0.464821
vn -0.860140 0.510057 -0.000000
vn -0.368651 0.805008 -0.464821
vn -0.551060 0.462130 -0.694815
vn -0.860140 0.510057 -0.000000
vn -0.551060 0.462130 0.694815
vn -0.860140 0.510057 0.000000
vn -0.614597 0.147515 0.774926
vn -0.860140 0.510057 0.000000
vn -0.985901 0.167327 0.000000
vn -0.614597 0.147515 0.774926
vn -0.000000 0.425587 0.904917
vn -0.551060 0.462130 0.694815
vn -0.000000 0.133402 0.991062
vn -0.551060 0.462130 0.694815
vn -0.614597 0.147515 0.774926
vn -0.000000 0.133402 0.991062
vn 0.551060 0.462130 0.694815
vn -0.000000 0.425587 0.904917
vn 0.614597 0.147515 0.774926
vn -0.000000 0.425587 0.904917
vn -0.000000 0.133402 0.991062
vn 0.614597 0.147515 0.774926
vn 0.860140 0.510057 0.000000
vn 0.551060 0.462130 0.694815
vn 0.985901 0.167327 0.000000
vn 0.551060 0.462130 0.694815
vn 0.614597 0.147515 0.774926
vn 0.985901 0.167327 0.000000
vn 0.551060 0.462130 -0.694815
vn 0.860140 0.510057 0.000000
vn 0.614597 0.147515 -0.774926
vn 0.860140 0.510057 0.000000
vn 0.985901 0.167327 0.000000
vn 0.614597 0.147515 -0.774926
vn 0.000000 0.425587 -0.904917
vn 0.551060 0.462130 -0.694815
vn 0.000000 0.133402 -0.991062
vn 0.551060 0.462130 -0.694815
vn 0.614597 0.147515 -0.774926
vn 0.000000 0.133402 -0.991062
vn -0.551060 0.462130 -0.694815
vn 0.000000 0.425587 -0.904917
vn -0.614597 0.147515 -0.774926
vn 0.000000 0.425587 -0.904917
vn 0.000000 0.133402 -0.991062
vn -0.614597 0.147515 -0.774926
vn -0.860140 0.510057 -0.000000
vn -0.551060 0.462130 -0.694815
vn -0.985901 0.167327 -0.000000
vn -0.551060 0.462130 -0.694815
vn -0.614597 0.147515 -0.774926
vn -0.985901 0.167327 -0.000000
vn -0.614597 0.147515 0.774926
vn -0.985901 0.167327 0.000000
vn -0.614597 -0.147515 0.774926
vn -0.985901 0.167327 0.000000
vn -0.985901 -0.167327 0.000000
vn -0.614597 -0.147515 0.774926
vn -0.000000 0.133402 0.991062
vn -0.614597 0.147515 0.774926
vn -0.000000 -0.133402 0.991062
vn -0.614597 0.147515 0.774926
vn -0.614597 -0.147515 0.774926
vn -0.000000 -0.133402 0.991062
vn 0.614597 0.147515 0.774926
vn -0.000000 0.133402 0.991062
vn 0.614597 -0.147515 0.774926
vn -0.000000 0.133402 0.991062
vn -0.000000 -0.133402 0.991062
vn 0.614597 -0.147515 0.774926
vn 0.985901 0.167327 0.000000
vn 0.614597 0.147515 0.774926
vn 0.985901 -0.167327 0.000000
vn 0.614597 0.147515 0.774926
vn 0.614597 -0.147515 0.774926
vn 0.985901 -0.167327 0.000000
vn 0.614597 0.147515 -0.774926
vn 0.985901 0.167327 0.000000
vn 0.614597 -0.147515 -0.774926
vn 0.985901 0.167327 0.000000
vn 0.985901 -0.167327 0.000000
vn 0.614597 -0.147515 -0.774926
vn 0.000000 0.133402 -0.991062
vn 0.614597 0.147515 -0.774926
vn 0.000000 -0.133402 -0.991062
vn 0.614597 0.147515 -0.774926
vn 0.614597 -0.147515 -0.774926
vn 0.000000 -0.133402 -0.991062
vn -0.614597 0.147515 -0.774926
vn 0.000000 0.133402 -0.991062
vn -0.614597 -0.147515 -0.774926
vn 0.000000 0.133402 -0.991062
vn 0.000000 -0.133402 -0.991062
vn -0.614597 -0.147515 -0.774926
vn -0.985901 0.167327 -0.000000
vn -0.614597 0.147515 -0.774926
vn -0.985901 -0.167327 -0.000000
vn -0.614597 0.147515 -0.774926
vn -0.614597 -0.147515 -0.774926
vn -0.985901 -0.167327 -0.000000
vn -0.614597 -0.147515 0.774926
vn -0.985901 -0.167327 0.000000
vn -0.551060 -0.462130 0.694815
vn -0.985901 -0.167327 0.000000
vn -0.860140 -0.510057 0.000000
vn -0.551060 -0.462130 0.694815
vn -0.000000 -0.133402 0.991062
vn -0.614597 -0.147515 0.774926
vn -0.000000 -0.425587 0.904917
vn -0.614597 -0.147515 0.774926
vn -0.551060 -0.462130 0.694815
vn -0.000000 -0.425587 0.904917
vn 0.614597 -0.147515 0.774926
vn -0.000000 -0.133402 0.991062
vn 0.551060 -0.462130 0.694815
vn -0.000000 -0.133402 0.991062
vn -0.000000 -0.425587 0.904917
vn 0.551060 -0.462130 0.694815
vn 0.985901 -0.167327 0.000000
vn 0.614597 -0.147515 0.774926
vn 0.860140 -0.510057 0.000000
vn 0.614597 -0.147515 0.774926
vn 0.551060 -0.462130 0.694815
vn 0.860140 -0.510057 0.000000
vn 0.614597 -0.147515 -0.774926
vn 0.985901 -0.167327 0.000000
vn 0.551060 -0.462130 -0.694815
vn 0.985901 -0.167327 0.000000
vn 0.860140 -0.510057 0.000000
vn 0.551060 -0.462130 -0.694815
vn 0.000000 -0.133402 -0.991062
vn 0.614597 -0.147515 -0.774926
vn 0.000000 -0.425587 -0.904917
vn 0.614597 -0.147515 -0.774926
vn 0.551060 -0.462130 -0.694815
vn 0.000000 -0.425587 -0.904917
vn -0.614597 -0.147515 -0.774926
vn 0.000000 -0.133402 -0.991062
vn -0.551060 -0.462130 -0.694815
vn 0.000000 -0.133402 -0.991062
vn 0.000000 -0.425587 -0.904917
vn -0.551060 -0.462130 -0.694815
vn -0.985901 -0.167327 -0.000000
vn -0.614597 -0.147515 -0.774926
vn -0.860140 -0.510057 -0.000000
vn -0.614597 -0.147515 -0.774926
vn -0.551060 -0.462130 -0.694815
vn -0.860140 -0.510057 -0.000000
vn -0.551060 -0.462130 0.694815
vn -0.860140 -0.510057 0.000000
vn -0.368651 -0.805008 0.464821
vn -0.860140 -0.510057 0.000000
vn -0.543592 -0.839350 0.000000
vn -0.368651 -0.805008 0.464821
vn -0.000000 -0.425587 0.904917
vn -0.551060 -0.462130 0.694815
vn -0.000000 -0.774564 0.632496
vn -0.551060 -0.462130 0.694815
vn -0.368651 -0.805008 0.464821
vn -0.000000 -0.774564 0.632496
vn 0.551060 -0.462130 0.694815
vn -0.000000 -0.425587 0.904917
vn 0.368651 -0.805008 0.464821
vn -0.000000 -0.425587 0.904917
vn -0.000000 -0.774564 0.632496
vn 0.368651 -0.805008 0.464821
vn 0.860140 -0.510057 0.000000
vn 0.551060 -0.462130 0.694815
vn 0.543592 -0.839350 0.000000
vn 0.551060 -0.462130 0.694815
vn 0.368651 -0.805008 0.464821
vn 0.543592 -0.839350 0.000000
vn 0.551060 -0.462130 -0.694815
vn 0.860140 -0.510057 0.000000
vn 0.368651 -0.805008 -0.464821
vn 0.860140 -0.510057 0.000000
vn 0.543592 -0.839350 0.000000
vn 0.368651 -0.805008 -0.464821
vn 0.000000 -0.425587 -0.904917
vn 0.551060 -0.462130 -0.694815
vn 0.000000 -0.774564 -0.632496
vn 0.551060 -0.462130 -0.694815
vn 0.368651 -0.805008 -0.464821
vn 0.000000 -0.774564 -0.632496
vn -0.551060 -0.462130 -0.694815
vn 0.000000 -0.425587 -0.904917
vn -0.368651 -0.805008 -0.464821
vn 0.000000 -0.425587 -0.904917
vn 0.000000 -0.774564 -0.632496
vn -0.368651 -0.805008 -0.464821
vn -0.860140 -0.510057 -0.000000
vn -0.551060 -0.462130 -0.694815
vn -0.543592 -0.839350 -0.000000
vn -0.551060 -0.462130 -0.694815
vn -0.368651 -0.805008 -0.464821
vn -0.543592 -0.839350 -0.000000
vn -0.368651 -0.805008 0.464821
vn -0.543592 -0.839350 0.000000
vn -0.000000 -1.000000 0.000000
vn -0.000000 -0.774564 0.632496
vn -0.368651 -0.805008 0.464821
vn -0.000000 -1.000000 0.000000
vn 0.368651 -0.805008 0.464821
vn -0.000000 -0.774564 0.632496
vn 0.000000 -1.000000 0.000000
vn 0.543592 -0.839350 0.000000
vn 0.368651 -0.805008 0.464821
vn 0.000000 -1.000000 0.000000
vn 0.368651 -0.805008 -0.464821
vn 0.543592 -0.839350 0.000000
vn 0.000000 -1.000000 -0.000000
vn 0.000000 -0.774564 -0.632496
vn 0.368651 -0.805008 -0.464821
vn 0.000000 -1.000000 -0.000000
vn -0.368651 -0.805008 -0.464821
vn 0.000000 -0.774564 -0.632496
vn -0.000000 -1.000000 -0.000000
vn -0.543592 -0.839350 -0.000000
vn -0.368651 -0.805008 -0.464821
vn -0.000000 -1.000000 -0.000000
vn -0.824261 -0.349331 0.445602
vn -0.463753 0.810668 0.357422
vn -0.933726 0.303371 -0.190056
vn -0.463753 0.810668 0.357422
vn -0.090754 0.980352 0.175138
vn -0.933726 0.303371 -0.190056
vn -0.463753 0.810668 0.357422
vn 0.605177 0.396438 0.690360
vn -0.090754 0.980352 0.175138
vn 0.605177 0.396438 0.690360
vn 0.898197 0.439582 -0.003238
vn -0.090754 0.980352 0.175138
vn 0.605177 0.396438 0.690360
vn 0.782522 -0.562719 0.266472
vn 0.898197 0.439582 -0.003238
vn 0.782522 -0.562719 0.266472
vn 0.666429 -0.571614 -0.478675
vn 0.898197 0.439582 -0.003238
vn 0.782522 -0.562719 0.266472
vn -0.146632 -0.904462 -0.400560
vn 0.666429 -0.571614 -0.478675
vn -0.146632 -0.904462 -0.400560
vn -0.465761 -0.655797 -0.594135
vn 0.666429 -0.571614 -0.478675
vn -0.146632 -0.904462 -0.400560
vn -0.824261 -0.349331 0.445602
vn -0.465761 -0.655797 -0.594135
vn -0.824261 -0.349331 0.445602
vn -0.933726 0.303371 -0.190056
vn -0.465761 -0.655797 -0.594135
vn -0.933726 0.303371 -0.190056
vn -0.090754 0.980352 0.175138
vn -0.848037 0.526685 -0.058627
vn -0.090754 0.980352 0.175138
vn 0.179063 0.958464 0.221997
vn -0.848037 0.526685 -0.058627
vn -0.090754 0.980352 0.175138
vn 0.898197 0.439582 -0.003238
vn 0.179063 0.958464 0.221997
vn 0.898197 0.439582 -0.003238
vn 0.978367 0.190085 -0.081640
vn 0.179063 0.958464 0.221997
vn 0.898197 0.439582 -0.003238
vn 0.666429 -0.571614 -0.478675
vn 0.978367 0.190085 -0.081640
vn 0.666429 -0.571614 -0.478675
vn 0.443655 -0.721033 -0.532242
vn 0.978367 0.190085 -0.081640
vn 0.666429 -0.571614 -0.478675
vn -0.465761 -0.655797 -0.594135
vn 0.443655 -0.721033 -0.532242
vn -0.465761 -0.655797 -0.594135
vn -0.687645 -0.518357 -0.508379
vn 0.443655 -0.721033 -0.532242
vn -0.465761 -0.655797 -0.594135
vn -0.933726 0.303371 -0.190056
vn -0.687645 -0.518357 -0.508379
vn -0.933726 0.303371 -0.190056
vn -0.848037 0.526685 -0.058627
vn -0.687645 -0.518357 -0.508379
vn -0.824261 -0.349331 0.445602
vn 0.605177 0.396438 0.690360
vn -0.463753 0.810668 0.357422
vn -0.848037 0.526685 -0.058627
vn 0.179063 0.958464 0.221997
vn 0.978367 0.190085 -0.081640
vn -0.824261 -0.349331 0.445602
vn 0.782522 -0.562719 0.266472
vn 0.605177 0.396438 0.690360
vn -0.848037 0.526685 -0.058627
vn 0.978367 0.190085 -0.081640
vn 0.443655 -0.721033 -0.532242
vn -0.824261 -0.349331 0.445602
vn -0.146632 -0.904462 -0.400560
vn 0.782522 -0.562719 0.266472
vn -0.848037 0.526685 -0.058627
vn 0.443655 -0.721033 -0.532242
vn -0.687645 -0.518357 -0.508379
usemtl Dragon_color_atlas
f 1/1/1 2/2/2 3/3/3
f 4/4/4 5/5/5 6/6/6
f 7/7/7 8/8/8 9/9/9
f 10/10/10 11/11/11 12/12/12
f 13/13/13 14/14/14 15/15/15
f 16/16/16 17/17/17 18/18/18
f 19/19/19 20/20/20 21/21/21
f 22/22/22 23/23/23 24/24/24
f 25/25/25 26/26/26 27/27/27
f 28/28/28 29/29/29 30/30/30
f 31/31/31 32/32/32 33/33/33
f 34/34/34 35/35/35 36/36/36
f 37/37/37 38/38/38 39/39/39
f 40/40/40 41/41/41 42/42/42
f 43/43/43 44/44/44 45/45/45
f 46/46/46 47/47/47 48/48/48
f 49/49/49 50/50/50 51/51/51
f 52/52/52 53/53/53 54/54/54
f 55/55/55 56/56/56 57/57/57
f 58/58/58 59/59/59 60/60/60
f 61/61/61 62/62/62 63/63/63
f 64/64/64 65/65/65 66/66/66
f 67/67/67 68/68/68 69/69/69
f 70/70/70 71/71/71 72/72/72
f 73/73/73 74/74/74 75/75/75
f 76/76/76 77/77/77 78/78/78
f 79/79/79 80/80/80 81/81/81
f 82/82/82 83/83/83 84/84/84
f 85/85/85 86/86/86 87/87/87
f 88/88/88 89/89/89 90/90/90
f 91/91/91 92/92/92 93/93/93
f 94/94/94 95/95/95 96/96/96
f 97/97/97 98/98/98 99/99/99
f 100/100/100 101/101/101 102/102/102
f 103/103/103 104/104/104 105/105/105
f 106/106/106 107/107/107 108/108/108
f 109/109/109 110/110/110 111/111/111
f 112/112/112 113/113/113 114/114/114
f 115/115/115 116/116/116 117/117/117
f 118/118/118 119/119/119 120/120/120
f 121/121/121 122/122/122 123/123/123
f 124/124/124 125/125/125 126/126/126
f 127/127/127 128/128/128 129/129/129
f 130/130/130 131/131/131 132/132/132
f 133/133/133 134/134/134 135/135/135
f 136/136/136 137/137/137 138/138/138
f 139/139/139 140/140/140 141/141/141
f 142/142/142 143/143/143 144/144/144
f 145/145/145 146/146/146 147/147/147
f 148/148/148 149/149/149 150/150/150
f 151/151/151 152/152/152 153/153/153
f 154/154/154 155/155/155 156/156/156
f 157/157/157 158/158/158 159/159/159
f 160/160/160 161/161/161 162/162/162
f 163/163/163 164/164/164 165/165/165
f 166/166/166 167/167/167 168/168/168
f 169/169/169 170/170/170 171/171/171
f 172/172/172 173/173/173 174/174/174
f 175/175/175 176/176/176 177/177/177
f 178/178/178 179/179/179 180/180/180
f 181/181/181 182/182/182 183/183/183
f 184/184/184 185/185/185 186/186/186
f 187/187/187 188/188/188 189/189/189
f 190/190/190 191/191/191 192/192/192
f 193/193/193 194/194/194 195/195/195
f 196/196/196 197/197/197 198/198/198
f 199/199/199 200/200/200 201/201/201
f 202/202/202 203/203/203 204/204/204
f 205/205/205 206/206/206 207/207/207
f 208/208/208 209/209/209 210/210/210
f 211/211/211 212/212/212 213/213/213
f 214/214/214 215/215/215 216/216/216
f 217/217/217 218/218/218 219/219/219
f 220/220/220 221/221/221 222/222/222
f 223/223/223 224/224/224 225/225/225
f 226/226/226 227/227/227 228/228/228
f 229/229/229 230/230/230 231/231/231
f 232/232/232 233/233/233 234/234/234
f 235/235/235 236/236/236 237/237/237
f 238/238/238 239/239/239 240/240/240
f 241/241/241 242/242/242 243/243/243
f 244/244/244 245/245/245 246/246/246
f 247/247/247 248/248/248 249/249/249
f 250/250/250 251/251/251 252/252/252
f 253/253/253 254/254/254 255/255/255
f 256/256/256 257/257/257 258/258/258
f 259/259/259 260/260/260 261/261/261
f 262/262/262 263/263/263 264/264/264
f 265/265/265 266/266/266 267/267/267
f 268/268/268 269/269/269 270/270/270
f 271/271/271 272/272/272 273/273/273
f 274/274/274 275/275/275 276/276/276
f 277/277/277 278/278/278 279/279/279
f 280/280/280 281/281/281 282/282/282
f 283/283/283 284/284/284 285/285/285
f 286/286/286 287/287/287 288/288/288
f 289/289/289 290/290/290 291/291/291
f 292/292/292 293/293/293 294/294/294
f 295/295/295 296/296/296 297/297/297
f 298/298/298 299/299/299 300/300/300
f 301/301/301 302/302/302 303/303/303
f 304/304/304 305/305/305 306/306/306
f 307/307/307 308/308/308 309/309/309
f 310/310/310 311/311/311 312/312/312
f 313/313/313 314/314/314 315/315/315
f 316/316/316 317/317/317 318/318/318
f 319/319/319 320/320/320 321/321/321
f 322/322/322 323/323/323 324/324/324
f 325/325/325 326/326/326 327/327/327
f 328/328/328 329/329/329 330/330/330
f 331/331/331 332/332/332 333/333/333
f 334/334/334 335/335/335 336/336/336
f 337/337/337 338/338/338 339/339/339
f 340/340/340 341/341/341 342/342/342
f 343/343/343 344/344/344 345/345/345
f 346/346/346 347/347/347 348/348/348
f 349/349/349 350/350/350 351/351/351
f 352/352/352 353/353/353 354/354/354
f 355/355/355 356/356/356 357/357/357
f 358/358/358 359/359/359 360/360/360
f 361/361/361 362/362/362 363/363/363
f 364/364/364 365/365/365 366/366/366
f 367/367/367 368/368/368 369/369/369
f 370/370/370 371/371/371 372/372/372
f 373/373/373 374/374/374 375/375/375
f 376/376/376 377/377/377 378/378/378
f 379/379/379 380/380/380 381/381/381
f 382/382/382 383/383/383 384/384/384
f 385/385/385 386/386/386 387/387/387
f 388/388/388 389/389/389 390/390/390
f 391/391/391 392/392/392 393/393/393
f 394/394/394 395/395/395 396/396/396
f 397/397/397 398/398/398 399/399/399
f 400/400/400 401/401/401 402/402/402
f 403/403/403 404/404/404 405/405/405
f 406/406/406 407/407/407 408/408/408
f 409/409/409 410/410/410 411/411/411
f 412/412/412 413/413/413 414/414/414
f 415/415/415 416/416/416 417/417/417
f 418/418/418 419/419/419 420/420/420
f 421/421/421 422/422/422 423/423/423
f 424/424/424 425/425/425 426/426/426
f 427/427/427 428/428/428 429/429/429
f 430/430/430 431/431/431 432/432/432
f 433/433/433 434/434/434 435/435/435
f 436/436/436 437/437/437 438/438/438
f 439/439/439 440/440/440 441/441/441
f 442/442/442 443/443/443 444/444/444
f 445/445/445 446/446/446 447/447/447
f 448/448/448 449/449/449 450/450/450
f 451/451/451 452/452/452 453/453/453
f 454/454/454 455/455/455 456/456/456
f 457/457/457 458/458/458 459/459/459
f 460/460/460 461/461/461 462/462/462
f 463/463/463 464/464/464 465/465/465
f 466/466/466 467/467/467 468/468/468
f 469/469/469 470/470/470 471/471/471
f 472/472/472 473/473/473 474/474/474
f 475/475/475 476/476/476 477/477/477
f 478/478/478 479/479/479 480/480/480
f 481/481/481 482/482/482 483/483/483
f 484/484/484 485/485/485 486/486/486
f 487/487/487 488/488/488 489/489/489
f 490/490/490 491/491/491 492/492/492
f 493/493/493 494/494/494 495/495/495
f 496/496/496 497/497/497 498/498/498
