# Obsidian West — joint-local part geometry, +Y up, +Z forward
mtllib materials.mtl
o R_Wing_Finger_1
v -0.096889 -0.000000 -0.174964
v -0.047649 0.173203 -0.087922
v 3.260637 -0.020000 -1.953431
v -0.047649 0.173203 -0.087922
v 3.316894 0.090155 -1.913418
v 3.260637 -0.020000 -1.953431
v -0.047649 0.173203 -0.087922
v 0.049239 0.173203 0.087042
v 3.316894 0.090155 -1.913418
v 0.049239 0.173203 0.087042
v 3.391257 0.090155 -1.806788
v 3.316894 0.090155 -1.913418
v 0.049239 0.173203 0.087042
v 0.096889 -0.000000 0.174964
v 3.391257 0.090155 -1.806788
v 0.096889 -0.000000 0.174964
v 3.409364 -0.020000 -1.740169
v 3.391257 0.090155 -1.806788
v 0.096889 -0.000000 0.174964
v 0.047650 -0.173203 0.087922
v 3.409364 -0.020000 -1.740169
v 0.047650 -0.173203 0.087922
v 3.353106 -0.130155 -1.780182
v 3.409364 -0.020000 -1.740169
v 0.047650 -0.173203 0.087922
v -0.049239 -0.173203 -0.087042
v 3.353106 -0.130155 -1.780182
v -0.049239 -0.173203 -0.087042
v 3.278743 -0.130155 -1.886812
v 3.353106 -0.130155 -1.780182
v -0.049239 -0.173203 -0.087042
v -0.096889 -0.000000 -0.174964
v 3.278743 -0.130155 -1.886812
v -0.096889 -0.000000 -0.174964
v 3.260637 -0.020000 -1.953431
v 3.278743 -0.130155 -1.886812
v 3.260637 -0.020000 -1.953431
v 3.316894 0.090155 -1.913418
v 5.739325 -1.480000 -4.021918
v 3.316894 0.090155 -1.913418
v 5.748900 -1.467365 -4.019755
v 5.739325 -1.480000 -4.021918
v 3.316894 0.090155 -1.913418
v 3.391257 0.090155 -1.806788
v 5.748900 -1.467365 -4.019755
v 3.391257 0.090155 -1.806788
v 5.759576 -1.467365 -4.007837
v 5.748900 -1.467365 -4.019755
v 3.391257 0.090155 -1.806788
v 3.409364 -0.020000 -1.740169
v 5.759576 -1.467365 -4.007837
v 3.409364 -0.020000 -1.740169
v 5.760675 -1.480000 -3.998082
v 5.759576 -1.467365 -4.007837
v 3.409364 -0.020000 -1.740169
v 3.353106 -0.130155 -1.780182
v 5.760675 -1.480000 -3.998082
v 3.353106 -0.130155 -1.780182
v 5.751100 -1.492634 -4.000245
v 5.760675 -1.480000 -3.998082
v 3.353106 -0.130155 -1.780182
v 3.278743 -0.130155 -1.886812
v 5.751100 -1.492634 -4.000245
v 3.278743 -0.130155 -1.886812
v 5.740424 -1.492634 -4.012163
v 5.751100 -1.492634 -4.000245
v 3.278743 -0.130155 -1.886812
v 3.260637 -0.020000 -1.953431
v 5.740424 -1.492634 -4.012163
v 3.260637 -0.020000 -1.953431
v 5.739325 -1.480000 -4.021918
v 5.740424 -1.492634 -4.012163
v -0.096889 -0.000000 -0.174964
v 0.049239 0.173203 0.087042
v -0.047649 0.173203 -0.087922
v 5.739325 -1.480000 -4.021918
v 5.748900 -1.467365 -4.019755
v 5.759576 -1.467365 -4.007837
v -0.096889 -0.000000 -0.174964
v 0.096889 -0.000000 0.174964
v 0.049239 0.173203 0.087042
v 5.739325 -1.480000 -4.021918
v 5.759576 -1.467365 -4.007837
v 5.760675 -1.480000 -3.998082
v -0.096889 -0.000000 -0.174964
v 0.047650 -0.173203 0.087922
v 0.096889 -0.000000 0.174964
v 5.739325 -1.480000 -4.021918
v 5.760675 -1.480000 -3.998082
v 5.751100 -1.492634 -4.000245
v -0.096889 -0.000000 -0.174964
v -0.049239 -0.173203 -0.087042
v 0.047650 -0.173203 0.087922
v 5.739325 -1.480000 -4.021918
v 5.751100 -1.492634 -4.000245
v 5.740424 -1.492634 -4.012163
v 4.150367 -0.930000 -3.225077
v 4.206277 -0.848421 -3.187490
v 5.442876 -1.412300 -4.023437
v 4.206277 -0.848421 -3.187490
v 5.469713 -1.373142 -4.005395
v 5.442876 -1.412300 -4.023437
v 4.206277 -0.848421 -3.187490
v 4.253512 -0.879582 -3.098093
v 5.469713 -1.373142 -4.005395
v 4.253512 -0.879582 -3.098093
v 5.492386 -1.388099 -3.962484
v 5.469713 -1.373142 -4.005395
v 4.253512 -0.879582 -3.098093
v 4.226795 -0.980418 -3.080430
v 5.492386 -1.388099 -3.962484
v 4.226795 -0.980418 -3.080430
v 5.479562 -1.436501 -3.954006
v 5.492386 -1.388099 -3.962484
v 4.226795 -0.980418 -3.080430
v 4.163047 -1.011579 -3.158911
v 5.479562 -1.436501 -3.954006
v 4.163047 -1.011579 -3.158911
v 5.448963 -1.451458 -3.991677
v 5.479562 -1.436501 -3.954006
v 4.163047 -1.011579 -3.158911
v 4.150367 -0.930000 -3.225077
v 5.448963 -1.451458 -3.991677
v 4.150367 -0.930000 -3.225077
v 5.442876 -1.412300 -4.023437
v 5.448963 -1.451458 -3.991677
v 5.442876 -1.412300 -4.023437
v 5.469713 -1.373142 -4.005395
v 6.585036 -1.840000 -4.737508
v 5.469713 -1.373142 -4.005395
v 6.590628 -1.831842 -4.733749
v 6.585036 -1.840000 -4.737508
v 5.469713 -1.373142 -4.005395
v 5.492386 -1.388099 -3.962484
v 6.590628 -1.831842 -4.733749
v 5.492386 -1.388099 -3.962484
v 6.595351 -1.834958 -4.724809
v 6.590628 -1.831842 -4.733749
v 5.492386 -1.388099 -3.962484
v 5.479562 -1.436501 -3.954006
v 6.595351 -1.834958 -4.724809
v 5.479562 -1.436501 -3.954006
v 6.592679 -1.845042 -4.723043
v 6.595351 -1.834958 -4.724809
v 5.479562 -1.436501 -3.954006
v 5.448963 -1.451458 -3.991677
v 6.592679 -1.845042 -4.723043
v 5.448963 -1.451458 -3.991677
v 6.586305 -1.848158 -4.730891
v 6.592679 -1.845042 -4.723043
v 5.448963 -1.451458 -3.991677
v 5.442876 -1.412300 -4.023437
v 6.586305 -1.848158 -4.730891
v 5.442876 -1.412300 -4.023437
v 6.585036 -1.840000 -4.737508
v 6.586305 -1.848158 -4.730891
v 4.150367 -0.930000 -3.225077
v 4.253512 -0.879582 -3.098093
v 4.206277 -0.848421 -3.187490
v 6.585036 -1.840000 -4.737508
v 6.590628 -1.831842 -4.733749
v 6.595351 -1.834958 -4.724809
v 4.150367 -0.930000 -3.225077
v 4.226795 -0.980418 -3.080430
v 4.253512 -0.879582 -3.098093
v 6.585036 -1.840000 -4.737508
v 6.595351 -1.834958 -4.724809
v 6.592679 -1.845042 -4.723043
v 4.150367 -0.930000 -3.225077
v 4.163047 -1.011579 -3.158911
v 4.226795 -0.980418 -3.080430
v 6.585036 -1.840000 -4.737508
v 6.592679 -1.845042 -4.723043
v 6.586305 -1.848158 -4.730891
vt 0.120000 0.880000
vt 0.213333 0.880000
vt 0.166667 0.786667
vt 0.120000 0.880000
vt 0.213333 0.880000
vt 0.166667 0.786667
vt 0.120000 0.880000
vt 0.213333 0.880000
vt 0.166667 0.786667
vt 0.120000 0.880000
vt 0.213333 0.880000
vt 0.166667 0.786667
vt 0.120000 0.880000
vt 0.213333 0.880000
vt 0.166667 0.786667
vt 0.120000 0.880000
vt 0.213333 0.880000
vt 0.166667 0.786667
vt 0.120000 0.880000
vt 0.213333 0.880000
vt 0.166667 0.786667
vt 0.120000 0.880000
vt 0.213333 0.880000
vt 0.166667 0.786667
vt 0.120000 0.880000
vt 0.213333 0.880000
vt 0.166667 0.786667
vt 0.120000 0.880000
vt 0.213333 0.880000
vt 0.166667 0.786667
vt 0.120000 0.880000
vt 0.213333 0.880000
vt 0.166667 0.786667
vt 0.120000 0.880000
vt 0.213333 0.880000
vt 0.166667 0.786667
vt 0.120000 0.880000
vt 0.213333 0.880000
vt 0.166667 0.786667
vt 0.120000 0.880000
vt 0.213333 0.880000
vt 0.166667 0.786667
vt 0.120000 0.880000
vt 0.213333 0.880000
vt 0.166667 0.786667
vt 0.120000 0.880000
vt 0.213333 0.880000
vt 0.166667 0.786667
vt 0.120000 0.880000
vt 0.213333 0.880000
vt 0.166667 0.786667
vt 0.120000 0.880000
vt 0.213333 0.880000
vt 0.166667 0.786667
vt 0.120000 0.880000
vt 0.213333 0.880000
vt 0.166667 0.786667
vt 0.120000 0.880000
vt 0.213333 0.880000
vt 0.166667 0.786667
vt 0.120000 0.880000
vt 0.213333 0.880000
vt 0.166667 0.786667
vt 0.120000 0.880000
vt 0.213333 0.880000
vt 0.166667 0.786667
vt 0.120000 0.880000
vt 0.213333 0.880000
vt 0.166667 0.786667
vt 0.120000 0.880000
vt 0.213333 0.880000
vt 0.166667 0.786667
vt 0.120000 0.880000
vt 0.213333 0.880000
vt 0.166667 0.786667
vt 0.120000 0.880000
vt 0.213333 0.880000
vt 0.166667 0.786667
vt 0.120000 0.880000
vt 0.213333 0.880000
vt 0.166667 0.786667
vt 0.120000 0.880000
vt 0.213333 0.880000
vt 0.166667 0.786667
vt 0.120000 0.880000
vt 0.213333 0.880000
vt 0.166667 0.786667
vt 0.120000 0.880000
vt 0.213333 0.880000
vt 0.166667 0.786667
vt 0.120000 0.880000
vt 0.213333 0.880000
vt 0.166667 0.786667
vt 0.120000 0.880000
vt 0.213333 0.880000
vt 0.166667 0.786667
vt 0.786667 0.880000
vt 0.880000 0.880000
vt 0.833333 0.786667
vt 0.786667 0.880000
vt 0.880000 0.880000
vt 0.833333 0.786667
vt 0.786667 0.880000
vt 0.880000 0.880000
vt 0.833333 0.786667
vt 0.786667 0.880000
vt 0.880000 0.880000
vt 0.833333 0.786667
vt 0.786667 0.880000
vt 0.880000 0.880000
vt 0.833333 0.786667
vt 0.786667 0.880000
vt 0.880000 0.880000
vt 0.833333 0.786667
vt 0.786667 0.880000
vt 0.880000 0.880000
vt 0.833333 0.786667
vt 0.786667 0.880000
vt 0.880000 0.880000
vt 0.833333 0.786667
vt 0.786667 0.880000
vt 0.880000 0.880000
vt 0.833333 0.786667
vt 0.786667 0.880000
vt 0.880000 0.880000
vt 0.833333 0.786667
vt 0.786667 0.880000
vt 0.880000 0.880000
vt 0.833333 0.786667
vt 0.786667 0.880000
vt 0.880000 0.880000
vt 0.833333 0.786667
vt 0.786667 0.880000
vt 0.880000 0.880000
vt 0.833333 0.786667
vt 0.786667 0.880000
vt 0.880000 0.880000
vt 0.833333 0.786667
vt 0.786667 0.880000
vt 0.880000 0.880000
vt 0.833333 0.786667
vt 0.786667 0.880000
vt 0.880000 0.880000
vt 0.833333 0.786667
vt 0.786667 0.880000
vt 0.880000 0.880000
vt 0.833333 0.786667
vt 0.786667 0.880000
vt 0.880000 0.880000
vt 0.833333 0.786667
vt 0.786667 0.880000
vt 0.880000 0.880000
vt 0.833333 0.786667
vt 0.786667 0.880000
vt 0.880000 0.880000
vt 0.833333 0.786667
vt 0.786667 0.880000
vt 0.880000 0.880000
vt 0.833333 0.786667
vt 0.786667 0.880000
vt 0.880000 0.880000
vt 0.833333 0.786667
vt 0.786667 0.880000
vt 0.880000 0.880000
vt 0.833333 0.786667
vt 0.786667 0.880000
vt 0.880000 0.880000
vt 0.833333 0.786667
vt 0.786667 0.880000
vt 0.880000 0.880000
vt 0.833333 0.786667
vt 0.786667 0.880000
vt 0.880000 0.880000
vt 0.833333 0.786667
vn -0.564603 -0.143996 -0.812704
vn -0.296045 0.787540 -0.540498
vn -0.527744 0.148536 -0.836315
vn -0.296045 0.787540 -0.540498
vn -0.085588 0.918566 -0.385891
vn -0.527744 0.148536 -0.836315
vn -0.296045 0.787540 -0.540498
vn 0.150672 0.926882 0.343784
vn -0.085588 0.918566 -0.385891
vn 0.150672 0.926882 0.343784
vn 0.463752 0.768535 0.440782
vn -0.085588 0.918566 -0.385891
vn 0.150672 0.926882 0.343784
vn 0.426923 0.145361 0.892528
vn 0.463752 0.768535 0.440782
vn 0.426923 0.145361 0.892528
vn 0.565744 -0.154387 0.809999
vn 0.463752 0.768535 0.440782
vn 0.426923 0.145361 0.892528
vn 0.259049 -0.786564 0.560544
vn 0.565744 -0.154387 0.809999
vn 0.259049 -0.786564 0.560544
vn 0.124362 -0.924397 0.360588
vn 0.565744 -0.154387 0.809999
vn 0.259049 -0.786564 0.560544
vn -0.185983 -0.927412 -0.324526
vn 0.124362 -0.924397 0.360588
vn -0.185983 -0.927412 -0.324526
vn -0.425600 -0.775413 -0.466476
vn 0.124362 -0.924397 0.360588
vn -0.185983 -0.927412 -0.324526
vn -0.564603 -0.143996 -0.812704
vn -0.425600 -0.775413 -0.466476
vn -0.564603 -0.143996 -0.812704
vn -0.527744 0.148536 -0.836315
vn -0.425600 -0.775413 -0.466476
vn -0.527744 0.148536 -0.836315
vn -0.085588 0.918566 -0.385891
vn -0.434305 0.400297 -0.806933
vn -0.085588 0.918566 -0.385891
vn 0.294488 0.898734 -0.324891
vn -0.434305 0.400297 -0.806933
vn -0.085588 0.918566 -0.385891
vn 0.463752 0.768535 0.440782
vn 0.294488 0.898734 -0.324891
vn 0.463752 0.768535 0.440782
vn 0.743384 0.500137 0.444120
vn 0.294488 0.898734 -0.324891
vn 0.463752 0.768535 0.440782
vn 0.565744 -0.154387 0.809999
vn 0.743384 0.500137 0.444120
vn 0.565744 -0.154387 0.809999
vn 0.483669 -0.415856 0.770148
vn 0.743384 0.500137 0.444120
vn 0.565744 -0.154387 0.809999
vn 0.124362 -0.924397 0.360588
vn 0.483669 -0.415856 0.770148
vn 0.124362 -0.924397 0.360588
vn -0.251083 -0.922474 0.293254
vn 0.483669 -0.415856 0.770148
vn 0.124362 -0.924397 0.360588
vn -0.425600 -0.775413 -0.466476
vn -0.251083 -0.922474 0.293254
vn -0.425600 -0.775413 -0.466476
vn -0.704568 -0.519257 -0.483690
vn -0.251083 -0.922474 0.293254
vn -0.425600 -0.775413 -0.466476
vn -0.527744 0.148536 -0.836315
vn -0.704568 -0.519257 -0.483690
vn -0.527744 0.148536 -0.836315
vn -0.434305 0.400297 -0.806933
vn -0.704568 -0.519257 -0.483690
vn -0.564603 -0.143996 -0.812704
vn 0.150672 0.926882 0.343784
vn -0.296045 0.787540 -0.540498
vn -0.434305 0.400297 -0.806933
vn 0.294488 0.898734 -0.324891
vn 0.743384 0.500137 0.444120
vn -0.564603 -0.143996 -0.812704
vn 0.426923 0.145361 0.892528
vn 0.150672 0.926882 0.343784
vn -0.434305 0.400297 -0.806933
vn 0.743384 0.500137 0.444120
vn 0.483669 -0.415856 0.770148
vn -0.564603 -0.143996 -0.812704
vn 0.259049 -0.786564 0.560544
vn 0.426923 0.145361 0.892528
vn -0.434305 0.400297 -0.806933
vn 0.483669 -0.415856 0.770148
vn -0.251083 -0.922474 0.293254
vn -0.564603 -0.143996 -0.812704
vn -0.185983 -0.927412 -0.324526
vn 0.259049 -0.786564 0.560544
vn -0.434305 0.400297 -0.806933
vn -0.251083 -0.922474 0.293254
vn -0.704568 -0.519257 -0.483690
vn -0.645548 -0.107009 -0.756186
vn -0.016486 0.857219 -0.514688
vn -0.459794 0.203893 -0.864302
vn -0.016486 0.857219 -0.514688
vn 0.223502 0.940731 -0.255091
vn -0.459794 0.203893 -0.864302
vn -0.016486 0.857219 -0.514688
vn 0.529614 0.677085 0.510945
vn 0.223502 0.940731 -0.255091
vn 0.529614 0.677085 0.510945
vn 0.627584 0.366217 0.687039
vn 0.223502 0.940731 -0.255091
vn 0.529614 0.677085 0.510945
vn 0.326202 -0.430885 0.841386
vn 0.627584 0.366217 0.687039
vn 0.326202 -0.430885 0.841386
vn 0.194028 -0.725688 0.660098
vn 0.627584 0.366217 0.687039
vn 0.326202 -0.430885 0.841386
vn -0.346066 -0.937981 0.020713
vn 0.194028 -0.725688 0.660098
vn -0.346066 -0.937981 0.020713
vn -0.478010 -0.826011 -0.298684
vn 0.194028 -0.725688 0.660098
vn -0.346066 -0.937981 0.020713
vn -0.645548 -0.107009 -0.756186
vn -0.478010 -0.826011 -0.298684
vn -0.645548 -0.107009 -0.756186
vn -0.459794 0.203893 -0.864302
vn -0.478010 -0.826011 -0.298684
vn -0.459794 0.203893 -0.864302
vn 0.223502 0.940731 -0.255091
vn -0.354912 0.427006 -0.831687
vn 0.223502 0.940731 -0.255091
vn 0.354967 0.933840 -0.044060
vn -0.354912 0.427006 -0.831687
vn 0.223502 0.940731 -0.255091
vn 0.627584 0.366217 0.687039
vn 0.354967 0.933840 -0.044060
vn 0.627584 0.366217 0.687039
vn 0.603096 0.139133 0.785441
vn 0.354967 0.933840 -0.044060
vn 0.627584 0.366217 0.687039
vn 0.194028 -0.725688 0.660098
vn 0.603096 0.139133 0.785441
vn 0.194028 -0.725688 0.660098
vn 0.043276 -0.857511 0.512642
vn 0.603096 0.139133 0.785441
vn 0.194028 -0.725688 0.660098
vn -0.478010 -0.826011 -0.298684
vn 0.043276 -0.857511 0.512642
vn -0.478010 -0.826011 -0.298684
vn -0.550888 -0.678842 -0.485486
vn 0.043276 -0.857511 0.512642
vn -0.478010 -0.826011 -0.298684
vn -0.459794 0.203893 -0.864302
vn -0.550888 -0.678842 -0.485486
vn -0.459794 0.203893 -0.864302
vn -0.354912 0.427006 -0.831687
vn -0.550888 -0.678842 -0.485486
vn -0.645548 -0.107009 -0.756186
vn 0.529614 0.677085 0.510945
vn -0.016486 0.857219 -0.514688
vn -0.354912 0.427006 -0.831687
vn 0.354967 0.933840 -0.044060
vn 0.603096 0.139133 0.785441
vn -0.645548 -0.107009 -0.756186
vn 0.326202 -0.430885 0.841386
vn 0.529614 0.677085 0.510945
vn -0.354912 0.427006 -0.831687
vn 0.603096 0.139133 0.785441
vn 0.043276 -0.857511 0.512642
vn -0.645548 -0.107009 -0.756186
vn -0.346066 -0.937981 0.020713
vn 0.326202 -0.430885 0.841386
vn -0.354912 0.427006 -0.831687
vn 0.043276 -0.857511 0.512642
vn -0.550888 -0.678842 -0.485486
usemtl Dragon_color_atlas
f 1/1/1 2/2/2 3/3/3
f 4/4/4 5/5/5 6/6/6
f 7/7/7 8/8/8 9/9/9
f 10/10/10 11/11/11 12/12/12
f 13/13/13 14/14/14 15/15/15
f 16/16/16 17/17/17 18/18/18
f 19/19/19 20/20/20 21/21/21
f 22/22/22 23/23/23 24/24/24
f 25/25/25 26/26/26 27/27/27
f 28/28/28 29/29/29 30/30/30
f 31/31/31 32/32/32 33/33/33
f 34/34/34 35/35/35 36/36/36
f 37/37/37 38/38/38 39/39/39
f 40/40/40 41/41/41 42/42/42
f 43/43/43 44/44/44 45/45/45
f 46/46/46 47/47/47 48/48/48
f 49/49/49 50/50/50 51/51/51
f 52/52/52 53/53/53 54/54/54
f 55/55/55 56/56/56 57/57/57
f 58/58/58 59/59/59 60/60/60
f 61/61/61 62/62/62 63/63/63
f 64/64/64 65/65/65 66/66/66
f 67/67/67 68/68/68 69/69/69
f 70/70/70 71/71/71 72/72/72
f 73/73/73 74/74/74 75/75/75
f 76/76/76 77/77/77 78/78/78
f 79/79/79 80/80/80 81/81/81
f 82/82/82 83/83/83 84/84/84
f 85/85/85 86/86/86 87/87/87
f 88/88/88 89/89/89 90/90/90
f 91/91/91 92/92/92 93/93/93
f 94/94/94 95/95/95 96/96/96
f 97/97/97 98/98/98 99/99/99
f 100/100/100 101/101/101 102/102/102
f 103/103/103 104/104/104 105/105/105
f 106/106/106 107/107/107 108/108/108
f 109/109/109 110/110/110 111/111/111
f 112/112/112 113/113/113 114/114/114
f 115/115/115 116/116/116 117/117/117
f 118/118/118 119/119/119 120/120/120
f 121/121/121 122/122/122 123/123/123
f 124/124/124 125/125/125 126/126/126
f 127/127/127 128/128/128 129/129/129
f 130/130/130 131/131/131 132/132/132
f 133/133/133 134/134/134 135/135/135
f 136/136/136 137/137/137 138/138/138
f 139/139/139 140/140/140 141/141/141
f 142/142/142 143/143/143 144/144/144
f 145/145/145 146/146/146 147/147/147
f 148/148/148 149/149/149 150/150/150
f 151/151/151 152/152/152 153/153/153
f 154/154/154 155/155/155 156/156/156
f 157/157/157 158/158/158 159/159/159
f 160/160/160 161/161/161 162/162/162
f 163/163/163 164/164/164 165/165/165
f 166/166/166 167/167/167 168/168/168
f 169/169/169 170/170/170 171/171/171
f 172/172/172 173/173/173 174/174/174
