# Obsidian West — joint-local part geometry, +Y up, +Z forward
mtllib materials.mtl
o R_Wing_Finger_3
v -0.099791 -0.000000 -0.046278
v -0.037311 0.090444 -0.050276
v 1.049776 -0.880000 -2.438870
v -0.037311 0.090444 -0.050276
v 1.094437 -0.822888 -2.453688
v 1.049776 -0.880000 -2.438870
v -0.037311 0.090444 -0.050276
v 0.062481 0.090444 -0.003998
v 1.094437 -0.822888 -2.453688
v 0.062481 0.090444 -0.003998
v 1.164061 -0.822888 -2.428619
v 1.094437 -0.822888 -2.453688
v 0.062481 0.090444 -0.003998
v 0.099791 -0.000000 0.046278
v 1.164061 -0.822888 -2.428619
v 0.099791 -0.000000 0.046278
v 1.189024 -0.880000 -2.388730
v 1.164061 -0.822888 -2.428619
v 0.099791 -0.000000 0.046278
v 0.037311 -0.090444 0.050276
v 1.189024 -0.880000 -2.388730
v 0.037311 -0.090444 0.050276
v 1.144363 -0.937112 -2.373911
v 1.189024 -0.880000 -2.388730
v 0.037311 -0.090444 0.050276
v -0.062480 -0.090444 0.003998
v 1.144363 -0.937112 -2.373911
v -0.062480 -0.090444 0.003998
v 1.074739 -0.937112 -2.398981
v 1.144363 -0.937112 -2.373911
v -0.062480 -0.090444 0.003998
v -0.099791 -0.000000 -0.046278
v 1.074739 -0.937112 -2.398981
v -0.099791 -0.000000 -0.046278
v 1.049776 -0.880000 -2.438870
v 1.074739 -0.937112 -2.398981
v 1.049776 -0.880000 -2.438870
v 1.094437 -0.822888 -2.453688
v 1.914573 -2.900000 -5.364244
v 1.094437 -0.822888 -2.453688
v 1.924314 -2.888441 -5.369490
v 1.914573 -2.900000 -5.364244
v 1.094437 -0.822888 -2.453688
v 1.164061 -0.822888 -2.428619
v 1.924314 -2.888441 -5.369490
v 1.164061 -0.822888 -2.428619
v 1.939740 -2.888441 -5.365245
v 1.924314 -2.888441 -5.369490
v 1.164061 -0.822888 -2.428619
v 1.189024 -0.880000 -2.388730
v 1.939740 -2.888441 -5.365245
v 1.189024 -0.880000 -2.388730
v 1.945427 -2.900000 -5.355755
v 1.939740 -2.888441 -5.365245
v 1.189024 -0.880000 -2.388730
v 1.144363 -0.937112 -2.373911
v 1.945427 -2.900000 -5.355755
v 1.144363 -0.937112 -2.373911
v 1.935686 -2.911559 -5.350510
v 1.945427 -2.900000 -5.355755
v 1.144363 -0.937112 -2.373911
v 1.074739 -0.937112 -2.398981
v 1.935686 -2.911559 -5.350510
v 1.074739 -0.937112 -2.398981
v 1.920260 -2.911559 -5.354754
v 1.935686 -2.911559 -5.350510
v 1.074739 -0.937112 -2.398981
v 1.049776 -0.880000 -2.438870
v 1.920260 -2.911559 -5.354754
v 1.049776 -0.880000 -2.438870
v 1.914573 -2.900000 -5.364244
v 1.920260 -2.911559 -5.354754
v -0.099791 -0.000000 -0.046278
v 0.062481 0.090444 -0.003998
v -0.037311 0.090444 -0.050276
v 1.914573 -2.900000 -5.364244
v 1.924314 -2.888441 -5.369490
v 1.939740 -2.888441 -5.365245
v -0.099791 -0.000000 -0.046278
v 0.099791 -0.000000 0.046278
v 0.062481 0.090444 -0.003998
v 1.914573 -2.900000 -5.364244
v 1.939740 -2.888441 -5.365245
v 1.945427 -2.900000 -5.355755
v -0.099791 -0.000000 -0.046278
v 0.037311 -0.090444 0.050276
v 0.099791 -0.000000 0.046278
v 1.914573 -2.900000 -5.364244
v 1.945427 -2.900000 -5.355755
v 1.935686 -2.911559 -5.350510
v -0.099791 -0.000000 -0.046278
v -0.062480 -0.090444 0.003998
v 0.037311 -0.090444 0.050276
v 1.914573 -2.900000 -5.364244
v 1.935686 -2.911559 -5.350510
v 1.920260 -2.911559 -5.354754
vt 0.453333 0.880000
vt 0.546667 0.880000
vt 0.500000 0.786667
vt 0.453333 0.880000
vt 0.546667 0.880000
vt 0.500000 0.786667
vt 0.453333 0.880000
vt 0.546667 0.880000
vt 0.500000 0.786667
vt 0.453333 0.880000
vt 0.546667 0.880000
vt 0.500000 0.786667
vt 0.453333 0.880000
vt 0.546667 0.880000
vt 0.500000 0.786667
vt 0.453333 0.880000
vt 0.546667 0.880000
vt 0.500000 0.786667
vt 0.453333 0.880000
vt 0.546667 0.880000
vt 0.500000 0.786667
vt 0.453333 0.880000
vt 0.546667 0.880000
vt 0.500000 0.786667
vt 0.453333 0.880000
vt 0.546667 0.880000
vt 0.500000 0.786667
vt 0.453333 0.880000
vt 0.546667 0.880000
vt 0.500000 0.786667
vt 0.453333 0.880000
vt 0.546667 0.880000
vt 0.500000 0.786667
vt 0.453333 0.880000
vt 0.546667 0.880000
vt 0.500000 0.786667
vt 0.453333 0.880000
vt 0.546667 0.880000
vt 0.500000 0.786667
vt 0.453333 0.880000
vt 0.546667 0.880000
vt 0.500000 0.786667
vt 0.453333 0.880000
vt 0.546667 0.880000
vt 0.500000 0.786667
vt 0.453333 0.880000
vt 0.546667 0.880000
vt 0.500000 0.786667
vt 0.453333 0.880000
vt 0.546667 0.880000
vt 0.500000 0.786667
vt 0.453333 0.880000
vt 0.546667 0.880000
vt 0.500000 0.786667
vt 0.453333 0.880000
vt 0.546667 0.880000
vt 0.500000 0.786667
vt 0.453333 0.880000
vt 0.546667 0.880000
vt 0.500000 0.786667
vt 0.453333 0.880000
vt 0.546667 0.880000
vt 0.500000 0.786667
vt 0.453333 0.880000
vt 0.546667 0.880000
vt 0.500000 0.786667
vt 0.453333 0.880000
vt 0.546667 0.880000
vt 0.500000 0.786667
vt 0.453333 0.880000
vt 0.546667 0.880000
vt 0.500000 0.786667
vt 0.453333 0.880000
vt 0.546667 0.880000
vt 0.500000 0.786667
vt 0.453333 0.880000
vt 0.546667 0.880000
vt 0.500000 0.786667
vt 0.453333 0.880000
vt 0.546667 0.880000
vt 0.500000 0.786667
vt 0.453333 0.880000
vt 0.546667 0.880000
vt 0.500000 0.786667
vt 0.453333 0.880000
vt 0.546667 0.880000
vt 0.500000 0.786667
vt 0.453333 0.880000
vt 0.546667 0.880000
vt 0.500000 0.786667
vt 0.453333 0.880000
vt 0.546667 0.880000
vt 0.500000 0.786667
vt 0.453333 0.880000
vt 0.546667 0.880000
vt 0.500000 0.786667
vn -0.943947 -0.122445 -0.306549
vn -0.464578 0.741594 -0.483948
vn -0.914573 0.101452 -0.391489
vn -0.464578 0.741594 -0.483948
vn -0.241784 0.829584 -0.503319
vn -0.914573 0.101452 -0.391489
vn -0.464578 0.741594 -0.483948
vn 0.440708 0.893511 -0.086113
vn -0.241784 0.829584 -0.503319
vn 0.440708 0.893511 -0.086113
vn 0.679261 0.723401 -0.123676
vn -0.241784 0.829584 -0.503319
vn 0.440708 0.893511 -0.086113
vn 0.897756 0.160355 0.410268
vn 0.679261 0.723401 -0.123676
vn 0.897756 0.160355 0.410268
vn 0.923332 -0.112729 0.367084
vn 0.679261 0.723401 -0.123676
vn 0.897756 0.160355 0.410268
vn 0.451500 -0.730939 0.511738
vn 0.923332 -0.112729 0.367084
vn 0.451500 -0.730939 0.511738
vn 0.251410 -0.840898 0.479253
vn 0.923332 -0.112729 0.367084
vn 0.451500 -0.730939 0.511738
vn -0.453520 -0.883992 0.113485
vn 0.251410 -0.840898 0.479253
vn -0.453520 -0.883992 0.113485
vn -0.670259 -0.735385 0.099809
vn 0.251410 -0.840898 0.479253
vn -0.453520 -0.883992 0.113485
vn -0.943947 -0.122445 -0.306549
vn -0.670259 -0.735385 0.099809
vn -0.943947 -0.122445 -0.306549
vn -0.914573 0.101452 -0.391489
vn -0.670259 -0.735385 0.099809
vn -0.914573 0.101452 -0.391489
vn -0.241784 0.829584 -0.503319
vn -0.820400 0.324300 -0.470929
vn -0.241784 0.829584 -0.503319
vn 0.044489 0.820844 -0.569417
vn -0.820400 0.324300 -0.470929
vn -0.241784 0.829584 -0.503319
vn 0.679261 0.723401 -0.123676
vn 0.044489 0.820844 -0.569417
vn 0.679261 0.723401 -0.123676
vn 0.864666 0.488452 -0.117335
vn 0.044489 0.820844 -0.569417
vn 0.679261 0.723401 -0.123676
vn 0.923332 -0.112729 0.367084
vn 0.864666 0.488452 -0.117335
vn 0.923332 -0.112729 0.367084
vn 0.829851 -0.341584 0.441211
vn 0.864666 0.488452 -0.117335
vn 0.923332 -0.112729 0.367084
vn 0.251410 -0.840898 0.479253
vn 0.829851 -0.341584 0.441211
vn 0.251410 -0.840898 0.479253
vn -0.036056 -0.838137 0.544266
vn 0.829851 -0.341584 0.441211
vn 0.251410 -0.840898 0.479253
vn -0.670259 -0.735385 0.099809
vn -0.036056 -0.838137 0.544266
vn -0.670259 -0.735385 0.099809
vn -0.858395 -0.504841 0.091067
vn -0.036056 -0.838137 0.544266
vn -0.670259 -0.735385 0.099809
vn -0.914573 0.101452 -0.391489
vn -0.858395 -0.504841 0.091067
vn -0.914573 0.101452 -0.391489
vn -0.820400 0.324300 -0.470929
vn -0.858395 -0.504841 0.091067
vn -0.943947 -0.122445 -0.306549
vn 0.440708 0.893511 -0.086113
vn -0.464578 0.741594 -0.483948
vn -0.820400 0.324300 -0.470929
vn 0.044489 0.820844 -0.569417
vn 0.864666 0.488452 -0.117335
vn -0.943947 -0.122445 -0.306549
vn 0.897756 0.160355 0.410268
vn 0.440708 0.893511 -0.086113
vn -0.820400 0.324300 -0.470929
vn 0.864666 0.488452 -0.117335
vn 0.829851 -0.341584 0.441211
vn -0.943947 -0.122445 -0.306549
vn 0.451500 -0.730939 0.511738
vn 0.897756 0.160355 0.410268
vn -0.820400 0.324300 -0.470929
vn 0.829851 -0.341584 0.441211
vn -0.036056 -0.838137 0.544266
vn -0.943947 -0.122445 -0.306549
vn -0.453520 -0.883992 0.113485
vn 0.451500 -0.730939 0.511738
vn -0.820400 0.324300 -0.470929
vn -0.036056 -0.838137 0.544266
vn -0.858395 -0.504841 0.091067
usemtl Dragon_color_atlas
f 1/1/1 2/2/2 3/3/3
f 4/4/4 5/5/5 6/6/6
f 7/7/7 8/8/8 9/9/9
f 10/10/10 11/11/11 12/12/12
f 13/13/13 14/14/14 15/15/15
f 16/16/16 17/17/17 18/18/18
f 19/19/19 20/20/20 21/21/21
f 22/22/22 23/23/23 24/24/24
f 25/25/25 26/26/26 27/27/27
f 28/28/28 29/29/29 30/30/30
f 31/31/31 32/32/32 33/33/33
f 34/34/34 35/35/35 36/36/36
f 37/37/37 38/38/38 39/39/39
f 40/40/40 41/41/41 42/42/42
f 43/43/43 44/44/44 45/45/45
f 46/46/46 47/47/47 48/48/48
f 49/49/49 50/50/50 51/51/51
f 52/52/52 53/53/53 54/54/54
f 55/55/55 56/56/56 57/57/57
f 58/58/58 59/59/59 60/60/60
f 61/61/61 62/62/62 63/63/63
f 64/64/64 65/65/65 66/66/66
f 67/67/67 68/68/68 69/69/69
f 70/70/70 71/71/71 72/72/72
f 73/73/73 74/74/74 75/75/75
f 76/76/76 77/77/77 78/78/78
f 79/79/79 80/80/80 81/81/81
f 82/82/82 83/83/83 84/84/84
f 85/85/85 86/86/86 87/87/87
f 88/88/88 89/89/89 90/90/90
f 91/91/91 92/92/92 93/93/93
f 94/94/94 95/95/95 96/96/96
