# Obsidian West — joint-local part geometry, +Y up, +Z forward
mtllib materials.mtl
o R_Wing_Finger_4
v -0.109871 -0.000000 -0.005327
v -0.052540 0.081412 -0.052073
v 0.030453 -1.310000 -2.156208
v -0.052540 0.081412 -0.052073
v 0.068695 -1.255323 -2.188208
v 0.030453 -1.310000 -2.156208
v -0.052540 0.081412 -0.052073
v 0.057331 0.081412 -0.046747
v 0.068695 -1.255323 -2.188208
v 0.057331 0.081412 -0.046747
v 0.142642 -1.255323 -2.185400
v 0.068695 -1.255323 -2.188208
v 0.057331 0.081412 -0.046747
v 0.109871 -0.000000 0.005327
v 0.142642 -1.255323 -2.185400
v 0.109871 -0.000000 0.005327
v 0.178347 -1.310000 -2.150592
v 0.142642 -1.255323 -2.185400
v 0.109871 -0.000000 0.005327
v 0.052540 -0.081412 0.052073
v 0.178347 -1.310000 -2.150592
v 0.052540 -0.081412 0.052073
v 0.140105 -1.364677 -2.118592
v 0.178347 -1.310000 -2.150592
v 0.052540 -0.081412 0.052073
v -0.057331 -0.081412 0.046747
v 0.140105 -1.364677 -2.118592
v -0.057331 -0.081412 0.046747
v 0.066158 -1.364677 -2.121400
v 0.140105 -1.364677 -2.118592
v -0.057331 -0.081412 0.046747
v -0.109871 -0.000000 -0.005327
v 0.066158 -1.364677 -2.121400
v -0.109871 -0.000000 -0.005327
v 0.030453 -1.310000 -2.156208
v 0.066158 -1.364677 -2.121400
v 0.030453 -1.310000 -2.156208
v 0.068695 -1.255323 -2.188208
v 0.164007 -2.900000 -4.740468
v 0.068695 -1.255323 -2.188208
v 0.172215 -2.888194 -4.747485
v 0.164007 -2.900000 -4.740468
v 0.068695 -1.255323 -2.188208
v 0.142642 -1.255323 -2.185400
v 0.172215 -2.888194 -4.747485
v 0.142642 -1.255323 -2.185400
v 0.188209 -2.888194 -4.747017
v 0.172215 -2.888194 -4.747485
v 0.142642 -1.255323 -2.185400
v 0.178347 -1.310000 -2.150592
v 0.188209 -2.888194 -4.747017
v 0.178347 -1.310000 -2.150592
v 0.195993 -2.900000 -4.739532
v 0.188209 -2.888194 -4.747017
v 0.178347 -1.310000 -2.150592
v 0.140105 -1.364677 -2.118592
v 0.195993 -2.900000 -4.739532
v 0.140105 -1.364677 -2.118592
v 0.187785 -2.911806 -4.732515
v 0.195993 -2.900000 -4.739532
v 0.140105 -1.364677 -2.118592
v 0.066158 -1.364677 -2.121400
v 0.187785 -2.911806 -4.732515
v 0.066158 -1.364677 -2.121400
v 0.171792 -2.911806 -4.732983
v 0.187785 -2.911806 -4.732515
v 0.066158 -1.364677 -2.121400
v 0.030453 -1.310000 -2.156208
v 0.171792 -2.911806 -4.732983
v 0.030453 -1.310000 -2.156208
v 0.164007 -2.900000 -4.740468
v 0.171792 -2.911806 -4.732983
v -0.109871 -0.000000 -0.005327
v 0.057331 0.081412 -0.046747
v -0.052540 0.081412 -0.052073
v 0.164007 -2.900000 -4.740468
v 0.172215 -2.888194 -4.747485
v 0.188209 -2.888194 -4.747017
v -0.109871 -0.000000 -0.005327
v 0.109871 -0.000000 0.005327
v 0.057331 0.081412 -0.046747
v 0.164007 -2.900000 -4.740468
v 0.188209 -2.888194 -4.747017
v 0.195993 -2.900000 -4.739532
v -0.109871 -0.000000 -0.005327
v 0.052540 -0.081412 0.052073
v 0.109871 -0.000000 0.005327
v 0.164007 -2.900000 -4.740468
v 0.195993 -2.900000 -4.739532
v 0.187785 -2.911806 -4.732515
v -0.109871 -0.000000 -0.005327
v -0.057331 -0.081412 0.046747
v 0.052540 -0.081412 0.052073
v 0.164007 -2.900000 -4.740468
v 0.187785 -2.911806 -4.732515
v 0.171792 -2.911806 -4.732983
vt 0.453333 0.880000
vt 0.546667 0.880000
vt 0.500000 0.786667
vt 0.453333 0.880000
vt 0.546667 0.880000
vt 0.500000 0.786667
vt 0.453333 0.880000
vt 0.546667 0.880000
vt 0.500000 0.786667
vt 0.453333 0.880000
vt 0.546667 0.880000
vt 0.500000 0.786667
vt 0.453333 0.880000
vt 0.546667 0.880000
vt 0.500000 0.786667
vt 0.453333 0.880000
vt 0.546667 0.880000
vt 0.500000 0.786667
vt 0.453333 0.880000
vt 0.546667 0.880000
vt 0.500000 0.786667
vt 0.453333 0.880000
vt 0.546667 0.880000
vt 0.500000 0.786667
vt 0.453333 0.880000
vt 0.546667 0.880000
vt 0.500000 0.786667
vt 0.453333 0.880000
vt 0.546667 0.880000
vt 0.500000 0.786667
vt 0.453333 0.880000
vt 0.546667 0.880000
vt 0.500000 0.786667
vt 0.453333 0.880000
vt 0.546667 0.880000
vt 0.500000 0.786667
vt 0.453333 0.880000
vt 0.546667 0.880000
vt 0.500000 0.786667
vt 0.453333 0.880000
vt 0.546667 0.880000
vt 0.500000 0.786667
vt 0.453333 0.880000
vt 0.546667 0.880000
vt 0.500000 0.786667
vt 0.453333 0.880000
vt 0.546667 0.880000
vt 0.500000 0.786667
vt 0.453333 0.880000
vt 0.546667 0.880000
vt 0.500000 0.786667
vt 0.453333 0.880000
vt 0.546667 0.880000
vt 0.500000 0.786667
vt 0.453333 0.880000
vt 0.546667 0.880000
vt 0.500000 0.786667
vt 0.453333 0.880000
vt 0.546667 0.880000
vt 0.500000 0.786667
vt 0.453333 0.880000
vt 0.546667 0.880000
vt 0.500000 0.786667
vt 0.453333 0.880000
vt 0.546667 0.880000
vt 0.500000 0.786667
vt 0.453333 0.880000
vt 0.546667 0.880000
vt 0.500000 0.786667
vt 0.453333 0.880000
vt 0.546667 0.880000
vt 0.500000 0.786667
vt 0.453333 0.880000
vt 0.546667 0.880000
vt 0.500000 0.786667
vt 0.453333 0.880000
vt 0.546667 0.880000
vt 0.500000 0.786667
vt 0.453333 0.880000
vt 0.546667 0.880000
vt 0.500000 0.786667
vt 0.453333 0.880000
vt 0.546667 0.880000
vt 0.500000 0.786667
vt 0.453333 0.880000
vt 0.546667 0.880000
vt 0.500000 0.786667
vt 0.453333 0.880000
vt 0.546667 0.880000
vt 0.500000 0.786667
vt 0.453333 0.880000
vt 0.546667 0.880000
vt 0.500000 0.786667
vt 0.453333 0.880000
vt 0.546667 0.880000
vt 0.500000 0.786667
vn -0.991920 -0.080869 0.097752
vn -0.600122 0.671225 -0.435098
vn -0.989580 0.089324 -0.112928
vn -0.600122 0.671225 -0.435098
vn -0.377607 0.775183 -0.506462
vn -0.989580 0.089324 -0.112928
vn -0.600122 0.671225 -0.435098
vn 0.390210 0.811653 -0.434691
vn -0.377607 0.775183 -0.506462
vn 0.390210 0.811653 -0.434691
vn 0.612525 0.677385 -0.407384
vn -0.377607 0.775183 -0.506462
vn 0.390210 0.811653 -0.434691
vn 0.988543 0.150129 0.015611
vn 0.612525 0.677385 -0.407384
vn 0.988543 0.150129 0.015611
vn 0.990683 -0.106237 0.085207
vn 0.612525 0.677385 -0.407384
vn 0.988543 0.150129 0.015611
vn 0.598276 -0.651998 0.465793
vn 0.990683 -0.106237 0.085207
vn 0.598276 -0.651998 0.465793
vn 0.378753 -0.792066 0.478725
vn 0.990683 -0.106237 0.085207
vn 0.598276 -0.651998 0.465793
vn -0.391929 -0.793291 0.465920
vn 0.378753 -0.792066 0.478725
vn -0.391929 -0.793291 0.465920
vn -0.611371 -0.694314 0.379675
vn 0.378753 -0.792066 0.478725
vn -0.391929 -0.793291 0.465920
vn -0.991920 -0.080869 0.097752
vn -0.611371 -0.694314 0.379675
vn -0.991920 -0.080869 0.097752
vn -0.989580 0.089324 -0.112928
vn -0.611371 -0.694314 0.379675
vn -0.989580 0.089324 -0.112928
vn -0.377607 0.775183 -0.506462
vn -0.919264 0.309566 -0.243152
vn -0.377607 0.775183 -0.506462
vn -0.120855 0.834235 -0.538001
vn -0.919264 0.309566 -0.243152
vn -0.377607 0.775183 -0.506462
vn 0.612525 0.677385 -0.407384
vn -0.120855 0.834235 -0.538001
vn 0.612525 0.677385 -0.407384
vn 0.798981 0.512290 -0.314943
vn -0.120855 0.834235 -0.538001
vn 0.612525 0.677385 -0.407384
vn 0.990683 -0.106237 0.085207
vn 0.798981 0.512290 -0.314943
vn 0.990683 -0.106237 0.085207
vn 0.920420 -0.331853 0.206640
vn 0.798981 0.512290 -0.314943
vn 0.990683 -0.106237 0.085207
vn 0.378753 -0.792066 0.478725
vn 0.920420 -0.331853 0.206640
vn 0.378753 -0.792066 0.478725
vn 0.122011 -0.854274 0.505302
vn 0.920420 -0.331853 0.206640
vn 0.378753 -0.792066 0.478725
vn -0.611371 -0.694314 0.379675
vn 0.122011 -0.854274 0.505302
vn -0.611371 -0.694314 0.379675
vn -0.798018 -0.532424 0.282298
vn 0.122011 -0.854274 0.505302
vn -0.611371 -0.694314 0.379675
vn -0.989580 0.089324 -0.112928
vn -0.798018 -0.532424 0.282298
vn -0.989580 0.089324 -0.112928
vn -0.919264 0.309566 -0.243152
vn -0.798018 -0.532424 0.282298
vn -0.991920 -0.080869 0.097752
vn 0.390210 0.811653 -0.434691
vn -0.600122 0.671225 -0.435098
vn -0.919264 0.309566 -0.243152
vn -0.120855 0.834235 -0.538001
vn 0.798981 0.512290 -0.314943
vn -0.991920 -0.080869 0.097752
vn 0.988543 0.150129 0.015611
vn 0.390210 0.811653 -0.434691
vn -0.919264 0.309566 -0.243152
vn 0.798981 0.512290 -0.314943
vn 0.920420 -0.331853 0.206640
vn -0.991920 -0.080869 0.097752
vn 0.598276 -0.651998 0.465793
vn 0.988543 0.150129 0.015611
vn -0.919264 0.309566 -0.243152
vn 0.920420 -0.331853 0.206640
vn 0.122011 -0.854274 0.505302
vn -0.991920 -0.080869 0.097752
vn -0.391929 -0.793291 0.465920
vn 0.598276 -0.651998 0.465793
vn -0.919264 0.309566 -0.243152
vn 0.122011 -0.854274 0.505302
vn -0.798018 -0.532424 0.282298
usemtl Dragon_color_atlas
f 1/1/1 2/2/2 3/3/3
f 4/4/4 5/5/5 6/6/6
f 7/7/7 8/8/8 9/9/9
f 10/10/10 11/11/11 12/12/12
f 13/13/13 14/14/14 15/15/15
f 16/16/16 17/17/17 18/18/18
f 19/19/19 20/20/20 21/21/21
f 22/22/22 23/23/23 24/24/24
f 25/25/25 26/26/26 27/27/27
f 28/28/28 29/29/29 30/30/30
f 31/31/31 32/32/32 33/33/33
f 34/34/34 35/35/35 36/36/36
f 37/37/37 38/38/38 39/39/39
f 40/40/40 41/41/41 42/42/42
f 43/43/43 44/44/44 45/45/45
f 46/46/46 47/47/47 48/48/48
f 49/49/49 50/50/50 51/51/51
f 52/52/52 53/53/53 54/54/54
f 55/55/55 56/56/56 57/57/57
f 58/58/58 59/59/59 60/60/60
f 61/61/61 62/62/62 63/63/63
f 64/64/64 65/65/65 66/66/66
f 67/67/67 68/68/68 69/69/69
f 70/70/70 71/71/71 72/72/72
f 73/73/73 74/74/74 75/75/75
f 76/76/76 77/77/77 78/78/78
f 79/79/79 80/80/80 81/81/81
f 82/82/82 83/83/83 84/84/84
f 85/85/85 86/86/86 87/87/87
f 88/88/88 89/89/89 90/90/90
f 91/91/91 92/92/92 93/93/93
f 94/94/94 95/95/95 96/96/96
