# Obsidian West — joint-local part geometry, +Y up, +Z forward
mtllib materials.mtl
o R_Wing_Hand
v 0.010000 0.490000 0.030000
v -0.167892 0.445436 0.030000
v -0.115789 0.445436 0.177265
v 0.010000 0.490000 0.030000
v -0.115789 0.445436 0.177265
v 0.010000 0.445436 0.238264
v 0.010000 0.490000 0.030000
v 0.010000 0.445436 0.238264
v 0.135789 0.445436 0.177265
v 0.010000 0.490000 0.030000
v 0.135789 0.445436 0.177265
v 0.187892 0.445436 0.030000
v 0.010000 0.490000 0.030000
v 0.187892 0.445436 0.030000
v 0.135789 0.445436 -0.117265
v 0.010000 0.490000 0.030000
v 0.135789 0.445436 -0.117265
v 0.010000 0.445436 -0.178264
v 0.010000 0.490000 0.030000
v 0.010000 0.445436 -0.178264
v -0.115789 0.445436 -0.117265
v 0.010000 0.490000 0.030000
v -0.115789 0.445436 -0.117265
v -0.167892 0.445436 0.030000
v -0.115789 0.445436 0.177265
v -0.167892 0.445436 0.030000
v -0.216664 0.320570 0.295362
v -0.167892 0.445436 0.030000
v -0.310551 0.320570 0.030000
v -0.216664 0.320570 0.295362
v 0.010000 0.445436 0.238264
v -0.115789 0.445436 0.177265
v 0.010000 0.320570 0.405279
v -0.115789 0.445436 0.177265
v -0.216664 0.320570 0.295362
v 0.010000 0.320570 0.405279
v 0.135789 0.445436 0.177265
v 0.010000 0.445436 0.238264
v 0.236664 0.320570 0.295362
v 0.010000 0.445436 0.238264
v 0.010000 0.320570 0.405279
v 0.236664 0.320570 0.295362
v 0.187892 0.445436 0.030000
v 0.135789 0.445436 0.177265
v 0.330551 0.320570 0.030000
v 0.135789 0.445436 0.177265
v 0.236664 0.320570 0.295362
v 0.330551 0.320570 0.030000
v 0.135789 0.445436 -0.117265
v 0.187892 0.445436 0.030000
v 0.236664 0.320570 -0.235362
v 0.187892 0.445436 0.030000
v 0.330551 0.320570 0.030000
v 0.236664 0.320570 -0.235362
v 0.010000 0.445436 -0.178264
v 0.135789 0.445436 -0.117265
v 0.010000 0.320570 -0.345279
v 0.135789 0.445436 -0.117265
v 0.236664 0.320570 -0.235362
v 0.010000 0.320570 -0.345279
v -0.115789 0.445436 -0.117265
v 0.010000 0.445436 -0.178264
v -0.216664 0.320570 -0.235362
v 0.010000 0.445436 -0.178264
v 0.010000 0.320570 -0.345279
v -0.216664 0.320570 -0.235362
v -0.167892 0.445436 0.030000
v -0.115789 0.445436 -0.117265
v -0.310551 0.320570 0.030000
v -0.115789 0.445436 -0.117265
v -0.216664 0.320570 -0.235362
v -0.310551 0.320570 0.030000
v -0.216664 0.320570 0.295362
v -0.310551 0.320570 0.030000
v -0.272645 0.140134 0.360902
v -0.310551 0.320570 0.030000
v -0.389720 0.140134 0.030000
v -0.272645 0.140134 0.360902
v 0.010000 0.320570 0.405279
v -0.216664 0.320570 0.295362
v 0.010000 0.140134 0.497965
v -0.216664 0.320570 0.295362
v -0.272645 0.140134 0.360902
v 0.010000 0.140134 0.497965
v 0.236664 0.320570 0.295362
v 0.010000 0.320570 0.405279
v 0.292645 0.140134 0.360902
v 0.010000 0.320570 0.405279
v 0.010000 0.140134 0.497965
v 0.292645 0.140134 0.360902
v 0.330551 0.320570 0.030000
v 0.236664 0.320570 0.295362
v 0.409720 0.140134 0.030000
v 0.236664 0.320570 0.295362
v 0.292645 0.140134 0.360902
v 0.409720 0.140134 0.030000
v 0.236664 0.320570 -0.235362
v 0.330551 0.320570 0.030000
v 0.292645 0.140134 -0.300902
v 0.330551 0.320570 0.030000
v 0.409720 0.140134 0.030000
v 0.292645 0.140134 -0.300902
v 0.010000 0.320570 -0.345279
v 0.236664 0.320570 -0.235362
v 0.010000 0.140134 -0.437965
v 0.236664 0.320570 -0.235362
v 0.292645 0.140134 -0.300902
v 0.010000 0.140134 -0.437965
v -0.216664 0.320570 -0.235362
v 0.010000 0.320570 -0.345279
v -0.272645 0.140134 -0.300902
v 0.010000 0.320570 -0.345279
v 0.010000 0.140134 -0.437965
v -0.272645 0.140134 -0.300902
v -0.310551 0.320570 0.030000
v -0.216664 0.320570 -0.235362
v -0.389720 0.140134 0.030000
v -0.216664 0.320570 -0.235362
v -0.272645 0.140134 -0.300902
v -0.389720 0.140134 0.030000
v -0.272645 0.140134 0.360902
v -0.389720 0.140134 0.030000
v -0.272645 -0.060135 0.360902
v -0.389720 0.140134 0.030000
v -0.389720 -0.060135 0.030000
v -0.272645 -0.060135 0.360902
v 0.010000 0.140134 0.497965
v -0.272645 0.140134 0.360902
v 0.010000 -0.060135 0.497965
v -0.272645 0.140134 0.360902
v -0.272645 -0.060135 0.360902
v 0.010000 -0.060135 0.497965
v 0.292645 0.140134 0.360902
v 0.010000 0.140134 0.497965
v 0.292645 -0.060135 0.360902
v 0.010000 0.140134 0.497965
v 0.010000 -0.060135 0.497965
v 0.292645 -0.060135 0.360902
v 0.409720 0.140134 0.030000
v 0.292645 0.140134 0.360902
v 0.409720 -0.060135 0.030000
v 0.292645 0.140134 0.360902
v 0.292645 -0.060135 0.360902
v 0.409720 -0.060135 0.030000
v 0.292645 0.140134 -0.300902
v 0.409720 0.140134 0.030000
v 0.292645 -0.060135 -0.300902
v 0.409720 0.140134 0.030000
v 0.409720 -0.060135 0.030000
v 0.292645 -0.060135 -0.300902
v 0.010000 0.140134 -0.437965
v 0.292645 0.140134 -0.300902
v 0.010000 -0.060135 -0.437965
v 0.292645 0.140134 -0.300902
v 0.292645 -0.060135 -0.300902
v 0.010000 -0.060135 -0.437965
v -0.272645 0.140134 -0.300902
v 0.010000 0.140134 -0.437965
v -0.272645 -0.060135 -0.300902
v 0.010000 0.140134 -0.437965
v 0.010000 -0.060135 -0.437965
v -0.272645 -0.060135 -0.300902
v -0.389720 0.140134 0.030000
v -0.272645 0.140134 -0.300902
v -0.389720 -0.060135 0.030000
v -0.272645 0.140134 -0.300902
v -0.272645 -0.060135 -0.300902
v -0.389720 -0.060135 0.030000
v -0.272645 -0.060135 0.360902
v -0.389720 -0.060135 0.030000
v -0.216664 -0.240570 0.295362
v -0.389720 -0.060135 0.030000
v -0.310551 -0.240570 0.030000
v -0.216664 -0.240570 0.295362
v 0.010000 -0.060135 0.497965
v -0.272645 -0.060135 0.360902
v 0.010000 -0.240570 0.405279
v -0.272645 -0.060135 0.360902
v -0.216664 -0.240570 0.295362
v 0.010000 -0.240570 0.405279
v 0.292645 -0.060135 0.360902
v 0.010000 -0.060135 0.497965
v 0.236664 -0.240570 0.295362
v 0.010000 -0.060135 0.497965
v 0.010000 -0.240570 0.405279
v 0.236664 -0.240570 0.295362
v 0.409720 -0.060135 0.030000
v 0.292645 -0.060135 0.360902
v 0.330551 -0.240570 0.030000
v 0.292645 -0.060135 0.360902
v 0.236664 -0.240570 0.295362
v 0.330551 -0.240570 0.030000
v 0.292645 -0.060135 -0.300902
v 0.409720 -0.060135 0.030000
v 0.236664 -0.240570 -0.235362
v 0.409720 -0.060135 0.030000
v 0.330551 -0.240570 0.030000
v 0.236664 -0.240570 -0.235362
v 0.010000 -0.060135 -0.437965
v 0.292645 -0.060135 -0.300902
v 0.010000 -0.240570 -0.345279
v 0.292645 -0.060135 -0.300902
v 0.236664 -0.240570 -0.235362
v 0.010000 -0.240570 -0.345279
v -0.272645 -0.060135 -0.300902
v 0.010000 -0.060135 -0.437965
v -0.216664 -0.240570 -0.235362
v 0.010000 -0.060135 -0.437965
v 0.010000 -0.240570 -0.345279
v -0.216664 -0.240570 -0.235362
v -0.389720 -0.060135 0.030000
v -0.272645 -0.060135 -0.300902
v -0.310551 -0.240570 0.030000
v -0.272645 -0.060135 -0.300902
v -0.216664 -0.240570 -0.235362
v -0.310551 -0.240570 0.030000
v -0.216664 -0.240570 0.295362
v -0.310551 -0.240570 0.030000
v -0.115789 -0.365436 0.177265
v -0.310551 -0.240570 0.030000
v -0.167892 -0.365436 0.030000
v -0.115789 -0.365436 0.177265
v 0.010000 -0.240570 0.405279
v -0.216664 -0.240570 0.295362
v 0.010000 -0.365436 0.238264
v -0.216664 -0.240570 0.295362
v -0.115789 -0.365436 0.177265
v 0.010000 -0.365436 0.238264
v 0.236664 -0.240570 0.295362
v 0.010000 -0.240570 0.405279
v 0.135789 -0.365436 0.177265
v 0.010000 -0.240570 0.405279
v 0.010000 -0.365436 0.238264
v 0.135789 -0.365436 0.177265
v 0.330551 -0.240570 0.030000
v 0.236664 -0.240570 0.295362
v 0.187892 -0.365436 0.030000
v 0.236664 -0.240570 0.295362
v 0.135789 -0.365436 0.177265
v 0.187892 -0.365436 0.030000
v 0.236664 -0.240570 -0.235362
v 0.330551 -0.240570 0.030000
v 0.135789 -0.365436 -0.117265
v 0.330551 -0.240570 0.030000
v 0.187892 -0.365436 0.030000
v 0.135789 -0.365436 -0.117265
v 0.010000 -0.240570 -0.345279
v 0.236664 -0.240570 -0.235362
v 0.010000 -0.365436 -0.178264
v 0.236664 -0.240570 -0.235362
v 0.135789 -0.365436 -0.117265
v 0.010000 -0.365436 -0.178264
v -0.216664 -0.240570 -0.235362
v 0.010000 -0.240570 -0.345279
v -0.115789 -0.365436 -0.117265
v 0.010000 -0.240570 -0.345279
v 0.010000 -0.365436 -0.178264
v -0.115789 -0.365436 -0.117265
v -0.310551 -0.240570 0.030000
v -0.216664 -0.240570 -0.235362
v -0.167892 -0.365436 0.030000
v -0.216664 -0.240570 -0.235362
v -0.115789 -0.365436 -0.117265
v -0.167892 -0.365436 0.030000
v -0.115789 -0.365436 0.177265
v -0.167892 -0.365436 0.030000
v 0.010000 -0.410000 0.030000
v 0.010000 -0.365436 0.238264
v -0.115789 -0.365436 0.177265
v 0.010000 -0.410000 0.030000
v 0.135789 -0.365436 0.177265
v 0.010000 -0.365436 0.238264
v 0.010000 -0.410000 0.030000
v 0.187892 -0.365436 0.030000
v 0.135789 -0.365436 0.177265
v 0.010000 -0.410000 0.030000
v 0.135789 -0.365436 -0.117265
v 0.187892 -0.365436 0.030000
v 0.010000 -0.410000 0.030000
v 0.010000 -0.365436 -0.178264
v 0.135789 -0.365436 -0.117265
v 0.010000 -0.410000 0.030000
v -0.115789 -0.365436 -0.117265
v 0.010000 -0.365436 -0.178264
v 0.010000 -0.410000 0.030000
v -0.167892 -0.365436 0.030000
v -0.115789 -0.365436 -0.117265
v 0.010000 -0.410000 0.030000
v -0.097518 0.140000 0.120005
v -0.196814 0.169384 0.014938
v -0.081593 0.740000 0.278938
v -0.196814 0.169384 0.014938
v -0.148523 0.787740 0.189492
v -0.081593 0.740000 0.278938
v -0.196814 0.169384 0.014938
v -0.343691 0.176642 0.026636
v -0.148523 0.787740 0.189492
v -0.343691 0.176642 0.026636
v -0.269276 0.799530 0.183261
v -0.148523 0.787740 0.189492
v -0.343691 0.176642 0.026636
v -0.427547 0.156307 0.146289
v -0.269276 0.799530 0.183261
v -0.427547 0.156307 0.146289
v -0.352923 0.766494 0.264937
v -0.269276 0.799530 0.183261
v -0.427547 0.156307 0.146289
v -0.385237 0.123693 0.283798
v -0.352923 0.766494 0.264937
v -0.385237 0.123693 0.283798
v -0.336477 0.713507 0.373016
v -0.352923 0.766494 0.264937
v -0.385237 0.123693 0.283798
v -0.248621 0.103359 0.335614
v -0.336477 0.713507 0.373016
v -0.248621 0.103359 0.335614
v -0.232321 0.680469 0.426112
v -0.336477 0.713507 0.373016
v -0.248621 0.103359 0.335614
v -0.120574 0.110616 0.262719
v -0.232321 0.680469 0.426112
v -0.120574 0.110616 0.262719
v -0.118887 0.692260 0.384244
v -0.232321 0.680469 0.426112
v -0.120574 0.110616 0.262719
v -0.097518 0.140000 0.120005
v -0.118887 0.692260 0.384244
v -0.097518 0.140000 0.120005
v -0.081593 0.740000 0.278938
v -0.118887 0.692260 0.384244
v -0.081593 0.740000 0.278938
v -0.148523 0.787740 0.189492
v -0.090411 1.100000 0.620946
v -0.148523 0.787740 0.189492
v -0.133115 1.152948 0.567067
v -0.090411 1.100000 0.620946
v -0.148523 0.787740 0.189492
v -0.269276 0.799530 0.183261
v -0.133115 1.152948 0.567067
v -0.269276 0.799530 0.183261
v -0.218655 1.166026 0.560577
v -0.133115 1.152948 0.567067
v -0.269276 0.799530 0.183261
v -0.352923 0.766494 0.264937
v -0.218655 1.166026 0.560577
v -0.352923 0.766494 0.264937
v -0.282617 1.129384 0.606364
v -0.218655 1.166026 0.560577
v -0.352923 0.766494 0.264937
v -0.336477 0.713507 0.373016
v -0.282617 1.129384 0.606364
v -0.336477 0.713507 0.373016
v -0.276837 1.070616 0.669950
v -0.282617 1.129384 0.606364
v -0.336477 0.713507 0.373016
v -0.232321 0.680469 0.426112
v -0.276837 1.070616 0.669950
v -0.232321 0.680469 0.426112
v -0.205666 1.033975 0.703452
v -0.276837 1.070616 0.669950
v -0.232321 0.680469 0.426112
v -0.118887 0.692260 0.384244
v -0.205666 1.033975 0.703452
v -0.118887 0.692260 0.384244
v -0.122699 1.047052 0.681643
v -0.205666 1.033975 0.703452
v -0.118887 0.692260 0.384244
v -0.081593 0.740000 0.278938
v -0.122699 1.047052 0.681643
v -0.081593 0.740000 0.278938
v -0.090411 1.100000 0.620946
v -0.122699 1.047052 0.681643
v -0.097518 0.140000 0.120005
v -0.343691 0.176642 0.026636
v -0.196814 0.169384 0.014938
v -0.090411 1.100000 0.620946
v -0.133115 1.152948 0.567067
v -0.218655 1.166026 0.560577
v -0.097518 0.140000 0.120005
v -0.427547 0.156307 0.146289
v -0.343691 0.176642 0.026636
v -0.090411 1.100000 0.620946
v -0.218655 1.166026 0.560577
v -0.282617 1.129384 0.606364
v -0.097518 0.140000 0.120005
v -0.385237 0.123693 0.283798
v -0.427547 0.156307 0.146289
v -0.090411 1.100000 0.620946
v -0.282617 1.129384 0.606364
v -0.276837 1.070616 0.669950
v -0.097518 0.140000 0.120005
v -0.248621 0.103359 0.335614
v -0.385237 0.123693 0.283798
v -0.090411 1.100000 0.620946
v -0.276837 1.070616 0.669950
v -0.205666 1.033975 0.703452
v -0.097518 0.140000 0.120005
v -0.120574 0.110616 0.262719
v -0.248621 0.103359 0.335614
v -0.090411 1.100000 0.620946
v -0.205666 1.033975 0.703452
v -0.122699 1.047052 0.681643
v -0.078058 1.100000 0.626389
v -0.155955 1.205160 0.611940
v -0.126295 1.150000 0.937559
v -0.155955 1.205160 0.611940
v -0.161935 1.189588 0.971569
v -0.126295 1.150000 0.937559
v -0.155955 1.205160 0.611940
v -0.280901 1.164993 0.622450
v -0.161935 1.189588 0.971569
v -0.280901 1.164993 0.622450
v -0.222540 1.174466 0.961952
v -0.161935 1.189588 0.971569
v -0.280901 1.164993 0.622450
v -0.280225 1.035007 0.643393
v -0.222540 1.174466 0.961952
v -0.280225 1.035007 0.643393
v -0.224356 1.125533 0.921998
v -0.222540 1.174466 0.961952
v -0.280225 1.035007 0.643393
v -0.154861 0.994840 0.645828
v -0.224356 1.125533 0.921998
v -0.154861 0.994840 0.645828
v -0.164874 1.110412 0.906922
v -0.224356 1.125533 0.921998
v -0.154861 0.994840 0.645828
v -0.078058 1.100000 0.626389
v -0.164874 1.110412 0.906922
v -0.078058 1.100000 0.626389
v -0.126295 1.150000 0.937559
v -0.164874 1.110412 0.906922
v -0.126295 1.150000 0.937559
v -0.161935 1.189588 0.971569
v -0.161027 0.740000 1.069310
v -0.161935 1.189588 0.971569
v -0.166601 0.742594 1.077920
v -0.161027 0.740000 1.069310
v -0.161935 1.189588 0.971569
v -0.222540 1.174466 0.961952
v -0.166601 0.742594 1.077920
v -0.222540 1.174466 0.961952
v -0.176873 0.741603 1.075585
v -0.166601 0.742594 1.077920
v -0.222540 1.174466 0.961952
v -0.224356 1.125533 0.921998
v -0.176873 0.741603 1.075585
v -0.224356 1.125533 0.921998
v -0.177646 0.738397 1.065532
v -0.176873 0.741603 1.075585
v -0.224356 1.125533 0.921998
v -0.164874 1.110412 0.906922
v -0.177646 0.738397 1.065532
v -0.164874 1.110412 0.906922
v -0.167853 0.737406 1.061654
v -0.177646 0.738397 1.065532
v -0.164874 1.110412 0.906922
v -0.126295 1.150000 0.937559
v -0.167853 0.737406 1.061654
v -0.126295 1.150000 0.937559
v -0.161027 0.740000 1.069310
v -0.167853 0.737406 1.061654
v -0.078058 1.100000 0.626389
v -0.280901 1.164993 0.622450
v -0.155955 1.205160 0.611940
v -0.161027 0.740000 1.069310
v -0.166601 0.742594 1.077920
v -0.176873 0.741603 1.075585
v -0.078058 1.100000 0.626389
v -0.280225 1.035007 0.643393
v -0.280901 1.164993 0.622450
v -0.161027 0.740000 1.069310
v -0.176873 0.741603 1.075585
v -0.177646 0.738397 1.065532
v -0.078058 1.100000 0.626389
v -0.154861 0.994840 0.645828
v -0.280225 1.035007 0.643393
v -0.161027 0.740000 1.069310
v -0.177646 0.738397 1.065532
v -0.167853 0.737406 1.061654
v 0.162482 0.140000 0.120005
v 0.062936 0.165351 0.014127
v 0.178407 0.840000 0.278938
v 0.062936 0.165351 0.014127
v 0.111314 0.885428 0.188417
v 0.178407 0.840000 0.278938
v 0.062936 0.165351 0.014127
v -0.084002 0.171613 0.025624
v 0.111314 0.885428 0.188417
v -0.084002 0.171613 0.025624
v -0.009480 0.896647 0.181920
v 0.111314 0.885428 0.188417
v -0.084002 0.171613 0.025624
v -0.167685 0.154069 0.145839
v -0.009480 0.896647 0.181920
v -0.167685 0.154069 0.145839
v -0.093014 0.865210 0.264340
v -0.009480 0.896647 0.181920
v -0.167685 0.154069 0.145839
v -0.125098 0.125931 0.284248
v -0.093014 0.865210 0.264340
v -0.125098 0.125931 0.284248
v -0.076386 0.814790 0.373612
v -0.093014 0.865210 0.264340
v -0.125098 0.125931 0.284248
v 0.011691 0.108387 0.336625
v -0.076386 0.814790 0.373612
v 0.011691 0.108387 0.336625
v 0.027883 0.783353 0.427453
v -0.076386 0.814790 0.373612
v 0.011691 0.108387 0.336625
v 0.139676 0.114649 0.263531
v 0.027883 0.783353 0.427453
v 0.139676 0.114649 0.263531
v 0.141277 0.794572 0.385319
v 0.027883 0.783353 0.427453
v 0.139676 0.114649 0.263531
v 0.162482 0.140000 0.120005
v 0.141277 0.794572 0.385319
v 0.162482 0.140000 0.120005
v 0.178407 0.840000 0.278938
v 0.141277 0.794572 0.385319
v 0.178407 0.840000 0.278938
v 0.111314 0.885428 0.188417
v 0.169589 1.160000 0.620946
v 0.111314 0.885428 0.188417
v 0.127176 1.216239 0.570267
v 0.169589 1.160000 0.620946
v 0.111314 0.885428 0.188417
v -0.009480 0.896647 0.181920
v 0.127176 1.216239 0.570267
v -0.009480 0.896647 0.181920
v 0.041708 1.230130 0.564568
v 0.127176 1.216239 0.570267
v -0.009480 0.896647 0.181920
v -0.093014 0.865210 0.264340
v 0.041708 1.230130 0.564568
v -0.093014 0.865210 0.264340
v -0.022456 1.191211 0.608140
v 0.041708 1.230130 0.564568
v -0.093014 0.865210 0.264340
v -0.076386 0.814790 0.373612
v -0.022456 1.191211 0.608140
v -0.076386 0.814790 0.373612
v -0.016998 1.128789 0.668174
v -0.022456 1.191211 0.608140
v -0.076386 0.814790 0.373612
v 0.027883 0.783353 0.427453
v -0.016998 1.128789 0.668174
v 0.027883 0.783353 0.427453
v 0.053971 1.089870 0.699462
v -0.016998 1.128789 0.668174
v 0.027883 0.783353 0.427453
v 0.141277 0.794572 0.385319
v 0.053971 1.089870 0.699462
v 0.141277 0.794572 0.385319
v 0.137010 1.103761 0.678443
v 0.053971 1.089870 0.699462
v 0.141277 0.794572 0.385319
v 0.178407 0.840000 0.278938
v 0.137010 1.103761 0.678443
v 0.178407 0.840000 0.278938
v 0.169589 1.160000 0.620946
v 0.137010 1.103761 0.678443
v 0.162482 0.140000 0.120005
v -0.084002 0.171613 0.025624
v 0.062936 0.165351 0.014127
v 0.169589 1.160000 0.620946
v 0.127176 1.216239 0.570267
v 0.041708 1.230130 0.564568
v 0.162482 0.140000 0.120005
v -0.167685 0.154069 0.145839
v -0.084002 0.171613 0.025624
v 0.169589 1.160000 0.620946
v 0.041708 1.230130 0.564568
v -0.022456 1.191211 0.608140
v 0.162482 0.140000 0.120005
v -0.125098 0.125931 0.284248
v -0.167685 0.154069 0.145839
v 0.169589 1.160000 0.620946
v -0.022456 1.191211 0.608140
v -0.016998 1.128789 0.668174
v 0.162482 0.140000 0.120005
v 0.011691 0.108387 0.336625
v -0.125098 0.125931 0.284248
v 0.169589 1.160000 0.620946
v -0.016998 1.128789 0.668174
v 0.053971 1.089870 0.699462
v 0.162482 0.140000 0.120005
v 0.139676 0.114649 0.263531
v 0.011691 0.108387 0.336625
v 0.169589 1.160000 0.620946
v 0.053971 1.089870 0.699462
v 0.137010 1.103761 0.678443
v 0.181942 1.160000 0.626389
v 0.104261 1.266024 0.618634
v 0.133705 1.190000 0.937559
v 0.104261 1.266024 0.618634
v 0.098112 1.228712 0.972610
v 0.133705 1.190000 0.937559
v 0.104261 1.266024 0.618634
v -0.020767 1.225526 0.626587
v 0.098112 1.228712 0.972610
v -0.020767 1.225526 0.626587
v 0.037489 1.213926 0.962595
v 0.098112 1.228712 0.972610
v -0.020767 1.225526 0.626587
v -0.020358 1.094474 0.639256
v 0.037489 1.213926 0.962595
v -0.020358 1.094474 0.639256
v 0.035615 1.166074 0.921354
v 0.037489 1.213926 0.962595
v -0.020358 1.094474 0.639256
v 0.104922 1.053976 0.639134
v 0.035615 1.166074 0.921354
v 0.104922 1.053976 0.639134
v 0.095079 1.151287 0.905881
v 0.035615 1.166074 0.921354
v 0.104922 1.053976 0.639134
v 0.181942 1.160000 0.626389
v 0.095079 1.151287 0.905881
v 0.181942 1.160000 0.626389
v 0.133705 1.190000 0.937559
v 0.095079 1.151287 0.905881
v 0.133705 1.190000 0.937559
v 0.098112 1.228712 0.972610
v 0.098973 0.780000 1.069310
v 0.098112 1.228712 0.972610
v 0.093399 0.782594 1.077920
v 0.098973 0.780000 1.069310
v 0.098112 1.228712 0.972610
v 0.037489 1.213926 0.962595
v 0.093399 0.782594 1.077920
v 0.037489 1.213926 0.962595
v 0.083127 0.781603 1.075585
v 0.093399 0.782594 1.077920
v 0.037489 1.213926 0.962595
v 0.035615 1.166074 0.921354
v 0.083127 0.781603 1.075585
v 0.035615 1.166074 0.921354
v 0.082354 0.778397 1.065532
v 0.083127 0.781603 1.075585
v 0.035615 1.166074 0.921354
v 0.095079 1.151287 0.905881
v 0.082354 0.778397 1.065532
v 0.095079 1.151287 0.905881
v 0.092147 0.777406 1.061654
v 0.082354 0.778397 1.065532
v 0.095079 1.151287 0.905881
v 0.133705 1.190000 0.937559
v 0.092147 0.777406 1.061654
v 0.133705 1.190000 0.937559
v 0.098973 0.780000 1.069310
v 0.092147 0.777406 1.061654
v 0.181942 1.160000 0.626389
v -0.020767 1.225526 0.626587
v 0.104261 1.266024 0.618634
v 0.098973 0.780000 1.069310
v 0.093399 0.782594 1.077920
v 0.083127 0.781603 1.075585
v 0.181942 1.160000 0.626389
v -0.020358 1.094474 0.639256
v -0.020767 1.225526 0.626587
v 0.098973 0.780000 1.069310
v 0.083127 0.781603 1.075585
v 0.082354 0.778397 1.065532
v 0.181942 1.160000 0.626389
v 0.104922 1.053976 0.639134
v -0.020358 1.094474 0.639256
v 0.098973 0.780000 1.069310
v 0.082354 0.778397 1.065532
v 0.092147 0.777406 1.061654
v 0.422482 0.140000 0.120005
v 0.322772 0.162278 0.013592
v 0.438407 0.940000 0.278938
v 0.322772 0.162278 0.013592
v 0.371172 0.983309 0.187488
v 0.438407 0.940000 0.278938
v 0.322772 0.162278 0.013592
v 0.175793 0.167780 0.024957
v 0.371172 0.983309 0.187488
v 0.175793 0.167780 0.024957
v 0.250344 0.994005 0.180762
v 0.371172 0.983309 0.187488
v 0.175793 0.167780 0.024957
v 0.092223 0.152363 0.145542
v 0.250344 0.994005 0.180762
v 0.092223 0.152363 0.145542
v 0.166907 0.964034 0.263824
v 0.250344 0.994005 0.180762
v 0.092223 0.152363 0.145542
v 0.134993 0.127637 0.284545
v 0.166907 0.964034 0.263824
v 0.134993 0.127637 0.284545
v 0.183693 0.915965 0.374128
v 0.166907 0.964034 0.263824
v 0.134993 0.127637 0.284545
v 0.271896 0.112220 0.337292
v 0.183693 0.915965 0.374128
v 0.271896 0.112220 0.337292
v 0.288060 0.885995 0.428611
v 0.183693 0.915965 0.374128
v 0.271896 0.112220 0.337292
v 0.399841 0.117722 0.264066
v 0.288060 0.885995 0.428611
v 0.399841 0.117722 0.264066
v 0.401418 0.896691 0.386248
v 0.288060 0.885995 0.428611
v 0.399841 0.117722 0.264066
v 0.422482 0.140000 0.120005
v 0.401418 0.896691 0.386248
v 0.422482 0.140000 0.120005
v 0.438407 0.940000 0.278938
v 0.401418 0.896691 0.386248
v 0.438407 0.940000 0.278938
v 0.371172 0.983309 0.187488
v 0.429589 1.220000 0.620946
v 0.371172 0.983309 0.187488
v 0.387524 1.279718 0.574101
v 0.429589 1.220000 0.620946
v 0.371172 0.983309 0.187488
v 0.250344 0.994005 0.180762
v 0.387524 1.279718 0.574101
v 0.250344 0.994005 0.180762
v 0.302142 1.294467 0.569348
v 0.387524 1.279718 0.574101
v 0.250344 0.994005 0.180762
v 0.166907 0.964034 0.263824
v 0.302142 1.294467 0.569348
v 0.166907 0.964034 0.263824
v 0.237738 1.253141 0.610268
v 0.302142 1.294467 0.569348
v 0.166907 0.964034 0.263824
v 0.183693 0.915965 0.374128
v 0.237738 1.253141 0.610268
v 0.183693 0.915965 0.374128
v 0.242809 1.186859 0.666046
v 0.237738 1.253141 0.610268
v 0.183693 0.915965 0.374128
v 0.288060 0.885995 0.428611
v 0.242809 1.186859 0.666046
v 0.288060 0.885995 0.428611
v 0.313536 1.145533 0.694681
v 0.242809 1.186859 0.666046
v 0.288060 0.885995 0.428611
v 0.401418 0.896691 0.386248
v 0.313536 1.145533 0.694681
v 0.401418 0.896691 0.386248
v 0.396661 1.160282 0.674610
v 0.313536 1.145533 0.694681
v 0.401418 0.896691 0.386248
v 0.438407 0.940000 0.278938
v 0.396661 1.160282 0.674610
v 0.438407 0.940000 0.278938
v 0.429589 1.220000 0.620946
v 0.396661 1.160282 0.674610
v 0.422482 0.140000 0.120005
v 0.175793 0.167780 0.024957
v 0.322772 0.162278 0.013592
v 0.429589 1.220000 0.620946
v 0.387524 1.279718 0.574101
v 0.302142 1.294467 0.569348
v 0.422482 0.140000 0.120005
v 0.092223 0.152363 0.145542
v 0.175793 0.167780 0.024957
v 0.429589 1.220000 0.620946
v 0.302142 1.294467 0.569348
v 0.237738 1.253141 0.610268
v 0.422482 0.140000 0.120005
v 0.134993 0.127637 0.284545
v 0.092223 0.152363 0.145542
v 0.429589 1.220000 0.620946
v 0.237738 1.253141 0.610268
v 0.242809 1.186859 0.666046
v 0.422482 0.140000 0.120005
v 0.271896 0.112220 0.337292
v 0.134993 0.127637 0.284545
v 0.429589 1.220000 0.620946
v 0.242809 1.186859 0.666046
v 0.313536 1.145533 0.694681
v 0.422482 0.140000 0.120005
v 0.399841 0.117722 0.264066
v 0.271896 0.112220 0.337292
v 0.429589 1.220000 0.620946
v 0.313536 1.145533 0.694681
v 0.396661 1.160282 0.674610
v 0.441942 1.220000 0.626389
v 0.364481 1.326463 0.625453
v 0.393705 1.230000 0.937559
v 0.364481 1.326463 0.625453
v 0.358156 1.267850 0.973584
v 0.393705 1.230000 0.937559
v 0.364481 1.326463 0.625453
v 0.239369 1.285798 0.630801
v 0.358156 1.267850 0.973584
v 0.239369 1.285798 0.630801
v 0.297517 1.253393 0.963197
v 0.358156 1.267850 0.973584
v 0.239369 1.285798 0.630801
v 0.239505 1.154202 0.635042
v 0.297517 1.253393 0.963197
v 0.239505 1.154202 0.635042
v 0.295587 1.206608 0.920753
v 0.297517 1.253393 0.963197
v 0.239505 1.154202 0.635042
v 0.364703 1.113537 0.632315
v 0.295587 1.206608 0.920753
v 0.364703 1.113537 0.632315
v 0.355035 1.192150 0.904908
v 0.295587 1.206608 0.920753
v 0.364703 1.113537 0.632315
v 0.441942 1.220000 0.626389
v 0.355035 1.192150 0.904908
v 0.441942 1.220000 0.626389
v 0.393705 1.230000 0.937559
v 0.355035 1.192150 0.904908
v 0.393705 1.230000 0.937559
v 0.358156 1.267850 0.973584
v 0.358973 0.820000 1.069310
v 0.358156 1.267850 0.973584
v 0.353399 0.822594 1.077920
v 0.358973 0.820000 1.069310
v 0.358156 1.267850 0.973584
v 0.297517 1.253393 0.963197
v 0.353399 0.822594 1.077920
v 0.297517 1.253393 0.963197
v 0.343127 0.821603 1.075585
v 0.353399 0.822594 1.077920
v 0.297517 1.253393 0.963197
v 0.295587 1.206608 0.920753
v 0.343127 0.821603 1.075585
v 0.295587 1.206608 0.920753
v 0.342354 0.818397 1.065532
v 0.343127 0.821603 1.075585
v 0.295587 1.206608 0.920753
v 0.355035 1.192150 0.904908
v 0.342354 0.818397 1.065532
v 0.355035 1.192150 0.904908
v 0.352147 0.817406 1.061654
v 0.342354 0.818397 1.065532
v 0.355035 1.192150 0.904908
v 0.393705 1.230000 0.937559
v 0.352147 0.817406 1.061654
v 0.393705 1.230000 0.937559
v 0.358973 0.820000 1.069310
v 0.352147 0.817406 1.061654
v 0.441942 1.220000 0.626389
v 0.239369 1.285798 0.630801
v 0.364481 1.326463 0.625453
v 0.358973 0.820000 1.069310
v 0.353399 0.822594 1.077920
v 0.343127 0.821603 1.075585
v 0.441942 1.220000 0.626389
v 0.239505 1.154202 0.635042
v 0.239369 1.285798 0.630801
v 0.358973 0.820000 1.069310
v 0.343127 0.821603 1.075585
v 0.342354 0.818397 1.065532
v 0.441942 1.220000 0.626389
v 0.364703 1.113537 0.632315
v 0.239505 1.154202 0.635042
v 0.358973 0.820000 1.069310
v 0.342354 0.818397 1.065532
v 0.352147 0.817406 1.061654
vt 0.120000 0.880000
vt 0.213333 0.880000
vt 0.166667 0.786667
vt 0.120000 0.880000
vt 0.213333 0.880000
vt 0.166667 0.786667
vt 0.120000 0.880000
vt 0.213333 0.880000
vt 0.166667 0.786667
vt 0.120000 0.880000
vt 0.213333 0.880000
vt 0.166667 0.786667
vt 0.120000 0.880000
vt 0.213333 0.880000
vt 0.166667 0.786667
vt 0.120000 0.880000
vt 0.213333 0.880000
vt 0.166667 0.786667
vt 0.120000 0.880000
vt 0.213333 0.880000
vt 0.166667 0.786667
vt 0.120000 0.880000
vt 0.213333 0.880000
vt 0.166667 0.786667
vt 0.120000 0.880000
vt 0.213333 0.880000
vt 0.166667 0.786667
vt 0.120000 0.880000
vt 0.213333 0.880000
vt 0.166667 0.786667
vt 0.120000 0.880000
vt 0.213333 0.880000
vt 0.166667 0.786667
vt 0.120000 0.880000
vt 0.213333 0.880000
vt 0.166667 0.786667
vt 0.120000 0.880000
vt 0.213333 0.880000
vt 0.166667 0.786667
vt 0.120000 0.880000
vt 0.213333 0.880000
vt 0.166667 0.786667
vt 0.120000 0.880000
vt 0.213333 0.880000
vt 0.166667 0.786667
vt 0.120000 0.880000
vt 0.213333 0.880000
vt 0.166667 0.786667
vt 0.120000 0.880000
vt 0.213333 0.880000
vt 0.166667 0.786667
vt 0.120000 0.880000
vt 0.213333 0.880000
vt 0.166667 0.786667
vt 0.120000 0.880000
vt 0.213333 0.880000
vt 0.166667 0.786667
vt 0.120000 0.880000
vt 0.213333 0.880000
vt 0.166667 0.786667
vt 0.120000 0.880000
vt 0.213333 0.880000
vt 0.166667 0.786667
vt 0.120000 0.880000
vt 0.213333 0.880000
vt 0.166667 0.786667
vt 0.120000 0.880000
vt 0.213333 0.880000
vt 0.166667 0.786667
vt 0.120000 0.880000
vt 0.213333 0.880000
vt 0.166667 0.786667
vt 0.120000 0.880000
vt 0.213333 0.880000
vt 0.166667 0.786667
vt 0.120000 0.880000
vt 0.213333 0.880000
vt 0.166667 0.786667
vt 0.120000 0.880000
vt 0.213333 0.880000
vt 0.166667 0.786667
vt 0.120000 0.880000
vt 0.213333 0.880000
vt 0.166667 0.786667
vt 0.120000 0.880000
vt 0.213333 0.880000
vt 0.166667 0.786667
vt 0.120000 0.880000
vt 0.213333 0.880000
vt 0.166667 0.786667
vt 0.120000 0.880000
vt 0.213333 0.880000
vt 0.166667 0.786667
vt 0.120000 0.880000
vt 0.213333 0.880000
vt 0.166667 0.786667
vt 0.120000 0.880000
vt 0.213333 0.880000
vt 0.166667 0.786667
vt 0.120000 0.880000
vt 0.213333 0.880000
vt 0.166667 0.786667
vt 0.120000 0.880000
vt 0.213333 0.880000
vt 0.166667 0.786667
vt 0.120000 0.880000
vt 0.213333 0.880000
vt 0.166667 0.786667
vt 0.120000 0.880000
vt 0.213333 0.880000
vt 0.166667 0.786667
vt 0.120000 0.880000
vt 0.213333 0.880000
vt 0.166667 0.786667
vt 0.120000 0.880000
vt 0.213333 0.880000
vt 0.166667 0.786667
vt 0.120000 0.880000
vt 0.213333 0.880000
vt 0.166667 0.786667
vt 0.120000 0.880000
vt 0.213333 0.880000
vt 0.166667 0.786667
vt 0.120000 0.880000
vt 0.213333 0.880000
vt 0.166667 0.786667
vt 0.120000 0.880000
vt 0.213333 0.880000
vt 0.166667 0.786667
vt 0.120000 0.880000
vt 0.213333 0.880000
vt 0.166667 0.786667
vt 0.120000 0.880000
vt 0.213333 0.880000
vt 0.166667 0.786667
vt 0.120000 0.880000
vt 0.213333 0.880000
vt 0.166667 0.786667
vt 0.120000 0.880000
vt 0.213333 0.880000
vt 0.166667 0.786667
vt 0.120000 0.880000
vt 0.213333 0.880000
vt 0.166667 0.786667
vt 0.120000 0.880000
vt 0.213333 0.880000
vt 0.166667 0.786667
vt 0.120000 0.880000
vt 0.213333 0.880000
vt 0.166667 0.786667
vt 0.120000 0.880000
vt 0.213333 0.880000
vt 0.166667 0.786667
vt 0.120000 0.880000
vt 0.213333 0.880000
vt 0.166667 0.786667
vt 0.120000 0.880000
vt 0.213333 0.880000
vt 0.166667 0.786667
vt 0.120000 0.880000
vt 0.213333 0.880000
vt 0.166667 0.786667
vt 0.120000 0.880000
vt 0.213333 0.880000
vt 0.166667 0.786667
vt 0.120000 0.880000
vt 0.213333 0.880000
vt 0.166667 0.786667
vt 0.120000 0.880000
vt 0.213333 0.880000
vt 0.166667 0.786667
vt 0.120000 0.880000
vt 0.213333 0.880000
vt 0.166667 0.786667
vt 0.120000 0.880000
vt 0.213333 0.880000
vt 0.166667 0.786667
vt 0.120000 0.880000
vt 0.213333 0.880000
vt 0.166667 0.786667
vt 0.120000 0.880000
vt 0.213333 0.880000
vt 0.166667 0.786667
vt 0.120000 0.880000
vt 0.213333 0.880000
vt 0.166667 0.786667
vt 0.120000 0.880000
vt 0.213333 0.880000
vt 0.166667 0.786667
vt 0.120000 0.880000
vt 0.213333 0.880000
vt 0.166667 0.786667
vt 0.120000 0.880000
vt 0.213333 0.880000
vt 0.166667 0.786667
vt 0.120000 0.880000
vt 0.213333 0.880000
vt 0.166667 0.786667
vt 0.120000 0.880000
vt 0.213333 0.880000
vt 0.166667 0.786667
vt 0.120000 0.880000
vt 0.213333 0.880000
vt 0.166667 0.786667
vt 0.120000 0.880000
vt 0.213333 0.880000
vt 0.166667 0.786667
vt 0.120000 0.880000
vt 0.213333 0.880000
vt 0.166667 0.786667
vt 0.120000 0.880000
vt 0.213333 0.880000
vt 0.166667 0.786667
vt 0.120000 0.880000
vt 0.213333 0.880000
vt 0.166667 0.786667
vt 0.120000 0.880000
vt 0.213333 0.880000
vt 0.166667 0.786667
vt 0.120000 0.880000
vt 0.213333 0.880000
vt 0.166667 0.786667
vt 0.120000 0.880000
vt 0.213333 0.880000
vt 0.166667 0.786667
vt 0.120000 0.880000
vt 0.213333 0.880000
vt 0.166667 0.786667
vt 0.120000 0.880000
vt 0.213333 0.880000
vt 0.166667 0.786667
vt 0.120000 0.880000
vt 0.213333 0.880000
vt 0.166667 0.786667
vt 0.120000 0.880000
vt 0.213333 0.880000
vt 0.166667 0.786667
vt 0.120000 0.880000
vt 0.213333 0.880000
vt 0.166667 0.786667
vt 0.120000 0.880000
vt 0.213333 0.880000
vt 0.166667 0.786667
vt 0.120000 0.880000
vt 0.213333 0.880000
vt 0.166667 0.786667
vt 0.120000 0.880000
vt 0.213333 0.880000
vt 0.166667 0.786667
vt 0.120000 0.880000
vt 0.213333 0.880000
vt 0.166667 0.786667
vt 0.120000 0.880000
vt 0.213333 0.880000
vt 0.166667 0.786667
vt 0.120000 0.880000
vt 0.213333 0.880000
vt 0.166667 0.786667
vt 0.120000 0.880000
vt 0.213333 0.880000
vt 0.166667 0.786667
vt 0.120000 0.880000
vt 0.213333 0.880000
vt 0.166667 0.786667
vt 0.120000 0.880000
vt 0.213333 0.880000
vt 0.166667 0.786667
vt 0.120000 0.880000
vt 0.213333 0.880000
vt 0.166667 0.786667
vt 0.120000 0.880000
vt 0.213333 0.880000
vt 0.166667 0.786667
vt 0.120000 0.880000
vt 0.213333 0.880000
vt 0.166667 0.786667
vt 0.120000 0.880000
vt 0.213333 0.880000
vt 0.166667 0.786667
vt 0.120000 0.880000
vt 0.213333 0.880000
vt 0.166667 0.786667
vt 0.120000 0.880000
vt 0.213333 0.880000
vt 0.166667 0.786667
vt 0.120000 0.880000
vt 0.213333 0.880000
vt 0.166667 0.786667
vt 0.786667 0.880000
vt 0.880000 0.880000
vt 0.833333 0.786667
vt 0.786667 0.880000
vt 0.880000 0.880000
vt 0.833333 0.786667
vt 0.786667 0.880000
vt 0.880000 0.880000
vt 0.833333 0.786667
vt 0.786667 0.880000
vt 0.880000 0.880000
vt 0.833333 0.786667
vt 0.786667 0.880000
vt 0.880000 0.880000
vt 0.833333 0.786667
vt 0.786667 0.880000
vt 0.880000 0.880000
vt 0.833333 0.786667
vt 0.786667 0.880000
vt 0.880000 0.880000
vt 0.833333 0.786667
vt 0.786667 0.880000
vt 0.880000 0.880000
vt 0.833333 0.786667
vt 0.786667 0.880000
vt 0.880000 0.880000
vt 0.833333 0.786667
vt 0.786667 0.880000
vt 0.880000 0.880000
vt 0.833333 0.786667
vt 0.786667 0.880000
vt 0.880000 0.880000
vt 0.833333 0.786667
vt 0.786667 0.880000
vt 0.880000 0.880000
vt 0.833333 0.786667
vt 0.786667 0.880000
vt 0.880000 0.880000
vt 0.833333 0.786667
vt 0.786667 0.880000
vt 0.880000 0.880000
vt 0.833333 0.786667
vt 0.786667 0.880000
vt 0.880000 0.880000
vt 0.833333 0.786667
vt 0.786667 0.880000
vt 0.880000 0.880000
vt 0.833333 0.786667
vt 0.786667 0.880000
vt 0.880000 0.880000
vt 0.833333 0.786667
vt 0.786667 0.880000
vt 0.880000 0.880000
vt 0.833333 0.786667
vt 0.786667 0.880000
vt 0.880000 0.880000
vt 0.833333 0.786667
vt 0.786667 0.880000
vt 0.880000 0.880000
vt 0.833333 0.786667
vt 0.786667 0.880000
vt 0.880000 0.880000
vt 0.833333 0.786667
vt 0.786667 0.880000
vt 0.880000 0.880000
vt 0.833333 0.786667
vt 0.786667 0.880000
vt 0.880000 0.880000
vt 0.833333 0.786667
vt 0.786667 0.880000
vt 0.880000 0.880000
vt 0.833333 0.786667
vt 0.786667 0.880000
vt 0.880000 0.880000
vt 0.833333 0.786667
vt 0.786667 0.880000
vt 0.880000 0.880000
vt 0.833333 0.786667
vt 0.786667 0.880000
vt 0.880000 0.880000
vt 0.833333 0.786667
vt 0.786667 0.880000
vt 0.880000 0.880000
vt 0.833333 0.786667
vt 0.786667 0.880000
vt 0.880000 0.880000
vt 0.833333 0.786667
vt 0.786667 0.880000
vt 0.880000 0.880000
vt 0.833333 0.786667
vt 0.786667 0.880000
vt 0.880000 0.880000
vt 0.833333 0.786667
vt 0.786667 0.880000
vt 0.880000 0.880000
vt 0.833333 0.786667
vt 0.786667 0.880000
vt 0.880000 0.880000
vt 0.833333 0.786667
vt 0.786667 0.880000
vt 0.880000 0.880000
vt 0.833333 0.786667
vt 0.786667 0.880000
vt 0.880000 0.880000
vt 0.833333 0.786667
vt 0.786667 0.880000
vt 0.880000 0.880000
vt 0.833333 0.786667
vt 0.786667 0.880000
vt 0.880000 0.880000
vt 0.833333 0.786667
vt 0.786667 0.880000
vt 0.880000 0.880000
vt 0.833333 0.786667
vt 0.786667 0.880000
vt 0.880000 0.880000
vt 0.833333 0.786667
vt 0.786667 0.880000
vt 0.880000 0.880000
vt 0.833333 0.786667
vt 0.786667 0.880000
vt 0.880000 0.880000
vt 0.833333 0.786667
vt 0.786667 0.880000
vt 0.880000 0.880000
vt 0.833333 0.786667
vt 0.786667 0.880000
vt 0.880000 0.880000
vt 0.833333 0.786667
vt 0.786667 0.880000
vt 0.880000 0.880000
vt 0.833333 0.786667
vt 0.786667 0.880000
vt 0.880000 0.880000
vt 0.833333 0.786667
vt 0.786667 0.880000
vt 0.880000 0.880000
vt 0.833333 0.786667
vt 0.786667 0.880000
vt 0.880000 0.880000
vt 0.833333 0.786667
vt 0.786667 0.880000
vt 0.880000 0.880000
vt 0.833333 0.786667
vt 0.786667 0.880000
vt 0.880000 0.880000
vt 0.833333 0.786667
vt 0.786667 0.880000
vt 0.880000 0.880000
vt 0.833333 0.786667
vt 0.786667 0.880000
vt 0.880000 0.880000
vt 0.833333 0.786667
vt 0.786667 0.880000
vt 0.880000 0.880000
vt 0.833333 0.786667
vt 0.786667 0.880000
vt 0.880000 0.880000
vt 0.833333 0.786667
vt 0.786667 0.880000
vt 0.880000 0.880000
vt 0.833333 0.786667
vt 0.786667 0.880000
vt 0.880000 0.880000
vt 0.833333 0.786667
vt 0.786667 0.880000
vt 0.880000 0.880000
vt 0.833333 0.786667
vt 0.786667 0.880000
vt 0.880000 0.880000
vt 0.833333 0.786667
vt 0.786667 0.880000
vt 0.880000 0.880000
vt 0.833333 0.786667
vt 0.786667 0.880000
vt 0.880000 0.880000
vt 0.833333 0.786667
vt 0.786667 0.880000
vt 0.880000 0.880000
vt 0.833333 0.786667
vt 0.786667 0.880000
vt 0.880000 0.880000
vt 0.833333 0.786667
vt 0.786667 0.880000
vt 0.880000 0.880000
vt 0.833333 0.786667
vt 0.786667 0.880000
vt 0.880000 0.880000
vt 0.833333 0.786667
vt 0.786667 0.880000
vt 0.880000 0.880000
vt 0.833333 0.786667
vt 0.786667 0.880000
vt 0.880000 0.880000
vt 0.833333 0.786667
vt 0.786667 0.880000
vt 0.880000 0.880000
vt 0.833333 0.786667
vt 0.786667 0.880000
vt 0.880000 0.880000
vt 0.833333 0.786667
vt 0.786667 0.880000
vt 0.880000 0.880000
vt 0.833333 0.786667
vt 0.786667 0.880000
vt 0.880000 0.880000
vt 0.833333 0.786667
vt 0.786667 0.880000
vt 0.880000 0.880000
vt 0.833333 0.786667
vt 0.786667 0.880000
vt 0.880000 0.880000
vt 0.833333 0.786667
vt 0.786667 0.880000
vt 0.880000 0.880000
vt 0.833333 0.786667
vt 0.786667 0.880000
vt 0.880000 0.880000
vt 0.833333 0.786667
vt 0.786667 0.880000
vt 0.880000 0.880000
vt 0.833333 0.786667
vt 0.786667 0.880000
vt 0.880000 0.880000
vt 0.833333 0.786667
vt 0.786667 0.880000
vt 0.880000 0.880000
vt 0.833333 0.786667
vt 0.786667 0.880000
vt 0.880000 0.880000
vt 0.833333 0.786667
vt 0.786667 0.880000
vt 0.880000 0.880000
vt 0.833333 0.786667
vt 0.786667 0.880000
vt 0.880000 0.880000
vt 0.833333 0.786667
vt 0.786667 0.880000
vt 0.880000 0.880000
vt 0.833333 0.786667
vt 0.786667 0.880000
vt 0.880000 0.880000
vt 0.833333 0.786667
vt 0.786667 0.880000
vt 0.880000 0.880000
vt 0.833333 0.786667
vt 0.786667 0.880000
vt 0.880000 0.880000
vt 0.833333 0.786667
vt 0.786667 0.880000
vt 0.880000 0.880000
vt 0.833333 0.786667
vt 0.786667 0.880000
vt 0.880000 0.880000
vt 0.833333 0.786667
vt 0.786667 0.880000
vt 0.880000 0.880000
vt 0.833333 0.786667
vt 0.786667 0.880000
vt 0.880000 0.880000
vt 0.833333 0.786667
vt 0.786667 0.880000
vt 0.880000 0.880000
vt 0.833333 0.786667
vt 0.786667 0.880000
vt 0.880000 0.880000
vt 0.833333 0.786667
vt 0.786667 0.880000
vt 0.880000 0.880000
vt 0.833333 0.786667
vt 0.786667 0.880000
vt 0.880000 0.880000
vt 0.833333 0.786667
vt 0.786667 0.880000
vt 0.880000 0.880000
vt 0.833333 0.786667
vt 0.786667 0.880000
vt 0.880000 0.880000
vt 0.833333 0.786667
vt 0.786667 0.880000
vt 0.880000 0.880000
vt 0.833333 0.786667
vt 0.786667 0.880000
vt 0.880000 0.880000
vt 0.833333 0.786667
vt 0.786667 0.880000
vt 0.880000 0.880000
vt 0.833333 0.786667
vt 0.786667 0.880000
vt 0.880000 0.880000
vt 0.833333 0.786667
vt 0.786667 0.880000
vt 0.880000 0.880000
vt 0.833333 0.786667
vt 0.786667 0.880000
vt 0.880000 0.880000
vt 0.833333 0.786667
vt 0.786667 0.880000
vt 0.880000 0.880000
vt 0.833333 0.786667
vt 0.786667 0.880000
vt 0.880000 0.880000
vt 0.833333 0.786667
vt 0.786667 0.880000
vt 0.880000 0.880000
vt 0.833333 0.786667
vt 0.786667 0.880000
vt 0.880000 0.880000
vt 0.833333 0.786667
vt 0.786667 0.880000
vt 0.880000 0.880000
vt 0.833333 0.786667
vt 0.786667 0.880000
vt 0.880000 0.880000
vt 0.833333 0.786667
vt 0.786667 0.880000
vt 0.880000 0.880000
vt 0.833333 0.786667
vt 0.786667 0.880000
vt 0.880000 0.880000
vt 0.833333 0.786667
vt 0.786667 0.880000
vt 0.880000 0.880000
vt 0.833333 0.786667
vt 0.786667 0.880000
vt 0.880000 0.880000
vt 0.833333 0.786667
vt 0.786667 0.880000
vt 0.880000 0.880000
vt 0.833333 0.786667
vt 0.786667 0.880000
vt 0.880000 0.880000
vt 0.833333 0.786667
vt 0.786667 0.880000
vt 0.880000 0.880000
vt 0.833333 0.786667
vt 0.786667 0.880000
vt 0.880000 0.880000
vt 0.833333 0.786667
vt 0.786667 0.880000
vt 0.880000 0.880000
vt 0.833333 0.786667
vt 0.786667 0.880000
vt 0.880000 0.880000
vt 0.833333 0.786667
vt 0.786667 0.880000
vt 0.880000 0.880000
vt 0.833333 0.786667
vt 0.786667 0.880000
vt 0.880000 0.880000
vt 0.833333 0.786667
vt 0.786667 0.880000
vt 0.880000 0.880000
vt 0.833333 0.786667
vt 0.786667 0.880000
vt 0.880000 0.880000
vt 0.833333 0.786667
vt 0.786667 0.880000
vt 0.880000 0.880000
vt 0.833333 0.786667
vt 0.786667 0.880000
vt 0.880000 0.880000
vt 0.833333 0.786667
vt 0.786667 0.880000
vt 0.880000 0.880000
vt 0.833333 0.786667
vt 0.786667 0.880000
vt 0.880000 0.880000
vt 0.833333 0.786667
vt 0.786667 0.880000
vt 0.880000 0.880000
vt 0.833333 0.786667
vt 0.786667 0.880000
vt 0.880000 0.880000
vt 0.833333 0.786667
vt 0.786667 0.880000
vt 0.880000 0.880000
vt 0.833333 0.786667
vt 0.786667 0.880000
vt 0.880000 0.880000
vt 0.833333 0.786667
vt 0.786667 0.880000
vt 0.880000 0.880000
vt 0.833333 0.786667
vt 0.786667 0.880000
vt 0.880000 0.880000
vt 0.833333 0.786667
vt 0.786667 0.880000
vt 0.880000 0.880000
vt 0.833333 0.786667
vt 0.786667 0.880000
vt 0.880000 0.880000
vt 0.833333 0.786667
vt 0.786667 0.880000
vt 0.880000 0.880000
vt 0.833333 0.786667
vt 0.786667 0.880000
vt 0.880000 0.880000
vt 0.833333 0.786667
vt 0.786667 0.880000
vt 0.880000 0.880000
vt 0.833333 0.786667
vt 0.786667 0.880000
vt 0.880000 0.880000
vt 0.833333 0.786667
vt 0.786667 0.880000
vt 0.880000 0.880000
vt 0.833333 0.786667
vt 0.786667 0.880000
vt 0.880000 0.880000
vt 0.833333 0.786667
vt 0.786667 0.880000
vt 0.880000 0.880000
vt 0.833333 0.786667
vt 0.786667 0.880000
vt 0.880000 0.880000
vt 0.833333 0.786667
vt 0.786667 0.880000
vt 0.880000 0.880000
vt 0.833333 0.786667
vt 0.786667 0.880000
vt 0.880000 0.880000
vt 0.833333 0.786667
vt 0.786667 0.880000
vt 0.880000 0.880000
vt 0.833333 0.786667
vt 0.786667 0.880000
vt 0.880000 0.880000
vt 0.833333 0.786667
vt 0.786667 0.880000
vt 0.880000 0.880000
vt 0.833333 0.786667
vt 0.786667 0.880000
vt 0.880000 0.880000
vt 0.833333 0.786667
vt 0.786667 0.880000
vt 0.880000 0.880000
vt 0.833333 0.786667
vt 0.786667 0.880000
vt 0.880000 0.880000
vt 0.833333 0.786667
vt 0.786667 0.880000
vt 0.880000 0.880000
vt 0.833333 0.786667
vt 0.786667 0.880000
vt 0.880000 0.880000
vt 0.833333 0.786667
vt 0.786667 0.880000
vt 0.880000 0.880000
vt 0.833333 0.786667
vt 0.786667 0.880000
vt 0.880000 0.880000
vt 0.833333 0.786667
vt 0.786667 0.880000
vt 0.880000 0.880000
vt 0.833333 0.786667
vt 0.786667 0.880000
vt 0.880000 0.880000
vt 0.833333 0.786667
vt 0.786667 0.880000
vt 0.880000 0.880000
vt 0.833333 0.786667
vt 0.786667 0.880000
vt 0.880000 0.880000
vt 0.833333 0.786667
vt 0.786667 0.880000
vt 0.880000 0.880000
vt 0.833333 0.786667
vt 0.786667 0.880000
vt 0.880000 0.880000
vt 0.833333 0.786667
vt 0.786667 0.880000
vt 0.880000 0.880000
vt 0.833333 0.786667
vt 0.786667 0.880000
vt 0.880000 0.880000
vt 0.833333 0.786667
vt 0.786667 0.880000
vt 0.880000 0.880000
vt 0.833333 0.786667
vt 0.786667 0.880000
vt 0.880000 0.880000
vt 0.833333 0.786667
vt 0.786667 0.880000
vt 0.880000 0.880000
vt 0.833333 0.786667
vt 0.786667 0.880000
vt 0.880000 0.880000
vt 0.833333 0.786667
vt 0.786667 0.880000
vt 0.880000 0.880000
vt 0.833333 0.786667
vt 0.786667 0.880000
vt 0.880000 0.880000
vt 0.833333 0.786667
vt 0.786667 0.880000
vt 0.880000 0.880000
vt 0.833333 0.786667
vt 0.786667 0.880000
vt 0.880000 0.880000
vt 0.833333 0.786667
vt 0.786667 0.880000
vt 0.880000 0.880000
vt 0.833333 0.786667
vt 0.786667 0.880000
vt 0.880000 0.880000
vt 0.833333 0.786667
vt 0.786667 0.880000
vt 0.880000 0.880000
vt 0.833333 0.786667
vt 0.786667 0.880000
vt 0.880000 0.880000
vt 0.833333 0.786667
vt 0.786667 0.880000
vt 0.880000 0.880000
vt 0.833333 0.786667
vt 0.786667 0.880000
vt 0.880000 0.880000
vt 0.833333 0.786667
vt 0.786667 0.880000
vt 0.880000 0.880000
vt 0.833333 0.786667
vt 0.786667 0.880000
vt 0.880000 0.880000
vt 0.833333 0.786667
vt 0.786667 0.880000
vt 0.880000 0.880000
vt 0.833333 0.786667
vt 0.786667 0.880000
vt 0.880000 0.880000
vt 0.833333 0.786667
vt 0.786667 0.880000
vt 0.880000 0.880000
vt 0.833333 0.786667
vt 0.786667 0.880000
vt 0.880000 0.880000
vt 0.833333 0.786667
vt 0.786667 0.880000
vt 0.880000 0.880000
vt 0.833333 0.786667
vt 0.786667 0.880000
vt 0.880000 0.880000
vt 0.833333 0.786667
vt 0.786667 0.880000
vt 0.880000 0.880000
vt 0.833333 0.786667
vt 0.786667 0.880000
vt 0.880000 0.880000
vt 0.833333 0.786667
vt 0.786667 0.880000
vt 0.880000 0.880000
vt 0.833333 0.786667
vt 0.786667 0.880000
vt 0.880000 0.880000
vt 0.833333 0.786667
vt 0.786667 0.880000
vt 0.880000 0.880000
vt 0.833333 0.786667
vt 0.786667 0.880000
vt 0.880000 0.880000
vt 0.833333 0.786667
vt 0.786667 0.880000
vt 0.880000 0.880000
vt 0.833333 0.786667
vt 0.786667 0.880000
vt 0.880000 0.880000
vt 0.833333 0.786667
vt 0.786667 0.880000
vt 0.880000 0.880000
vt 0.833333 0.786667
vt 0.786667 0.880000
vt 0.880000 0.880000
vt 0.833333 0.786667
vt 0.786667 0.880000
vt 0.880000 0.880000
vt 0.833333 0.786667
vn 0.000000 1.000000 0.000000
vn -0.467298 0.884100 0.000000
vn -0.335418 0.897447 0.286503
vn 0.000000 1.000000 0.000000
vn -0.335418 0.897447 0.286503
vn -0.000000 0.911417 0.411483
vn 0.000000 1.000000 0.000000
vn -0.000000 0.911417 0.411483
vn 0.335418 0.897447 0.286503
vn 0.000000 1.000000 0.000000
vn 0.335418 0.897447 0.286503
vn 0.467298 0.884100 0.000000
vn 0.000000 1.000000 0.000000
vn 0.467298 0.884100 0.000000
vn 0.335418 0.897447 -0.286503
vn 0.000000 1.000000 0.000000
vn 0.335418 0.897447 -0.286503
vn 0.000000 0.911417 -0.411483
vn 0.000000 1.000000 0.000000
vn 0.000000 0.911417 -0.411483
vn -0.335418 0.897447 -0.286503
vn 0.000000 1.000000 0.000000
vn -0.335418 0.897447 -0.286503
vn -0.467298 0.884100 -0.000000
vn -0.335418 0.897447 0.286503
vn -0.467298 0.884100 0.000000
vn -0.599172 0.615679 0.511793
vn -0.467298 0.884100 0.000000
vn -0.809000 0.587809 0.000000
vn -0.599172 0.615679 0.511793
vn -0.000000 0.911417 0.411483
vn -0.335418 0.897447 0.286503
vn -0.000000 0.647931 0.761699
vn -0.335418 0.897447 0.286503
vn -0.599172 0.615679 0.511793
vn -0.000000 0.647931 0.761699
vn 0.335418 0.897447 0.286503
vn -0.000000 0.911417 0.411483
vn 0.599172 0.615679 0.511793
vn -0.000000 0.911417 0.411483
vn -0.000000 0.647931 0.761699
vn 0.599172 0.615679 0.511793
vn 0.467298 0.884100 0.000000
vn 0.335418 0.897447 0.286503
vn 0.809000 0.587809 0.000000
vn 0.335418 0.897447 0.286503
vn 0.599172 0.615679 0.511793
vn 0.809000 0.587809 0.000000
vn 0.335418 0.897447 -0.286503
vn 0.467298 0.884100 0.000000
vn 0.599172 0.615679 -0.511793
vn 0.467298 0.884100 0.000000
vn 0.809000 0.587809 0.000000
vn 0.599172 0.615679 -0.511793
vn 0.000000 0.911417 -0.411483
vn 0.335418 0.897447 -0.286503
vn 0.000000 0.647931 -0.761699
vn 0.335418 0.897447 -0.286503
vn 0.599172 0.615679 -0.511793
vn 0.000000 0.647931 -0.761699
vn -0.335418 0.897447 -0.286503
vn 0.000000 0.911417 -0.411483
vn -0.599172 0.615679 -0.511793
vn 0.000000 0.911417 -0.411483
vn 0.000000 0.647931 -0.761699
vn -0.599172 0.615679 -0.511793
vn -0.467298 0.884100 -0.000000
vn -0.335418 0.897447 -0.286503
vn -0.809000 0.587809 -0.000000
vn -0.335418 0.897447 -0.286503
vn -0.599172 0.615679 -0.511793
vn -0.809000 0.587809 -0.000000
vn -0.599172 0.615679 0.511793
vn -0.809000 0.587809 0.000000
vn -0.742047 0.218231 0.633831
vn -0.809000 0.587809 0.000000
vn -0.979054 0.203599 0.000000
vn -0.742047 0.218231 0.633831
vn -0.000000 0.647931 0.761699
vn -0.599172 0.615679 0.511793
vn -0.000000 0.236550 0.971619
vn -0.599172 0.615679 0.511793
vn -0.742047 0.218231 0.633831
vn -0.000000 0.236550 0.971619
vn 0.599172 0.615679 0.511793
vn -0.000000 0.647931 0.761699
vn 0.742047 0.218231 0.633831
vn -0.000000 0.647931 0.761699
vn -0.000000 0.236550 0.971619
vn 0.742047 0.218231 0.633831
vn 0.809000 0.587809 0.000000
vn 0.599172 0.615679 0.511793
vn 0.979054 0.203599 0.000000
vn 0.599172 0.615679 0.511793
vn 0.742047 0.218231 0.633831
vn 0.979054 0.203599 0.000000
vn 0.599172 0.615679 -0.511793
vn 0.809000 0.587809 0.000000
vn 0.742047 0.218231 -0.633831
vn 0.809000 0.587809 0.000000
vn 0.979054 0.203599 0.000000
vn 0.742047 0.218231 -0.633831
vn 0.000000 0.647931 -0.761699
vn 0.599172 0.615679 -0.511793
vn 0.000000 0.236550 -0.971619
vn 0.599172 0.615679 -0.511793
vn 0.742047 0.218231 -0.633831
vn 0.000000 0.236550 -0.971619
vn -0.599172 0.615679 -0.511793
vn 0.000000 0.647931 -0.761699
vn -0.742047 0.218231 -0.633831
vn 0.000000 0.647931 -0.761699
vn 0.000000 0.236550 -0.971619
vn -0.742047 0.218231 -0.633831
vn -0.809000 0.587809 -0.000000
vn -0.599172 0.615679 -0.511793
vn -0.979054 0.203599 -0.000000
vn -0.599172 0.615679 -0.511793
vn -0.742047 0.218231 -0.633831
vn -0.979054 0.203599 -0.000000
vn -0.742047 0.218231 0.633831
vn -0.979054 0.203599 0.000000
vn -0.742047 -0.218231 0.633831
vn -0.979054 0.203599 0.000000
vn -0.979054 -0.203599 0.000000
vn -0.742047 -0.218231 0.633831
vn -0.000000 0.236550 0.971619
vn -0.742047 0.218231 0.633831
vn -0.000000 -0.236550 0.971619
vn -0.742047 0.218231 0.633831
vn -0.742047 -0.218231 0.633831
vn -0.000000 -0.236550 0.971619
vn 0.742047 0.218231 0.633831
vn -0.000000 0.236550 0.971619
vn 0.742047 -0.218231 0.633831
vn -0.000000 0.236550 0.971619
vn -0.000000 -0.236550 0.971619
vn 0.742047 -0.218231 0.633831
vn 0.979054 0.203599 0.000000
vn 0.742047 0.218231 0.633831
vn 0.979054 -0.203599 0.000000
vn 0.742047 0.218231 0.633831
vn 0.742047 -0.218231 0.633831
vn 0.979054 -0.203599 0.000000
vn 0.742047 0.218231 -0.633831
vn 0.979054 0.203599 0.000000
vn 0.742047 -0.218231 -0.633831
vn 0.979054 0.203599 0.000000
vn 0.979054 -0.203599 0.000000
vn 0.742047 -0.218231 -0.633831
vn 0.000000 0.236550 -0.971619
vn 0.742047 0.218231 -0.633831
vn 0.000000 -0.236550 -0.971619
vn 0.742047 0.218231 -0.633831
vn 0.742047 -0.218231 -0.633831
vn 0.000000 -0.236550 -0.971619
vn -0.742047 0.218231 -0.633831
vn 0.000000 0.236550 -0.971619
vn -0.742047 -0.218231 -0.633831
vn 0.000000 0.236550 -0.971619
vn 0.000000 -0.236550 -0.971619
vn -0.742047 -0.218231 -0.633831
vn -0.979054 0.203599 -0.000000
vn -0.742047 0.218231 -0.633831
vn -0.979054 -0.203599 -0.000000
vn -0.742047 0.218231 -0.633831
vn -0.742047 -0.218231 -0.633831
vn -0.979054 -0.203599 -0.000000
vn -0.742047 -0.218231 0.633831
vn -0.979054 -0.203599 0.000000
vn -0.599172 -0.615679 0.511793
vn -0.979054 -0.203599 0.000000
vn -0.809000 -0.587809 0.000000
vn -0.599172 -0.615679 0.511793
vn -0.000000 -0.236550 0.971619
vn -0.742047 -0.218231 0.633831
vn -0.000000 -0.647931 0.761699
vn -0.742047 -0.218231 0.633831
vn -0.599172 -0.615679 0.511793
vn -0.000000 -0.647931 0.761699
vn 0.742047 -0.218231 0.633831
vn -0.000000 -0.236550 0.971619
vn 0.599172 -0.615679 0.511793
vn -0.000000 -0.236550 0.971619
vn -0.000000 -0.647931 0.761699
vn 0.599172 -0.615679 0.511793
vn 0.979054 -0.203599 0.000000
vn 0.742047 -0.218231 0.633831
vn 0.809000 -0.587809 0.000000
vn 0.742047 -0.218231 0.633831
vn 0.599172 -0.615679 0.511793
vn 0.809000 -0.587809 0.000000
vn 0.742047 -0.218231 -0.633831
vn 0.979054 -0.203599 0.000000
vn 0.599172 -0.615679 -0.511793
vn 0.979054 -0.203599 0.000000
vn 0.809000 -0.587809 0.000000
vn 0.599172 -0.615679 -0.511793
vn 0.000000 -0.236550 -0.971619
vn 0.742047 -0.218231 -0.633831
vn 0.000000 -0.647931 -0.761699
vn 0.742047 -0.218231 -0.633831
vn 0.599172 -0.615679 -0.511793
vn 0.000000 -0.647931 -0.761699
vn -0.742047 -0.218231 -0.633831
vn 0.000000 -0.236550 -0.971619
vn -0.599172 -0.615679 -0.511793
vn 0.000000 -0.236550 -0.971619
vn 0.000000 -0.647931 -0.761699
vn -0.599172 -0.615679 -0.511793
vn -0.979054 -0.203599 -0.000000
vn -0.742047 -0.218231 -0.633831
vn -0.809000 -0.587809 -0.000000
vn -0.742047 -0.218231 -0.633831
vn -0.599172 -0.615679 -0.511793
vn -0.809000 -0.587809 -0.000000
vn -0.599172 -0.615679 0.511793
vn -0.809000 -0.587809 0.000000
vn -0.335418 -0.897447 0.286503
vn -0.809000 -0.587809 0.000000
vn -0.467298 -0.884100 0.000000
vn -0.335418 -0.897447 0.286503
vn -0.000000 -0.647931 0.761699
vn -0.599172 -0.615679 0.511793
vn -0.000000 -0.911417 0.411483
vn -0.599172 -0.615679 0.511793
vn -0.335418 -0.897447 0.286503
vn -0.000000 -0.911417 0.411483
vn 0.599172 -0.615679 0.511793
vn -0.000000 -0.647931 0.761699
vn 0.335418 -0.897447 0.286503
vn -0.000000 -0.647931 0.761699
vn -0.000000 -0.911417 0.411483
vn 0.335418 -0.897447 0.286503
vn 0.809000 -0.587809 0.000000
vn 0.599172 -0.615679 0.511793
vn 0.467298 -0.884100 0.000000
vn 0.599172 -0.615679 0.511793
vn 0.335418 -0.897447 0.286503
vn 0.467298 -0.884100 0.000000
vn 0.599172 -0.615679 -0.511793
vn 0.809000 -0.587809 0.000000
vn 0.335418 -0.897447 -0.286503
vn 0.809000 -0.587809 0.000000
vn 0.467298 -0.884100 0.000000
vn 0.335418 -0.897447 -0.286503
vn 0.000000 -0.647931 -0.761699
vn 0.599172 -0.615679 -0.511793
vn 0.000000 -0.911417 -0.411483
vn 0.599172 -0.615679 -0.511793
vn 0.335418 -0.897447 -0.286503
vn 0.000000 -0.911417 -0.411483
vn -0.599172 -0.615679 -0.511793
vn 0.000000 -0.647931 -0.761699
vn -0.335418 -0.897447 -0.286503
vn 0.000000 -0.647931 -0.761699
vn 0.000000 -0.911417 -0.411483
vn -0.335418 -0.897447 -0.286503
vn -0.809000 -0.587809 -0.000000
vn -0.599172 -0.615679 -0.511793
vn -0.467298 -0.884100 -0.000000
vn -0.599172 -0.615679 -0.511793
vn -0.335418 -0.897447 -0.286503
vn -0.467298 -0.884100 -0.000000
vn -0.335418 -0.897447 0.286503
vn -0.467298 -0.884100 0.000000
vn -0.000000 -1.000000 0.000000
vn -0.000000 -0.911417 0.411483
vn -0.335418 -0.897447 0.286503
vn -0.000000 -1.000000 0.000000
vn 0.335418 -0.897447 0.286503
vn -0.000000 -0.911417 0.411483
vn 0.000000 -1.000000 0.000000
vn 0.467298 -0.884100 0.000000
vn 0.335418 -0.897447 0.286503
vn 0.000000 -1.000000 0.000000
vn 0.335418 -0.897447 -0.286503
vn 0.467298 -0.884100 0.000000
vn 0.000000 -1.000000 -0.000000
vn 0.000000 -0.911417 -0.411483
vn 0.335418 -0.897447 -0.286503
vn 0.000000 -1.000000 -0.000000
vn -0.335418 -0.897447 -0.286503
vn 0.000000 -0.911417 -0.411483
vn -0.000000 -1.000000 -0.000000
vn -0.467298 -0.884100 -0.000000
vn -0.335418 -0.897447 -0.286503
vn -0.000000 -1.000000 -0.000000
vn 0.798833 -0.560838 -0.217545
vn 0.526044 0.131558 -0.840220
vn 0.972504 0.046468 -0.228201
vn 0.526044 0.131558 -0.840220
vn 0.437591 0.377221 -0.816222
vn 0.972504 0.046468 -0.228201
vn 0.526044 0.131558 -0.840220
vn -0.334145 0.052497 -0.941059
vn 0.437591 0.377221 -0.816222
vn -0.334145 0.052497 -0.941059
vn -0.425283 0.468179 -0.774560
vn 0.437591 0.377221 -0.816222
vn -0.334145 0.052497 -0.941059
vn -0.916774 -0.165061 -0.363704
vn -0.425283 0.468179 -0.774560
vn -0.916774 -0.165061 -0.363704
vn -0.959068 0.248511 -0.135762
vn -0.425283 0.468179 -0.774560
vn -0.916774 -0.165061 -0.363704
vn -0.823290 -0.357773 0.440672
vn -0.959068 0.248511 -0.135762
vn -0.823290 -0.357773 0.440672
vn -0.775324 -0.113364 0.621306
vn -0.959068 0.248511 -0.135762
vn -0.823290 -0.357773 0.440672
vn -0.120585 -0.380825 0.916750
vn -0.775324 -0.113364 0.621306
vn -0.120585 -0.380825 0.916750
vn 0.006658 -0.350638 0.936487
vn -0.775324 -0.113364 0.621306
vn -0.120585 -0.380825 0.916750
vn 0.701356 -0.210739 0.680947
vn 0.006658 -0.350638 0.936487
vn 0.701356 -0.210739 0.680947
vn 0.789497 -0.275791 0.548302
vn 0.006658 -0.350638 0.936487
vn 0.701356 -0.210739 0.680947
vn 0.798833 -0.560838 -0.217545
vn 0.789497 -0.275791 0.548302
vn 0.798833 -0.560838 -0.217545
vn 0.972504 0.046468 -0.228201
vn 0.789497 -0.275791 0.548302
vn 0.972504 0.046468 -0.228201
vn 0.437591 0.377221 -0.816222
vn 0.884664 0.462354 0.059981
vn 0.437591 0.377221 -0.816222
vn 0.380250 0.682643 -0.624026
vn 0.884664 0.462354 0.059981
vn 0.437591 0.377221 -0.816222
vn -0.425283 0.468179 -0.774560
vn 0.380250 0.682643 -0.624026
vn -0.425283 0.468179 -0.774560
vn -0.444676 0.753106 -0.484866
vn 0.380250 0.682643 -0.624026
vn -0.425283 0.468179 -0.774560
vn -0.959068 0.248511 -0.135762
vn -0.444676 0.753106 -0.484866
vn -0.959068 0.248511 -0.135762
vn -0.920255 0.376053 0.108240
vn -0.444676 0.753106 -0.484866
vn -0.959068 0.248511 -0.135762
vn -0.775324 -0.113364 0.621306
vn -0.920255 0.376053 0.108240
vn -0.775324 -0.113364 0.621306
vn -0.689142 -0.175240 0.703117
vn -0.920255 0.376053 0.108240
vn -0.775324 -0.113364 0.621306
vn 0.006658 -0.350638 0.936487
vn -0.689142 -0.175240 0.703117
vn 0.006658 -0.350638 0.936487
vn 0.070867 -0.495264 0.865847
vn -0.689142 -0.175240 0.703117
vn 0.006658 -0.350638 0.936487
vn 0.789497 -0.275791 0.548302
vn 0.070867 -0.495264 0.865847
vn 0.789497 -0.275791 0.548302
vn 0.820638 -0.328685 0.467461
vn 0.070867 -0.495264 0.865847
vn 0.789497 -0.275791 0.548302
vn 0.972504 0.046468 -0.228201
vn 0.820638 -0.328685 0.467461
vn 0.972504 0.046468 -0.228201
vn 0.884664 0.462354 0.059981
vn 0.820638 -0.328685 0.467461
vn 0.798833 -0.560838 -0.217545
vn -0.334145 0.052497 -0.941059
vn 0.526044 0.131558 -0.840220
vn 0.884664 0.462354 0.059981
vn 0.380250 0.682643 -0.624026
vn -0.444676 0.753106 -0.484866
vn 0.798833 -0.560838 -0.217545
vn -0.916774 -0.165061 -0.363704
vn -0.334145 0.052497 -0.941059
vn 0.884664 0.462354 0.059981
vn -0.444676 0.753106 -0.484866
vn -0.920255 0.376053 0.108240
vn 0.798833 -0.560838 -0.217545
vn -0.823290 -0.357773 0.440672
vn -0.916774 -0.165061 -0.363704
vn 0.884664 0.462354 0.059981
vn -0.920255 0.376053 0.108240
vn -0.689142 -0.175240 0.703117
vn 0.798833 -0.560838 -0.217545
vn -0.120585 -0.380825 0.916750
vn -0.823290 -0.357773 0.440672
vn 0.884664 0.462354 0.059981
vn -0.689142 -0.175240 0.703117
vn 0.070867 -0.495264 0.865847
vn 0.798833 -0.560838 -0.217545
vn 0.701356 -0.210739 0.680947
vn -0.120585 -0.380825 0.916750
vn 0.884664 0.462354 0.059981
vn 0.070867 -0.495264 0.865847
vn 0.820638 -0.328685 0.467461
vn 0.835266 -0.207527 -0.509179
vn 0.382129 0.912812 -0.144056
vn 0.978480 0.200801 0.047495
vn 0.382129 0.912812 -0.144056
vn 0.126604 0.869643 0.477171
vn 0.978480 0.200801 0.047495
vn 0.382129 0.912812 -0.144056
vn -0.693248 0.629088 -0.351646
vn 0.126604 0.869643 0.477171
vn -0.693248 0.629088 -0.351646
vn -0.865848 0.244544 0.436468
vn 0.126604 0.869643 0.477171
vn -0.693248 0.629088 -0.351646
vn -0.822678 -0.519533 -0.230837
vn -0.865848 0.244544 0.436468
vn -0.822678 -0.519533 -0.230837
vn -0.681199 -0.730608 0.046695
vn -0.865848 0.244544 0.436468
vn -0.822678 -0.519533 -0.230837
vn 0.205829 -0.960967 0.184870
vn -0.681199 -0.730608 0.046695
vn 0.205829 -0.960967 0.184870
vn 0.559750 -0.793377 -0.239233
vn -0.681199 -0.730608 0.046695
vn 0.205829 -0.960967 0.184870
vn 0.835266 -0.207527 -0.509179
vn 0.559750 -0.793377 -0.239233
vn 0.835266 -0.207527 -0.509179
vn 0.978480 0.200801 0.047495
vn 0.559750 -0.793377 -0.239233
vn 0.978480 0.200801 0.047495
vn 0.126604 0.869643 0.477171
vn 0.856993 0.081133 0.508902
vn 0.126604 0.869643 0.477171
vn -0.082727 0.228011 0.970138
vn 0.856993 0.081133 0.508902
vn 0.126604 0.869643 0.477171
vn -0.865848 0.244544 0.436468
vn -0.082727 0.228011 0.970138
vn -0.865848 0.244544 0.436468
vn -0.961170 -0.040105 0.273027
vn -0.082727 0.228011 0.970138
vn -0.865848 0.244544 0.436468
vn -0.681199 -0.730608 0.046695
vn -0.961170 -0.040105 0.273027
vn -0.681199 -0.730608 0.046695
vn -0.447672 -0.364813 -0.816395
vn -0.961170 -0.040105 0.273027
vn -0.681199 -0.730608 0.046695
vn 0.559750 -0.793377 -0.239233
vn -0.447672 -0.364813 -0.816395
vn 0.559750 -0.793377 -0.239233
vn 0.655086 -0.297644 -0.694457
vn -0.447672 -0.364813 -0.816395
vn 0.559750 -0.793377 -0.239233
vn 0.978480 0.200801 0.047495
vn 0.655086 -0.297644 -0.694457
vn 0.978480 0.200801 0.047495
vn 0.856993 0.081133 0.508902
vn 0.655086 -0.297644 -0.694457
vn 0.835266 -0.207527 -0.509179
vn -0.693248 0.629088 -0.351646
vn 0.382129 0.912812 -0.144056
vn 0.856993 0.081133 0.508902
vn -0.082727 0.228011 0.970138
vn -0.961170 -0.040105 0.273027
vn 0.835266 -0.207527 -0.509179
vn -0.822678 -0.519533 -0.230837
vn -0.693248 0.629088 -0.351646
vn 0.856993 0.081133 0.508902
vn -0.961170 -0.040105 0.273027
vn -0.447672 -0.364813 -0.816395
vn 0.835266 -0.207527 -0.509179
vn 0.205829 -0.960967 0.184870
vn -0.822678 -0.519533 -0.230837
vn 0.856993 0.081133 0.508902
vn -0.447672 -0.364813 -0.816395
vn 0.655086 -0.297644 -0.694457
vn 0.840054 -0.506533 -0.194250
vn 0.525182 0.113453 -0.843393
vn 0.966959 0.044253 -0.251064
vn 0.525182 0.113453 -0.843393
vn 0.419901 0.356174 -0.834760
vn 0.966959 0.044253 -0.251064
vn 0.525182 0.113453 -0.843393
vn -0.334275 0.044112 -0.941443
vn 0.419901 0.356174 -0.834760
vn -0.334275 0.044112 -0.941443
vn -0.444660 0.443269 -0.778326
vn 0.419901 0.356174 -0.834760
vn -0.334275 0.044112 -0.941443
vn -0.923157 -0.146052 -0.355598
vn -0.444660 0.443269 -0.778326
vn -0.923157 -0.146052 -0.355598
vn -0.964381 0.234483 -0.122424
vn -0.444660 0.443269 -0.778326
vn -0.923157 -0.146052 -0.355598
vn -0.828022 -0.313730 0.464707
vn -0.964381 0.234483 -0.122424
vn -0.828022 -0.313730 0.464707
vn -0.761962 -0.106066 0.638877
vn -0.964381 0.234483 -0.122424
vn -0.828022 -0.313730 0.464707
vn -0.116194 -0.329997 0.936804
vn -0.761962 -0.106066 0.638877
vn -0.116194 -0.329997 0.936804
vn 0.029962 -0.327878 0.944245
vn -0.761962 -0.106066 0.638877
vn -0.116194 -0.329997 0.936804
vn 0.702962 -0.181553 0.687664
vn 0.029962 -0.327878 0.944245
vn 0.702962 -0.181553 0.687664
vn 0.804594 -0.257092 0.535288
vn 0.029962 -0.327878 0.944245
vn 0.702962 -0.181553 0.687664
vn 0.840054 -0.506533 -0.194250
vn 0.804594 -0.257092 0.535288
vn 0.840054 -0.506533 -0.194250
vn 0.966959 0.044253 -0.251064
vn 0.804594 -0.257092 0.535288
vn 0.966959 0.044253 -0.251064
vn 0.419901 0.356174 -0.834760
vn 0.876704 0.470524 0.099985
vn 0.419901 0.356174 -0.834760
vn 0.381960 0.715477 -0.584978
vn 0.876704 0.470524 0.099985
vn 0.419901 0.356174 -0.834760
vn -0.444660 0.443269 -0.778326
vn 0.381960 0.715477 -0.584978
vn -0.444660 0.443269 -0.778326
vn -0.431334 0.787127 -0.440888
vn 0.381960 0.715477 -0.584978
vn -0.444660 0.443269 -0.778326
vn -0.964381 0.234483 -0.122424
vn -0.431334 0.787127 -0.440888
vn -0.964381 0.234483 -0.122424
vn -0.910149 0.390740 0.137666
vn -0.431334 0.787127 -0.440888
vn -0.964381 0.234483 -0.122424
vn -0.761962 -0.106066 0.638877
vn -0.910149 0.390740 0.137666
vn -0.761962 -0.106066 0.638877
vn -0.683114 -0.195767 0.703584
vn -0.910149 0.390740 0.137666
vn -0.761962 -0.106066 0.638877
vn 0.029962 -0.327878 0.944245
vn -0.683114 -0.195767 0.703584
vn 0.029962 -0.327878 0.944245
vn 0.066265 -0.535020 0.842237
vn -0.683114 -0.195767 0.703584
vn 0.029962 -0.327878 0.944245
vn 0.804594 -0.257092 0.535288
vn 0.066265 -0.535020 0.842237
vn 0.804594 -0.257092 0.535288
vn 0.817474 -0.355522 0.453144
vn 0.066265 -0.535020 0.842237
vn 0.804594 -0.257092 0.535288
vn 0.966959 0.044253 -0.251064
vn 0.817474 -0.355522 0.453144
vn 0.966959 0.044253 -0.251064
vn 0.876704 0.470524 0.099985
vn 0.817474 -0.355522 0.453144
vn 0.840054 -0.506533 -0.194250
vn -0.334275 0.044112 -0.941443
vn 0.525182 0.113453 -0.843393
vn 0.876704 0.470524 0.099985
vn 0.381960 0.715477 -0.584978
vn -0.431334 0.787127 -0.440888
vn 0.840054 -0.506533 -0.194250
vn -0.923157 -0.146052 -0.355598
vn -0.334275 0.044112 -0.941443
vn 0.876704 0.470524 0.099985
vn -0.431334 0.787127 -0.440888
vn -0.910149 0.390740 0.137666
vn 0.840054 -0.506533 -0.194250
vn -0.828022 -0.313730 0.464707
vn -0.923157 -0.146052 -0.355598
vn 0.876704 0.470524 0.099985
vn -0.910149 0.390740 0.137666
vn -0.683114 -0.195767 0.703584
vn 0.840054 -0.506533 -0.194250
vn -0.116194 -0.329997 0.936804
vn -0.828022 -0.313730 0.464707
vn 0.876704 0.470524 0.099985
vn -0.683114 -0.195767 0.703584
vn 0.066265 -0.535020 0.842237
vn 0.840054 -0.506533 -0.194250
vn 0.702962 -0.181553 0.687664
vn -0.116194 -0.329997 0.936804
vn 0.876704 0.470524 0.099985
vn 0.066265 -0.535020 0.842237
vn 0.817474 -0.355522 0.453144
vn 0.834565 -0.175938 -0.522060
vn 0.388242 0.917341 -0.088055
vn 0.979573 0.191490 0.061391
vn 0.388242 0.917341 -0.088055
vn 0.131094 0.846363 0.516221
vn 0.979573 0.191490 0.061391
vn 0.388242 0.917341 -0.088055
vn -0.691988 0.649475 -0.315175
vn 0.131094 0.846363 0.516221
vn -0.691988 0.649475 -0.315175
vn -0.864570 0.234870 0.444245
vn 0.131094 0.846363 0.516221
vn -0.691988 0.649475 -0.315175
vn -0.825160 -0.499294 -0.264229
vn -0.864570 0.234870 0.444245
vn -0.825160 -0.499294 -0.264229
vn -0.683770 -0.729675 0.005734
vn -0.864570 0.234870 0.444245
vn -0.825160 -0.499294 -0.264229
vn 0.201422 -0.972134 0.119940
vn -0.683770 -0.729675 0.005734
vn 0.201422 -0.972134 0.119940
vn 0.549065 -0.789448 -0.274409
vn -0.683770 -0.729675 0.005734
vn 0.201422 -0.972134 0.119940
vn 0.834565 -0.175938 -0.522060
vn 0.549065 -0.789448 -0.274409
vn 0.834565 -0.175938 -0.522060
vn 0.979573 0.191490 0.061391
vn 0.549065 -0.789448 -0.274409
vn 0.979573 0.191490 0.061391
vn 0.131094 0.846363 0.516221
vn 0.860381 0.079002 0.503492
vn 0.131094 0.846363 0.516221
vn -0.086470 0.226347 0.970201
vn 0.860381 0.079002 0.503492
vn 0.131094 0.846363 0.516221
vn -0.864570 0.234870 0.444245
vn -0.086470 0.226347 0.970201
vn -0.864570 0.234870 0.444245
vn -0.962349 -0.041573 0.268620
vn -0.086470 0.226347 0.970201
vn -0.864570 0.234870 0.444245
vn -0.683770 -0.729675 0.005734
vn -0.962349 -0.041573 0.268620
vn -0.683770 -0.729675 0.005734
vn -0.450234 -0.365440 -0.814704
vn -0.962349 -0.041573 0.268620
vn -0.683770 -0.729675 0.005734
vn 0.549065 -0.789448 -0.274409
vn -0.450234 -0.365440 -0.814704
vn 0.549065 -0.789448 -0.274409
vn 0.659743 -0.296944 -0.690336
vn -0.450234 -0.365440 -0.814704
vn 0.549065 -0.789448 -0.274409
vn 0.979573 0.191490 0.061391
vn 0.659743 -0.296944 -0.690336
vn 0.979573 0.191490 0.061391
vn 0.860381 0.079002 0.503492
vn 0.659743 -0.296944 -0.690336
vn 0.834565 -0.175938 -0.522060
vn -0.691988 0.649475 -0.315175
vn 0.388242 0.917341 -0.088055
vn 0.860381 0.079002 0.503492
vn -0.086470 0.226347 0.970201
vn -0.962349 -0.041573 0.268620
vn 0.834565 -0.175938 -0.522060
vn -0.825160 -0.499294 -0.264229
vn -0.691988 0.649475 -0.315175
vn 0.860381 0.079002 0.503492
vn -0.962349 -0.041573 0.268620
vn -0.450234 -0.365440 -0.814704
vn 0.834565 -0.175938 -0.522060
vn 0.201422 -0.972134 0.119940
vn -0.825160 -0.499294 -0.264229
vn 0.860381 0.079002 0.503492
vn -0.450234 -0.365440 -0.814704
vn 0.659743 -0.296944 -0.690336
vn 0.870209 -0.459479 -0.177808
vn 0.524785 0.099579 -0.845390
vn 0.961662 0.042159 -0.270976
vn 0.524785 0.099579 -0.845390
vn 0.404467 0.337335 -0.850065
vn 0.961662 0.042159 -0.270976
vn 0.524785 0.099579 -0.845390
vn -0.334315 0.037816 -0.941703
vn 0.404467 0.337335 -0.850065
vn -0.334315 0.037816 -0.941703
vn -0.461427 0.421357 -0.780733
vn 0.404467 0.337335 -0.850065
vn -0.334315 0.037816 -0.941703
vn -0.927551 -0.130703 -0.350095
vn -0.461427 0.421357 -0.780733
vn -0.927551 -0.130703 -0.350095
vn -0.968796 0.221988 -0.110256
vn -0.461427 0.421357 -0.780733
vn -0.927551 -0.130703 -0.350095
vn -0.831337 -0.278610 0.480891
vn -0.968796 0.221988 -0.110256
vn -0.831337 -0.278610 0.480891
vn -0.749936 -0.099530 0.653980
vn -0.968796 0.221988 -0.110256
vn -0.831337 -0.278610 0.480891
vn -0.113400 -0.290732 0.950061
vn -0.749936 -0.099530 0.653980
vn -0.113400 -0.290732 0.950061
vn 0.050613 -0.306762 0.950440
vn -0.749936 -0.099530 0.653980
vn -0.113400 -0.290732 0.950061
vn 0.704027 -0.159428 0.692047
vn 0.050613 -0.306762 0.950440
vn 0.704027 -0.159428 0.692047
vn 0.817762 -0.239794 0.523225
vn 0.050613 -0.306762 0.950440
vn 0.704027 -0.159428 0.692047
vn 0.870209 -0.459479 -0.177808
vn 0.817762 -0.239794 0.523225
vn 0.870209 -0.459479 -0.177808
vn 0.961662 0.042159 -0.270976
vn 0.817762 -0.239794 0.523225
vn 0.961662 0.042159 -0.270976
vn 0.404467 0.337335 -0.850065
vn 0.867928 0.475044 0.145033
vn 0.404467 0.337335 -0.850065
vn 0.383792 0.748615 -0.540629
vn 0.867928 0.475044 0.145033
vn 0.404467 0.337335 -0.850065
vn -0.461427 0.421357 -0.780733
vn 0.383792 0.748615 -0.540629
vn -0.461427 0.421357 -0.780733
vn -0.415640 0.821071 -0.391262
vn 0.383792 0.748615 -0.540629
vn -0.461427 0.421357 -0.780733
vn -0.968796 0.221988 -0.110256
vn -0.415640 0.821071 -0.391262
vn -0.968796 0.221988 -0.110256
vn -0.898321 0.404404 0.171689
vn -0.415640 0.821071 -0.391262
vn -0.968796 0.221988 -0.110256
vn -0.749936 -0.099530 0.653980
vn -0.898321 0.404404 0.171689
vn -0.749936 -0.099530 0.653980
vn -0.675742 -0.221182 0.703172
vn -0.898321 0.404404 0.171689
vn -0.749936 -0.099530 0.653980
vn 0.050613 -0.306762 0.950440
vn -0.675742 -0.221182 0.703172
vn 0.050613 -0.306762 0.950440
vn 0.059916 -0.580790 0.811845
vn -0.675742 -0.221182 0.703172
vn 0.050613 -0.306762 0.950440
vn 0.817762 -0.239794 0.523225
vn 0.059916 -0.580790 0.811845
vn 0.817762 -0.239794 0.523225
vn 0.812842 -0.386908 0.435419
vn 0.059916 -0.580790 0.811845
vn 0.817762 -0.239794 0.523225
vn 0.961662 0.042159 -0.270976
vn 0.812842 -0.386908 0.435419
vn 0.961662 0.042159 -0.270976
vn 0.867928 0.475044 0.145033
vn 0.812842 -0.386908 0.435419
vn 0.870209 -0.459479 -0.177808
vn -0.334315 0.037816 -0.941703
vn 0.524785 0.099579 -0.845390
vn 0.867928 0.475044 0.145033
vn 0.383792 0.748615 -0.540629
vn -0.415640 0.821071 -0.391262
vn 0.870209 -0.459479 -0.177808
vn -0.927551 -0.130703 -0.350095
vn -0.334315 0.037816 -0.941703
vn 0.867928 0.475044 0.145033
vn -0.415640 0.821071 -0.391262
vn -0.898321 0.404404 0.171689
vn 0.870209 -0.459479 -0.177808
vn -0.831337 -0.278610 0.480891
vn -0.927551 -0.130703 -0.350095
vn 0.867928 0.475044 0.145033
vn -0.898321 0.404404 0.171689
vn -0.675742 -0.221182 0.703172
vn 0.870209 -0.459479 -0.177808
vn -0.113400 -0.290732 0.950061
vn -0.831337 -0.278610 0.480891
vn 0.867928 0.475044 0.145033
vn -0.675742 -0.221182 0.703172
vn 0.059916 -0.580790 0.811845
vn 0.870209 -0.459479 -0.177808
vn 0.704027 -0.159428 0.692047
vn -0.113400 -0.290732 0.950061
vn 0.867928 0.475044 0.145033
vn 0.059916 -0.580790 0.811845
vn 0.812842 -0.386908 0.435419
vn 0.834971 -0.143253 -0.531321
vn 0.394422 0.918393 -0.031389
vn 0.980475 0.181990 0.074492
vn 0.394422 0.918393 -0.031389
vn 0.134839 0.822349 0.552776
vn 0.980475 0.181990 0.074492
vn 0.394422 0.918393 -0.031389
vn -0.690807 0.668170 -0.276288
vn 0.134839 0.822349 0.552776
vn -0.690807 0.668170 -0.276288
vn -0.863784 0.224970 0.450849
vn 0.134839 0.822349 0.552776
vn -0.690807 0.668170 -0.276288
vn -0.827936 -0.476850 -0.295189
vn -0.863784 0.224970 0.450849
vn -0.827936 -0.476850 -0.295189
vn -0.685656 -0.727112 -0.034411
vn -0.863784 0.224970 0.450849
vn -0.827936 -0.476850 -0.295189
vn 0.196910 -0.978968 0.053362
vn -0.685656 -0.727112 -0.034411
vn 0.196910 -0.978968 0.053362
vn 0.539159 -0.783806 -0.308148
vn -0.685656 -0.727112 -0.034411
vn 0.196910 -0.978968 0.053362
vn 0.834971 -0.143253 -0.531321
vn 0.539159 -0.783806 -0.308148
vn 0.834971 -0.143253 -0.531321
vn 0.980475 0.181990 0.074492
vn 0.539159 -0.783806 -0.308148
vn 0.980475 0.181990 0.074492
vn 0.134839 0.822349 0.552776
vn 0.863442 0.077050 0.498528
vn 0.134839 0.822349 0.552776
vn -0.089936 0.224804 0.970245
vn 0.863442 0.077050 0.498528
vn 0.134839 0.822349 0.552776
vn -0.863784 0.224970 0.450849
vn -0.089936 0.224804 0.970245
vn -0.863784 0.224970 0.450849
vn -0.963412 -0.042923 0.264567
vn -0.089936 0.224804 0.970245
vn -0.863784 0.224970 0.450849
vn -0.685656 -0.727112 -0.034411
vn -0.963412 -0.042923 0.264567
vn -0.685656 -0.727112 -0.034411
vn -0.452538 -0.365999 -0.813175
vn -0.963412 -0.042923 0.264567
vn -0.685656 -0.727112 -0.034411
vn 0.539159 -0.783806 -0.308148
vn -0.452538 -0.365999 -0.813175
vn 0.539159 -0.783806 -0.308148
vn 0.663858 -0.296312 -0.686653
vn -0.452538 -0.365999 -0.813175
vn 0.539159 -0.783806 -0.308148
vn 0.980475 0.181990 0.074492
vn 0.663858 -0.296312 -0.686653
vn 0.980475 0.181990 0.074492
vn 0.863442 0.077050 0.498528
vn 0.663858 -0.296312 -0.686653
vn 0.834971 -0.143253 -0.531321
vn -0.690807 0.668170 -0.276288
vn 0.394422 0.918393 -0.031389
vn 0.863442 0.077050 0.498528
vn -0.089936 0.224804 0.970245
vn -0.963412 -0.042923 0.264567
vn 0.834971 -0.143253 -0.531321
vn -0.827936 -0.476850 -0.295189
vn -0.690807 0.668170 -0.276288
vn 0.863442 0.077050 0.498528
vn -0.963412 -0.042923 0.264567
vn -0.452538 -0.365999 -0.813175
vn 0.834971 -0.143253 -0.531321
vn 0.196910 -0.978968 0.053362
vn -0.827936 -0.476850 -0.295189
vn 0.863442 0.077050 0.498528
vn -0.452538 -0.365999 -0.813175
vn 0.663858 -0.296312 -0.686653
usemtl Dragon_color_atlas
f 1/1/1 2/2/2 3/3/3
f 4/4/4 5/5/5 6/6/6
f 7/7/7 8/8/8 9/9/9
f 10/10/10 11/11/11 12/12/12
f 13/13/13 14/14/14 15/15/15
f 16/16/16 17/17/17 18/18/18
f 19/19/19 20/20/20 21/21/21
f 22/22/22 23/23/23 24/24/24
f 25/25/25 26/26/26 27/27/27
f 28/28/28 29/29/29 30/30/30
f 31/31/31 32/32/32 33/33/33
f 34/34/34 35/35/35 36/36/36
f 37/37/37 38/38/38 39/39/39
f 40/40/40 41/41/41 42/42/42
f 43/43/43 44/44/44 45/45/45
f 46/46/46 47/47/47 48/48/48
f 49/49/49 50/50/50 51/51/51
f 52/52/52 53/53/53 54/54/54
f 55/55/55 56/56/56 57/57/57
f 58/58/58 59/59/59 60/60/60
f 61/61/61 62/62/62 63/63/63
f 64/64/64 65/65/65 66/66/66
f 67/67/67 68/68/68 69/69/69
f 70/70/70 71/71/71 72/72/72
f 73/73/73 74/74/74 75/75/75
f 76/76/76 77/77/77 78/78/78
f 79/79/79 80/80/80 81/81/81
f 82/82/82 83/83/83 84/84/84
f 85/85/85 86/86/86 87/87/87
f 88/88/88 89/89/89 90/90/90
f 91/91/91 92/92/92 93/93/93
f 94/94/94 95/95/95 96/96/96
f 97/97/97 98/98/98 99/99/99
f 100/100/100 101/101/101 102/102/102
f 103/103/103 104/104/104 105/105/105
f 106/106/106 107/107/107 108/108/108
f 109/109/109 110/110/110 111/111/111
f 112/112/112 113/113/113 114/114/114
f 115/115/115 116/116/116 117/117/117
f 118/118/118 119/119/119 120/120/120
f 121/121/121 122/122/122 123/123/123
f 124/124/124 125/125/125 126/126/126
f 127/127/127 128/128/128 129/129/129
f 130/130/130 131/131/131 132/132/132
f 133/133/133 134/134/134 135/135/135
f 136/136/136 137/137/137 138/138/138
f 139/139/139 140/140/140 141/141/141
f 142/142/142 143/143/143 144/144/144
f 145/145/145 146/146/146 147/147/147
f 148/148/148 149/149/149 150/150/150
f 151/151/151 152/152/152 153/153/153
f 154/154/154 155/155/155 156/156/156
f 157/157/157 158/158/158 159/159/159
f 160/160/160 161/161/161 162/162/162
f 163/163/163 164/164/164 165/165/165
f 166/166/166 167/167/167 168/168/168
f 169/169/169 170/170/170 171/171/171
f 172/172/172 173/173/173 174/174/174
f 175/175/175 176/176/176 177/177/177
f 178/178/178 179/179/179 180/180/180
f 181/181/181 182/182/182 183/183/183
f 184/184/184 185/185/185 186/186/186
f 187/187/187 188/188/188 189/189/189
f 190/190/190 191/191/191 192/192/192
f 193/193/193 194/194/194 195/195/195
f 196/196/196 197/197/197 198/198/198
f 199/199/199 200/200/200 201/201/201
f 202/202/202 203/203/203 204/204/204
f 205/205/205 206/206/206 207/207/207
f 208/208/208 209/209/209 210/210/210
f 211/211/211 212/212/212 213/213/213
f 214/214/214 215/215/215 216/216/216
f 217/217/217 218/218/218 219/219/219
f 220/220/220 221/221/221 222/222/222
f 223/223/223 224/224/224 225/225/225
f 226/226/226 227/227/227 228/228/228
f 229/229/229 230/230/230 231/231/231
f 232/232/232 233/233/233 234/234/234
f 235/235/235 236/236/236 237/237/237
f 238/238/238 239/239/239 240/240/240
f 241/241/241 242/242/242 243/243/243
f 244/244/244 245/245/245 246/246/246
f 247/247/247 248/248/248 249/249/249
f 250/250/250 251/251/251 252/252/252
f 253/253/253 254/254/254 255/255/255
f 256/256/256 257/257/257 258/258/258
f 259/259/259 260/260/260 261/261/261
f 262/262/262 263/263/263 264/264/264
f 265/265/265 266/266/266 267/267/267
f 268/268/268 269/269/269 270/270/270
f 271/271/271 272/272/272 273/273/273
f 274/274/274 275/275/275 276/276/276
f 277/277/277 278/278/278 279/279/279
f 280/280/280 281/281/281 282/282/282
f 283/283/283 284/284/284 285/285/285
f 286/286/286 287/287/287 288/288/288
f 289/289/289 290/290/290 291/291/291
f 292/292/292 293/293/293 294/294/294
f 295/295/295 296/296/296 297/297/297
f 298/298/298 299/299/299 300/300/300
f 301/301/301 302/302/302 303/303/303
f 304/304/304 305/305/305 306/306/306
f 307/307/307 308/308/308 309/309/309
f 310/310/310 311/311/311 312/312/312
f 313/313/313 314/314/314 315/315/315
f 316/316/316 317/317/317 318/318/318
f 319/319/319 320/320/320 321/321/321
f 322/322/322 323/323/323 324/324/324
f 325/325/325 326/326/326 327/327/327
f 328/328/328 329/329/329 330/330/330
f 331/331/331 332/332/332 333/333/333
f 334/334/334 335/335/335 336/336/336
f 337/337/337 338/338/338 339/339/339
f 340/340/340 341/341/341 342/342/342
f 343/343/343 344/344/344 345/345/345
f 346/346/346 347/347/347 348/348/348
f 349/349/349 350/350/350 351/351/351
f 352/352/352 353/353/353 354/354/354
f 355/355/355 356/356/356 357/357/357
f 358/358/358 359/359/359 360/360/360
f 361/361/361 362/362/362 363/363/363
f 364/364/364 365/365/365 366/366/366
f 367/367/367 368/368/368 369/369/369
f 370/370/370 371/371/371 372/372/372
f 373/373/373 374/374/374 375/375/375
f 376/376/376 377/377/377 378/378/378
f 379/379/379 380/380/380 381/381/381
f 382/382/382 383/383/383 384/384/384
f 385/385/385 386/386/386 387/387/387
f 388/388/388 389/389/389 390/390/390
f 391/391/391 392/392/392 393/393/393
f 394/394/394 395/395/395 396/396/396
f 397/397/397 398/398/398 399/399/399
f 400/400/400 401/401/401 402/402/402
f 403/403/403 404/404/404 405/405/405
f 406/406/406 407/407/407 408/408/408
f 409/409/409 410/410/410 411/411/411
f 412/412/412 413/413/413 414/414/414
f 415/415/415 416/416/416 417/417/417
f 418/418/418 419/419/419 420/420/420
f 421/421/421 422/422/422 423/423/423
f 424/424/424 425/425/425 426/426/426
f 427/427/427 428/428/428 429/429/429
f 430/430/430 431/431/431 432/432/432
f 433/433/433 434/434/434 435/435/435
f 436/436/436 437/437/437 438/438/438
f 439/439/439 440/440/440 441/441/441
f 442/442/442 443/443/443 444/444/444
f 445/445/445 446/446/446 447/447/447
f 448/448/448 449/449/449 450/450/450
f 451/451/451 452/452/452 453/453/453
f 454/454/454 455/455/455 456/456/456
f 457/457/457 458/458/458 459/459/459
f 460/460/460 461/461/461 462/462/462
f 463/463/463 464/464/464 465/465/465
f 466/466/466 467/467/467 468/468/468
f 469/469/469 470/470/470 471/471/471
f 472/472/472 473/473/473 474/474/474
f 475/475/475 476/476/476 477/477/477
f 478/478/478 479/479/479 480/480/480
f 481/481/481 482/482/482 483/483/483
f 484/484/484 485/485/485 486/486/486
f 487/487/487 488/488/488 489/489/489
f 490/490/490 491/491/491 492/492/492
f 493/493/493 494/494/494 495/495/495
f 496/496/496 497/497/497 498/498/498
f 499/499/499 500/500/500 501/501/501
f 502/502/502 503/503/503 504/504/504
f 505/505/505 506/506/506 507/507/507
f 508/508/508 509/509/509 510/510/510
f 511/511/511 512/512/512 513/513/513
f 514/514/514 515/515/515 516/516/516
f 517/517/517 518/518/518 519/519/519
f 520/520/520 521/521/521 522/522/522
f 523/523/523 524/524/524 525/525/525
f 526/526/526 527/527/527 528/528/528
f 529/529/529 530/530/530 531/531/531
f 532/532/532 533/533/533 534/534/534
f 535/535/535 536/536/536 537/537/537
f 538/538/538 539/539/539 540/540/540
f 541/541/541 542/542/542 543/543/543
f 544/544/544 545/545/545 546/546/546
f 547/547/547 548/548/548 549/549/549
f 550/550/550 551/551/551 552/552/552
f 553/553/553 554/554/554 555/555/555
f 556/556/556 557/557/557 558/558/558
f 559/559/559 560/560/560 561/561/561
f 562/562/562 563/563/563 564/564/564
f 565/565/565 566/566/566 567/567/567
f 568/568/568 569/569/569 570/570/570
f 571/571/571 572/572/572 573/573/573
f 574/574/574 575/575/575 576/576/576
f 577/577/577 578/578/578 579/579/579
f 580/580/580 581/581/581 582/582/582
f 583/583/583 584/584/584 585/585/585
f 586/586/586 587/587/587 588/588/588
f 589/589/589 590/590/590 591/591/591
f 592/592/592 593/593/593 594/594/594
f 595/595/595 596/596/596 597/597/597
f 598/598/598 599/599/599 600/600/600
f 601/601/601 602/602/602 603/603/603
f 604/604/604 605/605/605 606/606/606
f 607/607/607 608/608/608 609/609/609
f 610/610/610 611/611/611 612/612/612
f 613/613/613 614/614/614 615/615/615
f 616/616/616 617/617/617 618/618/618
f 619/619/619 620/620/620 621/621/621
f 622/622/622 623/623/623 624/624/624
f 625/625/625 626/626/626 627/627/627
f 628/628/628 629/629/629 630/630/630
f 631/631/631 632/632/632 633/633/633
f 634/634/634 635/635/635 636/636/636
f 637/637/637 638/638/638 639/639/639
f 640/640/640 641/641/641 642/642/642
f 643/643/643 644/644/644 645/645/645
f 646/646/646 647/647/647 648/648/648
f 649/649/649 650/650/650 651/651/651
f 652/652/652 653/653/653 654/654/654
f 655/655/655 656/656/656 657/657/657
f 658/658/658 659/659/659 660/660/660
f 661/661/661 662/662/662 663/663/663
f 664/664/664 665/665/665 666/666/666
f 667/667/667 668/668/668 669/669/669
f 670/670/670 671/671/671 672/672/672
f 673/673/673 674/674/674 675/675/675
f 676/676/676 677/677/677 678/678/678
f 679/679/679 680/680/680 681/681/681
f 682/682/682 683/683/683 684/684/684
f 685/685/685 686/686/686 687/687/687
f 688/688/688 689/689/689 690/690/690
f 691/691/691 692/692/692 693/693/693
f 694/694/694 695/695/695 696/696/696
f 697/697/697 698/698/698 699/699/699
f 700/700/700 701/701/701 702/702/702
f 703/703/703 704/704/704 705/705/705
f 706/706/706 707/707/707 708/708/708
f 709/709/709 710/710/710 711/711/711
f 712/712/712 713/713/713 714/714/714
f 715/715/715 716/716/716 717/717/717
f 718/718/718 719/719/719 720/720/720
f 721/721/721 722/722/722 723/723/723
f 724/724/724 725/725/725 726/726/726
f 727/727/727 728/728/728 729/729/729
f 730/730/730 731/731/731 732/732/732
f 733/733/733 734/734/734 735/735/735
f 736/736/736 737/737/737 738/738/738
f 739/739/739 740/740/740 741/741/741
f 742/742/742 743/743/743 744/744/744
f 745/745/745 746/746/746 747/747/747
f 748/748/748 749/749/749 750/750/750
f 751/751/751 752/752/752 753/753/753
f 754/754/754 755/755/755 756/756/756
f 757/757/757 758/758/758 759/759/759
f 760/760/760 761/761/761 762/762/762
f 763/763/763 764/764/764 765/765/765
f 766/766/766 767/767/767 768/768/768
f 769/769/769 770/770/770 771/771/771
f 772/772/772 773/773/773 774/774/774
f 775/775/775 776/776/776 777/777/777
f 778/778/778 779/779/779 780/780/780
f 781/781/781 782/782/782 783/783/783
f 784/784/784 785/785/785 786/786/786
f 787/787/787 788/788/788 789/789/789
f 790/790/790 791/791/791 792/792/792
f 793/793/793 794/794/794 795/795/795
f 796/796/796 797/797/797 798/798/798
f 799/799/799 800/800/800 801/801/801
f 802/802/802 803/803/803 804/804/804
f 805/805/805 806/806/806 807/807/807
f 808/808/808 809/809/809 810/810/810
f 811/811/811 812/812/812 813/813/813
f 814/814/814 815/815/815 816/816/816
f 817/817/817 818/818/818 819/819/819
f 820/820/820 821/821/821 822/822/822
f 823/823/823 824/824/824 825/825/825
f 826/826/826 827/827/827 828/828/828
f 829/829/829 830/830/830 831/831/831
f 832/832/832 833/833/833 834/834/834
f 835/835/835 836/836/836 837/837/837
f 838/838/838 839/839/839 840/840/840
f 841/841/841 842/842/842 843/843/843
f 844/844/844 845/845/845 846/846/846
f 847/847/847 848/848/848 849/849/849
f 850/850/850 851/851/851 852/852/852
f 853/853/853 854/854/854 855/855/855
f 856/856/856 857/857/857 858/858/858
f 859/859/859 860/860/860 861/861/861
f 862/862/862 863/863/863 864/864/864
