# Obsidian West — joint-local part geometry, +Y up, +Z forward
mtllib materials.mtl
o R_Wing_Finger_2
v -0.080812 -0.000000 -0.074629
v -0.031651 0.094385 -0.046795
v 2.172859 -0.450000 -2.461118
v -0.031651 0.094385 -0.046795
v 2.215771 -0.389823 -2.457471
v 2.172859 -0.450000 -2.461118
v -0.031651 0.094385 -0.046795
v 0.049161 0.094385 0.027834
v 2.215771 -0.389823 -2.457471
v 0.049161 0.094385 0.027834
v 2.275912 -0.389823 -2.414353
v 2.215771 -0.389823 -2.457471
v 0.049161 0.094385 0.027834
v 0.080812 -0.000000 0.074629
v 2.275912 -0.389823 -2.414353
v 0.080812 -0.000000 0.074629
v 2.293141 -0.450000 -2.374882
v 2.275912 -0.389823 -2.414353
v 0.080812 -0.000000 0.074629
v 0.031651 -0.094385 0.046795
v 2.293141 -0.450000 -2.374882
v 0.031651 -0.094385 0.046795
v 2.250229 -0.510177 -2.378529
v 2.293141 -0.450000 -2.374882
v 0.031651 -0.094385 0.046795
v -0.049161 -0.094385 -0.027834
v 2.250229 -0.510177 -2.378529
v -0.049161 -0.094385 -0.027834
v 2.190088 -0.510177 -2.421647
v 2.250229 -0.510177 -2.378529
v -0.049161 -0.094385 -0.027834
v -0.080812 -0.000000 -0.074629
v 2.190088 -0.510177 -2.421647
v -0.080812 -0.000000 -0.074629
v 2.172859 -0.450000 -2.461118
v 2.190088 -0.510177 -2.421647
v 2.172859 -0.450000 -2.461118
v 2.215771 -0.389823 -2.457471
v 3.835967 -2.420000 -5.377687
v 2.215771 -0.389823 -2.457471
v 3.846346 -2.408041 -5.379982
v 3.835967 -2.420000 -5.377687
v 2.215771 -0.389823 -2.457471
v 2.275912 -0.389823 -2.414353
v 3.846346 -2.408041 -5.379982
v 2.275912 -0.389823 -2.414353
v 3.860379 -2.408041 -5.372295
v 3.846346 -2.408041 -5.379982
v 2.275912 -0.389823 -2.414353
v 2.293141 -0.450000 -2.374882
v 3.860379 -2.408041 -5.372295
v 2.293141 -0.450000 -2.374882
v 3.864033 -2.420000 -5.362313
v 3.860379 -2.408041 -5.372295
v 2.293141 -0.450000 -2.374882
v 2.250229 -0.510177 -2.378529
v 3.864033 -2.420000 -5.362313
v 2.250229 -0.510177 -2.378529
v 3.853654 -2.431959 -5.360018
v 3.864033 -2.420000 -5.362313
v 2.250229 -0.510177 -2.378529
v 2.190088 -0.510177 -2.421647
v 3.853654 -2.431959 -5.360018
v 2.190088 -0.510177 -2.421647
v 3.839621 -2.431959 -5.367704
v 3.853654 -2.431959 -5.360018
v 2.190088 -0.510177 -2.421647
v 2.172859 -0.450000 -2.461118
v 3.839621 -2.431959 -5.367704
v 2.172859 -0.450000 -2.461118
v 3.835967 -2.420000 -5.377687
v 3.839621 -2.431959 -5.367704
v -0.080812 -0.000000 -0.074629
v 0.049161 0.094385 0.027834
v -0.031651 0.094385 -0.046795
v 3.835967 -2.420000 -5.377687
v 3.846346 -2.408041 -5.379982
v 3.860379 -2.408041 -5.372295
v -0.080812 -0.000000 -0.074629
v 0.080812 -0.000000 0.074629
v 0.049161 0.094385 0.027834
v 3.835967 -2.420000 -5.377687
v 3.860379 -2.408041 -5.372295
v 3.864033 -2.420000 -5.362313
v -0.080812 -0.000000 -0.074629
v 0.031651 -0.094385 0.046795
v 0.080812 -0.000000 0.074629
v 3.835967 -2.420000 -5.377687
v 3.864033 -2.420000 -5.362313
v 3.853654 -2.431959 -5.360018
v -0.080812 -0.000000 -0.074629
v -0.049161 -0.094385 -0.027834
v 0.031651 -0.094385 0.046795
v 3.835967 -2.420000 -5.377687
v 3.853654 -2.431959 -5.360018
v 3.839621 -2.431959 -5.367704
vt 0.453333 0.880000
vt 0.546667 0.880000
vt 0.500000 0.786667
vt 0.453333 0.880000
vt 0.546667 0.880000
vt 0.500000 0.786667
vt 0.453333 0.880000
vt 0.546667 0.880000
vt 0.500000 0.786667
vt 0.453333 0.880000
vt 0.546667 0.880000
vt 0.500000 0.786667
vt 0.453333 0.880000
vt 0.546667 0.880000
vt 0.500000 0.786667
vt 0.453333 0.880000
vt 0.546667 0.880000
vt 0.500000 0.786667
vt 0.453333 0.880000
vt 0.546667 0.880000
vt 0.500000 0.786667
vt 0.453333 0.880000
vt 0.546667 0.880000
vt 0.500000 0.786667
vt 0.453333 0.880000
vt 0.546667 0.880000
vt 0.500000 0.786667
vt 0.453333 0.880000
vt 0.546667 0.880000
vt 0.500000 0.786667
vt 0.453333 0.880000
vt 0.546667 0.880000
vt 0.500000 0.786667
vt 0.453333 0.880000
vt 0.546667 0.880000
vt 0.500000 0.786667
vt 0.453333 0.880000
vt 0.546667 0.880000
vt 0.500000 0.786667
vt 0.453333 0.880000
vt 0.546667 0.880000
vt 0.500000 0.786667
vt 0.453333 0.880000
vt 0.546667 0.880000
vt 0.500000 0.786667
vt 0.453333 0.880000
vt 0.546667 0.880000
vt 0.500000 0.786667
vt 0.453333 0.880000
vt 0.546667 0.880000
vt 0.500000 0.786667
vt 0.453333 0.880000
vt 0.546667 0.880000
vt 0.500000 0.786667
vt 0.453333 0.880000
vt 0.546667 0.880000
vt 0.500000 0.786667
vt 0.453333 0.880000
vt 0.546667 0.880000
vt 0.500000 0.786667
vt 0.453333 0.880000
vt 0.546667 0.880000
vt 0.500000 0.786667
vt 0.453333 0.880000
vt 0.546667 0.880000
vt 0.500000 0.786667
vt 0.453333 0.880000
vt 0.546667 0.880000
vt 0.500000 0.786667
vt 0.453333 0.880000
vt 0.546667 0.880000
vt 0.500000 0.786667
vt 0.453333 0.880000
vt 0.546667 0.880000
vt 0.500000 0.786667
vt 0.453333 0.880000
vt 0.546667 0.880000
vt 0.500000 0.786667
vt 0.453333 0.880000
vt 0.546667 0.880000
vt 0.500000 0.786667
vt 0.453333 0.880000
vt 0.546667 0.880000
vt 0.500000 0.786667
vt 0.453333 0.880000
vt 0.546667 0.880000
vt 0.500000 0.786667
vt 0.453333 0.880000
vt 0.546667 0.880000
vt 0.500000 0.786667
vt 0.453333 0.880000
vt 0.546667 0.880000
vt 0.500000 0.786667
vt 0.453333 0.880000
vt 0.546667 0.880000
vt 0.500000 0.786667
vn -0.780877 -0.144024 -0.607855
vn -0.386599 0.775307 -0.499441
vn -0.780232 0.117594 -0.614337
vn -0.386599 0.775307 -0.499441
vn -0.162514 0.879300 -0.447683
vn -0.780232 0.117594 -0.614337
vn -0.386599 0.775307 -0.499441
vn 0.337874 0.924830 0.174729
vn -0.162514 0.879300 -0.447683
vn 0.337874 0.924830 0.174729
vn 0.628992 0.760994 0.158926
vn -0.162514 0.879300 -0.447683
vn 0.337874 0.924830 0.174729
vn 0.713972 0.157964 0.682122
vn 0.628992 0.760994 0.158926
vn 0.713972 0.157964 0.682122
vn 0.794388 -0.124160 0.594586
vn 0.628992 0.760994 0.158926
vn 0.713972 0.157964 0.682122
vn 0.368084 -0.771194 0.519398
vn 0.794388 -0.124160 0.594586
vn 0.368084 -0.771194 0.519398
vn 0.177564 -0.885883 0.428581
vn 0.794388 -0.124160 0.594586
vn 0.368084 -0.771194 0.519398
vn -0.355560 -0.921599 -0.155669
vn 0.177564 -0.885883 0.428581
vn -0.355560 -0.921599 -0.155669
vn -0.614661 -0.768428 -0.178073
vn 0.177564 -0.885883 0.428581
vn -0.355560 -0.921599 -0.155669
vn -0.780877 -0.144024 -0.607855
vn -0.614661 -0.768428 -0.178073
vn -0.780877 -0.144024 -0.607855
vn -0.780232 0.117594 -0.614337
vn -0.614661 -0.768428 -0.178073
vn -0.780232 0.117594 -0.614337
vn -0.162514 0.879300 -0.447683
vn -0.693869 0.344101 -0.632566
vn -0.162514 0.879300 -0.447683
vn 0.164643 0.851980 -0.497014
vn -0.693869 0.344101 -0.632566
vn -0.162514 0.879300 -0.447683
vn 0.628992 0.760994 0.158926
vn 0.164643 0.851980 -0.497014
vn 0.628992 0.760994 0.158926
vn 0.856411 0.503806 0.112874
vn 0.164643 0.851980 -0.497014
vn 0.628992 0.760994 0.158926
vn 0.794388 -0.124160 0.594586
vn 0.856411 0.503806 0.112874
vn 0.794388 -0.124160 0.594586
vn 0.710369 -0.357394 0.606338
vn 0.856411 0.503806 0.112874
vn 0.794388 -0.124160 0.594586
vn 0.177564 -0.885883 0.428581
vn 0.710369 -0.357394 0.606338
vn 0.177564 -0.885883 0.428581
vn -0.150436 -0.866658 0.475681
vn 0.710369 -0.357394 0.606338
vn 0.177564 -0.885883 0.428581
vn -0.614661 -0.768428 -0.178073
vn -0.150436 -0.866658 0.475681
vn -0.614661 -0.768428 -0.178073
vn -0.845005 -0.517063 -0.136425
vn -0.150436 -0.866658 0.475681
vn -0.614661 -0.768428 -0.178073
vn -0.780232 0.117594 -0.614337
vn -0.845005 -0.517063 -0.136425
vn -0.780232 0.117594 -0.614337
vn -0.693869 0.344101 -0.632566
vn -0.845005 -0.517063 -0.136425
vn -0.780877 -0.144024 -0.607855
vn 0.337874 0.924830 0.174729
vn -0.386599 0.775307 -0.499441
vn -0.693869 0.344101 -0.632566
vn 0.164643 0.851980 -0.497014
vn 0.856411 0.503806 0.112874
vn -0.780877 -0.144024 -0.607855
vn 0.713972 0.157964 0.682122
vn 0.337874 0.924830 0.174729
vn -0.693869 0.344101 -0.632566
vn 0.856411 0.503806 0.112874
vn 0.710369 -0.357394 0.606338
vn -0.780877 -0.144024 -0.607855
vn 0.368084 -0.771194 0.519398
vn 0.713972 0.157964 0.682122
vn -0.693869 0.344101 -0.632566
vn 0.710369 -0.357394 0.606338
vn -0.150436 -0.866658 0.475681
vn -0.780877 -0.144024 -0.607855
vn -0.355560 -0.921599 -0.155669
vn 0.368084 -0.771194 0.519398
vn -0.693869 0.344101 -0.632566
vn -0.150436 -0.866658 0.475681
vn -0.845005 -0.517063 -0.136425
usemtl Dragon_color_atlas
f 1/1/1 2/2/2 3/3/3
f 4/4/4 5/5/5 6/6/6
f 7/7/7 8/8/8 9/9/9
f 10/10/10 11/11/11 12/12/12
f 13/13/13 14/14/14 15/15/15
f 16/16/16 17/17/17 18/18/18
f 19/19/19 20/20/20 21/21/21
f 22/22/22 23/23/23 24/24/24
f 25/25/25 26/26/26 27/27/27
f 28/28/28 29/29/29 30/30/30
f 31/31/31 32/32/32 33/33/33
f 34/34/34 35/35/35 36/36/36
f 37/37/37 38/38/38 39/39/39
f 40/40/40 41/41/41 42/42/42
f 43/43/43 44/44/44 45/45/45
f 46/46/46 47/47/47 48/48/48
f 49/49/49 50/50/50 51/51/51
f 52/52/52 53/53/53 54/54/54
f 55/55/55 56/56/56 57/57/57
f 58/58/58 59/59/59 60/60/60
f 61/61/61 62/62/62 63/63/63
f 64/64/64 65/65/65 66/66/66
f 67/67/67 68/68/68 69/69/69
f 70/70/70 71/71/71 72/72/72
f 73/73/73 74/74/74 75/75/75
f 76/76/76 77/77/77 78/78/78
f 79/79/79 80/80/80 81/81/81
f 82/82/82 83/83/83 84/84/84
f 85/85/85 86/86/86 87/87/87
f 88/88/88 89/89/89 90/90/90
f 91/91/91 92/92/92 93/93/93
f 94/94/94 95/95/95 96/96/96
