# Obsidian West — joint-local part geometry, +Y up, +Z forward
mtllib materials.mtl
o R_Wing_Membrane_3
v -0.099791 -0.000000 -0.046278
v -0.037311 0.090444 -0.050276
v 1.049776 -0.880000 -2.438870
v -0.037311 0.090444 -0.050276
v 1.094437 -0.822888 -2.453688
v 1.049776 -0.880000 -2.438870
v -0.037311 0.090444 -0.050276
v 0.062481 0.090444 -0.003998
v 1.094437 -0.822888 -2.453688
v 0.062481 0.090444 -0.003998
v 1.164061 -0.822888 -2.428619
v 1.094437 -0.822888 -2.453688
v 0.062481 0.090444 -0.003998
v 0.099791 -0.000000 0.046278
v 1.164061 -0.822888 -2.428619
v 0.099791 -0.000000 0.046278
v 1.189024 -0.880000 -2.388730
v 1.164061 -0.822888 -2.428619
v 0.099791 -0.000000 0.046278
v 0.037311 -0.090444 0.050276
v 1.189024 -0.880000 -2.388730
v 0.037311 -0.090444 0.050276
v 1.144363 -0.937112 -2.373911
v 1.189024 -0.880000 -2.388730
v 0.037311 -0.090444 0.050276
v -0.062480 -0.090444 0.003998
v 1.144363 -0.937112 -2.373911
v -0.062480 -0.090444 0.003998
v 1.074739 -0.937112 -2.398981
v 1.144363 -0.937112 -2.373911
v -0.062480 -0.090444 0.003998
v -0.099791 -0.000000 -0.046278
v 1.074739 -0.937112 -2.398981
v -0.099791 -0.000000 -0.046278
v 1.049776 -0.880000 -2.438870
v 1.074739 -0.937112 -2.398981
v 1.049776 -0.880000 -2.438870
v 1.094437 -0.822888 -2.453688
v 1.914573 -2.900000 -5.364244
v 1.094437 -0.822888 -2.453688
v 1.924314 -2.888441 -5.369490
v 1.914573 -2.900000 -5.364244
v 1.094437 -0.822888 -2.453688
v 1.164061 -0.822888 -2.428619
v 1.924314 -2.888441 -5.369490
v 1.164061 -0.822888 -2.428619
v 1.939740 -2.888441 -5.365245
v 1.924314 -2.888441 -5.369490
v 1.164061 -0.822888 -2.428619
v 1.189024 -0.880000 -2.388730
v 1.939740 -2.888441 -5.365245
v 1.189024 -0.880000 -2.388730
v 1.945427 -2.900000 -5.355755
v 1.939740 -2.888441 -5.365245
v 1.189024 -0.880000 -2.388730
v 1.144363 -0.937112 -2.373911
v 1.945427 -2.900000 -5.355755
v 1.144363 -0.937112 -2.373911
v 1.935686 -2.911559 -5.350510
v 1.945427 -2.900000 -5.355755
v 1.144363 -0.937112 -2.373911
v 1.074739 -0.937112 -2.398981
v 1.935686 -2.911559 -5.350510
v 1.074739 -0.937112 -2.398981
v 1.920260 -2.911559 -5.354754
v 1.935686 -2.911559 -5.350510
v 1.074739 -0.937112 -2.398981
v 1.049776 -0.880000 -2.438870
v 1.920260 -2.911559 -5.354754
v 1.049776 -0.880000 -2.438870
v 1.914573 -2.900000 -5.364244
v 1.920260 -2.911559 -5.354754
v -0.099791 -0.000000 -0.046278
v 0.062481 0.090444 -0.003998
v -0.037311 0.090444 -0.050276
v 1.914573 -2.900000 -5.364244
v 1.924314 -2.888441 -5.369490
v 1.939740 -2.888441 -5.365245
v -0.099791 -0.000000 -0.046278
v 0.099791 -0.000000 0.046278
v 0.062481 0.090444 -0.003998
v 1.914573 -2.900000 -5.364244
v 1.939740 -2.888441 -5.365245
v 1.945427 -2.900000 -5.355755
v -0.099791 -0.000000 -0.046278
v 0.037311 -0.090444 0.050276
v 0.099791 -0.000000 0.046278
v 1.914573 -2.900000 -5.364244
v 1.945427 -2.900000 -5.355755
v 1.935686 -2.911559 -5.350510
v -0.099791 -0.000000 -0.046278
v -0.062480 -0.090444 0.003998
v 0.037311 -0.090444 0.050276
v 1.914573 -2.900000 -5.364244
v 1.935686 -2.911559 -5.350510
v 1.920260 -2.911559 -5.354754
v 0.792413 -2.275708 -3.806993
v -0.000000 -0.000000 0.000000
v 1.119400 -0.880000 -2.413800
v 0.792413 -2.275708 -3.806993
v 1.119400 -0.880000 -2.413800
v 1.930000 -2.900000 -5.360000
v 0.792413 -2.275708 -3.806993
v 1.930000 -2.900000 -5.360000
v 1.412937 -2.682500 -4.826095
v 0.792413 -2.275708 -3.806993
v 1.412937 -2.682500 -4.826095
v 1.079000 -2.407000 -4.263544
v 0.792413 -2.275708 -3.806993
v 1.079000 -2.407000 -4.263544
v 1.083300 -2.668000 -4.685928
v 0.792413 -2.275708 -3.806993
v 1.083300 -2.668000 -4.685928
v 0.788500 -2.204000 -3.833288
v 0.792413 -2.275708 -3.806993
v 0.788500 -2.204000 -3.833288
v 0.841800 -2.668000 -4.600368
v 0.792413 -2.275708 -3.806993
v 0.841800 -2.668000 -4.600368
v 0.537225 -2.523000 -4.258650
v 0.792413 -2.275708 -3.806993
v 0.537225 -2.523000 -4.258650
v 0.432400 -2.726000 -4.548848
v 0.792413 -2.275708 -3.806993
v 0.432400 -2.726000 -4.548848
v 0.180000 -2.900000 -4.740000
v 0.792413 -2.275708 -3.806993
v 0.180000 -2.900000 -4.740000
v 0.104400 -1.310000 -2.153400
v 0.792413 -2.275708 -3.806993
v 0.104400 -1.310000 -2.153400
v -0.000000 -0.000000 0.000000
vt 0.453333 0.880000
vt 0.546667 0.880000
vt 0.500000 0.786667
vt 0.453333 0.880000
vt 0.546667 0.880000
vt 0.500000 0.786667
vt 0.453333 0.880000
vt 0.546667 0.880000
vt 0.500000 0.786667
vt 0.453333 0.880000
vt 0.546667 0.880000
vt 0.500000 0.786667
vt 0.453333 0.880000
vt 0.546667 0.880000
vt 0.500000 0.786667
vt 0.453333 0.880000
vt 0.546667 0.880000
vt 0.500000 0.786667
vt 0.453333 0.880000
vt 0.546667 0.880000
vt 0.500000 0.786667
vt 0.453333 0.880000
vt 0.546667 0.880000
vt 0.500000 0.786667
vt 0.453333 0.880000
vt 0.546667 0.880000
vt 0.500000 0.786667
vt 0.453333 0.880000
vt 0.546667 0.880000
vt 0.500000 0.786667
vt 0.453333 0.880000
vt 0.546667 0.880000
vt 0.500000 0.786667
vt 0.453333 0.880000
vt 0.546667 0.880000
vt 0.500000 0.786667
vt 0.453333 0.880000
vt 0.546667 0.880000
vt 0.500000 0.786667
vt 0.453333 0.880000
vt 0.546667 0.880000
vt 0.500000 0.786667
vt 0.453333 0.880000
vt 0.546667 0.880000
vt 0.500000 0.786667
vt 0.453333 0.880000
vt 0.546667 0.880000
vt 0.500000 0.786667
vt 0.453333 0.880000
vt 0.546667 0.880000
vt 0.500000 0.786667
vt 0.453333 0.880000
vt 0.546667 0.880000
vt 0.500000 0.786667
vt 0.453333 0.880000
vt 0.546667 0.880000
vt 0.500000 0.786667
vt 0.453333 0.880000
vt 0.546667 0.880000
vt 0.500000 0.786667
vt 0.453333 0.880000
vt 0.546667 0.880000
vt 0.500000 0.786667
vt 0.453333 0.880000
vt 0.546667 0.880000
vt 0.500000 0.786667
vt 0.453333 0.880000
vt 0.546667 0.880000
vt 0.500000 0.786667
vt 0.453333 0.880000
vt 0.546667 0.880000
vt 0.500000 0.786667
vt 0.453333 0.880000
vt 0.546667 0.880000
vt 0.500000 0.786667
vt 0.453333 0.880000
vt 0.546667 0.880000
vt 0.500000 0.786667
vt 0.453333 0.880000
vt 0.546667 0.880000
vt 0.500000 0.786667
vt 0.453333 0.880000
vt 0.546667 0.880000
vt 0.500000 0.786667
vt 0.453333 0.880000
vt 0.546667 0.880000
vt 0.500000 0.786667
vt 0.453333 0.880000
vt 0.546667 0.880000
vt 0.500000 0.786667
vt 0.453333 0.880000
vt 0.546667 0.880000
vt 0.500000 0.786667
vt 0.453333 0.880000
vt 0.546667 0.880000
vt 0.500000 0.786667
vt 0.120000 0.546667
vt 0.213333 0.546667
vt 0.166667 0.453333
vt 0.120000 0.546667
vt 0.213333 0.546667
vt 0.166667 0.453333
vt 0.120000 0.546667
vt 0.213333 0.546667
vt 0.166667 0.453333
vt 0.120000 0.546667
vt 0.213333 0.546667
vt 0.166667 0.453333
vt 0.120000 0.546667
vt 0.213333 0.546667
vt 0.166667 0.453333
vt 0.120000 0.546667
vt 0.213333 0.546667
vt 0.166667 0.453333
vt 0.120000 0.546667
vt 0.213333 0.546667
vt 0.166667 0.453333
vt 0.120000 0.546667
vt 0.213333 0.546667
vt 0.166667 0.453333
vt 0.120000 0.546667
vt 0.213333 0.546667
vt 0.166667 0.453333
vt 0.120000 0.546667
vt 0.213333 0.546667
vt 0.166667 0.453333
vt 0.120000 0.546667
vt 0.213333 0.546667
vt 0.166667 0.453333
vt 0.120000 0.546667
vt 0.213333 0.546667
vt 0.166667 0.453333
vn -0.943947 -0.122445 -0.306549
vn -0.464578 0.741594 -0.483948
vn -0.914573 0.101452 -0.391489
vn -0.464578 0.741594 -0.483948
vn -0.241784 0.829584 -0.503319
vn -0.914573 0.101452 -0.391489
vn -0.464578 0.741594 -0.483948
vn 0.440708 0.893511 -0.086113
vn -0.241784 0.829584 -0.503319
vn 0.440708 0.893511 -0.086113
vn 0.679261 0.723401 -0.123676
vn -0.241784 0.829584 -0.503319
vn 0.440708 0.893511 -0.086113
vn 0.897756 0.160355 0.410268
vn 0.679261 0.723401 -0.123676
vn 0.897756 0.160355 0.410268
vn 0.923332 -0.112729 0.367084
vn 0.679261 0.723401 -0.123676
vn 0.897756 0.160355 0.410268
vn 0.451500 -0.730939 0.511738
vn 0.923332 -0.112729 0.367084
vn 0.451500 -0.730939 0.511738
vn 0.251410 -0.840898 0.479253
vn 0.923332 -0.112729 0.367084
vn 0.451500 -0.730939 0.511738
vn -0.453520 -0.883992 0.113485
vn 0.251410 -0.840898 0.479253
vn -0.453520 -0.883992 0.113485
vn -0.670259 -0.735385 0.099809
vn 0.251410 -0.840898 0.479253
vn -0.453520 -0.883992 0.113485
vn -0.943947 -0.122445 -0.306549
vn -0.670259 -0.735385 0.099809
vn -0.943947 -0.122445 -0.306549
vn -0.914573 0.101452 -0.391489
vn -0.670259 -0.735385 0.099809
vn -0.914573 0.101452 -0.391489
vn -0.241784 0.829584 -0.503319
vn -0.820400 0.324300 -0.470929
vn -0.241784 0.829584 -0.503319
vn 0.044489 0.820844 -0.569417
vn -0.820400 0.324300 -0.470929
vn -0.241784 0.829584 -0.503319
vn 0.679261 0.723401 -0.123676
vn 0.044489 0.820844 -0.569417
vn 0.679261 0.723401 -0.123676
vn 0.864666 0.488452 -0.117335
vn 0.044489 0.820844 -0.569417
vn 0.679261 0.723401 -0.123676
vn 0.923332 -0.112729 0.367084
vn 0.864666 0.488452 -0.117335
vn 0.923332 -0.112729 0.367084
vn 0.829851 -0.341584 0.441211
vn 0.864666 0.488452 -0.117335
vn 0.923332 -0.112729 0.367084
vn 0.251410 -0.840898 0.479253
vn 0.829851 -0.341584 0.441211
vn 0.251410 -0.840898 0.479253
vn -0.036056 -0.838137 0.544266
vn 0.829851 -0.341584 0.441211
vn 0.251410 -0.840898 0.479253
vn -0.670259 -0.735385 0.099809
vn -0.036056 -0.838137 0.544266
vn -0.670259 -0.735385 0.099809
vn -0.858395 -0.504841 0.091067
vn -0.036056 -0.838137 0.544266
vn -0.670259 -0.735385 0.099809
vn -0.914573 0.101452 -0.391489
vn -0.858395 -0.504841 0.091067
vn -0.914573 0.101452 -0.391489
vn -0.820400 0.324300 -0.470929
vn -0.858395 -0.504841 0.091067
vn -0.943947 -0.122445 -0.306549
vn 0.440708 0.893511 -0.086113
vn -0.464578 0.741594 -0.483948
vn -0.820400 0.324300 -0.470929
vn 0.044489 0.820844 -0.569417
vn 0.864666 0.488452 -0.117335
vn -0.943947 -0.122445 -0.306549
vn 0.897756 0.160355 0.410268
vn 0.440708 0.893511 -0.086113
vn -0.820400 0.324300 -0.470929
vn 0.864666 0.488452 -0.117335
vn 0.829851 -0.341584 0.441211
vn -0.943947 -0.122445 -0.306549
vn 0.451500 -0.730939 0.511738
vn 0.897756 0.160355 0.410268
vn -0.820400 0.324300 -0.470929
vn 0.829851 -0.341584 0.441211
vn -0.036056 -0.838137 0.544266
vn -0.943947 -0.122445 -0.306549
vn -0.453520 -0.883992 0.113485
vn 0.451500 -0.730939 0.511738
vn -0.820400 0.324300 -0.470929
vn -0.036056 -0.838137 0.544266
vn -0.858395 -0.504841 0.091067
vn -0.355132 0.762513 -0.540791
vn -0.442606 0.726113 -0.526176
vn -0.513888 0.663358 -0.543944
vn -0.355132 0.762513 -0.540791
vn -0.513888 0.663358 -0.543944
vn -0.401123 0.709726 -0.579127
vn -0.355132 0.762513 -0.540791
vn -0.401123 0.709726 -0.579127
vn 0.282918 0.937631 -0.202005
vn -0.355132 0.762513 -0.540791
vn 0.282918 0.937631 -0.202005
vn -0.100152 0.937756 -0.332541
vn -0.355132 0.762513 -0.540791
vn -0.100152 0.937756 -0.332541
vn 0.068059 0.919245 -0.387759
vn -0.355132 0.762513 -0.540791
vn 0.068059 0.919245 -0.387759
vn 0.313819 0.341928 0.885778
vn -0.355132 0.762513 -0.540791
vn 0.313819 0.341928 0.885778
vn -0.328083 0.838515 -0.435034
vn -0.355132 0.762513 -0.540791
vn -0.328083 0.838515 -0.435034
vn -0.177325 0.901988 -0.393668
vn -0.355132 0.762513 -0.540791
vn -0.177325 0.901988 -0.393668
vn -0.551864 0.804289 -0.220375
vn -0.355132 0.762513 -0.540791
vn -0.551864 0.804289 -0.220375
vn -0.083840 0.852745 -0.515555
vn -0.355132 0.762513 -0.540791
vn -0.083840 0.852745 -0.515555
vn -0.062537 0.850286 -0.522592
vn -0.355132 0.762513 -0.540791
vn -0.062537 0.850286 -0.522592
vn -0.442606 0.726113 -0.526176
usemtl Dragon_color_atlas
f 1/1/1 2/2/2 3/3/3
f 4/4/4 5/5/5 6/6/6
f 7/7/7 8/8/8 9/9/9
f 10/10/10 11/11/11 12/12/12
f 13/13/13 14/14/14 15/15/15
f 16/16/16 17/17/17 18/18/18
f 19/19/19 20/20/20 21/21/21
f 22/22/22 23/23/23 24/24/24
f 25/25/25 26/26/26 27/27/27
f 28/28/28 29/29/29 30/30/30
f 31/31/31 32/32/32 33/33/33
f 34/34/34 35/35/35 36/36/36
f 37/37/37 38/38/38 39/39/39
f 40/40/40 41/41/41 42/42/42
f 43/43/43 44/44/44 45/45/45
f 46/46/46 47/47/47 48/48/48
f 49/49/49 50/50/50 51/51/51
f 52/52/52 53/53/53 54/54/54
f 55/55/55 56/56/56 57/57/57
f 58/58/58 59/59/59 60/60/60
f 61/61/61 62/62/62 63/63/63
f 64/64/64 65/65/65 66/66/66
f 67/67/67 68/68/68 69/69/69
f 70/70/70 71/71/71 72/72/72
f 73/73/73 74/74/74 75/75/75
f 76/76/76 77/77/77 78/78/78
f 79/79/79 80/80/80 81/81/81
f 82/82/82 83/83/83 84/84/84
f 85/85/85 86/86/86 87/87/87
f 88/88/88 89/89/89 90/90/90
f 91/91/91 92/92/92 93/93/93
f 94/94/94 95/95/95 96/96/96
f 97/97/97 98/98/98 99/99/99
f 100/100/100 101/101/101 102/102/102
f 103/103/103 104/104/104 105/105/105
f 106/106/106 107/107/107 108/108/108
f 109/109/109 110/110/110 111/111/111
f 112/112/112 113/113/113 114/114/114
f 115/115/115 116/116/116 117/117/117
f 118/118/118 119/119/119 120/120/120
f 121/121/121 122/122/122 123/123/123
f 124/124/124 125/125/125 126/126/126
f 127/127/127 128/128/128 129/129/129
f 130/130/130 131/131/131 132/132/132
