# Obsidian West — joint-local part geometry, +Y up, +Z forward
mtllib materials.mtl
o Tail_08
v -0.145185 -0.000000 -0.126749
v -0.075125 0.129688 -0.121166
v 0.119652 -0.135000 -0.450621
v -0.075125 0.129688 -0.121166
v 0.194616 0.003765 -0.444647
v 0.119652 -0.135000 -0.450621
v -0.075125 0.129688 -0.121166
v 0.038942 0.183406 -0.044606
v 0.194616 0.003765 -0.444647
v 0.038942 0.183406 -0.044606
v 0.316667 0.061244 -0.362728
v 0.194616 0.003765 -0.444647
v 0.038942 0.183406 -0.044606
v 0.130197 0.129688 0.058084
v 0.316667 0.061244 -0.362728
v 0.130197 0.129688 0.058084
v 0.414311 0.003765 -0.252851
v 0.316667 0.061244 -0.362728
v 0.130197 0.129688 0.058084
v 0.145185 -0.000000 0.126749
v 0.414311 0.003765 -0.252851
v 0.145185 -0.000000 0.126749
v 0.430348 -0.135000 -0.179379
v 0.414311 0.003765 -0.252851
v 0.145185 -0.000000 0.126749
v 0.075125 -0.129687 0.121166
v 0.430348 -0.135000 -0.179379
v 0.075125 -0.129687 0.121166
v 0.355384 -0.273766 -0.185353
v 0.430348 -0.135000 -0.179379
v 0.075125 -0.129687 0.121166
v -0.038942 -0.183406 0.044606
v 0.355384 -0.273766 -0.185353
v -0.038942 -0.183406 0.044606
v 0.233332 -0.331244 -0.267272
v 0.355384 -0.273766 -0.185353
v -0.038942 -0.183406 0.044606
v -0.130197 -0.129687 -0.058083
v 0.233332 -0.331244 -0.267272
v -0.130197 -0.129687 -0.058083
v 0.135689 -0.273766 -0.377150
v 0.233332 -0.331244 -0.267272
v -0.130197 -0.129687 -0.058083
v -0.145185 -0.000000 -0.126749
v 0.135689 -0.273766 -0.377150
v -0.145185 -0.000000 -0.126749
v 0.119652 -0.135000 -0.450621
v 0.135689 -0.273766 -0.377150
v 0.119652 -0.135000 -0.450621
v 0.194616 0.003765 -0.444647
v 0.441111 -0.270000 -0.725061
v 0.194616 0.003765 -0.444647
v 0.493656 -0.172734 -0.720874
v 0.441111 -0.270000 -0.725061
v 0.194616 0.003765 -0.444647
v 0.316667 0.061244 -0.362728
v 0.493656 -0.172734 -0.720874
v 0.316667 0.061244 -0.362728
v 0.579206 -0.132445 -0.663454
v 0.493656 -0.172734 -0.720874
v 0.316667 0.061244 -0.362728
v 0.414311 0.003765 -0.252851
v 0.579206 -0.132445 -0.663454
v 0.414311 0.003765 -0.252851
v 0.647648 -0.172734 -0.586437
v 0.579206 -0.132445 -0.663454
v 0.414311 0.003765 -0.252851
v 0.430348 -0.135000 -0.179379
v 0.647648 -0.172734 -0.586437
v 0.430348 -0.135000 -0.179379
v 0.658889 -0.270000 -0.534939
v 0.647648 -0.172734 -0.586437
v 0.430348 -0.135000 -0.179379
v 0.355384 -0.273766 -0.185353
v 0.658889 -0.270000 -0.534939
v 0.355384 -0.273766 -0.185353
v 0.606344 -0.367266 -0.539125
v 0.658889 -0.270000 -0.534939
v 0.355384 -0.273766 -0.185353
v 0.233332 -0.331244 -0.267272
v 0.606344 -0.367266 -0.539125
v 0.233332 -0.331244 -0.267272
v 0.520794 -0.407554 -0.596546
v 0.606344 -0.367266 -0.539125
v 0.233332 -0.331244 -0.267272
v 0.135689 -0.273766 -0.377150
v 0.520794 -0.407554 -0.596546
v 0.135689 -0.273766 -0.377150
v 0.452352 -0.367266 -0.673563
v 0.520794 -0.407554 -0.596546
v 0.135689 -0.273766 -0.377150
v 0.119652 -0.135000 -0.450621
v 0.452352 -0.367266 -0.673563
v 0.119652 -0.135000 -0.450621
v 0.441111 -0.270000 -0.725061
v 0.452352 -0.367266 -0.673563
v -0.145185 -0.000000 -0.126749
v 0.038942 0.183406 -0.044606
v -0.075125 0.129688 -0.121166
v 0.441111 -0.270000 -0.725061
v 0.493656 -0.172734 -0.720874
v 0.579206 -0.132445 -0.663454
v -0.145185 -0.000000 -0.126749
v 0.130197 0.129688 0.058084
v 0.038942 0.183406 -0.044606
v 0.441111 -0.270000 -0.725061
v 0.579206 -0.132445 -0.663454
v 0.647648 -0.172734 -0.586437
v -0.145185 -0.000000 -0.126749
v 0.145185 -0.000000 0.126749
v 0.130197 0.129688 0.058084
v 0.441111 -0.270000 -0.725061
v 0.647648 -0.172734 -0.586437
v 0.658889 -0.270000 -0.534939
v -0.145185 -0.000000 -0.126749
v 0.075125 -0.129687 0.121166
v 0.145185 -0.000000 0.126749
v 0.441111 -0.270000 -0.725061
v 0.658889 -0.270000 -0.534939
v 0.606344 -0.367266 -0.539125
v -0.145185 -0.000000 -0.126749
v -0.038942 -0.183406 0.044606
v 0.075125 -0.129687 0.121166
v 0.441111 -0.270000 -0.725061
v 0.606344 -0.367266 -0.539125
v 0.520794 -0.407554 -0.596546
v -0.145185 -0.000000 -0.126749
v -0.130197 -0.129687 -0.058083
v -0.038942 -0.183406 0.044606
v 0.441111 -0.270000 -0.725061
v 0.520794 -0.407554 -0.596546
v 0.452352 -0.367266 -0.673563
v 0.000000 0.215855 -0.180000
v -0.086548 0.198677 -0.180000
v -0.061199 0.198677 -0.094095
v 0.000000 0.215855 -0.180000
v -0.061199 0.198677 -0.094095
v 0.000000 0.198677 -0.058513
v 0.000000 0.215855 -0.180000
v 0.000000 0.198677 -0.058513
v 0.061199 0.198677 -0.094095
v 0.000000 0.215855 -0.180000
v 0.061199 0.198677 -0.094095
v 0.086548 0.198677 -0.180000
v 0.000000 0.215855 -0.180000
v 0.086548 0.198677 -0.180000
v 0.061199 0.198677 -0.265904
v 0.000000 0.215855 -0.180000
v 0.061199 0.198677 -0.265904
v 0.000000 0.198677 -0.301487
v 0.000000 0.215855 -0.180000
v 0.000000 0.198677 -0.301487
v -0.061199 0.198677 -0.265904
v 0.000000 0.215855 -0.180000
v -0.061199 0.198677 -0.265904
v -0.086548 0.198677 -0.180000
v -0.061199 0.198677 -0.094095
v -0.086548 0.198677 -0.180000
v -0.110276 0.150547 -0.025205
v -0.086548 0.198677 -0.180000
v -0.155954 0.150547 -0.180000
v -0.110276 0.150547 -0.025205
v 0.000000 0.198677 -0.058513
v -0.061199 0.198677 -0.094095
v 0.000000 0.150547 0.038913
v -0.061199 0.198677 -0.094095
v -0.110276 0.150547 -0.025205
v 0.000000 0.150547 0.038913
v 0.061199 0.198677 -0.094095
v 0.000000 0.198677 -0.058513
v 0.110276 0.150547 -0.025205
v 0.000000 0.198677 -0.058513
v 0.000000 0.150547 0.038913
v 0.110276 0.150547 -0.025205
v 0.086548 0.198677 -0.180000
v 0.061199 0.198677 -0.094095
v 0.155954 0.150547 -0.180000
v 0.061199 0.198677 -0.094095
v 0.110276 0.150547 -0.025205
v 0.155954 0.150547 -0.180000
v 0.061199 0.198677 -0.265904
v 0.086548 0.198677 -0.180000
v 0.110276 0.150547 -0.334795
v 0.086548 0.198677 -0.180000
v 0.155954 0.150547 -0.180000
v 0.110276 0.150547 -0.334795
v 0.000000 0.198677 -0.301487
v 0.061199 0.198677 -0.265904
v 0.000000 0.150547 -0.398913
v 0.061199 0.198677 -0.265904
v 0.110276 0.150547 -0.334795
v 0.000000 0.150547 -0.398913
v -0.061199 0.198677 -0.265904
v 0.000000 0.198677 -0.301487
v -0.110276 0.150547 -0.334795
v 0.000000 0.198677 -0.301487
v 0.000000 0.150547 -0.398913
v -0.110276 0.150547 -0.334795
v -0.086548 0.198677 -0.180000
v -0.061199 0.198677 -0.265904
v -0.155954 0.150547 -0.180000
v -0.061199 0.198677 -0.265904
v -0.110276 0.150547 -0.334795
v -0.155954 0.150547 -0.180000
v -0.110276 0.150547 -0.025205
v -0.155954 0.150547 -0.180000
v -0.137512 0.080997 0.013026
v -0.155954 0.150547 -0.180000
v -0.194472 0.080997 -0.180000
v -0.137512 0.080997 0.013026
v 0.000000 0.150547 0.038913
v -0.110276 0.150547 -0.025205
v 0.000000 0.080997 0.092980
v -0.110276 0.150547 -0.025205
v -0.137512 0.080997 0.013026
v 0.000000 0.080997 0.092980
v 0.110276 0.150547 -0.025205
v 0.000000 0.150547 0.038913
v 0.137512 0.080997 0.013026
v 0.000000 0.150547 0.038913
v 0.000000 0.080997 0.092980
v 0.137512 0.080997 0.013026
v 0.155954 0.150547 -0.180000
v 0.110276 0.150547 -0.025205
v 0.194472 0.080997 -0.180000
v 0.110276 0.150547 -0.025205
v 0.137512 0.080997 0.013026
v 0.194472 0.080997 -0.180000
v 0.110276 0.150547 -0.334795
v 0.155954 0.150547 -0.180000
v 0.137512 0.080997 -0.373026
v 0.155954 0.150547 -0.180000
v 0.194472 0.080997 -0.180000
v 0.137512 0.080997 -0.373026
v 0.000000 0.150547 -0.398913
v 0.110276 0.150547 -0.334795
v 0.000000 0.080997 -0.452980
v 0.110276 0.150547 -0.334795
v 0.137512 0.080997 -0.373026
v 0.000000 0.080997 -0.452980
v -0.110276 0.150547 -0.334795
v 0.000000 0.150547 -0.398913
v -0.137512 0.080997 -0.373026
v 0.000000 0.150547 -0.398913
v 0.000000 0.080997 -0.452980
v -0.137512 0.080997 -0.373026
v -0.155954 0.150547 -0.180000
v -0.110276 0.150547 -0.334795
v -0.194472 0.080997 -0.180000
v -0.110276 0.150547 -0.334795
v -0.137512 0.080997 -0.373026
v -0.194472 0.080997 -0.180000
v -0.137512 0.080997 0.013026
v -0.194472 0.080997 -0.180000
v -0.137512 0.003803 0.013026
v -0.194472 0.080997 -0.180000
v -0.194472 0.003803 -0.180000
v -0.137512 0.003803 0.013026
v 0.000000 0.080997 0.092980
v -0.137512 0.080997 0.013026
v 0.000000 0.003803 0.092980
v -0.137512 0.080997 0.013026
v -0.137512 0.003803 0.013026
v 0.000000 0.003803 0.092980
v 0.137512 0.080997 0.013026
v 0.000000 0.080997 0.092980
v 0.137512 0.003803 0.013026
v 0.000000 0.080997 0.092980
v 0.000000 0.003803 0.092980
v 0.137512 0.003803 0.013026
v 0.194472 0.080997 -0.180000
v 0.137512 0.080997 0.013026
v 0.194472 0.003803 -0.180000
v 0.137512 0.080997 0.013026
v 0.137512 0.003803 0.013026
v 0.194472 0.003803 -0.180000
v 0.137512 0.080997 -0.373026
v 0.194472 0.080997 -0.180000
v 0.137512 0.003803 -0.373026
v 0.194472 0.080997 -0.180000
v 0.194472 0.003803 -0.180000
v 0.137512 0.003803 -0.373026
v 0.000000 0.080997 -0.452980
v 0.137512 0.080997 -0.373026
v 0.000000 0.003803 -0.452980
v 0.137512 0.080997 -0.373026
v 0.137512 0.003803 -0.373026
v 0.000000 0.003803 -0.452980
v -0.137512 0.080997 -0.373026
v 0.000000 0.080997 -0.452980
v -0.137512 0.003803 -0.373026
v 0.000000 0.080997 -0.452980
v 0.000000 0.003803 -0.452980
v -0.137512 0.003803 -0.373026
v -0.194472 0.080997 -0.180000
v -0.137512 0.080997 -0.373026
v -0.194472 0.003803 -0.180000
v -0.137512 0.080997 -0.373026
v -0.137512 0.003803 -0.373026
v -0.194472 0.003803 -0.180000
v -0.137512 0.003803 0.013026
v -0.194472 0.003803 -0.180000
v -0.110276 -0.065747 -0.025205
v -0.194472 0.003803 -0.180000
v -0.155954 -0.065747 -0.180000
v -0.110276 -0.065747 -0.025205
v 0.000000 0.003803 0.092980
v -0.137512 0.003803 0.013026
v 0.000000 -0.065747 0.038913
v -0.137512 0.003803 0.013026
v -0.110276 -0.065747 -0.025205
v 0.000000 -0.065747 0.038913
v 0.137512 0.003803 0.013026
v 0.000000 0.003803 0.092980
v 0.110276 -0.065747 -0.025205
v 0.000000 0.003803 0.092980
v 0.000000 -0.065747 0.038913
v 0.110276 -0.065747 -0.025205
v 0.194472 0.003803 -0.180000
v 0.137512 0.003803 0.013026
v 0.155954 -0.065747 -0.180000
v 0.137512 0.003803 0.013026
v 0.110276 -0.065747 -0.025205
v 0.155954 -0.065747 -0.180000
v 0.137512 0.003803 -0.373026
v 0.194472 0.003803 -0.180000
v 0.110276 -0.065747 -0.334795
v 0.194472 0.003803 -0.180000
v 0.155954 -0.065747 -0.180000
v 0.110276 -0.065747 -0.334795
v 0.000000 0.003803 -0.452980
v 0.137512 0.003803 -0.373026
v 0.000000 -0.065747 -0.398913
v 0.137512 0.003803 -0.373026
v 0.110276 -0.065747 -0.334795
v 0.000000 -0.065747 -0.398913
v -0.137512 0.003803 -0.373026
v 0.000000 0.003803 -0.452980
v -0.110276 -0.065747 -0.334795
v 0.000000 0.003803 -0.452980
v 0.000000 -0.065747 -0.398913
v -0.110276 -0.065747 -0.334795
v -0.194472 0.003803 -0.180000
v -0.137512 0.003803 -0.373026
v -0.155954 -0.065747 -0.180000
v -0.137512 0.003803 -0.373026
v -0.110276 -0.065747 -0.334795
v -0.155954 -0.065747 -0.180000
v -0.110276 -0.065747 -0.025205
v -0.155954 -0.065747 -0.180000
v -0.061199 -0.113877 -0.094095
v -0.155954 -0.065747 -0.180000
v -0.086548 -0.113877 -0.180000
v -0.061199 -0.113877 -0.094095
v 0.000000 -0.065747 0.038913
v -0.110276 -0.065747 -0.025205
v 0.000000 -0.113877 -0.058513
v -0.110276 -0.065747 -0.025205
v -0.061199 -0.113877 -0.094095
v 0.000000 -0.113877 -0.058513
v 0.110276 -0.065747 -0.025205
v 0.000000 -0.065747 0.038913
v 0.061199 -0.113877 -0.094095
v 0.000000 -0.065747 0.038913
v 0.000000 -0.113877 -0.058513
v 0.061199 -0.113877 -0.094095
v 0.155954 -0.065747 -0.180000
v 0.110276 -0.065747 -0.025205
v 0.086548 -0.113877 -0.180000
v 0.110276 -0.065747 -0.025205
v 0.061199 -0.113877 -0.094095
v 0.086548 -0.113877 -0.180000
v 0.110276 -0.065747 -0.334795
v 0.155954 -0.065747 -0.180000
v 0.061199 -0.113877 -0.265904
v 0.155954 -0.065747 -0.180000
v 0.086548 -0.113877 -0.180000
v 0.061199 -0.113877 -0.265904
v 0.000000 -0.065747 -0.398913
v 0.110276 -0.065747 -0.334795
v 0.000000 -0.113877 -0.301487
v 0.110276 -0.065747 -0.334795
v 0.061199 -0.113877 -0.265904
v 0.000000 -0.113877 -0.301487
v -0.110276 -0.065747 -0.334795
v 0.000000 -0.065747 -0.398913
v -0.061199 -0.113877 -0.265904
v 0.000000 -0.065747 -0.398913
v 0.000000 -0.113877 -0.301487
v -0.061199 -0.113877 -0.265904
v -0.155954 -0.065747 -0.180000
v -0.110276 -0.065747 -0.334795
v -0.086548 -0.113877 -0.180000
v -0.110276 -0.065747 -0.334795
v -0.061199 -0.113877 -0.265904
v -0.086548 -0.113877 -0.180000
v -0.061199 -0.113877 -0.094095
v -0.086548 -0.113877 -0.180000
v 0.000000 -0.131055 -0.180000
v 0.000000 -0.113877 -0.058513
v -0.061199 -0.113877 -0.094095
v 0.000000 -0.131055 -0.180000
v 0.061199 -0.113877 -0.094095
v 0.000000 -0.113877 -0.058513
v 0.000000 -0.131055 -0.180000
v 0.086548 -0.113877 -0.180000
v 0.061199 -0.113877 -0.094095
v 0.000000 -0.131055 -0.180000
v 0.061199 -0.113877 -0.265904
v 0.086548 -0.113877 -0.180000
v 0.000000 -0.131055 -0.180000
v 0.000000 -0.113877 -0.301487
v 0.061199 -0.113877 -0.265904
v 0.000000 -0.131055 -0.180000
v -0.061199 -0.113877 -0.265904
v 0.000000 -0.113877 -0.301487
v 0.000000 -0.131055 -0.180000
v -0.086548 -0.113877 -0.180000
v -0.061199 -0.113877 -0.265904
v 0.000000 -0.131055 -0.180000
v -0.075164 0.144545 -0.220000
v -0.023227 0.200979 -0.176121
v -0.036079 0.321743 -0.447900
v -0.023227 0.200979 -0.176121
v -0.011149 0.348832 -0.426838
v -0.036079 0.321743 -0.447900
v -0.023227 0.200979 -0.176121
v 0.060809 0.179423 -0.192882
v -0.011149 0.348832 -0.426838
v 0.060809 0.179423 -0.192882
v 0.029188 0.338485 -0.434883
v -0.011149 0.348832 -0.426838
v 0.060809 0.179423 -0.192882
v 0.060809 0.109668 -0.247118
v 0.029188 0.338485 -0.434883
v 0.060809 0.109668 -0.247118
v 0.029188 0.305002 -0.460917
v 0.029188 0.338485 -0.434883
v 0.060809 0.109668 -0.247118
v -0.023227 0.088112 -0.263879
v 0.029188 0.305002 -0.460917
v -0.023227 0.088112 -0.263879
v -0.011149 0.294655 -0.468962
v 0.029188 0.305002 -0.460917
v -0.023227 0.088112 -0.263879
v -0.075164 0.144545 -0.220000
v -0.011149 0.294655 -0.468962
v -0.075164 0.144545 -0.220000
v -0.036079 0.321743 -0.447900
v -0.011149 0.294655 -0.468962
v -0.036079 0.321743 -0.447900
v -0.011149 0.348832 -0.426838
v -0.009000 0.478881 -0.650000
v -0.011149 0.348832 -0.426838
v -0.002781 0.485638 -0.644746
v -0.009000 0.478881 -0.650000
v -0.011149 0.348832 -0.426838
v 0.029188 0.338485 -0.434883
v -0.002781 0.485638 -0.644746
v 0.029188 0.338485 -0.434883
v 0.007281 0.483057 -0.646753
v -0.002781 0.485638 -0.644746
v 0.029188 0.338485 -0.434883
v 0.029188 0.305002 -0.460917
v 0.007281 0.483057 -0.646753
v 0.029188 0.305002 -0.460917
v 0.007281 0.474705 -0.653247
v 0.007281 0.483057 -0.646753
v 0.029188 0.305002 -0.460917
v -0.011149 0.294655 -0.468962
v 0.007281 0.474705 -0.653247
v -0.011149 0.294655 -0.468962
v -0.002781 0.472124 -0.655254
v 0.007281 0.474705 -0.653247
v -0.011149 0.294655 -0.468962
v -0.036079 0.321743 -0.447900
v -0.002781 0.472124 -0.655254
v -0.036079 0.321743 -0.447900
v -0.009000 0.478881 -0.650000
v -0.002781 0.472124 -0.655254
v -0.075164 0.144545 -0.220000
v 0.060809 0.179423 -0.192882
v -0.023227 0.200979 -0.176121
v -0.009000 0.478881 -0.650000
v -0.002781 0.485638 -0.644746
v 0.007281 0.483057 -0.646753
v -0.075164 0.144545 -0.220000
v 0.060809 0.109668 -0.247118
v 0.060809 0.179423 -0.192882
v -0.009000 0.478881 -0.650000
v 0.007281 0.483057 -0.646753
v 0.007281 0.474705 -0.653247
v -0.075164 0.144545 -0.220000
v -0.023227 0.088112 -0.263879
v 0.060809 0.109668 -0.247118
v -0.009000 0.478881 -0.650000
v 0.007281 0.474705 -0.653247
v -0.002781 0.472124 -0.655254
v -0.162694 -0.000000 -0.070744
v -0.142323 0.044288 -0.097977
v -0.337986 -0.063600 -0.335057
v -0.142323 0.044288 -0.097977
v -0.328208 -0.042342 -0.348129
v -0.337986 -0.063600 -0.335057
v -0.142323 0.044288 -0.097977
v -0.098390 0.027372 -0.128006
v -0.328208 -0.042342 -0.348129
v -0.098390 0.027372 -0.128006
v -0.307120 -0.050461 -0.362543
v -0.328208 -0.042342 -0.348129
v -0.098390 0.027372 -0.128006
v -0.091608 -0.027372 -0.119331
v -0.307120 -0.050461 -0.362543
v -0.091608 -0.027372 -0.119331
v -0.303864 -0.076738 -0.358379
v -0.307120 -0.050461 -0.362543
v -0.091608 -0.027372 -0.119331
v -0.131350 -0.044288 -0.083941
v -0.303864 -0.076738 -0.358379
v -0.131350 -0.044288 -0.083941
v -0.322941 -0.084859 -0.341392
v -0.303864 -0.076738 -0.358379
v -0.131350 -0.044288 -0.083941
v -0.162694 -0.000000 -0.070744
v -0.322941 -0.084859 -0.341392
v -0.162694 -0.000000 -0.070744
v -0.337986 -0.063600 -0.335057
v -0.322941 -0.084859 -0.341392
v -0.337986 -0.063600 -0.335057
v -0.328208 -0.042342 -0.348129
v -0.499818 -0.120000 -0.564457
v -0.328208 -0.042342 -0.348129
v -0.495958 -0.111609 -0.569617
v -0.499818 -0.120000 -0.564457
v -0.328208 -0.042342 -0.348129
v -0.307120 -0.050461 -0.362543
v -0.495958 -0.111609 -0.569617
v -0.307120 -0.050461 -0.362543
v -0.487634 -0.114814 -0.575306
v -0.495958 -0.111609 -0.569617
v -0.307120 -0.050461 -0.362543
v -0.303864 -0.076738 -0.358379
v -0.487634 -0.114814 -0.575306
v -0.303864 -0.076738 -0.358379
v -0.486349 -0.125186 -0.573663
v -0.487634 -0.114814 -0.575306
v -0.303864 -0.076738 -0.358379
v -0.322941 -0.084859 -0.341392
v -0.486349 -0.125186 -0.573663
v -0.322941 -0.084859 -0.341392
v -0.493879 -0.128391 -0.566957
v -0.486349 -0.125186 -0.573663
v -0.322941 -0.084859 -0.341392
v -0.337986 -0.063600 -0.335057
v -0.493879 -0.128391 -0.566957
v -0.337986 -0.063600 -0.335057
v -0.499818 -0.120000 -0.564457
v -0.493879 -0.128391 -0.566957
v -0.162694 -0.000000 -0.070744
v -0.098390 0.027372 -0.128006
v -0.142323 0.044288 -0.097977
v -0.499818 -0.120000 -0.564457
v -0.495958 -0.111609 -0.569617
v -0.487634 -0.114814 -0.575306
v -0.162694 -0.000000 -0.070744
v -0.091608 -0.027372 -0.119331
v -0.098390 0.027372 -0.128006
v -0.499818 -0.120000 -0.564457
v -0.487634 -0.114814 -0.575306
v -0.486349 -0.125186 -0.573663
v -0.162694 -0.000000 -0.070744
v -0.131350 -0.044288 -0.083941
v -0.091608 -0.027372 -0.119331
v -0.499818 -0.120000 -0.564457
v -0.486349 -0.125186 -0.573663
v -0.493879 -0.128391 -0.566957
v 0.087852 -0.000000 -0.129256
v 0.119196 0.044288 -0.116059
v 0.302062 -0.063600 -0.363143
v 0.119196 0.044288 -0.116059
v 0.317107 -0.042342 -0.356808
v 0.302062 -0.063600 -0.363143
v 0.119196 0.044288 -0.116059
v 0.158938 0.027372 -0.080668
v 0.317107 -0.042342 -0.356808
v 0.158938 0.027372 -0.080668
v 0.336183 -0.050461 -0.339821
v 0.317107 -0.042342 -0.356808
v 0.158938 0.027372 -0.080668
v 0.152156 -0.027372 -0.071994
v 0.336183 -0.050461 -0.339821
v 0.152156 -0.027372 -0.071994
v 0.332928 -0.076738 -0.335657
v 0.336183 -0.050461 -0.339821
v 0.152156 -0.027372 -0.071994
v 0.108222 -0.044288 -0.102023
v 0.332928 -0.076738 -0.335657
v 0.108222 -0.044288 -0.102023
v 0.311839 -0.084859 -0.350071
v 0.332928 -0.076738 -0.335657
v 0.108222 -0.044288 -0.102023
v 0.087852 -0.000000 -0.129256
v 0.311839 -0.084859 -0.350071
v 0.087852 -0.000000 -0.129256
v 0.302062 -0.063600 -0.363143
v 0.311839 -0.084859 -0.350071
v 0.302062 -0.063600 -0.363143
v 0.317107 -0.042342 -0.356808
v 0.485637 -0.120000 -0.575543
v 0.317107 -0.042342 -0.356808
v 0.491576 -0.111609 -0.573043
v 0.485637 -0.120000 -0.575543
v 0.317107 -0.042342 -0.356808
v 0.336183 -0.050461 -0.339821
v 0.491576 -0.111609 -0.573043
v 0.336183 -0.050461 -0.339821
v 0.499106 -0.114814 -0.566337
v 0.491576 -0.111609 -0.573043
v 0.336183 -0.050461 -0.339821
v 0.332928 -0.076738 -0.335657
v 0.499106 -0.114814 -0.566337
v 0.332928 -0.076738 -0.335657
v 0.497821 -0.125186 -0.564693
v 0.499106 -0.114814 -0.566337
v 0.332928 -0.076738 -0.335657
v 0.311839 -0.084859 -0.350071
v 0.497821 -0.125186 -0.564693
v 0.311839 -0.084859 -0.350071
v 0.489497 -0.128391 -0.570383
v 0.497821 -0.125186 -0.564693
v 0.311839 -0.084859 -0.350071
v 0.302062 -0.063600 -0.363143
v 0.489497 -0.128391 -0.570383
v 0.302062 -0.063600 -0.363143
v 0.485637 -0.120000 -0.575543
v 0.489497 -0.128391 -0.570383
v 0.087852 -0.000000 -0.129256
v 0.158938 0.027372 -0.080668
v 0.119196 0.044288 -0.116059
v 0.485637 -0.120000 -0.575543
v 0.491576 -0.111609 -0.573043
v 0.499106 -0.114814 -0.566337
v 0.087852 -0.000000 -0.129256
v 0.152156 -0.027372 -0.071994
v 0.158938 0.027372 -0.080668
v 0.485637 -0.120000 -0.575543
v 0.499106 -0.114814 -0.566337
v 0.497821 -0.125186 -0.564693
v 0.087852 -0.000000 -0.129256
v 0.108222 -0.044288 -0.102023
v 0.152156 -0.027372 -0.071994
v 0.485637 -0.120000 -0.575543
v 0.497821 -0.125186 -0.564693
v 0.489497 -0.128391 -0.570383
vt 0.120000 0.880000
vt 0.213333 0.880000
vt 0.166667 0.786667
vt 0.120000 0.880000
vt 0.213333 0.880000
vt 0.166667 0.786667
vt 0.120000 0.880000
vt 0.213333 0.880000
vt 0.166667 0.786667
vt 0.120000 0.880000
vt 0.213333 0.880000
vt 0.166667 0.786667
vt 0.120000 0.880000
vt 0.213333 0.880000
vt 0.166667 0.786667
vt 0.120000 0.880000
vt 0.213333 0.880000
vt 0.166667 0.786667
vt 0.120000 0.880000
vt 0.213333 0.880000
vt 0.166667 0.786667
vt 0.120000 0.880000
vt 0.213333 0.880000
vt 0.166667 0.786667
vt 0.120000 0.880000
vt 0.213333 0.880000
vt 0.166667 0.786667
vt 0.120000 0.880000
vt 0.213333 0.880000
vt 0.166667 0.786667
vt 0.120000 0.880000
vt 0.213333 0.880000
vt 0.166667 0.786667
vt 0.120000 0.880000
vt 0.213333 0.880000
vt 0.166667 0.786667
vt 0.120000 0.880000
vt 0.213333 0.880000
vt 0.166667 0.786667
vt 0.120000 0.880000
vt 0.213333 0.880000
vt 0.166667 0.786667
vt 0.120000 0.880000
vt 0.213333 0.880000
vt 0.166667 0.786667
vt 0.120000 0.880000
vt 0.213333 0.880000
vt 0.166667 0.786667
vt 0.120000 0.880000
vt 0.213333 0.880000
vt 0.166667 0.786667
vt 0.120000 0.880000
vt 0.213333 0.880000
vt 0.166667 0.786667
vt 0.120000 0.880000
vt 0.213333 0.880000
vt 0.166667 0.786667
vt 0.120000 0.880000
vt 0.213333 0.880000
vt 0.166667 0.786667
vt 0.120000 0.880000
vt 0.213333 0.880000
vt 0.166667 0.786667
vt 0.120000 0.880000
vt 0.213333 0.880000
vt 0.166667 0.786667
vt 0.120000 0.880000
vt 0.213333 0.880000
vt 0.166667 0.786667
vt 0.120000 0.880000
vt 0.213333 0.880000
vt 0.166667 0.786667
vt 0.120000 0.880000
vt 0.213333 0.880000
vt 0.166667 0.786667
vt 0.120000 0.880000
vt 0.213333 0.880000
vt 0.166667 0.786667
vt 0.120000 0.880000
vt 0.213333 0.880000
vt 0.166667 0.786667
vt 0.120000 0.880000
vt 0.213333 0.880000
vt 0.166667 0.786667
vt 0.120000 0.880000
vt 0.213333 0.880000
vt 0.166667 0.786667
vt 0.120000 0.880000
vt 0.213333 0.880000
vt 0.166667 0.786667
vt 0.120000 0.880000
vt 0.213333 0.880000
vt 0.166667 0.786667
vt 0.120000 0.880000
vt 0.213333 0.880000
vt 0.166667 0.786667
vt 0.120000 0.880000
vt 0.213333 0.880000
vt 0.166667 0.786667
vt 0.120000 0.880000
vt 0.213333 0.880000
vt 0.166667 0.786667
vt 0.120000 0.880000
vt 0.213333 0.880000
vt 0.166667 0.786667
vt 0.120000 0.880000
vt 0.213333 0.880000
vt 0.166667 0.786667
vt 0.120000 0.880000
vt 0.213333 0.880000
vt 0.166667 0.786667
vt 0.120000 0.880000
vt 0.213333 0.880000
vt 0.166667 0.786667
vt 0.120000 0.880000
vt 0.213333 0.880000
vt 0.166667 0.786667
vt 0.120000 0.880000
vt 0.213333 0.880000
vt 0.166667 0.786667
vt 0.120000 0.880000
vt 0.213333 0.880000
vt 0.166667 0.786667
vt 0.120000 0.880000
vt 0.213333 0.880000
vt 0.166667 0.786667
vt 0.120000 0.880000
vt 0.213333 0.880000
vt 0.166667 0.786667
vt 0.120000 0.880000
vt 0.213333 0.880000
vt 0.166667 0.786667
vt 0.453333 0.880000
vt 0.546667 0.880000
vt 0.500000 0.786667
vt 0.453333 0.880000
vt 0.546667 0.880000
vt 0.500000 0.786667
vt 0.453333 0.880000
vt 0.546667 0.880000
vt 0.500000 0.786667
vt 0.453333 0.880000
vt 0.546667 0.880000
vt 0.500000 0.786667
vt 0.453333 0.880000
vt 0.546667 0.880000
vt 0.500000 0.786667
vt 0.453333 0.880000
vt 0.546667 0.880000
vt 0.500000 0.786667
vt 0.453333 0.880000
vt 0.546667 0.880000
vt 0.500000 0.786667
vt 0.453333 0.880000
vt 0.546667 0.880000
vt 0.500000 0.786667
vt 0.453333 0.880000
vt 0.546667 0.880000
vt 0.500000 0.786667
vt 0.453333 0.880000
vt 0.546667 0.880000
vt 0.500000 0.786667
vt 0.453333 0.880000
vt 0.546667 0.880000
vt 0.500000 0.786667
vt 0.453333 0.880000
vt 0.546667 0.880000
vt 0.500000 0.786667
vt 0.453333 0.880000
vt 0.546667 0.880000
vt 0.500000 0.786667
vt 0.453333 0.880000
vt 0.546667 0.880000
vt 0.500000 0.786667
vt 0.453333 0.880000
vt 0.546667 0.880000
vt 0.500000 0.786667
vt 0.453333 0.880000
vt 0.546667 0.880000
vt 0.500000 0.786667
vt 0.453333 0.880000
vt 0.546667 0.880000
vt 0.500000 0.786667
vt 0.453333 0.880000
vt 0.546667 0.880000
vt 0.500000 0.786667
vt 0.453333 0.880000
vt 0.546667 0.880000
vt 0.500000 0.786667
vt 0.453333 0.880000
vt 0.546667 0.880000
vt 0.500000 0.786667
vt 0.453333 0.880000
vt 0.546667 0.880000
vt 0.500000 0.786667
vt 0.453333 0.880000
vt 0.546667 0.880000
vt 0.500000 0.786667
vt 0.453333 0.880000
vt 0.546667 0.880000
vt 0.500000 0.786667
vt 0.453333 0.880000
vt 0.546667 0.880000
vt 0.500000 0.786667
vt 0.453333 0.880000
vt 0.546667 0.880000
vt 0.500000 0.786667
vt 0.453333 0.880000
vt 0.546667 0.880000
vt 0.500000 0.786667
vt 0.453333 0.880000
vt 0.546667 0.880000
vt 0.500000 0.786667
vt 0.453333 0.880000
vt 0.546667 0.880000
vt 0.500000 0.786667
vt 0.453333 0.880000
vt 0.546667 0.880000
vt 0.500000 0.786667
vt 0.453333 0.880000
vt 0.546667 0.880000
vt 0.500000 0.786667
vt 0.453333 0.880000
vt 0.546667 0.880000
vt 0.500000 0.786667
vt 0.453333 0.880000
vt 0.546667 0.880000
vt 0.500000 0.786667
vt 0.453333 0.880000
vt 0.546667 0.880000
vt 0.500000 0.786667
vt 0.453333 0.880000
vt 0.546667 0.880000
vt 0.500000 0.786667
vt 0.453333 0.880000
vt 0.546667 0.880000
vt 0.500000 0.786667
vt 0.453333 0.880000
vt 0.546667 0.880000
vt 0.500000 0.786667
vt 0.453333 0.880000
vt 0.546667 0.880000
vt 0.500000 0.786667
vt 0.453333 0.880000
vt 0.546667 0.880000
vt 0.500000 0.786667
vt 0.453333 0.880000
vt 0.546667 0.880000
vt 0.500000 0.786667
vt 0.453333 0.880000
vt 0.546667 0.880000
vt 0.500000 0.786667
vt 0.453333 0.880000
vt 0.546667 0.880000
vt 0.500000 0.786667
vt 0.453333 0.880000
vt 0.546667 0.880000
vt 0.500000 0.786667
vt 0.453333 0.880000
vt 0.546667 0.880000
vt 0.500000 0.786667
vt 0.453333 0.880000
vt 0.546667 0.880000
vt 0.500000 0.786667
vt 0.453333 0.880000
vt 0.546667 0.880000
vt 0.500000 0.786667
vt 0.453333 0.880000
vt 0.546667 0.880000
vt 0.500000 0.786667
vt 0.453333 0.880000
vt 0.546667 0.880000
vt 0.500000 0.786667
vt 0.453333 0.880000
vt 0.546667 0.880000
vt 0.500000 0.786667
vt 0.453333 0.880000
vt 0.546667 0.880000
vt 0.500000 0.786667
vt 0.453333 0.880000
vt 0.546667 0.880000
vt 0.500000 0.786667
vt 0.453333 0.880000
vt 0.546667 0.880000
vt 0.500000 0.786667
vt 0.453333 0.880000
vt 0.546667 0.880000
vt 0.500000 0.786667
vt 0.453333 0.880000
vt 0.546667 0.880000
vt 0.500000 0.786667
vt 0.453333 0.880000
vt 0.546667 0.880000
vt 0.500000 0.786667
vt 0.453333 0.880000
vt 0.546667 0.880000
vt 0.500000 0.786667
vt 0.453333 0.880000
vt 0.546667 0.880000
vt 0.500000 0.786667
vt 0.453333 0.880000
vt 0.546667 0.880000
vt 0.500000 0.786667
vt 0.453333 0.880000
vt 0.546667 0.880000
vt 0.500000 0.786667
vt 0.453333 0.880000
vt 0.546667 0.880000
vt 0.500000 0.786667
vt 0.453333 0.880000
vt 0.546667 0.880000
vt 0.500000 0.786667
vt 0.453333 0.880000
vt 0.546667 0.880000
vt 0.500000 0.786667
vt 0.453333 0.880000
vt 0.546667 0.880000
vt 0.500000 0.786667
vt 0.453333 0.880000
vt 0.546667 0.880000
vt 0.500000 0.786667
vt 0.453333 0.880000
vt 0.546667 0.880000
vt 0.500000 0.786667
vt 0.453333 0.880000
vt 0.546667 0.880000
vt 0.500000 0.786667
vt 0.453333 0.880000
vt 0.546667 0.880000
vt 0.500000 0.786667
vt 0.453333 0.880000
vt 0.546667 0.880000
vt 0.500000 0.786667
vt 0.453333 0.880000
vt 0.546667 0.880000
vt 0.500000 0.786667
vt 0.453333 0.880000
vt 0.546667 0.880000
vt 0.500000 0.786667
vt 0.453333 0.880000
vt 0.546667 0.880000
vt 0.500000 0.786667
vt 0.453333 0.880000
vt 0.546667 0.880000
vt 0.500000 0.786667
vt 0.453333 0.880000
vt 0.546667 0.880000
vt 0.500000 0.786667
vt 0.453333 0.880000
vt 0.546667 0.880000
vt 0.500000 0.786667
vt 0.453333 0.880000
vt 0.546667 0.880000
vt 0.500000 0.786667
vt 0.453333 0.880000
vt 0.546667 0.880000
vt 0.500000 0.786667
vt 0.453333 0.880000
vt 0.546667 0.880000
vt 0.500000 0.786667
vt 0.453333 0.880000
vt 0.546667 0.880000
vt 0.500000 0.786667
vt 0.453333 0.880000
vt 0.546667 0.880000
vt 0.500000 0.786667
vt 0.453333 0.880000
vt 0.546667 0.880000
vt 0.500000 0.786667
vt 0.453333 0.880000
vt 0.546667 0.880000
vt 0.500000 0.786667
vt 0.453333 0.880000
vt 0.546667 0.880000
vt 0.500000 0.786667
vt 0.453333 0.880000
vt 0.546667 0.880000
vt 0.500000 0.786667
vt 0.453333 0.880000
vt 0.546667 0.880000
vt 0.500000 0.786667
vt 0.453333 0.880000
vt 0.546667 0.880000
vt 0.500000 0.786667
vt 0.453333 0.880000
vt 0.546667 0.880000
vt 0.500000 0.786667
vt 0.453333 0.880000
vt 0.546667 0.880000
vt 0.500000 0.786667
vt 0.453333 0.880000
vt 0.546667 0.880000
vt 0.500000 0.786667
vt 0.453333 0.880000
vt 0.546667 0.880000
vt 0.500000 0.786667
vt 0.453333 0.880000
vt 0.546667 0.880000
vt 0.500000 0.786667
vt 0.453333 0.880000
vt 0.546667 0.880000
vt 0.500000 0.786667
vt 0.453333 0.880000
vt 0.546667 0.880000
vt 0.500000 0.786667
vt 0.453333 0.880000
vt 0.546667 0.880000
vt 0.500000 0.786667
vt 0.453333 0.880000
vt 0.546667 0.880000
vt 0.500000 0.786667
vt 0.453333 0.880000
vt 0.546667 0.880000
vt 0.500000 0.786667
vt 0.453333 0.880000
vt 0.546667 0.880000
vt 0.500000 0.786667
vt 0.453333 0.880000
vt 0.546667 0.880000
vt 0.500000 0.786667
vt 0.786667 0.880000
vt 0.880000 0.880000
vt 0.833333 0.786667
vt 0.786667 0.880000
vt 0.880000 0.880000
vt 0.833333 0.786667
vt 0.786667 0.880000
vt 0.880000 0.880000
vt 0.833333 0.786667
vt 0.786667 0.880000
vt 0.880000 0.880000
vt 0.833333 0.786667
vt 0.786667 0.880000
vt 0.880000 0.880000
vt 0.833333 0.786667
vt 0.786667 0.880000
vt 0.880000 0.880000
vt 0.833333 0.786667
vt 0.786667 0.880000
vt 0.880000 0.880000
vt 0.833333 0.786667
vt 0.786667 0.880000
vt 0.880000 0.880000
vt 0.833333 0.786667
vt 0.786667 0.880000
vt 0.880000 0.880000
vt 0.833333 0.786667
vt 0.786667 0.880000
vt 0.880000 0.880000
vt 0.833333 0.786667
vt 0.786667 0.880000
vt 0.880000 0.880000
vt 0.833333 0.786667
vt 0.786667 0.880000
vt 0.880000 0.880000
vt 0.833333 0.786667
vt 0.786667 0.880000
vt 0.880000 0.880000
vt 0.833333 0.786667
vt 0.786667 0.880000
vt 0.880000 0.880000
vt 0.833333 0.786667
vt 0.786667 0.880000
vt 0.880000 0.880000
vt 0.833333 0.786667
vt 0.786667 0.880000
vt 0.880000 0.880000
vt 0.833333 0.786667
vt 0.786667 0.880000
vt 0.880000 0.880000
vt 0.833333 0.786667
vt 0.786667 0.880000
vt 0.880000 0.880000
vt 0.833333 0.786667
vt 0.786667 0.880000
vt 0.880000 0.880000
vt 0.833333 0.786667
vt 0.786667 0.880000
vt 0.880000 0.880000
vt 0.833333 0.786667
vt 0.786667 0.880000
vt 0.880000 0.880000
vt 0.833333 0.786667
vt 0.786667 0.880000
vt 0.880000 0.880000
vt 0.833333 0.786667
vt 0.786667 0.880000
vt 0.880000 0.880000
vt 0.833333 0.786667
vt 0.786667 0.880000
vt 0.880000 0.880000
vt 0.833333 0.786667
vt 0.786667 0.880000
vt 0.880000 0.880000
vt 0.833333 0.786667
vt 0.786667 0.880000
vt 0.880000 0.880000
vt 0.833333 0.786667
vt 0.786667 0.880000
vt 0.880000 0.880000
vt 0.833333 0.786667
vt 0.786667 0.880000
vt 0.880000 0.880000
vt 0.833333 0.786667
vt 0.786667 0.880000
vt 0.880000 0.880000
vt 0.833333 0.786667
vt 0.786667 0.880000
vt 0.880000 0.880000
vt 0.833333 0.786667
vt 0.786667 0.880000
vt 0.880000 0.880000
vt 0.833333 0.786667
vt 0.786667 0.880000
vt 0.880000 0.880000
vt 0.833333 0.786667
vt 0.786667 0.880000
vt 0.880000 0.880000
vt 0.833333 0.786667
vt 0.786667 0.880000
vt 0.880000 0.880000
vt 0.833333 0.786667
vt 0.786667 0.880000
vt 0.880000 0.880000
vt 0.833333 0.786667
vt 0.786667 0.880000
vt 0.880000 0.880000
vt 0.833333 0.786667
vt 0.786667 0.880000
vt 0.880000 0.880000
vt 0.833333 0.786667
vt 0.786667 0.880000
vt 0.880000 0.880000
vt 0.833333 0.786667
vt 0.786667 0.880000
vt 0.880000 0.880000
vt 0.833333 0.786667
vt 0.786667 0.880000
vt 0.880000 0.880000
vt 0.833333 0.786667
vt 0.786667 0.880000
vt 0.880000 0.880000
vt 0.833333 0.786667
vt 0.786667 0.880000
vt 0.880000 0.880000
vt 0.833333 0.786667
vt 0.786667 0.880000
vt 0.880000 0.880000
vt 0.833333 0.786667
vt 0.786667 0.880000
vt 0.880000 0.880000
vt 0.833333 0.786667
vt 0.786667 0.880000
vt 0.880000 0.880000
vt 0.833333 0.786667
vt 0.786667 0.880000
vt 0.880000 0.880000
vt 0.833333 0.786667
vt 0.786667 0.880000
vt 0.880000 0.880000
vt 0.833333 0.786667
vt 0.786667 0.880000
vt 0.880000 0.880000
vt 0.833333 0.786667
vt 0.786667 0.880000
vt 0.880000 0.880000
vt 0.833333 0.786667
vt 0.786667 0.880000
vt 0.880000 0.880000
vt 0.833333 0.786667
vt 0.786667 0.880000
vt 0.880000 0.880000
vt 0.833333 0.786667
vt 0.786667 0.880000
vt 0.880000 0.880000
vt 0.833333 0.786667
vt 0.786667 0.880000
vt 0.880000 0.880000
vt 0.833333 0.786667
vt 0.786667 0.880000
vt 0.880000 0.880000
vt 0.833333 0.786667
vt 0.786667 0.880000
vt 0.880000 0.880000
vt 0.833333 0.786667
vt 0.786667 0.880000
vt 0.880000 0.880000
vt 0.833333 0.786667
vt 0.786667 0.880000
vt 0.880000 0.880000
vt 0.833333 0.786667
vt 0.786667 0.880000
vt 0.880000 0.880000
vt 0.833333 0.786667
vt 0.786667 0.880000
vt 0.880000 0.880000
vt 0.833333 0.786667
vt 0.786667 0.880000
vt 0.880000 0.880000
vt 0.833333 0.786667
vt 0.786667 0.880000
vt 0.880000 0.880000
vt 0.833333 0.786667
vt 0.786667 0.880000
vt 0.880000 0.880000
vt 0.833333 0.786667
vt 0.786667 0.880000
vt 0.880000 0.880000
vt 0.833333 0.786667
vt 0.786667 0.880000
vt 0.880000 0.880000
vt 0.833333 0.786667
vt 0.786667 0.880000
vt 0.880000 0.880000
vt 0.833333 0.786667
vt 0.786667 0.880000
vt 0.880000 0.880000
vt 0.833333 0.786667
vt 0.786667 0.880000
vt 0.880000 0.880000
vt 0.833333 0.786667
vt 0.786667 0.880000
vt 0.880000 0.880000
vt 0.833333 0.786667
vt 0.786667 0.880000
vt 0.880000 0.880000
vt 0.833333 0.786667
vt 0.786667 0.880000
vt 0.880000 0.880000
vt 0.833333 0.786667
vt 0.786667 0.880000
vt 0.880000 0.880000
vt 0.833333 0.786667
vt 0.786667 0.880000
vt 0.880000 0.880000
vt 0.833333 0.786667
vt 0.786667 0.880000
vt 0.880000 0.880000
vt 0.833333 0.786667
vt 0.786667 0.880000
vt 0.880000 0.880000
vt 0.833333 0.786667
vt 0.786667 0.880000
vt 0.880000 0.880000
vt 0.833333 0.786667
vt 0.786667 0.880000
vt 0.880000 0.880000
vt 0.833333 0.786667
vt 0.786667 0.880000
vt 0.880000 0.880000
vt 0.833333 0.786667
vt 0.786667 0.880000
vt 0.880000 0.880000
vt 0.833333 0.786667
vn -0.979576 0.144129 0.140208
vn -0.549674 0.600800 -0.580428
vn -0.716706 0.000587 -0.697375
vn -0.549674 0.600800 -0.580428
vn -0.345600 0.667732 -0.659314
vn -0.716706 0.000587 -0.697375
vn -0.549674 0.600800 -0.580428
vn -0.098932 0.990643 -0.094013
vn -0.345600 0.667732 -0.659314
vn -0.098932 0.990643 -0.094013
vn 0.246725 0.934513 -0.256539
vn -0.345600 0.667732 -0.659314
vn -0.098932 0.990643 -0.094013
vn 0.259570 0.818350 0.512763
vn 0.246725 0.934513 -0.256539
vn 0.259570 0.818350 0.512763
vn 0.713296 0.644653 0.275011
vn 0.246725 0.934513 -0.256539
vn 0.259570 0.818350 0.512763
vn 0.344846 0.274099 0.897748
vn 0.713296 0.644653 0.275011
vn 0.344846 0.274099 0.897748
vn 0.780800 -0.032051 0.623959
vn 0.713296 0.644653 0.275011
vn 0.344846 0.274099 0.897748
vn 0.143382 -0.366721 0.919216
vn 0.780800 -0.032051 0.623959
vn 0.143382 -0.366721 0.919216
vn 0.409695 -0.699196 0.585897
vn 0.780800 -0.032051 0.623959
vn 0.143382 -0.366721 0.919216
vn -0.275176 -0.806990 0.522537
vn 0.409695 -0.699196 0.585897
vn -0.275176 -0.806990 0.522537
vn -0.182632 -0.965977 0.183121
vn 0.409695 -0.699196 0.585897
vn -0.275176 -0.806990 0.522537
vn -0.679439 -0.722748 -0.126480
vn -0.182632 -0.965977 0.183121
vn -0.679439 -0.722748 -0.126480
vn -0.649202 -0.676118 -0.348427
vn -0.182632 -0.965977 0.183121
vn -0.679439 -0.722748 -0.126480
vn -0.979576 0.144129 0.140208
vn -0.649202 -0.676118 -0.348427
vn -0.979576 0.144129 0.140208
vn -0.716706 0.000587 -0.697375
vn -0.649202 -0.676118 -0.348427
vn -0.716706 0.000587 -0.697375
vn -0.345600 0.667732 -0.659314
vn -0.110122 -0.084412 -0.990327
vn -0.345600 0.667732 -0.659314
vn -0.145375 0.704849 -0.694301
vn -0.110122 -0.084412 -0.990327
vn -0.345600 0.667732 -0.659314
vn 0.246725 0.934513 -0.256539
vn -0.145375 0.704849 -0.694301
vn 0.246725 0.934513 -0.256539
vn 0.505687 0.795581 -0.333665
vn -0.145375 0.704849 -0.694301
vn 0.246725 0.934513 -0.256539
vn 0.713296 0.644653 0.275011
vn 0.505687 0.795581 -0.333665
vn 0.713296 0.644653 0.275011
vn 0.926815 0.369599 0.066407
vn 0.505687 0.795581 -0.333665
vn 0.713296 0.644653 0.275011
vn 0.780800 -0.032051 0.623959
vn 0.926815 0.369599 0.066407
vn 0.780800 -0.032051 0.623959
vn 0.916312 -0.284718 0.281617
vn 0.926815 0.369599 0.066407
vn 0.780800 -0.032051 0.623959
vn 0.409695 -0.699196 0.585897
vn 0.916312 -0.284718 0.281617
vn 0.409695 -0.699196 0.585897
vn 0.506715 -0.834675 0.215771
vn 0.916312 -0.284718 0.281617
vn 0.409695 -0.699196 0.585897
vn -0.182632 -0.965977 0.183121
vn 0.506715 -0.834675 0.215771
vn -0.182632 -0.965977 0.183121
vn -0.116093 -0.986836 -0.112595
vn 0.506715 -0.834675 0.215771
vn -0.182632 -0.965977 0.183121
vn -0.649202 -0.676118 -0.348427
vn -0.116093 -0.986836 -0.112595
vn -0.649202 -0.676118 -0.348427
vn -0.599574 -0.597178 -0.532813
vn -0.116093 -0.986836 -0.112595
vn -0.649202 -0.676118 -0.348427
vn -0.716706 0.000587 -0.697375
vn -0.599574 -0.597178 -0.532813
vn -0.716706 0.000587 -0.697375
vn -0.110122 -0.084412 -0.990327
vn -0.599574 -0.597178 -0.532813
vn -0.979576 0.144129 0.140208
vn -0.098932 0.990643 -0.094013
vn -0.549674 0.600800 -0.580428
vn -0.110122 -0.084412 -0.990327
vn -0.145375 0.704849 -0.694301
vn 0.505687 0.795581 -0.333665
vn -0.979576 0.144129 0.140208
vn 0.259570 0.818350 0.512763
vn -0.098932 0.990643 -0.094013
vn -0.110122 -0.084412 -0.990327
vn 0.505687 0.795581 -0.333665
vn 0.926815 0.369599 0.066407
vn -0.979576 0.144129 0.140208
vn 0.344846 0.274099 0.897748
vn 0.259570 0.818350 0.512763
vn -0.110122 -0.084412 -0.990327
vn 0.926815 0.369599 0.066407
vn 0.916312 -0.284718 0.281617
vn -0.979576 0.144129 0.140208
vn 0.143382 -0.366721 0.919216
vn 0.344846 0.274099 0.897748
vn -0.110122 -0.084412 -0.990327
vn 0.916312 -0.284718 0.281617
vn 0.506715 -0.834675 0.215771
vn -0.979576 0.144129 0.140208
vn -0.275176 -0.806990 0.522537
vn 0.143382 -0.366721 0.919216
vn -0.110122 -0.084412 -0.990327
vn 0.506715 -0.834675 0.215771
vn -0.116093 -0.986836 -0.112595
vn -0.979576 0.144129 0.140208
vn -0.679439 -0.722748 -0.126480
vn -0.275176 -0.806990 0.522537
vn -0.110122 -0.084412 -0.990327
vn -0.116093 -0.986836 -0.112595
vn -0.599574 -0.597178 -0.532813
vn 0.000000 1.000000 0.000000
vn -0.386260 0.922390 0.000000
vn -0.278287 0.939815 0.198252
vn 0.000000 1.000000 0.000000
vn -0.278287 0.939815 0.198252
vn -0.000000 0.958267 0.285876
vn 0.000000 1.000000 0.000000
vn -0.000000 0.958267 0.285876
vn 0.278287 0.939815 0.198252
vn 0.000000 1.000000 0.000000
vn 0.278287 0.939815 0.198252
vn 0.386260 0.922390 0.000000
vn 0.000000 1.000000 0.000000
vn 0.386260 0.922390 0.000000
vn 0.278287 0.939815 -0.198252
vn 0.000000 1.000000 0.000000
vn 0.278287 0.939815 -0.198252
vn 0.000000 0.958267 -0.285876
vn 0.000000 1.000000 0.000000
vn 0.000000 0.958267 -0.285876
vn -0.278287 0.939815 -0.198252
vn 0.000000 1.000000 0.000000
vn -0.278287 0.939815 -0.198252
vn -0.386260 0.922390 -0.000000
vn -0.278287 0.939815 0.198252
vn -0.386260 0.922390 0.000000
vn -0.559924 0.726203 0.398891
vn -0.386260 0.922390 0.000000
vn -0.736997 0.675896 0.000000
vn -0.559924 0.726203 0.398891
vn -0.000000 0.958267 0.285876
vn -0.278287 0.939815 0.198252
vn -0.000000 0.789725 0.613461
vn -0.278287 0.939815 0.198252
vn -0.559924 0.726203 0.398891
vn -0.000000 0.789725 0.613461
vn 0.278287 0.939815 0.198252
vn -0.000000 0.958267 0.285876
vn 0.559924 0.726203 0.398891
vn -0.000000 0.958267 0.285876
vn -0.000000 0.789725 0.613461
vn 0.559924 0.726203 0.398891
vn 0.386260 0.922390 0.000000
vn 0.278287 0.939815 0.198252
vn 0.736997 0.675896 0.000000
vn 0.278287 0.939815 0.198252
vn 0.559924 0.726203 0.398891
vn 0.736997 0.675896 0.000000
vn 0.278287 0.939815 -0.198252
vn 0.386260 0.922390 0.000000
vn 0.559924 0.726203 -0.398891
vn 0.386260 0.922390 0.000000
vn 0.736997 0.675896 0.000000
vn 0.559924 0.726203 -0.398891
vn 0.000000 0.958267 -0.285876
vn 0.278287 0.939815 -0.198252
vn 0.000000 0.789725 -0.613461
vn 0.278287 0.939815 -0.198252
vn 0.559924 0.726203 -0.398891
vn 0.000000 0.789725 -0.613461
vn -0.278287 0.939815 -0.198252
vn 0.000000 0.958267 -0.285876
vn -0.559924 0.726203 -0.398891
vn 0.000000 0.958267 -0.285876
vn 0.000000 0.789725 -0.613461
vn -0.559924 0.726203 -0.398891
vn -0.386260 0.922390 -0.000000
vn -0.278287 0.939815 -0.198252
vn -0.736997 0.675896 -0.000000
vn -0.278287 0.939815 -0.198252
vn -0.559924 0.726203 -0.398891
vn -0.736997 0.675896 -0.000000
vn -0.559924 0.726203 0.398891
vn -0.736997 0.675896 0.000000
vn -0.779608 0.289393 0.555395
vn -0.736997 0.675896 0.000000
vn -0.967236 0.253880 0.000000
vn -0.779608 0.289393 0.555395
vn -0.000000 0.789725 0.613461
vn -0.559924 0.726203 0.398891
vn -0.000000 0.345724 0.938336
vn -0.559924 0.726203 0.398891
vn -0.779608 0.289393 0.555395
vn -0.000000 0.345724 0.938336
vn 0.559924 0.726203 0.398891
vn -0.000000 0.789725 0.613461
vn 0.779608 0.289393 0.555395
vn -0.000000 0.789725 0.613461
vn -0.000000 0.345724 0.938336
vn 0.779608 0.289393 0.555395
vn 0.736997 0.675896 0.000000
vn 0.559924 0.726203 0.398891
vn 0.967236 0.253880 0.000000
vn 0.559924 0.726203 0.398891
vn 0.779608 0.289393 0.555395
vn 0.967236 0.253880 0.000000
vn 0.559924 0.726203 -0.398891
vn 0.736997 0.675896 0.000000
vn 0.779608 0.289393 -0.555395
vn 0.736997 0.675896 0.000000
vn 0.967236 0.253880 0.000000
vn 0.779608 0.289393 -0.555395
vn 0.000000 0.789725 -0.613461
vn 0.559924 0.726203 -0.398891
vn 0.000000 0.345724 -0.938336
vn 0.559924 0.726203 -0.398891
vn 0.779608 0.289393 -0.555395
vn 0.000000 0.345724 -0.938336
vn -0.559924 0.726203 -0.398891
vn 0.000000 0.789725 -0.613461
vn -0.779608 0.289393 -0.555395
vn 0.000000 0.789725 -0.613461
vn 0.000000 0.345724 -0.938336
vn -0.779608 0.289393 -0.555395
vn -0.736997 0.675896 -0.000000
vn -0.559924 0.726203 -0.398891
vn -0.967236 0.253880 -0.000000
vn -0.559924 0.726203 -0.398891
vn -0.779608 0.289393 -0.555395
vn -0.967236 0.253880 -0.000000
vn -0.779608 0.289393 0.555395
vn -0.967236 0.253880 0.000000
vn -0.779608 -0.289393 0.555395
vn -0.967236 0.253880 0.000000
vn -0.967236 -0.253880 0.000000
vn -0.779608 -0.289393 0.555395
vn -0.000000 0.345724 0.938336
vn -0.779608 0.289393 0.555395
vn -0.000000 -0.345724 0.938336
vn -0.779608 0.289393 0.555395
vn -0.779608 -0.289393 0.555395
vn -0.000000 -0.345724 0.938336
vn 0.779608 0.289393 0.555395
vn -0.000000 0.345724 0.938336
vn 0.779608 -0.289393 0.555395
vn -0.000000 0.345724 0.938336
vn -0.000000 -0.345724 0.938336
vn 0.779608 -0.289393 0.555395
vn 0.967236 0.253880 0.000000
vn 0.779608 0.289393 0.555395
vn 0.967236 -0.253880 0.000000
vn 0.779608 0.289393 0.555395
vn 0.779608 -0.289393 0.555395
vn 0.967236 -0.253880 0.000000
vn 0.779608 0.289393 -0.555395
vn 0.967236 0.253880 0.000000
vn 0.779608 -0.289393 -0.555395
vn 0.967236 0.253880 0.000000
vn 0.967236 -0.253880 0.000000
vn 0.779608 -0.289393 -0.555395
vn 0.000000 0.345724 -0.938336
vn 0.779608 0.289393 -0.555395
vn 0.000000 -0.345724 -0.938336
vn 0.779608 0.289393 -0.555395
vn 0.779608 -0.289393 -0.555395
vn 0.000000 -0.345724 -0.938336
vn -0.779608 0.289393 -0.555395
vn 0.000000 0.345724 -0.938336
vn -0.779608 -0.289393 -0.555395
vn 0.000000 0.345724 -0.938336
vn 0.000000 -0.345724 -0.938336
vn -0.779608 -0.289393 -0.555395
vn -0.967236 0.253880 -0.000000
vn -0.779608 0.289393 -0.555395
vn -0.967236 -0.253880 -0.000000
vn -0.779608 0.289393 -0.555395
vn -0.779608 -0.289393 -0.555395
vn -0.967236 -0.253880 -0.000000
vn -0.779608 -0.289393 0.555395
vn -0.967236 -0.253880 0.000000
vn -0.559924 -0.726203 0.398891
vn -0.967236 -0.253880 0.000000
vn -0.736997 -0.675896 0.000000
vn -0.559924 -0.726203 0.398891
vn -0.000000 -0.345724 0.938336
vn -0.779608 -0.289393 0.555395
vn -0.000000 -0.789725 0.613461
vn -0.779608 -0.289393 0.555395
vn -0.559924 -0.726203 0.398891
vn -0.000000 -0.789725 0.613461
vn 0.779608 -0.289393 0.555395
vn -0.000000 -0.345724 0.938336
vn 0.559924 -0.726203 0.398891
vn -0.000000 -0.345724 0.938336
vn -0.000000 -0.789725 0.613461
vn 0.559924 -0.726203 0.398891
vn 0.967236 -0.253880 0.000000
vn 0.779608 -0.289393 0.555395
vn 0.736997 -0.675896 0.000000
vn 0.779608 -0.289393 0.555395
vn 0.559924 -0.726203 0.398891
vn 0.736997 -0.675896 0.000000
vn 0.779608 -0.289393 -0.555395
vn 0.967236 -0.253880 0.000000
vn 0.559924 -0.726203 -0.398891
vn 0.967236 -0.253880 0.000000
vn 0.736997 -0.675896 0.000000
vn 0.559924 -0.726203 -0.398891
vn 0.000000 -0.345724 -0.938336
vn 0.779608 -0.289393 -0.555395
vn 0.000000 -0.789725 -0.613461
vn 0.779608 -0.289393 -0.555395
vn 0.559924 -0.726203 -0.398891
vn 0.000000 -0.789725 -0.613461
vn -0.779608 -0.289393 -0.555395
vn 0.000000 -0.345724 -0.938336
vn -0.559924 -0.726203 -0.398891
vn 0.000000 -0.345724 -0.938336
vn 0.000000 -0.789725 -0.613461
vn -0.559924 -0.726203 -0.398891
vn -0.967236 -0.253880 -0.000000
vn -0.779608 -0.289393 -0.555395
vn -0.736997 -0.675896 -0.000000
vn -0.779608 -0.289393 -0.555395
vn -0.559924 -0.726203 -0.398891
vn -0.736997 -0.675896 -0.000000
vn -0.559924 -0.726203 0.398891
vn -0.736997 -0.675896 0.000000
vn -0.278287 -0.939815 0.198252
vn -0.736997 -0.675896 0.000000
vn -0.386260 -0.922390 0.000000
vn -0.278287 -0.939815 0.198252
vn -0.000000 -0.789725 0.613461
vn -0.559924 -0.726203 0.398891
vn -0.000000 -0.958267 0.285876
vn -0.559924 -0.726203 0.398891
vn -0.278287 -0.939815 0.198252
vn -0.000000 -0.958267 0.285876
vn 0.559924 -0.726203 0.398891
vn -0.000000 -0.789725 0.613461
vn 0.278287 -0.939815 0.198252
vn -0.000000 -0.789725 0.613461
vn -0.000000 -0.958267 0.285876
vn 0.278287 -0.939815 0.198252
vn 0.736997 -0.675896 0.000000
vn 0.559924 -0.726203 0.398891
vn 0.386260 -0.922390 0.000000
vn 0.559924 -0.726203 0.398891
vn 0.278287 -0.939815 0.198252
vn 0.386260 -0.922390 0.000000
vn 0.559924 -0.726203 -0.398891
vn 0.736997 -0.675896 0.000000
vn 0.278287 -0.939815 -0.198252
vn 0.736997 -0.675896 0.000000
vn 0.386260 -0.922390 0.000000
vn 0.278287 -0.939815 -0.198252
vn 0.000000 -0.789725 -0.613461
vn 0.559924 -0.726203 -0.398891
vn 0.000000 -0.958267 -0.285876
vn 0.559924 -0.726203 -0.398891
vn 0.278287 -0.939815 -0.198252
vn 0.000000 -0.958267 -0.285876
vn -0.559924 -0.726203 -0.398891
vn 0.000000 -0.789725 -0.613461
vn -0.278287 -0.939815 -0.198252
vn 0.000000 -0.789725 -0.613461
vn 0.000000 -0.958267 -0.285876
vn -0.278287 -0.939815 -0.198252
vn -0.736997 -0.675896 -0.000000
vn -0.559924 -0.726203 -0.398891
vn -0.386260 -0.922390 -0.000000
vn -0.559924 -0.726203 -0.398891
vn -0.278287 -0.939815 -0.198252
vn -0.386260 -0.922390 -0.000000
vn -0.278287 -0.939815 0.198252
vn -0.386260 -0.922390 0.000000
vn -0.000000 -1.000000 0.000000
vn -0.000000 -0.958267 0.285876
vn -0.278287 -0.939815 0.198252
vn -0.000000 -1.000000 0.000000
vn 0.278287 -0.939815 0.198252
vn -0.000000 -0.958267 0.285876
vn 0.000000 -1.000000 0.000000
vn 0.386260 -0.922390 0.000000
vn 0.278287 -0.939815 0.198252
vn 0.000000 -1.000000 0.000000
vn 0.278287 -0.939815 -0.198252
vn 0.386260 -0.922390 0.000000
vn 0.000000 -1.000000 -0.000000
vn 0.000000 -0.958267 -0.285876
vn 0.278287 -0.939815 -0.198252
vn 0.000000 -1.000000 -0.000000
vn -0.278287 -0.939815 -0.198252
vn 0.000000 -0.958267 -0.285876
vn -0.000000 -1.000000 -0.000000
vn -0.386260 -0.922390 -0.000000
vn -0.278287 -0.939815 -0.198252
vn -0.000000 -1.000000 -0.000000
vn -0.923901 -0.323478 0.204375
vn -0.438421 0.703598 0.559229
vn -0.968849 0.244983 0.036250
vn -0.438421 0.703598 0.559229
vn -0.094290 0.854768 0.510373
vn -0.968849 0.244983 0.036250
vn -0.438421 0.703598 0.559229
vn 0.699094 0.388628 0.600197
vn -0.094290 0.854768 0.510373
vn 0.699094 0.388628 0.600197
vn 0.910573 0.386576 0.146343
vn -0.094290 0.854768 0.510373
vn 0.699094 0.388628 0.600197
vn 0.858197 -0.504584 -0.094298
vn 0.910573 0.386576 0.146343
vn 0.858197 -0.504584 -0.094298
vn 0.657059 -0.512568 -0.552764
vn 0.910573 0.386576 0.146343
vn 0.858197 -0.504584 -0.094298
vn -0.173561 -0.783325 -0.596891
vn 0.657059 -0.512568 -0.552764
vn -0.173561 -0.783325 -0.596891
vn -0.504490 -0.600076 -0.620805
vn 0.657059 -0.512568 -0.552764
vn -0.173561 -0.783325 -0.596891
vn -0.923901 -0.323478 0.204375
vn -0.504490 -0.600076 -0.620805
vn -0.923901 -0.323478 0.204375
vn -0.968849 0.244983 0.036250
vn -0.504490 -0.600076 -0.620805
vn -0.968849 0.244983 0.036250
vn -0.094290 0.854768 0.510373
vn -0.893290 0.415865 0.170554
vn -0.094290 0.854768 0.510373
vn 0.136043 0.840522 0.524418
vn -0.893290 0.415865 0.170554
vn -0.094290 0.854768 0.510373
vn 0.910573 0.386576 0.146343
vn 0.136043 0.840522 0.524418
vn 0.910573 0.386576 0.146343
vn 0.978020 0.207751 0.017769
vn 0.136043 0.840522 0.524418
vn 0.910573 0.386576 0.146343
vn 0.657059 -0.512568 -0.552764
vn 0.978020 0.207751 0.017769
vn 0.657059 -0.512568 -0.552764
vn 0.468577 -0.621973 -0.627363
vn 0.978020 0.207751 0.017769
vn 0.657059 -0.512568 -0.552764
vn -0.504490 -0.600076 -0.620805
vn 0.468577 -0.621973 -0.627363
vn -0.504490 -0.600076 -0.620805
vn -0.689293 -0.503691 -0.520741
vn 0.468577 -0.621973 -0.627363
vn -0.504490 -0.600076 -0.620805
vn -0.968849 0.244983 0.036250
vn -0.689293 -0.503691 -0.520741
vn -0.968849 0.244983 0.036250
vn -0.893290 0.415865 0.170554
vn -0.689293 -0.503691 -0.520741
vn -0.923901 -0.323478 0.204375
vn 0.699094 0.388628 0.600197
vn -0.438421 0.703598 0.559229
vn -0.893290 0.415865 0.170554
vn 0.136043 0.840522 0.524418
vn 0.978020 0.207751 0.017769
vn -0.923901 -0.323478 0.204375
vn 0.858197 -0.504584 -0.094298
vn 0.699094 0.388628 0.600197
vn -0.893290 0.415865 0.170554
vn 0.978020 0.207751 0.017769
vn 0.468577 -0.621973 -0.627363
vn -0.923901 -0.323478 0.204375
vn -0.173561 -0.783325 -0.596891
vn 0.858197 -0.504584 -0.094298
vn -0.893290 0.415865 0.170554
vn 0.468577 -0.621973 -0.627363
vn -0.689293 -0.503691 -0.520741
vn -0.616951 -0.091345 0.781683
vn -0.451282 0.882169 0.134618
vn -0.834020 0.181614 0.520987
vn -0.451282 0.882169 0.134618
vn -0.249329 0.959017 -0.134620
vn -0.834020 0.181614 0.520987
vn -0.451282 0.882169 0.134618
vn 0.559737 0.701531 -0.441076
vn -0.249329 0.959017 -0.134620
vn 0.559737 0.701531 -0.441076
vn 0.625344 0.393265 -0.674008
vn -0.249329 0.959017 -0.134620
vn 0.559737 0.701531 -0.441076
vn 0.827592 -0.429176 -0.361800
vn 0.625344 0.393265 -0.674008
vn 0.827592 -0.429176 -0.361800
vn 0.581225 -0.733788 -0.351756
vn 0.625344 0.393265 -0.674008
vn 0.827592 -0.429176 -0.361800
vn -0.013846 -0.964399 0.264088
vn 0.581225 -0.733788 -0.351756
vn -0.013846 -0.964399 0.264088
vn -0.320712 -0.864601 0.386793
vn 0.581225 -0.733788 -0.351756
vn -0.013846 -0.964399 0.264088
vn -0.616951 -0.091345 0.781683
vn -0.320712 -0.864601 0.386793
vn -0.616951 -0.091345 0.781683
vn -0.834020 0.181614 0.520987
vn -0.320712 -0.864601 0.386793
vn -0.834020 0.181614 0.520987
vn -0.249329 0.959017 -0.134620
vn -0.819621 0.352606 0.451542
vn -0.249329 0.959017 -0.134620
vn -0.097077 0.965905 -0.240009
vn -0.819621 0.352606 0.451542
vn -0.249329 0.959017 -0.134620
vn 0.625344 0.393265 -0.674008
vn -0.097077 0.965905 -0.240009
vn 0.625344 0.393265 -0.674008
vn 0.692904 0.221635 -0.686121
vn -0.097077 0.965905 -0.240009
vn 0.625344 0.393265 -0.674008
vn 0.581225 -0.733788 -0.351756
vn 0.692904 0.221635 -0.686121
vn 0.581225 -0.733788 -0.351756
vn 0.477298 -0.843738 -0.245547
vn 0.692904 0.221635 -0.686121
vn 0.581225 -0.733788 -0.351756
vn -0.320712 -0.864601 0.386793
vn 0.477298 -0.843738 -0.245547
vn -0.320712 -0.864601 0.386793
vn -0.446233 -0.759408 0.473472
vn 0.477298 -0.843738 -0.245547
vn -0.320712 -0.864601 0.386793
vn -0.834020 0.181614 0.520987
vn -0.446233 -0.759408 0.473472
vn -0.834020 0.181614 0.520987
vn -0.819621 0.352606 0.451542
vn -0.446233 -0.759408 0.473472
vn -0.616951 -0.091345 0.781683
vn 0.559737 0.701531 -0.441076
vn -0.451282 0.882169 0.134618
vn -0.819621 0.352606 0.451542
vn -0.097077 0.965905 -0.240009
vn 0.692904 0.221635 -0.686121
vn -0.616951 -0.091345 0.781683
vn 0.827592 -0.429176 -0.361800
vn 0.559737 0.701531 -0.441076
vn -0.819621 0.352606 0.451542
vn 0.692904 0.221635 -0.686121
vn 0.477298 -0.843738 -0.245547
vn -0.616951 -0.091345 0.781683
vn -0.013846 -0.964399 0.264088
vn 0.827592 -0.429176 -0.361800
vn -0.819621 0.352606 0.451542
vn 0.477298 -0.843738 -0.245547
vn -0.446233 -0.759408 0.473472
vn -0.907447 -0.091342 -0.410119
vn -0.239527 0.882169 -0.405469
vn -0.706828 0.181612 -0.683675
vn -0.239527 0.882169 -0.405469
vn 0.070485 0.959017 -0.274443
vn -0.706828 0.181612 -0.683675
vn -0.239527 0.882169 -0.405469
vn 0.563098 0.701532 0.436776
vn 0.070485 0.959017 -0.274443
vn 0.563098 0.701532 0.436776
vn 0.804978 0.393265 0.444244
vn 0.070485 0.959017 -0.274443
vn 0.563098 0.701532 0.436776
vn 0.550792 -0.429178 0.715845
vn 0.804978 0.393265 0.444244
vn 0.550792 -0.429178 0.715845
vn 0.481601 -0.733789 0.479181
vn 0.804978 0.393265 0.444244
vn 0.550792 -0.429178 0.715845
vn -0.259626 -0.964399 0.050282
vn 0.481601 -0.733789 0.479181
vn -0.259626 -0.964399 0.050282
vn -0.452748 -0.864600 -0.217913
vn 0.481601 -0.733789 0.479181
vn -0.259626 -0.964399 0.050282
vn -0.907447 -0.091342 -0.410119
vn -0.452748 -0.864600 -0.217913
vn -0.907447 -0.091342 -0.410119
vn -0.706828 0.181612 -0.683675
vn -0.452748 -0.864600 -0.217913
vn -0.706828 0.181612 -0.683675
vn 0.070485 0.959017 -0.274443
vn -0.635964 0.352596 -0.686458
vn 0.070485 0.959017 -0.274443
vn 0.209495 0.965905 -0.152119
vn -0.635964 0.352596 -0.686458
vn 0.070485 0.959017 -0.274443
vn 0.804978 0.393265 0.444244
vn 0.209495 0.965905 -0.152119
vn 0.804978 0.393265 0.444244
vn 0.833034 0.221637 0.506885
vn 0.209495 0.965905 -0.152119
vn 0.804978 0.393265 0.444244
vn 0.481601 -0.733789 0.479181
vn 0.833034 0.221637 0.506885
vn 0.481601 -0.733789 0.479181
vn 0.353455 -0.843737 0.403952
vn 0.833034 0.221637 0.506885
vn 0.481601 -0.733789 0.479181
vn -0.452748 -0.864600 -0.217913
vn 0.353455 -0.843737 0.403952
vn -0.452748 -0.864600 -0.217913
vn -0.567150 -0.759408 -0.318809
vn 0.353455 -0.843737 0.403952
vn -0.452748 -0.864600 -0.217913
vn -0.706828 0.181612 -0.683675
vn -0.567150 -0.759408 -0.318809
vn -0.706828 0.181612 -0.683675
vn -0.635964 0.352596 -0.686458
vn -0.567150 -0.759408 -0.318809
vn -0.907447 -0.091342 -0.410119
vn 0.563098 0.701532 0.436776
vn -0.239527 0.882169 -0.405469
vn -0.635964 0.352596 -0.686458
vn 0.209495 0.965905 -0.152119
vn 0.833034 0.221637 0.506885
vn -0.907447 -0.091342 -0.410119
vn 0.550792 -0.429178 0.715845
vn 0.563098 0.701532 0.436776
vn -0.635964 0.352596 -0.686458
vn 0.833034 0.221637 0.506885
vn 0.353455 -0.843737 0.403952
vn -0.907447 -0.091342 -0.410119
vn -0.259626 -0.964399 0.050282
vn 0.550792 -0.429178 0.715845
vn -0.635964 0.352596 -0.686458
vn 0.353455 -0.843737 0.403952
vn -0.567150 -0.759408 -0.318809
usemtl Dragon_color_atlas
f 1/1/1 2/2/2 3/3/3
f 4/4/4 5/5/5 6/6/6
f 7/7/7 8/8/8 9/9/9
f 10/10/10 11/11/11 12/12/12
f 13/13/13 14/14/14 15/15/15
f 16/16/16 17/17/17 18/18/18
f 19/19/19 20/20/20 21/21/21
f 22/22/22 23/23/23 24/24/24
f 25/25/25 26/26/26 27/27/27
f 28/28/28 29/29/29 30/30/30
f 31/31/31 32/32/32 33/33/33
f 34/34/34 35/35/35 36/36/36
f 37/37/37 38/38/38 39/39/39
f 40/40/40 41/41/41 42/42/42
f 43/43/43 44/44/44 45/45/45
f 46/46/46 47/47/47 48/48/48
f 49/49/49 50/50/50 51/51/51
f 52/52/52 53/53/53 54/54/54
f 55/55/55 56/56/56 57/57/57
f 58/58/58 59/59/59 60/60/60
f 61/61/61 62/62/62 63/63/63
f 64/64/64 65/65/65 66/66/66
f 67/67/67 68/68/68 69/69/69
f 70/70/70 71/71/71 72/72/72
f 73/73/73 74/74/74 75/75/75
f 76/76/76 77/77/77 78/78/78
f 79/79/79 80/80/80 81/81/81
f 82/82/82 83/83/83 84/84/84
f 85/85/85 86/86/86 87/87/87
f 88/88/88 89/89/89 90/90/90
f 91/91/91 92/92/92 93/93/93
f 94/94/94 95/95/95 96/96/96
f 97/97/97 98/98/98 99/99/99
f 100/100/100 101/101/101 102/102/102
f 103/103/103 104/104/104 105/105/105
f 106/106/106 107/107/107 108/108/108
f 109/109/109 110/110/110 111/111/111
f 112/112/112 113/113/113 114/114/114
f 115/115/115 116/116/116 117/117/117
f 118/118/118 119/119/119 120/120/120
f 121/121/121 122/122/122 123/123/123
f 124/124/124 125/125/125 126/126/126
f 127/127/127 128/128/128 129/129/129
f 130/130/130 131/131/131 132/132/132
f 133/133/133 134/134/134 135/135/135
f 136/136/136 137/137/137 138/138/138
f 139/139/139 140/140/140 141/141/141
f 142/142/142 143/143/143 144/144/144
f 145/145/145 146/146/146 147/147/147
f 148/148/148 149/149/149 150/150/150
f 151/151/151 152/152/152 153/153/153
f 154/154/154 155/155/155 156/156/156
f 157/157/157 158/158/158 159/159/159
f 160/160/160 161/161/161 162/162/162
f 163/163/163 164/164/164 165/165/165
f 166/166/166 167/167/167 168/168/168
f 169/169/169 170/170/170 171/171/171
f 172/172/172 173/173/173 174/174/174
f 175/175/175 176/176/176 177/177/177
f 178/178/178 179/179/179 180/180/180
f 181/181/181 182/182/182 183/183/183
f 184/184/184 185/185/185 186/186/186
f 187/187/187 188/188/188 189/189/189
f 190/190/190 191/191/191 192/192/192
f 193/193/193 194/194/194 195/195/195
f 196/196/196 197/197/197 198/198/198
f 199/199/199 200/200/200 201/201/201
f 202/202/202 203/203/203 204/204/204
f 205/205/205 206/206/206 207/207/207
f 208/208/208 209/209/209 210/210/210
f 211/211/211 212/212/212 213/213/213
f 214/214/214 215/215/215 216/216/216
f 217/217/217 218/218/218 219/219/219
f 220/220/220 221/221/221 222/222/222
f 223/223/223 224/224/224 225/225/225
f 226/226/226 227/227/227 228/228/228
f 229/229/229 230/230/230 231/231/231
f 232/232/232 233/233/233 234/234/234
f 235/235/235 236/236/236 237/237/237
f 238/238/238 239/239/239 240/240/240
f 241/241/241 242/242/242 243/243/243
f 244/244/244 245/245/245 246/246/246
f 247/247/247 248/248/248 249/249/249
f 250/250/250 251/251/251 252/252/252
f 253/253/253 254/254/254 255/255/255
f 256/256/256 257/257/257 258/258/258
f 259/259/259 260/260/260 261/261/261
f 262/262/262 263/263/263 264/264/264
f 265/265/265 266/266/266 267/267/267
f 268/268/268 269/269/269 270/270/270
f 271/271/271 272/272/272 273/273/273
f 274/274/274 275/275/275 276/276/276
f 277/277/277 278/278/278 279/279/279
f 280/280/280 281/281/281 282/282/282
f 283/283/283 284/284/284 285/285/285
f 286/286/286 287/287/287 288/288/288
f 289/289/289 290/290/290 291/291/291
f 292/292/292 293/293/293 294/294/294
f 295/295/295 296/296/296 297/297/297
f 298/298/298 299/299/299 300/300/300
f 301/301/301 302/302/302 303/303/303
f 304/304/304 305/305/305 306/306/306
f 307/307/307 308/308/308 309/309/309
f 310/310/310 311/311/311 312/312/312
f 313/313/313 314/314/314 315/315/315
f 316/316/316 317/317/317 318/318/318
f 319/319/319 320/320/320 321/321/321
f 322/322/322 323/323/323 324/324/324
f 325/325/325 326/326/326 327/327/327
f 328/328/328 329/329/329 330/330/330
f 331/331/331 332/332/332 333/333/333
f 334/334/334 335/335/335 336/336/336
f 337/337/337 338/338/338 339/339/339
f 340/340/340 341/341/341 342/342/342
f 343/343/343 344/344/344 345/345/345
f 346/346/346 347/347/347 348/348/348
f 349/349/349 350/350/350 351/351/351
f 352/352/352 353/353/353 354/354/354
f 355/355/355 356/356/356 357/357/357
f 358/358/358 359/359/359 360/360/360
f 361/361/361 362/362/362 363/363/363
f 364/364/364 365/365/365 366/366/366
f 367/367/367 368/368/368 369/369/369
f 370/370/370 371/371/371 372/372/372
f 373/373/373 374/374/374 375/375/375
f 376/376/376 377/377/377 378/378/378
f 379/379/379 380/380/380 381/381/381
f 382/382/382 383/383/383 384/384/384
f 385/385/385 386/386/386 387/387/387
f 388/388/388 389/389/389 390/390/390
f 391/391/391 392/392/392 393/393/393
f 394/394/394 395/395/395 396/396/396
f 397/397/397 398/398/398 399/399/399
f 400/400/400 401/401/401 402/402/402
f 403/403/403 404/404/404 405/405/405
f 406/406/406 407/407/407 408/408/408
f 409/409/409 410/410/410 411/411/411
f 412/412/412 413/413/413 414/414/414
f 415/415/415 416/416/416 417/417/417
f 418/418/418 419/419/419 420/420/420
f 421/421/421 422/422/422 423/423/423
f 424/424/424 425/425/425 426/426/426
f 427/427/427 428/428/428 429/429/429
f 430/430/430 431/431/431 432/432/432
f 433/433/433 434/434/434 435/435/435
f 436/436/436 437/437/437 438/438/438
f 439/439/439 440/440/440 441/441/441
f 442/442/442 443/443/443 444/444/444
f 445/445/445 446/446/446 447/447/447
f 448/448/448 449/449/449 450/450/450
f 451/451/451 452/452/452 453/453/453
f 454/454/454 455/455/455 456/456/456
f 457/457/457 458/458/458 459/459/459
f 460/460/460 461/461/461 462/462/462
f 463/463/463 464/464/464 465/465/465
f 466/466/466 467/467/467 468/468/468
f 469/469/469 470/470/470 471/471/471
f 472/472/472 473/473/473 474/474/474
f 475/475/475 476/476/476 477/477/477
f 478/478/478 479/479/479 480/480/480
f 481/481/481 482/482/482 483/483/483
f 484/484/484 485/485/485 486/486/486
f 487/487/487 488/488/488 489/489/489
f 490/490/490 491/491/491 492/492/492
f 493/493/493 494/494/494 495/495/495
f 496/496/496 497/497/497 498/498/498
f 499/499/499 500/500/500 501/501/501
f 502/502/502 503/503/503 504/504/504
f 505/505/505 506/506/506 507/507/507
f 508/508/508 509/509/509 510/510/510
f 511/511/511 512/512/512 513/513/513
f 514/514/514 515/515/515 516/516/516
f 517/517/517 518/518/518 519/519/519
f 520/520/520 521/521/521 522/522/522
f 523/523/523 524/524/524 525/525/525
f 526/526/526 527/527/527 528/528/528
f 529/529/529 530/530/530 531/531/531
f 532/532/532 533/533/533 534/534/534
f 535/535/535 536/536/536 537/537/537
f 538/538/538 539/539/539 540/540/540
f 541/541/541 542/542/542 543/543/543
f 544/544/544 545/545/545 546/546/546
f 547/547/547 548/548/548 549/549/549
f 550/550/550 551/551/551 552/552/552
f 553/553/553 554/554/554 555/555/555
f 556/556/556 557/557/557 558/558/558
f 559/559/559 560/560/560 561/561/561
f 562/562/562 563/563/563 564/564/564
f 565/565/565 566/566/566 567/567/567
f 568/568/568 569/569/569 570/570/570
f 571/571/571 572/572/572 573/573/573
f 574/574/574 575/575/575 576/576/576
f 577/577/577 578/578/578 579/579/579
f 580/580/580 581/581/581 582/582/582
f 583/583/583 584/584/584 585/585/585
f 586/586/586 587/587/587 588/588/588
f 589/589/589 590/590/590 591/591/591
f 592/592/592 593/593/593 594/594/594
f 595/595/595 596/596/596 597/597/597
f 598/598/598 599/599/599 600/600/600
f 601/601/601 602/602/602 603/603/603
f 604/604/604 605/605/605 606/606/606
f 607/607/607 608/608/608 609/609/609
f 610/610/610 611/611/611 612/612/612
f 613/613/613 614/614/614 615/615/615
f 616/616/616 617/617/617 618/618/618
f 619/619/619 620/620/620 621/621/621
f 622/622/622 623/623/623 624/624/624
f 625/625/625 626/626/626 627/627/627
f 628/628/628 629/629/629 630/630/630
f 631/631/631 632/632/632 633/633/633
f 634/634/634 635/635/635 636/636/636
f 637/637/637 638/638/638 639/639/639
f 640/640/640 641/641/641 642/642/642
f 643/643/643 644/644/644 645/645/645
f 646/646/646 647/647/647 648/648/648
f 649/649/649 650/650/650 651/651/651
f 652/652/652 653/653/653 654/654/654
