# Obsidian West — joint-local part geometry, +Y up, +Z forward
mtllib materials.mtl
o Tail_10
v -0.059424 -0.000000 -0.075861
v -0.029690 0.066315 -0.063299
v 0.236417 -0.090000 -0.316170
v -0.029690 0.066315 -0.063299
v 0.268232 -0.019043 -0.302730
v 0.236417 -0.090000 -0.316170
v -0.029690 0.066315 -0.063299
v 0.017436 0.093784 -0.013658
v 0.268232 -0.019043 -0.302730
v 0.017436 0.093784 -0.013658
v 0.318657 0.010349 -0.249614
v 0.268232 -0.019043 -0.302730
v 0.017436 0.093784 -0.013658
v 0.054348 0.066315 0.043983
v 0.318657 0.010349 -0.249614
v 0.054348 0.066315 0.043983
v 0.358153 -0.019043 -0.187938
v 0.318657 0.010349 -0.249614
v 0.054348 0.066315 0.043983
v 0.059424 -0.000000 0.075860
v 0.358153 -0.019043 -0.187938
v 0.059424 -0.000000 0.075860
v 0.363584 -0.090000 -0.153830
v 0.358153 -0.019043 -0.187938
v 0.059424 -0.000000 0.075860
v 0.029690 -0.066315 0.063299
v 0.363584 -0.090000 -0.153830
v 0.029690 -0.066315 0.063299
v 0.331768 -0.160957 -0.167270
v 0.363584 -0.090000 -0.153830
v 0.029690 -0.066315 0.063299
v -0.017436 -0.093784 0.013658
v 0.331768 -0.160957 -0.167270
v -0.017436 -0.093784 0.013658
v 0.281343 -0.190349 -0.220386
v 0.331768 -0.160957 -0.167270
v -0.017436 -0.093784 0.013658
v -0.054348 -0.066315 -0.043983
v 0.281343 -0.190349 -0.220386
v -0.054348 -0.066315 -0.043983
v 0.241847 -0.160957 -0.282062
v 0.281343 -0.190349 -0.220386
v -0.054348 -0.066315 -0.043983
v -0.059424 -0.000000 -0.075861
v 0.241847 -0.160957 -0.282062
v -0.059424 -0.000000 -0.075861
v 0.236417 -0.090000 -0.316170
v 0.241847 -0.160957 -0.282062
v 0.236417 -0.090000 -0.316170
v 0.268232 -0.019043 -0.302730
v 0.570288 -0.180000 -0.507930
v 0.268232 -0.019043 -0.302730
v 0.585155 -0.146843 -0.501649
v 0.570288 -0.180000 -0.507930
v 0.268232 -0.019043 -0.302730
v 0.318657 0.010349 -0.249614
v 0.585155 -0.146843 -0.501649
v 0.318657 0.010349 -0.249614
v 0.608718 -0.133108 -0.476829
v 0.585155 -0.146843 -0.501649
v 0.318657 0.010349 -0.249614
v 0.358153 -0.019043 -0.187938
v 0.608718 -0.133108 -0.476829
v 0.358153 -0.019043 -0.187938
v 0.627174 -0.146843 -0.448008
v 0.608718 -0.133108 -0.476829
v 0.358153 -0.019043 -0.187938
v 0.363584 -0.090000 -0.153830
v 0.627174 -0.146843 -0.448008
v 0.363584 -0.090000 -0.153830
v 0.629712 -0.180000 -0.432070
v 0.627174 -0.146843 -0.448008
v 0.363584 -0.090000 -0.153830
v 0.331768 -0.160957 -0.167270
v 0.629712 -0.180000 -0.432070
v 0.331768 -0.160957 -0.167270
v 0.614845 -0.213157 -0.438350
v 0.629712 -0.180000 -0.432070
v 0.331768 -0.160957 -0.167270
v 0.281343 -0.190349 -0.220386
v 0.614845 -0.213157 -0.438350
v 0.281343 -0.190349 -0.220386
v 0.591282 -0.226892 -0.463171
v 0.614845 -0.213157 -0.438350
v 0.281343 -0.190349 -0.220386
v 0.241847 -0.160957 -0.282062
v 0.591282 -0.226892 -0.463171
v 0.241847 -0.160957 -0.282062
v 0.572826 -0.213157 -0.491992
v 0.591282 -0.226892 -0.463171
v 0.241847 -0.160957 -0.282062
v 0.236417 -0.090000 -0.316170
v 0.572826 -0.213157 -0.491992
v 0.236417 -0.090000 -0.316170
v 0.570288 -0.180000 -0.507930
v 0.572826 -0.213157 -0.491992
v -0.059424 -0.000000 -0.075861
v 0.017436 0.093784 -0.013658
v -0.029690 0.066315 -0.063299
v 0.570288 -0.180000 -0.507930
v 0.585155 -0.146843 -0.501649
v 0.608718 -0.133108 -0.476829
v -0.059424 -0.000000 -0.075861
v 0.054348 0.066315 0.043983
v 0.017436 0.093784 -0.013658
v 0.570288 -0.180000 -0.507930
v 0.608718 -0.133108 -0.476829
v 0.627174 -0.146843 -0.448008
v -0.059424 -0.000000 -0.075861
v 0.059424 -0.000000 0.075860
v 0.054348 0.066315 0.043983
v 0.570288 -0.180000 -0.507930
v 0.627174 -0.146843 -0.448008
v 0.629712 -0.180000 -0.432070
v -0.059424 -0.000000 -0.075861
v 0.029690 -0.066315 0.063299
v 0.059424 -0.000000 0.075860
v 0.570288 -0.180000 -0.507930
v 0.629712 -0.180000 -0.432070
v 0.614845 -0.213157 -0.438350
v -0.059424 -0.000000 -0.075861
v -0.017436 -0.093784 0.013658
v 0.029690 -0.066315 0.063299
v 0.570288 -0.180000 -0.507930
v 0.614845 -0.213157 -0.438350
v 0.591282 -0.226892 -0.463171
v -0.059424 -0.000000 -0.075861
v -0.054348 -0.066315 -0.043983
v -0.017436 -0.093784 0.013658
v 0.570288 -0.180000 -0.507930
v 0.591282 -0.226892 -0.463171
v 0.572826 -0.213157 -0.491992
v -0.000000 0.107927 -0.180000
v -0.043274 0.099338 -0.180000
v -0.030599 0.099338 -0.094096
v -0.000000 0.107927 -0.180000
v -0.030599 0.099338 -0.094096
v -0.000000 0.099338 -0.058512
v -0.000000 0.107927 -0.180000
v -0.000000 0.099338 -0.058512
v 0.030599 0.099338 -0.094096
v -0.000000 0.107927 -0.180000
v 0.030599 0.099338 -0.094096
v 0.043274 0.099338 -0.180000
v -0.000000 0.107927 -0.180000
v 0.043274 0.099338 -0.180000
v 0.030599 0.099338 -0.265905
v -0.000000 0.107927 -0.180000
v 0.030599 0.099338 -0.265905
v -0.000000 0.099338 -0.301487
v -0.000000 0.107927 -0.180000
v -0.000000 0.099338 -0.301487
v -0.030599 0.099338 -0.265905
v -0.000000 0.107927 -0.180000
v -0.030599 0.099338 -0.265905
v -0.043274 0.099338 -0.180000
v -0.030599 0.099338 -0.094096
v -0.043274 0.099338 -0.180000
v -0.055138 0.075273 -0.025205
v -0.043274 0.099338 -0.180000
v -0.077977 0.075273 -0.180000
v -0.055138 0.075273 -0.025205
v -0.000000 0.099338 -0.058512
v -0.030599 0.099338 -0.094096
v -0.000000 0.075273 0.038913
v -0.030599 0.099338 -0.094096
v -0.055138 0.075273 -0.025205
v -0.000000 0.075273 0.038913
v 0.030599 0.099338 -0.094096
v -0.000000 0.099338 -0.058512
v 0.055138 0.075273 -0.025205
v -0.000000 0.099338 -0.058512
v -0.000000 0.075273 0.038913
v 0.055138 0.075273 -0.025205
v 0.043274 0.099338 -0.180000
v 0.030599 0.099338 -0.094096
v 0.077977 0.075273 -0.180000
v 0.030599 0.099338 -0.094096
v 0.055138 0.075273 -0.025205
v 0.077977 0.075273 -0.180000
v 0.030599 0.099338 -0.265905
v 0.043274 0.099338 -0.180000
v 0.055138 0.075273 -0.334795
v 0.043274 0.099338 -0.180000
v 0.077977 0.075273 -0.180000
v 0.055138 0.075273 -0.334795
v -0.000000 0.099338 -0.301487
v 0.030599 0.099338 -0.265905
v -0.000000 0.075273 -0.398913
v 0.030599 0.099338 -0.265905
v 0.055138 0.075273 -0.334795
v -0.000000 0.075273 -0.398913
v -0.030599 0.099338 -0.265905
v -0.000000 0.099338 -0.301487
v -0.055138 0.075273 -0.334795
v -0.000000 0.099338 -0.301487
v -0.000000 0.075273 -0.398913
v -0.055138 0.075273 -0.334795
v -0.043274 0.099338 -0.180000
v -0.030599 0.099338 -0.265905
v -0.077977 0.075273 -0.180000
v -0.030599 0.099338 -0.265905
v -0.055138 0.075273 -0.334795
v -0.077977 0.075273 -0.180000
v -0.055138 0.075273 -0.025205
v -0.077977 0.075273 -0.180000
v -0.068756 0.040499 0.013026
v -0.077977 0.075273 -0.180000
v -0.097236 0.040499 -0.180000
v -0.068756 0.040499 0.013026
v -0.000000 0.075273 0.038913
v -0.055138 0.075273 -0.025205
v -0.000000 0.040499 0.092980
v -0.055138 0.075273 -0.025205
v -0.068756 0.040499 0.013026
v -0.000000 0.040499 0.092980
v 0.055138 0.075273 -0.025205
v -0.000000 0.075273 0.038913
v 0.068756 0.040499 0.013026
v -0.000000 0.075273 0.038913
v -0.000000 0.040499 0.092980
v 0.068756 0.040499 0.013026
v 0.077977 0.075273 -0.180000
v 0.055138 0.075273 -0.025205
v 0.097236 0.040499 -0.180000
v 0.055138 0.075273 -0.025205
v 0.068756 0.040499 0.013026
v 0.097236 0.040499 -0.180000
v 0.055138 0.075273 -0.334795
v 0.077977 0.075273 -0.180000
v 0.068756 0.040499 -0.373025
v 0.077977 0.075273 -0.180000
v 0.097236 0.040499 -0.180000
v 0.068756 0.040499 -0.373025
v -0.000000 0.075273 -0.398913
v 0.055138 0.075273 -0.334795
v -0.000000 0.040499 -0.452980
v 0.055138 0.075273 -0.334795
v 0.068756 0.040499 -0.373025
v -0.000000 0.040499 -0.452980
v -0.055138 0.075273 -0.334795
v -0.000000 0.075273 -0.398913
v -0.068756 0.040499 -0.373025
v -0.000000 0.075273 -0.398913
v -0.000000 0.040499 -0.452980
v -0.068756 0.040499 -0.373025
v -0.077977 0.075273 -0.180000
v -0.055138 0.075273 -0.334795
v -0.097236 0.040499 -0.180000
v -0.055138 0.075273 -0.334795
v -0.068756 0.040499 -0.373025
v -0.097236 0.040499 -0.180000
v -0.068756 0.040499 0.013026
v -0.097236 0.040499 -0.180000
v -0.068756 0.001901 0.013026
v -0.097236 0.040499 -0.180000
v -0.097236 0.001901 -0.180000
v -0.068756 0.001901 0.013026
v -0.000000 0.040499 0.092980
v -0.068756 0.040499 0.013026
v -0.000000 0.001901 0.092980
v -0.068756 0.040499 0.013026
v -0.068756 0.001901 0.013026
v -0.000000 0.001901 0.092980
v 0.068756 0.040499 0.013026
v -0.000000 0.040499 0.092980
v 0.068756 0.001901 0.013026
v -0.000000 0.040499 0.092980
v -0.000000 0.001901 0.092980
v 0.068756 0.001901 0.013026
v 0.097236 0.040499 -0.180000
v 0.068756 0.040499 0.013026
v 0.097236 0.001901 -0.180000
v 0.068756 0.040499 0.013026
v 0.068756 0.001901 0.013026
v 0.097236 0.001901 -0.180000
v 0.068756 0.040499 -0.373025
v 0.097236 0.040499 -0.180000
v 0.068756 0.001901 -0.373025
v 0.097236 0.040499 -0.180000
v 0.097236 0.001901 -0.180000
v 0.068756 0.001901 -0.373025
v -0.000000 0.040499 -0.452980
v 0.068756 0.040499 -0.373025
v -0.000000 0.001901 -0.452980
v 0.068756 0.040499 -0.373025
v 0.068756 0.001901 -0.373025
v -0.000000 0.001901 -0.452980
v -0.068756 0.040499 -0.373025
v -0.000000 0.040499 -0.452980
v -0.068756 0.001901 -0.373025
v -0.000000 0.040499 -0.452980
v -0.000000 0.001901 -0.452980
v -0.068756 0.001901 -0.373025
v -0.097236 0.040499 -0.180000
v -0.068756 0.040499 -0.373025
v -0.097236 0.001901 -0.180000
v -0.068756 0.040499 -0.373025
v -0.068756 0.001901 -0.373025
v -0.097236 0.001901 -0.180000
v -0.068756 0.001901 0.013026
v -0.097236 0.001901 -0.180000
v -0.055138 -0.032874 -0.025205
v -0.097236 0.001901 -0.180000
v -0.077977 -0.032874 -0.180000
v -0.055138 -0.032874 -0.025205
v -0.000000 0.001901 0.092980
v -0.068756 0.001901 0.013026
v -0.000000 -0.032874 0.038913
v -0.068756 0.001901 0.013026
v -0.055138 -0.032874 -0.025205
v -0.000000 -0.032874 0.038913
v 0.068756 0.001901 0.013026
v -0.000000 0.001901 0.092980
v 0.055138 -0.032874 -0.025205
v -0.000000 0.001901 0.092980
v -0.000000 -0.032874 0.038913
v 0.055138 -0.032874 -0.025205
v 0.097236 0.001901 -0.180000
v 0.068756 0.001901 0.013026
v 0.077977 -0.032874 -0.180000
v 0.068756 0.001901 0.013026
v 0.055138 -0.032874 -0.025205
v 0.077977 -0.032874 -0.180000
v 0.068756 0.001901 -0.373025
v 0.097236 0.001901 -0.180000
v 0.055138 -0.032874 -0.334795
v 0.097236 0.001901 -0.180000
v 0.077977 -0.032874 -0.180000
v 0.055138 -0.032874 -0.334795
v -0.000000 0.001901 -0.452980
v 0.068756 0.001901 -0.373025
v -0.000000 -0.032874 -0.398913
v 0.068756 0.001901 -0.373025
v 0.055138 -0.032874 -0.334795
v -0.000000 -0.032874 -0.398913
v -0.068756 0.001901 -0.373025
v -0.000000 0.001901 -0.452980
v -0.055138 -0.032874 -0.334795
v -0.000000 0.001901 -0.452980
v -0.000000 -0.032874 -0.398913
v -0.055138 -0.032874 -0.334795
v -0.097236 0.001901 -0.180000
v -0.068756 0.001901 -0.373025
v -0.077977 -0.032874 -0.180000
v -0.068756 0.001901 -0.373025
v -0.055138 -0.032874 -0.334795
v -0.077977 -0.032874 -0.180000
v -0.055138 -0.032874 -0.025205
v -0.077977 -0.032874 -0.180000
v -0.030599 -0.056939 -0.094096
v -0.077977 -0.032874 -0.180000
v -0.043274 -0.056939 -0.180000
v -0.030599 -0.056939 -0.094096
v -0.000000 -0.032874 0.038913
v -0.055138 -0.032874 -0.025205
v -0.000000 -0.056939 -0.058512
v -0.055138 -0.032874 -0.025205
v -0.030599 -0.056939 -0.094096
v -0.000000 -0.056939 -0.058512
v 0.055138 -0.032874 -0.025205
v -0.000000 -0.032874 0.038913
v 0.030599 -0.056939 -0.094096
v -0.000000 -0.032874 0.038913
v -0.000000 -0.056939 -0.058512
v 0.030599 -0.056939 -0.094096
v 0.077977 -0.032874 -0.180000
v 0.055138 -0.032874 -0.025205
v 0.043274 -0.056939 -0.180000
v 0.055138 -0.032874 -0.025205
v 0.030599 -0.056939 -0.094096
v 0.043274 -0.056939 -0.180000
v 0.055138 -0.032874 -0.334795
v 0.077977 -0.032874 -0.180000
v 0.030599 -0.056939 -0.265905
v 0.077977 -0.032874 -0.180000
v 0.043274 -0.056939 -0.180000
v 0.030599 -0.056939 -0.265905
v -0.000000 -0.032874 -0.398913
v 0.055138 -0.032874 -0.334795
v -0.000000 -0.056939 -0.301487
v 0.055138 -0.032874 -0.334795
v 0.030599 -0.056939 -0.265905
v -0.000000 -0.056939 -0.301487
v -0.055138 -0.032874 -0.334795
v -0.000000 -0.032874 -0.398913
v -0.030599 -0.056939 -0.265905
v -0.000000 -0.032874 -0.398913
v -0.000000 -0.056939 -0.301487
v -0.030599 -0.056939 -0.265905
v -0.077977 -0.032874 -0.180000
v -0.055138 -0.032874 -0.334795
v -0.043274 -0.056939 -0.180000
v -0.055138 -0.032874 -0.334795
v -0.030599 -0.056939 -0.265905
v -0.043274 -0.056939 -0.180000
v -0.030599 -0.056939 -0.094096
v -0.043274 -0.056939 -0.180000
v -0.000000 -0.065527 -0.180000
v -0.000000 -0.056939 -0.058512
v -0.030599 -0.056939 -0.094096
v -0.000000 -0.065527 -0.180000
v 0.030599 -0.056939 -0.094096
v -0.000000 -0.056939 -0.058512
v -0.000000 -0.065527 -0.180000
v 0.043274 -0.056939 -0.180000
v 0.030599 -0.056939 -0.094096
v -0.000000 -0.065527 -0.180000
v 0.030599 -0.056939 -0.265905
v 0.043274 -0.056939 -0.180000
v -0.000000 -0.065527 -0.180000
v -0.000000 -0.056939 -0.301487
v 0.030599 -0.056939 -0.265905
v -0.000000 -0.065527 -0.180000
v -0.030599 -0.056939 -0.265905
v -0.000000 -0.056939 -0.301487
v -0.000000 -0.065527 -0.180000
v -0.043274 -0.056939 -0.180000
v -0.030599 -0.056939 -0.265905
v -0.000000 -0.065527 -0.180000
v -0.037582 0.072273 -0.220000
v -0.011613 0.104246 -0.204024
v -0.018039 0.186149 -0.447900
v -0.011613 0.104246 -0.204024
v -0.005574 0.201496 -0.440232
v -0.018039 0.186149 -0.447900
v -0.011613 0.104246 -0.204024
v 0.030404 0.092033 -0.210126
v -0.005574 0.201496 -0.440232
v 0.030404 0.092033 -0.210126
v 0.014594 0.195634 -0.443161
v -0.005574 0.201496 -0.440232
v 0.030404 0.092033 -0.210126
v 0.030404 0.052512 -0.229874
v 0.014594 0.195634 -0.443161
v 0.030404 0.052512 -0.229874
v 0.014594 0.176664 -0.452639
v 0.014594 0.195634 -0.443161
v 0.030404 0.052512 -0.229874
v -0.011613 0.040300 -0.235976
v 0.014594 0.176664 -0.452639
v -0.011613 0.040300 -0.235976
v -0.005574 0.170802 -0.455569
v 0.014594 0.176664 -0.452639
v -0.011613 0.040300 -0.235976
v -0.037582 0.072273 -0.220000
v -0.005574 0.170802 -0.455569
v -0.037582 0.072273 -0.220000
v -0.018039 0.186149 -0.447900
v -0.005574 0.170802 -0.455569
v -0.018039 0.186149 -0.447900
v -0.005574 0.201496 -0.440232
v -0.009000 0.287133 -0.650000
v -0.005574 0.201496 -0.440232
v -0.002781 0.294790 -0.646174
v -0.009000 0.287133 -0.650000
v -0.005574 0.201496 -0.440232
v 0.014594 0.195634 -0.443161
v -0.002781 0.294790 -0.646174
v 0.014594 0.195634 -0.443161
v 0.007281 0.291865 -0.647635
v -0.002781 0.294790 -0.646174
v 0.014594 0.195634 -0.443161
v 0.014594 0.176664 -0.452639
v 0.007281 0.291865 -0.647635
v 0.014594 0.176664 -0.452639
v 0.007281 0.282401 -0.652364
v 0.007281 0.291865 -0.647635
v 0.014594 0.176664 -0.452639
v -0.005574 0.170802 -0.455569
v 0.007281 0.282401 -0.652364
v -0.005574 0.170802 -0.455569
v -0.002781 0.279476 -0.653826
v 0.007281 0.282401 -0.652364
v -0.005574 0.170802 -0.455569
v -0.018039 0.186149 -0.447900
v -0.002781 0.279476 -0.653826
v -0.018039 0.186149 -0.447900
v -0.009000 0.287133 -0.650000
v -0.002781 0.279476 -0.653826
v -0.037582 0.072273 -0.220000
v 0.030404 0.092033 -0.210126
v -0.011613 0.104246 -0.204024
v -0.009000 0.287133 -0.650000
v -0.002781 0.294790 -0.646174
v 0.007281 0.291865 -0.647635
v -0.037582 0.072273 -0.220000
v 0.030404 0.052512 -0.229874
v 0.030404 0.092033 -0.210126
v -0.009000 0.287133 -0.650000
v 0.007281 0.291865 -0.647635
v 0.007281 0.282401 -0.652364
v -0.037582 0.072273 -0.220000
v -0.011613 0.040300 -0.235976
v 0.030404 0.052512 -0.229874
v -0.009000 0.287133 -0.650000
v 0.007281 0.282401 -0.652364
v -0.002781 0.279476 -0.653826
v -0.090300 -0.000000 -0.080357
v -0.074992 0.031591 -0.099292
v -0.252791 -0.063600 -0.339672
v -0.074992 0.031591 -0.099292
v -0.245443 -0.048436 -0.348760
v -0.252791 -0.063600 -0.339672
v -0.074992 0.031591 -0.099292
v -0.042609 0.019524 -0.119206
v -0.245443 -0.048436 -0.348760
v -0.042609 0.019524 -0.119206
v -0.229899 -0.054228 -0.358319
v -0.245443 -0.048436 -0.348760
v -0.042609 0.019524 -0.119206
v -0.037903 -0.019524 -0.112578
v -0.229899 -0.054228 -0.358319
v -0.037903 -0.019524 -0.112578
v -0.227640 -0.072972 -0.355137
v -0.229899 -0.054228 -0.358319
v -0.037903 -0.019524 -0.112578
v -0.067378 -0.031591 -0.088568
v -0.227640 -0.072972 -0.355137
v -0.067378 -0.031591 -0.088568
v -0.241788 -0.078764 -0.343612
v -0.227640 -0.072972 -0.355137
v -0.067378 -0.031591 -0.088568
v -0.090300 -0.000000 -0.080357
v -0.241788 -0.078764 -0.343612
v -0.090300 -0.000000 -0.080357
v -0.252791 -0.063600 -0.339672
v -0.241788 -0.078764 -0.343612
v -0.252791 -0.063600 -0.339672
v -0.245443 -0.048436 -0.348760
v -0.403702 -0.120000 -0.564789
v -0.245443 -0.048436 -0.348760
v -0.399641 -0.111620 -0.569812
v -0.403702 -0.120000 -0.564789
v -0.245443 -0.048436 -0.348760
v -0.229899 -0.054228 -0.358319
v -0.399641 -0.111620 -0.569812
v -0.229899 -0.054228 -0.358319
v -0.391051 -0.114821 -0.575095
v -0.399641 -0.111620 -0.569812
v -0.229899 -0.054228 -0.358319
v -0.227640 -0.072972 -0.355137
v -0.391051 -0.114821 -0.575095
v -0.227640 -0.072972 -0.355137
v -0.389803 -0.125179 -0.573336
v -0.391051 -0.114821 -0.575095
v -0.227640 -0.072972 -0.355137
v -0.241788 -0.078764 -0.343612
v -0.389803 -0.125179 -0.573336
v -0.241788 -0.078764 -0.343612
v -0.397621 -0.128380 -0.566967
v -0.389803 -0.125179 -0.573336
v -0.241788 -0.078764 -0.343612
v -0.252791 -0.063600 -0.339672
v -0.397621 -0.128380 -0.566967
v -0.252791 -0.063600 -0.339672
v -0.403702 -0.120000 -0.564789
v -0.397621 -0.128380 -0.566967
v -0.090300 -0.000000 -0.080357
v -0.042609 0.019524 -0.119206
v -0.074992 0.031591 -0.099292
v -0.403702 -0.120000 -0.564789
v -0.399641 -0.111620 -0.569812
v -0.391051 -0.114821 -0.575095
v -0.090300 -0.000000 -0.080357
v -0.037903 -0.019524 -0.112578
v -0.042609 0.019524 -0.119206
v -0.403702 -0.120000 -0.564789
v -0.391051 -0.114821 -0.575095
v -0.389803 -0.125179 -0.573336
v -0.090300 -0.000000 -0.080357
v -0.067378 -0.031591 -0.088568
v -0.037903 -0.019524 -0.112578
v -0.403702 -0.120000 -0.564789
v -0.389803 -0.125179 -0.573336
v -0.397621 -0.128380 -0.566967
v 0.034972 -0.000000 -0.119643
v 0.057895 0.031591 -0.111433
v 0.226233 -0.063600 -0.358529
v 0.057895 0.031591 -0.111433
v 0.237236 -0.048436 -0.354587
v 0.226233 -0.063600 -0.358529
v 0.057895 0.031591 -0.111433
v 0.087370 0.019524 -0.087423
v 0.237236 -0.048436 -0.354587
v 0.087370 0.019524 -0.087423
v 0.251384 -0.054228 -0.343063
v 0.237236 -0.048436 -0.354587
v 0.087370 0.019524 -0.087423
v 0.082664 -0.019524 -0.080795
v 0.251384 -0.054228 -0.343063
v 0.082664 -0.019524 -0.080795
v 0.249125 -0.072972 -0.339881
v 0.251384 -0.054228 -0.343063
v 0.082664 -0.019524 -0.080795
v 0.050280 -0.031591 -0.100708
v 0.249125 -0.072972 -0.339881
v 0.050280 -0.031591 -0.100708
v 0.233581 -0.078764 -0.349440
v 0.249125 -0.072972 -0.339881
v 0.050280 -0.031591 -0.100708
v 0.034972 -0.000000 -0.119643
v 0.233581 -0.078764 -0.349440
v 0.034972 -0.000000 -0.119643
v 0.226233 -0.063600 -0.358529
v 0.233581 -0.078764 -0.349440
v 0.226233 -0.063600 -0.358529
v 0.237236 -0.048436 -0.354587
v 0.389025 -0.120000 -0.575210
v 0.237236 -0.048436 -0.354587
v 0.395106 -0.111620 -0.573033
v 0.389025 -0.120000 -0.575210
v 0.237236 -0.048436 -0.354587
v 0.251384 -0.054228 -0.343063
v 0.395106 -0.111620 -0.573033
v 0.251384 -0.054228 -0.343063
v 0.402925 -0.114821 -0.566663
v 0.395106 -0.111620 -0.573033
v 0.251384 -0.054228 -0.343063
v 0.249125 -0.072972 -0.339881
v 0.402925 -0.114821 -0.566663
v 0.249125 -0.072972 -0.339881
v 0.401676 -0.125179 -0.564906
v 0.402925 -0.114821 -0.566663
v 0.249125 -0.072972 -0.339881
v 0.233581 -0.078764 -0.349440
v 0.401676 -0.125179 -0.564906
v 0.233581 -0.078764 -0.349440
v 0.393086 -0.128380 -0.570188
v 0.401676 -0.125179 -0.564906
v 0.233581 -0.078764 -0.349440
v 0.226233 -0.063600 -0.358529
v 0.393086 -0.128380 -0.570188
v 0.226233 -0.063600 -0.358529
v 0.389025 -0.120000 -0.575210
v 0.393086 -0.128380 -0.570188
v 0.034972 -0.000000 -0.119643
v 0.087370 0.019524 -0.087423
v 0.057895 0.031591 -0.111433
v 0.389025 -0.120000 -0.575210
v 0.395106 -0.111620 -0.573033
v 0.402925 -0.114821 -0.566663
v 0.034972 -0.000000 -0.119643
v 0.082664 -0.019524 -0.080795
v 0.087370 0.019524 -0.087423
v 0.389025 -0.120000 -0.575210
v 0.402925 -0.114821 -0.566663
v 0.401676 -0.125179 -0.564906
v 0.034972 -0.000000 -0.119643
v 0.050280 -0.031591 -0.100708
v 0.082664 -0.019524 -0.080795
v 0.389025 -0.120000 -0.575210
v 0.401676 -0.125179 -0.564906
v 0.393086 -0.128380 -0.570188
v 0.537448 -0.180000 -0.534708
v 0.586543 -0.094796 -0.495674
v 0.887975 -0.222400 -0.808461
v 0.586543 -0.094796 -0.495674
v 0.911541 -0.181502 -0.789723
v 0.887975 -0.222400 -0.808461
v 0.586543 -0.094796 -0.495674
v 0.654235 -0.127341 -0.421158
v 0.911541 -0.181502 -0.789723
v 0.654235 -0.127341 -0.421158
v 0.944033 -0.197124 -0.753955
v 0.911541 -0.181502 -0.789723
v 0.654235 -0.127341 -0.421158
v 0.646976 -0.232659 -0.414141
v 0.944033 -0.197124 -0.753955
v 0.646976 -0.232659 -0.414141
v 0.940548 -0.247676 -0.750588
v 0.944033 -0.197124 -0.753955
v 0.646976 -0.232659 -0.414141
v 0.574798 -0.265204 -0.484319
v 0.940548 -0.247676 -0.750588
v 0.574798 -0.265204 -0.484319
v 0.905903 -0.263298 -0.784274
v 0.940548 -0.247676 -0.750588
v 0.574798 -0.265204 -0.484319
v 0.537448 -0.180000 -0.534708
v 0.905903 -0.263298 -0.784274
v 0.537448 -0.180000 -0.534708
v 0.887975 -0.222400 -0.808461
v 0.905903 -0.263298 -0.784274
v 0.887975 -0.222400 -0.808461
v 0.911541 -0.181502 -0.789723
v 1.193745 -0.260000 -1.056471
v 0.911541 -0.181502 -0.789723
v 1.198654 -0.251480 -1.052567
v 1.193745 -0.260000 -1.056471
v 0.911541 -0.181502 -0.789723
v 0.944033 -0.197124 -0.753955
v 1.198654 -0.251480 -1.052567
v 0.944033 -0.197124 -0.753955
v 1.205423 -0.254734 -1.045116
v 1.198654 -0.251480 -1.052567
v 0.944033 -0.197124 -0.753955
v 0.940548 -0.247676 -0.750588
v 1.205423 -0.254734 -1.045116
v 0.940548 -0.247676 -0.750588
v 1.204698 -0.265266 -1.044414
v 1.205423 -0.254734 -1.045116
v 0.940548 -0.247676 -0.750588
v 0.905903 -0.263298 -0.784274
v 1.204698 -0.265266 -1.044414
v 0.905903 -0.263298 -0.784274
v 1.197480 -0.268520 -1.051432
v 1.204698 -0.265266 -1.044414
v 0.905903 -0.263298 -0.784274
v 0.887975 -0.222400 -0.808461
v 1.197480 -0.268520 -1.051432
v 0.887975 -0.222400 -0.808461
v 1.193745 -0.260000 -1.056471
v 1.197480 -0.268520 -1.051432
v 0.537448 -0.180000 -0.534708
v 0.654235 -0.127341 -0.421158
v 0.586543 -0.094796 -0.495674
v 1.193745 -0.260000 -1.056471
v 1.198654 -0.251480 -1.052567
v 1.205423 -0.254734 -1.045116
v 0.537448 -0.180000 -0.534708
v 0.646976 -0.232659 -0.414141
v 0.654235 -0.127341 -0.421158
v 1.193745 -0.260000 -1.056471
v 1.205423 -0.254734 -1.045116
v 1.204698 -0.265266 -1.044414
v 0.537448 -0.180000 -0.534708
v 0.574798 -0.265204 -0.484319
v 0.646976 -0.232659 -0.414141
v 1.193745 -0.260000 -1.056471
v 1.204698 -0.265266 -1.044414
v 1.197480 -0.268520 -1.051432
vt 0.120000 0.880000
vt 0.213333 0.880000
vt 0.166667 0.786667
vt 0.120000 0.880000
vt 0.213333 0.880000
vt 0.166667 0.786667
vt 0.120000 0.880000
vt 0.213333 0.880000
vt 0.166667 0.786667
vt 0.120000 0.880000
vt 0.213333 0.880000
vt 0.166667 0.786667
vt 0.120000 0.880000
vt 0.213333 0.880000
vt 0.166667 0.786667
vt 0.120000 0.880000
vt 0.213333 0.880000
vt 0.166667 0.786667
vt 0.120000 0.880000
vt 0.213333 0.880000
vt 0.166667 0.786667
vt 0.120000 0.880000
vt 0.213333 0.880000
vt 0.166667 0.786667
vt 0.120000 0.880000
vt 0.213333 0.880000
vt 0.166667 0.786667
vt 0.120000 0.880000
vt 0.213333 0.880000
vt 0.166667 0.786667
vt 0.120000 0.880000
vt 0.213333 0.880000
vt 0.166667 0.786667
vt 0.120000 0.880000
vt 0.213333 0.880000
vt 0.166667 0.786667
vt 0.120000 0.880000
vt 0.213333 0.880000
vt 0.166667 0.786667
vt 0.120000 0.880000
vt 0.213333 0.880000
vt 0.166667 0.786667
vt 0.120000 0.880000
vt 0.213333 0.880000
vt 0.166667 0.786667
vt 0.120000 0.880000
vt 0.213333 0.880000
vt 0.166667 0.786667
vt 0.120000 0.880000
vt 0.213333 0.880000
vt 0.166667 0.786667
vt 0.120000 0.880000
vt 0.213333 0.880000
vt 0.166667 0.786667
vt 0.120000 0.880000
vt 0.213333 0.880000
vt 0.166667 0.786667
vt 0.120000 0.880000
vt 0.213333 0.880000
vt 0.166667 0.786667
vt 0.120000 0.880000
vt 0.213333 0.880000
vt 0.166667 0.786667
vt 0.120000 0.880000
vt 0.213333 0.880000
vt 0.166667 0.786667
vt 0.120000 0.880000
vt 0.213333 0.880000
vt 0.166667 0.786667
vt 0.120000 0.880000
vt 0.213333 0.880000
vt 0.166667 0.786667
vt 0.120000 0.880000
vt 0.213333 0.880000
vt 0.166667 0.786667
vt 0.120000 0.880000
vt 0.213333 0.880000
vt 0.166667 0.786667
vt 0.120000 0.880000
vt 0.213333 0.880000
vt 0.166667 0.786667
vt 0.120000 0.880000
vt 0.213333 0.880000
vt 0.166667 0.786667
vt 0.120000 0.880000
vt 0.213333 0.880000
vt 0.166667 0.786667
vt 0.120000 0.880000
vt 0.213333 0.880000
vt 0.166667 0.786667
vt 0.120000 0.880000
vt 0.213333 0.880000
vt 0.166667 0.786667
vt 0.120000 0.880000
vt 0.213333 0.880000
vt 0.166667 0.786667
vt 0.120000 0.880000
vt 0.213333 0.880000
vt 0.166667 0.786667
vt 0.120000 0.880000
vt 0.213333 0.880000
vt 0.166667 0.786667
vt 0.120000 0.880000
vt 0.213333 0.880000
vt 0.166667 0.786667
vt 0.120000 0.880000
vt 0.213333 0.880000
vt 0.166667 0.786667
vt 0.120000 0.880000
vt 0.213333 0.880000
vt 0.166667 0.786667
vt 0.120000 0.880000
vt 0.213333 0.880000
vt 0.166667 0.786667
vt 0.120000 0.880000
vt 0.213333 0.880000
vt 0.166667 0.786667
vt 0.120000 0.880000
vt 0.213333 0.880000
vt 0.166667 0.786667
vt 0.120000 0.880000
vt 0.213333 0.880000
vt 0.166667 0.786667
vt 0.120000 0.880000
vt 0.213333 0.880000
vt 0.166667 0.786667
vt 0.120000 0.880000
vt 0.213333 0.880000
vt 0.166667 0.786667
vt 0.120000 0.880000
vt 0.213333 0.880000
vt 0.166667 0.786667
vt 0.453333 0.880000
vt 0.546667 0.880000
vt 0.500000 0.786667
vt 0.453333 0.880000
vt 0.546667 0.880000
vt 0.500000 0.786667
vt 0.453333 0.880000
vt 0.546667 0.880000
vt 0.500000 0.786667
vt 0.453333 0.880000
vt 0.546667 0.880000
vt 0.500000 0.786667
vt 0.453333 0.880000
vt 0.546667 0.880000
vt 0.500000 0.786667
vt 0.453333 0.880000
vt 0.546667 0.880000
vt 0.500000 0.786667
vt 0.453333 0.880000
vt 0.546667 0.880000
vt 0.500000 0.786667
vt 0.453333 0.880000
vt 0.546667 0.880000
vt 0.500000 0.786667
vt 0.453333 0.880000
vt 0.546667 0.880000
vt 0.500000 0.786667
vt 0.453333 0.880000
vt 0.546667 0.880000
vt 0.500000 0.786667
vt 0.453333 0.880000
vt 0.546667 0.880000
vt 0.500000 0.786667
vt 0.453333 0.880000
vt 0.546667 0.880000
vt 0.500000 0.786667
vt 0.453333 0.880000
vt 0.546667 0.880000
vt 0.500000 0.786667
vt 0.453333 0.880000
vt 0.546667 0.880000
vt 0.500000 0.786667
vt 0.453333 0.880000
vt 0.546667 0.880000
vt 0.500000 0.786667
vt 0.453333 0.880000
vt 0.546667 0.880000
vt 0.500000 0.786667
vt 0.453333 0.880000
vt 0.546667 0.880000
vt 0.500000 0.786667
vt 0.453333 0.880000
vt 0.546667 0.880000
vt 0.500000 0.786667
vt 0.453333 0.880000
vt 0.546667 0.880000
vt 0.500000 0.786667
vt 0.453333 0.880000
vt 0.546667 0.880000
vt 0.500000 0.786667
vt 0.453333 0.880000
vt 0.546667 0.880000
vt 0.500000 0.786667
vt 0.453333 0.880000
vt 0.546667 0.880000
vt 0.500000 0.786667
vt 0.453333 0.880000
vt 0.546667 0.880000
vt 0.500000 0.786667
vt 0.453333 0.880000
vt 0.546667 0.880000
vt 0.500000 0.786667
vt 0.453333 0.880000
vt 0.546667 0.880000
vt 0.500000 0.786667
vt 0.453333 0.880000
vt 0.546667 0.880000
vt 0.500000 0.786667
vt 0.453333 0.880000
vt 0.546667 0.880000
vt 0.500000 0.786667
vt 0.453333 0.880000
vt 0.546667 0.880000
vt 0.500000 0.786667
vt 0.453333 0.880000
vt 0.546667 0.880000
vt 0.500000 0.786667
vt 0.453333 0.880000
vt 0.546667 0.880000
vt 0.500000 0.786667
vt 0.453333 0.880000
vt 0.546667 0.880000
vt 0.500000 0.786667
vt 0.453333 0.880000
vt 0.546667 0.880000
vt 0.500000 0.786667
vt 0.453333 0.880000
vt 0.546667 0.880000
vt 0.500000 0.786667
vt 0.453333 0.880000
vt 0.546667 0.880000
vt 0.500000 0.786667
vt 0.453333 0.880000
vt 0.546667 0.880000
vt 0.500000 0.786667
vt 0.453333 0.880000
vt 0.546667 0.880000
vt 0.500000 0.786667
vt 0.453333 0.880000
vt 0.546667 0.880000
vt 0.500000 0.786667
vt 0.453333 0.880000
vt 0.546667 0.880000
vt 0.500000 0.786667
vt 0.453333 0.880000
vt 0.546667 0.880000
vt 0.500000 0.786667
vt 0.453333 0.880000
vt 0.546667 0.880000
vt 0.500000 0.786667
vt 0.453333 0.880000
vt 0.546667 0.880000
vt 0.500000 0.786667
vt 0.453333 0.880000
vt 0.546667 0.880000
vt 0.500000 0.786667
vt 0.453333 0.880000
vt 0.546667 0.880000
vt 0.500000 0.786667
vt 0.453333 0.880000
vt 0.546667 0.880000
vt 0.500000 0.786667
vt 0.453333 0.880000
vt 0.546667 0.880000
vt 0.500000 0.786667
vt 0.453333 0.880000
vt 0.546667 0.880000
vt 0.500000 0.786667
vt 0.453333 0.880000
vt 0.546667 0.880000
vt 0.500000 0.786667
vt 0.453333 0.880000
vt 0.546667 0.880000
vt 0.500000 0.786667
vt 0.453333 0.880000
vt 0.546667 0.880000
vt 0.500000 0.786667
vt 0.453333 0.880000
vt 0.546667 0.880000
vt 0.500000 0.786667
vt 0.453333 0.880000
vt 0.546667 0.880000
vt 0.500000 0.786667
vt 0.453333 0.880000
vt 0.546667 0.880000
vt 0.500000 0.786667
vt 0.453333 0.880000
vt 0.546667 0.880000
vt 0.500000 0.786667
vt 0.453333 0.880000
vt 0.546667 0.880000
vt 0.500000 0.786667
vt 0.453333 0.880000
vt 0.546667 0.880000
vt 0.500000 0.786667
vt 0.453333 0.880000
vt 0.546667 0.880000
vt 0.500000 0.786667
vt 0.453333 0.880000
vt 0.546667 0.880000
vt 0.500000 0.786667
vt 0.453333 0.880000
vt 0.546667 0.880000
vt 0.500000 0.786667
vt 0.453333 0.880000
vt 0.546667 0.880000
vt 0.500000 0.786667
vt 0.453333 0.880000
vt 0.546667 0.880000
vt 0.500000 0.786667
vt 0.453333 0.880000
vt 0.546667 0.880000
vt 0.500000 0.786667
vt 0.453333 0.880000
vt 0.546667 0.880000
vt 0.500000 0.786667
vt 0.453333 0.880000
vt 0.546667 0.880000
vt 0.500000 0.786667
vt 0.453333 0.880000
vt 0.546667 0.880000
vt 0.500000 0.786667
vt 0.453333 0.880000
vt 0.546667 0.880000
vt 0.500000 0.786667
vt 0.453333 0.880000
vt 0.546667 0.880000
vt 0.500000 0.786667
vt 0.453333 0.880000
vt 0.546667 0.880000
vt 0.500000 0.786667
vt 0.453333 0.880000
vt 0.546667 0.880000
vt 0.500000 0.786667
vt 0.453333 0.880000
vt 0.546667 0.880000
vt 0.500000 0.786667
vt 0.453333 0.880000
vt 0.546667 0.880000
vt 0.500000 0.786667
vt 0.453333 0.880000
vt 0.546667 0.880000
vt 0.500000 0.786667
vt 0.453333 0.880000
vt 0.546667 0.880000
vt 0.500000 0.786667
vt 0.453333 0.880000
vt 0.546667 0.880000
vt 0.500000 0.786667
vt 0.453333 0.880000
vt 0.546667 0.880000
vt 0.500000 0.786667
vt 0.453333 0.880000
vt 0.546667 0.880000
vt 0.500000 0.786667
vt 0.453333 0.880000
vt 0.546667 0.880000
vt 0.500000 0.786667
vt 0.453333 0.880000
vt 0.546667 0.880000
vt 0.500000 0.786667
vt 0.453333 0.880000
vt 0.546667 0.880000
vt 0.500000 0.786667
vt 0.453333 0.880000
vt 0.546667 0.880000
vt 0.500000 0.786667
vt 0.453333 0.880000
vt 0.546667 0.880000
vt 0.500000 0.786667
vt 0.453333 0.880000
vt 0.546667 0.880000
vt 0.500000 0.786667
vt 0.453333 0.880000
vt 0.546667 0.880000
vt 0.500000 0.786667
vt 0.453333 0.880000
vt 0.546667 0.880000
vt 0.500000 0.786667
vt 0.453333 0.880000
vt 0.546667 0.880000
vt 0.500000 0.786667
vt 0.453333 0.880000
vt 0.546667 0.880000
vt 0.500000 0.786667
vt 0.453333 0.880000
vt 0.546667 0.880000
vt 0.500000 0.786667
vt 0.453333 0.880000
vt 0.546667 0.880000
vt 0.500000 0.786667
vt 0.453333 0.880000
vt 0.546667 0.880000
vt 0.500000 0.786667
vt 0.453333 0.880000
vt 0.546667 0.880000
vt 0.500000 0.786667
vt 0.453333 0.880000
vt 0.546667 0.880000
vt 0.500000 0.786667
vt 0.453333 0.880000
vt 0.546667 0.880000
vt 0.500000 0.786667
vt 0.453333 0.880000
vt 0.546667 0.880000
vt 0.500000 0.786667
vt 0.453333 0.880000
vt 0.546667 0.880000
vt 0.500000 0.786667
vt 0.453333 0.880000
vt 0.546667 0.880000
vt 0.500000 0.786667
vt 0.453333 0.880000
vt 0.546667 0.880000
vt 0.500000 0.786667
vt 0.453333 0.880000
vt 0.546667 0.880000
vt 0.500000 0.786667
vt 0.786667 0.880000
vt 0.880000 0.880000
vt 0.833333 0.786667
vt 0.786667 0.880000
vt 0.880000 0.880000
vt 0.833333 0.786667
vt 0.786667 0.880000
vt 0.880000 0.880000
vt 0.833333 0.786667
vt 0.786667 0.880000
vt 0.880000 0.880000
vt 0.833333 0.786667
vt 0.786667 0.880000
vt 0.880000 0.880000
vt 0.833333 0.786667
vt 0.786667 0.880000
vt 0.880000 0.880000
vt 0.833333 0.786667
vt 0.786667 0.880000
vt 0.880000 0.880000
vt 0.833333 0.786667
vt 0.786667 0.880000
vt 0.880000 0.880000
vt 0.833333 0.786667
vt 0.786667 0.880000
vt 0.880000 0.880000
vt 0.833333 0.786667
vt 0.786667 0.880000
vt 0.880000 0.880000
vt 0.833333 0.786667
vt 0.786667 0.880000
vt 0.880000 0.880000
vt 0.833333 0.786667
vt 0.786667 0.880000
vt 0.880000 0.880000
vt 0.833333 0.786667
vt 0.786667 0.880000
vt 0.880000 0.880000
vt 0.833333 0.786667
vt 0.786667 0.880000
vt 0.880000 0.880000
vt 0.833333 0.786667
vt 0.786667 0.880000
vt 0.880000 0.880000
vt 0.833333 0.786667
vt 0.786667 0.880000
vt 0.880000 0.880000
vt 0.833333 0.786667
vt 0.786667 0.880000
vt 0.880000 0.880000
vt 0.833333 0.786667
vt 0.786667 0.880000
vt 0.880000 0.880000
vt 0.833333 0.786667
vt 0.786667 0.880000
vt 0.880000 0.880000
vt 0.833333 0.786667
vt 0.786667 0.880000
vt 0.880000 0.880000
vt 0.833333 0.786667
vt 0.786667 0.880000
vt 0.880000 0.880000
vt 0.833333 0.786667
vt 0.786667 0.880000
vt 0.880000 0.880000
vt 0.833333 0.786667
vt 0.786667 0.880000
vt 0.880000 0.880000
vt 0.833333 0.786667
vt 0.786667 0.880000
vt 0.880000 0.880000
vt 0.833333 0.786667
vt 0.786667 0.880000
vt 0.880000 0.880000
vt 0.833333 0.786667
vt 0.786667 0.880000
vt 0.880000 0.880000
vt 0.833333 0.786667
vt 0.786667 0.880000
vt 0.880000 0.880000
vt 0.833333 0.786667
vt 0.786667 0.880000
vt 0.880000 0.880000
vt 0.833333 0.786667
vt 0.786667 0.880000
vt 0.880000 0.880000
vt 0.833333 0.786667
vt 0.786667 0.880000
vt 0.880000 0.880000
vt 0.833333 0.786667
vt 0.786667 0.880000
vt 0.880000 0.880000
vt 0.833333 0.786667
vt 0.786667 0.880000
vt 0.880000 0.880000
vt 0.833333 0.786667
vt 0.786667 0.880000
vt 0.880000 0.880000
vt 0.833333 0.786667
vt 0.786667 0.880000
vt 0.880000 0.880000
vt 0.833333 0.786667
vt 0.786667 0.880000
vt 0.880000 0.880000
vt 0.833333 0.786667
vt 0.786667 0.880000
vt 0.880000 0.880000
vt 0.833333 0.786667
vt 0.786667 0.880000
vt 0.880000 0.880000
vt 0.833333 0.786667
vt 0.786667 0.880000
vt 0.880000 0.880000
vt 0.833333 0.786667
vt 0.786667 0.880000
vt 0.880000 0.880000
vt 0.833333 0.786667
vt 0.786667 0.880000
vt 0.880000 0.880000
vt 0.833333 0.786667
vt 0.786667 0.880000
vt 0.880000 0.880000
vt 0.833333 0.786667
vt 0.786667 0.880000
vt 0.880000 0.880000
vt 0.833333 0.786667
vt 0.786667 0.880000
vt 0.880000 0.880000
vt 0.833333 0.786667
vt 0.786667 0.880000
vt 0.880000 0.880000
vt 0.833333 0.786667
vt 0.786667 0.880000
vt 0.880000 0.880000
vt 0.833333 0.786667
vt 0.786667 0.880000
vt 0.880000 0.880000
vt 0.833333 0.786667
vt 0.786667 0.880000
vt 0.880000 0.880000
vt 0.833333 0.786667
vt 0.786667 0.880000
vt 0.880000 0.880000
vt 0.833333 0.786667
vt 0.786667 0.880000
vt 0.880000 0.880000
vt 0.833333 0.786667
vt 0.786667 0.880000
vt 0.880000 0.880000
vt 0.833333 0.786667
vt 0.786667 0.880000
vt 0.880000 0.880000
vt 0.833333 0.786667
vt 0.786667 0.880000
vt 0.880000 0.880000
vt 0.833333 0.786667
vt 0.786667 0.880000
vt 0.880000 0.880000
vt 0.833333 0.786667
vt 0.786667 0.880000
vt 0.880000 0.880000
vt 0.833333 0.786667
vt 0.786667 0.880000
vt 0.880000 0.880000
vt 0.833333 0.786667
vt 0.786667 0.880000
vt 0.880000 0.880000
vt 0.833333 0.786667
vt 0.786667 0.880000
vt 0.880000 0.880000
vt 0.833333 0.786667
vt 0.786667 0.880000
vt 0.880000 0.880000
vt 0.833333 0.786667
vt 0.786667 0.880000
vt 0.880000 0.880000
vt 0.833333 0.786667
vt 0.786667 0.880000
vt 0.880000 0.880000
vt 0.833333 0.786667
vt 0.786667 0.880000
vt 0.880000 0.880000
vt 0.833333 0.786667
vt 0.786667 0.880000
vt 0.880000 0.880000
vt 0.833333 0.786667
vt 0.786667 0.880000
vt 0.880000 0.880000
vt 0.833333 0.786667
vt 0.786667 0.880000
vt 0.880000 0.880000
vt 0.833333 0.786667
vt 0.786667 0.880000
vt 0.880000 0.880000
vt 0.833333 0.786667
vt 0.786667 0.880000
vt 0.880000 0.880000
vt 0.833333 0.786667
vt 0.786667 0.880000
vt 0.880000 0.880000
vt 0.833333 0.786667
vt 0.786667 0.880000
vt 0.880000 0.880000
vt 0.833333 0.786667
vt 0.786667 0.880000
vt 0.880000 0.880000
vt 0.833333 0.786667
vt 0.786667 0.880000
vt 0.880000 0.880000
vt 0.833333 0.786667
vt 0.786667 0.880000
vt 0.880000 0.880000
vt 0.833333 0.786667
vt 0.786667 0.880000
vt 0.880000 0.880000
vt 0.833333 0.786667
vt 0.786667 0.880000
vt 0.880000 0.880000
vt 0.833333 0.786667
vt 0.786667 0.880000
vt 0.880000 0.880000
vt 0.833333 0.786667
vt 0.786667 0.880000
vt 0.880000 0.880000
vt 0.833333 0.786667
vt 0.786667 0.880000
vt 0.880000 0.880000
vt 0.833333 0.786667
vt 0.786667 0.880000
vt 0.880000 0.880000
vt 0.833333 0.786667
vt 0.786667 0.880000
vt 0.880000 0.880000
vt 0.833333 0.786667
vt 0.786667 0.880000
vt 0.880000 0.880000
vt 0.833333 0.786667
vt 0.786667 0.880000
vt 0.880000 0.880000
vt 0.833333 0.786667
vt 0.786667 0.880000
vt 0.880000 0.880000
vt 0.833333 0.786667
vt 0.786667 0.880000
vt 0.880000 0.880000
vt 0.833333 0.786667
vt 0.786667 0.880000
vt 0.880000 0.880000
vt 0.833333 0.786667
vt 0.786667 0.880000
vt 0.880000 0.880000
vt 0.833333 0.786667
vt 0.786667 0.880000
vt 0.880000 0.880000
vt 0.833333 0.786667
vt 0.786667 0.880000
vt 0.880000 0.880000
vt 0.833333 0.786667
vt 0.786667 0.880000
vt 0.880000 0.880000
vt 0.833333 0.786667
vt 0.786667 0.880000
vt 0.880000 0.880000
vt 0.833333 0.786667
vt 0.786667 0.880000
vt 0.880000 0.880000
vt 0.833333 0.786667
vt 0.786667 0.880000
vt 0.880000 0.880000
vt 0.833333 0.786667
vt 0.786667 0.880000
vt 0.880000 0.880000
vt 0.833333 0.786667
vt 0.786667 0.880000
vt 0.880000 0.880000
vt 0.833333 0.786667
vt 0.786667 0.880000
vt 0.880000 0.880000
vt 0.833333 0.786667
vt 0.786667 0.880000
vt 0.880000 0.880000
vt 0.833333 0.786667
vt 0.786667 0.880000
vt 0.880000 0.880000
vt 0.833333 0.786667
vt 0.786667 0.880000
vt 0.880000 0.880000
vt 0.833333 0.786667
vt 0.786667 0.880000
vt 0.880000 0.880000
vt 0.833333 0.786667
vt 0.786667 0.880000
vt 0.880000 0.880000
vt 0.833333 0.786667
vt 0.786667 0.880000
vt 0.880000 0.880000
vt 0.833333 0.786667
vt 0.786667 0.880000
vt 0.880000 0.880000
vt 0.833333 0.786667
vt 0.786667 0.880000
vt 0.880000 0.880000
vt 0.833333 0.786667
vt 0.786667 0.880000
vt 0.880000 0.880000
vt 0.833333 0.786667
vt 0.786667 0.880000
vt 0.880000 0.880000
vt 0.833333 0.786667
vt 0.786667 0.880000
vt 0.880000 0.880000
vt 0.833333 0.786667
vn -0.951318 0.009001 -0.308081
vn -0.433323 0.596183 -0.675867
vn -0.567050 0.022250 -0.823383
vn -0.433323 0.596183 -0.675867
vn -0.245451 0.698766 -0.671923
vn -0.567050 0.022250 -0.823383
vn -0.433323 0.596183 -0.675867
vn -0.043004 0.988485 -0.145080
vn -0.245451 0.698766 -0.671923
vn -0.043004 0.988485 -0.145080
vn 0.244432 0.958604 -0.146053
vn -0.245451 0.698766 -0.671923
vn -0.043004 0.988485 -0.145080
vn 0.282119 0.812611 0.509974
vn 0.244432 0.958604 -0.146053
vn 0.282119 0.812611 0.509974
vn 0.615632 0.649554 0.446179
vn 0.244432 0.958604 -0.146053
vn 0.282119 0.812611 0.509974
vn 0.360366 0.204776 0.910057
vn 0.615632 0.649554 0.446179
vn 0.360366 0.204776 0.910057
vn 0.650706 -0.047348 0.757852
vn 0.615632 0.649554 0.446179
vn 0.360366 0.204776 0.910057
vn 0.158488 -0.496437 0.853482
vn 0.650706 -0.047348 0.757852
vn 0.158488 -0.496437 0.853482
vn 0.329108 -0.723862 0.606392
vn 0.650706 -0.047348 0.757852
vn 0.158488 -0.496437 0.853482
vn -0.222201 -0.908923 0.352826
vn 0.329108 -0.723862 0.606392
vn -0.222201 -0.908923 0.352826
vn -0.160775 -0.983701 0.080522
vn 0.329108 -0.723862 0.606392
vn -0.222201 -0.908923 0.352826
vn -0.561718 -0.763305 -0.319121
vn -0.160775 -0.983701 0.080522
vn -0.561718 -0.763305 -0.319121
vn -0.531976 -0.674650 -0.511711
vn -0.160775 -0.983701 0.080522
vn -0.561718 -0.763305 -0.319121
vn -0.951318 0.009001 -0.308081
vn -0.531976 -0.674650 -0.511711
vn -0.951318 0.009001 -0.308081
vn -0.567050 0.022250 -0.823383
vn -0.531976 -0.674650 -0.511711
vn -0.567050 0.022250 -0.823383
vn -0.245451 0.698766 -0.671923
vn -0.264401 0.111421 -0.957955
vn -0.245451 0.698766 -0.671923
vn -0.064298 0.772436 -0.631829
vn -0.264401 0.111421 -0.957955
vn -0.245451 0.698766 -0.671923
vn 0.244432 0.958604 -0.146053
vn -0.064298 0.772436 -0.631829
vn 0.244432 0.958604 -0.146053
vn 0.447213 0.889959 -0.089297
vn -0.064298 0.772436 -0.631829
vn 0.244432 0.958604 -0.146053
vn 0.615632 0.649554 0.446179
vn 0.447213 0.889959 -0.089297
vn 0.615632 0.649554 0.446179
vn 0.775731 0.461781 0.430116
vn 0.447213 0.889959 -0.089297
vn 0.615632 0.649554 0.446179
vn 0.650706 -0.047348 0.757852
vn 0.775731 0.461781 0.430116
vn 0.650706 -0.047348 0.757852
vn 0.736004 -0.253978 0.627530
vn 0.775731 0.461781 0.430116
vn 0.650706 -0.047348 0.757852
vn 0.329108 -0.723862 0.606392
vn 0.736004 -0.253978 0.627530
vn 0.329108 -0.723862 0.606392
vn 0.354536 -0.847967 0.394027
vn 0.736004 -0.253978 0.627530
vn 0.329108 -0.723862 0.606392
vn -0.160775 -0.983701 0.080522
vn 0.354536 -0.847967 0.394027
vn -0.160775 -0.983701 0.080522
vn -0.153514 -0.978068 -0.140770
vn 0.354536 -0.847967 0.394027
vn -0.160775 -0.983701 0.080522
vn -0.531976 -0.674650 -0.511711
vn -0.153514 -0.978068 -0.140770
vn -0.531976 -0.674650 -0.511711
vn -0.492048 -0.557696 -0.668479
vn -0.153514 -0.978068 -0.140770
vn -0.531976 -0.674650 -0.511711
vn -0.567050 0.022250 -0.823383
vn -0.492048 -0.557696 -0.668479
vn -0.567050 0.022250 -0.823383
vn -0.264401 0.111421 -0.957955
vn -0.492048 -0.557696 -0.668479
vn -0.951318 0.009001 -0.308081
vn -0.043004 0.988485 -0.145080
vn -0.433323 0.596183 -0.675867
vn -0.264401 0.111421 -0.957955
vn -0.064298 0.772436 -0.631829
vn 0.447213 0.889959 -0.089297
vn -0.951318 0.009001 -0.308081
vn 0.282119 0.812611 0.509974
vn -0.043004 0.988485 -0.145080
vn -0.264401 0.111421 -0.957955
vn 0.447213 0.889959 -0.089297
vn 0.775731 0.461781 0.430116
vn -0.951318 0.009001 -0.308081
vn 0.360366 0.204776 0.910057
vn 0.282119 0.812611 0.509974
vn -0.264401 0.111421 -0.957955
vn 0.775731 0.461781 0.430116
vn 0.736004 -0.253978 0.627530
vn -0.951318 0.009001 -0.308081
vn 0.158488 -0.496437 0.853482
vn 0.360366 0.204776 0.910057
vn -0.264401 0.111421 -0.957955
vn 0.736004 -0.253978 0.627530
vn 0.354536 -0.847967 0.394027
vn -0.951318 0.009001 -0.308081
vn -0.222201 -0.908923 0.352826
vn 0.158488 -0.496437 0.853482
vn -0.264401 0.111421 -0.957955
vn 0.354536 -0.847967 0.394027
vn -0.153514 -0.978068 -0.140770
vn -0.951318 0.009001 -0.308081
vn -0.561718 -0.763305 -0.319121
vn -0.222201 -0.908923 0.352826
vn -0.264401 0.111421 -0.957955
vn -0.153514 -0.978068 -0.140770
vn -0.492048 -0.557696 -0.668479
vn 0.000000 1.000000 0.000000
vn -0.386260 0.922390 0.000000
vn -0.282482 0.953981 0.100620
vn 0.000000 1.000000 0.000000
vn -0.282482 0.953981 0.100620
vn -0.000000 0.989057 0.147531
vn 0.000000 1.000000 0.000000
vn -0.000000 0.989057 0.147531
vn 0.282482 0.953981 0.100620
vn 0.000000 1.000000 0.000000
vn 0.282482 0.953981 0.100620
vn 0.386260 0.922390 0.000000
vn 0.000000 1.000000 0.000000
vn 0.386260 0.922390 0.000000
vn 0.282482 0.953981 -0.100620
vn 0.000000 1.000000 0.000000
vn 0.282482 0.953981 -0.100620
vn 0.000000 0.989057 -0.147531
vn 0.000000 1.000000 0.000000
vn 0.000000 0.989057 -0.147531
vn -0.282482 0.953981 -0.100620
vn 0.000000 1.000000 0.000000
vn -0.282482 0.953981 -0.100620
vn -0.386260 0.922390 -0.000000
vn -0.282482 0.953981 0.100620
vn -0.386260 0.922390 0.000000
vn -0.596656 0.773843 0.212530
vn -0.386260 0.922390 0.000000
vn -0.736997 0.675896 0.000000
vn -0.596656 0.773843 0.212530
vn -0.000000 0.989057 0.147531
vn -0.282482 0.953981 0.100620
vn -0.000000 0.932158 0.362052
vn -0.282482 0.953981 0.100620
vn -0.596656 0.773843 0.212530
vn -0.000000 0.932158 0.362052
vn 0.282482 0.953981 0.100620
vn -0.000000 0.989057 0.147531
vn 0.596656 0.773843 0.212530
vn -0.000000 0.989057 0.147531
vn -0.000000 0.932158 0.362052
vn 0.596656 0.773843 0.212530
vn 0.386260 0.922390 0.000000
vn 0.282482 0.953981 0.100620
vn 0.736997 0.675896 0.000000
vn 0.282482 0.953981 0.100620
vn 0.596656 0.773843 0.212530
vn 0.736997 0.675896 0.000000
vn 0.282482 0.953981 -0.100620
vn 0.386260 0.922390 0.000000
vn 0.596656 0.773843 -0.212530
vn 0.386260 0.922390 0.000000
vn 0.736997 0.675896 0.000000
vn 0.596656 0.773843 -0.212530
vn 0.000000 0.989057 -0.147531
vn 0.282482 0.953981 -0.100620
vn 0.000000 0.932158 -0.362052
vn 0.282482 0.953981 -0.100620
vn 0.596656 0.773843 -0.212530
vn 0.000000 0.932158 -0.362052
vn -0.282482 0.953981 -0.100620
vn 0.000000 0.989057 -0.147531
vn -0.596656 0.773843 -0.212530
vn 0.000000 0.989057 -0.147531
vn 0.000000 0.932158 -0.362052
vn -0.596656 0.773843 -0.212530
vn -0.386260 0.922390 -0.000000
vn -0.282482 0.953981 -0.100620
vn -0.736997 0.675896 -0.000000
vn -0.282482 0.953981 -0.100620
vn -0.596656 0.773843 -0.212530
vn -0.736997 0.675896 -0.000000
vn -0.596656 0.773843 0.212530
vn -0.736997 0.675896 0.000000
vn -0.889224 0.330082 0.316743
vn -0.736997 0.675896 0.000000
vn -0.967236 0.253880 0.000000
vn -0.889224 0.330082 0.316743
vn -0.000000 0.932158 0.362052
vn -0.596656 0.773843 0.212530
vn -0.000000 0.593222 0.805039
vn -0.596656 0.773843 0.212530
vn -0.889224 0.330082 0.316743
vn -0.000000 0.593222 0.805039
vn 0.596656 0.773843 0.212530
vn -0.000000 0.932158 0.362052
vn 0.889224 0.330082 0.316743
vn -0.000000 0.932158 0.362052
vn -0.000000 0.593222 0.805039
vn 0.889224 0.330082 0.316743
vn 0.736997 0.675896 0.000000
vn 0.596656 0.773843 0.212530
vn 0.967236 0.253880 0.000000
vn 0.596656 0.773843 0.212530
vn 0.889224 0.330082 0.316743
vn 0.967236 0.253880 0.000000
vn 0.596656 0.773843 -0.212530
vn 0.736997 0.675896 0.000000
vn 0.889224 0.330082 -0.316743
vn 0.736997 0.675896 0.000000
vn 0.967236 0.253880 0.000000
vn 0.889224 0.330082 -0.316743
vn 0.000000 0.932158 -0.362052
vn 0.596656 0.773843 -0.212530
vn 0.000000 0.593222 -0.805039
vn 0.596656 0.773843 -0.212530
vn 0.889224 0.330082 -0.316743
vn 0.000000 0.593222 -0.805039
vn -0.596656 0.773843 -0.212530
vn 0.000000 0.932158 -0.362052
vn -0.889224 0.330082 -0.316743
vn 0.000000 0.932158 -0.362052
vn 0.000000 0.593222 -0.805039
vn -0.889224 0.330082 -0.316743
vn -0.736997 0.675896 -0.000000
vn -0.596656 0.773843 -0.212530
vn -0.967236 0.253880 -0.000000
vn -0.596656 0.773843 -0.212530
vn -0.889224 0.330082 -0.316743
vn -0.967236 0.253880 -0.000000
vn -0.889224 0.330082 0.316743
vn -0.967236 0.253880 0.000000
vn -0.889224 -0.330082 0.316743
vn -0.967236 0.253880 0.000000
vn -0.967236 -0.253880 0.000000
vn -0.889224 -0.330082 0.316743
vn -0.000000 0.593222 0.805039
vn -0.889224 0.330082 0.316743
vn -0.000000 -0.593222 0.805039
vn -0.889224 0.330082 0.316743
vn -0.889224 -0.330082 0.316743
vn -0.000000 -0.593222 0.805039
vn 0.889224 0.330082 0.316743
vn -0.000000 0.593222 0.805039
vn 0.889224 -0.330082 0.316743
vn -0.000000 0.593222 0.805039
vn -0.000000 -0.593222 0.805039
vn 0.889224 -0.330082 0.316743
vn 0.967236 0.253880 0.000000
vn 0.889224 0.330082 0.316743
vn 0.967236 -0.253880 0.000000
vn 0.889224 0.330082 0.316743
vn 0.889224 -0.330082 0.316743
vn 0.967236 -0.253880 0.000000
vn 0.889224 0.330082 -0.316743
vn 0.967236 0.253880 0.000000
vn 0.889224 -0.330082 -0.316743
vn 0.967236 0.253880 0.000000
vn 0.967236 -0.253880 0.000000
vn 0.889224 -0.330082 -0.316743
vn 0.000000 0.593222 -0.805039
vn 0.889224 0.330082 -0.316743
vn 0.000000 -0.593222 -0.805039
vn 0.889224 0.330082 -0.316743
vn 0.889224 -0.330082 -0.316743
vn 0.000000 -0.593222 -0.805039
vn -0.889224 0.330082 -0.316743
vn 0.000000 0.593222 -0.805039
vn -0.889224 -0.330082 -0.316743
vn 0.000000 0.593222 -0.805039
vn 0.000000 -0.593222 -0.805039
vn -0.889224 -0.330082 -0.316743
vn -0.967236 0.253880 -0.000000
vn -0.889224 0.330082 -0.316743
vn -0.967236 -0.253880 -0.000000
vn -0.889224 0.330082 -0.316743
vn -0.889224 -0.330082 -0.316743
vn -0.967236 -0.253880 -0.000000
vn -0.889224 -0.330082 0.316743
vn -0.967236 -0.253880 0.000000
vn -0.596656 -0.773843 0.212530
vn -0.967236 -0.253880 0.000000
vn -0.736997 -0.675896 0.000000
vn -0.596656 -0.773843 0.212530
vn -0.000000 -0.593222 0.805039
vn -0.889224 -0.330082 0.316743
vn -0.000000 -0.932158 0.362052
vn -0.889224 -0.330082 0.316743
vn -0.596656 -0.773843 0.212530
vn -0.000000 -0.932158 0.362052
vn 0.889224 -0.330082 0.316743
vn -0.000000 -0.593222 0.805039
vn 0.596656 -0.773843 0.212530
vn -0.000000 -0.593222 0.805039
vn -0.000000 -0.932158 0.362052
vn 0.596656 -0.773843 0.212530
vn 0.967236 -0.253880 0.000000
vn 0.889224 -0.330082 0.316743
vn 0.736997 -0.675896 0.000000
vn 0.889224 -0.330082 0.316743
vn 0.596656 -0.773843 0.212530
vn 0.736997 -0.675896 0.000000
vn 0.889224 -0.330082 -0.316743
vn 0.967236 -0.253880 0.000000
vn 0.596656 -0.773843 -0.212530
vn 0.967236 -0.253880 0.000000
vn 0.736997 -0.675896 0.000000
vn 0.596656 -0.773843 -0.212530
vn 0.000000 -0.593222 -0.805039
vn 0.889224 -0.330082 -0.316743
vn 0.000000 -0.932158 -0.362052
vn 0.889224 -0.330082 -0.316743
vn 0.596656 -0.773843 -0.212530
vn 0.000000 -0.932158 -0.362052
vn -0.889224 -0.330082 -0.316743
vn 0.000000 -0.593222 -0.805039
vn -0.596656 -0.773843 -0.212530
vn 0.000000 -0.593222 -0.805039
vn 0.000000 -0.932158 -0.362052
vn -0.596656 -0.773843 -0.212530
vn -0.967236 -0.253880 -0.000000
vn -0.889224 -0.330082 -0.316743
vn -0.736997 -0.675896 -0.000000
vn -0.889224 -0.330082 -0.316743
vn -0.596656 -0.773843 -0.212530
vn -0.736997 -0.675896 -0.000000
vn -0.596656 -0.773843 0.212530
vn -0.736997 -0.675896 0.000000
vn -0.282482 -0.953981 0.100620
vn -0.736997 -0.675896 0.000000
vn -0.386260 -0.922390 0.000000
vn -0.282482 -0.953981 0.100620
vn -0.000000 -0.932158 0.362052
vn -0.596656 -0.773843 0.212530
vn -0.000000 -0.989057 0.147531
vn -0.596656 -0.773843 0.212530
vn -0.282482 -0.953981 0.100620
vn -0.000000 -0.989057 0.147531
vn 0.596656 -0.773843 0.212530
vn -0.000000 -0.932158 0.362052
vn 0.282482 -0.953981 0.100620
vn -0.000000 -0.932158 0.362052
vn -0.000000 -0.989057 0.147531
vn 0.282482 -0.953981 0.100620
vn 0.736997 -0.675896 0.000000
vn 0.596656 -0.773843 0.212530
vn 0.386260 -0.922390 0.000000
vn 0.596656 -0.773843 0.212530
vn 0.282482 -0.953981 0.100620
vn 0.386260 -0.922390 0.000000
vn 0.596656 -0.773843 -0.212530
vn 0.736997 -0.675896 0.000000
vn 0.282482 -0.953981 -0.100620
vn 0.736997 -0.675896 0.000000
vn 0.386260 -0.922390 0.000000
vn 0.282482 -0.953981 -0.100620
vn 0.000000 -0.932158 -0.362052
vn 0.596656 -0.773843 -0.212530
vn 0.000000 -0.989057 -0.147531
vn 0.596656 -0.773843 -0.212530
vn 0.282482 -0.953981 -0.100620
vn 0.000000 -0.989057 -0.147531
vn -0.596656 -0.773843 -0.212530
vn 0.000000 -0.932158 -0.362052
vn -0.282482 -0.953981 -0.100620
vn 0.000000 -0.932158 -0.362052
vn 0.000000 -0.989057 -0.147531
vn -0.282482 -0.953981 -0.100620
vn -0.736997 -0.675896 -0.000000
vn -0.596656 -0.773843 -0.212530
vn -0.386260 -0.922390 -0.000000
vn -0.596656 -0.773843 -0.212530
vn -0.282482 -0.953981 -0.100620
vn -0.386260 -0.922390 -0.000000
vn -0.282482 -0.953981 0.100620
vn -0.386260 -0.922390 0.000000
vn -0.000000 -1.000000 0.000000
vn -0.000000 -0.989057 0.147531
vn -0.282482 -0.953981 0.100620
vn -0.000000 -1.000000 0.000000
vn 0.282482 -0.953981 0.100620
vn -0.000000 -0.989057 0.147531
vn 0.000000 -1.000000 0.000000
vn 0.386260 -0.922390 0.000000
vn 0.282482 -0.953981 0.100620
vn 0.000000 -1.000000 0.000000
vn 0.282482 -0.953981 -0.100620
vn 0.386260 -0.922390 0.000000
vn 0.000000 -1.000000 -0.000000
vn 0.000000 -0.989057 -0.147531
vn 0.282482 -0.953981 -0.100620
vn 0.000000 -1.000000 -0.000000
vn -0.282482 -0.953981 -0.100620
vn 0.000000 -0.989057 -0.147531
vn -0.000000 -1.000000 -0.000000
vn -0.386260 -0.922390 -0.000000
vn -0.282482 -0.953981 -0.100620
vn -0.000000 -1.000000 -0.000000
vn -0.967422 -0.217130 0.130188
vn -0.438431 0.801538 0.406589
vn -0.980633 0.193984 0.026991
vn -0.438431 0.801538 0.406589
vn -0.126528 0.913552 0.386541
vn -0.980633 0.193984 0.026991
vn -0.438431 0.801538 0.406589
vn 0.712614 0.554954 0.429193
vn -0.126528 0.913552 0.386541
vn 0.712614 0.554954 0.429193
vn 0.902435 0.409271 0.134565
vn -0.126528 0.913552 0.386541
vn 0.712614 0.554954 0.429193
vn 0.874794 -0.476743 -0.086320
vn 0.902435 0.409271 0.134565
vn 0.874794 -0.476743 -0.086320
vn 0.684259 -0.621966 -0.380719
vn 0.902435 0.409271 0.134565
vn 0.874794 -0.476743 -0.086320
vn -0.173570 -0.883384 -0.435323
vn 0.684259 -0.621966 -0.380719
vn -0.173570 -0.883384 -0.435323
vn -0.479533 -0.755022 -0.447202
vn 0.684259 -0.621966 -0.380719
vn -0.173570 -0.883384 -0.435323
vn -0.967422 -0.217130 0.130188
vn -0.479533 -0.755022 -0.447202
vn -0.967422 -0.217130 0.130188
vn -0.980633 0.193984 0.026991
vn -0.479533 -0.755022 -0.447202
vn -0.980633 0.193984 0.026991
vn -0.126528 0.913552 0.386541
vn -0.936458 0.342216 0.077040
vn -0.126528 0.913552 0.386541
vn 0.034577 0.915422 0.401008
vn -0.936458 0.342216 0.077040
vn -0.126528 0.913552 0.386541
vn 0.902435 0.409271 0.134565
vn 0.034577 0.915422 0.401008
vn 0.902435 0.409271 0.134565
vn 0.958745 0.278019 0.059275
vn 0.034577 0.915422 0.401008
vn 0.902435 0.409271 0.134565
vn 0.684259 -0.621966 -0.380719
vn 0.958745 0.278019 0.059275
vn 0.684259 -0.621966 -0.380719
vn 0.558000 -0.707744 -0.433285
vn 0.958745 0.278019 0.059275
vn 0.684259 -0.621966 -0.380719
vn -0.479533 -0.755022 -0.447202
vn 0.558000 -0.707744 -0.433285
vn -0.479533 -0.755022 -0.447202
vn -0.614659 -0.681612 -0.396989
vn 0.558000 -0.707744 -0.433285
vn -0.479533 -0.755022 -0.447202
vn -0.980633 0.193984 0.026991
vn -0.614659 -0.681612 -0.396989
vn -0.980633 0.193984 0.026991
vn -0.936458 0.342216 0.077040
vn -0.614659 -0.681612 -0.396989
vn -0.967422 -0.217130 0.130188
vn 0.712614 0.554954 0.429193
vn -0.438431 0.801538 0.406589
vn -0.936458 0.342216 0.077040
vn 0.034577 0.915422 0.401008
vn 0.958745 0.278019 0.059275
vn -0.967422 -0.217130 0.130188
vn 0.874794 -0.476743 -0.086320
vn 0.712614 0.554954 0.429193
vn -0.936458 0.342216 0.077040
vn 0.958745 0.278019 0.059275
vn 0.558000 -0.707744 -0.433285
vn -0.967422 -0.217130 0.130188
vn -0.173570 -0.883384 -0.435323
vn 0.874794 -0.476743 -0.086320
vn -0.936458 0.342216 0.077040
vn 0.558000 -0.707744 -0.433285
vn -0.614659 -0.681612 -0.396989
vn -0.690780 -0.102179 0.715809
vn -0.461262 0.880705 0.107685
vn -0.847959 0.166313 0.503295
vn -0.461262 0.880705 0.107685
vn -0.250944 0.960118 -0.123293
vn -0.847959 0.166313 0.503295
vn -0.461262 0.880705 0.107685
vn 0.558948 0.697185 -0.448898
vn -0.250944 0.960118 -0.123293
vn 0.558948 0.697185 -0.448898
vn 0.657637 0.414409 -0.629109
vn -0.250944 0.960118 -0.123293
vn 0.558948 0.697185 -0.448898
vn 0.828412 -0.436722 -0.350725
vn 0.657637 0.414409 -0.629109
vn 0.828412 -0.436722 -0.350725
vn 0.622156 -0.716670 -0.315129
vn 0.657637 0.414409 -0.629109
vn 0.828412 -0.436722 -0.350725
vn -0.023044 -0.963326 0.267342
vn 0.622156 -0.716670 -0.315129
vn -0.023044 -0.963326 0.267342
vn -0.308354 -0.869998 0.384735
vn 0.622156 -0.716670 -0.315129
vn -0.023044 -0.963326 0.267342
vn -0.690780 -0.102179 0.715809
vn -0.308354 -0.869998 0.384735
vn -0.690780 -0.102179 0.715809
vn -0.847959 0.166313 0.503295
vn -0.308354 -0.869998 0.384735
vn -0.847959 0.166313 0.503295
vn -0.250944 0.960118 -0.123293
vn -0.844429 0.305430 0.440059
vn -0.250944 0.960118 -0.123293
vn -0.123526 0.970874 -0.205292
vn -0.844429 0.305430 0.440059
vn -0.250944 0.960118 -0.123293
vn 0.657637 0.414409 -0.629109
vn -0.123526 0.970874 -0.205292
vn 0.657637 0.414409 -0.629109
vn 0.713783 0.274152 -0.644480
vn -0.123526 0.970874 -0.205292
vn 0.657637 0.414409 -0.629109
vn 0.622156 -0.716670 -0.315129
vn 0.713783 0.274152 -0.644480
vn 0.622156 -0.716670 -0.315129
vn 0.532472 -0.812189 -0.238375
vn 0.713783 0.274152 -0.644480
vn 0.622156 -0.716670 -0.315129
vn -0.308354 -0.869998 0.384735
vn 0.532472 -0.812189 -0.238375
vn -0.308354 -0.869998 0.384735
vn -0.417129 -0.788289 0.452331
vn 0.532472 -0.812189 -0.238375
vn -0.308354 -0.869998 0.384735
vn -0.847959 0.166313 0.503295
vn -0.417129 -0.788289 0.452331
vn -0.847959 0.166313 0.503295
vn -0.844429 0.305430 0.440059
vn -0.417129 -0.788289 0.452331
vn -0.690780 -0.102179 0.715809
vn 0.558948 0.697185 -0.448898
vn -0.461262 0.880705 0.107685
vn -0.844429 0.305430 0.440059
vn -0.123526 0.970874 -0.205292
vn 0.713783 0.274152 -0.644480
vn -0.690780 -0.102179 0.715809
vn 0.828412 -0.436722 -0.350725
vn 0.558948 0.697185 -0.448898
vn -0.844429 0.305430 0.440059
vn 0.713783 0.274152 -0.644480
vn 0.532472 -0.812189 -0.238375
vn -0.690780 -0.102179 0.715809
vn -0.023044 -0.963326 0.267342
vn 0.828412 -0.436722 -0.350725
vn -0.844429 0.305430 0.440059
vn 0.532472 -0.812189 -0.238375
vn -0.417129 -0.788289 0.452331
vn -0.903502 -0.102183 -0.416224
vn -0.253712 0.880704 -0.399988
vn -0.754674 0.166320 -0.634669
vn -0.253712 0.880704 -0.399988
vn 0.033683 0.960117 -0.277561
vn -0.754674 0.166320 -0.634669
vn -0.253712 0.880704 -0.399988
vn 0.608056 0.697182 0.379744
vn 0.033683 0.960117 -0.277561
vn 0.608056 0.697182 0.379744
vn 0.810724 0.414405 0.413515
vn 0.033683 0.960117 -0.277561
vn 0.608056 0.697182 0.379744
vn 0.604193 -0.436716 0.666506
vn 0.810724 0.414405 0.413515
vn 0.604193 -0.436716 0.666506
vn 0.502597 -0.716668 0.483511
vn 0.810724 0.414405 0.413515
vn 0.604193 -0.436716 0.666506
vn -0.259997 -0.963326 0.066366
vn 0.502597 -0.716668 0.483511
vn -0.259997 -0.963326 0.066366
vn -0.464873 -0.869999 -0.164301
vn 0.502597 -0.716668 0.483511
vn -0.259997 -0.963326 0.066366
vn -0.903502 -0.102183 -0.416224
vn -0.464873 -0.869999 -0.164301
vn -0.903502 -0.102183 -0.416224
vn -0.754674 0.166320 -0.634669
vn -0.464873 -0.869999 -0.164301
vn -0.754674 0.166320 -0.634669
vn 0.033683 0.960117 -0.277561
vn -0.693806 0.305441 -0.652180
vn 0.033683 0.960117 -0.277561
vn 0.153101 0.970874 -0.184292
vn -0.693806 0.305441 -0.652180
vn 0.033683 0.960117 -0.277561
vn 0.810724 0.414405 0.413515
vn 0.153101 0.970874 -0.184292
vn 0.810724 0.414405 0.413515
vn 0.843741 0.274159 0.461451
vn 0.153101 0.970874 -0.184292
vn 0.810724 0.414405 0.413515
vn 0.502597 -0.716668 0.483511
vn 0.843741 0.274159 0.461451
vn 0.502597 -0.716668 0.483511
vn 0.400563 -0.812193 0.424136
vn 0.843741 0.274159 0.461451
vn 0.502597 -0.716668 0.483511
vn -0.464873 -0.869999 -0.164301
vn 0.400563 -0.812193 0.424136
vn -0.464873 -0.869999 -0.164301
vn -0.564546 -0.788291 -0.244715
vn 0.400563 -0.812193 0.424136
vn -0.464873 -0.869999 -0.164301
vn -0.754674 0.166320 -0.634669
vn -0.564546 -0.788291 -0.244715
vn -0.754674 0.166320 -0.634669
vn -0.693806 0.305441 -0.652180
vn -0.564546 -0.788291 -0.244715
vn -0.903502 -0.102183 -0.416224
vn 0.608056 0.697182 0.379744
vn -0.253712 0.880704 -0.399988
vn -0.693806 0.305441 -0.652180
vn 0.153101 0.970874 -0.184292
vn 0.843741 0.274159 0.461451
vn -0.903502 -0.102183 -0.416224
vn 0.604193 -0.436716 0.666506
vn 0.608056 0.697182 0.379744
vn -0.693806 0.305441 -0.652180
vn 0.843741 0.274159 0.461451
vn 0.400563 -0.812193 0.424136
vn -0.903502 -0.102183 -0.416224
vn -0.259997 -0.963326 0.066366
vn 0.604193 -0.436716 0.666506
vn -0.693806 0.305441 -0.652180
vn 0.400563 -0.812193 0.424136
vn -0.564546 -0.788291 -0.244715
vn -0.874078 -0.105337 -0.474228
vn -0.248402 0.895346 -0.369665
vn -0.590250 0.211343 -0.779063
vn -0.248402 0.895346 -0.369665
vn 0.075035 0.977622 -0.196531
vn -0.590250 0.211343 -0.779063
vn -0.248402 0.895346 -0.369665
vn 0.405666 0.697260 0.590985
vn 0.075035 0.977622 -0.196531
vn 0.405666 0.697260 0.590985
vn 0.731953 0.380148 0.565449
vn 0.075035 0.977622 -0.196531
vn 0.405666 0.697260 0.590985
vn 0.438984 -0.441529 0.782525
vn 0.731953 0.380148 0.565449
vn 0.438984 -0.441529 0.782525
vn 0.472665 -0.755388 0.453846
vn 0.731953 0.380148 0.565449
vn 0.438984 -0.441529 0.782525
vn -0.193546 -0.979587 -0.054307
vn 0.472665 -0.755388 0.453846
vn -0.193546 -0.979587 -0.054307
vn -0.344500 -0.859716 -0.377106
vn 0.472665 -0.755388 0.453846
vn -0.193546 -0.979587 -0.054307
vn -0.874078 -0.105337 -0.474228
vn -0.344500 -0.859716 -0.377106
vn -0.874078 -0.105337 -0.474228
vn -0.590250 0.211343 -0.779063
vn -0.344500 -0.859716 -0.377106
vn -0.590250 0.211343 -0.779063
vn 0.075035 0.977622 -0.196531
vn -0.518946 0.443593 -0.730699
vn 0.075035 0.977622 -0.196531
vn 0.235728 0.971791 -0.007401
vn -0.518946 0.443593 -0.730699
vn 0.075035 0.977622 -0.196531
vn 0.731953 0.380148 0.565449
vn 0.235728 0.971791 -0.007401
vn 0.731953 0.380148 0.565449
vn 0.757391 0.144155 0.636850
vn 0.235728 0.971791 -0.007401
vn 0.731953 0.380148 0.565449
vn 0.472665 -0.755388 0.453846
vn 0.757391 0.144155 0.636850
vn 0.472665 -0.755388 0.453846
vn 0.314482 -0.893078 0.321735
vn 0.757391 0.144155 0.636850
vn 0.472665 -0.755388 0.453846
vn -0.344500 -0.859716 -0.377106
vn 0.314482 -0.893078 0.321735
vn -0.344500 -0.859716 -0.377106
vn -0.481312 -0.707449 -0.517546
vn 0.314482 -0.893078 0.321735
vn -0.344500 -0.859716 -0.377106
vn -0.590250 0.211343 -0.779063
vn -0.481312 -0.707449 -0.517546
vn -0.590250 0.211343 -0.779063
vn -0.518946 0.443593 -0.730699
vn -0.481312 -0.707449 -0.517546
vn -0.874078 -0.105337 -0.474228
vn 0.405666 0.697260 0.590985
vn -0.248402 0.895346 -0.369665
vn -0.518946 0.443593 -0.730699
vn 0.235728 0.971791 -0.007401
vn 0.757391 0.144155 0.636850
vn -0.874078 -0.105337 -0.474228
vn 0.438984 -0.441529 0.782525
vn 0.405666 0.697260 0.590985
vn -0.518946 0.443593 -0.730699
vn 0.757391 0.144155 0.636850
vn 0.314482 -0.893078 0.321735
vn -0.874078 -0.105337 -0.474228
vn -0.193546 -0.979587 -0.054307
vn 0.438984 -0.441529 0.782525
vn -0.518946 0.443593 -0.730699
vn 0.314482 -0.893078 0.321735
vn -0.481312 -0.707449 -0.517546
usemtl Dragon_color_atlas
f 1/1/1 2/2/2 3/3/3
f 4/4/4 5/5/5 6/6/6
f 7/7/7 8/8/8 9/9/9
f 10/10/10 11/11/11 12/12/12
f 13/13/13 14/14/14 15/15/15
f 16/16/16 17/17/17 18/18/18
f 19/19/19 20/20/20 21/21/21
f 22/22/22 23/23/23 24/24/24
f 25/25/25 26/26/26 27/27/27
f 28/28/28 29/29/29 30/30/30
f 31/31/31 32/32/32 33/33/33
f 34/34/34 35/35/35 36/36/36
f 37/37/37 38/38/38 39/39/39
f 40/40/40 41/41/41 42/42/42
f 43/43/43 44/44/44 45/45/45
f 46/46/46 47/47/47 48/48/48
f 49/49/49 50/50/50 51/51/51
f 52/52/52 53/53/53 54/54/54
f 55/55/55 56/56/56 57/57/57
f 58/58/58 59/59/59 60/60/60
f 61/61/61 62/62/62 63/63/63
f 64/64/64 65/65/65 66/66/66
f 67/67/67 68/68/68 69/69/69
f 70/70/70 71/71/71 72/72/72
f 73/73/73 74/74/74 75/75/75
f 76/76/76 77/77/77 78/78/78
f 79/79/79 80/80/80 81/81/81
f 82/82/82 83/83/83 84/84/84
f 85/85/85 86/86/86 87/87/87
f 88/88/88 89/89/89 90/90/90
f 91/91/91 92/92/92 93/93/93
f 94/94/94 95/95/95 96/96/96
f 97/97/97 98/98/98 99/99/99
f 100/100/100 101/101/101 102/102/102
f 103/103/103 104/104/104 105/105/105
f 106/106/106 107/107/107 108/108/108
f 109/109/109 110/110/110 111/111/111
f 112/112/112 113/113/113 114/114/114
f 115/115/115 116/116/116 117/117/117
f 118/118/118 119/119/119 120/120/120
f 121/121/121 122/122/122 123/123/123
f 124/124/124 125/125/125 126/126/126
f 127/127/127 128/128/128 129/129/129
f 130/130/130 131/131/131 132/132/132
f 133/133/133 134/134/134 135/135/135
f 136/136/136 137/137/137 138/138/138
f 139/139/139 140/140/140 141/141/141
f 142/142/142 143/143/143 144/144/144
f 145/145/145 146/146/146 147/147/147
f 148/148/148 149/149/149 150/150/150
f 151/151/151 152/152/152 153/153/153
f 154/154/154 155/155/155 156/156/156
f 157/157/157 158/158/158 159/159/159
f 160/160/160 161/161/161 162/162/162
f 163/163/163 164/164/164 165/165/165
f 166/166/166 167/167/167 168/168/168
f 169/169/169 170/170/170 171/171/171
f 172/172/172 173/173/173 174/174/174
f 175/175/175 176/176/176 177/177/177
f 178/178/178 179/179/179 180/180/180
f 181/181/181 182/182/182 183/183/183
f 184/184/184 185/185/185 186/186/186
f 187/187/187 188/188/188 189/189/189
f 190/190/190 191/191/191 192/192/192
f 193/193/193 194/194/194 195/195/195
f 196/196/196 197/197/197 198/198/198
f 199/199/199 200/200/200 201/201/201
f 202/202/202 203/203/203 204/204/204
f 205/205/205 206/206/206 207/207/207
f 208/208/208 209/209/209 210/210/210
f 211/211/211 212/212/212 213/213/213
f 214/214/214 215/215/215 216/216/216
f 217/217/217 218/218/218 219/219/219
f 220/220/220 221/221/221 222/222/222
f 223/223/223 224/224/224 225/225/225
f 226/226/226 227/227/227 228/228/228
f 229/229/229 230/230/230 231/231/231
f 232/232/232 233/233/233 234/234/234
f 235/235/235 236/236/236 237/237/237
f 238/238/238 239/239/239 240/240/240
f 241/241/241 242/242/242 243/243/243
f 244/244/244 245/245/245 246/246/246
f 247/247/247 248/248/248 249/249/249
f 250/250/250 251/251/251 252/252/252
f 253/253/253 254/254/254 255/255/255
f 256/256/256 257/257/257 258/258/258
f 259/259/259 260/260/260 261/261/261
f 262/262/262 263/263/263 264/264/264
f 265/265/265 266/266/266 267/267/267
f 268/268/268 269/269/269 270/270/270
f 271/271/271 272/272/272 273/273/273
f 274/274/274 275/275/275 276/276/276
f 277/277/277 278/278/278 279/279/279
f 280/280/280 281/281/281 282/282/282
f 283/283/283 284/284/284 285/285/285
f 286/286/286 287/287/287 288/288/288
f 289/289/289 290/290/290 291/291/291
f 292/292/292 293/293/293 294/294/294
f 295/295/295 296/296/296 297/297/297
f 298/298/298 299/299/299 300/300/300
f 301/301/301 302/302/302 303/303/303
f 304/304/304 305/305/305 306/306/306
f 307/307/307 308/308/308 309/309/309
f 310/310/310 311/311/311 312/312/312
f 313/313/313 314/314/314 315/315/315
f 316/316/316 317/317/317 318/318/318
f 319/319/319 320/320/320 321/321/321
f 322/322/322 323/323/323 324/324/324
f 325/325/325 326/326/326 327/327/327
f 328/328/328 329/329/329 330/330/330
f 331/331/331 332/332/332 333/333/333
f 334/334/334 335/335/335 336/336/336
f 337/337/337 338/338/338 339/339/339
f 340/340/340 341/341/341 342/342/342
f 343/343/343 344/344/344 345/345/345
f 346/346/346 347/347/347 348/348/348
f 349/349/349 350/350/350 351/351/351
f 352/352/352 353/353/353 354/354/354
f 355/355/355 356/356/356 357/357/357
f 358/358/358 359/359/359 360/360/360
f 361/361/361 362/362/362 363/363/363
f 364/364/364 365/365/365 366/366/366
f 367/367/367 368/368/368 369/369/369
f 370/370/370 371/371/371 372/372/372
f 373/373/373 374/374/374 375/375/375
f 376/376/376 377/377/377 378/378/378
f 379/379/379 380/380/380 381/381/381
f 382/382/382 383/383/383 384/384/384
f 385/385/385 386/386/386 387/387/387
f 388/388/388 389/389/389 390/390/390
f 391/391/391 392/392/392 393/393/393
f 394/394/394 395/395/395 396/396/396
f 397/397/397 398/398/398 399/399/399
f 400/400/400 401/401/401 402/402/402
f 403/403/403 404/404/404 405/405/405
f 406/406/406 407/407/407 408/408/408
f 409/409/409 410/410/410 411/411/411
f 412/412/412 413/413/413 414/414/414
f 415/415/415 416/416/416 417/417/417
f 418/418/418 419/419/419 420/420/420
f 421/421/421 422/422/422 423/423/423
f 424/424/424 425/425/425 426/426/426
f 427/427/427 428/428/428 429/429/429
f 430/430/430 431/431/431 432/432/432
f 433/433/433 434/434/434 435/435/435
f 436/436/436 437/437/437 438/438/438
f 439/439/439 440/440/440 441/441/441
f 442/442/442 443/443/443 444/444/444
f 445/445/445 446/446/446 447/447/447
f 448/448/448 449/449/449 450/450/450
f 451/451/451 452/452/452 453/453/453
f 454/454/454 455/455/455 456/456/456
f 457/457/457 458/458/458 459/459/459
f 460/460/460 461/461/461 462/462/462
f 463/463/463 464/464/464 465/465/465
f 466/466/466 467/467/467 468/468/468
f 469/469/469 470/470/470 471/471/471
f 472/472/472 473/473/473 474/474/474
f 475/475/475 476/476/476 477/477/477
f 478/478/478 479/479/479 480/480/480
f 481/481/481 482/482/482 483/483/483
f 484/484/484 485/485/485 486/486/486
f 487/487/487 488/488/488 489/489/489
f 490/490/490 491/491/491 492/492/492
f 493/493/493 494/494/494 495/495/495
f 496/496/496 497/497/497 498/498/498
f 499/499/499 500/500/500 501/501/501
f 502/502/502 503/503/503 504/504/504
f 505/505/505 506/506/506 507/507/507
f 508/508/508 509/509/509 510/510/510
f 511/511/511 512/512/512 513/513/513
f 514/514/514 515/515/515 516/516/516
f 517/517/517 518/518/518 519/519/519
f 520/520/520 521/521/521 522/522/522
f 523/523/523 524/524/524 525/525/525
f 526/526/526 527/527/527 528/528/528
f 529/529/529 530/530/530 531/531/531
f 532/532/532 533/533/533 534/534/534
f 535/535/535 536/536/536 537/537/537
f 538/538/538 539/539/539 540/540/540
f 541/541/541 542/542/542 543/543/543
f 544/544/544 545/545/545 546/546/546
f 547/547/547 548/548/548 549/549/549
f 550/550/550 551/551/551 552/552/552
f 553/553/553 554/554/554 555/555/555
f 556/556/556 557/557/557 558/558/558
f 559/559/559 560/560/560 561/561/561
f 562/562/562 563/563/563 564/564/564
f 565/565/565 566/566/566 567/567/567
f 568/568/568 569/569/569 570/570/570
f 571/571/571 572/572/572 573/573/573
f 574/574/574 575/575/575 576/576/576
f 577/577/577 578/578/578 579/579/579
f 580/580/580 581/581/581 582/582/582
f 583/583/583 584/584/584 585/585/585
f 586/586/586 587/587/587 588/588/588
f 589/589/589 590/590/590 591/591/591
f 592/592/592 593/593/593 594/594/594
f 595/595/595 596/596/596 597/597/597
f 598/598/598 599/599/599 600/600/600
f 601/601/601 602/602/602 603/603/603
f 604/604/604 605/605/605 606/606/606
f 607/607/607 608/608/608 609/609/609
f 610/610/610 611/611/611 612/612/612
f 613/613/613 614/614/614 615/615/615
f 616/616/616 617/617/617 618/618/618
f 619/619/619 620/620/620 621/621/621
f 622/622/622 623/623/623 624/624/624
f 625/625/625 626/626/626 627/627/627
f 628/628/628 629/629/629 630/630/630
f 631/631/631 632/632/632 633/633/633
f 634/634/634 635/635/635 636/636/636
f 637/637/637 638/638/638 639/639/639
f 640/640/640 641/641/641 642/642/642
f 643/643/643 644/644/644 645/645/645
f 646/646/646 647/647/647 648/648/648
f 649/649/649 650/650/650 651/651/651
f 652/652/652 653/653/653 654/654/654
f 655/655/655 656/656/656 657/657/657
f 658/658/658 659/659/659 660/660/660
f 661/661/661 662/662/662 663/663/663
f 664/664/664 665/665/665 666/666/666
f 667/667/667 668/668/668 669/669/669
f 670/670/670 671/671/671 672/672/672
f 673/673/673 674/674/674 675/675/675
f 676/676/676 677/677/677 678/678/678
f 679/679/679 680/680/680 681/681/681
f 682/682/682 683/683/683 684/684/684
f 685/685/685 686/686/686 687/687/687
f 688/688/688 689/689/689 690/690/690
f 691/691/691 692/692/692 693/693/693
f 694/694/694 695/695/695 696/696/696
f 697/697/697 698/698/698 699/699/699
f 700/700/700 701/701/701 702/702/702
f 703/703/703 704/704/704 705/705/705
f 706/706/706 707/707/707 708/708/708
f 709/709/709 710/710/710 711/711/711
f 712/712/712 713/713/713 714/714/714
f 715/715/715 716/716/716 717/717/717
f 718/718/718 719/719/719 720/720/720
f 721/721/721 722/722/722 723/723/723
f 724/724/724 725/725/725 726/726/726
f 727/727/727 728/728/728 729/729/729
f 730/730/730 731/731/731 732/732/732
