# Obsidian West — joint-local part geometry, +Y up, +Z forward
mtllib materials.mtl
o Tail_09
v -0.098626 -0.000000 -0.105671
v -0.043337 0.095616 -0.099362
v 0.194470 -0.155000 -0.393067
v -0.043337 0.095616 -0.099362
v 0.253630 -0.052691 -0.386318
v 0.194470 -0.155000 -0.393067
v -0.043337 0.095616 -0.099362
v 0.037338 0.135221 -0.034849
v 0.253630 -0.052691 -0.386318
v 0.037338 0.135221 -0.034849
v 0.339952 -0.010313 -0.317288
v 0.253630 -0.052691 -0.386318
v 0.037338 0.135221 -0.034849
v 0.096141 0.095616 0.050078
v 0.339952 -0.010313 -0.317288
v 0.096141 0.095616 0.050078
v 0.402871 -0.052691 -0.226416
v 0.339952 -0.010313 -0.317288
v 0.096141 0.095616 0.050078
v 0.098626 -0.000000 0.105671
v 0.402871 -0.052691 -0.226416
v 0.098626 -0.000000 0.105671
v 0.405530 -0.155000 -0.166932
v 0.402871 -0.052691 -0.226416
v 0.098626 -0.000000 0.105671
v 0.043337 -0.095616 0.099363
v 0.405530 -0.155000 -0.166932
v 0.043337 -0.095616 0.099363
v 0.346370 -0.257309 -0.173682
v 0.405530 -0.155000 -0.166932
v 0.043337 -0.095616 0.099363
v -0.037338 -0.135221 0.034849
v 0.346370 -0.257309 -0.173682
v -0.037338 -0.135221 0.034849
v 0.260048 -0.299687 -0.242712
v 0.346370 -0.257309 -0.173682
v -0.037338 -0.135221 0.034849
v -0.096141 -0.095616 -0.050078
v 0.260048 -0.299687 -0.242712
v -0.096141 -0.095616 -0.050078
v 0.197129 -0.257309 -0.333584
v 0.260048 -0.299687 -0.242712
v -0.096141 -0.095616 -0.050078
v -0.098626 -0.000000 -0.105671
v 0.197129 -0.257309 -0.333584
v -0.098626 -0.000000 -0.105671
v 0.194470 -0.155000 -0.393067
v 0.197129 -0.257309 -0.333584
v 0.194470 -0.155000 -0.393067
v 0.253630 -0.052691 -0.386318
v 0.534249 -0.310000 -0.630447
v 0.253630 -0.052691 -0.386318
v 0.571109 -0.246256 -0.626242
v 0.534249 -0.310000 -0.630447
v 0.253630 -0.052691 -0.386318
v 0.339952 -0.010313 -0.317288
v 0.571109 -0.246256 -0.626242
v 0.339952 -0.010313 -0.317288
v 0.624892 -0.219853 -0.583233
v 0.571109 -0.246256 -0.626242
v 0.339952 -0.010313 -0.317288
v 0.402871 -0.052691 -0.226416
v 0.624892 -0.219853 -0.583233
v 0.402871 -0.052691 -0.226416
v 0.664094 -0.246256 -0.526614
v 0.624892 -0.219853 -0.583233
v 0.402871 -0.052691 -0.226416
v 0.405530 -0.155000 -0.166932
v 0.664094 -0.246256 -0.526614
v 0.405530 -0.155000 -0.166932
v 0.665751 -0.310000 -0.489553
v 0.664094 -0.246256 -0.526614
v 0.405530 -0.155000 -0.166932
v 0.346370 -0.257309 -0.173682
v 0.665751 -0.310000 -0.489553
v 0.346370 -0.257309 -0.173682
v 0.628891 -0.373744 -0.493758
v 0.665751 -0.310000 -0.489553
v 0.346370 -0.257309 -0.173682
v 0.260048 -0.299687 -0.242712
v 0.628891 -0.373744 -0.493758
v 0.260048 -0.299687 -0.242712
v 0.575108 -0.400148 -0.536767
v 0.628891 -0.373744 -0.493758
v 0.260048 -0.299687 -0.242712
v 0.197129 -0.257309 -0.333584
v 0.575108 -0.400148 -0.536767
v 0.197129 -0.257309 -0.333584
v 0.535906 -0.373744 -0.593386
v 0.575108 -0.400148 -0.536767
v 0.197129 -0.257309 -0.333584
v 0.194470 -0.155000 -0.393067
v 0.535906 -0.373744 -0.593386
v 0.194470 -0.155000 -0.393067
v 0.534249 -0.310000 -0.630447
v 0.535906 -0.373744 -0.593386
v -0.098626 -0.000000 -0.105671
v 0.037338 0.135221 -0.034849
v -0.043337 0.095616 -0.099362
v 0.534249 -0.310000 -0.630447
v 0.571109 -0.246256 -0.626242
v 0.624892 -0.219853 -0.583233
v -0.098626 -0.000000 -0.105671
v 0.096141 0.095616 0.050078
v 0.037338 0.135221 -0.034849
v 0.534249 -0.310000 -0.630447
v 0.624892 -0.219853 -0.583233
v 0.664094 -0.246256 -0.526614
v -0.098626 -0.000000 -0.105671
v 0.098626 -0.000000 0.105671
v 0.096141 0.095616 0.050078
v 0.534249 -0.310000 -0.630447
v 0.664094 -0.246256 -0.526614
v 0.665751 -0.310000 -0.489553
v -0.098626 -0.000000 -0.105671
v 0.043337 -0.095616 0.099363
v 0.098626 -0.000000 0.105671
v 0.534249 -0.310000 -0.630447
v 0.665751 -0.310000 -0.489553
v 0.628891 -0.373744 -0.493758
v -0.098626 -0.000000 -0.105671
v -0.037338 -0.135221 0.034849
v 0.043337 -0.095616 0.099363
v 0.534249 -0.310000 -0.630447
v 0.628891 -0.373744 -0.493758
v 0.575108 -0.400148 -0.536767
v -0.098626 -0.000000 -0.105671
v -0.096141 -0.095616 -0.050078
v -0.037338 -0.135221 0.034849
v 0.534249 -0.310000 -0.630447
v 0.575108 -0.400148 -0.536767
v 0.535906 -0.373744 -0.593386
v 0.000000 0.161891 -0.180000
v -0.064911 0.149008 -0.180000
v -0.045899 0.149008 -0.094095
v 0.000000 0.161891 -0.180000
v -0.045899 0.149008 -0.094095
v 0.000000 0.149008 -0.058513
v 0.000000 0.161891 -0.180000
v 0.000000 0.149008 -0.058513
v 0.045899 0.149008 -0.094095
v 0.000000 0.161891 -0.180000
v 0.045899 0.149008 -0.094095
v 0.064911 0.149008 -0.180000
v 0.000000 0.161891 -0.180000
v 0.064911 0.149008 -0.180000
v 0.045899 0.149008 -0.265905
v 0.000000 0.161891 -0.180000
v 0.045899 0.149008 -0.265905
v 0.000000 0.149008 -0.301488
v 0.000000 0.161891 -0.180000
v 0.000000 0.149008 -0.301488
v -0.045899 0.149008 -0.265905
v 0.000000 0.161891 -0.180000
v -0.045899 0.149008 -0.265905
v -0.064911 0.149008 -0.180000
v -0.045899 0.149008 -0.094095
v -0.064911 0.149008 -0.180000
v -0.082707 0.112910 -0.025205
v -0.064911 0.149008 -0.180000
v -0.116966 0.112910 -0.180000
v -0.082707 0.112910 -0.025205
v 0.000000 0.149008 -0.058513
v -0.045899 0.149008 -0.094095
v 0.000000 0.112910 0.038913
v -0.045899 0.149008 -0.094095
v -0.082707 0.112910 -0.025205
v 0.000000 0.112910 0.038913
v 0.045899 0.149008 -0.094095
v 0.000000 0.149008 -0.058513
v 0.082707 0.112910 -0.025205
v 0.000000 0.149008 -0.058513
v 0.000000 0.112910 0.038913
v 0.082707 0.112910 -0.025205
v 0.064911 0.149008 -0.180000
v 0.045899 0.149008 -0.094095
v 0.116966 0.112910 -0.180000
v 0.045899 0.149008 -0.094095
v 0.082707 0.112910 -0.025205
v 0.116966 0.112910 -0.180000
v 0.045899 0.149008 -0.265905
v 0.064911 0.149008 -0.180000
v 0.082707 0.112910 -0.334795
v 0.064911 0.149008 -0.180000
v 0.116966 0.112910 -0.180000
v 0.082707 0.112910 -0.334795
v 0.000000 0.149008 -0.301488
v 0.045899 0.149008 -0.265905
v 0.000000 0.112910 -0.398913
v 0.045899 0.149008 -0.265905
v 0.082707 0.112910 -0.334795
v 0.000000 0.112910 -0.398913
v -0.045899 0.149008 -0.265905
v 0.000000 0.149008 -0.301488
v -0.082707 0.112910 -0.334795
v 0.000000 0.149008 -0.301488
v 0.000000 0.112910 -0.398913
v -0.082707 0.112910 -0.334795
v -0.064911 0.149008 -0.180000
v -0.045899 0.149008 -0.265905
v -0.116966 0.112910 -0.180000
v -0.045899 0.149008 -0.265905
v -0.082707 0.112910 -0.334795
v -0.116966 0.112910 -0.180000
v -0.082707 0.112910 -0.025205
v -0.116966 0.112910 -0.180000
v -0.103134 0.060748 0.013026
v -0.116966 0.112910 -0.180000
v -0.145854 0.060748 -0.180000
v -0.103134 0.060748 0.013026
v 0.000000 0.112910 0.038913
v -0.082707 0.112910 -0.025205
v 0.000000 0.060748 0.092980
v -0.082707 0.112910 -0.025205
v -0.103134 0.060748 0.013026
v 0.000000 0.060748 0.092980
v 0.082707 0.112910 -0.025205
v 0.000000 0.112910 0.038913
v 0.103134 0.060748 0.013026
v 0.000000 0.112910 0.038913
v 0.000000 0.060748 0.092980
v 0.103134 0.060748 0.013026
v 0.116966 0.112910 -0.180000
v 0.082707 0.112910 -0.025205
v 0.145854 0.060748 -0.180000
v 0.082707 0.112910 -0.025205
v 0.103134 0.060748 0.013026
v 0.145854 0.060748 -0.180000
v 0.082707 0.112910 -0.334795
v 0.116966 0.112910 -0.180000
v 0.103134 0.060748 -0.373026
v 0.116966 0.112910 -0.180000
v 0.145854 0.060748 -0.180000
v 0.103134 0.060748 -0.373026
v 0.000000 0.112910 -0.398913
v 0.082707 0.112910 -0.334795
v 0.000000 0.060748 -0.452980
v 0.082707 0.112910 -0.334795
v 0.103134 0.060748 -0.373026
v 0.000000 0.060748 -0.452980
v -0.082707 0.112910 -0.334795
v 0.000000 0.112910 -0.398913
v -0.103134 0.060748 -0.373026
v 0.000000 0.112910 -0.398913
v 0.000000 0.060748 -0.452980
v -0.103134 0.060748 -0.373026
v -0.116966 0.112910 -0.180000
v -0.082707 0.112910 -0.334795
v -0.145854 0.060748 -0.180000
v -0.082707 0.112910 -0.334795
v -0.103134 0.060748 -0.373026
v -0.145854 0.060748 -0.180000
v -0.103134 0.060748 0.013026
v -0.145854 0.060748 -0.180000
v -0.103134 0.002852 0.013026
v -0.145854 0.060748 -0.180000
v -0.145854 0.002852 -0.180000
v -0.103134 0.002852 0.013026
v 0.000000 0.060748 0.092980
v -0.103134 0.060748 0.013026
v 0.000000 0.002852 0.092980
v -0.103134 0.060748 0.013026
v -0.103134 0.002852 0.013026
v 0.000000 0.002852 0.092980
v 0.103134 0.060748 0.013026
v 0.000000 0.060748 0.092980
v 0.103134 0.002852 0.013026
v 0.000000 0.060748 0.092980
v 0.000000 0.002852 0.092980
v 0.103134 0.002852 0.013026
v 0.145854 0.060748 -0.180000
v 0.103134 0.060748 0.013026
v 0.145854 0.002852 -0.180000
v 0.103134 0.060748 0.013026
v 0.103134 0.002852 0.013026
v 0.145854 0.002852 -0.180000
v 0.103134 0.060748 -0.373026
v 0.145854 0.060748 -0.180000
v 0.103134 0.002852 -0.373026
v 0.145854 0.060748 -0.180000
v 0.145854 0.002852 -0.180000
v 0.103134 0.002852 -0.373026
v 0.000000 0.060748 -0.452980
v 0.103134 0.060748 -0.373026
v 0.000000 0.002852 -0.452980
v 0.103134 0.060748 -0.373026
v 0.103134 0.002852 -0.373026
v 0.000000 0.002852 -0.452980
v -0.103134 0.060748 -0.373026
v 0.000000 0.060748 -0.452980
v -0.103134 0.002852 -0.373026
v 0.000000 0.060748 -0.452980
v 0.000000 0.002852 -0.452980
v -0.103134 0.002852 -0.373026
v -0.145854 0.060748 -0.180000
v -0.103134 0.060748 -0.373026
v -0.145854 0.002852 -0.180000
v -0.103134 0.060748 -0.373026
v -0.103134 0.002852 -0.373026
v -0.145854 0.002852 -0.180000
v -0.103134 0.002852 0.013026
v -0.145854 0.002852 -0.180000
v -0.082707 -0.049310 -0.025205
v -0.145854 0.002852 -0.180000
v -0.116966 -0.049310 -0.180000
v -0.082707 -0.049310 -0.025205
v 0.000000 0.002852 0.092980
v -0.103134 0.002852 0.013026
v 0.000000 -0.049310 0.038913
v -0.103134 0.002852 0.013026
v -0.082707 -0.049310 -0.025205
v 0.000000 -0.049310 0.038913
v 0.103134 0.002852 0.013026
v 0.000000 0.002852 0.092980
v 0.082707 -0.049310 -0.025205
v 0.000000 0.002852 0.092980
v 0.000000 -0.049310 0.038913
v 0.082707 -0.049310 -0.025205
v 0.145854 0.002852 -0.180000
v 0.103134 0.002852 0.013026
v 0.116966 -0.049310 -0.180000
v 0.103134 0.002852 0.013026
v 0.082707 -0.049310 -0.025205
v 0.116966 -0.049310 -0.180000
v 0.103134 0.002852 -0.373026
v 0.145854 0.002852 -0.180000
v 0.082707 -0.049310 -0.334795
v 0.145854 0.002852 -0.180000
v 0.116966 -0.049310 -0.180000
v 0.082707 -0.049310 -0.334795
v 0.000000 0.002852 -0.452980
v 0.103134 0.002852 -0.373026
v 0.000000 -0.049310 -0.398913
v 0.103134 0.002852 -0.373026
v 0.082707 -0.049310 -0.334795
v 0.000000 -0.049310 -0.398913
v -0.103134 0.002852 -0.373026
v 0.000000 0.002852 -0.452980
v -0.082707 -0.049310 -0.334795
v 0.000000 0.002852 -0.452980
v 0.000000 -0.049310 -0.398913
v -0.082707 -0.049310 -0.334795
v -0.145854 0.002852 -0.180000
v -0.103134 0.002852 -0.373026
v -0.116966 -0.049310 -0.180000
v -0.103134 0.002852 -0.373026
v -0.082707 -0.049310 -0.334795
v -0.116966 -0.049310 -0.180000
v -0.082707 -0.049310 -0.025205
v -0.116966 -0.049310 -0.180000
v -0.045899 -0.085408 -0.094095
v -0.116966 -0.049310 -0.180000
v -0.064911 -0.085408 -0.180000
v -0.045899 -0.085408 -0.094095
v 0.000000 -0.049310 0.038913
v -0.082707 -0.049310 -0.025205
v 0.000000 -0.085408 -0.058513
v -0.082707 -0.049310 -0.025205
v -0.045899 -0.085408 -0.094095
v 0.000000 -0.085408 -0.058513
v 0.082707 -0.049310 -0.025205
v 0.000000 -0.049310 0.038913
v 0.045899 -0.085408 -0.094095
v 0.000000 -0.049310 0.038913
v 0.000000 -0.085408 -0.058513
v 0.045899 -0.085408 -0.094095
v 0.116966 -0.049310 -0.180000
v 0.082707 -0.049310 -0.025205
v 0.064911 -0.085408 -0.180000
v 0.082707 -0.049310 -0.025205
v 0.045899 -0.085408 -0.094095
v 0.064911 -0.085408 -0.180000
v 0.082707 -0.049310 -0.334795
v 0.116966 -0.049310 -0.180000
v 0.045899 -0.085408 -0.265905
v 0.116966 -0.049310 -0.180000
v 0.064911 -0.085408 -0.180000
v 0.045899 -0.085408 -0.265905
v 0.000000 -0.049310 -0.398913
v 0.082707 -0.049310 -0.334795
v 0.000000 -0.085408 -0.301488
v 0.082707 -0.049310 -0.334795
v 0.045899 -0.085408 -0.265905
v 0.000000 -0.085408 -0.301488
v -0.082707 -0.049310 -0.334795
v 0.000000 -0.049310 -0.398913
v -0.045899 -0.085408 -0.265905
v 0.000000 -0.049310 -0.398913
v 0.000000 -0.085408 -0.301488
v -0.045899 -0.085408 -0.265905
v -0.116966 -0.049310 -0.180000
v -0.082707 -0.049310 -0.334795
v -0.064911 -0.085408 -0.180000
v -0.082707 -0.049310 -0.334795
v -0.045899 -0.085408 -0.265905
v -0.064911 -0.085408 -0.180000
v -0.045899 -0.085408 -0.094095
v -0.064911 -0.085408 -0.180000
v 0.000000 -0.098291 -0.180000
v 0.000000 -0.085408 -0.058513
v -0.045899 -0.085408 -0.094095
v 0.000000 -0.098291 -0.180000
v 0.045899 -0.085408 -0.094095
v 0.000000 -0.085408 -0.058513
v 0.000000 -0.098291 -0.180000
v 0.064911 -0.085408 -0.180000
v 0.045899 -0.085408 -0.094095
v 0.000000 -0.098291 -0.180000
v 0.045899 -0.085408 -0.265905
v 0.064911 -0.085408 -0.180000
v 0.000000 -0.098291 -0.180000
v 0.000000 -0.085408 -0.301488
v 0.045899 -0.085408 -0.265905
v 0.000000 -0.098291 -0.180000
v -0.045899 -0.085408 -0.265905
v 0.000000 -0.085408 -0.301488
v 0.000000 -0.098291 -0.180000
v -0.064911 -0.085408 -0.180000
v -0.045899 -0.085408 -0.265905
v 0.000000 -0.098291 -0.180000
v -0.056373 0.108409 -0.220000
v -0.017420 0.153595 -0.191144
v -0.027059 0.253946 -0.447900
v -0.017420 0.153595 -0.191144
v -0.008362 0.275635 -0.434050
v -0.027059 0.253946 -0.447900
v -0.017420 0.153595 -0.191144
v 0.045606 0.136336 -0.202166
v -0.008362 0.275635 -0.434050
v 0.045606 0.136336 -0.202166
v 0.021891 0.267351 -0.439340
v -0.008362 0.275635 -0.434050
v 0.045606 0.136336 -0.202166
v 0.045606 0.080483 -0.237834
v 0.021891 0.267351 -0.439340
v 0.045606 0.080483 -0.237834
v 0.021891 0.240541 -0.456460
v 0.021891 0.267351 -0.439340
v 0.045606 0.080483 -0.237834
v -0.017420 0.063223 -0.248856
v 0.021891 0.240541 -0.456460
v -0.017420 0.063223 -0.248856
v -0.008362 0.232257 -0.461751
v 0.021891 0.240541 -0.456460
v -0.017420 0.063223 -0.248856
v -0.056373 0.108409 -0.220000
v -0.008362 0.232257 -0.461751
v -0.056373 0.108409 -0.220000
v -0.027059 0.253946 -0.447900
v -0.008362 0.232257 -0.461751
v -0.027059 0.253946 -0.447900
v -0.008362 0.275635 -0.434050
v -0.009000 0.383007 -0.650000
v -0.008362 0.275635 -0.434050
v -0.002781 0.390221 -0.645393
v -0.009000 0.383007 -0.650000
v -0.008362 0.275635 -0.434050
v 0.021891 0.267351 -0.439340
v -0.002781 0.390221 -0.645393
v 0.021891 0.267351 -0.439340
v 0.007281 0.387465 -0.647153
v -0.002781 0.390221 -0.645393
v 0.021891 0.267351 -0.439340
v 0.021891 0.240541 -0.456460
v 0.007281 0.387465 -0.647153
v 0.021891 0.240541 -0.456460
v 0.007281 0.378549 -0.652847
v 0.007281 0.387465 -0.647153
v 0.021891 0.240541 -0.456460
v -0.008362 0.232257 -0.461751
v 0.007281 0.378549 -0.652847
v -0.008362 0.232257 -0.461751
v -0.002781 0.375793 -0.654607
v 0.007281 0.378549 -0.652847
v -0.008362 0.232257 -0.461751
v -0.027059 0.253946 -0.447900
v -0.002781 0.375793 -0.654607
v -0.027059 0.253946 -0.447900
v -0.009000 0.383007 -0.650000
v -0.002781 0.375793 -0.654607
v -0.056373 0.108409 -0.220000
v 0.045606 0.136336 -0.202166
v -0.017420 0.153595 -0.191144
v -0.009000 0.383007 -0.650000
v -0.002781 0.390221 -0.645393
v 0.007281 0.387465 -0.647153
v -0.056373 0.108409 -0.220000
v 0.045606 0.080483 -0.237834
v 0.045606 0.136336 -0.202166
v -0.009000 0.383007 -0.650000
v 0.007281 0.387465 -0.647153
v 0.007281 0.378549 -0.652847
v -0.056373 0.108409 -0.220000
v -0.017420 0.063223 -0.248856
v 0.045606 0.080483 -0.237834
v -0.009000 0.383007 -0.650000
v 0.007281 0.378549 -0.652847
v -0.002781 0.375793 -0.654607
v -0.126589 -0.000000 -0.075656
v -0.108681 0.037935 -0.098701
v -0.295433 -0.063600 -0.337415
v -0.108681 0.037935 -0.098701
v -0.286837 -0.045391 -0.348476
v -0.295433 -0.063600 -0.337415
v -0.108681 0.037935 -0.098701
v -0.070421 0.023446 -0.123540
v -0.286837 -0.045391 -0.348476
v -0.070421 0.023446 -0.123540
v -0.268472 -0.052346 -0.360399
v -0.286837 -0.045391 -0.348476
v -0.070421 0.023446 -0.123540
v -0.064683 -0.023445 -0.115849
v -0.268472 -0.052346 -0.360399
v -0.064683 -0.023445 -0.115849
v -0.265718 -0.074854 -0.356708
v -0.268472 -0.052346 -0.360399
v -0.064683 -0.023445 -0.115849
v -0.099397 -0.037935 -0.086254
v -0.265718 -0.074854 -0.356708
v -0.099397 -0.037935 -0.086254
v -0.282380 -0.081809 -0.342502
v -0.265718 -0.074854 -0.356708
v -0.099397 -0.037935 -0.086254
v -0.126589 -0.000000 -0.075656
v -0.282380 -0.081809 -0.342502
v -0.126589 -0.000000 -0.075656
v -0.295433 -0.063600 -0.337415
v -0.282380 -0.081809 -0.342502
v -0.295433 -0.063600 -0.337415
v -0.286837 -0.045391 -0.348476
v -0.451759 -0.120000 -0.564619
v -0.286837 -0.045391 -0.348476
v -0.447801 -0.111614 -0.569713
v -0.451759 -0.120000 -0.564619
v -0.286837 -0.045391 -0.348476
v -0.268472 -0.052346 -0.360399
v -0.447801 -0.111614 -0.569713
v -0.268472 -0.052346 -0.360399
v -0.439343 -0.114817 -0.575204
v -0.447801 -0.111614 -0.569713
v -0.268472 -0.052346 -0.360399
v -0.265718 -0.074854 -0.356708
v -0.439343 -0.114817 -0.575204
v -0.265718 -0.074854 -0.356708
v -0.438075 -0.125183 -0.573504
v -0.439343 -0.114817 -0.575204
v -0.265718 -0.074854 -0.356708
v -0.282380 -0.081809 -0.342502
v -0.438075 -0.125183 -0.573504
v -0.282380 -0.081809 -0.342502
v -0.445749 -0.128386 -0.566961
v -0.438075 -0.125183 -0.573504
v -0.282380 -0.081809 -0.342502
v -0.295433 -0.063600 -0.337415
v -0.445749 -0.128386 -0.566961
v -0.295433 -0.063600 -0.337415
v -0.451759 -0.120000 -0.564619
v -0.445749 -0.128386 -0.566961
v -0.126589 -0.000000 -0.075656
v -0.070421 0.023446 -0.123540
v -0.108681 0.037935 -0.098701
v -0.451759 -0.120000 -0.564619
v -0.447801 -0.111614 -0.569713
v -0.439343 -0.114817 -0.575204
v -0.126589 -0.000000 -0.075656
v -0.064683 -0.023445 -0.115849
v -0.070421 0.023446 -0.123540
v -0.451759 -0.120000 -0.564619
v -0.439343 -0.114817 -0.575204
v -0.438075 -0.125183 -0.573504
v -0.126589 -0.000000 -0.075656
v -0.099397 -0.037935 -0.086254
v -0.064683 -0.023445 -0.115849
v -0.451759 -0.120000 -0.564619
v -0.438075 -0.125183 -0.573504
v -0.445749 -0.128386 -0.566961
v 0.061320 -0.000000 -0.124343
v 0.088512 0.037935 -0.113746
v 0.264103 -0.063600 -0.360785
v 0.088512 0.037935 -0.113746
v 0.277155 -0.045391 -0.355698
v 0.264103 -0.063600 -0.360785
v 0.088512 0.037935 -0.113746
v 0.123226 0.023446 -0.084152
v 0.277155 -0.045391 -0.355698
v 0.123226 0.023446 -0.084152
v 0.293818 -0.052346 -0.341493
v 0.277155 -0.045391 -0.355698
v 0.123226 0.023446 -0.084152
v 0.117488 -0.023445 -0.076459
v 0.293818 -0.052346 -0.341493
v 0.117488 -0.023445 -0.076459
v 0.291064 -0.074854 -0.337801
v 0.293818 -0.052346 -0.341493
v 0.117488 -0.023445 -0.076459
v 0.079228 -0.037935 -0.101300
v 0.291064 -0.074854 -0.337801
v 0.079228 -0.037935 -0.101300
v 0.272699 -0.081809 -0.349724
v 0.291064 -0.074854 -0.337801
v 0.079228 -0.037935 -0.101300
v 0.061320 -0.000000 -0.124343
v 0.272699 -0.081809 -0.349724
v 0.061320 -0.000000 -0.124343
v 0.264103 -0.063600 -0.360785
v 0.272699 -0.081809 -0.349724
v 0.264103 -0.063600 -0.360785
v 0.277155 -0.045391 -0.355698
v 0.437331 -0.120000 -0.575381
v 0.277155 -0.045391 -0.355698
v 0.443342 -0.111614 -0.573038
v 0.437331 -0.120000 -0.575381
v 0.277155 -0.045391 -0.355698
v 0.293818 -0.052346 -0.341493
v 0.443342 -0.111614 -0.573038
v 0.293818 -0.052346 -0.341493
v 0.451016 -0.114817 -0.566497
v 0.443342 -0.111614 -0.573038
v 0.293818 -0.052346 -0.341493
v 0.291064 -0.074854 -0.337801
v 0.451016 -0.114817 -0.566497
v 0.291064 -0.074854 -0.337801
v 0.449748 -0.125183 -0.564797
v 0.451016 -0.114817 -0.566497
v 0.291064 -0.074854 -0.337801
v 0.272699 -0.081809 -0.349724
v 0.449748 -0.125183 -0.564797
v 0.272699 -0.081809 -0.349724
v 0.441290 -0.128386 -0.570287
v 0.449748 -0.125183 -0.564797
v 0.272699 -0.081809 -0.349724
v 0.264103 -0.063600 -0.360785
v 0.441290 -0.128386 -0.570287
v 0.264103 -0.063600 -0.360785
v 0.437331 -0.120000 -0.575381
v 0.441290 -0.128386 -0.570287
v 0.061320 -0.000000 -0.124343
v 0.123226 0.023446 -0.084152
v 0.088512 0.037935 -0.113746
v 0.437331 -0.120000 -0.575381
v 0.443342 -0.111614 -0.573038
v 0.451016 -0.114817 -0.566497
v 0.061320 -0.000000 -0.124343
v 0.117488 -0.023445 -0.076459
v 0.123226 0.023446 -0.084152
v 0.437331 -0.120000 -0.575381
v 0.451016 -0.114817 -0.566497
v 0.449748 -0.125183 -0.564797
v 0.061320 -0.000000 -0.124343
v 0.079228 -0.037935 -0.101300
v 0.117488 -0.023445 -0.076459
v 0.437331 -0.120000 -0.575381
v 0.449748 -0.125183 -0.564797
v 0.441290 -0.128386 -0.570287
vt 0.120000 0.880000
vt 0.213333 0.880000
vt 0.166667 0.786667
vt 0.120000 0.880000
vt 0.213333 0.880000
vt 0.166667 0.786667
vt 0.120000 0.880000
vt 0.213333 0.880000
vt 0.166667 0.786667
vt 0.120000 0.880000
vt 0.213333 0.880000
vt 0.166667 0.786667
vt 0.120000 0.880000
vt 0.213333 0.880000
vt 0.166667 0.786667
vt 0.120000 0.880000
vt 0.213333 0.880000
vt 0.166667 0.786667
vt 0.120000 0.880000
vt 0.213333 0.880000
vt 0.166667 0.786667
vt 0.120000 0.880000
vt 0.213333 0.880000
vt 0.166667 0.786667
vt 0.120000 0.880000
vt 0.213333 0.880000
vt 0.166667 0.786667
vt 0.120000 0.880000
vt 0.213333 0.880000
vt 0.166667 0.786667
vt 0.120000 0.880000
vt 0.213333 0.880000
vt 0.166667 0.786667
vt 0.120000 0.880000
vt 0.213333 0.880000
vt 0.166667 0.786667
vt 0.120000 0.880000
vt 0.213333 0.880000
vt 0.166667 0.786667
vt 0.120000 0.880000
vt 0.213333 0.880000
vt 0.166667 0.786667
vt 0.120000 0.880000
vt 0.213333 0.880000
vt 0.166667 0.786667
vt 0.120000 0.880000
vt 0.213333 0.880000
vt 0.166667 0.786667
vt 0.120000 0.880000
vt 0.213333 0.880000
vt 0.166667 0.786667
vt 0.120000 0.880000
vt 0.213333 0.880000
vt 0.166667 0.786667
vt 0.120000 0.880000
vt 0.213333 0.880000
vt 0.166667 0.786667
vt 0.120000 0.880000
vt 0.213333 0.880000
vt 0.166667 0.786667
vt 0.120000 0.880000
vt 0.213333 0.880000
vt 0.166667 0.786667
vt 0.120000 0.880000
vt 0.213333 0.880000
vt 0.166667 0.786667
vt 0.120000 0.880000
vt 0.213333 0.880000
vt 0.166667 0.786667
vt 0.120000 0.880000
vt 0.213333 0.880000
vt 0.166667 0.786667
vt 0.120000 0.880000
vt 0.213333 0.880000
vt 0.166667 0.786667
vt 0.120000 0.880000
vt 0.213333 0.880000
vt 0.166667 0.786667
vt 0.120000 0.880000
vt 0.213333 0.880000
vt 0.166667 0.786667
vt 0.120000 0.880000
vt 0.213333 0.880000
vt 0.166667 0.786667
vt 0.120000 0.880000
vt 0.213333 0.880000
vt 0.166667 0.786667
vt 0.120000 0.880000
vt 0.213333 0.880000
vt 0.166667 0.786667
vt 0.120000 0.880000
vt 0.213333 0.880000
vt 0.166667 0.786667
vt 0.120000 0.880000
vt 0.213333 0.880000
vt 0.166667 0.786667
vt 0.120000 0.880000
vt 0.213333 0.880000
vt 0.166667 0.786667
vt 0.120000 0.880000
vt 0.213333 0.880000
vt 0.166667 0.786667
vt 0.120000 0.880000
vt 0.213333 0.880000
vt 0.166667 0.786667
vt 0.120000 0.880000
vt 0.213333 0.880000
vt 0.166667 0.786667
vt 0.120000 0.880000
vt 0.213333 0.880000
vt 0.166667 0.786667
vt 0.120000 0.880000
vt 0.213333 0.880000
vt 0.166667 0.786667
vt 0.120000 0.880000
vt 0.213333 0.880000
vt 0.166667 0.786667
vt 0.120000 0.880000
vt 0.213333 0.880000
vt 0.166667 0.786667
vt 0.120000 0.880000
vt 0.213333 0.880000
vt 0.166667 0.786667
vt 0.120000 0.880000
vt 0.213333 0.880000
vt 0.166667 0.786667
vt 0.120000 0.880000
vt 0.213333 0.880000
vt 0.166667 0.786667
vt 0.120000 0.880000
vt 0.213333 0.880000
vt 0.166667 0.786667
vt 0.453333 0.880000
vt 0.546667 0.880000
vt 0.500000 0.786667
vt 0.453333 0.880000
vt 0.546667 0.880000
vt 0.500000 0.786667
vt 0.453333 0.880000
vt 0.546667 0.880000
vt 0.500000 0.786667
vt 0.453333 0.880000
vt 0.546667 0.880000
vt 0.500000 0.786667
vt 0.453333 0.880000
vt 0.546667 0.880000
vt 0.500000 0.786667
vt 0.453333 0.880000
vt 0.546667 0.880000
vt 0.500000 0.786667
vt 0.453333 0.880000
vt 0.546667 0.880000
vt 0.500000 0.786667
vt 0.453333 0.880000
vt 0.546667 0.880000
vt 0.500000 0.786667
vt 0.453333 0.880000
vt 0.546667 0.880000
vt 0.500000 0.786667
vt 0.453333 0.880000
vt 0.546667 0.880000
vt 0.500000 0.786667
vt 0.453333 0.880000
vt 0.546667 0.880000
vt 0.500000 0.786667
vt 0.453333 0.880000
vt 0.546667 0.880000
vt 0.500000 0.786667
vt 0.453333 0.880000
vt 0.546667 0.880000
vt 0.500000 0.786667
vt 0.453333 0.880000
vt 0.546667 0.880000
vt 0.500000 0.786667
vt 0.453333 0.880000
vt 0.546667 0.880000
vt 0.500000 0.786667
vt 0.453333 0.880000
vt 0.546667 0.880000
vt 0.500000 0.786667
vt 0.453333 0.880000
vt 0.546667 0.880000
vt 0.500000 0.786667
vt 0.453333 0.880000
vt 0.546667 0.880000
vt 0.500000 0.786667
vt 0.453333 0.880000
vt 0.546667 0.880000
vt 0.500000 0.786667
vt 0.453333 0.880000
vt 0.546667 0.880000
vt 0.500000 0.786667
vt 0.453333 0.880000
vt 0.546667 0.880000
vt 0.500000 0.786667
vt 0.453333 0.880000
vt 0.546667 0.880000
vt 0.500000 0.786667
vt 0.453333 0.880000
vt 0.546667 0.880000
vt 0.500000 0.786667
vt 0.453333 0.880000
vt 0.546667 0.880000
vt 0.500000 0.786667
vt 0.453333 0.880000
vt 0.546667 0.880000
vt 0.500000 0.786667
vt 0.453333 0.880000
vt 0.546667 0.880000
vt 0.500000 0.786667
vt 0.453333 0.880000
vt 0.546667 0.880000
vt 0.500000 0.786667
vt 0.453333 0.880000
vt 0.546667 0.880000
vt 0.500000 0.786667
vt 0.453333 0.880000
vt 0.546667 0.880000
vt 0.500000 0.786667
vt 0.453333 0.880000
vt 0.546667 0.880000
vt 0.500000 0.786667
vt 0.453333 0.880000
vt 0.546667 0.880000
vt 0.500000 0.786667
vt 0.453333 0.880000
vt 0.546667 0.880000
vt 0.500000 0.786667
vt 0.453333 0.880000
vt 0.546667 0.880000
vt 0.500000 0.786667
vt 0.453333 0.880000
vt 0.546667 0.880000
vt 0.500000 0.786667
vt 0.453333 0.880000
vt 0.546667 0.880000
vt 0.500000 0.786667
vt 0.453333 0.880000
vt 0.546667 0.880000
vt 0.500000 0.786667
vt 0.453333 0.880000
vt 0.546667 0.880000
vt 0.500000 0.786667
vt 0.453333 0.880000
vt 0.546667 0.880000
vt 0.500000 0.786667
vt 0.453333 0.880000
vt 0.546667 0.880000
vt 0.500000 0.786667
vt 0.453333 0.880000
vt 0.546667 0.880000
vt 0.500000 0.786667
vt 0.453333 0.880000
vt 0.546667 0.880000
vt 0.500000 0.786667
vt 0.453333 0.880000
vt 0.546667 0.880000
vt 0.500000 0.786667
vt 0.453333 0.880000
vt 0.546667 0.880000
vt 0.500000 0.786667
vt 0.453333 0.880000
vt 0.546667 0.880000
vt 0.500000 0.786667
vt 0.453333 0.880000
vt 0.546667 0.880000
vt 0.500000 0.786667
vt 0.453333 0.880000
vt 0.546667 0.880000
vt 0.500000 0.786667
vt 0.453333 0.880000
vt 0.546667 0.880000
vt 0.500000 0.786667
vt 0.453333 0.880000
vt 0.546667 0.880000
vt 0.500000 0.786667
vt 0.453333 0.880000
vt 0.546667 0.880000
vt 0.500000 0.786667
vt 0.453333 0.880000
vt 0.546667 0.880000
vt 0.500000 0.786667
vt 0.453333 0.880000
vt 0.546667 0.880000
vt 0.500000 0.786667
vt 0.453333 0.880000
vt 0.546667 0.880000
vt 0.500000 0.786667
vt 0.453333 0.880000
vt 0.546667 0.880000
vt 0.500000 0.786667
vt 0.453333 0.880000
vt 0.546667 0.880000
vt 0.500000 0.786667
vt 0.453333 0.880000
vt 0.546667 0.880000
vt 0.500000 0.786667
vt 0.453333 0.880000
vt 0.546667 0.880000
vt 0.500000 0.786667
vt 0.453333 0.880000
vt 0.546667 0.880000
vt 0.500000 0.786667
vt 0.453333 0.880000
vt 0.546667 0.880000
vt 0.500000 0.786667
vt 0.453333 0.880000
vt 0.546667 0.880000
vt 0.500000 0.786667
vt 0.453333 0.880000
vt 0.546667 0.880000
vt 0.500000 0.786667
vt 0.453333 0.880000
vt 0.546667 0.880000
vt 0.500000 0.786667
vt 0.453333 0.880000
vt 0.546667 0.880000
vt 0.500000 0.786667
vt 0.453333 0.880000
vt 0.546667 0.880000
vt 0.500000 0.786667
vt 0.453333 0.880000
vt 0.546667 0.880000
vt 0.500000 0.786667
vt 0.453333 0.880000
vt 0.546667 0.880000
vt 0.500000 0.786667
vt 0.453333 0.880000
vt 0.546667 0.880000
vt 0.500000 0.786667
vt 0.453333 0.880000
vt 0.546667 0.880000
vt 0.500000 0.786667
vt 0.453333 0.880000
vt 0.546667 0.880000
vt 0.500000 0.786667
vt 0.453333 0.880000
vt 0.546667 0.880000
vt 0.500000 0.786667
vt 0.453333 0.880000
vt 0.546667 0.880000
vt 0.500000 0.786667
vt 0.453333 0.880000
vt 0.546667 0.880000
vt 0.500000 0.786667
vt 0.453333 0.880000
vt 0.546667 0.880000
vt 0.500000 0.786667
vt 0.453333 0.880000
vt 0.546667 0.880000
vt 0.500000 0.786667
vt 0.453333 0.880000
vt 0.546667 0.880000
vt 0.500000 0.786667
vt 0.453333 0.880000
vt 0.546667 0.880000
vt 0.500000 0.786667
vt 0.453333 0.880000
vt 0.546667 0.880000
vt 0.500000 0.786667
vt 0.453333 0.880000
vt 0.546667 0.880000
vt 0.500000 0.786667
vt 0.453333 0.880000
vt 0.546667 0.880000
vt 0.500000 0.786667
vt 0.453333 0.880000
vt 0.546667 0.880000
vt 0.500000 0.786667
vt 0.453333 0.880000
vt 0.546667 0.880000
vt 0.500000 0.786667
vt 0.453333 0.880000
vt 0.546667 0.880000
vt 0.500000 0.786667
vt 0.453333 0.880000
vt 0.546667 0.880000
vt 0.500000 0.786667
vt 0.453333 0.880000
vt 0.546667 0.880000
vt 0.500000 0.786667
vt 0.453333 0.880000
vt 0.546667 0.880000
vt 0.500000 0.786667
vt 0.453333 0.880000
vt 0.546667 0.880000
vt 0.500000 0.786667
vt 0.453333 0.880000
vt 0.546667 0.880000
vt 0.500000 0.786667
vt 0.453333 0.880000
vt 0.546667 0.880000
vt 0.500000 0.786667
vt 0.453333 0.880000
vt 0.546667 0.880000
vt 0.500000 0.786667
vt 0.453333 0.880000
vt 0.546667 0.880000
vt 0.500000 0.786667
vt 0.453333 0.880000
vt 0.546667 0.880000
vt 0.500000 0.786667
vt 0.453333 0.880000
vt 0.546667 0.880000
vt 0.500000 0.786667
vt 0.453333 0.880000
vt 0.546667 0.880000
vt 0.500000 0.786667
vt 0.453333 0.880000
vt 0.546667 0.880000
vt 0.500000 0.786667
vt 0.453333 0.880000
vt 0.546667 0.880000
vt 0.500000 0.786667
vt 0.453333 0.880000
vt 0.546667 0.880000
vt 0.500000 0.786667
vt 0.453333 0.880000
vt 0.546667 0.880000
vt 0.500000 0.786667
vt 0.786667 0.880000
vt 0.880000 0.880000
vt 0.833333 0.786667
vt 0.786667 0.880000
vt 0.880000 0.880000
vt 0.833333 0.786667
vt 0.786667 0.880000
vt 0.880000 0.880000
vt 0.833333 0.786667
vt 0.786667 0.880000
vt 0.880000 0.880000
vt 0.833333 0.786667
vt 0.786667 0.880000
vt 0.880000 0.880000
vt 0.833333 0.786667
vt 0.786667 0.880000
vt 0.880000 0.880000
vt 0.833333 0.786667
vt 0.786667 0.880000
vt 0.880000 0.880000
vt 0.833333 0.786667
vt 0.786667 0.880000
vt 0.880000 0.880000
vt 0.833333 0.786667
vt 0.786667 0.880000
vt 0.880000 0.880000
vt 0.833333 0.786667
vt 0.786667 0.880000
vt 0.880000 0.880000
vt 0.833333 0.786667
vt 0.786667 0.880000
vt 0.880000 0.880000
vt 0.833333 0.786667
vt 0.786667 0.880000
vt 0.880000 0.880000
vt 0.833333 0.786667
vt 0.786667 0.880000
vt 0.880000 0.880000
vt 0.833333 0.786667
vt 0.786667 0.880000
vt 0.880000 0.880000
vt 0.833333 0.786667
vt 0.786667 0.880000
vt 0.880000 0.880000
vt 0.833333 0.786667
vt 0.786667 0.880000
vt 0.880000 0.880000
vt 0.833333 0.786667
vt 0.786667 0.880000
vt 0.880000 0.880000
vt 0.833333 0.786667
vt 0.786667 0.880000
vt 0.880000 0.880000
vt 0.833333 0.786667
vt 0.786667 0.880000
vt 0.880000 0.880000
vt 0.833333 0.786667
vt 0.786667 0.880000
vt 0.880000 0.880000
vt 0.833333 0.786667
vt 0.786667 0.880000
vt 0.880000 0.880000
vt 0.833333 0.786667
vt 0.786667 0.880000
vt 0.880000 0.880000
vt 0.833333 0.786667
vt 0.786667 0.880000
vt 0.880000 0.880000
vt 0.833333 0.786667
vt 0.786667 0.880000
vt 0.880000 0.880000
vt 0.833333 0.786667
vt 0.786667 0.880000
vt 0.880000 0.880000
vt 0.833333 0.786667
vt 0.786667 0.880000
vt 0.880000 0.880000
vt 0.833333 0.786667
vt 0.786667 0.880000
vt 0.880000 0.880000
vt 0.833333 0.786667
vt 0.786667 0.880000
vt 0.880000 0.880000
vt 0.833333 0.786667
vt 0.786667 0.880000
vt 0.880000 0.880000
vt 0.833333 0.786667
vt 0.786667 0.880000
vt 0.880000 0.880000
vt 0.833333 0.786667
vt 0.786667 0.880000
vt 0.880000 0.880000
vt 0.833333 0.786667
vt 0.786667 0.880000
vt 0.880000 0.880000
vt 0.833333 0.786667
vt 0.786667 0.880000
vt 0.880000 0.880000
vt 0.833333 0.786667
vt 0.786667 0.880000
vt 0.880000 0.880000
vt 0.833333 0.786667
vt 0.786667 0.880000
vt 0.880000 0.880000
vt 0.833333 0.786667
vt 0.786667 0.880000
vt 0.880000 0.880000
vt 0.833333 0.786667
vt 0.786667 0.880000
vt 0.880000 0.880000
vt 0.833333 0.786667
vt 0.786667 0.880000
vt 0.880000 0.880000
vt 0.833333 0.786667
vt 0.786667 0.880000
vt 0.880000 0.880000
vt 0.833333 0.786667
vt 0.786667 0.880000
vt 0.880000 0.880000
vt 0.833333 0.786667
vt 0.786667 0.880000
vt 0.880000 0.880000
vt 0.833333 0.786667
vt 0.786667 0.880000
vt 0.880000 0.880000
vt 0.833333 0.786667
vt 0.786667 0.880000
vt 0.880000 0.880000
vt 0.833333 0.786667
vt 0.786667 0.880000
vt 0.880000 0.880000
vt 0.833333 0.786667
vt 0.786667 0.880000
vt 0.880000 0.880000
vt 0.833333 0.786667
vt 0.786667 0.880000
vt 0.880000 0.880000
vt 0.833333 0.786667
vt 0.786667 0.880000
vt 0.880000 0.880000
vt 0.833333 0.786667
vt 0.786667 0.880000
vt 0.880000 0.880000
vt 0.833333 0.786667
vt 0.786667 0.880000
vt 0.880000 0.880000
vt 0.833333 0.786667
vt 0.786667 0.880000
vt 0.880000 0.880000
vt 0.833333 0.786667
vt 0.786667 0.880000
vt 0.880000 0.880000
vt 0.833333 0.786667
vt 0.786667 0.880000
vt 0.880000 0.880000
vt 0.833333 0.786667
vt 0.786667 0.880000
vt 0.880000 0.880000
vt 0.833333 0.786667
vt 0.786667 0.880000
vt 0.880000 0.880000
vt 0.833333 0.786667
vt 0.786667 0.880000
vt 0.880000 0.880000
vt 0.833333 0.786667
vt 0.786667 0.880000
vt 0.880000 0.880000
vt 0.833333 0.786667
vt 0.786667 0.880000
vt 0.880000 0.880000
vt 0.833333 0.786667
vt 0.786667 0.880000
vt 0.880000 0.880000
vt 0.833333 0.786667
vt 0.786667 0.880000
vt 0.880000 0.880000
vt 0.833333 0.786667
vt 0.786667 0.880000
vt 0.880000 0.880000
vt 0.833333 0.786667
vt 0.786667 0.880000
vt 0.880000 0.880000
vt 0.833333 0.786667
vt 0.786667 0.880000
vt 0.880000 0.880000
vt 0.833333 0.786667
vt 0.786667 0.880000
vt 0.880000 0.880000
vt 0.833333 0.786667
vt 0.786667 0.880000
vt 0.880000 0.880000
vt 0.833333 0.786667
vt 0.786667 0.880000
vt 0.880000 0.880000
vt 0.833333 0.786667
vt 0.786667 0.880000
vt 0.880000 0.880000
vt 0.833333 0.786667
vt 0.786667 0.880000
vt 0.880000 0.880000
vt 0.833333 0.786667
vt 0.786667 0.880000
vt 0.880000 0.880000
vt 0.833333 0.786667
vt 0.786667 0.880000
vt 0.880000 0.880000
vt 0.833333 0.786667
vt 0.786667 0.880000
vt 0.880000 0.880000
vt 0.833333 0.786667
vt 0.786667 0.880000
vt 0.880000 0.880000
vt 0.833333 0.786667
vt 0.786667 0.880000
vt 0.880000 0.880000
vt 0.833333 0.786667
vt 0.786667 0.880000
vt 0.880000 0.880000
vt 0.833333 0.786667
vt 0.786667 0.880000
vt 0.880000 0.880000
vt 0.833333 0.786667
vt 0.786667 0.880000
vt 0.880000 0.880000
vt 0.833333 0.786667
vt 0.786667 0.880000
vt 0.880000 0.880000
vt 0.833333 0.786667
vt 0.786667 0.880000
vt 0.880000 0.880000
vt 0.833333 0.786667
vt 0.786667 0.880000
vt 0.880000 0.880000
vt 0.833333 0.786667
vn -0.986294 0.131621 -0.099503
vn -0.448330 0.588117 -0.673140
vn -0.640761 0.003853 -0.767730
vn -0.448330 0.588117 -0.673140
vn -0.249418 0.657973 -0.710536
vn -0.640761 0.003853 -0.767730
vn -0.448330 0.588117 -0.673140
vn -0.002673 0.982211 -0.187762
vn -0.249418 0.657973 -0.710536
vn -0.002673 0.982211 -0.187762
vn 0.308251 0.916215 -0.255990
vn -0.249418 0.657973 -0.710536
vn -0.002673 0.982211 -0.187762
vn 0.328253 0.826176 0.457911
vn 0.308251 0.916215 -0.255990
vn 0.328253 0.826176 0.457911
vn 0.705569 0.627304 0.329641
vn 0.308251 0.916215 -0.255990
vn 0.328253 0.826176 0.457911
vn 0.370557 0.266398 0.889786
vn 0.705569 0.627304 0.329641
vn 0.370557 0.266398 0.889786
vn 0.709793 -0.039520 0.703301
vn 0.705569 0.627304 0.329641
vn 0.370557 0.266398 0.889786
vn 0.119538 -0.395584 0.910617
vn 0.709793 -0.039520 0.703301
vn 0.119538 -0.395584 0.910617
vn 0.318448 -0.693641 0.646106
vn 0.709793 -0.039520 0.703301
vn 0.119538 -0.395584 0.910617
vn -0.310605 -0.820351 0.480155
vn 0.318448 -0.693641 0.646106
vn -0.310605 -0.820351 0.480155
vn -0.239219 -0.951882 0.191561
vn 0.318448 -0.693641 0.646106
vn -0.310605 -0.820351 0.480155
vn -0.671212 -0.716581 -0.189699
vn -0.239219 -0.951882 0.191561
vn -0.671212 -0.716581 -0.189699
vn -0.636537 -0.662970 -0.394071
vn -0.239219 -0.951882 0.191561
vn -0.671212 -0.716581 -0.189699
vn -0.986294 0.131621 -0.099503
vn -0.636537 -0.662970 -0.394071
vn -0.986294 0.131621 -0.099503
vn -0.640761 0.003853 -0.767730
vn -0.636537 -0.662970 -0.394071
vn -0.640761 0.003853 -0.767730
vn -0.249418 0.657973 -0.710536
vn -0.176628 -0.039204 -0.983497
vn -0.249418 0.657973 -0.710536
vn -0.060005 0.702316 -0.709332
vn -0.176628 -0.039204 -0.983497
vn -0.249418 0.657973 -0.710536
vn 0.308251 0.916215 -0.255990
vn -0.060005 0.702316 -0.709332
vn 0.308251 0.916215 -0.255990
vn 0.532662 0.806518 -0.256515
vn -0.060005 0.702316 -0.709332
vn 0.308251 0.916215 -0.255990
vn 0.705569 0.627304 0.329641
vn 0.532662 0.806518 -0.256515
vn 0.705569 0.627304 0.329641
vn 0.889133 0.390703 0.238313
vn 0.532662 0.806518 -0.256515
vn 0.705569 0.627304 0.329641
vn 0.709793 -0.039520 0.703301
vn 0.889133 0.390703 0.238313
vn 0.709793 -0.039520 0.703301
vn 0.822841 -0.281828 0.493463
vn 0.889133 0.390703 0.238313
vn 0.709793 -0.039520 0.703301
vn 0.318448 -0.693641 0.646106
vn 0.822841 -0.281828 0.493463
vn 0.318448 -0.693641 0.646106
vn 0.382595 -0.842849 0.378453
vn 0.822841 -0.281828 0.493463
vn 0.318448 -0.693641 0.646106
vn -0.239219 -0.951882 0.191561
vn 0.382595 -0.842849 0.378453
vn -0.239219 -0.951882 0.191561
vn -0.200234 -0.978272 -0.053752
vn 0.382595 -0.842849 0.378453
vn -0.239219 -0.951882 0.191561
vn -0.636537 -0.662970 -0.394071
vn -0.200234 -0.978272 -0.053752
vn -0.636537 -0.662970 -0.394071
vn -0.587065 -0.581210 -0.563515
vn -0.200234 -0.978272 -0.053752
vn -0.636537 -0.662970 -0.394071
vn -0.640761 0.003853 -0.767730
vn -0.587065 -0.581210 -0.563515
vn -0.640761 0.003853 -0.767730
vn -0.176628 -0.039204 -0.983497
vn -0.587065 -0.581210 -0.563515
vn -0.986294 0.131621 -0.099503
vn -0.002673 0.982211 -0.187762
vn -0.448330 0.588117 -0.673140
vn -0.176628 -0.039204 -0.983497
vn -0.060005 0.702316 -0.709332
vn 0.532662 0.806518 -0.256515
vn -0.986294 0.131621 -0.099503
vn 0.328253 0.826176 0.457911
vn -0.002673 0.982211 -0.187762
vn -0.176628 -0.039204 -0.983497
vn 0.532662 0.806518 -0.256515
vn 0.889133 0.390703 0.238313
vn -0.986294 0.131621 -0.099503
vn 0.370557 0.266398 0.889786
vn 0.328253 0.826176 0.457911
vn -0.176628 -0.039204 -0.983497
vn 0.889133 0.390703 0.238313
vn 0.822841 -0.281828 0.493463
vn -0.986294 0.131621 -0.099503
vn 0.119538 -0.395584 0.910617
vn 0.370557 0.266398 0.889786
vn -0.176628 -0.039204 -0.983497
vn 0.822841 -0.281828 0.493463
vn 0.382595 -0.842849 0.378453
vn -0.986294 0.131621 -0.099503
vn -0.310605 -0.820351 0.480155
vn 0.119538 -0.395584 0.910617
vn -0.176628 -0.039204 -0.983497
vn 0.382595 -0.842849 0.378453
vn -0.200234 -0.978272 -0.053752
vn -0.986294 0.131621 -0.099503
vn -0.671212 -0.716581 -0.189699
vn -0.310605 -0.820351 0.480155
vn -0.176628 -0.039204 -0.983497
vn -0.200234 -0.978272 -0.053752
vn -0.587065 -0.581210 -0.563515
vn 0.000000 1.000000 0.000000
vn -0.386260 0.922390 0.000000
vn -0.280711 0.948001 0.149984
vn 0.000000 1.000000 0.000000
vn -0.280711 0.948001 0.149984
vn -0.000000 0.975871 0.218346
vn 0.000000 1.000000 0.000000
vn -0.000000 0.975871 0.218346
vn 0.280711 0.948001 0.149984
vn 0.000000 1.000000 0.000000
vn 0.280711 0.948001 0.149984
vn 0.386260 0.922390 0.000000
vn 0.000000 1.000000 0.000000
vn 0.386260 0.922390 0.000000
vn 0.280711 0.948001 -0.149984
vn 0.000000 1.000000 0.000000
vn 0.280711 0.948001 -0.149984
vn 0.000000 0.975871 -0.218346
vn 0.000000 1.000000 0.000000
vn 0.000000 0.975871 -0.218346
vn -0.280711 0.948001 -0.149984
vn 0.000000 1.000000 0.000000
vn -0.280711 0.948001 -0.149984
vn -0.386260 0.922390 -0.000000
vn -0.280711 0.948001 0.149984
vn -0.386260 0.922390 0.000000
vn -0.580493 0.752881 0.310159
vn -0.386260 0.922390 0.000000
vn -0.736997 0.675896 0.000000
vn -0.580493 0.752881 0.310159
vn -0.000000 0.975871 0.218346
vn -0.280711 0.948001 0.149984
vn -0.000000 0.864053 0.503400
vn -0.280711 0.948001 0.149984
vn -0.580493 0.752881 0.310159
vn -0.000000 0.864053 0.503400
vn 0.280711 0.948001 0.149984
vn -0.000000 0.975871 0.218346
vn 0.580493 0.752881 0.310159
vn -0.000000 0.975871 0.218346
vn -0.000000 0.864053 0.503400
vn 0.580493 0.752881 0.310159
vn 0.386260 0.922390 0.000000
vn 0.280711 0.948001 0.149984
vn 0.736997 0.675896 0.000000
vn 0.280711 0.948001 0.149984
vn 0.580493 0.752881 0.310159
vn 0.736997 0.675896 0.000000
vn 0.280711 0.948001 -0.149984
vn 0.386260 0.922390 0.000000
vn 0.580493 0.752881 -0.310159
vn 0.386260 0.922390 0.000000
vn 0.736997 0.675896 0.000000
vn 0.580493 0.752881 -0.310159
vn 0.000000 0.975871 -0.218346
vn 0.280711 0.948001 -0.149984
vn 0.000000 0.864053 -0.503400
vn 0.280711 0.948001 -0.149984
vn 0.580493 0.752881 -0.310159
vn 0.000000 0.864053 -0.503400
vn -0.280711 0.948001 -0.149984
vn 0.000000 0.975871 -0.218346
vn -0.580493 0.752881 -0.310159
vn 0.000000 0.975871 -0.218346
vn 0.000000 0.864053 -0.503400
vn -0.580493 0.752881 -0.310159
vn -0.386260 0.922390 -0.000000
vn -0.280711 0.948001 -0.149984
vn -0.736997 0.675896 -0.000000
vn -0.280711 0.948001 -0.149984
vn -0.580493 0.752881 -0.310159
vn -0.736997 0.675896 -0.000000
vn -0.580493 0.752881 0.310159
vn -0.736997 0.675896 0.000000
vn -0.838217 0.311148 0.447861
vn -0.736997 0.675896 0.000000
vn -0.967236 0.253880 0.000000
vn -0.838217 0.311148 0.447861
vn -0.000000 0.864053 0.503400
vn -0.580493 0.752881 0.310159
vn -0.000000 0.440925 0.897544
vn -0.580493 0.752881 0.310159
vn -0.838217 0.311148 0.447861
vn -0.000000 0.440925 0.897544
vn 0.580493 0.752881 0.310159
vn -0.000000 0.864053 0.503400
vn 0.838217 0.311148 0.447861
vn -0.000000 0.864053 0.503400
vn -0.000000 0.440925 0.897544
vn 0.838217 0.311148 0.447861
vn 0.736997 0.675896 0.000000
vn 0.580493 0.752881 0.310159
vn 0.967236 0.253880 0.000000
vn 0.580493 0.752881 0.310159
vn 0.838217 0.311148 0.447861
vn 0.967236 0.253880 0.000000
vn 0.580493 0.752881 -0.310159
vn 0.736997 0.675896 0.000000
vn 0.838217 0.311148 -0.447861
vn 0.736997 0.675896 0.000000
vn 0.967236 0.253880 0.000000
vn 0.838217 0.311148 -0.447861
vn 0.000000 0.864053 -0.503400
vn 0.580493 0.752881 -0.310159
vn 0.000000 0.440925 -0.897544
vn 0.580493 0.752881 -0.310159
vn 0.838217 0.311148 -0.447861
vn 0.000000 0.440925 -0.897544
vn -0.580493 0.752881 -0.310159
vn 0.000000 0.864053 -0.503400
vn -0.838217 0.311148 -0.447861
vn 0.000000 0.864053 -0.503400
vn 0.000000 0.440925 -0.897544
vn -0.838217 0.311148 -0.447861
vn -0.736997 0.675896 -0.000000
vn -0.580493 0.752881 -0.310159
vn -0.967236 0.253880 -0.000000
vn -0.580493 0.752881 -0.310159
vn -0.838217 0.311148 -0.447861
vn -0.967236 0.253880 -0.000000
vn -0.838217 0.311148 0.447861
vn -0.967236 0.253880 0.000000
vn -0.838217 -0.311148 0.447861
vn -0.967236 0.253880 0.000000
vn -0.967236 -0.253880 0.000000
vn -0.838217 -0.311148 0.447861
vn -0.000000 0.440925 0.897544
vn -0.838217 0.311148 0.447861
vn -0.000000 -0.440925 0.897544
vn -0.838217 0.311148 0.447861
vn -0.838217 -0.311148 0.447861
vn -0.000000 -0.440925 0.897544
vn 0.838217 0.311148 0.447861
vn -0.000000 0.440925 0.897544
vn 0.838217 -0.311148 0.447861
vn -0.000000 0.440925 0.897544
vn -0.000000 -0.440925 0.897544
vn 0.838217 -0.311148 0.447861
vn 0.967236 0.253880 0.000000
vn 0.838217 0.311148 0.447861
vn 0.967236 -0.253880 0.000000
vn 0.838217 0.311148 0.447861
vn 0.838217 -0.311148 0.447861
vn 0.967236 -0.253880 0.000000
vn 0.838217 0.311148 -0.447861
vn 0.967236 0.253880 0.000000
vn 0.838217 -0.311148 -0.447861
vn 0.967236 0.253880 0.000000
vn 0.967236 -0.253880 0.000000
vn 0.838217 -0.311148 -0.447861
vn 0.000000 0.440925 -0.897544
vn 0.838217 0.311148 -0.447861
vn 0.000000 -0.440925 -0.897544
vn 0.838217 0.311148 -0.447861
vn 0.838217 -0.311148 -0.447861
vn 0.000000 -0.440925 -0.897544
vn -0.838217 0.311148 -0.447861
vn 0.000000 0.440925 -0.897544
vn -0.838217 -0.311148 -0.447861
vn 0.000000 0.440925 -0.897544
vn 0.000000 -0.440925 -0.897544
vn -0.838217 -0.311148 -0.447861
vn -0.967236 0.253880 -0.000000
vn -0.838217 0.311148 -0.447861
vn -0.967236 -0.253880 -0.000000
vn -0.838217 0.311148 -0.447861
vn -0.838217 -0.311148 -0.447861
vn -0.967236 -0.253880 -0.000000
vn -0.838217 -0.311148 0.447861
vn -0.967236 -0.253880 0.000000
vn -0.580493 -0.752881 0.310159
vn -0.967236 -0.253880 0.000000
vn -0.736997 -0.675896 0.000000
vn -0.580493 -0.752881 0.310159
vn -0.000000 -0.440925 0.897544
vn -0.838217 -0.311148 0.447861
vn -0.000000 -0.864053 0.503400
vn -0.838217 -0.311148 0.447861
vn -0.580493 -0.752881 0.310159
vn -0.000000 -0.864053 0.503400
vn 0.838217 -0.311148 0.447861
vn -0.000000 -0.440925 0.897544
vn 0.580493 -0.752881 0.310159
vn -0.000000 -0.440925 0.897544
vn -0.000000 -0.864053 0.503400
vn 0.580493 -0.752881 0.310159
vn 0.967236 -0.253880 0.000000
vn 0.838217 -0.311148 0.447861
vn 0.736997 -0.675896 0.000000
vn 0.838217 -0.311148 0.447861
vn 0.580493 -0.752881 0.310159
vn 0.736997 -0.675896 0.000000
vn 0.838217 -0.311148 -0.447861
vn 0.967236 -0.253880 0.000000
vn 0.580493 -0.752881 -0.310159
vn 0.967236 -0.253880 0.000000
vn 0.736997 -0.675896 0.000000
vn 0.580493 -0.752881 -0.310159
vn 0.000000 -0.440925 -0.897544
vn 0.838217 -0.311148 -0.447861
vn 0.000000 -0.864053 -0.503400
vn 0.838217 -0.311148 -0.447861
vn 0.580493 -0.752881 -0.310159
vn 0.000000 -0.864053 -0.503400
vn -0.838217 -0.311148 -0.447861
vn 0.000000 -0.440925 -0.897544
vn -0.580493 -0.752881 -0.310159
vn 0.000000 -0.440925 -0.897544
vn 0.000000 -0.864053 -0.503400
vn -0.580493 -0.752881 -0.310159
vn -0.967236 -0.253880 -0.000000
vn -0.838217 -0.311148 -0.447861
vn -0.736997 -0.675896 -0.000000
vn -0.838217 -0.311148 -0.447861
vn -0.580493 -0.752881 -0.310159
vn -0.736997 -0.675896 -0.000000
vn -0.580493 -0.752881 0.310159
vn -0.736997 -0.675896 0.000000
vn -0.280711 -0.948001 0.149984
vn -0.736997 -0.675896 0.000000
vn -0.386260 -0.922390 0.000000
vn -0.280711 -0.948001 0.149984
vn -0.000000 -0.864053 0.503400
vn -0.580493 -0.752881 0.310159
vn -0.000000 -0.975871 0.218346
vn -0.580493 -0.752881 0.310159
vn -0.280711 -0.948001 0.149984
vn -0.000000 -0.975871 0.218346
vn 0.580493 -0.752881 0.310159
vn -0.000000 -0.864053 0.503400
vn 0.280711 -0.948001 0.149984
vn -0.000000 -0.864053 0.503400
vn -0.000000 -0.975871 0.218346
vn 0.280711 -0.948001 0.149984
vn 0.736997 -0.675896 0.000000
vn 0.580493 -0.752881 0.310159
vn 0.386260 -0.922390 0.000000
vn 0.580493 -0.752881 0.310159
vn 0.280711 -0.948001 0.149984
vn 0.386260 -0.922390 0.000000
vn 0.580493 -0.752881 -0.310159
vn 0.736997 -0.675896 0.000000
vn 0.280711 -0.948001 -0.149984
vn 0.736997 -0.675896 0.000000
vn 0.386260 -0.922390 0.000000
vn 0.280711 -0.948001 -0.149984
vn 0.000000 -0.864053 -0.503400
vn 0.580493 -0.752881 -0.310159
vn 0.000000 -0.975871 -0.218346
vn 0.580493 -0.752881 -0.310159
vn 0.280711 -0.948001 -0.149984
vn 0.000000 -0.975871 -0.218346
vn -0.580493 -0.752881 -0.310159
vn 0.000000 -0.864053 -0.503400
vn -0.280711 -0.948001 -0.149984
vn 0.000000 -0.864053 -0.503400
vn 0.000000 -0.975871 -0.218346
vn -0.280711 -0.948001 -0.149984
vn -0.736997 -0.675896 -0.000000
vn -0.580493 -0.752881 -0.310159
vn -0.386260 -0.922390 -0.000000
vn -0.580493 -0.752881 -0.310159
vn -0.280711 -0.948001 -0.149984
vn -0.386260 -0.922390 -0.000000
vn -0.280711 -0.948001 0.149984
vn -0.386260 -0.922390 0.000000
vn -0.000000 -1.000000 0.000000
vn -0.000000 -0.975871 0.218346
vn -0.280711 -0.948001 0.149984
vn -0.000000 -1.000000 0.000000
vn 0.280711 -0.948001 0.149984
vn -0.000000 -0.975871 0.218346
vn 0.000000 -1.000000 0.000000
vn 0.386260 -0.922390 0.000000
vn 0.280711 -0.948001 0.149984
vn 0.000000 -1.000000 0.000000
vn 0.280711 -0.948001 -0.149984
vn 0.386260 -0.922390 0.000000
vn 0.000000 -1.000000 -0.000000
vn 0.000000 -0.975871 -0.218346
vn 0.280711 -0.948001 -0.149984
vn 0.000000 -1.000000 -0.000000
vn -0.280711 -0.948001 -0.149984
vn 0.000000 -0.975871 -0.218346
vn -0.000000 -1.000000 -0.000000
vn -0.386260 -0.922390 -0.000000
vn -0.280711 -0.948001 -0.149984
vn -0.000000 -1.000000 -0.000000
vn -0.946154 -0.270968 0.177111
vn -0.438425 0.753322 0.490193
vn -0.974013 0.224380 0.030867
vn -0.438425 0.753322 0.490193
vn -0.105331 0.885302 0.452931
vn -0.974013 0.224380 0.030867
vn -0.438425 0.753322 0.490193
vn 0.706142 0.472399 0.527449
vn -0.105331 0.885302 0.452931
vn 0.706142 0.472399 0.527449
vn 0.908912 0.393244 0.138703
vn -0.105331 0.885302 0.452931
vn 0.706142 0.472399 0.527449
vn 0.866851 -0.490802 -0.087650
vn 0.908912 0.393244 0.138703
vn 0.866851 -0.490802 -0.087650
vn 0.667073 -0.571790 -0.477566
vn 0.908912 0.393244 0.138703
vn 0.866851 -0.490802 -0.087650
vn -0.173565 -0.834128 -0.523551
vn 0.667073 -0.571790 -0.477566
vn -0.173565 -0.834128 -0.523551
vn -0.496640 -0.676152 -0.544212
vn 0.667073 -0.571790 -0.477566
vn -0.173565 -0.834128 -0.523551
vn -0.946154 -0.270968 0.177111
vn -0.496640 -0.676152 -0.544212
vn -0.946154 -0.270968 0.177111
vn -0.974013 0.224380 0.030867
vn -0.496640 -0.676152 -0.544212
vn -0.974013 0.224380 0.030867
vn -0.105331 0.885302 0.452931
vn -0.911698 0.390601 0.127424
vn -0.105331 0.885302 0.452931
vn 0.096799 0.878382 0.468054
vn -0.911698 0.390601 0.127424
vn -0.105331 0.885302 0.452931
vn 0.908912 0.393244 0.138703
vn 0.096799 0.878382 0.468054
vn 0.908912 0.393244 0.138703
vn 0.972291 0.230900 0.036544
vn 0.096799 0.878382 0.468054
vn 0.908912 0.393244 0.138703
vn 0.667073 -0.571790 -0.477566
vn 0.972291 0.230900 0.036544
vn 0.667073 -0.571790 -0.477566
vn 0.504242 -0.673231 -0.540833
vn 0.972291 0.230900 0.036544
vn 0.667073 -0.571790 -0.477566
vn -0.496640 -0.676152 -0.544212
vn 0.504242 -0.673231 -0.540833
vn -0.496640 -0.676152 -0.544212
vn -0.661531 -0.586451 -0.467389
vn 0.504242 -0.673231 -0.540833
vn -0.496640 -0.676152 -0.544212
vn -0.974013 0.224380 0.030867
vn -0.661531 -0.586451 -0.467389
vn -0.974013 0.224380 0.030867
vn -0.911698 0.390601 0.127424
vn -0.661531 -0.586451 -0.467389
vn -0.946154 -0.270968 0.177111
vn 0.706142 0.472399 0.527449
vn -0.438425 0.753322 0.490193
vn -0.911698 0.390601 0.127424
vn 0.096799 0.878382 0.468054
vn 0.972291 0.230900 0.036544
vn -0.946154 -0.270968 0.177111
vn 0.866851 -0.490802 -0.087650
vn 0.706142 0.472399 0.527449
vn -0.911698 0.390601 0.127424
vn 0.972291 0.230900 0.036544
vn 0.504242 -0.673231 -0.540833
vn -0.946154 -0.270968 0.177111
vn -0.173565 -0.834128 -0.523551
vn 0.866851 -0.490802 -0.087650
vn -0.911698 0.390601 0.127424
vn 0.504242 -0.673231 -0.540833
vn -0.661531 -0.586451 -0.467389
vn -0.653949 -0.096563 0.750351
vn -0.456405 0.881447 0.121427
vn -0.840936 0.175403 0.511918
vn -0.456405 0.881447 0.121427
vn -0.248923 0.959766 -0.129949
vn -0.840936 0.175403 0.511918
vn -0.456405 0.881447 0.121427
vn 0.559202 0.699571 -0.444853
vn -0.248923 0.959766 -0.129949
vn 0.559202 0.699571 -0.444853
vn 0.642222 0.402420 -0.652387
vn -0.248923 0.959766 -0.129949
vn 0.559202 0.699571 -0.444853
vn 0.828065 -0.432872 -0.356273
vn 0.642222 0.402420 -0.652387
vn 0.828065 -0.432872 -0.356273
vn 0.600967 -0.726418 -0.333399
vn 0.642222 0.402420 -0.652387
vn 0.828065 -0.432872 -0.356273
vn -0.018286 -0.963865 0.265762
vn 0.600967 -0.726418 -0.333399
vn -0.018286 -0.963865 0.265762
vn -0.315670 -0.866728 0.386179
vn 0.600967 -0.726418 -0.333399
vn -0.018286 -0.963865 0.265762
vn -0.653949 -0.096563 0.750351
vn -0.315670 -0.866728 0.386179
vn -0.653949 -0.096563 0.750351
vn -0.840936 0.175403 0.511918
vn -0.315670 -0.866728 0.386179
vn -0.840936 0.175403 0.511918
vn -0.248923 0.959766 -0.129949
vn -0.831596 0.331518 0.445584
vn -0.248923 0.959766 -0.129949
vn -0.107988 0.968598 -0.223956
vn -0.831596 0.331518 0.445584
vn -0.248923 0.959766 -0.129949
vn 0.642222 0.402420 -0.652387
vn -0.107988 0.968598 -0.223956
vn 0.642222 0.402420 -0.652387
vn 0.704559 0.245565 -0.665804
vn -0.107988 0.968598 -0.223956
vn 0.642222 0.402420 -0.652387
vn 0.600967 -0.726418 -0.333399
vn 0.704559 0.245565 -0.665804
vn 0.600967 -0.726418 -0.333399
vn 0.503423 -0.829680 -0.241238
vn 0.704559 0.245565 -0.665804
vn 0.600967 -0.726418 -0.333399
vn -0.315670 -0.866728 0.386179
vn 0.503423 -0.829680 -0.241238
vn -0.315670 -0.866728 0.386179
vn -0.433723 -0.772637 0.463590
vn 0.503423 -0.829680 -0.241238
vn -0.315670 -0.866728 0.386179
vn -0.840936 0.175403 0.511918
vn -0.433723 -0.772637 0.463590
vn -0.840936 0.175403 0.511918
vn -0.831596 0.331518 0.445584
vn -0.433723 -0.772637 0.463590
vn -0.653949 -0.096563 0.750351
vn 0.559202 0.699571 -0.444853
vn -0.456405 0.881447 0.121427
vn -0.831596 0.331518 0.445584
vn -0.107988 0.968598 -0.223956
vn 0.704559 0.245565 -0.665804
vn -0.653949 -0.096563 0.750351
vn 0.828065 -0.432872 -0.356273
vn 0.559202 0.699571 -0.444853
vn -0.831596 0.331518 0.445584
vn 0.704559 0.245565 -0.665804
vn 0.503423 -0.829680 -0.241238
vn -0.653949 -0.096563 0.750351
vn -0.018286 -0.963865 0.265762
vn 0.828065 -0.432872 -0.356273
vn -0.831596 0.331518 0.445584
vn 0.503423 -0.829680 -0.241238
vn -0.433723 -0.772637 0.463590
vn -0.905606 -0.096564 -0.412981
vn -0.246468 0.881446 -0.402873
vn -0.730355 0.175394 -0.660165
vn -0.246468 0.881446 -0.402873
vn 0.053617 0.959766 -0.275636
vn -0.730355 0.175394 -0.660165
vn -0.246468 0.881446 -0.402873
vn 0.585774 0.699573 0.409227
vn 0.053617 0.959766 -0.275636
vn 0.585774 0.699573 0.409227
vn 0.808366 0.402412 0.429663
vn 0.053617 0.959766 -0.275636
vn 0.585774 0.699573 0.409227
vn 0.577492 -0.432877 0.692185
vn 0.808366 0.402412 0.429663
vn 0.577492 -0.432877 0.692185
vn 0.490847 -0.726418 0.481026
vn 0.808366 0.402412 0.429663
vn 0.577492 -0.432877 0.692185
vn -0.259953 -0.963865 0.058212
vn 0.490847 -0.726418 0.481026
vn -0.259953 -0.963865 0.058212
vn -0.460134 -0.866725 -0.192524
vn 0.490847 -0.726418 0.481026
vn -0.259953 -0.963865 0.058212
vn -0.905606 -0.096564 -0.412981
vn -0.460134 -0.866725 -0.192524
vn -0.905606 -0.096564 -0.412981
vn -0.730355 0.175394 -0.660165
vn -0.460134 -0.866725 -0.192524
vn -0.730355 0.175394 -0.660165
vn 0.053617 0.959766 -0.275636
vn -0.664113 0.331505 -0.670118
vn 0.053617 0.959766 -0.275636
vn 0.183889 0.968598 -0.167339
vn -0.664113 0.331505 -0.670118
vn 0.053617 0.959766 -0.275636
vn 0.808366 0.402412 0.429663
vn 0.183889 0.968598 -0.167339
vn 0.808366 0.402412 0.429663
vn 0.838992 0.245541 0.485595
vn 0.183889 0.968598 -0.167339
vn 0.808366 0.402412 0.429663
vn 0.490847 -0.726418 0.481026
vn 0.838992 0.245541 0.485595
vn 0.490847 -0.726418 0.481026
vn 0.374722 -0.829670 0.413801
vn 0.838992 0.245541 0.485595
vn 0.490847 -0.726418 0.481026
vn -0.460134 -0.866725 -0.192524
vn 0.374722 -0.829670 0.413801
vn -0.460134 -0.866725 -0.192524
vn -0.567975 -0.772637 -0.283613
vn 0.374722 -0.829670 0.413801
vn -0.460134 -0.866725 -0.192524
vn -0.730355 0.175394 -0.660165
vn -0.567975 -0.772637 -0.283613
vn -0.730355 0.175394 -0.660165
vn -0.664113 0.331505 -0.670118
vn -0.567975 -0.772637 -0.283613
vn -0.905606 -0.096564 -0.412981
vn 0.585774 0.699573 0.409227
vn -0.246468 0.881446 -0.402873
vn -0.664113 0.331505 -0.670118
vn 0.183889 0.968598 -0.167339
vn 0.838992 0.245541 0.485595
vn -0.905606 -0.096564 -0.412981
vn 0.577492 -0.432877 0.692185
vn 0.585774 0.699573 0.409227
vn -0.664113 0.331505 -0.670118
vn 0.838992 0.245541 0.485595
vn 0.374722 -0.829670 0.413801
vn -0.905606 -0.096564 -0.412981
vn -0.259953 -0.963865 0.058212
vn 0.577492 -0.432877 0.692185
vn -0.664113 0.331505 -0.670118
vn 0.374722 -0.829670 0.413801
vn -0.567975 -0.772637 -0.283613
usemtl Dragon_color_atlas
f 1/1/1 2/2/2 3/3/3
f 4/4/4 5/5/5 6/6/6
f 7/7/7 8/8/8 9/9/9
f 10/10/10 11/11/11 12/12/12
f 13/13/13 14/14/14 15/15/15
f 16/16/16 17/17/17 18/18/18
f 19/19/19 20/20/20 21/21/21
f 22/22/22 23/23/23 24/24/24
f 25/25/25 26/26/26 27/27/27
f 28/28/28 29/29/29 30/30/30
f 31/31/31 32/32/32 33/33/33
f 34/34/34 35/35/35 36/36/36
f 37/37/37 38/38/38 39/39/39
f 40/40/40 41/41/41 42/42/42
f 43/43/43 44/44/44 45/45/45
f 46/46/46 47/47/47 48/48/48
f 49/49/49 50/50/50 51/51/51
f 52/52/52 53/53/53 54/54/54
f 55/55/55 56/56/56 57/57/57
f 58/58/58 59/59/59 60/60/60
f 61/61/61 62/62/62 63/63/63
f 64/64/64 65/65/65 66/66/66
f 67/67/67 68/68/68 69/69/69
f 70/70/70 71/71/71 72/72/72
f 73/73/73 74/74/74 75/75/75
f 76/76/76 77/77/77 78/78/78
f 79/79/79 80/80/80 81/81/81
f 82/82/82 83/83/83 84/84/84
f 85/85/85 86/86/86 87/87/87
f 88/88/88 89/89/89 90/90/90
f 91/91/91 92/92/92 93/93/93
f 94/94/94 95/95/95 96/96/96
f 97/97/97 98/98/98 99/99/99
f 100/100/100 101/101/101 102/102/102
f 103/103/103 104/104/104 105/105/105
f 106/106/106 107/107/107 108/108/108
f 109/109/109 110/110/110 111/111/111
f 112/112/112 113/113/113 114/114/114
f 115/115/115 116/116/116 117/117/117
f 118/118/118 119/119/119 120/120/120
f 121/121/121 122/122/122 123/123/123
f 124/124/124 125/125/125 126/126/126
f 127/127/127 128/128/128 129/129/129
f 130/130/130 131/131/131 132/132/132
f 133/133/133 134/134/134 135/135/135
f 136/136/136 137/137/137 138/138/138
f 139/139/139 140/140/140 141/141/141
f 142/142/142 143/143/143 144/144/144
f 145/145/145 146/146/146 147/147/147
f 148/148/148 149/149/149 150/150/150
f 151/151/151 152/152/152 153/153/153
f 154/154/154 155/155/155 156/156/156
f 157/157/157 158/158/158 159/159/159
f 160/160/160 161/161/161 162/162/162
f 163/163/163 164/164/164 165/165/165
f 166/166/166 167/167/167 168/168/168
f 169/169/169 170/170/170 171/171/171
f 172/172/172 173/173/173 174/174/174
f 175/175/175 176/176/176 177/177/177
f 178/178/178 179/179/179 180/180/180
f 181/181/181 182/182/182 183/183/183
f 184/184/184 185/185/185 186/186/186
f 187/187/187 188/188/188 189/189/189
f 190/190/190 191/191/191 192/192/192
f 193/193/193 194/194/194 195/195/195
f 196/196/196 197/197/197 198/198/198
f 199/199/199 200/200/200 201/201/201
f 202/202/202 203/203/203 204/204/204
f 205/205/205 206/206/206 207/207/207
f 208/208/208 209/209/209 210/210/210
f 211/211/211 212/212/212 213/213/213
f 214/214/214 215/215/215 216/216/216
f 217/217/217 218/218/218 219/219/219
f 220/220/220 221/221/221 222/222/222
f 223/223/223 224/224/224 225/225/225
f 226/226/226 227/227/227 228/228/228
f 229/229/229 230/230/230 231/231/231
f 232/232/232 233/233/233 234/234/234
f 235/235/235 236/236/236 237/237/237
f 238/238/238 239/239/239 240/240/240
f 241/241/241 242/242/242 243/243/243
f 244/244/244 245/245/245 246/246/246
f 247/247/247 248/248/248 249/249/249
f 250/250/250 251/251/251 252/252/252
f 253/253/253 254/254/254 255/255/255
f 256/256/256 257/257/257 258/258/258
f 259/259/259 260/260/260 261/261/261
f 262/262/262 263/263/263 264/264/264
f 265/265/265 266/266/266 267/267/267
f 268/268/268 269/269/269 270/270/270
f 271/271/271 272/272/272 273/273/273
f 274/274/274 275/275/275 276/276/276
f 277/277/277 278/278/278 279/279/279
f 280/280/280 281/281/281 282/282/282
f 283/283/283 284/284/284 285/285/285
f 286/286/286 287/287/287 288/288/288
f 289/289/289 290/290/290 291/291/291
f 292/292/292 293/293/293 294/294/294
f 295/295/295 296/296/296 297/297/297
f 298/298/298 299/299/299 300/300/300
f 301/301/301 302/302/302 303/303/303
f 304/304/304 305/305/305 306/306/306
f 307/307/307 308/308/308 309/309/309
f 310/310/310 311/311/311 312/312/312
f 313/313/313 314/314/314 315/315/315
f 316/316/316 317/317/317 318/318/318
f 319/319/319 320/320/320 321/321/321
f 322/322/322 323/323/323 324/324/324
f 325/325/325 326/326/326 327/327/327
f 328/328/328 329/329/329 330/330/330
f 331/331/331 332/332/332 333/333/333
f 334/334/334 335/335/335 336/336/336
f 337/337/337 338/338/338 339/339/339
f 340/340/340 341/341/341 342/342/342
f 343/343/343 344/344/344 345/345/345
f 346/346/346 347/347/347 348/348/348
f 349/349/349 350/350/350 351/351/351
f 352/352/352 353/353/353 354/354/354
f 355/355/355 356/356/356 357/357/357
f 358/358/358 359/359/359 360/360/360
f 361/361/361 362/362/362 363/363/363
f 364/364/364 365/365/365 366/366/366
f 367/367/367 368/368/368 369/369/369
f 370/370/370 371/371/371 372/372/372
f 373/373/373 374/374/374 375/375/375
f 376/376/376 377/377/377 378/378/378
f 379/379/379 380/380/380 381/381/381
f 382/382/382 383/383/383 384/384/384
f 385/385/385 386/386/386 387/387/387
f 388/388/388 389/389/389 390/390/390
f 391/391/391 392/392/392 393/393/393
f 394/394/394 395/395/395 396/396/396
f 397/397/397 398/398/398 399/399/399
f 400/400/400 401/401/401 402/402/402
f 403/403/403 404/404/404 405/405/405
f 406/406/406 407/407/407 408/408/408
f 409/409/409 410/410/410 411/411/411
f 412/412/412 413/413/413 414/414/414
f 415/415/415 416/416/416 417/417/417
f 418/418/418 419/419/419 420/420/420
f 421/421/421 422/422/422 423/423/423
f 424/424/424 425/425/425 426/426/426
f 427/427/427 428/428/428 429/429/429
f 430/430/430 431/431/431 432/432/432
f 433/433/433 434/434/434 435/435/435
f 436/436/436 437/437/437 438/438/438
f 439/439/439 440/440/440 441/441/441
f 442/442/442 443/443/443 444/444/444
f 445/445/445 446/446/446 447/447/447
f 448/448/448 449/449/449 450/450/450
f 451/451/451 452/452/452 453/453/453
f 454/454/454 455/455/455 456/456/456
f 457/457/457 458/458/458 459/459/459
f 460/460/460 461/461/461 462/462/462
f 463/463/463 464/464/464 465/465/465
f 466/466/466 467/467/467 468/468/468
f 469/469/469 470/470/470 471/471/471
f 472/472/472 473/473/473 474/474/474
f 475/475/475 476/476/476 477/477/477
f 478/478/478 479/479/479 480/480/480
f 481/481/481 482/482/482 483/483/483
f 484/484/484 485/485/485 486/486/486
f 487/487/487 488/488/488 489/489/489
f 490/490/490 491/491/491 492/492/492
f 493/493/493 494/494/494 495/495/495
f 496/496/496 497/497/497 498/498/498
f 499/499/499 500/500/500 501/501/501
f 502/502/502 503/503/503 504/504/504
f 505/505/505 506/506/506 507/507/507
f 508/508/508 509/509/509 510/510/510
f 511/511/511 512/512/512 513/513/513
f 514/514/514 515/515/515 516/516/516
f 517/517/517 518/518/518 519/519/519
f 520/520/520 521/521/521 522/522/522
f 523/523/523 524/524/524 525/525/525
f 526/526/526 527/527/527 528/528/528
f 529/529/529 530/530/530 531/531/531
f 532/532/532 533/533/533 534/534/534
f 535/535/535 536/536/536 537/537/537
f 538/538/538 539/539/539 540/540/540
f 541/541/541 542/542/542 543/543/543
f 544/544/544 545/545/545 546/546/546
f 547/547/547 548/548/548 549/549/549
f 550/550/550 551/551/551 552/552/552
f 553/553/553 554/554/554 555/555/555
f 556/556/556 557/557/557 558/558/558
f 559/559/559 560/560/560 561/561/561
f 562/562/562 563/563/563 564/564/564
f 565/565/565 566/566/566 567/567/567
f 568/568/568 569/569/569 570/570/570
f 571/571/571 572/572/572 573/573/573
f 574/574/574 575/575/575 576/576/576
f 577/577/577 578/578/578 579/579/579
f 580/580/580 581/581/581 582/582/582
f 583/583/583 584/584/584 585/585/585
f 586/586/586 587/587/587 588/588/588
f 589/589/589 590/590/590 591/591/591
f 592/592/592 593/593/593 594/594/594
f 595/595/595 596/596/596 597/597/597
f 598/598/598 599/599/599 600/600/600
f 601/601/601 602/602/602 603/603/603
f 604/604/604 605/605/605 606/606/606
f 607/607/607 608/608/608 609/609/609
f 610/610/610 611/611/611 612/612/612
f 613/613/613 614/614/614 615/615/615
f 616/616/616 617/617/617 618/618/618
f 619/619/619 620/620/620 621/621/621
f 622/622/622 623/623/623 624/624/624
f 625/625/625 626/626/626 627/627/627
f 628/628/628 629/629/629 630/630/630
f 631/631/631 632/632/632 633/633/633
f 634/634/634 635/635/635 636/636/636
f 637/637/637 638/638/638 639/639/639
f 640/640/640 641/641/641 642/642/642
f 643/643/643 644/644/644 645/645/645
f 646/646/646 647/647/647 648/648/648
f 649/649/649 650/650/650 651/651/651
f 652/652/652 653/653/653 654/654/654
