# Obsidian West — joint-local part geometry, +Y up, +Z forward
mtllib materials.mtl
o Tail_04
v -0.344761 -0.000000 0.172381
v -0.195149 0.249923 0.219159
v -0.553894 0.180000 -0.185553
v -0.195149 0.249923 0.219159
v -0.393810 0.447418 -0.135500
v -0.553894 0.180000 -0.185553
v -0.195149 0.249923 0.219159
v 0.068778 0.353444 0.137557
v -0.393810 0.447418 -0.135500
v 0.068778 0.353444 0.137557
v -0.111407 0.558185 -0.222814
v -0.393810 0.447418 -0.135500
v 0.068778 0.353444 0.137557
v 0.292417 0.249923 -0.024624
v -0.111407 0.558185 -0.222814
v 0.292417 0.249923 -0.024624
v 0.127886 0.447418 -0.396348
v -0.111407 0.558185 -0.222814
v 0.292417 0.249923 -0.024624
v 0.344761 -0.000000 -0.172381
v 0.127886 0.447418 -0.396348
v 0.344761 -0.000000 -0.172381
v 0.183894 0.180000 -0.554447
v 0.127886 0.447418 -0.396348
v 0.344761 -0.000000 -0.172381
v 0.195149 -0.249923 -0.219159
v 0.183894 0.180000 -0.554447
v 0.195149 -0.249923 -0.219159
v 0.023810 -0.087417 -0.604500
v 0.183894 0.180000 -0.554447
v 0.195149 -0.249923 -0.219159
v -0.068778 -0.353444 -0.137557
v 0.023810 -0.087417 -0.604500
v -0.068778 -0.353444 -0.137557
v -0.258593 -0.198186 -0.517186
v 0.023810 -0.087417 -0.604500
v -0.068778 -0.353444 -0.137557
v -0.292417 -0.249923 0.024624
v -0.258593 -0.198186 -0.517186
v -0.292417 -0.249923 0.024624
v -0.497886 -0.087417 -0.343652
v -0.258593 -0.198186 -0.517186
v -0.292417 -0.249923 0.024624
v -0.344761 -0.000000 0.172381
v -0.497886 -0.087417 -0.343652
v -0.344761 -0.000000 0.172381
v -0.553894 0.180000 -0.185553
v -0.497886 -0.087417 -0.343652
v -0.553894 0.180000 -0.185553
v -0.393810 0.447418 -0.135500
v -0.671666 0.360000 -0.589167
v -0.393810 0.447418 -0.135500
v -0.540756 0.578682 -0.548236
v -0.671666 0.360000 -0.589167
v -0.393810 0.447418 -0.135500
v -0.111407 0.558185 -0.222814
v -0.540756 0.578682 -0.548236
v -0.111407 0.558185 -0.222814
v -0.309819 0.669264 -0.619638
v -0.540756 0.578682 -0.548236
v -0.111407 0.558185 -0.222814
v 0.127886 0.447418 -0.396348
v -0.309819 0.669264 -0.619638
v 0.127886 0.447418 -0.396348
v -0.114136 0.578682 -0.761546
v -0.309819 0.669264 -0.619638
v 0.127886 0.447418 -0.396348
v 0.183894 0.180000 -0.554447
v -0.114136 0.578682 -0.761546
v 0.183894 0.180000 -0.554447
v -0.068334 0.360000 -0.890833
v -0.114136 0.578682 -0.761546
v 0.183894 0.180000 -0.554447
v 0.023810 -0.087417 -0.604500
v -0.068334 0.360000 -0.890833
v 0.023810 -0.087417 -0.604500
v -0.199244 0.141318 -0.931764
v -0.068334 0.360000 -0.890833
v 0.023810 -0.087417 -0.604500
v -0.258593 -0.198186 -0.517186
v -0.199244 0.141318 -0.931764
v -0.258593 -0.198186 -0.517186
v -0.430181 0.050736 -0.860362
v -0.199244 0.141318 -0.931764
v -0.258593 -0.198186 -0.517186
v -0.497886 -0.087417 -0.343652
v -0.430181 0.050736 -0.860362
v -0.497886 -0.087417 -0.343652
v -0.625864 0.141318 -0.718454
v -0.430181 0.050736 -0.860362
v -0.497886 -0.087417 -0.343652
v -0.553894 0.180000 -0.185553
v -0.625864 0.141318 -0.718454
v -0.553894 0.180000 -0.185553
v -0.671666 0.360000 -0.589167
v -0.625864 0.141318 -0.718454
v -0.344761 -0.000000 0.172381
v 0.068778 0.353444 0.137557
v -0.195149 0.249923 0.219159
v -0.671666 0.360000 -0.589167
v -0.540756 0.578682 -0.548236
v -0.309819 0.669264 -0.619638
v -0.344761 -0.000000 0.172381
v 0.292417 0.249923 -0.024624
v 0.068778 0.353444 0.137557
v -0.671666 0.360000 -0.589167
v -0.309819 0.669264 -0.619638
v -0.114136 0.578682 -0.761546
v -0.344761 -0.000000 0.172381
v 0.344761 -0.000000 -0.172381
v 0.292417 0.249923 -0.024624
v -0.671666 0.360000 -0.589167
v -0.114136 0.578682 -0.761546
v -0.068334 0.360000 -0.890833
v -0.344761 -0.000000 0.172381
v 0.195149 -0.249923 -0.219159
v 0.344761 -0.000000 -0.172381
v -0.671666 0.360000 -0.589167
v -0.068334 0.360000 -0.890833
v -0.199244 0.141318 -0.931764
v -0.344761 -0.000000 0.172381
v -0.068778 -0.353444 -0.137557
v 0.195149 -0.249923 -0.219159
v -0.671666 0.360000 -0.589167
v -0.199244 0.141318 -0.931764
v -0.430181 0.050736 -0.860362
v -0.344761 -0.000000 0.172381
v -0.292417 -0.249923 0.024624
v -0.068778 -0.353444 -0.137557
v -0.671666 0.360000 -0.589167
v -0.430181 0.050736 -0.860362
v -0.625864 0.141318 -0.718454
v 0.000000 0.431709 -0.180000
v -0.173096 0.397354 -0.180000
v -0.122397 0.397354 -0.094096
v 0.000000 0.431709 -0.180000
v -0.122397 0.397354 -0.094096
v 0.000000 0.397354 -0.058512
v 0.000000 0.431709 -0.180000
v 0.000000 0.397354 -0.058512
v 0.122397 0.397354 -0.094096
v 0.000000 0.431709 -0.180000
v 0.122397 0.397354 -0.094096
v 0.173096 0.397354 -0.180000
v 0.000000 0.431709 -0.180000
v 0.173096 0.397354 -0.180000
v 0.122397 0.397354 -0.265905
v 0.000000 0.431709 -0.180000
v 0.122397 0.397354 -0.265905
v 0.000000 0.397354 -0.301487
v 0.000000 0.431709 -0.180000
v 0.000000 0.397354 -0.301487
v -0.122397 0.397354 -0.265905
v 0.000000 0.431709 -0.180000
v -0.122397 0.397354 -0.265905
v -0.173096 0.397354 -0.180000
v -0.122397 0.397354 -0.094096
v -0.173096 0.397354 -0.180000
v -0.220552 0.301094 -0.025205
v -0.173096 0.397354 -0.180000
v -0.311908 0.301094 -0.180000
v -0.220552 0.301094 -0.025205
v 0.000000 0.397354 -0.058512
v -0.122397 0.397354 -0.094096
v 0.000000 0.301094 0.038913
v -0.122397 0.397354 -0.094096
v -0.220552 0.301094 -0.025205
v 0.000000 0.301094 0.038913
v 0.122397 0.397354 -0.094096
v 0.000000 0.397354 -0.058512
v 0.220552 0.301094 -0.025205
v 0.000000 0.397354 -0.058512
v 0.000000 0.301094 0.038913
v 0.220552 0.301094 -0.025205
v 0.173096 0.397354 -0.180000
v 0.122397 0.397354 -0.094096
v 0.311908 0.301094 -0.180000
v 0.122397 0.397354 -0.094096
v 0.220552 0.301094 -0.025205
v 0.311908 0.301094 -0.180000
v 0.122397 0.397354 -0.265905
v 0.173096 0.397354 -0.180000
v 0.220552 0.301094 -0.334795
v 0.173096 0.397354 -0.180000
v 0.311908 0.301094 -0.180000
v 0.220552 0.301094 -0.334795
v 0.000000 0.397354 -0.301487
v 0.122397 0.397354 -0.265905
v 0.000000 0.301094 -0.398913
v 0.122397 0.397354 -0.265905
v 0.220552 0.301094 -0.334795
v 0.000000 0.301094 -0.398913
v -0.122397 0.397354 -0.265905
v 0.000000 0.397354 -0.301487
v -0.220552 0.301094 -0.334795
v 0.000000 0.397354 -0.301487
v 0.000000 0.301094 -0.398913
v -0.220552 0.301094 -0.334795
v -0.173096 0.397354 -0.180000
v -0.122397 0.397354 -0.265905
v -0.311908 0.301094 -0.180000
v -0.122397 0.397354 -0.265905
v -0.220552 0.301094 -0.334795
v -0.311908 0.301094 -0.180000
v -0.220552 0.301094 -0.025205
v -0.311908 0.301094 -0.180000
v -0.275024 0.161995 0.013026
v -0.311908 0.301094 -0.180000
v -0.388943 0.161995 -0.180000
v -0.275024 0.161995 0.013026
v 0.000000 0.301094 0.038913
v -0.220552 0.301094 -0.025205
v 0.000000 0.161995 0.092980
v -0.220552 0.301094 -0.025205
v -0.275024 0.161995 0.013026
v 0.000000 0.161995 0.092980
v 0.220552 0.301094 -0.025205
v 0.000000 0.301094 0.038913
v 0.275024 0.161995 0.013026
v 0.000000 0.301094 0.038913
v 0.000000 0.161995 0.092980
v 0.275024 0.161995 0.013026
v 0.311908 0.301094 -0.180000
v 0.220552 0.301094 -0.025205
v 0.388943 0.161995 -0.180000
v 0.220552 0.301094 -0.025205
v 0.275024 0.161995 0.013026
v 0.388943 0.161995 -0.180000
v 0.220552 0.301094 -0.334795
v 0.311908 0.301094 -0.180000
v 0.275024 0.161995 -0.373026
v 0.311908 0.301094 -0.180000
v 0.388943 0.161995 -0.180000
v 0.275024 0.161995 -0.373026
v 0.000000 0.301094 -0.398913
v 0.220552 0.301094 -0.334795
v 0.000000 0.161995 -0.452980
v 0.220552 0.301094 -0.334795
v 0.275024 0.161995 -0.373026
v 0.000000 0.161995 -0.452980
v -0.220552 0.301094 -0.334795
v 0.000000 0.301094 -0.398913
v -0.275024 0.161995 -0.373026
v 0.000000 0.301094 -0.398913
v 0.000000 0.161995 -0.452980
v -0.275024 0.161995 -0.373026
v -0.311908 0.301094 -0.180000
v -0.220552 0.301094 -0.334795
v -0.388943 0.161995 -0.180000
v -0.220552 0.301094 -0.334795
v -0.275024 0.161995 -0.373026
v -0.388943 0.161995 -0.180000
v -0.275024 0.161995 0.013026
v -0.388943 0.161995 -0.180000
v -0.275024 0.007605 0.013026
v -0.388943 0.161995 -0.180000
v -0.388943 0.007605 -0.180000
v -0.275024 0.007605 0.013026
v 0.000000 0.161995 0.092980
v -0.275024 0.161995 0.013026
v 0.000000 0.007605 0.092980
v -0.275024 0.161995 0.013026
v -0.275024 0.007605 0.013026
v 0.000000 0.007605 0.092980
v 0.275024 0.161995 0.013026
v 0.000000 0.161995 0.092980
v 0.275024 0.007605 0.013026
v 0.000000 0.161995 0.092980
v 0.000000 0.007605 0.092980
v 0.275024 0.007605 0.013026
v 0.388943 0.161995 -0.180000
v 0.275024 0.161995 0.013026
v 0.388943 0.007605 -0.180000
v 0.275024 0.161995 0.013026
v 0.275024 0.007605 0.013026
v 0.388943 0.007605 -0.180000
v 0.275024 0.161995 -0.373026
v 0.388943 0.161995 -0.180000
v 0.275024 0.007605 -0.373026
v 0.388943 0.161995 -0.180000
v 0.388943 0.007605 -0.180000
v 0.275024 0.007605 -0.373026
v 0.000000 0.161995 -0.452980
v 0.275024 0.161995 -0.373026
v 0.000000 0.007605 -0.452980
v 0.275024 0.161995 -0.373026
v 0.275024 0.007605 -0.373026
v 0.000000 0.007605 -0.452980
v -0.275024 0.161995 -0.373026
v 0.000000 0.161995 -0.452980
v -0.275024 0.007605 -0.373026
v 0.000000 0.161995 -0.452980
v 0.000000 0.007605 -0.452980
v -0.275024 0.007605 -0.373026
v -0.388943 0.161995 -0.180000
v -0.275024 0.161995 -0.373026
v -0.388943 0.007605 -0.180000
v -0.275024 0.161995 -0.373026
v -0.275024 0.007605 -0.373026
v -0.388943 0.007605 -0.180000
v -0.275024 0.007605 0.013026
v -0.388943 0.007605 -0.180000
v -0.220552 -0.131494 -0.025205
v -0.388943 0.007605 -0.180000
v -0.311908 -0.131494 -0.180000
v -0.220552 -0.131494 -0.025205
v 0.000000 0.007605 0.092980
v -0.275024 0.007605 0.013026
v 0.000000 -0.131494 0.038913
v -0.275024 0.007605 0.013026
v -0.220552 -0.131494 -0.025205
v 0.000000 -0.131494 0.038913
v 0.275024 0.007605 0.013026
v 0.000000 0.007605 0.092980
v 0.220552 -0.131494 -0.025205
v 0.000000 0.007605 0.092980
v 0.000000 -0.131494 0.038913
v 0.220552 -0.131494 -0.025205
v 0.388943 0.007605 -0.180000
v 0.275024 0.007605 0.013026
v 0.311908 -0.131494 -0.180000
v 0.275024 0.007605 0.013026
v 0.220552 -0.131494 -0.025205
v 0.311908 -0.131494 -0.180000
v 0.275024 0.007605 -0.373026
v 0.388943 0.007605 -0.180000
v 0.220552 -0.131494 -0.334795
v 0.388943 0.007605 -0.180000
v 0.311908 -0.131494 -0.180000
v 0.220552 -0.131494 -0.334795
v 0.000000 0.007605 -0.452980
v 0.275024 0.007605 -0.373026
v 0.000000 -0.131494 -0.398913
v 0.275024 0.007605 -0.373026
v 0.220552 -0.131494 -0.334795
v 0.000000 -0.131494 -0.398913
v -0.275024 0.007605 -0.373026
v 0.000000 0.007605 -0.452980
v -0.220552 -0.131494 -0.334795
v 0.000000 0.007605 -0.452980
v 0.000000 -0.131494 -0.398913
v -0.220552 -0.131494 -0.334795
v -0.388943 0.007605 -0.180000
v -0.275024 0.007605 -0.373026
v -0.311908 -0.131494 -0.180000
v -0.275024 0.007605 -0.373026
v -0.220552 -0.131494 -0.334795
v -0.311908 -0.131494 -0.180000
v -0.220552 -0.131494 -0.025205
v -0.311908 -0.131494 -0.180000
v -0.122397 -0.227754 -0.094096
v -0.311908 -0.131494 -0.180000
v -0.173096 -0.227754 -0.180000
v -0.122397 -0.227754 -0.094096
v 0.000000 -0.131494 0.038913
v -0.220552 -0.131494 -0.025205
v 0.000000 -0.227754 -0.058512
v -0.220552 -0.131494 -0.025205
v -0.122397 -0.227754 -0.094096
v 0.000000 -0.227754 -0.058512
v 0.220552 -0.131494 -0.025205
v 0.000000 -0.131494 0.038913
v 0.122397 -0.227754 -0.094096
v 0.000000 -0.131494 0.038913
v 0.000000 -0.227754 -0.058512
v 0.122397 -0.227754 -0.094096
v 0.311908 -0.131494 -0.180000
v 0.220552 -0.131494 -0.025205
v 0.173096 -0.227754 -0.180000
v 0.220552 -0.131494 -0.025205
v 0.122397 -0.227754 -0.094096
v 0.173096 -0.227754 -0.180000
v 0.220552 -0.131494 -0.334795
v 0.311908 -0.131494 -0.180000
v 0.122397 -0.227754 -0.265905
v 0.311908 -0.131494 -0.180000
v 0.173096 -0.227754 -0.180000
v 0.122397 -0.227754 -0.265905
v 0.000000 -0.131494 -0.398913
v 0.220552 -0.131494 -0.334795
v 0.000000 -0.227754 -0.301487
v 0.220552 -0.131494 -0.334795
v 0.122397 -0.227754 -0.265905
v 0.000000 -0.227754 -0.301487
v -0.220552 -0.131494 -0.334795
v 0.000000 -0.131494 -0.398913
v -0.122397 -0.227754 -0.265905
v 0.000000 -0.131494 -0.398913
v 0.000000 -0.227754 -0.301487
v -0.122397 -0.227754 -0.265905
v -0.311908 -0.131494 -0.180000
v -0.220552 -0.131494 -0.334795
v -0.173096 -0.227754 -0.180000
v -0.220552 -0.131494 -0.334795
v -0.122397 -0.227754 -0.265905
v -0.173096 -0.227754 -0.180000
v -0.122397 -0.227754 -0.094096
v -0.173096 -0.227754 -0.180000
v 0.000000 -0.262109 -0.180000
v 0.000000 -0.227754 -0.058512
v -0.122397 -0.227754 -0.094096
v 0.000000 -0.262109 -0.180000
v 0.122397 -0.227754 -0.094096
v 0.000000 -0.227754 -0.058512
v 0.000000 -0.262109 -0.180000
v 0.173096 -0.227754 -0.180000
v 0.122397 -0.227754 -0.094096
v 0.000000 -0.262109 -0.180000
v 0.122397 -0.227754 -0.265905
v 0.173096 -0.227754 -0.180000
v 0.000000 -0.262109 -0.180000
v 0.000000 -0.227754 -0.301487
v 0.122397 -0.227754 -0.265905
v 0.000000 -0.262109 -0.180000
v -0.122397 -0.227754 -0.265905
v 0.000000 -0.227754 -0.301487
v 0.000000 -0.262109 -0.180000
v -0.173096 -0.227754 -0.180000
v -0.122397 -0.227754 -0.265905
v 0.000000 -0.262109 -0.180000
v -0.150327 0.289091 -0.220000
v -0.046454 0.374877 -0.105627
v -0.072157 0.592933 -0.447900
v -0.046454 0.374877 -0.105627
v -0.022298 0.634110 -0.393001
v -0.072157 0.592933 -0.447900
v -0.046454 0.374877 -0.105627
v 0.121617 0.342110 -0.149314
v -0.022298 0.634110 -0.393001
v 0.121617 0.342110 -0.149314
v 0.058376 0.618382 -0.413971
v -0.022298 0.634110 -0.393001
v 0.121617 0.342110 -0.149314
v 0.121617 0.236072 -0.290686
v 0.058376 0.618382 -0.413971
v 0.121617 0.236072 -0.290686
v 0.058376 0.567484 -0.481829
v 0.058376 0.618382 -0.413971
v 0.121617 0.236072 -0.290686
v -0.046454 0.203305 -0.334372
v 0.058376 0.567484 -0.481829
v -0.046454 0.203305 -0.334372
v -0.022298 0.551755 -0.502799
v 0.058376 0.567484 -0.481829
v -0.046454 0.203305 -0.334372
v -0.150327 0.289091 -0.220000
v -0.022298 0.551755 -0.502799
v -0.150327 0.289091 -0.220000
v -0.072157 0.592933 -0.447900
v -0.022298 0.551755 -0.502799
v -0.072157 0.592933 -0.447900
v -0.022298 0.634110 -0.393001
v -0.009000 0.862378 -0.650000
v -0.022298 0.634110 -0.393001
v -0.002781 0.867514 -0.643153
v -0.009000 0.862378 -0.650000
v -0.022298 0.634110 -0.393001
v 0.058376 0.618382 -0.413971
v -0.002781 0.867514 -0.643153
v 0.058376 0.618382 -0.413971
v 0.007281 0.865552 -0.645768
v -0.002781 0.867514 -0.643153
v 0.058376 0.618382 -0.413971
v 0.058376 0.567484 -0.481829
v 0.007281 0.865552 -0.645768
v 0.058376 0.567484 -0.481829
v 0.007281 0.859203 -0.654232
v 0.007281 0.865552 -0.645768
v 0.058376 0.567484 -0.481829
v -0.022298 0.551755 -0.502799
v 0.007281 0.859203 -0.654232
v -0.022298 0.551755 -0.502799
v -0.002781 0.857242 -0.656847
v 0.007281 0.859203 -0.654232
v -0.022298 0.551755 -0.502799
v -0.072157 0.592933 -0.447900
v -0.002781 0.857242 -0.656847
v -0.072157 0.592933 -0.447900
v -0.009000 0.862378 -0.650000
v -0.002781 0.857242 -0.656847
v -0.150327 0.289091 -0.220000
v 0.121617 0.342110 -0.149314
v -0.046454 0.374877 -0.105627
v -0.009000 0.862378 -0.650000
v -0.002781 0.867514 -0.643153
v 0.007281 0.865552 -0.645768
v -0.150327 0.289091 -0.220000
v 0.121617 0.236072 -0.290686
v 0.121617 0.342110 -0.149314
v -0.009000 0.862378 -0.650000
v 0.007281 0.865552 -0.645768
v 0.007281 0.859203 -0.654232
v -0.150327 0.289091 -0.220000
v -0.046454 0.203305 -0.334372
v 0.121617 0.236072 -0.290686
v -0.009000 0.862378 -0.650000
v 0.007281 0.859203 -0.654232
v -0.002781 0.857242 -0.656847
vt 0.120000 0.880000
vt 0.213333 0.880000
vt 0.166667 0.786667
vt 0.120000 0.880000
vt 0.213333 0.880000
vt 0.166667 0.786667
vt 0.120000 0.880000
vt 0.213333 0.880000
vt 0.166667 0.786667
vt 0.120000 0.880000
vt 0.213333 0.880000
vt 0.166667 0.786667
vt 0.120000 0.880000
vt 0.213333 0.880000
vt 0.166667 0.786667
vt 0.120000 0.880000
vt 0.213333 0.880000
vt 0.166667 0.786667
vt 0.120000 0.880000
vt 0.213333 0.880000
vt 0.166667 0.786667
vt 0.120000 0.880000
vt 0.213333 0.880000
vt 0.166667 0.786667
vt 0.120000 0.880000
vt 0.213333 0.880000
vt 0.166667 0.786667
vt 0.120000 0.880000
vt 0.213333 0.880000
vt 0.166667 0.786667
vt 0.120000 0.880000
vt 0.213333 0.880000
vt 0.166667 0.786667
vt 0.120000 0.880000
vt 0.213333 0.880000
vt 0.166667 0.786667
vt 0.120000 0.880000
vt 0.213333 0.880000
vt 0.166667 0.786667
vt 0.120000 0.880000
vt 0.213333 0.880000
vt 0.166667 0.786667
vt 0.120000 0.880000
vt 0.213333 0.880000
vt 0.166667 0.786667
vt 0.120000 0.880000
vt 0.213333 0.880000
vt 0.166667 0.786667
vt 0.120000 0.880000
vt 0.213333 0.880000
vt 0.166667 0.786667
vt 0.120000 0.880000
vt 0.213333 0.880000
vt 0.166667 0.786667
vt 0.120000 0.880000
vt 0.213333 0.880000
vt 0.166667 0.786667
vt 0.120000 0.880000
vt 0.213333 0.880000
vt 0.166667 0.786667
vt 0.120000 0.880000
vt 0.213333 0.880000
vt 0.166667 0.786667
vt 0.120000 0.880000
vt 0.213333 0.880000
vt 0.166667 0.786667
vt 0.120000 0.880000
vt 0.213333 0.880000
vt 0.166667 0.786667
vt 0.120000 0.880000
vt 0.213333 0.880000
vt 0.166667 0.786667
vt 0.120000 0.880000
vt 0.213333 0.880000
vt 0.166667 0.786667
vt 0.120000 0.880000
vt 0.213333 0.880000
vt 0.166667 0.786667
vt 0.120000 0.880000
vt 0.213333 0.880000
vt 0.166667 0.786667
vt 0.120000 0.880000
vt 0.213333 0.880000
vt 0.166667 0.786667
vt 0.120000 0.880000
vt 0.213333 0.880000
vt 0.166667 0.786667
vt 0.120000 0.880000
vt 0.213333 0.880000
vt 0.166667 0.786667
vt 0.120000 0.880000
vt 0.213333 0.880000
vt 0.166667 0.786667
vt 0.120000 0.880000
vt 0.213333 0.880000
vt 0.166667 0.786667
vt 0.120000 0.880000
vt 0.213333 0.880000
vt 0.166667 0.786667
vt 0.120000 0.880000
vt 0.213333 0.880000
vt 0.166667 0.786667
vt 0.120000 0.880000
vt 0.213333 0.880000
vt 0.166667 0.786667
vt 0.120000 0.880000
vt 0.213333 0.880000
vt 0.166667 0.786667
vt 0.120000 0.880000
vt 0.213333 0.880000
vt 0.166667 0.786667
vt 0.120000 0.880000
vt 0.213333 0.880000
vt 0.166667 0.786667
vt 0.120000 0.880000
vt 0.213333 0.880000
vt 0.166667 0.786667
vt 0.120000 0.880000
vt 0.213333 0.880000
vt 0.166667 0.786667
vt 0.120000 0.880000
vt 0.213333 0.880000
vt 0.166667 0.786667
vt 0.120000 0.880000
vt 0.213333 0.880000
vt 0.166667 0.786667
vt 0.120000 0.880000
vt 0.213333 0.880000
vt 0.166667 0.786667
vt 0.120000 0.880000
vt 0.213333 0.880000
vt 0.166667 0.786667
vt 0.453333 0.880000
vt 0.546667 0.880000
vt 0.500000 0.786667
vt 0.453333 0.880000
vt 0.546667 0.880000
vt 0.500000 0.786667
vt 0.453333 0.880000
vt 0.546667 0.880000
vt 0.500000 0.786667
vt 0.453333 0.880000
vt 0.546667 0.880000
vt 0.500000 0.786667
vt 0.453333 0.880000
vt 0.546667 0.880000
vt 0.500000 0.786667
vt 0.453333 0.880000
vt 0.546667 0.880000
vt 0.500000 0.786667
vt 0.453333 0.880000
vt 0.546667 0.880000
vt 0.500000 0.786667
vt 0.453333 0.880000
vt 0.546667 0.880000
vt 0.500000 0.786667
vt 0.453333 0.880000
vt 0.546667 0.880000
vt 0.500000 0.786667
vt 0.453333 0.880000
vt 0.546667 0.880000
vt 0.500000 0.786667
vt 0.453333 0.880000
vt 0.546667 0.880000
vt 0.500000 0.786667
vt 0.453333 0.880000
vt 0.546667 0.880000
vt 0.500000 0.786667
vt 0.453333 0.880000
vt 0.546667 0.880000
vt 0.500000 0.786667
vt 0.453333 0.880000
vt 0.546667 0.880000
vt 0.500000 0.786667
vt 0.453333 0.880000
vt 0.546667 0.880000
vt 0.500000 0.786667
vt 0.453333 0.880000
vt 0.546667 0.880000
vt 0.500000 0.786667
vt 0.453333 0.880000
vt 0.546667 0.880000
vt 0.500000 0.786667
vt 0.453333 0.880000
vt 0.546667 0.880000
vt 0.500000 0.786667
vt 0.453333 0.880000
vt 0.546667 0.880000
vt 0.500000 0.786667
vt 0.453333 0.880000
vt 0.546667 0.880000
vt 0.500000 0.786667
vt 0.453333 0.880000
vt 0.546667 0.880000
vt 0.500000 0.786667
vt 0.453333 0.880000
vt 0.546667 0.880000
vt 0.500000 0.786667
vt 0.453333 0.880000
vt 0.546667 0.880000
vt 0.500000 0.786667
vt 0.453333 0.880000
vt 0.546667 0.880000
vt 0.500000 0.786667
vt 0.453333 0.880000
vt 0.546667 0.880000
vt 0.500000 0.786667
vt 0.453333 0.880000
vt 0.546667 0.880000
vt 0.500000 0.786667
vt 0.453333 0.880000
vt 0.546667 0.880000
vt 0.500000 0.786667
vt 0.453333 0.880000
vt 0.546667 0.880000
vt 0.500000 0.786667
vt 0.453333 0.880000
vt 0.546667 0.880000
vt 0.500000 0.786667
vt 0.453333 0.880000
vt 0.546667 0.880000
vt 0.500000 0.786667
vt 0.453333 0.880000
vt 0.546667 0.880000
vt 0.500000 0.786667
vt 0.453333 0.880000
vt 0.546667 0.880000
vt 0.500000 0.786667
vt 0.453333 0.880000
vt 0.546667 0.880000
vt 0.500000 0.786667
vt 0.453333 0.880000
vt 0.546667 0.880000
vt 0.500000 0.786667
vt 0.453333 0.880000
vt 0.546667 0.880000
vt 0.500000 0.786667
vt 0.453333 0.880000
vt 0.546667 0.880000
vt 0.500000 0.786667
vt 0.453333 0.880000
vt 0.546667 0.880000
vt 0.500000 0.786667
vt 0.453333 0.880000
vt 0.546667 0.880000
vt 0.500000 0.786667
vt 0.453333 0.880000
vt 0.546667 0.880000
vt 0.500000 0.786667
vt 0.453333 0.880000
vt 0.546667 0.880000
vt 0.500000 0.786667
vt 0.453333 0.880000
vt 0.546667 0.880000
vt 0.500000 0.786667
vt 0.453333 0.880000
vt 0.546667 0.880000
vt 0.500000 0.786667
vt 0.453333 0.880000
vt 0.546667 0.880000
vt 0.500000 0.786667
vt 0.453333 0.880000
vt 0.546667 0.880000
vt 0.500000 0.786667
vt 0.453333 0.880000
vt 0.546667 0.880000
vt 0.500000 0.786667
vt 0.453333 0.880000
vt 0.546667 0.880000
vt 0.500000 0.786667
vt 0.453333 0.880000
vt 0.546667 0.880000
vt 0.500000 0.786667
vt 0.453333 0.880000
vt 0.546667 0.880000
vt 0.500000 0.786667
vt 0.453333 0.880000
vt 0.546667 0.880000
vt 0.500000 0.786667
vt 0.453333 0.880000
vt 0.546667 0.880000
vt 0.500000 0.786667
vt 0.453333 0.880000
vt 0.546667 0.880000
vt 0.500000 0.786667
vt 0.453333 0.880000
vt 0.546667 0.880000
vt 0.500000 0.786667
vt 0.453333 0.880000
vt 0.546667 0.880000
vt 0.500000 0.786667
vt 0.453333 0.880000
vt 0.546667 0.880000
vt 0.500000 0.786667
vt 0.453333 0.880000
vt 0.546667 0.880000
vt 0.500000 0.786667
vt 0.453333 0.880000
vt 0.546667 0.880000
vt 0.500000 0.786667
vt 0.453333 0.880000
vt 0.546667 0.880000
vt 0.500000 0.786667
vt 0.453333 0.880000
vt 0.546667 0.880000
vt 0.500000 0.786667
vt 0.453333 0.880000
vt 0.546667 0.880000
vt 0.500000 0.786667
vt 0.453333 0.880000
vt 0.546667 0.880000
vt 0.500000 0.786667
vt 0.453333 0.880000
vt 0.546667 0.880000
vt 0.500000 0.786667
vt 0.453333 0.880000
vt 0.546667 0.880000
vt 0.500000 0.786667
vt 0.453333 0.880000
vt 0.546667 0.880000
vt 0.500000 0.786667
vt 0.453333 0.880000
vt 0.546667 0.880000
vt 0.500000 0.786667
vt 0.453333 0.880000
vt 0.546667 0.880000
vt 0.500000 0.786667
vt 0.453333 0.880000
vt 0.546667 0.880000
vt 0.500000 0.786667
vt 0.453333 0.880000
vt 0.546667 0.880000
vt 0.500000 0.786667
vt 0.453333 0.880000
vt 0.546667 0.880000
vt 0.500000 0.786667
vt 0.453333 0.880000
vt 0.546667 0.880000
vt 0.500000 0.786667
vt 0.453333 0.880000
vt 0.546667 0.880000
vt 0.500000 0.786667
vt 0.453333 0.880000
vt 0.546667 0.880000
vt 0.500000 0.786667
vt 0.453333 0.880000
vt 0.546667 0.880000
vt 0.500000 0.786667
vt 0.453333 0.880000
vt 0.546667 0.880000
vt 0.500000 0.786667
vt 0.453333 0.880000
vt 0.546667 0.880000
vt 0.500000 0.786667
vt 0.453333 0.880000
vt 0.546667 0.880000
vt 0.500000 0.786667
vt 0.453333 0.880000
vt 0.546667 0.880000
vt 0.500000 0.786667
vt 0.453333 0.880000
vt 0.546667 0.880000
vt 0.500000 0.786667
vt 0.453333 0.880000
vt 0.546667 0.880000
vt 0.500000 0.786667
vt 0.453333 0.880000
vt 0.546667 0.880000
vt 0.500000 0.786667
vt 0.453333 0.880000
vt 0.546667 0.880000
vt 0.500000 0.786667
vt 0.453333 0.880000
vt 0.546667 0.880000
vt 0.500000 0.786667
vt 0.453333 0.880000
vt 0.546667 0.880000
vt 0.500000 0.786667
vt 0.453333 0.880000
vt 0.546667 0.880000
vt 0.500000 0.786667
vt 0.453333 0.880000
vt 0.546667 0.880000
vt 0.500000 0.786667
vt 0.453333 0.880000
vt 0.546667 0.880000
vt 0.500000 0.786667
vt 0.453333 0.880000
vt 0.546667 0.880000
vt 0.500000 0.786667
vt 0.453333 0.880000
vt 0.546667 0.880000
vt 0.500000 0.786667
vt 0.453333 0.880000
vt 0.546667 0.880000
vt 0.500000 0.786667
vt 0.453333 0.880000
vt 0.546667 0.880000
vt 0.500000 0.786667
vt 0.453333 0.880000
vt 0.546667 0.880000
vt 0.500000 0.786667
vt 0.453333 0.880000
vt 0.546667 0.880000
vt 0.500000 0.786667
vt 0.453333 0.880000
vt 0.546667 0.880000
vt 0.500000 0.786667
vt 0.453333 0.880000
vt 0.546667 0.880000
vt 0.500000 0.786667
vt 0.453333 0.880000
vt 0.546667 0.880000
vt 0.500000 0.786667
vt 0.453333 0.880000
vt 0.546667 0.880000
vt 0.500000 0.786667
vt 0.453333 0.880000
vt 0.546667 0.880000
vt 0.500000 0.786667
vt 0.786667 0.880000
vt 0.880000 0.880000
vt 0.833333 0.786667
vt 0.786667 0.880000
vt 0.880000 0.880000
vt 0.833333 0.786667
vt 0.786667 0.880000
vt 0.880000 0.880000
vt 0.833333 0.786667
vt 0.786667 0.880000
vt 0.880000 0.880000
vt 0.833333 0.786667
vt 0.786667 0.880000
vt 0.880000 0.880000
vt 0.833333 0.786667
vt 0.786667 0.880000
vt 0.880000 0.880000
vt 0.833333 0.786667
vt 0.786667 0.880000
vt 0.880000 0.880000
vt 0.833333 0.786667
vt 0.786667 0.880000
vt 0.880000 0.880000
vt 0.833333 0.786667
vt 0.786667 0.880000
vt 0.880000 0.880000
vt 0.833333 0.786667
vt 0.786667 0.880000
vt 0.880000 0.880000
vt 0.833333 0.786667
vt 0.786667 0.880000
vt 0.880000 0.880000
vt 0.833333 0.786667
vt 0.786667 0.880000
vt 0.880000 0.880000
vt 0.833333 0.786667
vt 0.786667 0.880000
vt 0.880000 0.880000
vt 0.833333 0.786667
vt 0.786667 0.880000
vt 0.880000 0.880000
vt 0.833333 0.786667
vt 0.786667 0.880000
vt 0.880000 0.880000
vt 0.833333 0.786667
vt 0.786667 0.880000
vt 0.880000 0.880000
vt 0.833333 0.786667
vt 0.786667 0.880000
vt 0.880000 0.880000
vt 0.833333 0.786667
vt 0.786667 0.880000
vt 0.880000 0.880000
vt 0.833333 0.786667
vt 0.786667 0.880000
vt 0.880000 0.880000
vt 0.833333 0.786667
vt 0.786667 0.880000
vt 0.880000 0.880000
vt 0.833333 0.786667
vt 0.786667 0.880000
vt 0.880000 0.880000
vt 0.833333 0.786667
vt 0.786667 0.880000
vt 0.880000 0.880000
vt 0.833333 0.786667
vt 0.786667 0.880000
vt 0.880000 0.880000
vt 0.833333 0.786667
vt 0.786667 0.880000
vt 0.880000 0.880000
vt 0.833333 0.786667
vt 0.786667 0.880000
vt 0.880000 0.880000
vt 0.833333 0.786667
vt 0.786667 0.880000
vt 0.880000 0.880000
vt 0.833333 0.786667
vn 0.006944 -0.417904 0.908465
vn -0.506862 0.450267 0.735085
vn -0.912658 0.028065 0.407759
vn -0.506862 0.450267 0.735085
vn -0.520160 0.673326 0.525420
vn -0.912658 0.028065 0.407759
vn -0.506862 0.450267 0.735085
vn 0.255236 0.566938 0.783222
vn -0.520160 0.673326 0.525420
vn 0.255236 0.566938 0.783222
vn 0.164782 0.936089 0.310780
vn -0.520160 0.673326 0.525420
vn 0.255236 0.566938 0.783222
vn 0.769774 0.237294 0.592570
vn 0.164782 0.936089 0.310780
vn 0.769774 0.237294 0.592570
vn 0.740938 0.662432 -0.110429
vn 0.164782 0.936089 0.310780
vn 0.769774 0.237294 0.592570
vn 0.905076 -0.216806 0.365832
vn 0.740938 0.662432 -0.110429
vn 0.905076 -0.216806 0.365832
vn 0.870804 0.012659 -0.491468
vn 0.740938 0.662432 -0.110429
vn 0.905076 -0.216806 0.365832
vn 0.720963 -0.670411 0.175389
vn 0.870804 0.012659 -0.491468
vn 0.720963 -0.670411 0.175389
vn 0.478305 -0.632602 -0.609129
vn 0.870804 0.012659 -0.491468
vn 0.720963 -0.670411 0.175389
vn 0.171915 -0.982544 0.071080
vn 0.478305 -0.632602 -0.609129
vn 0.171915 -0.982544 0.071080
vn -0.206637 -0.895366 -0.394489
vn 0.478305 -0.632602 -0.609129
vn 0.171915 -0.982544 0.071080
vn -0.574259 -0.803075 0.159049
vn -0.206637 -0.895366 -0.394489
vn -0.574259 -0.803075 0.159049
vn -0.782793 -0.621708 0.026720
vn -0.206637 -0.895366 -0.394489
vn -0.574259 -0.803075 0.159049
vn 0.006944 -0.417904 0.908465
vn -0.782793 -0.621708 0.026720
vn 0.006944 -0.417904 0.908465
vn -0.912658 0.028065 0.407759
vn -0.782793 -0.621708 0.026720
vn -0.912658 0.028065 0.407759
vn -0.520160 0.673326 0.525420
vn -0.749793 0.420515 -0.510859
vn -0.520160 0.673326 0.525420
vn -0.483762 0.824399 0.293838
vn -0.749793 0.420515 -0.510859
vn -0.520160 0.673326 0.525420
vn 0.164782 0.936089 0.310780
vn -0.483762 0.824399 0.293838
vn 0.164782 0.936089 0.310780
vn 0.050676 0.979825 -0.193328
vn -0.483762 0.824399 0.293838
vn 0.164782 0.936089 0.310780
vn 0.740938 0.662432 -0.110429
vn 0.050676 0.979825 -0.193328
vn 0.740938 0.662432 -0.110429
vn 0.319265 0.666330 -0.673851
vn 0.050676 0.979825 -0.193328
vn 0.740938 0.662432 -0.110429
vn 0.870804 0.012659 -0.491468
vn 0.319265 0.666330 -0.673851
vn 0.870804 0.012659 -0.491468
vn 0.280085 0.196250 -0.939701
vn 0.319265 0.666330 -0.673851
vn 0.870804 0.012659 -0.491468
vn 0.478305 -0.632602 -0.609129
vn 0.280085 0.196250 -0.939701
vn 0.478305 -0.632602 -0.609129
vn -0.004337 -0.263829 -0.964560
vn 0.280085 0.196250 -0.939701
vn 0.478305 -0.632602 -0.609129
vn -0.206637 -0.895366 -0.394489
vn -0.004337 -0.263829 -0.964560
vn -0.206637 -0.895366 -0.394489
vn -0.484304 -0.557917 -0.673928
vn -0.004337 -0.263829 -0.964560
vn -0.206637 -0.895366 -0.394489
vn -0.782793 -0.621708 0.026720
vn -0.484304 -0.557917 -0.673928
vn -0.782793 -0.621708 0.026720
vn -0.910779 -0.403016 -0.089774
vn -0.484304 -0.557917 -0.673928
vn -0.782793 -0.621708 0.026720
vn -0.912658 0.028065 0.407759
vn -0.910779 -0.403016 -0.089774
vn -0.912658 0.028065 0.407759
vn -0.749793 0.420515 -0.510859
vn -0.910779 -0.403016 -0.089774
vn 0.006944 -0.417904 0.908465
vn 0.255236 0.566938 0.783222
vn -0.506862 0.450267 0.735085
vn -0.749793 0.420515 -0.510859
vn -0.483762 0.824399 0.293838
vn 0.050676 0.979825 -0.193328
vn 0.006944 -0.417904 0.908465
vn 0.769774 0.237294 0.592570
vn 0.255236 0.566938 0.783222
vn -0.749793 0.420515 -0.510859
vn 0.050676 0.979825 -0.193328
vn 0.319265 0.666330 -0.673851
vn 0.006944 -0.417904 0.908465
vn 0.905076 -0.216806 0.365832
vn 0.769774 0.237294 0.592570
vn -0.749793 0.420515 -0.510859
vn 0.319265 0.666330 -0.673851
vn 0.280085 0.196250 -0.939701
vn 0.006944 -0.417904 0.908465
vn 0.720963 -0.670411 0.175389
vn 0.905076 -0.216806 0.365832
vn -0.749793 0.420515 -0.510859
vn 0.280085 0.196250 -0.939701
vn -0.004337 -0.263829 -0.964560
vn 0.006944 -0.417904 0.908465
vn 0.171915 -0.982544 0.071080
vn 0.720963 -0.670411 0.175389
vn -0.749793 0.420515 -0.510859
vn -0.004337 -0.263829 -0.964560
vn -0.484304 -0.557917 -0.673928
vn 0.006944 -0.417904 0.908465
vn -0.574259 -0.803075 0.159049
vn 0.171915 -0.982544 0.071080
vn -0.749793 0.420515 -0.510859
vn -0.484304 -0.557917 -0.673928
vn -0.910779 -0.403016 -0.089774
vn 0.000000 1.000000 0.000000
vn -0.386260 0.922390 0.000000
vn -0.263202 0.888871 0.375012
vn 0.000000 1.000000 0.000000
vn -0.263202 0.888871 0.375012
vn -0.000000 0.858759 0.512380
vn 0.000000 1.000000 0.000000
vn -0.000000 0.858759 0.512380
vn 0.263202 0.888871 0.375012
vn 0.000000 1.000000 0.000000
vn 0.263202 0.888871 0.375012
vn 0.386260 0.922390 0.000000
vn 0.000000 1.000000 0.000000
vn 0.386260 0.922390 0.000000
vn 0.263202 0.888871 -0.375012
vn 0.000000 1.000000 0.000000
vn 0.263202 0.888871 -0.375012
vn 0.000000 0.858759 -0.512380
vn 0.000000 1.000000 0.000000
vn 0.000000 0.858759 -0.512380
vn -0.263202 0.888871 -0.375012
vn 0.000000 1.000000 0.000000
vn -0.263202 0.888871 -0.375012
vn -0.386260 0.922390 -0.000000
vn -0.263202 0.888871 0.375012
vn -0.386260 0.922390 0.000000
vn -0.460668 0.597472 0.656363
vn -0.386260 0.922390 0.000000
vn -0.736997 0.675896 0.000000
vn -0.460668 0.597472 0.656363
vn -0.000000 0.858759 0.512380
vn -0.263202 0.888871 0.375012
vn -0.000000 0.541237 0.840870
vn -0.263202 0.888871 0.375012
vn -0.460668 0.597472 0.656363
vn -0.000000 0.541237 0.840870
vn 0.263202 0.888871 0.375012
vn -0.000000 0.858759 0.512380
vn 0.460668 0.597472 0.656363
vn -0.000000 0.858759 0.512380
vn -0.000000 0.541237 0.840870
vn 0.460668 0.597472 0.656363
vn 0.386260 0.922390 0.000000
vn 0.263202 0.888871 0.375012
vn 0.736997 0.675896 0.000000
vn 0.263202 0.888871 0.375012
vn 0.460668 0.597472 0.656363
vn 0.736997 0.675896 0.000000
vn 0.263202 0.888871 -0.375012
vn 0.386260 0.922390 0.000000
vn 0.460668 0.597472 -0.656363
vn 0.386260 0.922390 0.000000
vn 0.736997 0.675896 0.000000
vn 0.460668 0.597472 -0.656363
vn 0.000000 0.858759 -0.512380
vn 0.263202 0.888871 -0.375012
vn 0.000000 0.541237 -0.840870
vn 0.263202 0.888871 -0.375012
vn 0.460668 0.597472 -0.656363
vn 0.000000 0.541237 -0.840870
vn -0.263202 0.888871 -0.375012
vn 0.000000 0.858759 -0.512380
vn -0.460668 0.597472 -0.656363
vn 0.000000 0.858759 -0.512380
vn 0.000000 0.541237 -0.840870
vn -0.460668 0.597472 -0.656363
vn -0.386260 0.922390 -0.000000
vn -0.263202 0.888871 -0.375012
vn -0.736997 0.675896 -0.000000
vn -0.263202 0.888871 -0.375012
vn -0.460668 0.597472 -0.656363
vn -0.736997 0.675896 -0.000000
vn -0.460668 0.597472 0.656363
vn -0.736997 0.675896 0.000000
vn -0.561846 0.208559 0.800520
vn -0.736997 0.675896 0.000000
vn -0.967236 0.253880 0.000000
vn -0.561846 0.208559 0.800520
vn -0.000000 0.541237 0.840870
vn -0.460668 0.597472 0.656363
vn -0.000000 0.181173 0.983451
vn -0.460668 0.597472 0.656363
vn -0.561846 0.208559 0.800520
vn -0.000000 0.181173 0.983451
vn 0.460668 0.597472 0.656363
vn -0.000000 0.541237 0.840870
vn 0.561846 0.208559 0.800520
vn -0.000000 0.541237 0.840870
vn -0.000000 0.181173 0.983451
vn 0.561846 0.208559 0.800520
vn 0.736997 0.675896 0.000000
vn 0.460668 0.597472 0.656363
vn 0.967236 0.253880 0.000000
vn 0.460668 0.597472 0.656363
vn 0.561846 0.208559 0.800520
vn 0.967236 0.253880 0.000000
vn 0.460668 0.597472 -0.656363
vn 0.736997 0.675896 0.000000
vn 0.561846 0.208559 -0.800520
vn 0.736997 0.675896 0.000000
vn 0.967236 0.253880 0.000000
vn 0.561846 0.208559 -0.800520
vn 0.000000 0.541237 -0.840870
vn 0.460668 0.597472 -0.656363
vn 0.000000 0.181173 -0.983451
vn 0.460668 0.597472 -0.656363
vn 0.561846 0.208559 -0.800520
vn 0.000000 0.181173 -0.983451
vn -0.460668 0.597472 -0.656363
vn 0.000000 0.541237 -0.840870
vn -0.561846 0.208559 -0.800520
vn 0.000000 0.541237 -0.840870
vn 0.000000 0.181173 -0.983451
vn -0.561846 0.208559 -0.800520
vn -0.736997 0.675896 -0.000000
vn -0.460668 0.597472 -0.656363
vn -0.967236 0.253880 -0.000000
vn -0.460668 0.597472 -0.656363
vn -0.561846 0.208559 -0.800520
vn -0.967236 0.253880 -0.000000
vn -0.561846 0.208559 0.800520
vn -0.967236 0.253880 0.000000
vn -0.561846 -0.208559 0.800520
vn -0.967236 0.253880 0.000000
vn -0.967236 -0.253880 0.000000
vn -0.561846 -0.208559 0.800520
vn -0.000000 0.181173 0.983451
vn -0.561846 0.208559 0.800520
vn -0.000000 -0.181173 0.983451
vn -0.561846 0.208559 0.800520
vn -0.561846 -0.208559 0.800520
vn -0.000000 -0.181173 0.983451
vn 0.561846 0.208559 0.800520
vn -0.000000 0.181173 0.983451
vn 0.561846 -0.208559 0.800520
vn -0.000000 0.181173 0.983451
vn -0.000000 -0.181173 0.983451
vn 0.561846 -0.208559 0.800520
vn 0.967236 0.253880 0.000000
vn 0.561846 0.208559 0.800520
vn 0.967236 -0.253880 0.000000
vn 0.561846 0.208559 0.800520
vn 0.561846 -0.208559 0.800520
vn 0.967236 -0.253880 0.000000
vn 0.561846 0.208559 -0.800520
vn 0.967236 0.253880 0.000000
vn 0.561846 -0.208559 -0.800520
vn 0.967236 0.253880 0.000000
vn 0.967236 -0.253880 0.000000
vn 0.561846 -0.208559 -0.800520
vn 0.000000 0.181173 -0.983451
vn 0.561846 0.208559 -0.800520
vn 0.000000 -0.181173 -0.983451
vn 0.561846 0.208559 -0.800520
vn 0.561846 -0.208559 -0.800520
vn 0.000000 -0.181173 -0.983451
vn -0.561846 0.208559 -0.800520
vn 0.000000 0.181173 -0.983451
vn -0.561846 -0.208559 -0.800520
vn 0.000000 0.181173 -0.983451
vn 0.000000 -0.181173 -0.983451
vn -0.561846 -0.208559 -0.800520
vn -0.967236 0.253880 -0.000000
vn -0.561846 0.208559 -0.800520
vn -0.967236 -0.253880 -0.000000
vn -0.561846 0.208559 -0.800520
vn -0.561846 -0.208559 -0.800520
vn -0.967236 -0.253880 -0.000000
vn -0.561846 -0.208559 0.800520
vn -0.967236 -0.253880 0.000000
vn -0.460668 -0.597472 0.656363
vn -0.967236 -0.253880 0.000000
vn -0.736997 -0.675896 0.000000
vn -0.460668 -0.597472 0.656363
vn -0.000000 -0.181173 0.983451
vn -0.561846 -0.208559 0.800520
vn -0.000000 -0.541237 0.840870
vn -0.561846 -0.208559 0.800520
vn -0.460668 -0.597472 0.656363
vn -0.000000 -0.541237 0.840870
vn 0.561846 -0.208559 0.800520
vn -0.000000 -0.181173 0.983451
vn 0.460668 -0.597472 0.656363
vn -0.000000 -0.181173 0.983451
vn -0.000000 -0.541237 0.840870
vn 0.460668 -0.597472 0.656363
vn 0.967236 -0.253880 0.000000
vn 0.561846 -0.208559 0.800520
vn 0.736997 -0.675896 0.000000
vn 0.561846 -0.208559 0.800520
vn 0.460668 -0.597472 0.656363
vn 0.736997 -0.675896 0.000000
vn 0.561846 -0.208559 -0.800520
vn 0.967236 -0.253880 0.000000
vn 0.460668 -0.597472 -0.656363
vn 0.967236 -0.253880 0.000000
vn 0.736997 -0.675896 0.000000
vn 0.460668 -0.597472 -0.656363
vn 0.000000 -0.181173 -0.983451
vn 0.561846 -0.208559 -0.800520
vn 0.000000 -0.541237 -0.840870
vn 0.561846 -0.208559 -0.800520
vn 0.460668 -0.597472 -0.656363
vn 0.000000 -0.541237 -0.840870
vn -0.561846 -0.208559 -0.800520
vn 0.000000 -0.181173 -0.983451
vn -0.460668 -0.597472 -0.656363
vn 0.000000 -0.181173 -0.983451
vn 0.000000 -0.541237 -0.840870
vn -0.460668 -0.597472 -0.656363
vn -0.967236 -0.253880 -0.000000
vn -0.561846 -0.208559 -0.800520
vn -0.736997 -0.675896 -0.000000
vn -0.561846 -0.208559 -0.800520
vn -0.460668 -0.597472 -0.656363
vn -0.736997 -0.675896 -0.000000
vn -0.460668 -0.597472 0.656363
vn -0.736997 -0.675896 0.000000
vn -0.263202 -0.888871 0.375012
vn -0.736997 -0.675896 0.000000
vn -0.386260 -0.922390 0.000000
vn -0.263202 -0.888871 0.375012
vn -0.000000 -0.541237 0.840870
vn -0.460668 -0.597472 0.656363
vn -0.000000 -0.858759 0.512380
vn -0.460668 -0.597472 0.656363
vn -0.263202 -0.888871 0.375012
vn -0.000000 -0.858759 0.512380
vn 0.460668 -0.597472 0.656363
vn -0.000000 -0.541237 0.840870
vn 0.263202 -0.888871 0.375012
vn -0.000000 -0.541237 0.840870
vn -0.000000 -0.858759 0.512380
vn 0.263202 -0.888871 0.375012
vn 0.736997 -0.675896 0.000000
vn 0.460668 -0.597472 0.656363
vn 0.386260 -0.922390 0.000000
vn 0.460668 -0.597472 0.656363
vn 0.263202 -0.888871 0.375012
vn 0.386260 -0.922390 0.000000
vn 0.460668 -0.597472 -0.656363
vn 0.736997 -0.675896 0.000000
vn 0.263202 -0.888871 -0.375012
vn 0.736997 -0.675896 0.000000
vn 0.386260 -0.922390 0.000000
vn 0.263202 -0.888871 -0.375012
vn 0.000000 -0.541237 -0.840870
vn 0.460668 -0.597472 -0.656363
vn 0.000000 -0.858759 -0.512380
vn 0.460668 -0.597472 -0.656363
vn 0.263202 -0.888871 -0.375012
vn 0.000000 -0.858759 -0.512380
vn -0.460668 -0.597472 -0.656363
vn 0.000000 -0.541237 -0.840870
vn -0.263202 -0.888871 -0.375012
vn 0.000000 -0.541237 -0.840870
vn 0.000000 -0.858759 -0.512380
vn -0.263202 -0.888871 -0.375012
vn -0.736997 -0.675896 -0.000000
vn -0.460668 -0.597472 -0.656363
vn -0.386260 -0.922390 -0.000000
vn -0.460668 -0.597472 -0.656363
vn -0.263202 -0.888871 -0.375012
vn -0.386260 -0.922390 -0.000000
vn -0.263202 -0.888871 0.375012
vn -0.386260 -0.922390 0.000000
vn -0.000000 -1.000000 0.000000
vn -0.000000 -0.858759 0.512380
vn -0.263202 -0.888871 0.375012
vn -0.000000 -1.000000 0.000000
vn 0.263202 -0.888871 0.375012
vn -0.000000 -0.858759 0.512380
vn 0.000000 -1.000000 0.000000
vn 0.386260 -0.922390 0.000000
vn 0.263202 -0.888871 0.375012
vn 0.000000 -1.000000 0.000000
vn 0.263202 -0.888871 -0.375012
vn 0.386260 -0.922390 0.000000
vn 0.000000 -1.000000 -0.000000
vn 0.000000 -0.858759 -0.512380
vn 0.263202 -0.888871 -0.375012
vn 0.000000 -1.000000 -0.000000
vn -0.263202 -0.888871 -0.375012
vn 0.000000 -0.858759 -0.512380
vn -0.000000 -1.000000 -0.000000
vn -0.386260 -0.922390 -0.000000
vn -0.263202 -0.888871 -0.375012
vn -0.000000 -1.000000 -0.000000
vn -0.854226 -0.476733 0.207422
vn -0.438395 0.527550 0.727668
vn -0.954461 0.290287 0.068826
vn -0.438395 0.527550 0.727668
vn -0.076923 0.739918 0.668285
vn -0.954461 0.290287 0.068826
vn -0.438395 0.527550 0.727668
vn 0.675032 0.114938 0.728780
vn -0.076923 0.739918 0.668285
vn 0.675032 0.114938 0.728780
vn 0.906920 0.378082 0.185877
vn -0.076923 0.739918 0.668285
vn 0.675032 0.114938 0.728780
vn 0.828660 -0.540594 -0.145191
vn 0.906920 0.378082 0.185877
vn 0.828660 -0.540594 -0.145191
vn 0.637431 -0.295175 -0.711725
vn 0.906920 0.378082 0.185877
vn 0.828660 -0.540594 -0.145191
vn -0.173552 -0.602537 -0.778992
vn 0.637431 -0.295175 -0.711725
vn -0.173552 -0.602537 -0.778992
vn -0.512966 -0.349435 -0.784067
vn 0.637431 -0.295175 -0.711725
vn -0.173552 -0.602537 -0.778992
vn -0.854226 -0.476733 0.207422
vn -0.512966 -0.349435 -0.784067
vn -0.854226 -0.476733 0.207422
vn -0.954461 0.290287 0.068826
vn -0.512966 -0.349435 -0.784067
vn -0.954461 0.290287 0.068826
vn -0.076923 0.739918 0.668285
vn -0.851729 0.434029 0.293557
vn -0.076923 0.739918 0.668285
vn 0.208116 0.709133 0.673660
vn -0.851729 0.434029 0.293557
vn -0.076923 0.739918 0.668285
vn 0.906920 0.378082 0.185877
vn 0.208116 0.709133 0.673660
vn 0.906920 0.378082 0.185877
vn 0.980698 0.194418 -0.020815
vn 0.208116 0.709133 0.673660
vn 0.906920 0.378082 0.185877
vn 0.637431 -0.295175 -0.711725
vn 0.980698 0.194418 -0.020815
vn 0.637431 -0.295175 -0.711725
vn 0.398163 -0.406694 -0.822232
vn 0.980698 0.194418 -0.020815
vn 0.637431 -0.295175 -0.711725
vn -0.512966 -0.349435 -0.784067
vn 0.398163 -0.406694 -0.822232
vn -0.512966 -0.349435 -0.784067
vn -0.735239 -0.264305 -0.624153
vn 0.398163 -0.406694 -0.822232
vn -0.512966 -0.349435 -0.784067
vn -0.954461 0.290287 0.068826
vn -0.735239 -0.264305 -0.624153
vn -0.954461 0.290287 0.068826
vn -0.851729 0.434029 0.293557
vn -0.735239 -0.264305 -0.624153
vn -0.854226 -0.476733 0.207422
vn 0.675032 0.114938 0.728780
vn -0.438395 0.527550 0.727668
vn -0.851729 0.434029 0.293557
vn 0.208116 0.709133 0.673660
vn 0.980698 0.194418 -0.020815
vn -0.854226 -0.476733 0.207422
vn 0.828660 -0.540594 -0.145191
vn 0.675032 0.114938 0.728780
vn -0.851729 0.434029 0.293557
vn 0.980698 0.194418 -0.020815
vn 0.398163 -0.406694 -0.822232
vn -0.854226 -0.476733 0.207422
vn -0.173552 -0.602537 -0.778992
vn 0.828660 -0.540594 -0.145191
vn -0.851729 0.434029 0.293557
vn 0.398163 -0.406694 -0.822232
vn -0.735239 -0.264305 -0.624153
usemtl Dragon_color_atlas
f 1/1/1 2/2/2 3/3/3
f 4/4/4 5/5/5 6/6/6
f 7/7/7 8/8/8 9/9/9
f 10/10/10 11/11/11 12/12/12
f 13/13/13 14/14/14 15/15/15
f 16/16/16 17/17/17 18/18/18
f 19/19/19 20/20/20 21/21/21
f 22/22/22 23/23/23 24/24/24
f 25/25/25 26/26/26 27/27/27
f 28/28/28 29/29/29 30/30/30
f 31/31/31 32/32/32 33/33/33
f 34/34/34 35/35/35 36/36/36
f 37/37/37 38/38/38 39/39/39
f 40/40/40 41/41/41 42/42/42
f 43/43/43 44/44/44 45/45/45
f 46/46/46 47/47/47 48/48/48
f 49/49/49 50/50/50 51/51/51
f 52/52/52 53/53/53 54/54/54
f 55/55/55 56/56/56 57/57/57
f 58/58/58 59/59/59 60/60/60
f 61/61/61 62/62/62 63/63/63
f 64/64/64 65/65/65 66/66/66
f 67/67/67 68/68/68 69/69/69
f 70/70/70 71/71/71 72/72/72
f 73/73/73 74/74/74 75/75/75
f 76/76/76 77/77/77 78/78/78
f 79/79/79 80/80/80 81/81/81
f 82/82/82 83/83/83 84/84/84
f 85/85/85 86/86/86 87/87/87
f 88/88/88 89/89/89 90/90/90
f 91/91/91 92/92/92 93/93/93
f 94/94/94 95/95/95 96/96/96
f 97/97/97 98/98/98 99/99/99
f 100/100/100 101/101/101 102/102/102
f 103/103/103 104/104/104 105/105/105
f 106/106/106 107/107/107 108/108/108
f 109/109/109 110/110/110 111/111/111
f 112/112/112 113/113/113 114/114/114
f 115/115/115 116/116/116 117/117/117
f 118/118/118 119/119/119 120/120/120
f 121/121/121 122/122/122 123/123/123
f 124/124/124 125/125/125 126/126/126
f 127/127/127 128/128/128 129/129/129
f 130/130/130 131/131/131 132/132/132
f 133/133/133 134/134/134 135/135/135
f 136/136/136 137/137/137 138/138/138
f 139/139/139 140/140/140 141/141/141
f 142/142/142 143/143/143 144/144/144
f 145/145/145 146/146/146 147/147/147
f 148/148/148 149/149/149 150/150/150
f 151/151/151 152/152/152 153/153/153
f 154/154/154 155/155/155 156/156/156
f 157/157/157 158/158/158 159/159/159
f 160/160/160 161/161/161 162/162/162
f 163/163/163 164/164/164 165/165/165
f 166/166/166 167/167/167 168/168/168
f 169/169/169 170/170/170 171/171/171
f 172/172/172 173/173/173 174/174/174
f 175/175/175 176/176/176 177/177/177
f 178/178/178 179/179/179 180/180/180
f 181/181/181 182/182/182 183/183/183
f 184/184/184 185/185/185 186/186/186
f 187/187/187 188/188/188 189/189/189
f 190/190/190 191/191/191 192/192/192
f 193/193/193 194/194/194 195/195/195
f 196/196/196 197/197/197 198/198/198
f 199/199/199 200/200/200 201/201/201
f 202/202/202 203/203/203 204/204/204
f 205/205/205 206/206/206 207/207/207
f 208/208/208 209/209/209 210/210/210
f 211/211/211 212/212/212 213/213/213
f 214/214/214 215/215/215 216/216/216
f 217/217/217 218/218/218 219/219/219
f 220/220/220 221/221/221 222/222/222
f 223/223/223 224/224/224 225/225/225
f 226/226/226 227/227/227 228/228/228
f 229/229/229 230/230/230 231/231/231
f 232/232/232 233/233/233 234/234/234
f 235/235/235 236/236/236 237/237/237
f 238/238/238 239/239/239 240/240/240
f 241/241/241 242/242/242 243/243/243
f 244/244/244 245/245/245 246/246/246
f 247/247/247 248/248/248 249/249/249
f 250/250/250 251/251/251 252/252/252
f 253/253/253 254/254/254 255/255/255
f 256/256/256 257/257/257 258/258/258
f 259/259/259 260/260/260 261/261/261
f 262/262/262 263/263/263 264/264/264
f 265/265/265 266/266/266 267/267/267
f 268/268/268 269/269/269 270/270/270
f 271/271/271 272/272/272 273/273/273
f 274/274/274 275/275/275 276/276/276
f 277/277/277 278/278/278 279/279/279
f 280/280/280 281/281/281 282/282/282
f 283/283/283 284/284/284 285/285/285
f 286/286/286 287/287/287 288/288/288
f 289/289/289 290/290/290 291/291/291
f 292/292/292 293/293/293 294/294/294
f 295/295/295 296/296/296 297/297/297
f 298/298/298 299/299/299 300/300/300
f 301/301/301 302/302/302 303/303/303
f 304/304/304 305/305/305 306/306/306
f 307/307/307 308/308/308 309/309/309
f 310/310/310 311/311/311 312/312/312
f 313/313/313 314/314/314 315/315/315
f 316/316/316 317/317/317 318/318/318
f 319/319/319 320/320/320 321/321/321
f 322/322/322 323/323/323 324/324/324
f 325/325/325 326/326/326 327/327/327
f 328/328/328 329/329/329 330/330/330
f 331/331/331 332/332/332 333/333/333
f 334/334/334 335/335/335 336/336/336
f 337/337/337 338/338/338 339/339/339
f 340/340/340 341/341/341 342/342/342
f 343/343/343 344/344/344 345/345/345
f 346/346/346 347/347/347 348/348/348
f 349/349/349 350/350/350 351/351/351
f 352/352/352 353/353/353 354/354/354
f 355/355/355 356/356/356 357/357/357
f 358/358/358 359/359/359 360/360/360
f 361/361/361 362/362/362 363/363/363
f 364/364/364 365/365/365 366/366/366
f 367/367/367 368/368/368 369/369/369
f 370/370/370 371/371/371 372/372/372
f 373/373/373 374/374/374 375/375/375
f 376/376/376 377/377/377 378/378/378
f 379/379/379 380/380/380 381/381/381
f 382/382/382 383/383/383 384/384/384
f 385/385/385 386/386/386 387/387/387
f 388/388/388 389/389/389 390/390/390
f 391/391/391 392/392/392 393/393/393
f 394/394/394 395/395/395 396/396/396
f 397/397/397 398/398/398 399/399/399
f 400/400/400 401/401/401 402/402/402
f 403/403/403 404/404/404 405/405/405
f 406/406/406 407/407/407 408/408/408
f 409/409/409 410/410/410 411/411/411
f 412/412/412 413/413/413 414/414/414
f 415/415/415 416/416/416 417/417/417
f 418/418/418 419/419/419 420/420/420
f 421/421/421 422/422/422 423/423/423
f 424/424/424 425/425/425 426/426/426
f 427/427/427 428/428/428 429/429/429
f 430/430/430 431/431/431 432/432/432
f 433/433/433 434/434/434 435/435/435
f 436/436/436 437/437/437 438/438/438
f 439/439/439 440/440/440 441/441/441
f 442/442/442 443/443/443 444/444/444
f 445/445/445 446/446/446 447/447/447
f 448/448/448 449/449/449 450/450/450
f 451/451/451 452/452/452 453/453/453
f 454/454/454 455/455/455 456/456/456
f 457/457/457 458/458/458 459/459/459
f 460/460/460 461/461/461 462/462/462
f 463/463/463 464/464/464 465/465/465
f 466/466/466 467/467/467 468/468/468
f 469/469/469 470/470/470 471/471/471
f 472/472/472 473/473/473 474/474/474
f 475/475/475 476/476/476 477/477/477
f 478/478/478 479/479/479 480/480/480
f 481/481/481 482/482/482 483/483/483
f 484/484/484 485/485/485 486/486/486
f 487/487/487 488/488/488 489/489/489
f 490/490/490 491/491/491 492/492/492
f 493/493/493 494/494/494 495/495/495
f 496/496/496 497/497/497 498/498/498
