# Obsidian West — joint-local part geometry, +Y up, +Z forward
mtllib materials.mtl
o Tail_06
v -0.284934 0.000000 -0.048846
v -0.208616 0.200006 0.007096
v -0.244880 0.075000 -0.402265
v -0.208616 0.200006 0.007096
v -0.163220 0.289006 -0.342408
v -0.244880 0.075000 -0.402265
v -0.208616 0.200006 0.007096
v -0.010094 0.282851 0.058881
v -0.163220 0.289006 -0.342408
v -0.010094 0.282851 0.058881
v 0.049200 0.377650 -0.286998
v -0.163220 0.289006 -0.342408
v -0.010094 0.282851 0.058881
v 0.194342 0.200006 0.076174
v 0.049200 0.377650 -0.286998
v 0.194342 0.200006 0.076174
v 0.267946 0.289006 -0.268494
v 0.049200 0.377650 -0.286998
v 0.194342 0.200006 0.076174
v 0.284934 0.000000 0.048846
v 0.267946 0.289006 -0.268494
v 0.284934 0.000000 0.048846
v 0.364880 0.075000 -0.297735
v 0.267946 0.289006 -0.268494
v 0.284934 0.000000 0.048846
v 0.208616 -0.200006 -0.007095
v 0.364880 0.075000 -0.297735
v 0.208616 -0.200006 -0.007095
v 0.283220 -0.139006 -0.357592
v 0.364880 0.075000 -0.297735
v 0.208616 -0.200006 -0.007095
v 0.010094 -0.282851 -0.058880
v 0.283220 -0.139006 -0.357592
v 0.010094 -0.282851 -0.058880
v 0.070800 -0.227650 -0.413002
v 0.283220 -0.139006 -0.357592
v 0.010094 -0.282851 -0.058880
v -0.194342 -0.200006 -0.076174
v 0.070800 -0.227650 -0.413002
v -0.194342 -0.200006 -0.076174
v -0.147946 -0.139006 -0.431506
v 0.070800 -0.227650 -0.413002
v -0.194342 -0.200006 -0.076174
v -0.284934 0.000000 -0.048846
v -0.147946 -0.139006 -0.431506
v -0.284934 0.000000 -0.048846
v -0.244880 0.075000 -0.402265
v -0.147946 -0.139006 -0.431506
v -0.244880 0.075000 -0.402265
v -0.163220 0.289006 -0.342408
v -0.117445 0.150000 -0.740705
v -0.163220 0.289006 -0.342408
v -0.053847 0.316672 -0.694087
v -0.117445 0.150000 -0.740705
v -0.163220 0.289006 -0.342408
v 0.049200 0.377650 -0.286998
v -0.053847 0.316672 -0.694087
v 0.049200 0.377650 -0.286998
v 0.111589 0.385709 -0.650933
v -0.053847 0.316672 -0.694087
v 0.049200 0.377650 -0.286998
v 0.267946 0.289006 -0.268494
v 0.111589 0.385709 -0.650933
v 0.267946 0.289006 -0.268494
v 0.281951 0.316672 -0.636521
v 0.111589 0.385709 -0.650933
v 0.267946 0.289006 -0.268494
v 0.364880 0.075000 -0.297735
v 0.281951 0.316672 -0.636521
v 0.364880 0.075000 -0.297735
v 0.357445 0.150000 -0.659295
v 0.281951 0.316672 -0.636521
v 0.364880 0.075000 -0.297735
v 0.283220 -0.139006 -0.357592
v 0.357445 0.150000 -0.659295
v 0.283220 -0.139006 -0.357592
v 0.293847 -0.016671 -0.705913
v 0.357445 0.150000 -0.659295
v 0.283220 -0.139006 -0.357592
v 0.070800 -0.227650 -0.413002
v 0.293847 -0.016671 -0.705913
v 0.070800 -0.227650 -0.413002
v 0.128411 -0.085709 -0.749067
v 0.293847 -0.016671 -0.705913
v 0.070800 -0.227650 -0.413002
v -0.147946 -0.139006 -0.431506
v 0.128411 -0.085709 -0.749067
v -0.147946 -0.139006 -0.431506
v -0.041951 -0.016671 -0.763478
v 0.128411 -0.085709 -0.749067
v -0.147946 -0.139006 -0.431506
v -0.244880 0.075000 -0.402265
v -0.041951 -0.016671 -0.763478
v -0.244880 0.075000 -0.402265
v -0.117445 0.150000 -0.740705
v -0.041951 -0.016671 -0.763478
v -0.284934 0.000000 -0.048846
v -0.010094 0.282851 0.058881
v -0.208616 0.200006 0.007096
v -0.117445 0.150000 -0.740705
v -0.053847 0.316672 -0.694087
v 0.111589 0.385709 -0.650933
v -0.284934 0.000000 -0.048846
v 0.194342 0.200006 0.076174
v -0.010094 0.282851 0.058881
v -0.117445 0.150000 -0.740705
v 0.111589 0.385709 -0.650933
v 0.281951 0.316672 -0.636521
v -0.284934 0.000000 -0.048846
v 0.284934 0.000000 0.048846
v 0.194342 0.200006 0.076174
v -0.117445 0.150000 -0.740705
v 0.281951 0.316672 -0.636521
v 0.357445 0.150000 -0.659295
v -0.284934 0.000000 -0.048846
v 0.208616 -0.200006 -0.007095
v 0.284934 0.000000 0.048846
v -0.117445 0.150000 -0.740705
v 0.357445 0.150000 -0.659295
v 0.293847 -0.016671 -0.705913
v -0.284934 0.000000 -0.048846
v 0.010094 -0.282851 -0.058880
v 0.208616 -0.200006 -0.007095
v -0.117445 0.150000 -0.740705
v 0.293847 -0.016671 -0.705913
v 0.128411 -0.085709 -0.749067
v -0.284934 0.000000 -0.048846
v -0.194342 -0.200006 -0.076174
v 0.010094 -0.282851 -0.058880
v -0.117445 0.150000 -0.740705
v 0.128411 -0.085709 -0.749067
v -0.041951 -0.016671 -0.763478
v 0.000000 0.323782 -0.180000
v -0.129822 0.298016 -0.180000
v -0.091798 0.298016 -0.094095
v 0.000000 0.323782 -0.180000
v -0.091798 0.298016 -0.094095
v 0.000000 0.298016 -0.058513
v 0.000000 0.323782 -0.180000
v 0.000000 0.298016 -0.058513
v 0.091798 0.298016 -0.094095
v 0.000000 0.323782 -0.180000
v 0.091798 0.298016 -0.094095
v 0.129822 0.298016 -0.180000
v 0.000000 0.323782 -0.180000
v 0.129822 0.298016 -0.180000
v 0.091798 0.298016 -0.265905
v 0.000000 0.323782 -0.180000
v 0.091798 0.298016 -0.265905
v 0.000000 0.298016 -0.301488
v 0.000000 0.323782 -0.180000
v 0.000000 0.298016 -0.301488
v -0.091798 0.298016 -0.265905
v 0.000000 0.323782 -0.180000
v -0.091798 0.298016 -0.265905
v -0.129822 0.298016 -0.180000
v -0.091798 0.298016 -0.094095
v -0.129822 0.298016 -0.180000
v -0.165414 0.225821 -0.025205
v -0.129822 0.298016 -0.180000
v -0.233931 0.225821 -0.180000
v -0.165414 0.225821 -0.025205
v 0.000000 0.298016 -0.058513
v -0.091798 0.298016 -0.094095
v 0.000000 0.225821 0.038913
v -0.091798 0.298016 -0.094095
v -0.165414 0.225821 -0.025205
v 0.000000 0.225821 0.038913
v 0.091798 0.298016 -0.094095
v 0.000000 0.298016 -0.058513
v 0.165414 0.225821 -0.025205
v 0.000000 0.298016 -0.058513
v 0.000000 0.225821 0.038913
v 0.165414 0.225821 -0.025205
v 0.129822 0.298016 -0.180000
v 0.091798 0.298016 -0.094095
v 0.233931 0.225821 -0.180000
v 0.091798 0.298016 -0.094095
v 0.165414 0.225821 -0.025205
v 0.233931 0.225821 -0.180000
v 0.091798 0.298016 -0.265905
v 0.129822 0.298016 -0.180000
v 0.165414 0.225821 -0.334795
v 0.129822 0.298016 -0.180000
v 0.233931 0.225821 -0.180000
v 0.165414 0.225821 -0.334795
v 0.000000 0.298016 -0.301488
v 0.091798 0.298016 -0.265905
v 0.000000 0.225821 -0.398913
v 0.091798 0.298016 -0.265905
v 0.165414 0.225821 -0.334795
v 0.000000 0.225821 -0.398913
v -0.091798 0.298016 -0.265905
v 0.000000 0.298016 -0.301488
v -0.165414 0.225821 -0.334795
v 0.000000 0.298016 -0.301488
v 0.000000 0.225821 -0.398913
v -0.165414 0.225821 -0.334795
v -0.129822 0.298016 -0.180000
v -0.091798 0.298016 -0.265905
v -0.233931 0.225821 -0.180000
v -0.091798 0.298016 -0.265905
v -0.165414 0.225821 -0.334795
v -0.233931 0.225821 -0.180000
v -0.165414 0.225821 -0.025205
v -0.233931 0.225821 -0.180000
v -0.206268 0.121496 0.013026
v -0.233931 0.225821 -0.180000
v -0.291707 0.121496 -0.180000
v -0.206268 0.121496 0.013026
v 0.000000 0.225821 0.038913
v -0.165414 0.225821 -0.025205
v 0.000000 0.121496 0.092980
v -0.165414 0.225821 -0.025205
v -0.206268 0.121496 0.013026
v 0.000000 0.121496 0.092980
v 0.165414 0.225821 -0.025205
v 0.000000 0.225821 0.038913
v 0.206268 0.121496 0.013026
v 0.000000 0.225821 0.038913
v 0.000000 0.121496 0.092980
v 0.206268 0.121496 0.013026
v 0.233931 0.225821 -0.180000
v 0.165414 0.225821 -0.025205
v 0.291707 0.121496 -0.180000
v 0.165414 0.225821 -0.025205
v 0.206268 0.121496 0.013026
v 0.291707 0.121496 -0.180000
v 0.165414 0.225821 -0.334795
v 0.233931 0.225821 -0.180000
v 0.206268 0.121496 -0.373026
v 0.233931 0.225821 -0.180000
v 0.291707 0.121496 -0.180000
v 0.206268 0.121496 -0.373026
v 0.000000 0.225821 -0.398913
v 0.165414 0.225821 -0.334795
v 0.000000 0.121496 -0.452980
v 0.165414 0.225821 -0.334795
v 0.206268 0.121496 -0.373026
v 0.000000 0.121496 -0.452980
v -0.165414 0.225821 -0.334795
v 0.000000 0.225821 -0.398913
v -0.206268 0.121496 -0.373026
v 0.000000 0.225821 -0.398913
v 0.000000 0.121496 -0.452980
v -0.206268 0.121496 -0.373026
v -0.233931 0.225821 -0.180000
v -0.165414 0.225821 -0.334795
v -0.291707 0.121496 -0.180000
v -0.165414 0.225821 -0.334795
v -0.206268 0.121496 -0.373026
v -0.291707 0.121496 -0.180000
v -0.206268 0.121496 0.013026
v -0.291707 0.121496 -0.180000
v -0.206268 0.005704 0.013026
v -0.291707 0.121496 -0.180000
v -0.291707 0.005704 -0.180000
v -0.206268 0.005704 0.013026
v 0.000000 0.121496 0.092980
v -0.206268 0.121496 0.013026
v 0.000000 0.005704 0.092980
v -0.206268 0.121496 0.013026
v -0.206268 0.005704 0.013026
v 0.000000 0.005704 0.092980
v 0.206268 0.121496 0.013026
v 0.000000 0.121496 0.092980
v 0.206268 0.005704 0.013026
v 0.000000 0.121496 0.092980
v 0.000000 0.005704 0.092980
v 0.206268 0.005704 0.013026
v 0.291707 0.121496 -0.180000
v 0.206268 0.121496 0.013026
v 0.291707 0.005704 -0.180000
v 0.206268 0.121496 0.013026
v 0.206268 0.005704 0.013026
v 0.291707 0.005704 -0.180000
v 0.206268 0.121496 -0.373026
v 0.291707 0.121496 -0.180000
v 0.206268 0.005704 -0.373026
v 0.291707 0.121496 -0.180000
v 0.291707 0.005704 -0.180000
v 0.206268 0.005704 -0.373026
v 0.000000 0.121496 -0.452980
v 0.206268 0.121496 -0.373026
v 0.000000 0.005704 -0.452980
v 0.206268 0.121496 -0.373026
v 0.206268 0.005704 -0.373026
v 0.000000 0.005704 -0.452980
v -0.206268 0.121496 -0.373026
v 0.000000 0.121496 -0.452980
v -0.206268 0.005704 -0.373026
v 0.000000 0.121496 -0.452980
v 0.000000 0.005704 -0.452980
v -0.206268 0.005704 -0.373026
v -0.291707 0.121496 -0.180000
v -0.206268 0.121496 -0.373026
v -0.291707 0.005704 -0.180000
v -0.206268 0.121496 -0.373026
v -0.206268 0.005704 -0.373026
v -0.291707 0.005704 -0.180000
v -0.206268 0.005704 0.013026
v -0.291707 0.005704 -0.180000
v -0.165414 -0.098621 -0.025205
v -0.291707 0.005704 -0.180000
v -0.233931 -0.098621 -0.180000
v -0.165414 -0.098621 -0.025205
v 0.000000 0.005704 0.092980
v -0.206268 0.005704 0.013026
v 0.000000 -0.098621 0.038913
v -0.206268 0.005704 0.013026
v -0.165414 -0.098621 -0.025205
v 0.000000 -0.098621 0.038913
v 0.206268 0.005704 0.013026
v 0.000000 0.005704 0.092980
v 0.165414 -0.098621 -0.025205
v 0.000000 0.005704 0.092980
v 0.000000 -0.098621 0.038913
v 0.165414 -0.098621 -0.025205
v 0.291707 0.005704 -0.180000
v 0.206268 0.005704 0.013026
v 0.233931 -0.098621 -0.180000
v 0.206268 0.005704 0.013026
v 0.165414 -0.098621 -0.025205
v 0.233931 -0.098621 -0.180000
v 0.206268 0.005704 -0.373026
v 0.291707 0.005704 -0.180000
v 0.165414 -0.098621 -0.334795
v 0.291707 0.005704 -0.180000
v 0.233931 -0.098621 -0.180000
v 0.165414 -0.098621 -0.334795
v 0.000000 0.005704 -0.452980
v 0.206268 0.005704 -0.373026
v 0.000000 -0.098621 -0.398913
v 0.206268 0.005704 -0.373026
v 0.165414 -0.098621 -0.334795
v 0.000000 -0.098621 -0.398913
v -0.206268 0.005704 -0.373026
v 0.000000 0.005704 -0.452980
v -0.165414 -0.098621 -0.334795
v 0.000000 0.005704 -0.452980
v 0.000000 -0.098621 -0.398913
v -0.165414 -0.098621 -0.334795
v -0.291707 0.005704 -0.180000
v -0.206268 0.005704 -0.373026
v -0.233931 -0.098621 -0.180000
v -0.206268 0.005704 -0.373026
v -0.165414 -0.098621 -0.334795
v -0.233931 -0.098621 -0.180000
v -0.165414 -0.098621 -0.025205
v -0.233931 -0.098621 -0.180000
v -0.091798 -0.170816 -0.094095
v -0.233931 -0.098621 -0.180000
v -0.129822 -0.170816 -0.180000
v -0.091798 -0.170816 -0.094095
v 0.000000 -0.098621 0.038913
v -0.165414 -0.098621 -0.025205
v 0.000000 -0.170816 -0.058513
v -0.165414 -0.098621 -0.025205
v -0.091798 -0.170816 -0.094095
v 0.000000 -0.170816 -0.058513
v 0.165414 -0.098621 -0.025205
v 0.000000 -0.098621 0.038913
v 0.091798 -0.170816 -0.094095
v 0.000000 -0.098621 0.038913
v 0.000000 -0.170816 -0.058513
v 0.091798 -0.170816 -0.094095
v 0.233931 -0.098621 -0.180000
v 0.165414 -0.098621 -0.025205
v 0.129822 -0.170816 -0.180000
v 0.165414 -0.098621 -0.025205
v 0.091798 -0.170816 -0.094095
v 0.129822 -0.170816 -0.180000
v 0.165414 -0.098621 -0.334795
v 0.233931 -0.098621 -0.180000
v 0.091798 -0.170816 -0.265905
v 0.233931 -0.098621 -0.180000
v 0.129822 -0.170816 -0.180000
v 0.091798 -0.170816 -0.265905
v 0.000000 -0.098621 -0.398913
v 0.165414 -0.098621 -0.334795
v 0.000000 -0.170816 -0.301488
v 0.165414 -0.098621 -0.334795
v 0.091798 -0.170816 -0.265905
v 0.000000 -0.170816 -0.301488
v -0.165414 -0.098621 -0.334795
v 0.000000 -0.098621 -0.398913
v -0.091798 -0.170816 -0.265905
v 0.000000 -0.098621 -0.398913
v 0.000000 -0.170816 -0.301488
v -0.091798 -0.170816 -0.265905
v -0.233931 -0.098621 -0.180000
v -0.165414 -0.098621 -0.334795
v -0.129822 -0.170816 -0.180000
v -0.165414 -0.098621 -0.334795
v -0.091798 -0.170816 -0.265905
v -0.129822 -0.170816 -0.180000
v -0.091798 -0.170816 -0.094095
v -0.129822 -0.170816 -0.180000
v 0.000000 -0.196582 -0.180000
v 0.000000 -0.170816 -0.058513
v -0.091798 -0.170816 -0.094095
v 0.000000 -0.196582 -0.180000
v 0.091798 -0.170816 -0.094095
v 0.000000 -0.170816 -0.058513
v 0.000000 -0.196582 -0.180000
v 0.129822 -0.170816 -0.180000
v 0.091798 -0.170816 -0.094095
v 0.000000 -0.196582 -0.180000
v 0.091798 -0.170816 -0.265905
v 0.129822 -0.170816 -0.180000
v 0.000000 -0.196582 -0.180000
v 0.000000 -0.170816 -0.301488
v 0.091798 -0.170816 -0.265905
v 0.000000 -0.196582 -0.180000
v -0.091798 -0.170816 -0.265905
v 0.000000 -0.170816 -0.301488
v 0.000000 -0.196582 -0.180000
v -0.129822 -0.170816 -0.180000
v -0.091798 -0.170816 -0.265905
v 0.000000 -0.196582 -0.180000
v -0.112746 0.216818 -0.220000
v -0.034840 0.290570 -0.142164
v -0.054118 0.457338 -0.447900
v -0.034840 0.290570 -0.142164
v -0.016723 0.492739 -0.410539
v -0.054118 0.457338 -0.447900
v -0.034840 0.290570 -0.142164
v 0.091213 0.262399 -0.171895
v -0.016723 0.492739 -0.410539
v 0.091213 0.262399 -0.171895
v 0.043782 0.479217 -0.424810
v -0.016723 0.492739 -0.410539
v 0.091213 0.262399 -0.171895
v 0.091213 0.171237 -0.268105
v 0.043782 0.479217 -0.424810
v 0.091213 0.171237 -0.268105
v 0.043782 0.435459 -0.470990
v 0.043782 0.479217 -0.424810
v 0.091213 0.171237 -0.268105
v -0.034840 0.143067 -0.297835
v 0.043782 0.435459 -0.470990
v -0.034840 0.143067 -0.297835
v -0.016723 0.421937 -0.485261
v 0.043782 0.435459 -0.470990
v -0.034840 0.143067 -0.297835
v -0.112746 0.216818 -0.220000
v -0.016723 0.421937 -0.485261
v -0.112746 0.216818 -0.220000
v -0.054118 0.457338 -0.447900
v -0.016723 0.421937 -0.485261
v -0.054118 0.457338 -0.447900
v -0.016723 0.492739 -0.410539
v -0.009000 0.670629 -0.650000
v -0.016723 0.492739 -0.410539
v -0.002781 0.676517 -0.643787
v -0.009000 0.670629 -0.650000
v -0.016723 0.492739 -0.410539
v 0.043782 0.479217 -0.424810
v -0.002781 0.676517 -0.643787
v 0.043782 0.479217 -0.424810
v 0.007281 0.674268 -0.646160
v -0.002781 0.676517 -0.643787
v 0.043782 0.479217 -0.424810
v 0.043782 0.435459 -0.470990
v 0.007281 0.674268 -0.646160
v 0.043782 0.435459 -0.470990
v 0.007281 0.666991 -0.653840
v 0.007281 0.674268 -0.646160
v 0.043782 0.435459 -0.470990
v -0.016723 0.421937 -0.485261
v 0.007281 0.666991 -0.653840
v -0.016723 0.421937 -0.485261
v -0.002781 0.664742 -0.656213
v 0.007281 0.666991 -0.653840
v -0.016723 0.421937 -0.485261
v -0.054118 0.457338 -0.447900
v -0.002781 0.664742 -0.656213
v -0.054118 0.457338 -0.447900
v -0.009000 0.670629 -0.650000
v -0.002781 0.664742 -0.656213
v -0.112746 0.216818 -0.220000
v 0.091213 0.262399 -0.171895
v -0.034840 0.290570 -0.142164
v -0.009000 0.670629 -0.650000
v -0.002781 0.676517 -0.643787
v 0.007281 0.674268 -0.646160
v -0.112746 0.216818 -0.220000
v 0.091213 0.171237 -0.268105
v 0.091213 0.262399 -0.171895
v -0.009000 0.670629 -0.650000
v 0.007281 0.674268 -0.646160
v 0.007281 0.666991 -0.653840
v -0.112746 0.216818 -0.220000
v -0.034840 0.143067 -0.297835
v 0.091213 0.171237 -0.268105
v -0.009000 0.670629 -0.650000
v 0.007281 0.666991 -0.653840
v -0.002781 0.664742 -0.656213
vt 0.120000 0.880000
vt 0.213333 0.880000
vt 0.166667 0.786667
vt 0.120000 0.880000
vt 0.213333 0.880000
vt 0.166667 0.786667
vt 0.120000 0.880000
vt 0.213333 0.880000
vt 0.166667 0.786667
vt 0.120000 0.880000
vt 0.213333 0.880000
vt 0.166667 0.786667
vt 0.120000 0.880000
vt 0.213333 0.880000
vt 0.166667 0.786667
vt 0.120000 0.880000
vt 0.213333 0.880000
vt 0.166667 0.786667
vt 0.120000 0.880000
vt 0.213333 0.880000
vt 0.166667 0.786667
vt 0.120000 0.880000
vt 0.213333 0.880000
vt 0.166667 0.786667
vt 0.120000 0.880000
vt 0.213333 0.880000
vt 0.166667 0.786667
vt 0.120000 0.880000
vt 0.213333 0.880000
vt 0.166667 0.786667
vt 0.120000 0.880000
vt 0.213333 0.880000
vt 0.166667 0.786667
vt 0.120000 0.880000
vt 0.213333 0.880000
vt 0.166667 0.786667
vt 0.120000 0.880000
vt 0.213333 0.880000
vt 0.166667 0.786667
vt 0.120000 0.880000
vt 0.213333 0.880000
vt 0.166667 0.786667
vt 0.120000 0.880000
vt 0.213333 0.880000
vt 0.166667 0.786667
vt 0.120000 0.880000
vt 0.213333 0.880000
vt 0.166667 0.786667
vt 0.120000 0.880000
vt 0.213333 0.880000
vt 0.166667 0.786667
vt 0.120000 0.880000
vt 0.213333 0.880000
vt 0.166667 0.786667
vt 0.120000 0.880000
vt 0.213333 0.880000
vt 0.166667 0.786667
vt 0.120000 0.880000
vt 0.213333 0.880000
vt 0.166667 0.786667
vt 0.120000 0.880000
vt 0.213333 0.880000
vt 0.166667 0.786667
vt 0.120000 0.880000
vt 0.213333 0.880000
vt 0.166667 0.786667
vt 0.120000 0.880000
vt 0.213333 0.880000
vt 0.166667 0.786667
vt 0.120000 0.880000
vt 0.213333 0.880000
vt 0.166667 0.786667
vt 0.120000 0.880000
vt 0.213333 0.880000
vt 0.166667 0.786667
vt 0.120000 0.880000
vt 0.213333 0.880000
vt 0.166667 0.786667
vt 0.120000 0.880000
vt 0.213333 0.880000
vt 0.166667 0.786667
vt 0.120000 0.880000
vt 0.213333 0.880000
vt 0.166667 0.786667
vt 0.120000 0.880000
vt 0.213333 0.880000
vt 0.166667 0.786667
vt 0.120000 0.880000
vt 0.213333 0.880000
vt 0.166667 0.786667
vt 0.120000 0.880000
vt 0.213333 0.880000
vt 0.166667 0.786667
vt 0.120000 0.880000
vt 0.213333 0.880000
vt 0.166667 0.786667
vt 0.120000 0.880000
vt 0.213333 0.880000
vt 0.166667 0.786667
vt 0.120000 0.880000
vt 0.213333 0.880000
vt 0.166667 0.786667
vt 0.120000 0.880000
vt 0.213333 0.880000
vt 0.166667 0.786667
vt 0.120000 0.880000
vt 0.213333 0.880000
vt 0.166667 0.786667
vt 0.120000 0.880000
vt 0.213333 0.880000
vt 0.166667 0.786667
vt 0.120000 0.880000
vt 0.213333 0.880000
vt 0.166667 0.786667
vt 0.120000 0.880000
vt 0.213333 0.880000
vt 0.166667 0.786667
vt 0.120000 0.880000
vt 0.213333 0.880000
vt 0.166667 0.786667
vt 0.120000 0.880000
vt 0.213333 0.880000
vt 0.166667 0.786667
vt 0.120000 0.880000
vt 0.213333 0.880000
vt 0.166667 0.786667
vt 0.120000 0.880000
vt 0.213333 0.880000
vt 0.166667 0.786667
vt 0.120000 0.880000
vt 0.213333 0.880000
vt 0.166667 0.786667
vt 0.453333 0.880000
vt 0.546667 0.880000
vt 0.500000 0.786667
vt 0.453333 0.880000
vt 0.546667 0.880000
vt 0.500000 0.786667
vt 0.453333 0.880000
vt 0.546667 0.880000
vt 0.500000 0.786667
vt 0.453333 0.880000
vt 0.546667 0.880000
vt 0.500000 0.786667
vt 0.453333 0.880000
vt 0.546667 0.880000
vt 0.500000 0.786667
vt 0.453333 0.880000
vt 0.546667 0.880000
vt 0.500000 0.786667
vt 0.453333 0.880000
vt 0.546667 0.880000
vt 0.500000 0.786667
vt 0.453333 0.880000
vt 0.546667 0.880000
vt 0.500000 0.786667
vt 0.453333 0.880000
vt 0.546667 0.880000
vt 0.500000 0.786667
vt 0.453333 0.880000
vt 0.546667 0.880000
vt 0.500000 0.786667
vt 0.453333 0.880000
vt 0.546667 0.880000
vt 0.500000 0.786667
vt 0.453333 0.880000
vt 0.546667 0.880000
vt 0.500000 0.786667
vt 0.453333 0.880000
vt 0.546667 0.880000
vt 0.500000 0.786667
vt 0.453333 0.880000
vt 0.546667 0.880000
vt 0.500000 0.786667
vt 0.453333 0.880000
vt 0.546667 0.880000
vt 0.500000 0.786667
vt 0.453333 0.880000
vt 0.546667 0.880000
vt 0.500000 0.786667
vt 0.453333 0.880000
vt 0.546667 0.880000
vt 0.500000 0.786667
vt 0.453333 0.880000
vt 0.546667 0.880000
vt 0.500000 0.786667
vt 0.453333 0.880000
vt 0.546667 0.880000
vt 0.500000 0.786667
vt 0.453333 0.880000
vt 0.546667 0.880000
vt 0.500000 0.786667
vt 0.453333 0.880000
vt 0.546667 0.880000
vt 0.500000 0.786667
vt 0.453333 0.880000
vt 0.546667 0.880000
vt 0.500000 0.786667
vt 0.453333 0.880000
vt 0.546667 0.880000
vt 0.500000 0.786667
vt 0.453333 0.880000
vt 0.546667 0.880000
vt 0.500000 0.786667
vt 0.453333 0.880000
vt 0.546667 0.880000
vt 0.500000 0.786667
vt 0.453333 0.880000
vt 0.546667 0.880000
vt 0.500000 0.786667
vt 0.453333 0.880000
vt 0.546667 0.880000
vt 0.500000 0.786667
vt 0.453333 0.880000
vt 0.546667 0.880000
vt 0.500000 0.786667
vt 0.453333 0.880000
vt 0.546667 0.880000
vt 0.500000 0.786667
vt 0.453333 0.880000
vt 0.546667 0.880000
vt 0.500000 0.786667
vt 0.453333 0.880000
vt 0.546667 0.880000
vt 0.500000 0.786667
vt 0.453333 0.880000
vt 0.546667 0.880000
vt 0.500000 0.786667
vt 0.453333 0.880000
vt 0.546667 0.880000
vt 0.500000 0.786667
vt 0.453333 0.880000
vt 0.546667 0.880000
vt 0.500000 0.786667
vt 0.453333 0.880000
vt 0.546667 0.880000
vt 0.500000 0.786667
vt 0.453333 0.880000
vt 0.546667 0.880000
vt 0.500000 0.786667
vt 0.453333 0.880000
vt 0.546667 0.880000
vt 0.500000 0.786667
vt 0.453333 0.880000
vt 0.546667 0.880000
vt 0.500000 0.786667
vt 0.453333 0.880000
vt 0.546667 0.880000
vt 0.500000 0.786667
vt 0.453333 0.880000
vt 0.546667 0.880000
vt 0.500000 0.786667
vt 0.453333 0.880000
vt 0.546667 0.880000
vt 0.500000 0.786667
vt 0.453333 0.880000
vt 0.546667 0.880000
vt 0.500000 0.786667
vt 0.453333 0.880000
vt 0.546667 0.880000
vt 0.500000 0.786667
vt 0.453333 0.880000
vt 0.546667 0.880000
vt 0.500000 0.786667
vt 0.453333 0.880000
vt 0.546667 0.880000
vt 0.500000 0.786667
vt 0.453333 0.880000
vt 0.546667 0.880000
vt 0.500000 0.786667
vt 0.453333 0.880000
vt 0.546667 0.880000
vt 0.500000 0.786667
vt 0.453333 0.880000
vt 0.546667 0.880000
vt 0.500000 0.786667
vt 0.453333 0.880000
vt 0.546667 0.880000
vt 0.500000 0.786667
vt 0.453333 0.880000
vt 0.546667 0.880000
vt 0.500000 0.786667
vt 0.453333 0.880000
vt 0.546667 0.880000
vt 0.500000 0.786667
vt 0.453333 0.880000
vt 0.546667 0.880000
vt 0.500000 0.786667
vt 0.453333 0.880000
vt 0.546667 0.880000
vt 0.500000 0.786667
vt 0.453333 0.880000
vt 0.546667 0.880000
vt 0.500000 0.786667
vt 0.453333 0.880000
vt 0.546667 0.880000
vt 0.500000 0.786667
vt 0.453333 0.880000
vt 0.546667 0.880000
vt 0.500000 0.786667
vt 0.453333 0.880000
vt 0.546667 0.880000
vt 0.500000 0.786667
vt 0.453333 0.880000
vt 0.546667 0.880000
vt 0.500000 0.786667
vt 0.453333 0.880000
vt 0.546667 0.880000
vt 0.500000 0.786667
vt 0.453333 0.880000
vt 0.546667 0.880000
vt 0.500000 0.786667
vt 0.453333 0.880000
vt 0.546667 0.880000
vt 0.500000 0.786667
vt 0.453333 0.880000
vt 0.546667 0.880000
vt 0.500000 0.786667
vt 0.453333 0.880000
vt 0.546667 0.880000
vt 0.500000 0.786667
vt 0.453333 0.880000
vt 0.546667 0.880000
vt 0.500000 0.786667
vt 0.453333 0.880000
vt 0.546667 0.880000
vt 0.500000 0.786667
vt 0.453333 0.880000
vt 0.546667 0.880000
vt 0.500000 0.786667
vt 0.453333 0.880000
vt 0.546667 0.880000
vt 0.500000 0.786667
vt 0.453333 0.880000
vt 0.546667 0.880000
vt 0.500000 0.786667
vt 0.453333 0.880000
vt 0.546667 0.880000
vt 0.500000 0.786667
vt 0.453333 0.880000
vt 0.546667 0.880000
vt 0.500000 0.786667
vt 0.453333 0.880000
vt 0.546667 0.880000
vt 0.500000 0.786667
vt 0.453333 0.880000
vt 0.546667 0.880000
vt 0.500000 0.786667
vt 0.453333 0.880000
vt 0.546667 0.880000
vt 0.500000 0.786667
vt 0.453333 0.880000
vt 0.546667 0.880000
vt 0.500000 0.786667
vt 0.453333 0.880000
vt 0.546667 0.880000
vt 0.500000 0.786667
vt 0.453333 0.880000
vt 0.546667 0.880000
vt 0.500000 0.786667
vt 0.453333 0.880000
vt 0.546667 0.880000
vt 0.500000 0.786667
vt 0.453333 0.880000
vt 0.546667 0.880000
vt 0.500000 0.786667
vt 0.453333 0.880000
vt 0.546667 0.880000
vt 0.500000 0.786667
vt 0.453333 0.880000
vt 0.546667 0.880000
vt 0.500000 0.786667
vt 0.453333 0.880000
vt 0.546667 0.880000
vt 0.500000 0.786667
vt 0.453333 0.880000
vt 0.546667 0.880000
vt 0.500000 0.786667
vt 0.453333 0.880000
vt 0.546667 0.880000
vt 0.500000 0.786667
vt 0.453333 0.880000
vt 0.546667 0.880000
vt 0.500000 0.786667
vt 0.453333 0.880000
vt 0.546667 0.880000
vt 0.500000 0.786667
vt 0.453333 0.880000
vt 0.546667 0.880000
vt 0.500000 0.786667
vt 0.453333 0.880000
vt 0.546667 0.880000
vt 0.500000 0.786667
vt 0.453333 0.880000
vt 0.546667 0.880000
vt 0.500000 0.786667
vt 0.453333 0.880000
vt 0.546667 0.880000
vt 0.500000 0.786667
vt 0.453333 0.880000
vt 0.546667 0.880000
vt 0.500000 0.786667
vt 0.453333 0.880000
vt 0.546667 0.880000
vt 0.500000 0.786667
vt 0.453333 0.880000
vt 0.546667 0.880000
vt 0.500000 0.786667
vt 0.453333 0.880000
vt 0.546667 0.880000
vt 0.500000 0.786667
vt 0.453333 0.880000
vt 0.546667 0.880000
vt 0.500000 0.786667
vt 0.453333 0.880000
vt 0.546667 0.880000
vt 0.500000 0.786667
vt 0.453333 0.880000
vt 0.546667 0.880000
vt 0.500000 0.786667
vt 0.786667 0.880000
vt 0.880000 0.880000
vt 0.833333 0.786667
vt 0.786667 0.880000
vt 0.880000 0.880000
vt 0.833333 0.786667
vt 0.786667 0.880000
vt 0.880000 0.880000
vt 0.833333 0.786667
vt 0.786667 0.880000
vt 0.880000 0.880000
vt 0.833333 0.786667
vt 0.786667 0.880000
vt 0.880000 0.880000
vt 0.833333 0.786667
vt 0.786667 0.880000
vt 0.880000 0.880000
vt 0.833333 0.786667
vt 0.786667 0.880000
vt 0.880000 0.880000
vt 0.833333 0.786667
vt 0.786667 0.880000
vt 0.880000 0.880000
vt 0.833333 0.786667
vt 0.786667 0.880000
vt 0.880000 0.880000
vt 0.833333 0.786667
vt 0.786667 0.880000
vt 0.880000 0.880000
vt 0.833333 0.786667
vt 0.786667 0.880000
vt 0.880000 0.880000
vt 0.833333 0.786667
vt 0.786667 0.880000
vt 0.880000 0.880000
vt 0.833333 0.786667
vt 0.786667 0.880000
vt 0.880000 0.880000
vt 0.833333 0.786667
vt 0.786667 0.880000
vt 0.880000 0.880000
vt 0.833333 0.786667
vt 0.786667 0.880000
vt 0.880000 0.880000
vt 0.833333 0.786667
vt 0.786667 0.880000
vt 0.880000 0.880000
vt 0.833333 0.786667
vt 0.786667 0.880000
vt 0.880000 0.880000
vt 0.833333 0.786667
vt 0.786667 0.880000
vt 0.880000 0.880000
vt 0.833333 0.786667
vt 0.786667 0.880000
vt 0.880000 0.880000
vt 0.833333 0.786667
vt 0.786667 0.880000
vt 0.880000 0.880000
vt 0.833333 0.786667
vt 0.786667 0.880000
vt 0.880000 0.880000
vt 0.833333 0.786667
vt 0.786667 0.880000
vt 0.880000 0.880000
vt 0.833333 0.786667
vt 0.786667 0.880000
vt 0.880000 0.880000
vt 0.833333 0.786667
vt 0.786667 0.880000
vt 0.880000 0.880000
vt 0.833333 0.786667
vt 0.786667 0.880000
vt 0.880000 0.880000
vt 0.833333 0.786667
vt 0.786667 0.880000
vt 0.880000 0.880000
vt 0.833333 0.786667
vn -0.565104 -0.246612 0.787299
vn -0.826972 0.532267 0.181134
vn -0.973599 0.024028 -0.226998
vn -0.826972 0.532267 0.181134
vn -0.702176 0.711228 -0.033212
vn -0.973599 0.024028 -0.226998
vn -0.826972 0.532267 0.181134
vn -0.234186 0.739584 0.631009
vn -0.702176 0.711228 -0.033212
vn -0.234186 0.739584 0.631009
vn -0.013336 0.989417 0.144488
vn -0.702176 0.711228 -0.033212
vn -0.234186 0.739584 0.631009
vn 0.298610 0.432372 0.850815
vn -0.013336 0.989417 0.144488
vn 0.298610 0.432372 0.850815
vn 0.689410 0.695635 0.202005
vn -0.013336 0.989417 0.144488
vn 0.298610 0.432372 0.850815
vn 0.537180 -0.056910 0.841545
vn 0.689410 0.695635 0.202005
vn 0.537180 -0.056910 0.841545
vn 0.994402 0.001976 0.105648
vn 0.689410 0.695635 0.202005
vn 0.537180 -0.056910 0.841545
vn 0.480067 -0.569502 0.667235
vn 0.994402 0.001976 0.105648
vn 0.480067 -0.569502 0.667235
vn 0.722979 -0.685225 -0.088139
vn 0.994402 0.001976 0.105648
vn 0.480067 -0.569502 0.667235
vn 0.070722 -0.943913 0.322530
vn 0.722979 -0.685225 -0.088139
vn 0.070722 -0.943913 0.322530
vn 0.034139 -0.963413 -0.265838
vn 0.722979 -0.685225 -0.088139
vn 0.070722 -0.943913 0.322530
vn -0.584016 -0.809162 -0.064666
vn 0.034139 -0.963413 -0.265838
vn -0.584016 -0.809162 -0.064666
vn -0.668607 -0.669631 -0.323355
vn 0.034139 -0.963413 -0.265838
vn -0.584016 -0.809162 -0.064666
vn -0.565104 -0.246612 0.787299
vn -0.668607 -0.669631 -0.323355
vn -0.565104 -0.246612 0.787299
vn -0.973599 0.024028 -0.226998
vn -0.668607 -0.669631 -0.323355
vn -0.973599 0.024028 -0.226998
vn -0.702176 0.711228 -0.033212
vn -0.334640 0.256755 -0.906693
vn -0.702176 0.711228 -0.033212
vn -0.530958 0.819378 -0.216110
vn -0.334640 0.256755 -0.906693
vn -0.702176 0.711228 -0.033212
vn -0.013336 0.989417 0.144488
vn -0.530958 0.819378 -0.216110
vn -0.013336 0.989417 0.144488
vn 0.189741 0.937973 -0.290179
vn -0.530958 0.819378 -0.216110
vn -0.013336 0.989417 0.144488
vn 0.689410 0.695635 0.202005
vn 0.189741 0.937973 -0.290179
vn 0.689410 0.695635 0.202005
vn 0.696791 0.567771 -0.438313
vn 0.189741 0.937973 -0.290179
vn 0.689410 0.695635 0.202005
vn 0.994402 0.001976 0.105648
vn 0.696791 0.567771 -0.438313
vn 0.994402 0.001976 0.105648
vn 0.813379 0.033469 -0.580771
vn 0.696791 0.567771 -0.438313
vn 0.994402 0.001976 0.105648
vn 0.722979 -0.685225 -0.088139
vn 0.813379 0.033469 -0.580771
vn 0.722979 -0.685225 -0.088139
vn 0.565270 -0.464094 -0.681972
vn 0.813379 0.033469 -0.580771
vn 0.722979 -0.685225 -0.088139
vn 0.034139 -0.963413 -0.265838
vn 0.565270 -0.464094 -0.681972
vn 0.034139 -0.963413 -0.265838
vn -0.022761 -0.729249 -0.683870
vn 0.565270 -0.464094 -0.681972
vn 0.034139 -0.963413 -0.265838
vn -0.668607 -0.669631 -0.323355
vn -0.022761 -0.729249 -0.683870
vn -0.668607 -0.669631 -0.323355
vn -0.697574 -0.487838 -0.524790
vn -0.022761 -0.729249 -0.683870
vn -0.668607 -0.669631 -0.323355
vn -0.973599 0.024028 -0.226998
vn -0.697574 -0.487838 -0.524790
vn -0.973599 0.024028 -0.226998
vn -0.334640 0.256755 -0.906693
vn -0.697574 -0.487838 -0.524790
vn -0.565104 -0.246612 0.787299
vn -0.234186 0.739584 0.631009
vn -0.826972 0.532267 0.181134
vn -0.334640 0.256755 -0.906693
vn -0.530958 0.819378 -0.216110
vn 0.189741 0.937973 -0.290179
vn -0.565104 -0.246612 0.787299
vn 0.298610 0.432372 0.850815
vn -0.234186 0.739584 0.631009
vn -0.334640 0.256755 -0.906693
vn 0.189741 0.937973 -0.290179
vn 0.696791 0.567771 -0.438313
vn -0.565104 -0.246612 0.787299
vn 0.537180 -0.056910 0.841545
vn 0.298610 0.432372 0.850815
vn -0.334640 0.256755 -0.906693
vn 0.696791 0.567771 -0.438313
vn 0.813379 0.033469 -0.580771
vn -0.565104 -0.246612 0.787299
vn 0.480067 -0.569502 0.667235
vn 0.537180 -0.056910 0.841545
vn -0.334640 0.256755 -0.906693
vn 0.813379 0.033469 -0.580771
vn 0.565270 -0.464094 -0.681972
vn -0.565104 -0.246612 0.787299
vn 0.070722 -0.943913 0.322530
vn 0.480067 -0.569502 0.667235
vn -0.334640 0.256755 -0.906693
vn 0.565270 -0.464094 -0.681972
vn -0.022761 -0.729249 -0.683870
vn -0.565104 -0.246612 0.787299
vn -0.584016 -0.809162 -0.064666
vn 0.070722 -0.943913 0.322530
vn -0.334640 0.256755 -0.906693
vn -0.022761 -0.729249 -0.683870
vn -0.697574 -0.487838 -0.524790
vn 0.000000 1.000000 0.000000
vn -0.386260 0.922390 0.000000
vn -0.271693 0.917546 0.290332
vn 0.000000 1.000000 0.000000
vn -0.271693 0.917546 0.290332
vn -0.000000 0.912777 0.408458
vn 0.000000 1.000000 0.000000
vn -0.000000 0.912777 0.408458
vn 0.271693 0.917546 0.290332
vn 0.000000 1.000000 0.000000
vn 0.271693 0.917546 0.290332
vn 0.386260 0.922390 0.000000
vn 0.000000 1.000000 0.000000
vn 0.386260 0.922390 0.000000
vn 0.271693 0.917546 -0.290332
vn 0.000000 1.000000 0.000000
vn 0.271693 0.917546 -0.290332
vn 0.000000 0.912777 -0.408458
vn 0.000000 1.000000 0.000000
vn 0.000000 0.912777 -0.408458
vn -0.271693 0.917546 -0.290332
vn 0.000000 1.000000 0.000000
vn -0.271693 0.917546 -0.290332
vn -0.386260 0.922390 -0.000000
vn -0.271693 0.917546 0.290332
vn -0.386260 0.922390 0.000000
vn -0.511374 0.663236 0.546457
vn -0.386260 0.922390 0.000000
vn -0.736997 0.675896 0.000000
vn -0.511374 0.663236 0.546457
vn -0.000000 0.912777 0.408458
vn -0.271693 0.917546 0.290332
vn -0.000000 0.651261 0.758854
vn -0.271693 0.917546 0.290332
vn -0.511374 0.663236 0.546457
vn -0.000000 0.651261 0.758854
vn 0.271693 0.917546 0.290332
vn -0.000000 0.912777 0.408458
vn 0.511374 0.663236 0.546457
vn -0.000000 0.912777 0.408458
vn -0.000000 0.651261 0.758854
vn 0.511374 0.663236 0.546457
vn 0.386260 0.922390 0.000000
vn 0.271693 0.917546 0.290332
vn 0.736997 0.675896 0.000000
vn 0.271693 0.917546 0.290332
vn 0.511374 0.663236 0.546457
vn 0.736997 0.675896 0.000000
vn 0.271693 0.917546 -0.290332
vn 0.386260 0.922390 0.000000
vn 0.511374 0.663236 -0.546457
vn 0.386260 0.922390 0.000000
vn 0.736997 0.675896 0.000000
vn 0.511374 0.663236 -0.546457
vn 0.000000 0.912777 -0.408458
vn 0.271693 0.917546 -0.290332
vn 0.000000 0.651261 -0.758854
vn 0.271693 0.917546 -0.290332
vn 0.511374 0.663236 -0.546457
vn 0.000000 0.651261 -0.758854
vn -0.271693 0.917546 -0.290332
vn 0.000000 0.912777 -0.408458
vn -0.511374 0.663236 -0.546457
vn 0.000000 0.912777 -0.408458
vn 0.000000 0.651261 -0.758854
vn -0.511374 0.663236 -0.546457
vn -0.386260 0.922390 -0.000000
vn -0.271693 0.917546 -0.290332
vn -0.736997 0.675896 -0.000000
vn -0.271693 0.917546 -0.290332
vn -0.511374 0.663236 -0.546457
vn -0.736997 0.675896 -0.000000
vn -0.511374 0.663236 0.546457
vn -0.736997 0.675896 0.000000
vn -0.662309 0.245851 0.707746
vn -0.736997 0.675896 0.000000
vn -0.967236 0.253880 0.000000
vn -0.662309 0.245851 0.707746
vn -0.000000 0.651261 0.758854
vn -0.511374 0.663236 0.546457
vn -0.000000 0.238538 0.971133
vn -0.511374 0.663236 0.546457
vn -0.662309 0.245851 0.707746
vn -0.000000 0.238538 0.971133
vn 0.511374 0.663236 0.546457
vn -0.000000 0.651261 0.758854
vn 0.662309 0.245851 0.707746
vn -0.000000 0.651261 0.758854
vn -0.000000 0.238538 0.971133
vn 0.662309 0.245851 0.707746
vn 0.736997 0.675896 0.000000
vn 0.511374 0.663236 0.546457
vn 0.967236 0.253880 0.000000
vn 0.511374 0.663236 0.546457
vn 0.662309 0.245851 0.707746
vn 0.967236 0.253880 0.000000
vn 0.511374 0.663236 -0.546457
vn 0.736997 0.675896 0.000000
vn 0.662309 0.245851 -0.707746
vn 0.736997 0.675896 0.000000
vn 0.967236 0.253880 0.000000
vn 0.662309 0.245851 -0.707746
vn 0.000000 0.651261 -0.758854
vn 0.511374 0.663236 -0.546457
vn 0.000000 0.238538 -0.971133
vn 0.511374 0.663236 -0.546457
vn 0.662309 0.245851 -0.707746
vn 0.000000 0.238538 -0.971133
vn -0.511374 0.663236 -0.546457
vn 0.000000 0.651261 -0.758854
vn -0.662309 0.245851 -0.707746
vn 0.000000 0.651261 -0.758854
vn 0.000000 0.238538 -0.971133
vn -0.662309 0.245851 -0.707746
vn -0.736997 0.675896 -0.000000
vn -0.511374 0.663236 -0.546457
vn -0.967236 0.253880 -0.000000
vn -0.511374 0.663236 -0.546457
vn -0.662309 0.245851 -0.707746
vn -0.967236 0.253880 -0.000000
vn -0.662309 0.245851 0.707746
vn -0.967236 0.253880 0.000000
vn -0.662309 -0.245851 0.707746
vn -0.967236 0.253880 0.000000
vn -0.967236 -0.253880 0.000000
vn -0.662309 -0.245851 0.707746
vn -0.000000 0.238538 0.971133
vn -0.662309 0.245851 0.707746
vn -0.000000 -0.238538 0.971133
vn -0.662309 0.245851 0.707746
vn -0.662309 -0.245851 0.707746
vn -0.000000 -0.238538 0.971133
vn 0.662309 0.245851 0.707746
vn -0.000000 0.238538 0.971133
vn 0.662309 -0.245851 0.707746
vn -0.000000 0.238538 0.971133
vn -0.000000 -0.238538 0.971133
vn 0.662309 -0.245851 0.707746
vn 0.967236 0.253880 0.000000
vn 0.662309 0.245851 0.707746
vn 0.967236 -0.253880 0.000000
vn 0.662309 0.245851 0.707746
vn 0.662309 -0.245851 0.707746
vn 0.967236 -0.253880 0.000000
vn 0.662309 0.245851 -0.707746
vn 0.967236 0.253880 0.000000
vn 0.662309 -0.245851 -0.707746
vn 0.967236 0.253880 0.000000
vn 0.967236 -0.253880 0.000000
vn 0.662309 -0.245851 -0.707746
vn 0.000000 0.238538 -0.971133
vn 0.662309 0.245851 -0.707746
vn 0.000000 -0.238538 -0.971133
vn 0.662309 0.245851 -0.707746
vn 0.662309 -0.245851 -0.707746
vn 0.000000 -0.238538 -0.971133
vn -0.662309 0.245851 -0.707746
vn 0.000000 0.238538 -0.971133
vn -0.662309 -0.245851 -0.707746
vn 0.000000 0.238538 -0.971133
vn 0.000000 -0.238538 -0.971133
vn -0.662309 -0.245851 -0.707746
vn -0.967236 0.253880 -0.000000
vn -0.662309 0.245851 -0.707746
vn -0.967236 -0.253880 -0.000000
vn -0.662309 0.245851 -0.707746
vn -0.662309 -0.245851 -0.707746
vn -0.967236 -0.253880 -0.000000
vn -0.662309 -0.245851 0.707746
vn -0.967236 -0.253880 0.000000
vn -0.511374 -0.663236 0.546457
vn -0.967236 -0.253880 0.000000
vn -0.736997 -0.675896 0.000000
vn -0.511374 -0.663236 0.546457
vn -0.000000 -0.238538 0.971133
vn -0.662309 -0.245851 0.707746
vn -0.000000 -0.651261 0.758854
vn -0.662309 -0.245851 0.707746
vn -0.511374 -0.663236 0.546457
vn -0.000000 -0.651261 0.758854
vn 0.662309 -0.245851 0.707746
vn -0.000000 -0.238538 0.971133
vn 0.511374 -0.663236 0.546457
vn -0.000000 -0.238538 0.971133
vn -0.000000 -0.651261 0.758854
vn 0.511374 -0.663236 0.546457
vn 0.967236 -0.253880 0.000000
vn 0.662309 -0.245851 0.707746
vn 0.736997 -0.675896 0.000000
vn 0.662309 -0.245851 0.707746
vn 0.511374 -0.663236 0.546457
vn 0.736997 -0.675896 0.000000
vn 0.662309 -0.245851 -0.707746
vn 0.967236 -0.253880 0.000000
vn 0.511374 -0.663236 -0.546457
vn 0.967236 -0.253880 0.000000
vn 0.736997 -0.675896 0.000000
vn 0.511374 -0.663236 -0.546457
vn 0.000000 -0.238538 -0.971133
vn 0.662309 -0.245851 -0.707746
vn 0.000000 -0.651261 -0.758854
vn 0.662309 -0.245851 -0.707746
vn 0.511374 -0.663236 -0.546457
vn 0.000000 -0.651261 -0.758854
vn -0.662309 -0.245851 -0.707746
vn 0.000000 -0.238538 -0.971133
vn -0.511374 -0.663236 -0.546457
vn 0.000000 -0.238538 -0.971133
vn 0.000000 -0.651261 -0.758854
vn -0.511374 -0.663236 -0.546457
vn -0.967236 -0.253880 -0.000000
vn -0.662309 -0.245851 -0.707746
vn -0.736997 -0.675896 -0.000000
vn -0.662309 -0.245851 -0.707746
vn -0.511374 -0.663236 -0.546457
vn -0.736997 -0.675896 -0.000000
vn -0.511374 -0.663236 0.546457
vn -0.736997 -0.675896 0.000000
vn -0.271693 -0.917546 0.290332
vn -0.736997 -0.675896 0.000000
vn -0.386260 -0.922390 0.000000
vn -0.271693 -0.917546 0.290332
vn -0.000000 -0.651261 0.758854
vn -0.511374 -0.663236 0.546457
vn -0.000000 -0.912777 0.408458
vn -0.511374 -0.663236 0.546457
vn -0.271693 -0.917546 0.290332
vn -0.000000 -0.912777 0.408458
vn 0.511374 -0.663236 0.546457
vn -0.000000 -0.651261 0.758854
vn 0.271693 -0.917546 0.290332
vn -0.000000 -0.651261 0.758854
vn -0.000000 -0.912777 0.408458
vn 0.271693 -0.917546 0.290332
vn 0.736997 -0.675896 0.000000
vn 0.511374 -0.663236 0.546457
vn 0.386260 -0.922390 0.000000
vn 0.511374 -0.663236 0.546457
vn 0.271693 -0.917546 0.290332
vn 0.386260 -0.922390 0.000000
vn 0.511374 -0.663236 -0.546457
vn 0.736997 -0.675896 0.000000
vn 0.271693 -0.917546 -0.290332
vn 0.736997 -0.675896 0.000000
vn 0.386260 -0.922390 0.000000
vn 0.271693 -0.917546 -0.290332
vn 0.000000 -0.651261 -0.758854
vn 0.511374 -0.663236 -0.546457
vn 0.000000 -0.912777 -0.408458
vn 0.511374 -0.663236 -0.546457
vn 0.271693 -0.917546 -0.290332
vn 0.000000 -0.912777 -0.408458
vn -0.511374 -0.663236 -0.546457
vn 0.000000 -0.651261 -0.758854
vn -0.271693 -0.917546 -0.290332
vn 0.000000 -0.651261 -0.758854
vn 0.000000 -0.912777 -0.408458
vn -0.271693 -0.917546 -0.290332
vn -0.736997 -0.675896 -0.000000
vn -0.511374 -0.663236 -0.546457
vn -0.386260 -0.922390 -0.000000
vn -0.511374 -0.663236 -0.546457
vn -0.271693 -0.917546 -0.290332
vn -0.386260 -0.922390 -0.000000
vn -0.271693 -0.917546 0.290332
vn -0.386260 -0.922390 0.000000
vn -0.000000 -1.000000 0.000000
vn -0.000000 -0.912777 0.408458
vn -0.271693 -0.917546 0.290332
vn -0.000000 -1.000000 0.000000
vn 0.271693 -0.917546 0.290332
vn -0.000000 -0.912777 0.408458
vn 0.000000 -1.000000 0.000000
vn 0.386260 -0.922390 0.000000
vn 0.271693 -0.917546 0.290332
vn 0.000000 -1.000000 0.000000
vn 0.271693 -0.917546 -0.290332
vn 0.386260 -0.922390 0.000000
vn 0.000000 -1.000000 -0.000000
vn 0.000000 -0.912777 -0.408458
vn 0.271693 -0.917546 -0.290332
vn 0.000000 -1.000000 -0.000000
vn -0.271693 -0.917546 -0.290332
vn 0.000000 -0.912777 -0.408458
vn -0.000000 -1.000000 -0.000000
vn -0.386260 -0.922390 -0.000000
vn -0.271693 -0.917546 -0.290332
vn -0.000000 -1.000000 -0.000000
vn -0.884249 -0.412291 0.219362
vn -0.438408 0.609015 0.660984
vn -0.960658 0.272942 0.051378
vn -0.438408 0.609015 0.660984
vn -0.082849 0.794403 0.601714
vn -0.960658 0.272942 0.051378
vn -0.438408 0.609015 0.660984
vn 0.685785 0.236627 0.688263
vn -0.082849 0.794403 0.601714
vn 0.685785 0.236627 0.688263
vn 0.909455 0.381330 0.165767
vn -0.082849 0.794403 0.601714
vn 0.685785 0.236627 0.688263
vn 0.841861 -0.526769 -0.117407
vn 0.909455 0.381330 0.165767
vn 0.841861 -0.526769 -0.117407
vn 0.644921 -0.395425 -0.654000
vn 0.909455 0.381330 0.165767
vn 0.841861 -0.526769 -0.117407
vn -0.173556 -0.686422 -0.706189
vn 0.644921 -0.395425 -0.654000
vn -0.173556 -0.686422 -0.706189
vn -0.510871 -0.462412 -0.724697
vn 0.644921 -0.395425 -0.654000
vn -0.173556 -0.686422 -0.706189
vn -0.884249 -0.412291 0.219362
vn -0.510871 -0.462412 -0.724697
vn -0.884249 -0.412291 0.219362
vn -0.960658 0.272942 0.051378
vn -0.510871 -0.462412 -0.724697
vn -0.960658 0.272942 0.051378
vn -0.082849 0.794403 0.601714
vn -0.868071 0.434319 0.240456
vn -0.082849 0.794403 0.601714
vn 0.182171 0.769850 0.611673
vn -0.868071 0.434319 0.240456
vn -0.082849 0.794403 0.601714
vn 0.909455 0.381330 0.165767
vn 0.182171 0.769850 0.611673
vn 0.909455 0.381330 0.165767
vn 0.981132 0.193194 -0.007498
vn 0.182171 0.769850 0.611673
vn 0.909455 0.381330 0.165767
vn 0.644921 -0.395425 -0.654000
vn 0.981132 0.193194 -0.007498
vn 0.644921 -0.395425 -0.654000
vn 0.424391 -0.509172 -0.748757
vn 0.981132 0.193194 -0.007498
vn 0.644921 -0.395425 -0.654000
vn -0.510871 -0.462412 -0.724697
vn 0.424391 -0.509172 -0.748757
vn -0.510871 -0.462412 -0.724697
vn -0.719603 -0.367803 -0.588976
vn 0.424391 -0.509172 -0.748757
vn -0.510871 -0.462412 -0.724697
vn -0.960658 0.272942 0.051378
vn -0.719603 -0.367803 -0.588976
vn -0.960658 0.272942 0.051378
vn -0.868071 0.434319 0.240456
vn -0.719603 -0.367803 -0.588976
vn -0.884249 -0.412291 0.219362
vn 0.685785 0.236627 0.688263
vn -0.438408 0.609015 0.660984
vn -0.868071 0.434319 0.240456
vn 0.182171 0.769850 0.611673
vn 0.981132 0.193194 -0.007498
vn -0.884249 -0.412291 0.219362
vn 0.841861 -0.526769 -0.117407
vn 0.685785 0.236627 0.688263
vn -0.868071 0.434319 0.240456
vn 0.981132 0.193194 -0.007498
vn 0.424391 -0.509172 -0.748757
vn -0.884249 -0.412291 0.219362
vn -0.173556 -0.686422 -0.706189
vn 0.841861 -0.526769 -0.117407
vn -0.868071 0.434319 0.240456
vn 0.424391 -0.509172 -0.748757
vn -0.719603 -0.367803 -0.588976
usemtl Dragon_color_atlas
f 1/1/1 2/2/2 3/3/3
f 4/4/4 5/5/5 6/6/6
f 7/7/7 8/8/8 9/9/9
f 10/10/10 11/11/11 12/12/12
f 13/13/13 14/14/14 15/15/15
f 16/16/16 17/17/17 18/18/18
f 19/19/19 20/20/20 21/21/21
f 22/22/22 23/23/23 24/24/24
f 25/25/25 26/26/26 27/27/27
f 28/28/28 29/29/29 30/30/30
f 31/31/31 32/32/32 33/33/33
f 34/34/34 35/35/35 36/36/36
f 37/37/37 38/38/38 39/39/39
f 40/40/40 41/41/41 42/42/42
f 43/43/43 44/44/44 45/45/45
f 46/46/46 47/47/47 48/48/48
f 49/49/49 50/50/50 51/51/51
f 52/52/52 53/53/53 54/54/54
f 55/55/55 56/56/56 57/57/57
f 58/58/58 59/59/59 60/60/60
f 61/61/61 62/62/62 63/63/63
f 64/64/64 65/65/65 66/66/66
f 67/67/67 68/68/68 69/69/69
f 70/70/70 71/71/71 72/72/72
f 73/73/73 74/74/74 75/75/75
f 76/76/76 77/77/77 78/78/78
f 79/79/79 80/80/80 81/81/81
f 82/82/82 83/83/83 84/84/84
f 85/85/85 86/86/86 87/87/87
f 88/88/88 89/89/89 90/90/90
f 91/91/91 92/92/92 93/93/93
f 94/94/94 95/95/95 96/96/96
f 97/97/97 98/98/98 99/99/99
f 100/100/100 101/101/101 102/102/102
f 103/103/103 104/104/104 105/105/105
f 106/106/106 107/107/107 108/108/108
f 109/109/109 110/110/110 111/111/111
f 112/112/112 113/113/113 114/114/114
f 115/115/115 116/116/116 117/117/117
f 118/118/118 119/119/119 120/120/120
f 121/121/121 122/122/122 123/123/123
f 124/124/124 125/125/125 126/126/126
f 127/127/127 128/128/128 129/129/129
f 130/130/130 131/131/131 132/132/132
f 133/133/133 134/134/134 135/135/135
f 136/136/136 137/137/137 138/138/138
f 139/139/139 140/140/140 141/141/141
f 142/142/142 143/143/143 144/144/144
f 145/145/145 146/146/146 147/147/147
f 148/148/148 149/149/149 150/150/150
f 151/151/151 152/152/152 153/153/153
f 154/154/154 155/155/155 156/156/156
f 157/157/157 158/158/158 159/159/159
f 160/160/160 161/161/161 162/162/162
f 163/163/163 164/164/164 165/165/165
f 166/166/166 167/167/167 168/168/168
f 169/169/169 170/170/170 171/171/171
f 172/172/172 173/173/173 174/174/174
f 175/175/175 176/176/176 177/177/177
f 178/178/178 179/179/179 180/180/180
f 181/181/181 182/182/182 183/183/183
f 184/184/184 185/185/185 186/186/186
f 187/187/187 188/188/188 189/189/189
f 190/190/190 191/191/191 192/192/192
f 193/193/193 194/194/194 195/195/195
f 196/196/196 197/197/197 198/198/198
f 199/199/199 200/200/200 201/201/201
f 202/202/202 203/203/203 204/204/204
f 205/205/205 206/206/206 207/207/207
f 208/208/208 209/209/209 210/210/210
f 211/211/211 212/212/212 213/213/213
f 214/214/214 215/215/215 216/216/216
f 217/217/217 218/218/218 219/219/219
f 220/220/220 221/221/221 222/222/222
f 223/223/223 224/224/224 225/225/225
f 226/226/226 227/227/227 228/228/228
f 229/229/229 230/230/230 231/231/231
f 232/232/232 233/233/233 234/234/234
f 235/235/235 236/236/236 237/237/237
f 238/238/238 239/239/239 240/240/240
f 241/241/241 242/242/242 243/243/243
f 244/244/244 245/245/245 246/246/246
f 247/247/247 248/248/248 249/249/249
f 250/250/250 251/251/251 252/252/252
f 253/253/253 254/254/254 255/255/255
f 256/256/256 257/257/257 258/258/258
f 259/259/259 260/260/260 261/261/261
f 262/262/262 263/263/263 264/264/264
f 265/265/265 266/266/266 267/267/267
f 268/268/268 269/269/269 270/270/270
f 271/271/271 272/272/272 273/273/273
f 274/274/274 275/275/275 276/276/276
f 277/277/277 278/278/278 279/279/279
f 280/280/280 281/281/281 282/282/282
f 283/283/283 284/284/284 285/285/285
f 286/286/286 287/287/287 288/288/288
f 289/289/289 290/290/290 291/291/291
f 292/292/292 293/293/293 294/294/294
f 295/295/295 296/296/296 297/297/297
f 298/298/298 299/299/299 300/300/300
f 301/301/301 302/302/302 303/303/303
f 304/304/304 305/305/305 306/306/306
f 307/307/307 308/308/308 309/309/309
f 310/310/310 311/311/311 312/312/312
f 313/313/313 314/314/314 315/315/315
f 316/316/316 317/317/317 318/318/318
f 319/319/319 320/320/320 321/321/321
f 322/322/322 323/323/323 324/324/324
f 325/325/325 326/326/326 327/327/327
f 328/328/328 329/329/329 330/330/330
f 331/331/331 332/332/332 333/333/333
f 334/334/334 335/335/335 336/336/336
f 337/337/337 338/338/338 339/339/339
f 340/340/340 341/341/341 342/342/342
f 343/343/343 344/344/344 345/345/345
f 346/346/346 347/347/347 348/348/348
f 349/349/349 350/350/350 351/351/351
f 352/352/352 353/353/353 354/354/354
f 355/355/355 356/356/356 357/357/357
f 358/358/358 359/359/359 360/360/360
f 361/361/361 362/362/362 363/363/363
f 364/364/364 365/365/365 366/366/366
f 367/367/367 368/368/368 369/369/369
f 370/370/370 371/371/371 372/372/372
f 373/373/373 374/374/374 375/375/375
f 376/376/376 377/377/377 378/378/378
f 379/379/379 380/380/380 381/381/381
f 382/382/382 383/383/383 384/384/384
f 385/385/385 386/386/386 387/387/387
f 388/388/388 389/389/389 390/390/390
f 391/391/391 392/392/392 393/393/393
f 394/394/394 395/395/395 396/396/396
f 397/397/397 398/398/398 399/399/399
f 400/400/400 401/401/401 402/402/402
f 403/403/403 404/404/404 405/405/405
f 406/406/406 407/407/407 408/408/408
f 409/409/409 410/410/410 411/411/411
f 412/412/412 413/413/413 414/414/414
f 415/415/415 416/416/416 417/417/417
f 418/418/418 419/419/419 420/420/420
f 421/421/421 422/422/422 423/423/423
f 424/424/424 425/425/425 426/426/426
f 427/427/427 428/428/428 429/429/429
f 430/430/430 431/431/431 432/432/432
f 433/433/433 434/434/434 435/435/435
f 436/436/436 437/437/437 438/438/438
f 439/439/439 440/440/440 441/441/441
f 442/442/442 443/443/443 444/444/444
f 445/445/445 446/446/446 447/447/447
f 448/448/448 449/449/449 450/450/450
f 451/451/451 452/452/452 453/453/453
f 454/454/454 455/455/455 456/456/456
f 457/457/457 458/458/458 459/459/459
f 460/460/460 461/461/461 462/462/462
f 463/463/463 464/464/464 465/465/465
f 466/466/466 467/467/467 468/468/468
f 469/469/469 470/470/470 471/471/471
f 472/472/472 473/473/473 474/474/474
f 475/475/475 476/476/476 477/477/477
f 478/478/478 479/479/479 480/480/480
f 481/481/481 482/482/482 483/483/483
f 484/484/484 485/485/485 486/486/486
f 487/487/487 488/488/488 489/489/489
f 490/490/490 491/491/491 492/492/492
f 493/493/493 494/494/494 495/495/495
f 496/496/496 497/497/497 498/498/498
