# Obsidian West — joint-local part geometry, +Y up, +Z forward
mtllib materials.mtl
o Tail_02
v -0.476488 0.000000 0.071473
v -0.336928 0.340697 0.050539
v -0.569842 0.000000 -0.323524
v -0.336928 0.340697 0.050539
v -0.420512 0.364546 -0.345923
v -0.569842 0.000000 -0.323524
v -0.336928 0.340697 0.050539
v -0.000000 0.481818 0.000000
v -0.420512 0.364546 -0.345923
v -0.000000 0.481818 0.000000
v -0.060000 0.515545 -0.400000
v -0.420512 0.364546 -0.345923
v -0.000000 0.481818 0.000000
v 0.336928 0.340697 -0.050539
v -0.060000 0.515545 -0.400000
v 0.336928 0.340697 -0.050539
v 0.300512 0.364546 -0.454077
v -0.060000 0.515545 -0.400000
v 0.336928 0.340697 -0.050539
v 0.476488 0.000000 -0.071473
v 0.300512 0.364546 -0.454077
v 0.476488 0.000000 -0.071473
v 0.449842 0.000000 -0.476476
v 0.300512 0.364546 -0.454077
v 0.476488 0.000000 -0.071473
v 0.336928 -0.340697 -0.050539
v 0.449842 0.000000 -0.476476
v 0.336928 -0.340697 -0.050539
v 0.300512 -0.364546 -0.454077
v 0.449842 0.000000 -0.476476
v 0.336928 -0.340697 -0.050539
v 0.000000 -0.481818 0.000000
v 0.300512 -0.364546 -0.454077
v 0.000000 -0.481818 0.000000
v -0.060000 -0.515546 -0.400000
v 0.300512 -0.364546 -0.454077
v 0.000000 -0.481818 0.000000
v -0.336928 -0.340697 0.050539
v -0.060000 -0.515546 -0.400000
v -0.336928 -0.340697 0.050539
v -0.420512 -0.364546 -0.345923
v -0.060000 -0.515546 -0.400000
v -0.336928 -0.340697 0.050539
v -0.476488 0.000000 0.071473
v -0.420512 -0.364546 -0.345923
v -0.476488 0.000000 0.071473
v -0.569842 0.000000 -0.323524
v -0.420512 -0.364546 -0.345923
v -0.569842 0.000000 -0.323524
v -0.420512 0.364546 -0.345923
v -0.548839 0.000000 -0.735674
v -0.420512 0.364546 -0.345923
v -0.423235 0.306627 -0.754515
v -0.548839 0.000000 -0.735674
v -0.420512 0.364546 -0.345923
v -0.060000 0.515545 -0.400000
v -0.423235 0.306627 -0.754515
v -0.060000 0.515545 -0.400000
v -0.120000 0.433636 -0.800000
v -0.423235 0.306627 -0.754515
v -0.060000 0.515545 -0.400000
v 0.300512 0.364546 -0.454077
v -0.120000 0.433636 -0.800000
v 0.300512 0.364546 -0.454077
v 0.183235 0.306627 -0.845485
v -0.120000 0.433636 -0.800000
v 0.300512 0.364546 -0.454077
v 0.449842 0.000000 -0.476476
v 0.183235 0.306627 -0.845485
v 0.449842 0.000000 -0.476476
v 0.308839 0.000000 -0.864326
v 0.183235 0.306627 -0.845485
v 0.449842 0.000000 -0.476476
v 0.300512 -0.364546 -0.454077
v 0.308839 0.000000 -0.864326
v 0.300512 -0.364546 -0.454077
v 0.183235 -0.306627 -0.845485
v 0.308839 0.000000 -0.864326
v 0.300512 -0.364546 -0.454077
v -0.060000 -0.515546 -0.400000
v 0.183235 -0.306627 -0.845485
v -0.060000 -0.515546 -0.400000
v -0.120000 -0.433636 -0.800000
v 0.183235 -0.306627 -0.845485
v -0.060000 -0.515546 -0.400000
v -0.420512 -0.364546 -0.345923
v -0.120000 -0.433636 -0.800000
v -0.420512 -0.364546 -0.345923
v -0.423235 -0.306627 -0.754515
v -0.120000 -0.433636 -0.800000
v -0.420512 -0.364546 -0.345923
v -0.569842 0.000000 -0.323524
v -0.423235 -0.306627 -0.754515
v -0.569842 0.000000 -0.323524
v -0.548839 0.000000 -0.735674
v -0.423235 -0.306627 -0.754515
v -0.476488 0.000000 0.071473
v -0.000000 0.481818 0.000000
v -0.336928 0.340697 0.050539
v -0.548839 0.000000 -0.735674
v -0.423235 0.306627 -0.754515
v -0.120000 0.433636 -0.800000
v -0.476488 0.000000 0.071473
v 0.336928 0.340697 -0.050539
v -0.000000 0.481818 0.000000
v -0.548839 0.000000 -0.735674
v -0.120000 0.433636 -0.800000
v 0.183235 0.306627 -0.845485
v -0.476488 0.000000 0.071473
v 0.476488 0.000000 -0.071473
v 0.336928 0.340697 -0.050539
v -0.548839 0.000000 -0.735674
v 0.183235 0.306627 -0.845485
v 0.308839 0.000000 -0.864326
v -0.476488 0.000000 0.071473
v 0.336928 -0.340697 -0.050539
v 0.476488 0.000000 -0.071473
v -0.548839 0.000000 -0.735674
v 0.308839 0.000000 -0.864326
v 0.183235 -0.306627 -0.845485
v -0.476488 0.000000 0.071473
v 0.000000 -0.481818 0.000000
v 0.336928 -0.340697 -0.050539
v -0.548839 0.000000 -0.735674
v 0.183235 -0.306627 -0.845485
v -0.120000 -0.433636 -0.800000
v -0.476488 0.000000 0.071473
v -0.336928 -0.340697 0.050539
v 0.000000 -0.481818 0.000000
v -0.548839 0.000000 -0.735674
v -0.120000 -0.433636 -0.800000
v -0.423235 -0.306627 -0.754515
v 0.000000 0.539636 -0.180000
v -0.216370 0.496693 -0.180000
v -0.152997 0.496693 -0.094095
v 0.000000 0.539636 -0.180000
v -0.152997 0.496693 -0.094095
v -0.000000 0.496693 -0.058513
v 0.000000 0.539636 -0.180000
v -0.000000 0.496693 -0.058513
v 0.152997 0.496693 -0.094095
v 0.000000 0.539636 -0.180000
v 0.152997 0.496693 -0.094095
v 0.216370 0.496693 -0.180000
v 0.000000 0.539636 -0.180000
v 0.216370 0.496693 -0.180000
v 0.152997 0.496693 -0.265905
v 0.000000 0.539636 -0.180000
v 0.152997 0.496693 -0.265905
v 0.000000 0.496693 -0.301487
v 0.000000 0.539636 -0.180000
v 0.000000 0.496693 -0.301487
v -0.152997 0.496693 -0.265905
v 0.000000 0.539636 -0.180000
v -0.152997 0.496693 -0.265905
v -0.216370 0.496693 -0.180000
v -0.152997 0.496693 -0.094095
v -0.216370 0.496693 -0.180000
v -0.275690 0.376368 -0.025205
v -0.216370 0.496693 -0.180000
v -0.389885 0.376368 -0.180000
v -0.275690 0.376368 -0.025205
v -0.000000 0.496693 -0.058513
v -0.152997 0.496693 -0.094095
v -0.000000 0.376368 0.038913
v -0.152997 0.496693 -0.094095
v -0.275690 0.376368 -0.025205
v -0.000000 0.376368 0.038913
v 0.152997 0.496693 -0.094095
v -0.000000 0.496693 -0.058513
v 0.275690 0.376368 -0.025205
v -0.000000 0.496693 -0.058513
v -0.000000 0.376368 0.038913
v 0.275690 0.376368 -0.025205
v 0.216370 0.496693 -0.180000
v 0.152997 0.496693 -0.094095
v 0.389885 0.376368 -0.180000
v 0.152997 0.496693 -0.094095
v 0.275690 0.376368 -0.025205
v 0.389885 0.376368 -0.180000
v 0.152997 0.496693 -0.265905
v 0.216370 0.496693 -0.180000
v 0.275690 0.376368 -0.334795
v 0.216370 0.496693 -0.180000
v 0.389885 0.376368 -0.180000
v 0.275690 0.376368 -0.334795
v 0.000000 0.496693 -0.301487
v 0.152997 0.496693 -0.265905
v 0.000000 0.376368 -0.398913
v 0.152997 0.496693 -0.265905
v 0.275690 0.376368 -0.334795
v 0.000000 0.376368 -0.398913
v -0.152997 0.496693 -0.265905
v 0.000000 0.496693 -0.301487
v -0.275690 0.376368 -0.334795
v 0.000000 0.496693 -0.301487
v 0.000000 0.376368 -0.398913
v -0.275690 0.376368 -0.334795
v -0.216370 0.496693 -0.180000
v -0.152997 0.496693 -0.265905
v -0.389885 0.376368 -0.180000
v -0.152997 0.496693 -0.265905
v -0.275690 0.376368 -0.334795
v -0.389885 0.376368 -0.180000
v -0.275690 0.376368 -0.025205
v -0.389885 0.376368 -0.180000
v -0.343780 0.202493 0.013026
v -0.389885 0.376368 -0.180000
v -0.486179 0.202493 -0.180000
v -0.343780 0.202493 0.013026
v -0.000000 0.376368 0.038913
v -0.275690 0.376368 -0.025205
v -0.000000 0.202493 0.092980
v -0.275690 0.376368 -0.025205
v -0.343780 0.202493 0.013026
v -0.000000 0.202493 0.092980
v 0.275690 0.376368 -0.025205
v -0.000000 0.376368 0.038913
v 0.343780 0.202493 0.013026
v -0.000000 0.376368 0.038913
v -0.000000 0.202493 0.092980
v 0.343780 0.202493 0.013026
v 0.389885 0.376368 -0.180000
v 0.275690 0.376368 -0.025205
v 0.486179 0.202493 -0.180000
v 0.275690 0.376368 -0.025205
v 0.343780 0.202493 0.013026
v 0.486179 0.202493 -0.180000
v 0.275690 0.376368 -0.334795
v 0.389885 0.376368 -0.180000
v 0.343780 0.202493 -0.373026
v 0.389885 0.376368 -0.180000
v 0.486179 0.202493 -0.180000
v 0.343780 0.202493 -0.373026
v 0.000000 0.376368 -0.398913
v 0.275690 0.376368 -0.334795
v 0.000000 0.202493 -0.452980
v 0.275690 0.376368 -0.334795
v 0.343780 0.202493 -0.373026
v 0.000000 0.202493 -0.452980
v -0.275690 0.376368 -0.334795
v 0.000000 0.376368 -0.398913
v -0.343780 0.202493 -0.373026
v 0.000000 0.376368 -0.398913
v 0.000000 0.202493 -0.452980
v -0.343780 0.202493 -0.373026
v -0.389885 0.376368 -0.180000
v -0.275690 0.376368 -0.334795
v -0.486179 0.202493 -0.180000
v -0.275690 0.376368 -0.334795
v -0.343780 0.202493 -0.373026
v -0.486179 0.202493 -0.180000
v -0.343780 0.202493 0.013026
v -0.486179 0.202493 -0.180000
v -0.343780 0.009507 0.013026
v -0.486179 0.202493 -0.180000
v -0.486179 0.009507 -0.180000
v -0.343780 0.009507 0.013026
v -0.000000 0.202493 0.092980
v -0.343780 0.202493 0.013026
v -0.000000 0.009507 0.092980
v -0.343780 0.202493 0.013026
v -0.343780 0.009507 0.013026
v -0.000000 0.009507 0.092980
v 0.343780 0.202493 0.013026
v -0.000000 0.202493 0.092980
v 0.343780 0.009507 0.013026
v -0.000000 0.202493 0.092980
v -0.000000 0.009507 0.092980
v 0.343780 0.009507 0.013026
v 0.486179 0.202493 -0.180000
v 0.343780 0.202493 0.013026
v 0.486179 0.009507 -0.180000
v 0.343780 0.202493 0.013026
v 0.343780 0.009507 0.013026
v 0.486179 0.009507 -0.180000
v 0.343780 0.202493 -0.373026
v 0.486179 0.202493 -0.180000
v 0.343780 0.009507 -0.373026
v 0.486179 0.202493 -0.180000
v 0.486179 0.009507 -0.180000
v 0.343780 0.009507 -0.373026
v 0.000000 0.202493 -0.452980
v 0.343780 0.202493 -0.373026
v 0.000000 0.009507 -0.452980
v 0.343780 0.202493 -0.373026
v 0.343780 0.009507 -0.373026
v 0.000000 0.009507 -0.452980
v -0.343780 0.202493 -0.373026
v 0.000000 0.202493 -0.452980
v -0.343780 0.009507 -0.373026
v 0.000000 0.202493 -0.452980
v 0.000000 0.009507 -0.452980
v -0.343780 0.009507 -0.373026
v -0.486179 0.202493 -0.180000
v -0.343780 0.202493 -0.373026
v -0.486179 0.009507 -0.180000
v -0.343780 0.202493 -0.373026
v -0.343780 0.009507 -0.373026
v -0.486179 0.009507 -0.180000
v -0.343780 0.009507 0.013026
v -0.486179 0.009507 -0.180000
v -0.275690 -0.164368 -0.025205
v -0.486179 0.009507 -0.180000
v -0.389885 -0.164368 -0.180000
v -0.275690 -0.164368 -0.025205
v -0.000000 0.009507 0.092980
v -0.343780 0.009507 0.013026
v -0.000000 -0.164368 0.038913
v -0.343780 0.009507 0.013026
v -0.275690 -0.164368 -0.025205
v -0.000000 -0.164368 0.038913
v 0.343780 0.009507 0.013026
v -0.000000 0.009507 0.092980
v 0.275690 -0.164368 -0.025205
v -0.000000 0.009507 0.092980
v -0.000000 -0.164368 0.038913
v 0.275690 -0.164368 -0.025205
v 0.486179 0.009507 -0.180000
v 0.343780 0.009507 0.013026
v 0.389885 -0.164368 -0.180000
v 0.343780 0.009507 0.013026
v 0.275690 -0.164368 -0.025205
v 0.389885 -0.164368 -0.180000
v 0.343780 0.009507 -0.373026
v 0.486179 0.009507 -0.180000
v 0.275690 -0.164368 -0.334795
v 0.486179 0.009507 -0.180000
v 0.389885 -0.164368 -0.180000
v 0.275690 -0.164368 -0.334795
v 0.000000 0.009507 -0.452980
v 0.343780 0.009507 -0.373026
v 0.000000 -0.164368 -0.398913
v 0.343780 0.009507 -0.373026
v 0.275690 -0.164368 -0.334795
v 0.000000 -0.164368 -0.398913
v -0.343780 0.009507 -0.373026
v 0.000000 0.009507 -0.452980
v -0.275690 -0.164368 -0.334795
v 0.000000 0.009507 -0.452980
v 0.000000 -0.164368 -0.398913
v -0.275690 -0.164368 -0.334795
v -0.486179 0.009507 -0.180000
v -0.343780 0.009507 -0.373026
v -0.389885 -0.164368 -0.180000
v -0.343780 0.009507 -0.373026
v -0.275690 -0.164368 -0.334795
v -0.389885 -0.164368 -0.180000
v -0.275690 -0.164368 -0.025205
v -0.389885 -0.164368 -0.180000
v -0.152997 -0.284693 -0.094095
v -0.389885 -0.164368 -0.180000
v -0.216370 -0.284693 -0.180000
v -0.152997 -0.284693 -0.094095
v -0.000000 -0.164368 0.038913
v -0.275690 -0.164368 -0.025205
v -0.000000 -0.284693 -0.058513
v -0.275690 -0.164368 -0.025205
v -0.152997 -0.284693 -0.094095
v -0.000000 -0.284693 -0.058513
v 0.275690 -0.164368 -0.025205
v -0.000000 -0.164368 0.038913
v 0.152997 -0.284693 -0.094095
v -0.000000 -0.164368 0.038913
v -0.000000 -0.284693 -0.058513
v 0.152997 -0.284693 -0.094095
v 0.389885 -0.164368 -0.180000
v 0.275690 -0.164368 -0.025205
v 0.216370 -0.284693 -0.180000
v 0.275690 -0.164368 -0.025205
v 0.152997 -0.284693 -0.094095
v 0.216370 -0.284693 -0.180000
v 0.275690 -0.164368 -0.334795
v 0.389885 -0.164368 -0.180000
v 0.152997 -0.284693 -0.265905
v 0.389885 -0.164368 -0.180000
v 0.216370 -0.284693 -0.180000
v 0.152997 -0.284693 -0.265905
v 0.000000 -0.164368 -0.398913
v 0.275690 -0.164368 -0.334795
v 0.000000 -0.284693 -0.301487
v 0.275690 -0.164368 -0.334795
v 0.152997 -0.284693 -0.265905
v 0.000000 -0.284693 -0.301487
v -0.275690 -0.164368 -0.334795
v 0.000000 -0.164368 -0.398913
v -0.152997 -0.284693 -0.265905
v 0.000000 -0.164368 -0.398913
v 0.000000 -0.284693 -0.301487
v -0.152997 -0.284693 -0.265905
v -0.389885 -0.164368 -0.180000
v -0.275690 -0.164368 -0.334795
v -0.216370 -0.284693 -0.180000
v -0.275690 -0.164368 -0.334795
v -0.152997 -0.284693 -0.265905
v -0.216370 -0.284693 -0.180000
v -0.152997 -0.284693 -0.094095
v -0.216370 -0.284693 -0.180000
v -0.000000 -0.327636 -0.180000
v -0.000000 -0.284693 -0.058513
v -0.152997 -0.284693 -0.094095
v -0.000000 -0.327636 -0.180000
v 0.152997 -0.284693 -0.094095
v -0.000000 -0.284693 -0.058513
v 0.000000 -0.327636 -0.180000
v 0.216370 -0.284693 -0.180000
v 0.152997 -0.284693 -0.094095
v 0.000000 -0.327636 -0.180000
v 0.152997 -0.284693 -0.265905
v 0.216370 -0.284693 -0.180000
v 0.000000 -0.327636 -0.180000
v 0.000000 -0.284693 -0.301487
v 0.152997 -0.284693 -0.265905
v 0.000000 -0.327636 -0.180000
v -0.152997 -0.284693 -0.265905
v 0.000000 -0.284693 -0.301487
v -0.000000 -0.327636 -0.180000
v -0.216370 -0.284693 -0.180000
v -0.152997 -0.284693 -0.265905
v -0.000000 -0.327636 -0.180000
v -0.187909 0.361364 -0.220000
v -0.058067 0.455611 -0.068160
v -0.090196 0.728528 -0.447900
v -0.058067 0.455611 -0.068160
v -0.027872 0.773767 -0.375017
v -0.090196 0.728528 -0.447900
v -0.058067 0.455611 -0.068160
v 0.152022 0.419612 -0.126158
v -0.027872 0.773767 -0.375017
v 0.152022 0.419612 -0.126158
v 0.072970 0.756487 -0.402856
v -0.027872 0.773767 -0.375017
v 0.152022 0.419612 -0.126158
v 0.152022 0.303115 -0.313842
v 0.072970 0.756487 -0.402856
v 0.152022 0.303115 -0.313842
v 0.072970 0.700568 -0.492944
v 0.072970 0.756487 -0.402856
v 0.152022 0.303115 -0.313842
v -0.058067 0.267116 -0.371840
v 0.072970 0.700568 -0.492944
v -0.058067 0.267116 -0.371840
v -0.027872 0.683289 -0.520783
v 0.072970 0.700568 -0.492944
v -0.058067 0.267116 -0.371840
v -0.187909 0.361364 -0.220000
v -0.027872 0.683289 -0.520783
v -0.187909 0.361364 -0.220000
v -0.090196 0.728528 -0.447900
v -0.027872 0.683289 -0.520783
v -0.090196 0.728528 -0.447900
v -0.027872 0.773767 -0.375017
v -0.009000 1.054126 -0.650000
v -0.027872 0.773767 -0.375017
v -0.002781 1.058640 -0.642727
v -0.009000 1.054126 -0.650000
v -0.027872 0.773767 -0.375017
v 0.072970 0.756487 -0.402856
v -0.002781 1.058640 -0.642727
v 0.072970 0.756487 -0.402856
v 0.007281 1.056916 -0.645505
v -0.002781 1.058640 -0.642727
v 0.072970 0.756487 -0.402856
v 0.072970 0.700568 -0.492944
v 0.007281 1.056916 -0.645505
v 0.072970 0.700568 -0.492944
v 0.007281 1.051336 -0.654495
v 0.007281 1.056916 -0.645505
v 0.072970 0.700568 -0.492944
v -0.027872 0.683289 -0.520783
v 0.007281 1.051336 -0.654495
v -0.027872 0.683289 -0.520783
v -0.002781 1.049612 -0.657272
v 0.007281 1.051336 -0.654495
v -0.027872 0.683289 -0.520783
v -0.090196 0.728528 -0.447900
v -0.002781 1.049612 -0.657272
v -0.090196 0.728528 -0.447900
v -0.009000 1.054126 -0.650000
v -0.002781 1.049612 -0.657272
v -0.187909 0.361364 -0.220000
v 0.152022 0.419612 -0.126158
v -0.058067 0.455611 -0.068160
v -0.009000 1.054126 -0.650000
v -0.002781 1.058640 -0.642727
v 0.007281 1.056916 -0.645505
v -0.187909 0.361364 -0.220000
v 0.152022 0.303115 -0.313842
v 0.152022 0.419612 -0.126158
v -0.009000 1.054126 -0.650000
v 0.007281 1.056916 -0.645505
v 0.007281 1.051336 -0.654495
v -0.187909 0.361364 -0.220000
v -0.058067 0.267116 -0.371840
v 0.152022 0.303115 -0.313842
v -0.009000 1.054126 -0.650000
v 0.007281 1.051336 -0.654495
v -0.002781 1.049612 -0.657272
vt 0.120000 0.880000
vt 0.213333 0.880000
vt 0.166667 0.786667
vt 0.120000 0.880000
vt 0.213333 0.880000
vt 0.166667 0.786667
vt 0.120000 0.880000
vt 0.213333 0.880000
vt 0.166667 0.786667
vt 0.120000 0.880000
vt 0.213333 0.880000
vt 0.166667 0.786667
vt 0.120000 0.880000
vt 0.213333 0.880000
vt 0.166667 0.786667
vt 0.120000 0.880000
vt 0.213333 0.880000
vt 0.166667 0.786667
vt 0.120000 0.880000
vt 0.213333 0.880000
vt 0.166667 0.786667
vt 0.120000 0.880000
vt 0.213333 0.880000
vt 0.166667 0.786667
vt 0.120000 0.880000
vt 0.213333 0.880000
vt 0.166667 0.786667
vt 0.120000 0.880000
vt 0.213333 0.880000
vt 0.166667 0.786667
vt 0.120000 0.880000
vt 0.213333 0.880000
vt 0.166667 0.786667
vt 0.120000 0.880000
vt 0.213333 0.880000
vt 0.166667 0.786667
vt 0.120000 0.880000
vt 0.213333 0.880000
vt 0.166667 0.786667
vt 0.120000 0.880000
vt 0.213333 0.880000
vt 0.166667 0.786667
vt 0.120000 0.880000
vt 0.213333 0.880000
vt 0.166667 0.786667
vt 0.120000 0.880000
vt 0.213333 0.880000
vt 0.166667 0.786667
vt 0.120000 0.880000
vt 0.213333 0.880000
vt 0.166667 0.786667
vt 0.120000 0.880000
vt 0.213333 0.880000
vt 0.166667 0.786667
vt 0.120000 0.880000
vt 0.213333 0.880000
vt 0.166667 0.786667
vt 0.120000 0.880000
vt 0.213333 0.880000
vt 0.166667 0.786667
vt 0.120000 0.880000
vt 0.213333 0.880000
vt 0.166667 0.786667
vt 0.120000 0.880000
vt 0.213333 0.880000
vt 0.166667 0.786667
vt 0.120000 0.880000
vt 0.213333 0.880000
vt 0.166667 0.786667
vt 0.120000 0.880000
vt 0.213333 0.880000
vt 0.166667 0.786667
vt 0.120000 0.880000
vt 0.213333 0.880000
vt 0.166667 0.786667
vt 0.120000 0.880000
vt 0.213333 0.880000
vt 0.166667 0.786667
vt 0.120000 0.880000
vt 0.213333 0.880000
vt 0.166667 0.786667
vt 0.120000 0.880000
vt 0.213333 0.880000
vt 0.166667 0.786667
vt 0.120000 0.880000
vt 0.213333 0.880000
vt 0.166667 0.786667
vt 0.120000 0.880000
vt 0.213333 0.880000
vt 0.166667 0.786667
vt 0.120000 0.880000
vt 0.213333 0.880000
vt 0.166667 0.786667
vt 0.120000 0.880000
vt 0.213333 0.880000
vt 0.166667 0.786667
vt 0.120000 0.880000
vt 0.213333 0.880000
vt 0.166667 0.786667
vt 0.120000 0.880000
vt 0.213333 0.880000
vt 0.166667 0.786667
vt 0.120000 0.880000
vt 0.213333 0.880000
vt 0.166667 0.786667
vt 0.120000 0.880000
vt 0.213333 0.880000
vt 0.166667 0.786667
vt 0.120000 0.880000
vt 0.213333 0.880000
vt 0.166667 0.786667
vt 0.120000 0.880000
vt 0.213333 0.880000
vt 0.166667 0.786667
vt 0.120000 0.880000
vt 0.213333 0.880000
vt 0.166667 0.786667
vt 0.120000 0.880000
vt 0.213333 0.880000
vt 0.166667 0.786667
vt 0.120000 0.880000
vt 0.213333 0.880000
vt 0.166667 0.786667
vt 0.120000 0.880000
vt 0.213333 0.880000
vt 0.166667 0.786667
vt 0.120000 0.880000
vt 0.213333 0.880000
vt 0.166667 0.786667
vt 0.120000 0.880000
vt 0.213333 0.880000
vt 0.166667 0.786667
vt 0.453333 0.880000
vt 0.546667 0.880000
vt 0.500000 0.786667
vt 0.453333 0.880000
vt 0.546667 0.880000
vt 0.500000 0.786667
vt 0.453333 0.880000
vt 0.546667 0.880000
vt 0.500000 0.786667
vt 0.453333 0.880000
vt 0.546667 0.880000
vt 0.500000 0.786667
vt 0.453333 0.880000
vt 0.546667 0.880000
vt 0.500000 0.786667
vt 0.453333 0.880000
vt 0.546667 0.880000
vt 0.500000 0.786667
vt 0.453333 0.880000
vt 0.546667 0.880000
vt 0.500000 0.786667
vt 0.453333 0.880000
vt 0.546667 0.880000
vt 0.500000 0.786667
vt 0.453333 0.880000
vt 0.546667 0.880000
vt 0.500000 0.786667
vt 0.453333 0.880000
vt 0.546667 0.880000
vt 0.500000 0.786667
vt 0.453333 0.880000
vt 0.546667 0.880000
vt 0.500000 0.786667
vt 0.453333 0.880000
vt 0.546667 0.880000
vt 0.500000 0.786667
vt 0.453333 0.880000
vt 0.546667 0.880000
vt 0.500000 0.786667
vt 0.453333 0.880000
vt 0.546667 0.880000
vt 0.500000 0.786667
vt 0.453333 0.880000
vt 0.546667 0.880000
vt 0.500000 0.786667
vt 0.453333 0.880000
vt 0.546667 0.880000
vt 0.500000 0.786667
vt 0.453333 0.880000
vt 0.546667 0.880000
vt 0.500000 0.786667
vt 0.453333 0.880000
vt 0.546667 0.880000
vt 0.500000 0.786667
vt 0.453333 0.880000
vt 0.546667 0.880000
vt 0.500000 0.786667
vt 0.453333 0.880000
vt 0.546667 0.880000
vt 0.500000 0.786667
vt 0.453333 0.880000
vt 0.546667 0.880000
vt 0.500000 0.786667
vt 0.453333 0.880000
vt 0.546667 0.880000
vt 0.500000 0.786667
vt 0.453333 0.880000
vt 0.546667 0.880000
vt 0.500000 0.786667
vt 0.453333 0.880000
vt 0.546667 0.880000
vt 0.500000 0.786667
vt 0.453333 0.880000
vt 0.546667 0.880000
vt 0.500000 0.786667
vt 0.453333 0.880000
vt 0.546667 0.880000
vt 0.500000 0.786667
vt 0.453333 0.880000
vt 0.546667 0.880000
vt 0.500000 0.786667
vt 0.453333 0.880000
vt 0.546667 0.880000
vt 0.500000 0.786667
vt 0.453333 0.880000
vt 0.546667 0.880000
vt 0.500000 0.786667
vt 0.453333 0.880000
vt 0.546667 0.880000
vt 0.500000 0.786667
vt 0.453333 0.880000
vt 0.546667 0.880000
vt 0.500000 0.786667
vt 0.453333 0.880000
vt 0.546667 0.880000
vt 0.500000 0.786667
vt 0.453333 0.880000
vt 0.546667 0.880000
vt 0.500000 0.786667
vt 0.453333 0.880000
vt 0.546667 0.880000
vt 0.500000 0.786667
vt 0.453333 0.880000
vt 0.546667 0.880000
vt 0.500000 0.786667
vt 0.453333 0.880000
vt 0.546667 0.880000
vt 0.500000 0.786667
vt 0.453333 0.880000
vt 0.546667 0.880000
vt 0.500000 0.786667
vt 0.453333 0.880000
vt 0.546667 0.880000
vt 0.500000 0.786667
vt 0.453333 0.880000
vt 0.546667 0.880000
vt 0.500000 0.786667
vt 0.453333 0.880000
vt 0.546667 0.880000
vt 0.500000 0.786667
vt 0.453333 0.880000
vt 0.546667 0.880000
vt 0.500000 0.786667
vt 0.453333 0.880000
vt 0.546667 0.880000
vt 0.500000 0.786667
vt 0.453333 0.880000
vt 0.546667 0.880000
vt 0.500000 0.786667
vt 0.453333 0.880000
vt 0.546667 0.880000
vt 0.500000 0.786667
vt 0.453333 0.880000
vt 0.546667 0.880000
vt 0.500000 0.786667
vt 0.453333 0.880000
vt 0.546667 0.880000
vt 0.500000 0.786667
vt 0.453333 0.880000
vt 0.546667 0.880000
vt 0.500000 0.786667
vt 0.453333 0.880000
vt 0.546667 0.880000
vt 0.500000 0.786667
vt 0.453333 0.880000
vt 0.546667 0.880000
vt 0.500000 0.786667
vt 0.453333 0.880000
vt 0.546667 0.880000
vt 0.500000 0.786667
vt 0.453333 0.880000
vt 0.546667 0.880000
vt 0.500000 0.786667
vt 0.453333 0.880000
vt 0.546667 0.880000
vt 0.500000 0.786667
vt 0.453333 0.880000
vt 0.546667 0.880000
vt 0.500000 0.786667
vt 0.453333 0.880000
vt 0.546667 0.880000
vt 0.500000 0.786667
vt 0.453333 0.880000
vt 0.546667 0.880000
vt 0.500000 0.786667
vt 0.453333 0.880000
vt 0.546667 0.880000
vt 0.500000 0.786667
vt 0.453333 0.880000
vt 0.546667 0.880000
vt 0.500000 0.786667
vt 0.453333 0.880000
vt 0.546667 0.880000
vt 0.500000 0.786667
vt 0.453333 0.880000
vt 0.546667 0.880000
vt 0.500000 0.786667
vt 0.453333 0.880000
vt 0.546667 0.880000
vt 0.500000 0.786667
vt 0.453333 0.880000
vt 0.546667 0.880000
vt 0.500000 0.786667
vt 0.453333 0.880000
vt 0.546667 0.880000
vt 0.500000 0.786667
vt 0.453333 0.880000
vt 0.546667 0.880000
vt 0.500000 0.786667
vt 0.453333 0.880000
vt 0.546667 0.880000
vt 0.500000 0.786667
vt 0.453333 0.880000
vt 0.546667 0.880000
vt 0.500000 0.786667
vt 0.453333 0.880000
vt 0.546667 0.880000
vt 0.500000 0.786667
vt 0.453333 0.880000
vt 0.546667 0.880000
vt 0.500000 0.786667
vt 0.453333 0.880000
vt 0.546667 0.880000
vt 0.500000 0.786667
vt 0.453333 0.880000
vt 0.546667 0.880000
vt 0.500000 0.786667
vt 0.453333 0.880000
vt 0.546667 0.880000
vt 0.500000 0.786667
vt 0.453333 0.880000
vt 0.546667 0.880000
vt 0.500000 0.786667
vt 0.453333 0.880000
vt 0.546667 0.880000
vt 0.500000 0.786667
vt 0.453333 0.880000
vt 0.546667 0.880000
vt 0.500000 0.786667
vt 0.453333 0.880000
vt 0.546667 0.880000
vt 0.500000 0.786667
vt 0.453333 0.880000
vt 0.546667 0.880000
vt 0.500000 0.786667
vt 0.453333 0.880000
vt 0.546667 0.880000
vt 0.500000 0.786667
vt 0.453333 0.880000
vt 0.546667 0.880000
vt 0.500000 0.786667
vt 0.453333 0.880000
vt 0.546667 0.880000
vt 0.500000 0.786667
vt 0.453333 0.880000
vt 0.546667 0.880000
vt 0.500000 0.786667
vt 0.453333 0.880000
vt 0.546667 0.880000
vt 0.500000 0.786667
vt 0.453333 0.880000
vt 0.546667 0.880000
vt 0.500000 0.786667
vt 0.453333 0.880000
vt 0.546667 0.880000
vt 0.500000 0.786667
vt 0.453333 0.880000
vt 0.546667 0.880000
vt 0.500000 0.786667
vt 0.453333 0.880000
vt 0.546667 0.880000
vt 0.500000 0.786667
vt 0.453333 0.880000
vt 0.546667 0.880000
vt 0.500000 0.786667
vt 0.453333 0.880000
vt 0.546667 0.880000
vt 0.500000 0.786667
vt 0.453333 0.880000
vt 0.546667 0.880000
vt 0.500000 0.786667
vt 0.453333 0.880000
vt 0.546667 0.880000
vt 0.500000 0.786667
vt 0.453333 0.880000
vt 0.546667 0.880000
vt 0.500000 0.786667
vt 0.453333 0.880000
vt 0.546667 0.880000
vt 0.500000 0.786667
vt 0.453333 0.880000
vt 0.546667 0.880000
vt 0.500000 0.786667
vt 0.453333 0.880000
vt 0.546667 0.880000
vt 0.500000 0.786667
vt 0.453333 0.880000
vt 0.546667 0.880000
vt 0.500000 0.786667
vt 0.453333 0.880000
vt 0.546667 0.880000
vt 0.500000 0.786667
vt 0.453333 0.880000
vt 0.546667 0.880000
vt 0.500000 0.786667
vt 0.453333 0.880000
vt 0.546667 0.880000
vt 0.500000 0.786667
vt 0.786667 0.880000
vt 0.880000 0.880000
vt 0.833333 0.786667
vt 0.786667 0.880000
vt 0.880000 0.880000
vt 0.833333 0.786667
vt 0.786667 0.880000
vt 0.880000 0.880000
vt 0.833333 0.786667
vt 0.786667 0.880000
vt 0.880000 0.880000
vt 0.833333 0.786667
vt 0.786667 0.880000
vt 0.880000 0.880000
vt 0.833333 0.786667
vt 0.786667 0.880000
vt 0.880000 0.880000
vt 0.833333 0.786667
vt 0.786667 0.880000
vt 0.880000 0.880000
vt 0.833333 0.786667
vt 0.786667 0.880000
vt 0.880000 0.880000
vt 0.833333 0.786667
vt 0.786667 0.880000
vt 0.880000 0.880000
vt 0.833333 0.786667
vt 0.786667 0.880000
vt 0.880000 0.880000
vt 0.833333 0.786667
vt 0.786667 0.880000
vt 0.880000 0.880000
vt 0.833333 0.786667
vt 0.786667 0.880000
vt 0.880000 0.880000
vt 0.833333 0.786667
vt 0.786667 0.880000
vt 0.880000 0.880000
vt 0.833333 0.786667
vt 0.786667 0.880000
vt 0.880000 0.880000
vt 0.833333 0.786667
vt 0.786667 0.880000
vt 0.880000 0.880000
vt 0.833333 0.786667
vt 0.786667 0.880000
vt 0.880000 0.880000
vt 0.833333 0.786667
vt 0.786667 0.880000
vt 0.880000 0.880000
vt 0.833333 0.786667
vt 0.786667 0.880000
vt 0.880000 0.880000
vt 0.833333 0.786667
vt 0.786667 0.880000
vt 0.880000 0.880000
vt 0.833333 0.786667
vt 0.786667 0.880000
vt 0.880000 0.880000
vt 0.833333 0.786667
vt 0.786667 0.880000
vt 0.880000 0.880000
vt 0.833333 0.786667
vt 0.786667 0.880000
vt 0.880000 0.880000
vt 0.833333 0.786667
vt 0.786667 0.880000
vt 0.880000 0.880000
vt 0.833333 0.786667
vt 0.786667 0.880000
vt 0.880000 0.880000
vt 0.833333 0.786667
vt 0.786667 0.880000
vt 0.880000 0.880000
vt 0.833333 0.786667
vt 0.786667 0.880000
vt 0.880000 0.880000
vt 0.833333 0.786667
vn -0.154342 -0.043174 0.987074
vn -0.713445 0.572367 0.404217
vn -0.995776 0.006691 0.091574
vn -0.713445 0.572367 0.404217
vn -0.701924 0.710667 0.047496
vn -0.995776 0.006691 0.091574
vn -0.713445 0.572367 0.404217
vn -0.011522 0.753896 0.656893
vn -0.701924 0.710667 0.047496
vn -0.011522 0.753896 0.656893
vn -0.001861 0.998343 -0.057513
vn -0.701924 0.710667 0.047496
vn -0.011522 0.753896 0.656893
vn 0.465755 0.466893 0.751720
vn -0.001861 0.998343 -0.057513
vn 0.465755 0.466893 0.751720
vn 0.694326 0.701204 -0.161941
vn -0.001861 0.998343 -0.057513
vn 0.465755 0.466893 0.751720
vn 0.640631 0.075098 0.764168
vn 0.694326 0.701204 -0.161941
vn 0.640631 0.075098 0.764168
vn 0.978820 -0.006691 -0.204615
vn 0.694326 0.701204 -0.161941
vn 0.640631 0.075098 0.764168
vn 0.582253 -0.349091 0.734246
vn 0.978820 -0.006691 -0.204615
vn 0.582253 -0.349091 0.734246
vn 0.684968 -0.710667 -0.160538
vn 0.978820 -0.006691 -0.204615
vn 0.582253 -0.349091 0.734246
vn 0.203746 -0.753896 0.624603
vn 0.684968 -0.710667 -0.160538
vn 0.203746 -0.753896 0.624603
vn -0.015095 -0.998343 -0.055528
vn 0.684968 -0.710667 -0.160538
vn 0.203746 -0.753896 0.624603
vn -0.522435 -0.765514 0.375566
vn -0.015095 -0.998343 -0.055528
vn -0.522435 -0.765514 0.375566
vn -0.711282 -0.701203 0.048900
vn -0.015095 -0.998343 -0.055528
vn -0.522435 -0.765514 0.375566
vn -0.154342 -0.043174 0.987074
vn -0.711282 -0.701203 0.048900
vn -0.154342 -0.043174 0.987074
vn -0.995776 0.006691 0.091574
vn -0.711282 -0.701203 0.048900
vn -0.995776 0.006691 0.091574
vn -0.701924 0.710667 0.047496
vn -0.462779 0.050401 -0.885040
vn -0.701924 0.710667 0.047496
vn -0.598016 0.750386 -0.281597
vn -0.462779 0.050401 -0.885040
vn -0.701924 0.710667 0.047496
vn -0.001861 0.998343 -0.057513
vn -0.598016 0.750386 -0.281597
vn -0.001861 0.998343 -0.057513
vn 0.017147 0.747581 -0.663950
vn -0.598016 0.750386 -0.281597
vn -0.001861 0.998343 -0.057513
vn 0.694326 0.701204 -0.161941
vn 0.017147 0.747581 -0.663950
vn 0.694326 0.701204 -0.161941
vn 0.359702 0.354338 -0.863168
vn 0.017147 0.747581 -0.663950
vn 0.694326 0.701204 -0.161941
vn 0.978820 -0.006691 -0.204615
vn 0.359702 0.354338 -0.863168
vn 0.978820 -0.006691 -0.204615
vn 0.410763 -0.083530 -0.907908
vn 0.359702 0.354338 -0.863168
vn 0.978820 -0.006691 -0.204615
vn 0.684968 -0.710667 -0.160538
vn 0.410763 -0.083530 -0.907908
vn 0.684968 -0.710667 -0.160538
vn 0.231707 -0.483765 -0.843969
vn 0.410763 -0.083530 -0.907908
vn 0.684968 -0.710667 -0.160538
vn -0.015095 -0.998343 -0.055528
vn 0.231707 -0.483765 -0.843969
vn -0.015095 -0.998343 -0.055528
vn -0.211194 -0.747581 -0.629699
vn 0.231707 -0.483765 -0.843969
vn -0.015095 -0.998343 -0.055528
vn -0.711282 -0.701203 0.048900
vn -0.211194 -0.747581 -0.629699
vn -0.711282 -0.701203 0.048900
vn -0.796554 -0.549628 -0.251816
vn -0.211194 -0.747581 -0.629699
vn -0.711282 -0.701203 0.048900
vn -0.995776 0.006691 0.091574
vn -0.796554 -0.549628 -0.251816
vn -0.995776 0.006691 0.091574
vn -0.462779 0.050401 -0.885040
vn -0.796554 -0.549628 -0.251816
vn -0.154342 -0.043174 0.987074
vn -0.011522 0.753896 0.656893
vn -0.713445 0.572367 0.404217
vn -0.462779 0.050401 -0.885040
vn -0.598016 0.750386 -0.281597
vn 0.017147 0.747581 -0.663950
vn -0.154342 -0.043174 0.987074
vn 0.465755 0.466893 0.751720
vn -0.011522 0.753896 0.656893
vn -0.462779 0.050401 -0.885040
vn 0.017147 0.747581 -0.663950
vn 0.359702 0.354338 -0.863168
vn -0.154342 -0.043174 0.987074
vn 0.640631 0.075098 0.764168
vn 0.465755 0.466893 0.751720
vn -0.462779 0.050401 -0.885040
vn 0.359702 0.354338 -0.863168
vn 0.410763 -0.083530 -0.907908
vn -0.154342 -0.043174 0.987074
vn 0.582253 -0.349091 0.734246
vn 0.640631 0.075098 0.764168
vn -0.462779 0.050401 -0.885040
vn 0.410763 -0.083530 -0.907908
vn 0.231707 -0.483765 -0.843969
vn -0.154342 -0.043174 0.987074
vn 0.203746 -0.753896 0.624603
vn 0.582253 -0.349091 0.734246
vn -0.462779 0.050401 -0.885040
vn 0.231707 -0.483765 -0.843969
vn -0.211194 -0.747581 -0.629699
vn -0.154342 -0.043174 0.987074
vn -0.522435 -0.765514 0.375566
vn 0.203746 -0.753896 0.624603
vn -0.462779 0.050401 -0.885040
vn -0.211194 -0.747581 -0.629699
vn -0.796554 -0.549628 -0.251816
vn 0.000000 1.000000 0.000000
vn -0.386260 0.922390 0.000000
vn -0.253371 0.855670 0.451256
vn 0.000000 1.000000 0.000000
vn -0.253371 0.855670 0.451256
vn -0.000000 0.801607 0.597851
vn 0.000000 1.000000 0.000000
vn -0.000000 0.801607 0.597851
vn 0.253371 0.855670 0.451256
vn 0.000000 1.000000 0.000000
vn 0.253371 0.855670 0.451256
vn 0.386260 0.922390 0.000000
vn 0.000000 1.000000 0.000000
vn 0.386260 0.922390 0.000000
vn 0.253371 0.855670 -0.451256
vn 0.000000 1.000000 0.000000
vn 0.253371 0.855670 -0.451256
vn 0.000000 0.801607 -0.597851
vn 0.000000 1.000000 0.000000
vn 0.000000 0.801607 -0.597851
vn -0.253371 0.855670 -0.451256
vn 0.000000 1.000000 0.000000
vn -0.253371 0.855670 -0.451256
vn -0.386260 0.922390 -0.000000
vn -0.253371 0.855670 0.451256
vn -0.386260 0.922390 0.000000
vn -0.413304 0.536042 0.736097
vn -0.386260 0.922390 0.000000
vn -0.736997 0.675896 0.000000
vn -0.413304 0.536042 0.736097
vn -0.000000 0.801607 0.597851
vn -0.253371 0.855670 0.451256
vn -0.000000 0.457801 0.889055
vn -0.253371 0.855670 0.451256
vn -0.413304 0.536042 0.736097
vn -0.000000 0.457801 0.889055
vn 0.253371 0.855670 0.451256
vn -0.000000 0.801607 0.597851
vn 0.413304 0.536042 0.736097
vn -0.000000 0.801607 0.597851
vn -0.000000 0.457801 0.889055
vn 0.413304 0.536042 0.736097
vn 0.386260 0.922390 0.000000
vn 0.253371 0.855670 0.451256
vn 0.736997 0.675896 0.000000
vn 0.253371 0.855670 0.451256
vn 0.413304 0.536042 0.736097
vn 0.736997 0.675896 0.000000
vn 0.253371 0.855670 -0.451256
vn 0.386260 0.922390 0.000000
vn 0.413304 0.536042 -0.736097
vn 0.386260 0.922390 0.000000
vn 0.736997 0.675896 0.000000
vn 0.413304 0.536042 -0.736097
vn 0.000000 0.801607 -0.597851
vn 0.253371 0.855670 -0.451256
vn 0.000000 0.457801 -0.889055
vn 0.253371 0.855670 -0.451256
vn 0.413304 0.536042 -0.736097
vn 0.000000 0.457801 -0.889055
vn -0.253371 0.855670 -0.451256
vn 0.000000 0.801607 -0.597851
vn -0.413304 0.536042 -0.736097
vn 0.000000 0.801607 -0.597851
vn 0.000000 0.457801 -0.889055
vn -0.413304 0.536042 -0.736097
vn -0.386260 0.922390 -0.000000
vn -0.253371 0.855670 -0.451256
vn -0.736997 0.675896 -0.000000
vn -0.253371 0.855670 -0.451256
vn -0.413304 0.536042 -0.736097
vn -0.736997 0.675896 -0.000000
vn -0.413304 0.536042 0.736097
vn -0.736997 0.675896 0.000000
vn -0.481696 0.178807 0.857903
vn -0.736997 0.675896 0.000000
vn -0.967236 0.253880 0.000000
vn -0.481696 0.178807 0.857903
vn -0.000000 0.457801 0.889055
vn -0.413304 0.536042 0.736097
vn -0.000000 0.145802 0.989314
vn -0.413304 0.536042 0.736097
vn -0.481696 0.178807 0.857903
vn -0.000000 0.145802 0.989314
vn 0.413304 0.536042 0.736097
vn -0.000000 0.457801 0.889055
vn 0.481696 0.178807 0.857903
vn -0.000000 0.457801 0.889055
vn -0.000000 0.145802 0.989314
vn 0.481696 0.178807 0.857903
vn 0.736997 0.675896 0.000000
vn 0.413304 0.536042 0.736097
vn 0.967236 0.253880 0.000000
vn 0.413304 0.536042 0.736097
vn 0.481696 0.178807 0.857903
vn 0.967236 0.253880 0.000000
vn 0.413304 0.536042 -0.736097
vn 0.736997 0.675896 0.000000
vn 0.481696 0.178807 -0.857903
vn 0.736997 0.675896 0.000000
vn 0.967236 0.253880 0.000000
vn 0.481696 0.178807 -0.857903
vn 0.000000 0.457801 -0.889055
vn 0.413304 0.536042 -0.736097
vn 0.000000 0.145802 -0.989314
vn 0.413304 0.536042 -0.736097
vn 0.481696 0.178807 -0.857903
vn 0.000000 0.145802 -0.989314
vn -0.413304 0.536042 -0.736097
vn 0.000000 0.457801 -0.889055
vn -0.481696 0.178807 -0.857903
vn 0.000000 0.457801 -0.889055
vn 0.000000 0.145802 -0.989314
vn -0.481696 0.178807 -0.857903
vn -0.736997 0.675896 -0.000000
vn -0.413304 0.536042 -0.736097
vn -0.967236 0.253880 -0.000000
vn -0.413304 0.536042 -0.736097
vn -0.481696 0.178807 -0.857903
vn -0.967236 0.253880 -0.000000
vn -0.481696 0.178807 0.857903
vn -0.967236 0.253880 0.000000
vn -0.481696 -0.178807 0.857903
vn -0.967236 0.253880 0.000000
vn -0.967236 -0.253880 0.000000
vn -0.481696 -0.178807 0.857903
vn -0.000000 0.145802 0.989314
vn -0.481696 0.178807 0.857903
vn -0.000000 -0.145802 0.989314
vn -0.481696 0.178807 0.857903
vn -0.481696 -0.178807 0.857903
vn -0.000000 -0.145802 0.989314
vn 0.481696 0.178807 0.857903
vn -0.000000 0.145802 0.989314
vn 0.481696 -0.178807 0.857903
vn -0.000000 0.145802 0.989314
vn -0.000000 -0.145802 0.989314
vn 0.481696 -0.178807 0.857903
vn 0.967236 0.253880 0.000000
vn 0.481696 0.178807 0.857903
vn 0.967236 -0.253880 0.000000
vn 0.481696 0.178807 0.857903
vn 0.481696 -0.178807 0.857903
vn 0.967236 -0.253880 0.000000
vn 0.481696 0.178807 -0.857903
vn 0.967236 0.253880 0.000000
vn 0.481696 -0.178807 -0.857903
vn 0.967236 0.253880 0.000000
vn 0.967236 -0.253880 0.000000
vn 0.481696 -0.178807 -0.857903
vn 0.000000 0.145802 -0.989314
vn 0.481696 0.178807 -0.857903
vn 0.000000 -0.145802 -0.989314
vn 0.481696 0.178807 -0.857903
vn 0.481696 -0.178807 -0.857903
vn 0.000000 -0.145802 -0.989314
vn -0.481696 0.178807 -0.857903
vn 0.000000 0.145802 -0.989314
vn -0.481696 -0.178807 -0.857903
vn 0.000000 0.145802 -0.989314
vn 0.000000 -0.145802 -0.989314
vn -0.481696 -0.178807 -0.857903
vn -0.967236 0.253880 -0.000000
vn -0.481696 0.178807 -0.857903
vn -0.967236 -0.253880 -0.000000
vn -0.481696 0.178807 -0.857903
vn -0.481696 -0.178807 -0.857903
vn -0.967236 -0.253880 -0.000000
vn -0.481696 -0.178807 0.857903
vn -0.967236 -0.253880 0.000000
vn -0.413304 -0.536042 0.736097
vn -0.967236 -0.253880 0.000000
vn -0.736997 -0.675896 0.000000
vn -0.413304 -0.536042 0.736097
vn -0.000000 -0.145802 0.989314
vn -0.481696 -0.178807 0.857903
vn -0.000000 -0.457801 0.889055
vn -0.481696 -0.178807 0.857903
vn -0.413304 -0.536042 0.736097
vn -0.000000 -0.457801 0.889055
vn 0.481696 -0.178807 0.857903
vn -0.000000 -0.145802 0.989314
vn 0.413304 -0.536042 0.736097
vn -0.000000 -0.145802 0.989314
vn -0.000000 -0.457801 0.889055
vn 0.413304 -0.536042 0.736097
vn 0.967236 -0.253880 0.000000
vn 0.481696 -0.178807 0.857903
vn 0.736997 -0.675896 0.000000
vn 0.481696 -0.178807 0.857903
vn 0.413304 -0.536042 0.736097
vn 0.736997 -0.675896 0.000000
vn 0.481696 -0.178807 -0.857903
vn 0.967236 -0.253880 0.000000
vn 0.413304 -0.536042 -0.736097
vn 0.967236 -0.253880 0.000000
vn 0.736997 -0.675896 0.000000
vn 0.413304 -0.536042 -0.736097
vn 0.000000 -0.145802 -0.989314
vn 0.481696 -0.178807 -0.857903
vn 0.000000 -0.457801 -0.889055
vn 0.481696 -0.178807 -0.857903
vn 0.413304 -0.536042 -0.736097
vn 0.000000 -0.457801 -0.889055
vn -0.481696 -0.178807 -0.857903
vn 0.000000 -0.145802 -0.989314
vn -0.413304 -0.536042 -0.736097
vn 0.000000 -0.145802 -0.989314
vn 0.000000 -0.457801 -0.889055
vn -0.413304 -0.536042 -0.736097
vn -0.967236 -0.253880 -0.000000
vn -0.481696 -0.178807 -0.857903
vn -0.736997 -0.675896 -0.000000
vn -0.481696 -0.178807 -0.857903
vn -0.413304 -0.536042 -0.736097
vn -0.736997 -0.675896 -0.000000
vn -0.413304 -0.536042 0.736097
vn -0.736997 -0.675896 0.000000
vn -0.253371 -0.855670 0.451256
vn -0.736997 -0.675896 0.000000
vn -0.386260 -0.922390 0.000000
vn -0.253371 -0.855670 0.451256
vn -0.000000 -0.457801 0.889055
vn -0.413304 -0.536042 0.736097
vn -0.000000 -0.801607 0.597851
vn -0.413304 -0.536042 0.736097
vn -0.253371 -0.855670 0.451256
vn -0.000000 -0.801607 0.597851
vn 0.413304 -0.536042 0.736097
vn -0.000000 -0.457801 0.889055
vn 0.253371 -0.855670 0.451256
vn -0.000000 -0.457801 0.889055
vn -0.000000 -0.801607 0.597851
vn 0.253371 -0.855670 0.451256
vn 0.736997 -0.675896 0.000000
vn 0.413304 -0.536042 0.736097
vn 0.386260 -0.922390 0.000000
vn 0.413304 -0.536042 0.736097
vn 0.253371 -0.855670 0.451256
vn 0.386260 -0.922390 0.000000
vn 0.413304 -0.536042 -0.736097
vn 0.736997 -0.675896 0.000000
vn 0.253371 -0.855670 -0.451256
vn 0.736997 -0.675896 0.000000
vn 0.386260 -0.922390 0.000000
vn 0.253371 -0.855670 -0.451256
vn 0.000000 -0.457801 -0.889055
vn 0.413304 -0.536042 -0.736097
vn 0.000000 -0.801607 -0.597851
vn 0.413304 -0.536042 -0.736097
vn 0.253371 -0.855670 -0.451256
vn 0.000000 -0.801607 -0.597851
vn -0.413304 -0.536042 -0.736097
vn 0.000000 -0.457801 -0.889055
vn -0.253371 -0.855670 -0.451256
vn 0.000000 -0.457801 -0.889055
vn 0.000000 -0.801607 -0.597851
vn -0.253371 -0.855670 -0.451256
vn -0.736997 -0.675896 -0.000000
vn -0.413304 -0.536042 -0.736097
vn -0.386260 -0.922390 -0.000000
vn -0.413304 -0.536042 -0.736097
vn -0.253371 -0.855670 -0.451256
vn -0.386260 -0.922390 -0.000000
vn -0.253371 -0.855670 0.451256
vn -0.386260 -0.922390 0.000000
vn -0.000000 -1.000000 0.000000
vn -0.000000 -0.801607 0.597851
vn -0.253371 -0.855670 0.451256
vn -0.000000 -1.000000 0.000000
vn 0.253371 -0.855670 0.451256
vn -0.000000 -0.801607 0.597851
vn 0.000000 -1.000000 0.000000
vn 0.386260 -0.922390 0.000000
vn 0.253371 -0.855670 0.451256
vn 0.000000 -1.000000 0.000000
vn 0.253371 -0.855670 -0.451256
vn 0.386260 -0.922390 0.000000
vn 0.000000 -1.000000 -0.000000
vn 0.000000 -0.801607 -0.597851
vn 0.253371 -0.855670 -0.451256
vn 0.000000 -1.000000 -0.000000
vn -0.253371 -0.855670 -0.451256
vn 0.000000 -0.801607 -0.597851
vn -0.000000 -1.000000 -0.000000
vn -0.386260 -0.922390 -0.000000
vn -0.253371 -0.855670 -0.451256
vn -0.000000 -1.000000 -0.000000
vn -0.832465 -0.521872 0.186149
vn -0.438385 0.460295 0.771976
vn -0.949776 0.300970 0.085694
vn -0.438385 0.460295 0.771976
vn -0.073298 0.692968 0.717233
vn -0.949776 0.300970 0.085694
vn -0.438385 0.460295 0.771976
vn 0.666851 0.021216 0.744889
vn -0.073298 0.692968 0.717233
vn 0.666851 0.021216 0.744889
vn 0.904476 0.374495 0.204150
vn -0.073298 0.692968 0.717233
vn 0.666851 0.021216 0.744889
vn 0.818617 -0.547953 -0.172084
vn 0.904476 0.374495 0.204150
vn 0.818617 -0.547953 -0.172084
vn 0.632294 -0.214329 -0.744491
vn 0.904476 0.374495 0.204150
vn 0.818617 -0.547953 -0.172084
vn -0.173549 -0.532924 -0.828174
vn 0.632294 -0.214329 -0.744491
vn -0.173549 -0.532924 -0.828174
vn -0.513697 -0.259771 -0.817701
vn 0.632294 -0.214329 -0.744491
vn -0.173549 -0.532924 -0.828174
vn -0.832465 -0.521872 0.186149
vn -0.513697 -0.259771 -0.817701
vn -0.832465 -0.521872 0.186149
vn -0.949776 0.300970 0.085694
vn -0.513697 -0.259771 -0.817701
vn -0.949776 0.300970 0.085694
vn -0.073298 0.692968 0.717233
vn -0.840377 0.426686 0.334225
vn -0.073298 0.692968 0.717233
vn 0.224633 0.658377 0.718387
vn -0.840377 0.426686 0.334225
vn -0.073298 0.692968 0.717233
vn 0.904476 0.374495 0.204150
vn 0.224633 0.658377 0.718387
vn 0.904476 0.374495 0.204150
vn 0.979468 0.199752 -0.027227
vn 0.224633 0.658377 0.718387
vn 0.904476 0.374495 0.204150
vn 0.632294 -0.214329 -0.744491
vn 0.979468 0.199752 -0.027227
vn 0.632294 -0.214329 -0.744491
vn 0.380862 -0.321467 -0.866951
vn 0.979468 0.199752 -0.027227
vn 0.632294 -0.214329 -0.744491
vn -0.513697 -0.259771 -0.817701
vn 0.380862 -0.321467 -0.866951
vn -0.513697 -0.259771 -0.817701
vn -0.744583 -0.185540 -0.641226
vn 0.380862 -0.321467 -0.866951
vn -0.513697 -0.259771 -0.817701
vn -0.949776 0.300970 0.085694
vn -0.744583 -0.185540 -0.641226
vn -0.949776 0.300970 0.085694
vn -0.840377 0.426686 0.334225
vn -0.744583 -0.185540 -0.641226
vn -0.832465 -0.521872 0.186149
vn 0.666851 0.021216 0.744889
vn -0.438385 0.460295 0.771976
vn -0.840377 0.426686 0.334225
vn 0.224633 0.658377 0.718387
vn 0.979468 0.199752 -0.027227
vn -0.832465 -0.521872 0.186149
vn 0.818617 -0.547953 -0.172084
vn 0.666851 0.021216 0.744889
vn -0.840377 0.426686 0.334225
vn 0.979468 0.199752 -0.027227
vn 0.380862 -0.321467 -0.866951
vn -0.832465 -0.521872 0.186149
vn -0.173549 -0.532924 -0.828174
vn 0.818617 -0.547953 -0.172084
vn -0.840377 0.426686 0.334225
vn 0.380862 -0.321467 -0.866951
vn -0.744583 -0.185540 -0.641226
usemtl Dragon_color_atlas
f 1/1/1 2/2/2 3/3/3
f 4/4/4 5/5/5 6/6/6
f 7/7/7 8/8/8 9/9/9
f 10/10/10 11/11/11 12/12/12
f 13/13/13 14/14/14 15/15/15
f 16/16/16 17/17/17 18/18/18
f 19/19/19 20/20/20 21/21/21
f 22/22/22 23/23/23 24/24/24
f 25/25/25 26/26/26 27/27/27
f 28/28/28 29/29/29 30/30/30
f 31/31/31 32/32/32 33/33/33
f 34/34/34 35/35/35 36/36/36
f 37/37/37 38/38/38 39/39/39
f 40/40/40 41/41/41 42/42/42
f 43/43/43 44/44/44 45/45/45
f 46/46/46 47/47/47 48/48/48
f 49/49/49 50/50/50 51/51/51
f 52/52/52 53/53/53 54/54/54
f 55/55/55 56/56/56 57/57/57
f 58/58/58 59/59/59 60/60/60
f 61/61/61 62/62/62 63/63/63
f 64/64/64 65/65/65 66/66/66
f 67/67/67 68/68/68 69/69/69
f 70/70/70 71/71/71 72/72/72
f 73/73/73 74/74/74 75/75/75
f 76/76/76 77/77/77 78/78/78
f 79/79/79 80/80/80 81/81/81
f 82/82/82 83/83/83 84/84/84
f 85/85/85 86/86/86 87/87/87
f 88/88/88 89/89/89 90/90/90
f 91/91/91 92/92/92 93/93/93
f 94/94/94 95/95/95 96/96/96
f 97/97/97 98/98/98 99/99/99
f 100/100/100 101/101/101 102/102/102
f 103/103/103 104/104/104 105/105/105
f 106/106/106 107/107/107 108/108/108
f 109/109/109 110/110/110 111/111/111
f 112/112/112 113/113/113 114/114/114
f 115/115/115 116/116/116 117/117/117
f 118/118/118 119/119/119 120/120/120
f 121/121/121 122/122/122 123/123/123
f 124/124/124 125/125/125 126/126/126
f 127/127/127 128/128/128 129/129/129
f 130/130/130 131/131/131 132/132/132
f 133/133/133 134/134/134 135/135/135
f 136/136/136 137/137/137 138/138/138
f 139/139/139 140/140/140 141/141/141
f 142/142/142 143/143/143 144/144/144
f 145/145/145 146/146/146 147/147/147
f 148/148/148 149/149/149 150/150/150
f 151/151/151 152/152/152 153/153/153
f 154/154/154 155/155/155 156/156/156
f 157/157/157 158/158/158 159/159/159
f 160/160/160 161/161/161 162/162/162
f 163/163/163 164/164/164 165/165/165
f 166/166/166 167/167/167 168/168/168
f 169/169/169 170/170/170 171/171/171
f 172/172/172 173/173/173 174/174/174
f 175/175/175 176/176/176 177/177/177
f 178/178/178 179/179/179 180/180/180
f 181/181/181 182/182/182 183/183/183
f 184/184/184 185/185/185 186/186/186
f 187/187/187 188/188/188 189/189/189
f 190/190/190 191/191/191 192/192/192
f 193/193/193 194/194/194 195/195/195
f 196/196/196 197/197/197 198/198/198
f 199/199/199 200/200/200 201/201/201
f 202/202/202 203/203/203 204/204/204
f 205/205/205 206/206/206 207/207/207
f 208/208/208 209/209/209 210/210/210
f 211/211/211 212/212/212 213/213/213
f 214/214/214 215/215/215 216/216/216
f 217/217/217 218/218/218 219/219/219
f 220/220/220 221/221/221 222/222/222
f 223/223/223 224/224/224 225/225/225
f 226/226/226 227/227/227 228/228/228
f 229/229/229 230/230/230 231/231/231
f 232/232/232 233/233/233 234/234/234
f 235/235/235 236/236/236 237/237/237
f 238/238/238 239/239/239 240/240/240
f 241/241/241 242/242/242 243/243/243
f 244/244/244 245/245/245 246/246/246
f 247/247/247 248/248/248 249/249/249
f 250/250/250 251/251/251 252/252/252
f 253/253/253 254/254/254 255/255/255
f 256/256/256 257/257/257 258/258/258
f 259/259/259 260/260/260 261/261/261
f 262/262/262 263/263/263 264/264/264
f 265/265/265 266/266/266 267/267/267
f 268/268/268 269/269/269 270/270/270
f 271/271/271 272/272/272 273/273/273
f 274/274/274 275/275/275 276/276/276
f 277/277/277 278/278/278 279/279/279
f 280/280/280 281/281/281 282/282/282
f 283/283/283 284/284/284 285/285/285
f 286/286/286 287/287/287 288/288/288
f 289/289/289 290/290/290 291/291/291
f 292/292/292 293/293/293 294/294/294
f 295/295/295 296/296/296 297/297/297
f 298/298/298 299/299/299 300/300/300
f 301/301/301 302/302/302 303/303/303
f 304/304/304 305/305/305 306/306/306
f 307/307/307 308/308/308 309/309/309
f 310/310/310 311/311/311 312/312/312
f 313/313/313 314/314/314 315/315/315
f 316/316/316 317/317/317 318/318/318
f 319/319/319 320/320/320 321/321/321
f 322/322/322 323/323/323 324/324/324
f 325/325/325 326/326/326 327/327/327
f 328/328/328 329/329/329 330/330/330
f 331/331/331 332/332/332 333/333/333
f 334/334/334 335/335/335 336/336/336
f 337/337/337 338/338/338 339/339/339
f 340/340/340 341/341/341 342/342/342
f 343/343/343 344/344/344 345/345/345
f 346/346/346 347/347/347 348/348/348
f 349/349/349 350/350/350 351/351/351
f 352/352/352 353/353/353 354/354/354
f 355/355/355 356/356/356 357/357/357
f 358/358/358 359/359/359 360/360/360
f 361/361/361 362/362/362 363/363/363
f 364/364/364 365/365/365 366/366/366
f 367/367/367 368/368/368 369/369/369
f 370/370/370 371/371/371 372/372/372
f 373/373/373 374/374/374 375/375/375
f 376/376/376 377/377/377 378/378/378
f 379/379/379 380/380/380 381/381/381
f 382/382/382 383/383/383 384/384/384
f 385/385/385 386/386/386 387/387/387
f 388/388/388 389/389/389 390/390/390
f 391/391/391 392/392/392 393/393/393
f 394/394/394 395/395/395 396/396/396
f 397/397/397 398/398/398 399/399/399
f 400/400/400 401/401/401 402/402/402
f 403/403/403 404/404/404 405/405/405
f 406/406/406 407/407/407 408/408/408
f 409/409/409 410/410/410 411/411/411
f 412/412/412 413/413/413 414/414/414
f 415/415/415 416/416/416 417/417/417
f 418/418/418 419/419/419 420/420/420
f 421/421/421 422/422/422 423/423/423
f 424/424/424 425/425/425 426/426/426
f 427/427/427 428/428/428 429/429/429
f 430/430/430 431/431/431 432/432/432
f 433/433/433 434/434/434 435/435/435
f 436/436/436 437/437/437 438/438/438
f 439/439/439 440/440/440 441/441/441
f 442/442/442 443/443/443 444/444/444
f 445/445/445 446/446/446 447/447/447
f 448/448/448 449/449/449 450/450/450
f 451/451/451 452/452/452 453/453/453
f 454/454/454 455/455/455 456/456/456
f 457/457/457 458/458/458 459/459/459
f 460/460/460 461/461/461 462/462/462
f 463/463/463 464/464/464 465/465/465
f 466/466/466 467/467/467 468/468/468
f 469/469/469 470/470/470 471/471/471
f 472/472/472 473/473/473 474/474/474
f 475/475/475 476/476/476 477/477/477
f 478/478/478 479/479/479 480/480/480
f 481/481/481 482/482/482 483/483/483
f 484/484/484 485/485/485 486/486/486
f 487/487/487 488/488/488 489/489/489
f 490/490/490 491/491/491 492/492/492
f 493/493/493 494/494/494 495/495/495
f 496/496/496 497/497/497 498/498/498
